<?xml version="1.0" encoding="UTF-8" standalone="no"?>
<!DOCTYPE svg PUBLIC "-//W3C//DTD SVG 1.1//EN" "http://www.w3.org/Graphics/SVG/1.1/DTD/svg11.dtd">
<svg width="100%" height="100%" viewBox="0 0 154 170" version="1.1" xmlns="http://www.w3.org/2000/svg" xmlns:xlink="http://www.w3.org/1999/xlink" xml:space="preserve" xmlns:serif="http://www.serif.com/" style="fill-rule:evenodd;clip-rule:evenodd;stroke-miterlimit:10;">
    <g transform="matrix(1,0,0,1,-886.026,-723.141)">
        <g transform="matrix(4.16667,0,0,4.16667,1010.26,886.748)">
            <path d="M0,-38.029C-1.541,-40.855 -5.86,-38.334 -4.317,-35.505C1.351,-25.108 3.387,-13.362 1.401,-1.674C0.867,1.473 5.685,2.826 6.223,-0.344C8.442,-13.412 6.352,-26.38 0,-38.029" style="fill:rgb(23,187,238);fill-rule:nonzero;"/>
        </g>
        <g transform="matrix(4.16667,0,0,4.16667,1021.3,871.846)">
            <path d="M0,-2.018C-9.835,-4.878 -19.92,-5.722 -30.088,-4.463C-33.239,-4.073 -33.278,0.932 -30.088,0.537C-20.316,-0.673 -10.791,0.052 -1.329,2.803C1.767,3.704 3.089,-1.12 0,-2.018" style="fill:rgb(181,178,177);fill-rule:nonzero;"/>
        </g>
        <g transform="matrix(4.16667,0,0,4.16667,986.278,853.667)">
            <path d="M0,-28.985C-7.495,-20.502 -14.99,-12.019 -22.485,-3.536C-24.609,-1.132 -21.086,2.417 -18.95,0C-11.455,-8.484 -3.96,-16.966 3.535,-25.449C5.659,-27.853 2.136,-31.402 0,-28.985" style="fill:rgb(244,146,31);fill-rule:nonzero;"/>
        </g>
        <g transform="matrix(4.16667,0,0,4.16667,1022.32,734.448)">
            <path d="M0,34.893C-9.153,30.455 -19.388,28.371 -29.936,29.402C-21.831,19.679 -13.809,9.878 -5.87,0C-1.805,10.277 0.271,23.199 0,34.893Z" style="fill:none;stroke:rgb(30,28,26);stroke-width:3px;"/>
        </g>
    </g>
</svg>
