<?xml version="1.0" encoding="utf-8"?>
<!-- Generator: Adobe Illustrator 21.1.0, SVG Export Plug-In . SVG Version: 6.00 Build 0)  -->
<svg version="1.1" xmlns="http://www.w3.org/2000/svg" xmlns:xlink="http://www.w3.org/1999/xlink" x="0px" y="0px"
	 viewBox="0 0 841.9 595.3" enable-background="new 0 0 841.9 595.3" xml:space="preserve">
<g id="Layer_2">
	<path d="M296.4,301.2c-0.1-0.6-0.4-1.2-0.9-1.5c-0.1-0.1-0.1-0.2-0.2-0.2c-0.7-0.9-2.3-0.8-3,0c-0.7,0.8-0.8,1.8-0.2,2.7
		c0,0.7,0.2,1.5,0.6,2.1c0.5,0.8,1.5,1.3,2.4,1c0.9-0.3,1.5-1.1,1.6-2.1C296.8,302.4,296.6,301.8,296.4,301.2z"/>
	<path d="M245.5,324.9c0.3-1-0.5-2.3-1.5-2.5c-1.2-0.3-2.2,0.4-2.6,1.5c-0.5,1.3,0,2.8,0.9,3.8c0.8,0.8,2.3,0.8,3,0
		C246.1,326.9,246.1,325.8,245.5,324.9z"/>
	<path fill="#EC6608" d="M301.7,255.2c-0.1-0.4-0.3-0.8-0.6-1.1c-1.9-2.4-5.9-1.4-8.5-0.9c-1.7,0.4-3.4,0.9-5,1.6
		c-7.1,0.2-13.9,2.2-20.2,5.7c-0.2,0.1-0.4,0.3-0.5,0.4c-2.8,0.8-5.6,1.6-8.4,2.4c-1,0.3-2.1,0.5-3.1,0.8c-1,0.3-1.5,1-1.5,1.8
		c-5.4,1.2-10.6,2.8-15.7,4.8c-1.7,0.7-1.8,2.7-0.9,3.7c-3.2,1.2-6.4,2.5-9.4,4c-2.9,1.2-5.5,2.8-8,4.9c-1,0.8-0.7,2.2,0.1,3
		c-2.1,1.2-4.1,2.5-6,3.9c-0.5,0.4-0.8,0.8-0.9,1.3c-1.6,1-3.2,2.1-4.8,3.1c-0.8,0.5-1.1,1.3-1,2c-1,0.6-1.9,1.1-2.9,1.7
		c-0.4,0.2-0.6,0.5-0.8,0.8c-1.6,1-3.2,1.9-4.8,2.9c-1.8,1.1-1,3.5,0.6,3.9c-1.5,2.9-1.7,5.6,1.1,7.3c0.5,0.3,1,0.5,1.5,0.5
		c0.8,0.8,2,1.1,3,0.1c1.5-1.4,2.9-2.8,4.4-4.3c0.3-0.3,0.6-0.6,0.9-0.9c0,0,0.1-0.1,0.1-0.1c0.5-0.4,1-0.9,1.5-1.3
		c0.6-0.4,1.1-0.8,1.8-1c0.8-0.3,1.2-1,1.4-1.7c3.4-2.9,6.7-5.8,10.1-8.7c0.3-0.2,0.4-0.5,0.5-0.9c0.5,0,0.9-0.2,1.3-0.5
		c3.4-2.7,7-5.3,10.7-7.7c1.7-1,3.5-2,5.2-3c0.3-0.2,0.5-0.4,0.7-0.6c0.6-0.3,1.2-0.7,1.8-1c2.6-1.4,5.2-2.8,7.7-4.1
		c0.9-0.5,1.2-1.3,1-2.1c4.4-1.8,8.9-3.6,13.3-5.4c0.5-0.2,0.9-0.6,1.2-1.1c3.1-1.3,6.3-2.7,9.4-4c0.1,0,0.2-0.1,0.3-0.2
		c1.2-0.4,2.3-0.9,3.4-1.4c2.5-0.6,5-1.4,7.5-2.2c3.4,0.2,7,0.1,9.7-1.3c0.5-0.2,1-0.6,1.3-1c0.3,0,0.6,0,0.9,0
		C304,259.6,304.1,255.6,301.7,255.2z"/>
	<path d="M277.5,324.6c-0.6-1-1.9-1.3-2.9-0.8c-1.4,0.8-2.8,1.6-4,2.6c-0.1,0.1-0.2,0.2-0.3,0.3c-0.6-0.2-1.3-0.3-1.8,0.1
		c-1.1,0.8-2.3,1.4-3.5,1.9c-1,0.1-2,0.5-2.7,1.1c-1.7,1.4,0.2,4,2.1,3.6c0.1,0,0.2,0,0.2-0.1c0,1.1,0.6,2.2,2.1,2.2
		c1.5,0,2.2-1.3,2-2.4c0.6-0.4,1.3-0.9,1.9-1.3c0.5-0.4,0.8-0.9,0.9-1.4c0.5,0.1,1,0,1.3-0.3c1.3-1,2.6-1.8,4-2.6
		C277.7,327,278.1,325.6,277.5,324.6z"/>
	<path d="M292.2,322.1c0.1-0.3,0.2-0.6,0.3-0.9c0.2-0.7,0.1-1.4-0.3-1.8c0.1-0.7-0.3-1.6-0.8-2c-0.5-0.4-1-0.5-1.6-0.4
		c-0.6,0.1-1.2,0.3-1.6,0.9c-1.1,0.9-2.2,1.7-3.5,2.3c-2.4,1.3-0.3,4.9,2.2,3.7c0.1,0,0.1-0.1,0.2-0.1c0,0,0,0,0,0
		c0.9,1.1,2.2,1.6,3.6,1.8c0.5,0.1,1.2-0.3,1.5-0.6c0.4-0.4,0.6-1,0.6-1.5C292.7,322.9,292.6,322.4,292.2,322.1z"/>
	<path fill="#3C3C3B" d="M220.4,244.7c-0.4,0.1-0.8,0.3-1.2,0.4c-0.6-0.7-1.6-1-2.6-0.4c0,0,0,0,0,0c0,0,0,0-0.1,0
		c-4.4-0.2-8.6,0.6-12.6,2.4c-3.2,1.5-7.5,3.9-8.4,7.6c-0.1,0.2-0.1,0.4-0.1,0.6c-0.5,0.1-1,0.4-1.4,0.9c-2.3,3.3-3,7.3-3.9,11.1
		c-1.1,4.8-2.1,9.7-3,14.6c-0.3,1.5,0.9,2.8,2.3,2.7c-1.2,6.2-1.7,12.5-1.7,18.5c0,1.2,0.8,1.9,1.7,2c0.3,1.6,0.6,3.2,1,4.7
		c1.6,5.9,4.7,11.2,5,17.5c0.3,6.9-1.6,13.6-3.5,20.1c-0.7,2.5,2.9,3.6,3.9,1.6c0.3,0.1,0.7,0,1-0.1c5.1-2,10.2-4,15.4-6
		c0.1,0.1,0.3,0.2,0.4,0.3c2,1.2,3.7-1.1,2.9-2.9c-1.7-3.9-4.6-6.9-8.3-8.7c0-0.1-0.1-0.3-0.1-0.4c-0.6-1.9-1.4-3.7-2.5-5.3
		c-1-1.5-3.2-3-4.2-4.7c-0.3-0.9-0.5-1.7-0.7-2.6c-0.3-1.2-1.3-1.6-2.3-1.5c-0.3-0.9-0.6-1.8-1-2.7c-4.7-12.2-4.7-25.4-0.1-37.6
		c0.1-0.4,0.2-0.7,0.1-1c1.3-2,2.4-4.1,3.3-6.4c0.1-0.1,0.1-0.2,0.2-0.3c0.5-0.7,0.5-1.3,0.2-1.9l2-3.2c4.5-4.2,9.2-8.2,14.1-11.9
		c0.6-0.5,0.9-1.1,0.9-1.8c1.4-0.6,2.9-1.1,4.4-1.5C224.2,248.1,223.1,244,220.4,244.7z"/>
	<path fill="#3C3C3B" d="M315.7,276.9c-2.3-6-5.2-11.1-9.2-16.2c-2.4-3-7-0.9-7.9,2.3c-2.3,0.3-4.5,0.8-6.7,1.5
		c-1.4,0.4-2.7,1-4.1,1.6c-2.6,0.7-5.3,1.3-7.9,1.9c-1,0.2-1.6,0.7-2.1,1.4c-1,0.4-1.9,0.9-2.9,1.4c-2.8,0.5-5.5,1.5-7.9,3.1
		c-0.3,0.2-0.6,0.5-0.7,0.8c-1.1,0.3-2,0.7-3,1.1c-4.8,2-9.4,4.6-13.8,7.6c-6.6,2.5-12.8,6.5-18.5,10.2c-4.2,2.7-8,5.9-11.7,9.3
		c-1.9,1.7-3.7,3.5-5.4,5.4c-1,1.1-2,2.7-3.1,4c-1,0.6-2.1,1.2-3.1,1.7c-0.8,0.4-1.3,0.9-1.5,1.6c-0.6,0.4-1.2,0.8-1.8,1.2
		c-2.3,1.5-0.2,5.2,2.2,3.7c0,0,0.1,0,0.1-0.1c-1.1,1.4-0.8,3.4,0.5,4.4c0.3,0.6,0.9,1.2,1.6,1.5c8.9,3.8,18.3-3.7,25.6-8.3
		c4.1,0.1,7.9-2.1,11.3-4.2c3.5-2.1,6.7-4.6,9.3-7.8c0.5-0.7,0.6-1.4,0.4-2.1c1.7-1.2,3.4-2.4,5-3.6c0.7-0.5,1.2-1,1.5-1.6
		c3-1.7,5.8-3.8,8.4-6.1c0.9,1.6,2.6,2.8,4.6,2.8c7.9-0.2,16.6,0.4,24.2-2.1c5.2-1.7,11-5,13.9-10
		C315.2,282.1,316.8,279.8,315.7,276.9z"/>
	<path fill="#3C3C3B" d="M293.7,241.3c-17-3.6-34.7-5.7-51.9-1.6c-16.4,4-27.8,13.9-38.6,25.6c-1.6,1.7-1.9,3.6-1.5,5.1
		c-3.1,4.7-5.4,9.8-7.1,15.1c-0.5,1.7,0.1,3.2,1.2,4.2c-0.2,0.8-0.4,1.6-0.5,2.5c-0.6,3.3,3.8,6.8,6.8,3.7c3.8-4,7.9-7.8,12.6-10.9
		c4.4-2.9,10-4.4,14.1-7.7c1.5-1.2,1.4-2.7,0.7-3.8c5.1-2.7,10.3-5.4,15.6-7.9c14.7-7,30.5-12.8,47.1-13.6
		C298.5,251.8,300.5,242.8,293.7,241.3z"/>
	<path fill="#C30064" d="M284.9,326.1c-0.1,0.2-0.2,0.5-0.3,0.7c-4,0.9-7.8,2.4-11.4,4.4c-0.6,0.3-0.9,0.8-1,1.3c0,0,0,0,0,0
		c-2,1.9,1,4.9,3,3c0.1-0.1,0.1-0.1,0.2-0.2c0.3,0.2,0.6,0.3,1,0.3c4.4,0.3,8.3-1.7,10.8-5c0.1-0.1,0.3-0.1,0.4-0.2
		c1.3-0.6,1.7-1.9,1.3-2.9c0.1-0.2,0.1-0.3,0.2-0.5C290,324.7,285.8,323.6,284.9,326.1z"/>
	<path fill="#EC6608" d="M239.2,274.9c-7,2.6-15.5,5.4-21,10.6c-2,1.9,1,4.9,3,3c0.2-0.2,0.3-0.3,0.5-0.5c0.5,0,1-0.1,1.5-0.5
		c2.8-2.3,5.9-3.9,9.3-5c0.5,0.2,1.1,0.1,1.7-0.3c0.3-0.2,0.6-0.3,0.9-0.5c0.8-0.3,1.2-0.8,1.4-1.4c1.3-0.5,2.6-1,3.8-1.4
		C242.9,278.1,241.8,273.9,239.2,274.9z"/>
	<path fill="#EC6608" d="M199.6,432.9c0.1,2.1-8.1,4.1-9.8,4.8c-0.9,0.4-1.7,0.8-2.5,1.2c-0.5-0.2-1.1-0.2-1.8,0.1
		c-1.8,1-3.3,2.3-4.3,4.1c0,0.1-0.1,0.1-0.1,0.2c-0.1,0.1-0.2,0.2-0.3,0.3c-0.1,0.1-0.2,0.3-0.3,0.4c-0.2,0-0.5,0.1-0.7,0.3
		c-1.3,0.9-2.3,1.8-3.1,3c-0.7,0-1.4-0.1-2.1-0.2c-2-0.3-3.7,2-2.1,3.6c0.9,0.8,1.9,1.3,2.9,1.6c1.5,0.9,3.3,1.1,5.1,0.6
		c0.2-0.1,0.4-0.2,0.6-0.3c0.3,0.1,0.5,0.2,0.9,0.2h0.6c1.1,0,2.2-1,2.1-2.1c0-0.6-0.3-1.1-0.7-1.5c0.1-0.4,0.1-0.8,0.2-1.2
		c0.1-0.7,0.3-1.3,0.6-1.9c3.8-3.3,8.5-5,13.2-6.7c3.1-1.2,6.2-2.5,6.1-6.3C203.8,430.2,199.5,430.1,199.6,432.9z"/>
	<path fill="#EC6608" d="M305.8,490c-0.6-0.9-1.5-1.2-2.3-0.9c0,0,0-0.1-0.1-0.1c-1.1-2.2-4.5-0.7-3.9,1.6c0,0-7.7-0.3-8.4-0.4
		c-3.2-0.6-6.1-1.8-8.7-3.9c-2.1-1.7-5.2,1.3-3,3c3.9,3.2,8.3,4.8,13.2,5.3c0.2,0.6,0.6,1.2,1.4,1.5c3,1.2,5.9,1.9,9.1,2.2
		c1.2,0.1,2.1-1.1,2.1-2.1c0-0.2,0-0.3,0-0.5C306.7,494.3,307,492,305.8,490z"/>
	<path fill="#EC6608" d="M318.8,170.2c-0.2-0.1-0.3-0.1-0.5-0.1c-0.3-0.5-0.6-1-0.9-1.4c-0.1-0.2-0.2-0.3-0.4-0.5
		c-1.2-3.3-2.7-6.6-3.9-9.8c-0.3-0.7-0.7-1.2-1.3-1.4c-0.2-3.4-0.6-6.8-1.3-10.2c-0.2-0.7-0.5-1.2-1-1.5c0.3-1.9,0.8-3.9,1.5-5.8
		c0.4-1.3-0.3-2.4-1.4-2.9c-0.2-0.7-0.7-1.3-1.6-1.7c-5.4-2-11-3-16.8-2.9c-1.1,0-1.9,0.6-2.2,1.4c-0.5,0-1,0.1-1.5,0.1
		c-1.6,0.2-2.7,1.7-2.4,3c-0.4,0.6-0.6,1.4-0.3,2c0.8,2,2.2,3.4,3.9,4.3c-0.3,0.9-0.2,1.8,0.2,2.8c-2.3-0.1-4.2-0.1-5.9,1.3
		c-1.2,0.3-2.2,0.9-2.9,1.9c-2.7,4,2.5,7.3,5.9,7.7c0.7,0.1,1.5,0.1,2.4,0c-0.8,0.9-1.2,2.1-1.2,3.4c0,0.3,0,0.6,0.1,0.9
		c-0.6,0.4-1.1,0.8-1.6,1.3c-1.6,1.6-2.7,3.8-2.7,6c-0.3,1.3,0,2.8,1.1,4.4c2.8,3.9,6.5,3.6,10,1.6c0,0.9,0.2,1.8,0.6,2.6
		c0.7,1.3,1.8,1.9,3.1,2.1c-0.4,0.7-0.8,1.4-1.1,2.2c-1,2.3,1.1,4.6,3.4,3.4c0.7-0.3,1.3-0.7,1.9-1.1c2.6,0.5,5.1,0.1,7.4-1.4
		c0.5-0.3,1.1-1,1.9-1.9c3-1.2,5.7-2.8,6.6-5.1c0,0,0-0.1,0-0.1C320.7,175.3,321.7,171.1,318.8,170.2z M299.7,173.7
		C299.7,173.7,299.7,173.7,299.7,173.7C299.7,173.7,299.7,173.7,299.7,173.7c0-0.6,0.2-1.2,0.4-1.9c0.1,0,0.2,0.1,0.3,0.1
		c0,0,0,0,0,0C300.2,172.5,300,173.1,299.7,173.7z"/>
	<path fill="#EC6608" d="M398.4,150C398.4,150,398.5,150,398.4,150c6.5-0.4,3.4-6.2,3.6-10c0.1-1.8-1.8-2.7-3.3-2.3
		c-0.7-0.5-1.4-0.9-2.1-1.3c-0.2-0.3-0.4-0.5-0.7-0.7c-0.6-0.5-1.3-0.7-1.9-0.7c0.6-0.4,1.1-0.9,1.6-1.3c1.9-0.6,3.6-1.9,4.9-3.5
		c0.3-0.1,0.6-0.1,0.9-0.2c1.8-0.5,2.1-2.4,1.4-3.7c-0.2-1-1-1.8-2.3-1.7c-1,0-2.1,0.1-3.1,0.2c-1.5-1.1-4.1-0.7-6.3,0.5
		c-0.3,0-0.6,0.1-0.9,0.2c-0.1,0-0.2,0-0.3,0c-0.1,0-0.2,0-0.3,0.1c-0.4-1-1.4-1.7-3-1.8c0,0,0,0,0,0c-0.1-0.1-0.2-0.3-0.3-0.4
		c0.7-1.4,1.2-2.9,1.6-4.4c0.1-0.3,0.3-0.5,0.4-0.8c0,0,0.1,0,0.1,0c0.1,0,0.2-0.1,0.3-0.1c0.9-0.4,1.5-1.9,1.1-2.8
		c0-0.1-0.1-0.2-0.1-0.4c0,0,0,0,0,0c0-0.1,0-0.1,0-0.2c0-2.9-3.6-3.1-4.8-1c-0.5,0.2-0.8,0.6-1.1,1c-6.3,2.2-11.2,6.5-13.9,12.6
		c-0.5,1.2-0.4,2.7,0.9,3.4c0.1,0,0.1,0,0.2,0.1c-0.3,1.4-0.2,2.9,0.8,4.2c0.6,0.9,1.5,1.4,2.4,1.8c0.5,0.8,0.9,1.6,1.2,2.4
		c0,2.6,0.3,5.2,0.4,7.7c-1.8,3.9-2.1,7.9,1.6,9.7c0.9,1.9,3.4,3.5,6.1,4.5c1.5,1.1,3.3,1.7,4.9,1.5c1.4,1,3,1.5,4.7,1.3
		c0.9,0.2,1.9,0.3,2.9,0.2c0.7,1.1,2.1,1.7,3.4,1c6-3.5-1.1-9.4-3-13c-0.7-1.3-2-1.5-3.1-1c-0.2-0.3-0.5-0.6-0.8-0.8
		c0.4-0.2,0.7-0.4,1-0.6C395,150.4,396.8,150.6,398.4,150z"/>
	<path fill="#EC6608" d="M347.4,169.6c-0.8-2.5-2.5-4.2-4.9-5.2c0.2-1.3,0.2-2.5,0.3-3.6c0.3-4-0.1-7.7-2.7-10.5c0-2-0.1-4-0.2-6
		c-0.1-1.2-1-2-2-2.3c1.3-4.5,1.6-9.2,2.4-13.9c0.1-0.3,0.2-0.6,0.3-0.9c0.1-0.4,0.2-0.8,0.1-1.1c0.4-1.1,0.8-2.1,1.2-3.2
		c0.2-0.6,0.2-1.1,0.1-1.5c0,0,0-0.1,0-0.1c0.9-2.5-2.3-3.9-4-2.4c-0.7-0.2-1.4-0.2-1.9,0.3c-0.8-1.2-2.5-1.7-3.6-0.3
		c-0.7,0.8-1.3,1.6-1.9,2.5c-0.5,0.4-0.8,0.9-0.9,1.4c-3.2,5-5.1,10.5-5.6,16.6c-0.1,0.9,0.2,1.5,0.7,1.9c-0.9,0.1-1.6,0.6-1.9,1.8
		c-1.3,6-0.6,11.8,2.2,17.3c0.8,1.6,2.4,1.5,3.5,0.7c0,0,0,0.1,0,0.1c0.2,1.4,0.3,2.7,0.3,3.9c0,1,0.6,1.8,1.4,2.2
		c0.6,1.6,1.4,3.6,2.7,4.7c0.2,0.8,0.8,1.6,1.7,1.8c1.2,0.2,2.4,0.3,3.6,0.3c1.1,0.4,2.3,0.6,3.4,0.5c1.2,0.3,2.4,0.7,3.6,1
		c1.5,0.4,2.8-0.7,3.1-2C349.2,172.2,348.7,170.4,347.4,169.6z"/>
	<path fill="#0BBBEF" d="M328.2,168.3c-0.7-0.8-1.3-1.7-1.9-2.6c-0.2-5.4-1.5-10.4-3.7-15.4c0,0,0-0.1,0-0.1
		c0.3-2.2,0.4-4.4,0.3-6.7c-0.2-4.3-1.5-8.4-0.8-12.6c0.1-0.3,0.2-0.5,0.3-0.8c0.2-0.4,0.2-0.8,0.2-1.2c0.1-0.1,0.1-0.2,0.2-0.2
		c2-2.5-1.5-6-3.5-3.5c-1,1.2-1.8,2.4-2.6,3.7c-0.6,0.3-1,0.8-1.1,1.6c0,0.2,0,0.3-0.1,0.5c-3.6,7.2-4.3,15.4-1.4,23.3
		c0.1,0.4,0.3,0.7,0.6,0.9c1.6,4.8,3.9,9.2,7,13.2c0.3,0.4,0.6,0.6,1,0.8c0.6,0.9,1.2,1.7,1.9,2.6
		C326.7,174.3,330.3,170.7,328.2,168.3z"/>
	<path fill="#0BBBEF" d="M364.5,163.9c-4.5-4.4-5.4-11.1-8.2-16.7c-0.7-7.8-0.7-15.9,2.4-22.4c0.7-1.6-0.1-3.9-2.2-3.8
		c-3.7,0.2-6.9-0.4-10.2-2.1c-2.7-1.4-4.7,1.8-3,3.8c-1.5,7.9-2.9,16-1.8,24.1c-1.2,0-2.3,0.8-2.1,2.4c0.4,3.5,0.3,7.5,2,10.7
		c1.8,3.4,5.3,6.9,8.2,9.4c0.3,0.3,0.7,0.5,1,0.7c-0.2,0.5-0.3,1.1-0.1,1.6c0.4,1.2,1.8,2.2,3.1,1.7c1.1-0.4,2.1-0.8,3.1-1.3
		c2.6-0.4,5-2.7,7.3-4.4C365.3,166.9,365.7,165.1,364.5,163.9z"/>
	<path fill="#EC6608" d="M373.7,143.4c-0.1-2.1-1.1-4.2-2-6.1c-0.4-0.9-0.9-1.7-1.3-2.6c-0.4-1.2-0.9-2.3-1.5-3.3
		c-0.6-2.8-2-5-4.5-5.2c-0.4-0.5-0.9-1-1.3-1.5c-1.8-2-4.6,0.2-4.2,2.3c-0.4,0.4-0.7,1-0.8,1.7c-0.2,6.7,0.3,13.3,1.9,19.8
		c0.8,3.4,2.1,12,6.2,13.3c4.8,1.5,6.1-3.7,6-10c0.2-0.4,0.3-0.8,0.3-1.4C372.3,148.1,373.9,146,373.7,143.4z"/>
	<path d="M506.2,194.8c0.2-0.5,0.4-1,0.6-1.5c0.4-1.2-0.2-2.2-1.1-2.8c-0.2-0.2-0.4-0.4-0.7-0.5c0.7-2.4-2.5-5-4.5-2.7
		c-2.8,3-5.2,6.3-6.8,10.1c-1.1,2.5-3.2,6.6-0.5,8.9c2.7,2.3,5.7,0,7.3-2.4c0.2-0.4,0.5-0.7,0.7-1.1c0.5-0.2,0.9-0.5,1.3-0.9
		c0.2-0.3,0.4-0.5,0.6-0.8c0.4-0.1,0.7-0.2,1-0.5c1.5,0.1,3-0.7,2.8-2.6c0-0.5-0.1-1-0.1-1.5C506.7,195.7,506.5,195.2,506.2,194.8z"
		/>
	<path d="M556.1,199.4c0.6-1.8-0.9-4.1-2.9-3.7c-1.6-0.2-3.3,0.7-3.2,2.4c-2.7,3.2-3.2,8-0.6,11.6c1.2,1.7,3.5,1.8,4.8,0
		C556.2,206.7,556.9,202.9,556.1,199.4z"/>
	<path fill="#EC6608" d="M287.6,376.9c-0.3-1.2-1-2.3-1.9-3.1c-0.5-0.8-1.3-1.2-2.5-0.9c-0.6,0-1.2,0.1-1.8,0.3
		c-0.6,0.2-1.2,0.6-1.5,1.2c-0.2,0.3-0.4,0.6-0.5,1.1c-0.5,2-1,3.9-1.5,5.9c-0.2,0.6-0.1,1.2,0.1,1.6c0,0.1,0,0.3-0.1,0.4
		c-0.3,0.5-0.7,0.9-1,1.2c-0.4,0.3-0.7,0.5-0.9,0.7c-0.5-0.5-1.1-0.9-1.6-1.4c0.3-0.3,0.6-0.7,0.7-1.1c0.3-1.3-0.4-2.7-1.7-3.1
		c-1.2-0.3-2.4-0.1-3.5,0.4c-0.2,0.1-0.4,0.2-0.6,0.4c-0.4-0.3-0.8-0.6-1.1-0.8c-0.6-0.4-1.2-0.5-1.8-0.3c0,0-0.1,0-0.1,0
		c-2.4-0.9-3.9,2.4-2.5,4.1c-0.1,0.8,0.3,1.6,1.3,2.1c0.1,0,0.2,0.1,0.3,0.1c0.2,0.8,0.7,1.5,1.7,1.7c4.3,0.9,6.5,8.7,11.6,7.5
		c1.2-0.3,1.9-1,2.3-1.8c1.2-0.6,2-2,2.6-3.5c0.1-0.3,0.4-1,0.7-1.9c0.1-0.1,0.1-0.1,0.2-0.2C286.5,384.6,288.4,380.4,287.6,376.9z"
		/>
	<path fill="#EC6608" d="M513.4,306.1c-0.3-0.9-1.1-1.6-2-1.8c-0.1-0.7-0.5-1.2-1.2-1.6c0.7-3.3,0.9-6.5,0.5-9.9
		c-0.2-1.5-1.3-2.3-2.5-2.4c0.9-2.4,2.8-5.3,2.6-7.8c-0.1-1.3-0.7-2.5-1.7-3.3c-1.1-0.9-4.6-1.3-6-2.3c0.1-0.8-0.2-1.7-1.1-2.3
		c-0.1-0.1-0.2-0.1-0.3-0.2c-1-0.7-2.2-0.3-3,0.4l-0.4,0.3c-0.4,0.3-0.6,0.9-0.7,1.5c-2-0.9-4.5-0.8-6.4,0.7
		c-6.9,5.6-12,13.8-13.1,22.7c0,0.2,0,0.4,0,0.6c-1.7,1.3-1.3,4.7,1.4,4.5c0.5,0,1.1-0.1,1.6-0.2c0.2,0,0.4,0,0.7-0.1
		c1.5,0.4,3.1,0.4,4.4-0.3c2.1-1.1,3.7-2.6,5.1-4.4c0.1-0.1,0.1-0.1,0.2-0.2c-0.3,2-0.5,4-0.5,5.9c-0.8,3.1-1.3,6.2-1.1,9.5
		c0.2,5.2,5.5,6.8,8.9,4.9c4.4-1.9,9.1-7.9,11.4-10.2c0.2-0.2,0.3-0.4,0.4-0.6l1.2-0.4C512.9,308.8,513.8,307.5,513.4,306.1z"/>
	<path fill="#EC6608" d="M590.5,313.1c-0.5-1.2-1-2.2-1.8-3.2c0-0.2,0.1-0.4,0.1-0.6c-0.3-5.6-1.2-11-2.7-16.3
		c-0.3-1.1-1.4-1.8-2.4-1.8c-1.4-4.9-3.7-9.4-7.9-12.4c-3.3-2.4-6.8-2.6-10.7-2c-4.6,0.7-9,1.1-13.5,1c-0.1-0.1-0.2-0.2-0.3-0.3
		c-1.1-1.2-2.6-0.8-3.5,0.2c-0.4,0-0.8,0-1.3-0.1c-3.2-0.3-3.2,4.7,0,5c0,0,0.1,0,0.1,0l-0.2,1.3c-2.1,0.6-1.9,3.1-0.5,4.2
		c-0.3,2.5-0.6,4.9-0.9,7.4c-0.1,0.8,0.1,1.4,0.6,1.8c0,0.1-0.1,0.2-0.1,0.3c-0.5,0.5-1,1.1-1.5,1.6c-3.2,1.8-6.4,4.6-8.8,7
		c-1.1-0.8-2.7-0.8-3.4,0.7c-1.2,2.5-2.4,4.9-3.6,7.4c-1,2.1,0.6,4,2.8,3.7c0.1,0,0.2,0,0.3-0.1c0.4,0.7,1.1,1.3,2.1,1.4
		c1.6,0.2,3.3,0.4,5,0.5c3.5,2,9.9,0.6,13-0.2c0.9-0.2,1.8-0.6,2.5-1.1c0.6,0.4,1.3,0.7,2.1,0.4c5.2-1.5,10.6-3.6,12.5-9.2
		c0.1-0.3,0.2-0.6,0.2-0.8c0.2-0.2,0.5-0.3,0.7-0.5c1-0.9,0.9-2.6,0-3.5c-0.1-0.1-0.2-0.1-0.2-0.2c0-0.6,0-1.2-0.1-1.8
		c0.6-0.7,1.1-1.5,1.6-2.3c0.5,1.5,1.2,2.8,2.2,4.1c-0.1,0-0.3,0.1-0.4,0.1c-2.4,0.7-2.4,4.1,0,4.8c1.3,0.4,2.6,0.7,3.9,0.9
		c0.3,0.4,0.7,0.8,1.4,0.9c0.4,0.1,0.8,0.2,1.1,0.3c0.4,1.2,0.8,2.5,1.2,3.7c0.7,2.2,4.2,2.5,4.8,0c0.1-0.3,0.1-0.6,0.2-0.9
		c0.6,0.4,1.1,0.8,1.7,1.2C588.5,317.2,591.3,315,590.5,313.1z"/>
	<path fill="#EC6608" d="M587,373.9c0-0.1,0.1-0.1,0.1-0.2c1.9-5.3,1.3-11.2,0.9-16.7c-0.6-6.6-1.6-13-3.6-19.3
		c-1-3.1-4.5-4.6-7.3-3c-1.9,1.1-3.9,2.2-5.8,3.3c-1.2,0.7-2,1.7-2.3,2.7c-5.1,1.4-10.3,2.3-15.5,2.7c-5,0-10.1,0.1-15.1,0
		c-0.5,0-0.9,0-1.4,0c-9.1-0.8-18.1-2.9-26.7-6.4c-1.2-0.5-2.6-0.2-3.8,0.5c-1.6-0.2-3.1-0.4-4.8-0.4c-2.7,0-4.2,1.7-4.7,3.7
		c-4.5-0.1-6.6,6-3.5,8.7c-1.5,6.8-2.3,13.7-2.4,20.7c-0.1,3.2,2.4,4.8,4.9,4.8c1.3,0.9,2.9,1.4,4.6,1.7c0.3,0.2,0.7,0.4,1,0.5
		c23.4,9.3,48.7,11.5,73.4,7c1.3-0.2,2.2-0.8,2.8-1.6c0.7-0.2,1.3-0.5,1.9-0.8c1.5,0.1,3.1,0,4.6-0.2c2.6-0.5,4.3-3.7,3.5-6.2
		C587.6,374.9,587.3,374.3,587,373.9z"/>
	<path fill="#EC6608" d="M648,266.3c-0.5-1.7-1.1-3.4-1.9-4.9c-0.2-0.4-0.4-0.8-0.6-1.2c-0.1-0.2-0.3-0.4-0.4-0.6
		c-0.1-0.4-0.3-0.7-0.6-1c-0.2-2.7-4.7-2.6-5,0.4c-0.3,3.3-0.1,6.6,0.6,9.8c0.2,1.1,1,1.6,1.9,1.8c0.2,0.3,0.3,0.7,0.5,1
		c0,0,0,0.1-0.1,0.1c-0.5,1.2-0.4,2.7,0.9,3.4c1.1,0.6,2.9,0.4,3.4-0.9c0.4-0.9,0.8-1.8,1.2-2.7c0.5-0.4,0.8-1,0.8-1.8l0.1-0.2
		C649.3,268.4,649.2,267,648,266.3z"/>
	<path fill="#EC6608" d="M660.8,264.4c-0.7-1-1.2-2.2-1-3.4c0.2-1.1-0.2-2.2-1.1-2.8c0.1-2.4,0.3-4.8,0.6-7.2
		c0.5-3.1-4.3-4.5-4.8-1.3c0,0.3-0.1,0.5-0.1,0.8c-0.4,0.3-0.8,0.7-1,1.3c-1.5,4.3-1.3,8.9,0.5,13c0,0.3,0,0.6,0.1,0.8
		c0.1,1.1,0.8,1.8,1.6,2.1c0.2,0.3,0.4,0.5,0.6,0.8c1.7,2.3,5.3,0.5,4.7-1.7C661.2,266.2,661.4,265.2,660.8,264.4z"/>
	<path fill="#EC6608" d="M679.1,250.3c-0.5-1.7-1.3-3.1-2.3-4.5c0,0,0-0.1,0-0.1c0,0,0,0,0,0c-0.1-0.2-0.2-0.3-0.4-0.5
		c-0.6-0.8-1.5-1-2.2-0.7c-0.3-0.5-0.8-0.9-1.4-1.1c-0.6-1.5-2.5-1.6-3.7-0.7c-0.2-0.4-0.5-0.7-0.9-1.1c-2.3-2.3-5.8,1.2-3.5,3.5
		c0.2,0.1,0.3,0.3,0.2,0.5c-0.3,1.3,0.4,2.8,1.7,3.1c0.7,0.2,1.4,0.2,2.1,0.1c0.1,0,0.1,0.1,0.2,0.1c0.1,1.5,0.4,3,1.1,4.5
		c0.2,0.6,0.8,0.9,1.4,1.1c0.1,0.3,0.3,0.7,0.7,1c1.9,1.9,4.6,0.2,4.9-2.1c0.1,0,0.2-0.1,0.4-0.1C678.6,253,679.5,251.6,679.1,250.3
		z"/>
	<path fill="#EC6608" d="M702.6,255.1c-0.9,1.8-2.8,2.4-4.7,1.7c-1.3-0.5-2.7,0.5-3.1,1.7c-0.4,1.4,0.5,2.6,1.7,3.1
		c3.8,1.5,8.4-0.4,10.3-4C708.4,254.8,704.1,252.3,702.6,255.1z"/>
	<path fill="#EC6608" d="M673.6,293.2c0-0.4,0-0.9-0.3-1.4c-1.7-3.4-2.2-7.1-1.4-10.8c0.5-2.2-1.8-3.5-3.4-3
		c-0.9-1.3-3.2-1.8-4.4-0.1c-3.8,5.3-2,13.2,3.4,16.6c-0.1,0.6,0,1.2,0.3,1.7c0.8,1.2,2.2,1.5,3.4,0.9l1.3-0.7
		C673.7,295.9,674.1,294.3,673.6,293.2z"/>
	<path fill="#EC6608" d="M692,312.5c-1.2-3.2-3.4-5.7-6.2-7.4c-0.1-0.2-0.2-0.3-0.3-0.5c-0.8-1.4-2.3-1.5-3.4-0.8
		c-2,0.3-2.7,3.6-0.6,4.7c-0.9,1-0.9,2.5,0.1,3.5l0.7,0.7c0.9,0.9,2.4,1,3.4,0.2c0.7,0.7,1.5,1.4,2.3,2c0.9,0.7,2,1,3,0.4
		C691.8,314.8,692.4,313.5,692,312.5z"/>
	<path fill="#EC6608" d="M698.7,300.7c-2.2-1.3-3.7-3.2-4.3-5.7c-0.8-3.1-5.6-1.8-4.8,1.3c0.9,3.7,3.3,6.8,6.6,8.7
		C698.9,306.6,701.5,302.3,698.7,300.7z"/>
	<path fill="#EC6608" d="M707.1,290.6c-1.1-1-2.2-2-3.4-2.9c0.1-0.2,0.1-0.4,0.1-0.6c0-1-0.6-1.9-1.5-2.3c0.2-1.4-0.6-2.9-2.4-2.9
		c-1.7,0-2.5,1.4-2.4,2.7c-0.6,0.1-1.1,0.4-1.5,0.8c-0.4,0.4-0.7,1-0.6,1.6c0,0.5,0.2,1,0.5,1.5c0.4,0.6,1,1,2,1h0.3
		c1.7,1.5,3.5,3.1,5.2,4.6c1,0.9,2.5,1,3.5,0C708,293.2,708.1,291.5,707.1,290.6z"/>
	<path fill="#0BBBEF" d="M648,252.4c-1,3.4-1.3,6.8-1,10.3c0.3,3.2,5.3,3.2,5,0c-0.3-3.1,0-6,0.8-9
		C653.7,250.6,648.9,249.3,648,252.4z"/>
	<path fill="#0BBBEF" d="M670,253.5c-0.5-0.9-1.2-1.3-2-1.2c-0.1-0.5-0.2-1.1-0.4-1.6c-0.4-1.2-1.6-1.8-2.7-1.8
		c-0.9-2-4.7-1.6-4.8,1.1c-0.2,4.5,0.7,8.8,2.6,12.9c1,2.2,3.9,1.2,4.6-0.6c0.1-0.2,0.1-0.5,0.2-0.7c0.1,0,0.1-0.1,0.2-0.1
		C670.7,259.9,671.6,256.4,670,253.5z"/>
	<path fill="#0BBBEF" d="M701.8,248.6c-0.3-0.4-0.8-0.7-1.2-0.8c0,0,0,0,0.1,0c1.2-0.1,2.3-1,2.4-2.4c0-0.4,0.1-0.8,0.1-1.1
		c0.2-0.6,0.4-1.2,0.5-1.8c0.6-2.7-2.5-3.9-4.1-2.4c-0.7-0.2-1.5,0-2.2,0.7c-0.9,1-1.9,2-2.8,3c-0.8-1.7-3.4-2.3-4.4-0.3
		c-0.5,0.9-0.9,1.8-1.3,2.7c-0.4-0.1-0.8-0.3-1.3-0.5c-2.9-1.3-5.4,3-2.5,4.3c0.6,0.3,1.2,0.5,1.9,0.8c0,0.1-0.1,0.2-0.1,0.3
		c-0.4,1.2,0.5,2.9,1.7,3.1c1.5,0.2,2.5-0.1,3.4-0.7c0.2,1.3,1.3,2.5,2.7,2.3c0.3,0.2,0.7,0.2,1,0.2c2.7-0.3,5.2-1,7.5-2.4
		C705.5,251.9,704,248.5,701.8,248.6z M697,248.4c0.1,0.1,0.3,0.2,0.5,0.3c-0.4,0.2-0.8,0.4-1.2,0.5
		C696.5,248.9,696.7,248.6,697,248.4z"/>
	<path fill="#0BBBEF" d="M715.2,264c-0.8-0.2-1.6-0.2-2.3-0.1c-0.6-0.1-1.3-0.2-2-0.4c-1.3-0.4-2.5,0.4-3,1.5
		c-0.4,0.1-0.8,0.3-1.1,0.6c-0.1,0.1-0.4,0.4-0.4,0.4c-0.1,0.1-0.2,0.1-0.3,0.2c-0.1-0.1-0.2-0.2-0.3-0.3c1.4-0.8,2.6-1.9,3.6-3.3
		c1.8-2.7-2.6-5.2-4.3-2.5c-1,1.5-2.9,2.5-4.8,2.2c-1.3-0.2-2.7,0.3-3.1,1.7c-0.3,1.2,0.4,2.9,1.7,3.1c1.1,0.2,2.1,0.2,3.1,0.1
		c0,0.1-0.1,0.1-0.1,0.2c-0.8,2-1.6,4.5-1.5,6.7c0,1.1,0.6,2,1.3,2.6c0.7,1.5,2.6,2.2,4,0.9c0.7-0.6,1.2-1.3,1.7-2.1
		c3.6,1.5,5-1.6,5.3-5c0,0,0,0,0,0c1.4,0.2,2.2-0.7,2.3-1.7C717.4,267.8,717.8,264.5,715.2,264z"/>
	<path fill="#0BBBEF" d="M663.6,293.2c-1.9-1.3-2.8-3.3-2.8-5.5c0-0.5-0.1-1-0.4-1.3c0.1-0.1,0.1-0.2,0.2-0.3c0.2-0.3,0.4-0.7,0.4-1
		c0.5-0.4,0.8-1.1,0.8-1.7c0.1-0.1,0.1-0.3,0.2-0.4c0.2-0.6,0.1-1.4-0.3-1.9c-0.7-1-2.3-1.7-3.4-0.9c-0.7,0.5-1.2,1.1-1.5,1.9
		c-0.1,0.3-0.1,0.7-0.1,1c-0.2,0.1-0.3,0.3-0.5,0.5c-1.4,2-2,4.3-1.9,6.5c-0.2-0.1-0.3-0.2-0.5-0.2c0.1-0.3,0.2-0.5,0.3-0.8
		c0.5-1.7-1-3-2.4-3.2c-0.5-0.7-1.4-1.2-2.3-1.2c-1.1-2.1-5-1.8-4.7,1c0.1,1.4-0.8,2.6-0.6,4.1c0.1,0.7,0.4,1.3,0.8,1.7
		c-0.2,0.5-0.3,1.1-0.1,1.6c0.5,1.9,1.2,3.7,2,5.5c0.2,0.4,0.5,0.8,0.8,1c-0.2,0.7-0.2,1.5,0.2,2c0.8,1.2,2,1.4,3.3,1
		c0.5,0.1,1.1,0,1.5-0.3c1.7-1.2,2.8-2.6,3.5-4.5c0.2-0.5,0.1-1,0-1.5c-0.1-0.7-0.5-1.3-1.1-1.7c0.1-0.3,0.2-0.5,0.3-0.7
		c0.4,1,1,2,1.7,2.9c1,1.2,2.3,1,3.2,0.2c0.3,0.2,0.6,0.5,0.9,0.7C663.7,299.3,666.2,295,663.6,293.2z"/>
	<g>
		<path fill="#0BBBEF" d="M682.9,283.9C682.9,284,682.9,284,682.9,283.9L682.9,283.9z"/>
		<path fill="#0BBBEF" d="M690.9,282.3c-0.2-0.7-0.8-1.3-1.4-1.6c0.3-0.6,0.7-1.2,1-1.8c0.7-1.1,0.3-2.8-0.9-3.4
			c-0.4-0.2-0.7-0.3-1.1-0.3c0,0,0-0.1,0-0.1c-0.7-1-1.7-1.4-2.8-1.1c0.3-0.8,0.2-1.8-0.6-2.5c-0.2-0.2-0.5-0.4-0.8-0.5
			c-0.2-0.3-0.4-0.5-0.8-0.7c-1.1-0.6-2.9-0.3-3.4,0.9c-0.5,1.2-1.2,2.3-1.9,3.5c-0.3,0.5-0.4,1.1-0.3,1.6c-0.5,0.6-0.7,1.3-0.7,2
			c-0.4-0.1-0.8,0-1.1,0.1c-0.9-2.1-4.7-1.7-4.8,1.1c-0.1,2.5,0.4,8,2.4,11.1c-0.1,1.5,1.1,3,3,2.6c2-0.4,4.1-1.6,5-3.5
			c0.4-0.8,0.5-1.6,0.4-2.4c0.1-0.1,0.2-0.2,0.3-0.3c2.3,0.8,4.7,0.3,6.7-1.3c0.1-0.1,0.2-0.2,0.2-0.2
			C690.5,284.8,691.2,283.6,690.9,282.3z"/>
	</g>
	<path fill="#0BBBEF" d="M692.6,304.5c-0.3-0.3-0.7-0.6-1-0.9c-0.4-0.4-1-1-1-1.6c-0.1-1.3-1.1-2.5-2.5-2.5c-1.3,0-2.6,1.1-2.5,2.5
		c0.2,2.6,1.7,4.5,3.6,6.2c1,0.9,2.1,1.6,3.5,1.7c1.4,0.1,2.8-0.7,3.5-1.9C697.4,305.5,694.4,303.2,692.6,304.5z"/>
	<path fill="#0BBBEF" d="M703.8,293c-0.9-1-2.1-1.4-3.3-1.4c-0.5-1.9-3.4-2.9-4.6-0.7c0,0.1-0.1,0.2-0.1,0.3l-1.2-0.1
		c-1.3-0.2-2.5,1.3-2.5,2.5c0,1.5,1.2,2.3,2.5,2.5c0.5,0.1,0.9,0.1,1.4,0.2c0,0.1,0.1,0.1,0.1,0.2c0.1,0.7,0.4,1.4,0.8,2
		c1.1,1.6,2.8,2.1,4.6,1.8c1.6,0,2.8-1.5,3.2-2.9C705.2,295.7,704.9,294.1,703.8,293z"/>
	<path fill="#B2B2B2" d="M702.1,217.1c-0.4,0.2-0.8,0.4-1.1,0.6c-0.1-1.4-1.3-2.6-3-2.1c-0.7,0.2-1.4,0.4-2.1,0.6
		c-0.8-0.1-1.5-0.1-2.3-0.1c-0.6-0.6-1.5-0.9-2.3-0.7c-0.6,0.1-1.3,0.3-1.9,0.5c-0.4,0-0.9-0.1-1.3-0.1c-0.3-1.3-1.5-2.3-3-1.8
		c-1.4,0.4-2.7,0.9-4.1,1.4c-0.6-0.8-1.6-1.2-2.6-0.9c-0.8,0.2-1.6,0.5-2.4,0.8c-0.8,0-1.5-0.1-2.3-0.1c-0.6-0.7-1.6-1.1-2.6-0.8
		c-0.8,0.2-1.5,0.5-2.3,0.7c-1,0-2-0.1-2.9-0.1c-0.6-0.3-1.3-0.3-2-0.1c-3.2-0.1-6.5-0.1-9.7-0.1c-0.3-0.1-0.7-0.1-1,0
		c-0.4,0-0.7,0-1.1,0c-0.4,0-0.7,0.1-1,0.2c-0.6-0.2-1.2-0.3-1.9-0.1c-0.8-1.4-2.5-2.1-3.7-0.5c-1.4,1.8-2,3.1-2,5.4
		c0,1.2,0.7,2,1.7,2.3c0.1,0.1,0.2,0.3,0.3,0.4c-0.4,1.4,0.3,3.3,2.3,3.3c15.2,0.1,30.5,0.5,45.7,1.3c1.2,0.1,1.9-0.5,2.2-1.4
		c1-0.4,2-0.8,2.9-1.3c0.5,0.7,1.4,1.1,2.4,1.1c0.5,0.5,1.1,0.8,1.8,0.8c1.4-0.1,2.5-1.1,2.5-2.5v-2.7l0.3-0.5
		C707,218.3,704.1,216,702.1,217.1z"/>
</g>
<g id="Layer_1">
	<path fill="none" stroke="#000000" stroke-width="8" stroke-miterlimit="10" d="M314.7,270.6c-7.3-18.5-23.1-29-40.9-32.4l0,0l0,0
		c-22.8-4.4-48.7,3-63.9,20.7c-13.1,15.3-17.8,38-9.7,56.5c6.8,15.8,21.9,27.1,38.5,31.6c21.4,5.8,45.9,0.4,61.9-15.1
		C316.6,316.4,322.8,291.2,314.7,270.6z"/>
	<path fill="none" stroke="#000000" stroke-width="5" stroke-miterlimit="10" d="M203.6,316.8c27.6-29.9,65.2-50.6,105.2-57.8"/>
	<path fill="none" stroke="#000000" stroke-width="5" stroke-miterlimit="10" d="M197.9,303.2c26.3-28.3,62.8-47,101.1-51.8"/>
	<path fill="none" stroke="#000000" stroke-width="5" stroke-miterlimit="10" d="M211.5,329.9c33-10,61.4-34.1,76.8-64.9"/>
	<path fill="none" stroke="#000000" stroke-width="5" stroke-miterlimit="10" d="M270.9,294.2c16,1.4,32.4-3.2,45.4-12.6"/>
	<path fill="none" stroke="#000000" stroke-width="5" stroke-miterlimit="10" d="M242.9,321.7c0.3-0.7-1.1-0.6-1.5,0
		c-1.1,1.7-0.9,4.1,0.4,5.6s3.6,2.1,5.4,1.4c0.6-3.3-1.7-6.9-5-7.7"/>
	<path fill="none" stroke="#000000" stroke-width="5" stroke-miterlimit="10" d="M292.3,297.5c-0.5,1.9-1.1,4-0.4,5.9
		c0.6,1.9,2.9,3.4,4.7,2.4c1.8-3.2-1.1-7.8-4.7-7.7"/>
	<path fill="none" stroke="#000000" stroke-width="5" stroke-miterlimit="10" d="M291.4,313.7c3.7,7.9-1,18.2-9,21.8
		c-8,3.6-17.9,1.1-24.3-4.9C270,327.6,283.3,323,291.4,313.7z"/>
	<path fill="none" stroke="#000000" stroke-width="5" stroke-miterlimit="10" d="M269.4,335.2c3.9-7.1,12.2-11.4,20.3-10.6"/>
	<path fill="none" stroke="#000000" stroke-width="8" stroke-miterlimit="10" d="M230,242.8c-10-1.2-20.9-1.6-29.4,3.8
		c-11.9,7.7-14.5,23.9-13.9,38c0.4,9.5,1.8,19,4,28.3c2,8.2,4.8,16.5,3.9,25s-7,17.1-15.4,17.5c14.7-1.9,27.5-5.6,39.6-14.1"/>
	<path fill="none" stroke="#000000" stroke-width="8" stroke-miterlimit="10" d="M244.4,348.8c-11.7,8.6-25,15-38.9,18.8
		c2.6,5.3,3.3,11.2,5.9,16.4c12.8-5.7,25.4-13.7,36-23.1c-1.2,24-12.7,48.6-30.5,63.7c10.8,5.5,23.8,5.9,35.8,5.8
		c16.8-0.1,33.6-1.8,50.1-5.2"/>
	<path fill="none" stroke="#000000" stroke-width="8" stroke-miterlimit="10" d="M296.7,335.2c15.6-5.6,30.3-13.6,43.3-23.5"/>
	<path fill="none" stroke="#000000" stroke-width="5" stroke-miterlimit="10" d="M207.1,372.5c-5-1.1-10.2-1.6-15.3-1.5
		c-0.8,0-1.5,0.1-2.2,0.4c-1.6,0.8-1.3,3.1,0.1,4.2s3.4,1.2,5.3,1.4c-6.4,0.6-12.2,4.5-14.4,9.6c-0.4,1-0.7,2.3,0,3.2
		c0.6,0.8,1.8,1.1,2.9,1.3c10.5,1.5,20.4-4,29.1-9.2"/>
	<path fill="none" stroke="#000000" stroke-width="8" stroke-miterlimit="10" d="M310.7,345.7c13.8-9.5,26.9-20,39.1-31.3"/>
	<path fill="none" stroke="#000000" stroke-width="5" stroke-miterlimit="10" d="M397.3,303.2c-19,0.1-38.1-1.5-56.9-4.6
		c2.1-12.6,4.1-25.3,6.2-37.9c18.7,1.3,37.8,2,56.5,3.3C402.8,277.1,397.6,290,397.3,303.2z"/>
	<path fill="none" stroke="#000000" stroke-width="5" stroke-miterlimit="10" d="M345.5,313.4c8.1-1.2,15.8-4.9,21.6-10.5"/>
	<path fill="none" stroke="#000000" stroke-width="5" stroke-miterlimit="10" d="M339.9,285.8c-1.9-2-5.4-1.8-7.5-0.1
		c-2.1,1.7-3.1,4.6-3.4,7.3c-0.7,7.2,3,14.6,9.2,18.3"/>
	<path fill="none" stroke="#000000" stroke-width="9" stroke-miterlimit="10" d="M301.1,425.7c5.7-1.7,15.3-1.7,21.1-2.8
		c-7.6-13.4-8.9-29.6-9.9-45.1c-0.8-11.4-1.5-22.7-2.3-34.1"/>
	<path fill="none" stroke="#000000" stroke-width="5" stroke-miterlimit="10" d="M242.3,429.4c-2.4,2.5-4.9,5.6-7.2,8.5
		c-0.8,1-4.3,6.5-2.9,3.8c-10.1-2.8-21.3-5.8-30-11.7c-10.7,6-23.3,12.9-32.3,21.3c-0.4,0.4,1.2,0.8,1.7,1.1
		c2.4,1.9,5.7,2.2,8.6,1.6c3-0.6,5.7-2.1,8.3-3.5c4.4-2.3,8.7-4.7,13.1-7c8.6,3,18.3,7,26.2,11.6c1.3,0.8,2.7,1.6,4.3,1.8
		c3.2,0.4,6-2,8.3-4.3c7.4-7.1,14.6-14.3,21.8-21.7"/>
	<path fill="none" stroke="#000000" stroke-width="5" stroke-miterlimit="10" d="M277.7,430.9c1.4,10.9,0.9,21.9,0.5,32.9
		c-0.3,7.9-0.7,15.8-1,23.7c6.7,7.5,17.6,11.3,27.6,10.1"/>
	<path fill="none" stroke="#000000" stroke-width="5" stroke-miterlimit="10" d="M292.5,428.1c-0.3,1.6-0.5,3.2-0.8,4.8
		c-0.5,2.9-1,5.9-1.4,8.8c-1.8,12.4-2.4,25-1.9,37.5c7-0.1,14.5,5.8,17.9,11.9c0.8,1.5,1.5,3.2,1,4.8c-0.5,1.6-2.6,2.7-3.9,1.6"/>
	<path fill="none" stroke="#000000" stroke-width="5" stroke-miterlimit="10" d="M257.2,350.1c5.8,5.1,13.8,6.8,20.7,4.3
		c7-2.5,12.8-9.1,15.1-17.1"/>
	<path fill="none" stroke="#000000" stroke-width="5" stroke-miterlimit="10" d="M186.3,450.6c-1.1-1.7-0.6-4,0.5-5.6
		c1.2-1.6,2.9-2.7,4.6-3.7c5-2.9,10.2-5.5,15.5-7.8"/>
	<path fill="none" stroke="#000000" stroke-width="5" stroke-miterlimit="10" d="M278,484.6c2.9,0.4,5.4,2,8,3.4
		c2.5,1.4,5.3,2.7,8.2,2.6c2.9-0.1,6-1.9,6.4-4.8"/>
	<path fill="none" stroke="#000000" stroke-width="8" stroke-miterlimit="10" d="M338.3,312c3.8,1.3,7.7,2.7,11.5,4"/>
	<path fill="none" stroke="#000000" stroke-width="5" stroke-miterlimit="10" d="M313.6,135.7c-1.3,3.4-1.7,7-1.7,10.6
		c0,9.6,3.6,19.8,11.6,25c4.9,3.2,10.9,4.2,16.7,4.4c9.1,0.4,19-1.1,25.6-7.4c2.6-2.5,4.6-5.7,6-9.1
		C387.6,121.1,327.1,99.7,313.6,135.7z"/>
	<path fill="none" stroke="#000000" stroke-width="5" stroke-miterlimit="10" d="M313,136.1c-5.3-2.8-11.5-3.6-17.5-4.3
		c-2.4-0.3-4.9-0.6-7.2,0.1s-4.5,2.7-4.5,5.1c-0.1,3.6,3.8,5.8,7.2,7.1"/>
	<path fill="none" stroke="#000000" stroke-width="5" stroke-miterlimit="10" d="M290.8,146c-3.1-0.5-6.4-1.1-9.4,0.2s-5,5-3.3,7.7
		c0.6,0.9,1.5,1.6,2.5,2.1c3.1,1.7,6.8,2.5,10.3,2.2"/>
	<path fill="none" stroke="#000000" stroke-width="5" stroke-miterlimit="10" d="M292.6,158.1c0.1,0.5,1-0.3,0.5-0.6
		c-0.4-0.3-1.1,0-1.5,0.3c-1.5,1.2-3,2.4-4.4,3.7c-2.7,2.5-5.4,5.9-4.5,9.4c0.9,3.4,4.9,5.2,8.4,4.8s6.5-2.4,9.4-4.4"/>
	<path fill="none" stroke="#000000" stroke-width="5" stroke-miterlimit="10" d="M300.8,172.6c-1.6,1.8-3.1,3.8-3.7,6.1
		c-0.6,2.3,0,5.1,2.1,6.4c2,1.3,4.7,0.7,6.9-0.2c6.3-2.4,11.9-6.8,15.8-12.3"/>
	<path fill="none" stroke="#000000" stroke-width="5" stroke-miterlimit="10" d="M368.3,128.3c3.9-7,9.7-12.7,16.6-16.2
		c0.9-0.5,2.1-0.9,3-0.2c0.4,0.3,0.6,0.8,0.7,1.2c1.4,3.8,0.3,8.4-2.5,11"/>
	<path fill="none" stroke="#000000" stroke-width="5" stroke-miterlimit="10" d="M384.2,126.1c3.9-2.4,8.6-3.8,13.2-3.9
		c1.9,0,3.8,0.2,5.3,1.3s2.3,3.4,1.2,4.9c-0.5,0.7-1.2,1.2-2,1.6c-2.5,1.5-5.1,2.9-7.6,4.4"/>
	<path fill="none" stroke="#000000" stroke-width="5" stroke-miterlimit="10" d="M373.9,157c5.1,2.3,10.1,4.6,15.2,6.9
		c2.4,1.1,4.9,2.2,7.5,2.2c2.6,0,5.4-1.4,6.4-4c1-2.8-0.4-6.1-2.7-8c-2.2-1.8-5.1-2.6-7.8-3.2"/>
	<path fill="none" stroke="#000000" stroke-width="5" stroke-miterlimit="10" d="M389.2,150.9c3.2,0,6.4,0,9.6,0
		c1.4,0,2.8,0,3.9-0.8c1-0.7,1.6-1.9,1.8-3.1c1.3-6.1-4.3-12.6-10.8-12.6"/>
	<path fill="none" stroke="#000000" stroke-width="5" stroke-miterlimit="10" d="M329.5,120.1c-4.6,3.5-5.7,9.9-6,15.6
		c-0.7,13.5,1.3,28.2,10.6,38"/>
	<path fill="none" stroke="#000000" stroke-width="5" stroke-miterlimit="10" d="M340.7,119.4c0.6-0.3,1.4,0.3,1.5,1s-0.1,1.4-0.4,2
		c-1.5,4.1-1.8,8.6-2.1,13c-0.5,8-0.9,16.4,1.9,23.9c2.1,5.6,5.9,10.5,10.8,13.9c0.6,0.4,1.7,0.5,1.7-0.2"/>
	<path fill="none" stroke="#000000" stroke-width="5" stroke-miterlimit="10" d="M358.9,121.5c-4,14.8-0.8,31.4,8.4,43.6"/>
	<path fill="none" stroke="#000000" stroke-width="9" stroke-miterlimit="10" d="M402.6,87.8C373.6,76.6,341,75,311,83.2
		c-21,5.7-41.2,16.7-53.9,34.4c-12.7,17.6-16.4,42.6-5.4,61.4c7,12,19,20.3,32,25.2c13,4.9,26.9,6.5,40.7,7.4
		c19.9,1.4,41.9,0.9,57.2-12.1"/>
	<path fill="none" stroke="#000000" stroke-width="8" stroke-miterlimit="10" d="M382.1,197.6c-2.9,18.8-14.8,36.1-31.3,45.6"/>
	<path fill="none" stroke="#000000" stroke-width="8" stroke-miterlimit="10" d="M348.3,243.1c8.6,0.6,17-2.7,24.7-6.5
		c29-14.5,53.6-39,61.2-69.2c7.6-30.2-5-65.5-33.6-80.6"/>
	<path fill="none" stroke="#000000" stroke-width="5" stroke-miterlimit="10" d="M533.7,289.3c4.1,0.7,12.5,4.3,13.1-2.4
		c0.4-4.8-5.8-6.3-9.5-6.5c4.1-3.9,8.9-7.3,14-9.8c2.8-1.4,5.8-2.6,7.7-5.1s2.3-6.5-0.3-8.3c-2.4-1.7-5.8-0.5-8.4,0.8
		c-9,4.6-18.1,12-25.5,19c0.6-9.2-6.4-18.2-15.5-20c0.3,7.8,2.2,15.5,5.5,22.6c-1.6,3.1-1.9,6.7-3.5,9.7c-1.8,3.4-3.6,7.4-2.3,11
		c1,2.6,3.4,4.4,5.9,5.5c5.6,2.5,12.2,2.4,17.8,0c5.6-2.4,10.1-7.1,12.6-12.6c0.1-0.2,0.1-0.3,0.2-0.5"/>
	<path fill="none" stroke="#000000" stroke-width="5" stroke-miterlimit="10" d="M527.3,299.9c3.9,0.6,7.7,1.9,11.2,3.6"/>
	<path fill="none" stroke="#000000" stroke-width="8" stroke-miterlimit="10" d="M510.7,274.3c-9.4-5.2-20.5-6.2-28.9-13.3
		c-8.7-7.3-13-20-15.2-32.3c-1.6-9.1-2.2-18.5-0.9-27.7c2.8-18.9,14.2-35.2,28.5-44.6c14.3-9.4,31.2-12.5,47.6-11.5
		c15.5,0.9,31.2,5.4,44.3,15.1c13.2,9.7,23.8,24.8,27.5,42.5c3.7,17.7-0.1,37.8-11.2,50.6c-6,6.9-13.6,11.5-21.5,15
		c-11.6,5.1-23.8,8.2-36.2,8.9"/>
	<path fill="none" stroke="#000000" stroke-width="5" stroke-miterlimit="10" d="M504.5,185.6c-1.3-1.4-3.6-0.1-4.8,1.3
		c-2.7,3.1-4.7,6.9-5.7,10.9c-0.5,1.9-0.7,3.8-0.2,5.7c0.5,1.8,2,3.5,3.9,3.7c2,0.3,3.9-1.1,5.3-2.6c2.9-3.1,4.8-7.2,5.2-11.4
		c0.2-2,0-4.1-1.1-5.7s-3.4-2.5-5.2-1.6"/>
	<path fill="none" stroke="#000000" stroke-width="5" stroke-miterlimit="10" d="M554.1,196.6c-1.9-0.3-3.8,1-4.7,2.7
		s-1.1,3.7-1.3,5.6c-0.2,1.7-0.2,3.8,1.2,4.7c2.2,1.5,4.9-1,6-3.5C556.7,203,557.1,198.6,554.1,196.6"/>
	<path fill="none" stroke="#000000" stroke-width="5" stroke-miterlimit="10" d="M499.9,174.7c3.2,1.2,6.7-3.3,9.7-1.7
		c0.8,0.4,1.3,1.2,1.8,1.9c2.2,3.2,4.4,6.3,6.6,9.5"/>
	<path fill="none" stroke="#000000" stroke-width="5" stroke-miterlimit="10" d="M543.7,190.1c3.2-3.3,5.8-7.1,7.6-11.4
		c4.7-0.6,9.4-1.6,13.9-3"/>
	<path fill="none" stroke="#000000" stroke-width="5" stroke-miterlimit="10" d="M535.1,250.9c5.8-2.6,11-6.4,15.3-11.1"/>
	<path fill="none" stroke="#000000" stroke-width="8" stroke-miterlimit="10" d="M495,271.6c-4.1,1.5-7.2,5-9.8,8.5
		c-9.3,12.9-13.8,29.1-12.6,44.9c0.2,2,0.4,4,1.3,5.8c2.6,5.3,9.4,6.9,15.3,6.7c17.4-0.5,34.1-12,40.7-28"/>
	<path fill="none" stroke="#000000" stroke-width="8" stroke-miterlimit="10" d="M497.7,287.5c-5.1,7.8-8.6,16.7-10.4,25.9
		c-0.7,4-0.6,9,3,10.9c2.7,1.4,5.9,0.2,8.6-1.2c6.6-3.6,12.5-8.5,17.1-14.4"/>
	<path fill="none" stroke="#000000" stroke-width="8" stroke-miterlimit="10" d="M492.7,338.9c-1.4,11-2.1,22.1-2,33.2
		c0,2.3,0.2,4.9,2.1,6.6c32,5.9,64.8,6.6,97.5,4"/>
	<path fill="none" stroke="#000000" stroke-width="8" stroke-miterlimit="10" d="M575.7,274.5c10.9,7.1,14.9,20.9,16.3,33.7
		c0.6,5.7,0.8,11.9-2.5,16.6c-2.1,3-5.4,5-8.7,6.7c-19.6,10-43.3,11.4-64,3.9"/>
	<path fill="none" stroke="#000000" stroke-width="8" stroke-miterlimit="10" d="M525.8,321.6c10,3,20.9,3,30.9,0.2
		c7-2,14.5-6.6,15.2-13.9c0.4-3.8-1.3-7.4-3.2-10.7"/>
	<path fill="none" stroke="#000000" stroke-width="8" stroke-miterlimit="10" d="M586.8,328c1.4,19.2,2.1,38.4,2.2,57.6"/>
	<path fill="none" stroke="#000000" stroke-width="8" stroke-miterlimit="10" d="M512.7,384.9c-1.6,27.8-1.2,55.9,1.3,83.6
		c0,0.5,0.2,1.2,0.6,1.3s0.6-1,0.2-0.8"/>
	<path fill="none" stroke="#000000" stroke-width="8" stroke-miterlimit="10" d="M572.7,384.9c-1.2,31.7-2.2,64.4,7.5,93.9"/>
	<path fill="none" stroke="#000000" stroke-width="8" stroke-miterlimit="10" d="M541.3,387.7c-0.3,2.5-0.7,4.9-1,7.4
		c-3,25.4-1.9,51.7,3.4,76.5c0.1,0.7-0.7-0.4-0.2-0.5"/>
	<path fill="none" stroke="#000000" stroke-width="8" stroke-miterlimit="10" d="M513.7,471.5c9,6.8,20.3,7.9,29.9,3
		c10.3,7.8,24.1,7,34.9,0.4"/>
	<path fill="none" stroke="#000000" stroke-width="8" stroke-miterlimit="10" d="M580.4,478.7c3.3,4.7,2.9,8.1,3.7,13.5
		c-15.3,7.5-32.8,11.8-50.5,12.3c-5.7,0.2-12-1-16.7-3.7c-0.6-4.2,2-8.5,5.7-11.4c3.7-2.9,8.4-4.8,13-6.6c3.1-1.2,6.2-2.5,9.3-3.7"
		/>
	<path fill="none" stroke="#000000" stroke-width="8" stroke-miterlimit="10" d="M513.4,476.2c-11.6,3.7-22,10.2-29.7,18.4
		c-1.2,1.3-2.4,3.4-0.9,4.6c8.2,6.7,21.8,4.3,33,2.1"/>
	<path fill="none" stroke="#000000" stroke-width="5" stroke-miterlimit="10" d="M279.3,398.6c-2.4-1.6-4.7-3.2-7.1-4.8
		c-2.8-1.9-5.7-3.9-7.8-6.7s-3.1-6.5-1.8-9.7c5.3-0.2,10.7,2.3,14,6.5c0.3-2.7,0.7-6.9,2.2-9.1c1.5-2.2,4.5-3.7,7-2.7
		c2,0.8,3.1,3,3.3,5.2c0.1,2.1-0.6,4.3-1.4,6.3C285.5,389,282.9,393.9,279.3,398.6z"/>
	<path fill="none" stroke="#000000" stroke-width="5" stroke-miterlimit="10" d="M140.1,473c45-3.1,90-5.3,135.1-6.7"/>
	<path fill="none" stroke="#000000" stroke-width="5" stroke-miterlimit="10" d="M296.5,466c68.3-2.4,136.7-3.4,205.1-3"/>
	<path fill="none" stroke="#000000" stroke-width="8" stroke-miterlimit="10" d="M570.4,313.4c7.5,0.3,15,2.7,21.3,6.8"/>
	<path fill="none" stroke="#000000" stroke-width="8" stroke-miterlimit="10" d="M473.4,312.5c4.5-3.2,10.1-4.7,15.6-4.2"/>
	<path fill="none" stroke="#0BBBEF" stroke-width="5" stroke-miterlimit="10" d="M354.7,278.8c2.3-1.1,4.1-3.1,5-5.4
		c2.5,2.6,5.5,5.4,9,4.9c5.1-0.6,8.6-7.7,13.5-6.2c3.3,1.1,6.1,5.9,8.9,3.9"/>
	<path fill="none" stroke="#0BBBEF" stroke-width="5" stroke-miterlimit="10" d="M356.7,293c2,1.2,4.5-0.3,6-2
		c1.6-1.7,3.2-3.7,5.5-3.8c3.7-0.2,5.9,4.9,9.6,5.3c0.8-2.5,3-5.7,5.4-4.5c1,0.5,1.5,1.7,2.2,2.5s2.2,1.4,2.9,0.5"/>
	<text transform="matrix(1.104000e-02 -0.9999 0.9999 1.104000e-02 774.6125 537.1029)" font-family="'INGMe'" font-size="12px">© Beryl Ho (ING)</text>
	<path fill="none" stroke="#000000" stroke-width="7" stroke-miterlimit="10" d="M712,478.8c-29.2,1.2-59.8,1.9-89,1.1
		c0.3-52.8,0.6-105.7,0.9-158.5c27.7-0.5,54.1-2.2,81.7,0.1"/>
	<path fill="none" stroke="#000000" stroke-width="6" stroke-miterlimit="10" d="M648.7,224.7c-10,17.1-13,37.7-12,57.5
		c0.4,7.6,1.3,15.4,4.6,22.3c3.2,6.9,9.1,13,16.5,14.9"/>
	<path fill="none" stroke="#000000" stroke-width="6" stroke-miterlimit="10" d="M704.8,227.3c-20.3-0.4-42.3-1.3-62.6-1
		c0-4.6,0-9.2,0-13.8c21.4,0,41.2,0.8,62.6,1.7"/>
	<path fill="none" stroke="#000000" stroke-width="3" stroke-miterlimit="10" d="M669.7,277c-5.1,0.8-10.3,2.6-13.4,6.7
		c-3,4.1-2.7,11,1.8,13.4c1.6,0.9,3.4,1.1,5.2,1.1c4,0.1,7.9-0.8,11.5-2.5c5.2-2.4,9.9-8.2,7.6-13.4c-2.1-4.7-8.4-5.6-13.6-5.7"/>
	<path fill="none" stroke="#000000" stroke-width="3" stroke-miterlimit="10" d="M656.6,248.1c-5.1,0-9.8,4.3-10.3,9.4
		c-0.5,5.1,3.3,10.2,8.3,11.2c6,1.2,11.9-3.1,14.8-8.4c0.8-1.4,1.4-3,1.4-4.7c-0.1-3.1-2.6-5.7-5.5-6.9c-2.9-1.1-6.1-1.1-9.2-1"/>
	<path fill="none" stroke="#000000" stroke-width="3" stroke-miterlimit="10" d="M646,256.6c-2-1-4.4-1.3-6.5-0.8"/>
	<path fill="none" stroke="#000000" stroke-width="3" stroke-miterlimit="10" d="M640.4,265.6c-0.1,1.2-0.2,2.6,0.5,3.6
		c0.6,1.1,2.3,1.5,3.1,0.6c-0.9,1.2-1.5,2.8-1,4.3s2.4,2.4,3.6,1.4c0.5-0.4,0.8-1,1-1.6c0.8-1.8,1.6-3.5,2.4-5.3"/>
	<path fill="none" stroke="#000000" stroke-width="3" stroke-miterlimit="10" d="M670.9,258c3.5-0.9,7.1-2.7,8.7-5.9
		c0.3-0.7,0.6-1.4,0.4-2.2c-0.4-2.2-3.5-3.7-5.6-3.5c1.6-0.4,2.5-2.3,2-3.8c-2.1-0.2-4.3,0.1-6.3,0.9c0-1,0-2-0.1-2.9
		c0-0.3,0-0.6-0.2-0.8c-0.4-0.6-1.4-0.1-1.9,0.4c-2,1.9-3.5,4.3-4.4,6.9"/>
	<path fill="none" stroke="#000000" stroke-width="3" stroke-miterlimit="10" d="M653.9,285.7c-1.3-1-2.6-2-4.1-2.4
		c-1.5-0.5-3.4-0.4-4.6,0.6c-1.2,1-1.6,3.1-0.4,4.3c0.8,0.8,2,0.9,3.1,1c-2.1-0.5-4.3,1.8-3.7,3.9s3.6,2.9,5.2,1.4
		c-1,0.1-1.7,1.1-2,2c-0.5,1.4-0.6,3.1,0.1,4.5s2.2,2.3,3.8,2.2c1.5-0.2,2.7-1.4,3.7-2.6c1.2-1.5,2.2-3.2,3-5"/>
	<path fill="none" stroke="#000000" stroke-width="3" stroke-miterlimit="10" d="M676.8,276.4c0.8-1.1,1.6-2.1,2.4-3.2
		c1.4-1.9,3.6-4,5.7-2.9c0.5,1.5,0.3,3.1-0.5,4.5c1.5-0.9,3.6-0.8,4.9,0.4c1.3,1.2,1.8,3.2,1.1,4.8c-0.9,0.4-1.8,0.7-2.6,1.1
		c1.9,0.3,3.7,1.6,4.6,3.3c0.3,0.6,0.5,1.2,0.1,1.8c-0.3,0.5-1,0.7-1.6,0.9c-2.3,0.5-4.5,1-6.7,1.5"/>
	<path fill="none" stroke="#000000" stroke-width="3" stroke-miterlimit="10" d="M663,279.1c-3.1,6.5-0.4,15.2,5.9,18.8"/>
	<path fill="none" stroke="#000000" stroke-width="3" stroke-miterlimit="10" d="M671.4,278.8c-2.6,5.8-0.1,13.4,5.5,16.5"/>
	<path fill="none" stroke="#000000" stroke-width="3" stroke-miterlimit="10" d="M653.3,249.5c-2.4,6.2-2,13.4,1,19.3
		c0.2,0.4,0.4,0.7,0.8,0.9c0.4,0.1,0.9-0.1,0.8-0.5"/>
	<path fill="none" stroke="#000000" stroke-width="3" stroke-miterlimit="10" d="M660.5,249.1c-1.9,6-0.5,13,3.6,17.8"/>
	<path fill="none" stroke="#000000" stroke-width="3" stroke-miterlimit="10" d="M700,249.6c-2.3-0.5-4.8,1-6.1,3
		c-2.9,4.2-1.4,10.7,2.9,13.3s10.8,0.7,13-3.8c0.6-1.2,0.9-2.6,0.9-3.9c-0.1-2.7-2-5.2-4.3-6.6s-5.2-1.9-7.9-2"/>
	<path fill="none" stroke="#000000" stroke-width="3" stroke-miterlimit="10" d="M692.1,255.2c-3.3-0.7-6.3-2.6-8.4-5.3
		c-0.4-0.5-0.8-1.2-0.8-1.9c0-1.2,1.3-2.2,2.6-2.2c1.2,0,2.4,0.6,3.5,1.1"/>
	<path fill="none" stroke="#000000" stroke-width="3" stroke-miterlimit="10" d="M689.4,246.4c-1.4-1.2-0.8-3.9,0.9-4.6
		s3.9,0.6,4.4,2.4c-0.5-2.6,3.8-5,6.4-5.5c0.4-0.1,0.8-0.1,1.1,0c0.6,0.3,0.7,1,0.8,1.7c0.2,3.2-0.3,6.5-1.3,9.6"/>
	<path fill="none" stroke="#000000" stroke-width="3" stroke-miterlimit="10" d="M700.9,268.6c-0.4,2.1-1.5,4.1-1.5,6.2
		c0,2.1,1.7,4.6,3.8,4.1c2.1-0.5,2.6-3.2,2.7-5.3"/>
	<path fill="none" stroke="#000000" stroke-width="3" stroke-miterlimit="10" d="M705.7,274c0.9,2.2,3.5,3.7,5.6,2.7
		c2.1-1,2.3-4.7,0.2-5.4c1.6,0.3,2.9-0.8,4.4-1.3c1.5-0.5,2.9-1.9,2.8-3.5c-0.2-2.2-2.7-3.2-4.7-3.8c-1.6-0.5-3.3-0.9-4.9-1.4"/>
	<path fill="none" stroke="#000000" stroke-width="3" stroke-miterlimit="10" d="M694,257.2c4-0.2,8-1.9,11-4.7"/>
	<path fill="none" stroke="#000000" stroke-width="3" stroke-miterlimit="10" d="M696,262.6c5-0.1,9.9-2.6,12.9-6.6"/>
	<path fill="none" stroke="#000000" stroke-width="3" stroke-miterlimit="10" d="M691.7,292.4c-2.9,2.3-5.6,5.3-6,9.2
		c-0.4,3.8,2.3,8.2,6.1,8.3c1.3,0,2.6-0.5,3.7-1.1c2.5-1.4,4.8-3.3,6.4-5.7c2.4-3.4,3.3-8.9-0.1-11.6c-3.1-2.4-7.4-0.8-10.7,1"/>
	<path fill="none" stroke="#000000" stroke-width="3" stroke-miterlimit="10" d="M684.9,303.8c-1.2-0.2-2.4-0.4-3.5-0.2
		s-2.3,0.9-2.7,2c-0.4,1.1,0.2,2.6,1.3,3c0.8,0.2,1.6-0.1,2.3-0.4c-1.5,0.4-2.1,2.7-0.9,3.9c1.1,1.2,3.4,0.6,3.8-0.9
		c-0.6,0.4-0.7,1.3-0.6,2.1c0.2,1.1,0.8,2.3,1.7,2.9c1,0.7,2.3,0.8,3.2,0.1c0.9-0.7,1.2-1.9,1.4-3c0.2-1.5,0.2-2.9,0.1-4.4"/>
	<path fill="none" stroke="#000000" stroke-width="3" stroke-miterlimit="10" d="M696,289.5c0.1-1,0.2-2,0.3-3
		c0.2-1.7,0.8-3.9,2.5-4c0.8,0.8,1.3,2,1.3,3.1c0.6-1.1,2-1.8,3.3-1.5c1.3,0.3,2.3,1.5,2.5,2.8c-0.4,0.6-0.8,1.1-1.3,1.7
		c1.3-0.5,2.9-0.3,4.1,0.6c0.4,0.3,0.7,0.7,0.8,1.1c0,0.5-0.4,0.8-0.7,1.2c-1.2,1.1-2.5,2.3-3.7,3.4"/>
	<path fill="none" stroke="#000000" stroke-width="3" stroke-miterlimit="10" d="M688.2,296.1c0.4,5.4,5.3,10.3,10.7,10.4"/>
	<path fill="none" stroke="#000000" stroke-width="3" stroke-miterlimit="10" d="M693.5,293c0.5,4.8,4.9,9,9.6,9"/>
	<path fill="none" stroke="#000000" stroke-width="5" stroke-miterlimit="10" d="M693,379.4c-17.7-0.2-38.7-1.1-56.3-1.3
		c1.1-13.6,1.5-27.3,1.1-41c22.4-1.1,46.1-1.2,68.3,1.5"/>
	<path fill="none" stroke="#000000" stroke-width="5" stroke-miterlimit="10" d="M703,462.7c-20.1,0.8-43.9,0.6-64,1.4
		c0-22.7,0-45.4,0-68.1c18.8-0.4,39-0.2,57.8,0.4"/>
	<path fill="none" stroke="#000000" stroke-width="6" stroke-miterlimit="10" d="M683,347.7c-4.4,0.1-8.5,3.7-8.9,8.1
		c-0.4,4.4,3,8.8,7.3,9.4c4.3,0.6,8.8-3,9.1-7.4c0.3-4.4-3.9-8.5-8.3-8"/>
	<path fill="none" stroke="#000000" stroke-width="5" stroke-miterlimit="10" d="M587,460c8.7,0,17.3,0,26,0"/>
</g>
<g id="Layer_3">
	<path fill="#EC6608" d="M301.7,245.8c0-0.3-0.1-0.7-0.2-1c0.1-0.5,0-1-0.2-1.5c-0.1-0.7-0.4-1.4-1-2.1c-2-2.2-6-1.5-8.2,0.1
		c-0.4,0.3-0.7,0.6-0.9,0.9c-0.5-2.2-1.8-4.2-4-5.5c-0.8-0.5-1.7-0.4-2.4,0c-0.1-0.2-0.3-0.3-0.4-0.5c-1-1.1-2.4-1.5-3.6-1.3
		c0,0,0,0,0-0.1c-1.4-2.3-5.3-0.7-3.9,1.7c0.3,0.5,0.6,0.9,0.9,1.4c-0.5,1.7-0.2,3.4-0.2,5.1c0,2.3-0.2,4.6,0.5,6.8
		c-0.8,1-1.6,2-2.4,3c-1,1.4-0.1,3.1,1.3,3.4c0.5,0.6,1.4,1,2.4,0.6c4.7-2,8.8-4.8,12.3-8.4c0,0,0,0,0,0l0,0
		c0.1-0.1,0.1-0.1,0.2-0.2c0.6,2.1,2.8,3.5,5,3.2C299.6,250.9,301.8,248.5,301.7,245.8z"/>
	<path fill="#EC6608" d="M315.3,236.6c0.3-2.2-2.4-3-3.7-1.8c0,0-0.1,0-0.1,0c-3.6,0.9-6.7,2.3-9.7,4.5c-1.7,1.3-0.5,4.1,1.6,3.8
		c0.5-0.1,1-0.2,1.5-0.3c-0.2,0.7-0.4,1.4-0.4,2.1c-0.6,0.1-1.2,0.5-1.4,1.2c-0.4,1,0,2.5,1.2,2.8c1.1,0.3,2.1,0.4,3.1,0.1
		c0.5,0.2,0.9,0.3,1.3,0.4c0.2,0.7,0.5,1.3,0.8,2c0.9,1.9,3.8,1.6,4.1-0.6C314.1,246.1,314.7,241.3,315.3,236.6z"/>
	<path fill="none" stroke="#000000" stroke-width="5" stroke-miterlimit="10" d="M298.2,240.1c-3-2.2-7.9-0.1-8.8,3.4
		c-1,3.6,1.8,7.6,5.4,8.4c3.8,0.9,8.3-1.8,8.9-5.7s-3.3-7.9-7.1-7.1"/>
	<path fill="none" stroke="#000000" stroke-width="5" stroke-miterlimit="10" d="M298.6,238.4c5.4-2.4,10.8-4.8,16.2-7.2
		c-1.4,7.7-0.8,15.7,1.8,23.3c-4.3-1.6-8.5-3.3-12.8-4.9"/>
	<path fill="none" stroke="#000000" stroke-width="5" stroke-miterlimit="10" d="M290.1,240.7c-4.4-3.7-8.9-7.3-13.5-10.8
		c-1.1,10.1-0.9,20.3,0.5,30.4c4.5-2.9,8.9-6.1,13.2-9.4"/>
	<path d="M586.1,152c0.2-0.6,0.2-1.3,0.2-2c-0.2-2.2-2.6-3.3-4.3-1.8c-0.2,0.2-0.4,0.4-0.6,0.6c-0.2-0.4-0.6-0.7-1-0.8
		c0.1,0,0.2,0,0.4,0c1.1-0.1,2.1-0.7,2.4-1.8c0.3-1.1,0.2-1.9-0.4-2.8c-0.7-1-1.7-1.3-2.8-1.1c-1.3,0.2-2.6,1.2-3.6,2.7
		c0-0.3,0-0.5-0.1-0.8c-0.2-1.7-1.5-2.6-2.9-2.4c-0.7-1-2.2-1.5-3.4-0.8c-0.8,0.5-1.6,1-2.2,1.6c0.3-1.9-2-3.6-3.7-2.5
		c-0.6,0.4-1.2,0.9-1.9,1.6c0.8-1.8-1.1-3.9-3-3.4c-1.3,0.3-2.7,1.1-4,2.2c0.3-0.7,0.5-1.3,0.7-2c0.8-2.6-2.4-3.9-4.2-2.4
		c-0.7,0.6-1.7,1.5-2.8,2.7c-0.4-1.4-2.3-2.3-3.7-1.5c-1.8,1-3.2,2.3-4.2,3.8c0.3-0.6,0.5-1.1,0.7-1.5c1.2-2.6-1.7-4.8-3.9-3
		c-0.1,0.1-0.3,0.2-0.4,0.4c-0.2-1.5-1.4-3-3.1-2.3c-4.5,1.9-10.2,6.3-8.4,11.3c-0.6,0-1.2-0.2-1.6-0.4c1.2-2.2,2-4.6,2.2-7.4
		c0.2-1.8-1.7-2.6-3.2-2.4c-1.6,0.2-2.9,1-3.9,2c-1.9-0.6-3.9,0.1-5.2,1.7c-0.7,0.8-1.1,1.8-1.4,2.9c-1.1-0.7-2.7-0.7-3.5,0.7
		c-0.2,0.4-0.4,0.9-0.6,1.3c-0.2-1.3-1.3-2.5-2.9-2.3c-0.6-0.6-1.5-0.9-2.3-0.6c-4.8,2-7.6,7.2-6,12.3c0.9,2.9,5.3,1.9,4.9-0.8
		c0.1,0,0.1,0,0.2-0.1c2.3-1.2,3.8-3.4,4.2-5.9c0.1,0,0.1,0,0.2,0c0.4-0.1,0.7-0.2,1-0.4c-0.9,2.9-1,5.8-0.3,9
		c0.3,1.7,2.3,2.2,3.7,1.5c1.8-0.9,4.6-2.8,7.1-5.2c1-0.6,1.9-1.3,2.6-2c2.6,1.6,5.9,1.5,8.7,0.3c0.9,0.4,1.8,0.5,2.7,0.3
		c0.5,0.7,1.3,1.4,2.5,1.8c1.8,0.7,3.5,0.4,5.2-0.5c0.6,0.4,1.5,0.6,2.1,0.4c0.8-0.2,1.6-0.5,2.3-0.8c0.3,0.5,0.7,0.9,1.3,1.3
		c1.9,1.3,4,1.1,6,0.1c0.3,0.3,0.6,0.6,0.9,0.9c1.4,1.1,2.8,1.4,4.2,1.1c0.4,0.8,1.2,1.6,2.3,2.2c2.1,1.1,4.2,0.7,6.1-0.5
		c0.3,0,0.7,0,1,0c0.6,1,1.6,1.9,3.1,2.7c0.2,0.1,0.4,0.2,0.7,0.3c0.1,1.1,0.4,2.2,0.8,3.3c0.5,1.3,2.2,2.5,3.7,1.5
		c1-0.7,1.9-1.5,2.7-2.4c0.3,0.5,0.6,1,1.1,1.5c0.9,0.9,1.9,1.2,2.8,1.1c0.6,0.4,1.4,0.5,2.1,0.4c3.1-0.9,5.2-3.8,4.7-7
		c0.4-0.9,0.8-1.7,0.9-2.3C589.3,153.2,587.7,151.9,586.1,152z M512.1,150.2c0-0.4,0.1-0.9,0.2-1.3c0.3,0.1,0.6,0.1,0.9,0.2
		c0,0.1,0,0.2,0.1,0.2C512.9,149.6,512.5,149.9,512.1,150.2z M539,146.1c-0.5,0.3-1,0.5-1.5,0.5c-0.3,0.3-0.5,0.4-0.6,0.4
		c1.1-1.3,2.2-2.8,3-4.2C539.5,143.8,539.2,145,539,146.1z M562.9,151.1c-0.5,0.4-0.9,0.6-1.1,0.6c0.4-0.4,0.8-0.8,1.2-1.2
		C563,150.7,563,150.9,562.9,151.1z"/>
	<path d="M511.6,277c-0.4-1.3-1.5-1.8-2.5-1.7c-0.2-1.1-0.4-2.2-0.5-3.4c-0.1-2.3-2.5-2.9-4-2c0-1,0-2.1,0-3.1
		c0-2.9-3.9-3.3-4.9-0.8c0.1-0.4,0.2-0.8,0.3-1.2c0.6-2.3-1.9-3.6-3.6-2.9c0.3-0.8,0.6-1.6,0.8-2.5c0.6-2.6-3.3-4.6-4.6-1.9
		c-0.2,0.3-0.3,0.7-0.4,1c-0.5-1.8-3.3-2.8-4.6-0.7c-2.4,3.9-3.1,7.9-2.5,12.4c0.2,1.5,2.5,2.4,3.7,1.5c0.4-0.3,0.7-0.6,1.1-0.8
		c0,0.5,0.1,1.1,0.1,1.6c0.2,2,2.4,3.2,4,2c0,0.4,0,0.8,0.1,1.2c0.1,2.1,2.7,3.4,4.3,1.8c0.6-0.6,1.1-1.2,1.6-1.8
		c0.1,1.4,0.2,2.7,0.4,4.1c0.2,2,2.7,3.5,4.3,1.8c0.3-0.4,0.6-0.7,0.9-1.1c0.2,0.4,0.4,0.9,0.6,1.3c0.8,1.6,2.8,1.4,3.9,0.5
		C511.8,281,512.3,279,511.6,277z"/>
	<path d="M581.5,261.1c-0.4-2.1-3.6-2.5-4.6-0.6c-0.2,0.3-0.3,0.6-0.4,0.9c-1.1-0.2-2.4,0.3-2.9,1.6c-1.2-1.4-3.6-0.4-4.2,1.2
		c-0.2,0.6-0.4,1.2-0.5,1.8c-1.2-1-3.4-0.6-4.1,1.2c-0.7,1.8-1.1,4.1-0.9,6.2c0,0,0,0.1,0,0.1c-0.1,0.1-0.1,0.2-0.2,0.3
		c0.2-1.8,0-3.3-0.8-5c-0.9-1.9-4.3-1.5-4.6,0.6c-0.1,0.8-0.3,1.5-0.5,2.2c-1.2-0.4-2.6-0.2-3.9,0.5c-1.5,0.8-2.2,2-2.5,3.4
		c-2.6,2.5-3.4,6.7-1.1,10c1,1.4,2.6,1.6,3.9,0.5c0.9-0.7,1.6-1.4,2.4-2.2c0.2-0.1,0.4-0.2,0.6-0.4c1-0.9,1.7-1.9,2.1-3
		c0.2-0.4,0.5-0.7,0.7-1.1c1,1,2.3,1.6,3.7,1.4c1.4-0.2,2.5-1.1,3.3-2.3c0.8,0.3,1.8,0.4,3,0.1c3.2-0.6,4.8-2.5,5.3-4.9
		c0.8-0.7,1.4-1.5,1.9-2.4c0.1,0.1,0.3,0.1,0.4,0.2c1.3,0.5,2.7-0.6,3.1-1.7C582,266.8,582.1,264.2,581.5,261.1z"/>
	<path d="M506.1,187.9c-2.5-2-6,1.5-3.6,3.5c-0.4,0.4-0.7,1-0.6,1.7c0,2.4-0.5,4.6-1.6,6.6c-0.6,0.9-1.1,1.6-1.4,2.1
		c-1.6,2.9,2.4,5,4.3,2.5c0.8-1,1.4-2.1,1.9-3.2C507.7,196.8,510.5,191.4,506.1,187.9z"/>
	<path fill="none" stroke="#EC6608" stroke-width="14" stroke-miterlimit="10" d="M579.4,70.1c-3-7.6,1.9-16.5,9.4-20.6
		s16.8-4.1,25.3-2.6c6.7,1.2,13.5,3.4,18.5,7.9c4.9,4.5,7.6,11.5,5.2,17.5c-4.3,10.8-20.8,12.2-28,21.5c-4.3,5.6-4.5,12.9-4.5,19.8"
		/>
	<path fill="none" stroke="#EC6608" stroke-width="14" stroke-miterlimit="10" d="M608.2,125.5c-3.7-2.7-9.3,2.3-8.2,7.3
		c1.1,5.1,8,6.1,10.2,1.5c0.7-1.4,0.8-3.3,0.1-4.7c-0.3-0.6-0.8-1.1-1.4-1.6c-2.3-1.9-5.2-2.8-8-2.5"/>
</g>
<g id="Layer_4">
	<path fill="none" stroke="#3C3C3B" stroke-width="10" stroke-miterlimit="10" d="M101.9,91.6c49.3-0.8,98.6-1.6,148-2.4"/>
	<path fill="none" stroke="#3C3C3B" stroke-width="10" stroke-miterlimit="10" d="M433.7,89.5c41.5-2.6,83.2-3.2,124.8-1.9"/>
	<path fill="none" stroke="#3C3C3B" stroke-width="10" stroke-miterlimit="10" d="M99.5,87.6c12.1,149.6-1,300.3,7.2,450.2
		c-0.2-1.8-0.5-3.5-0.7-5.3"/>
	<path fill="none" stroke="#3C3C3B" stroke-width="10" stroke-miterlimit="10" d="M101.9,538.5c216.7-1.4,433.4-1.8,650.1-0.9"/>
	<path fill="none" stroke="#3C3C3B" stroke-width="10" stroke-miterlimit="10" d="M746,86.7c0.5,150.3,0.9,300.5,1.4,450.8
		c0.2-2.4,0.4-4.9,0.5-7.3"/>
	<path fill="none" stroke="#3C3C3B" stroke-width="10" stroke-miterlimit="10" d="M653.8,86.7c32.2,0,64.3,0,96.5,0"/>
</g>
</svg>
