<?xml version="1.0" encoding="utf-8"?>
<!-- Generator: Adobe Illustrator 21.1.0, SVG Export Plug-In . SVG Version: 6.00 Build 0)  -->
<svg version="1.1" xmlns="http://www.w3.org/2000/svg" xmlns:xlink="http://www.w3.org/1999/xlink" x="0px" y="0px"
	 viewBox="0 0 841.9 595.3" enable-background="new 0 0 841.9 595.3" xml:space="preserve">
<g id="Layer_2">
	<path fill="#EC6608" d="M338.4,104.1c-0.5-0.3-1.1-0.4-1.6-0.4c-0.7-0.6-1.6-0.9-2.4-1c-18.4-1.3-36.8-2.6-55.2-3.8
		c-3.7-0.3-5.2,3.6-4.1,6.2c-1.2,2.3-2.1,4.6-2.9,7.1c-5-0.8-7.6,6.7-2.4,8.2c0.8,0.2,1.7,0.4,2.5,0.6c14.9,3.7,30.2,5.1,45.5,5.9
		c1.1,0.1,2.2,0.1,3.3,0.2c4.5,1.3,9,2.7,13.3,4.4c3.1,1.2,5.6-1.5,5.7-4.4c0.9-0.5,1.7-1.4,1.9-2.3c0.6-2.5,0.9-5.2,1-7.7
		c0.8-3.3,1.2-6.7,1.7-9.1C345.3,104.2,341.2,102.9,338.4,104.1z"/>
	<path d="M317.6,376.2c-0.4-0.3-0.8-0.6-1.2-0.9c-1.9-1.5-4.9-0.9-5.6,1.3c-0.3,0.7-0.5,1.4-0.8,2.2c-0.3,0.4-0.5,0.8-0.5,1.4
		c-0.1,0.6-0.2,1.3-0.3,1.9c-0.9,0.2-1.5,0.9-1.9,1.8c-0.7,1.7-1.3,3.3-2,5c-0.4,1.1,0.3,2.4,1.4,2.9c0.4,0.9,1.3,1.6,2.3,1.8
		c1.9,0.4,3.5-0.6,4.2-2.1c1.4-3,2.3-6,2.8-9.1c0.6-0.4,1-1,1.2-1.7c0.2-0.1,0.4-0.2,0.6-0.4C318.9,379.3,318.9,377.2,317.6,376.2z"
		/>
	<path d="M251.3,371.1c0.4-0.7,0.8-1.3,1.1-2c0.5-0.9,1.3-1.4,2.2-1.6c0.4-0.4,0.8-0.7,1.2-1c3.6-2.8,8.8,1.8,5.1,4.7
		c-1.3,1-2.4,2.1-3.4,3.3c-1,1.8-2.1,3.6-3.1,5.4c-1.9,3.3-8.1,1-6.7-2.5C248.6,375.1,249.8,373,251.3,371.1z"/>
	<path fill="#9D9D9C" d="M353.7,195.9c-0.8-1.3-1.6-2.7-2.3-4.1c-1-4.2-2.1-8.5-3.2-12.7c-0.3-0.9-1-1.4-1.7-1.6
		c-0.1-4.8-0.2-9.6-0.2-14.4c0-2.7-4.3-3.1-4.3-0.3c0,0.4,0,0.8,0,1.2c-1.3-1-3.9-0.1-3.5,2.1c1.4,8.6-5.3,16.4-5.5,25
		c-0.2,6.6-0.9,12.6,6.9,13.7c1.3,0.2,2.7-1.3,2.3-2.6c-1.4-4.2-2.3-8.4-2.7-12.8c0.2-0.2,0.3-0.4,0.4-0.7c0.5-2.1,0.9-4.2,0.9-6.4
		c0-0.7-0.3-1.3-0.7-1.7c0.8-2.2,1.7-4.4,2.2-6.6c0.1,7.4,0.5,14.9,1.2,22.3c0.1,0.9,1.1,1.7,1.9,1.7c1.2,0,2.4,0.1,3.5,0.3
		c0.7,0.8,1.9,1,2.8,0.5C353,199,354.7,197.5,353.7,195.9z"/>
	<path fill="#EC6608" d="M386,504.1c-0.2-2.4-0.4-4.7-0.6-7.1c0.1-0.5,0.1-1,0-1.5c-0.3-5.1-0.8-10.1-1.5-15.1
		c-0.5-4-3.1-7.5-7.5-7.5c-0.1,0-0.2,0-0.3,0c-1.1-0.2-2.3-0.1-3.6,0.4c-14.6,5.4-29.8,7-45.2,4.9c-3.9-0.5-6.5,2.5-7.2,6
		c-2.6-2.8-7.3-4.1-11-0.8c-2.3,2-4.9,3.9-7.6,5.5c-1.2-1.3-3-2.2-5.4-2.1c-12.1,0.6-24.1-0.3-35.9-3.1c-7.8-1.9-16-6.1-24.2-7.3
		c-0.8-0.9-1.8-1.8-2.9-2.6c-1.5-1.1-3.4-1.3-5.1-0.9c-1.8-1.2-4-1.3-6.1-0.5c-1.6-0.6-3.3-0.8-4.7-0.3c-0.6,0.2-1.2,0.5-1.8,0.7
		c-0.9-0.5-2-0.7-3.3-0.8c-8.9-0.2-17.7-0.9-26.4-2.2c-0.2-0.4-0.5-0.8-0.8-1.1c-0.5-0.8-1.2-1.5-2.1-1.9c-1.7-0.9-3.8-1.4-5.8-0.8
		c-1.8,0.6-3.6,1.7-4.5,3.4c0,0.1-0.1,0.2-0.1,0.2c-3.1,2.1-4.4,6.4-3.1,9.5c-1.7,4.2-3.2,8.4-4.5,12.7c-1.3,4.2,2.4,10.1,7.2,9.5
		c0.2,0,0.4,0,0.6-0.1c0.6,1.1,1.5,2,2.7,2.5c9.8,4.4,19.8,7.4,30.3,9c-3.2,8.8-4.6,18.1-4.1,27.4c0,0.2,0,0.3,0.1,0.5
		c-0.9,0.8-1.6,1.9-2,3.3c-1,3.5,1.2,8.6,5.2,9.2c40.3,6,80.9,7.9,121.6,9.5c2.3,0.1,4-0.7,5.2-1.9c1.8,0.5,3.7,0.3,5.4-0.7
		c0.1-0.1,0.2-0.1,0.3-0.2c1.7,0.2,3.5-0.1,4.9-0.9c3.8-2.2,4.4-6.5,2.7-10.3c0-0.1-0.1-0.2-0.1-0.3c-0.2-3.4-0.2-6.8-0.1-10.2
		c0.8-6.3,1.2-12.6,1.2-19c0-1.8-0.6-3.3-1.5-4.5c-0.1-0.4-0.2-0.7-0.3-1c0.1,0,0.1,0,0.2,0c1.3-0.1,2.5-0.2,3.8-0.3
		c10.2-0.7,20.3-1.4,30.5-2.1C382.2,511.3,386.3,508.4,386,504.1z"/>
	<path d="M348,350.8c-0.4-1.7-2.3-2.2-3.7-1.5c-1.5,0.7-3,1.5-4.4,2.2c0.4-0.6,0.8-1.2,1.2-1.8c1-1.5-0.1-3.3-1.6-3.7
		c0.6-1.5-1-3-2.5-3.2c-0.3,0-0.5,0-0.7-0.1c-0.1-1.6-1.5-2.9-3.2-2.3c-0.7-1.6-2.2-2.5-4.1-2c-1.3,0.4-1.8,1.5-1.7,2.5
		c-0.2,0-0.4,0.1-0.5,0.1c0-0.1-0.1-0.1-0.1-0.2c0.2-0.7,0.2-1.4,0.3-2.1c0.1-0.4,0.1-0.8,0-1.2c-0.4-4.2-3.2-7.8-7.2-9.5
		c-0.9-0.4-1.9,0-2.6,0.6c-1.8-0.2-3,1.1-3.3,2.6c-0.2-0.5-0.5-1-0.7-1.5c-0.9-1.6-2.7-1.7-3.9-0.8c-0.3-1.2-0.8-2.3-1.5-3.2
		c-1.5-1.9-3.8-2.6-5.9-1.9c-1.1-1.2-2.5-2-4.3-2.3c-1.6-0.2-3.8,0.7-3.5,2.7c0.3,3,1.2,5.8,2.5,8.2c-0.5,0.3-1.2,0.5-1.8,0.5
		c2-5.6-4.4-10.5-9.4-12.6c-1.9-0.8-3.2,0.9-3.4,2.6c-0.2-0.1-0.3-0.3-0.5-0.4c-2.5-2-5.7,0.4-4.4,3.4c0.2,0.5,0.5,1.1,0.8,1.7
		c-1.1-1.7-2.7-3.1-4.7-4.2c-1.6-0.9-3.7,0.1-4.2,1.7c-1.1-1.3-2.3-2.3-3.1-3c-2-1.6-5.5-0.2-4.7,2.7c0.2,0.8,0.5,1.5,0.8,2.3
		c-1.5-1.2-3-2.1-4.5-2.5c-2.1-0.6-4.3,1.7-3.4,3.8c-0.8-0.7-1.5-1.3-2.2-1.7c-1.9-1.2-4.5,0.6-4.2,2.8c-0.8-0.7-1.6-1.3-2.5-1.8
		c-1.3-0.8-3-0.2-3.8,0.9c-1.5-0.2-3,0.8-3.2,2.7c0,0.3-0.1,0.6-0.1,0.9c-1.2-1.6-2.6-2.8-4.1-3c-1.3-0.2-2.4,0.1-3.2,1.3
		c-0.7,1.1-0.8,2-0.4,3.2c0.4,1.3,1.4,1.9,2.7,2.1c0.1,0,0.3,0,0.4,0c-0.5,0.2-0.8,0.5-1.1,0.9c-0.2-0.2-0.4-0.4-0.6-0.6
		c-1.9-1.7-4.6-0.4-4.8,2c-0.1,0.7,0,1.5,0.2,2.2c-1.9-0.2-3.6,1.4-3.1,3.5c0.2,0.7,0.6,1.6,1,2.6c-0.5,3.5,1.8,6.8,5.3,7.8
		c0.7,0.2,1.6,0,2.3-0.4c1.1,0.1,2.1-0.3,3.2-1.3c0.5-0.5,0.9-1.1,1.2-1.6c0.9,0.9,1.9,1.8,3,2.6c1.6,1.2,3.5-0.2,4.1-1.7
		c0.5-1.2,0.8-2.5,0.9-3.7c0.3-0.1,0.5-0.2,0.7-0.3c1.7-0.8,2.8-1.9,3.5-3c0.4,0,0.8,0.1,1.2,0c2.1,1.4,4.4,1.8,6.8,0.6
		c1.2-0.6,2-1.5,2.5-2.4c1.6,0.2,3.2-0.1,4.7-1.3c0.4-0.3,0.7-0.6,1-1c2.3,1.1,4.6,1.3,6.7-0.2c0.6-0.4,1.1-0.9,1.5-1.5
		c0.8,0.3,1.7,0.6,2.6,0.9c0.7,0.2,1.7,0,2.4-0.4c1.8,1,3.8,1.3,5.8,0.6c1.3-0.5,2.2-1.2,2.8-2c1,0.2,2,0.2,3.1-0.3
		c3.1,1.3,6.9,1.4,9.8-0.4c0.9,0.8,1.9,1.6,3,2.3c2.7,2.6,5.9,4.7,7.9,5.8c1.5,0.8,3.7,0.2,4.1-1.7c0.7-3.6,0.6-6.8-0.4-10
		c0.3,0.2,0.6,0.4,1.1,0.4c0.1,0,0.1,0,0.2,0.1c0.3,1.7,1,3.3,2.2,4.6c-0.7,0.9-1.4,1.9-2,2.8c-0.7,1-0.4,2.2,0.5,3
		c-0.2,0.3-0.4,0.7-0.7,1c-1.2,2,1.2,4.7,3.3,3.5c0.2,1.8,2.5,3,4.2,1.5c0.8-0.7,1.5-1.4,2.3-2.1c0.4,0.8,1.1,1.4,1.8,1.5
		c-0.1,0.2-0.2,0.4-0.3,0.6c-0.5,1.1-0.2,2.1,0.4,2.9c-1.4,2,1.5,4.6,3.5,3.3c0.5-0.3,0.9-0.6,1.4-0.9c0,0.1-0.1,0.3-0.2,0.4
		c-0.7,2.2,1.8,3.8,3.7,2.8c2.3-1.1,4.5-2.3,6.8-3.4c-0.5,2.6,3.3,4.6,4.5,1.9C348.3,355.2,348.5,353.3,348,350.8z M253,339.2
		c0-0.2-0.1-0.5-0.1-0.7c0.4,0.5,0.9,0.9,1.4,1.4C254,339.9,253.6,339.6,253,339.2z M281.5,334.2c-0.6,0.1-1.1-0.2-1.7-0.5
		c-0.1-1.3-0.5-2.6-1-3.8c1,1.6,2.1,3.3,3.4,4.7C282,334.6,281.8,334.5,281.5,334.2z M308.6,337.2c0-0.1,0-0.2,0.1-0.3
		c0.4,0,0.7-0.1,1-0.2c0.1,0.5,0.2,1,0.2,1.5C309.4,337.9,309,337.5,308.6,337.2z"/>
	<path d="M337.3,459.7c-1.5-2.3-4.6-1.2-5.2,0.8c-0.2-0.4-0.3-0.7-0.5-1.1c-1.4-3-5.8-0.8-5.1,2.2c0.2,1,0.5,1.9,0.9,2.8
		c-1.9-0.9-4.6,0.6-4,3.2c0.1,0.4,0.2,0.9,0.3,1.3c-1.1-2.8-5.5-2.4-5.5,0.8c0,1.2,0,2.3,0,3.5c-0.6-0.4-1.3-0.5-2-0.5
		c-1.3-0.8-3.1-0.2-3.7,1.4c-0.3,0.9-0.6,1.7-0.9,2.6c-0.5-0.3-1-0.5-1.5-0.8c-0.8-0.4-1.7-0.4-2.4,0c-0.8-0.2-1.6,0-2.3,0.5
		c-0.2-0.4-0.4-0.9-0.6-1.3c-1.1-2.5-4.3-1-4.6,1.2c-1.2-0.7-2.8-0.4-3.4,0.8c-0.7,0.2-1.3,0.8-1.4,1.6c0,0.2-0.1,0.3-0.1,0.5
		c-0.3-1-1.1-1.6-2-1.7c-0.2-0.8-0.3-1.6-0.5-2.4c-0.4-2.8-3.8-3.4-4.9-0.7c-0.3,0.7-0.5,1.3-0.8,2c-0.9-0.5-2.1-0.6-2.9,0
		c-0.1-3.2-4.9-3.2-5,0c0,0.3,0,0.5,0,0.8c-0.9-0.7-2.3-0.6-3.2,0.1c-1.6-0.9-4.1,0.5-3.8,2.9c0.4,1.7,0.2,3.3-0.3,4.9
		c-0.6-1.9-0.8-3.8-0.7-5.9c0.2-3.2-4.8-3.2-5,0c0,0.3,0,0.7,0,1c-0.2-0.2-0.4-0.4-0.6-0.6c-0.3-1.5-1.1-2.8-2.8-3.8
		c-1.5-0.8-3-1-4.4-0.6c-0.2-0.8-0.4-1.6-0.5-2.5c-0.4-2.3-4.2-2.8-5.1-0.7c-0.9,2-1.1,3.6-0.9,5.6c-0.1-0.1-0.1-0.3-0.2-0.4
		c0,0,0-0.1,0-0.1c0.2-2.4-0.2-5-1-7c-0.8-2-3.2-2.5-4.6-1.4c-0.1-0.7-0.3-1.3-0.5-2c-0.7-1.8-3.4-2.8-4.7-1.3c-0.5-1.4-2-2-3.2-1.7
		c-0.1-0.3-0.3-0.7-0.4-1c-0.5-0.9-1.5-1.4-2.4-1.3c-0.3-0.3-0.7-0.4-1.1-0.5c-0.6-1.2-2.1-1.7-3.5-1c-1.2,0.6-2.3,1.3-3.3,2.1
		c-0.3-0.9-1.1-1.5-2-1.6c-0.3-1.5-1.9-2.7-3.7-1.7c-0.1,0.1-0.3,0.2-0.4,0.3c-0.8-0.3-1.7-0.3-2.4,0c-2.8,1.5-4,4.5-3.2,7.5
		c0.1,0.4,0.3,0.7,0.6,1c-0.2,0.6-0.4,1.2-0.6,1.8c-0.9,2.6,3.4,4.5,4.6,1.9c0.4-0.8,0.8-1.5,1.2-2.1c-0.1,0.4-0.2,0.8-0.4,1.2
		c-1,2.6,3.3,4.5,4.5,2c0.5,1,1.9,1.6,3,1.4c0.5-0.1,0.9-0.2,1.4-0.3c0.2,0.3,0.4,0.5,0.7,0.7c0,0.7,0,1.4-0.1,2.1
		c-0.3,3.2,4.7,3.2,5,0c0-0.3,0-0.6,0.1-0.9c0.3,0,0.6,0,1-0.1c0.2-0.1,0.3-0.1,0.4-0.2c0.5,0.9,1.2,1.8,2.1,2.6
		c0.6,2.7,2.3,4.8,6,5.5c1.3,0.2,2.4,0.2,3.4-0.2c0.9,1.3,2.1,2.3,3.7,2.6c1.7,0.2,3.1-0.4,4.2-1.5c0.2,0.4,0.5,0.8,0.8,1.2
		c0.5,1.2,1.3,2.3,2.4,3.3c0.2,0.2,0.4,0.3,0.6,0.4c0.8,0.9,1.7,1.7,2.7,2.5c1.5,1.2,3.3,1,4.4-0.6c0.5-0.7,0.8-1.4,1.1-2.1
		c0.4,1,0.9,2,1.5,2.9c0.8,1.3,2.8,1.7,3.9,0.5c1.3-1.4,2.3-2.9,2.9-4.6c0.3,0,0.7,0,1-0.1c0.9,1.5,3.5,1.5,4.2-0.1
		c0.2-0.3,0.3-0.7,0.4-1c0,0,0,0.1,0.1,0.1c0.9,1.5,3.3,1.6,4.2,0.2c0.1,0,0.1,0,0.2,0c0.3,0.6,0.7,1.2,1,1.8c1,1.6,3.3,1.6,4.3,0
		c0.2-0.3,0.3-0.5,0.5-0.8c0.1,0.2,0.2,0.4,0.4,0.6c0.5,0.8,1.4,1.2,2.2,1.2c0.4,0.4,0.8,0.7,1.3,1c1.4,1,3.2-0.1,3.7-1.5
		c0.3-0.9,0.6-1.9,0.8-2.8c0,0,0,0,0,0c0.7,0.8,1.5,1.7,2.3,2.4c1.5,1.3,3.5,0.7,4.2-1.1c0.3-0.7,0.5-1.4,0.7-2.1
		c0.1-0.1,0.2-0.1,0.3-0.2c0.4-0.3,0.7-0.6,1-1c0.3,0.1,0.7,0.2,1.1,0.2c0.3,1.1,0.9,2,1.9,2.8c1.3,1,3.5,1.2,4.4-0.6
		c0.2-0.5,0.4-1,0.7-1.5c0.3,0.4,0.7,0.8,1,1.2c1.8,2,4.5,0.2,4.8-2c0.2-1.5,0.3-3.1,0.5-4.6c0.6,0.7,1.2,1.3,1.8,2
		c1.8,1.8,4.6,0.4,4.8-2c0-0.4,0-0.9,0.1-1.3c1.8,1.4,4.3,0,4.5-2.2c0.1-0.6,0.1-1.2,0.1-1.8c0.4,0.3,0.8,0.6,1.2,0.9
		c1.3,1,3.9,0,4.1-1.7C340.8,468.6,340.1,464.1,337.3,459.7z"/>
</g>
<g id="Layer_1">
	<path fill="none" stroke="#000000" stroke-width="8" stroke-miterlimit="10" d="M314.5,477.5c10.5-5.8,23-6.9,32.4-14.9
		c9.8-8.2,14.6-22.4,17-36.2c1.8-10.2,2.5-20.7,1-31c-3.1-21.2-15.9-39.4-32-49.9c-16-10.5-34.9-14-53.3-12.9
		c-17.4,1-34.9,6.1-49.7,16.9c-14.8,10.8-26.6,27.8-30.8,47.6c-4.2,19.8,0.1,42.3,12.5,56.6c6.7,7.7,15.3,12.9,24.1,16.8
		c13,5.8,26.7,9.1,40.6,10"/>
	<text transform="matrix(1.104000e-02 -0.9999 0.9999 1.104000e-02 771.7182 535.2767)" font-family="'INGMe'" font-size="12px">© Beryl Ho (ING)</text>
	<path fill="none" stroke="#000000" stroke-width="8" stroke-miterlimit="10" d="M331.5,206.9c-33.1,0.5-66.6-5.1-97.6-16.4
		c17.2-29.5,34.7-60,38.5-93.9c23.9,4.5,46.4,4.8,70.7,5.2c-0.5,0.5-1.1,1-1.6,1.5"/>
	<path fill="none" stroke="#000000" stroke-width="8" stroke-miterlimit="10" d="M345.1,101.9c-5.1,34.4-10.1,68.8-15.2,103.1
		c-0.1,0.7-0.2,1.3-0.3,2"/>
	<path fill="none" stroke="#000000" stroke-width="5" stroke-miterlimit="10" d="M270,121.7c23,2.3,45.8,5.3,68.6,8.9"/>
	<path fill="none" stroke="#000000" stroke-width="5" stroke-miterlimit="10" d="M343,206c0.1,1,0.2,1.9,0.4,2.9
		c-4.5-24.5-1.7-49.9,1.1-74.8c1.3-11.8,2.7-23.5,4-35.3c-0.9,15.5-1,31.9-1.9,47.4c-0.4,6.7-0.7,13.4-0.1,20.1
		c1.2,12.1,5.6,23.5,10.2,34.6"/>
	<path fill="none" stroke="#000000" stroke-width="5" stroke-miterlimit="10" d="M329.9,204.3c4,0.9,8.1,1.7,12.1,2.6"/>
	<path fill="none" stroke="#000000" stroke-width="5" stroke-miterlimit="10" d="M343.4,197.6c4.4,0.6,8.9,1.2,13.3,1.8"/>
	<path fill="none" stroke="#000000" stroke-width="5" stroke-miterlimit="10" d="M268.9,146.1c-3.4,7.6-6.7,15.1-10.1,22.7"/>
	<path fill="none" stroke="#000000" stroke-width="5" stroke-miterlimit="10" d="M268,146.6c2.4,7.3,4,14.8,4.9,22.3"/>
	<path fill="none" stroke="#000000" stroke-width="5" stroke-miterlimit="10" d="M278.1,148.3c-1.6,7-3.3,14.1-4.9,21.1"/>
	<path fill="none" stroke="#000000" stroke-width="5" stroke-miterlimit="10" d="M284.7,152.9c-2,2.4-3.4,5.3-4.1,8.3
		c-0.6,2.8-0.7,5.8,0.6,8.3c1.3,2.5,4.1,4.4,6.9,3.9c1.1-0.2,2.1-0.8,3-1.4c3.5-2.6,5.5-7,5.1-11.3
		C295.7,155.4,289.7,146.6,284.7,152.9z"/>
	<path fill="none" stroke="#000000" stroke-width="5" stroke-miterlimit="10" d="M303.7,153c-0.8,7.9-1.3,15.8-1.7,23.7"/>
	<path fill="none" stroke="#000000" stroke-width="5" stroke-miterlimit="10" d="M302.7,176.7c2.1-4.8,5.4-9,9.5-12.4"/>
	<path fill="none" stroke="#000000" stroke-width="5" stroke-miterlimit="10" d="M312.1,163.9c0.4,4.7,0.9,9.4,1.3,14.1"/>
	<path fill="none" stroke="#000000" stroke-width="5" stroke-miterlimit="10" d="M314.7,178.6c1.5-7.5,4.9-14.5,9.7-20.5
		c0.2-0.2,0.4-0.4,0.6-0.4c0.2,0,0.4,0.4,0.1,0.5"/>
	<path fill="none" stroke="#0BBBEF" stroke-width="8" stroke-miterlimit="10" d="M218,98.4c-9.1,0.1-17.9,5.7-21.8,13.9
		c-3.1,6.6-2.7,15.3,2.8,20.1c2,1.8,4.7,2.9,7.4,3.2c-4.8,2.3-8,9.7-10.5,14.4c-3.5,6.6-5.4,14.5-3,21.6s10,12.6,17.3,10.7
		c-6,6.8-7.6,20.3-6.2,29.3c1.5,9,6.7,17.2,14.1,22.5c2,1.5,4.3,2.8,6.8,3.4c7.6,1.8,14.9-3.5,20.9-8.5
		c4.8,11.3,16.4,19.3,28.7,18.5s23.5-10,26.8-21.8"/>
	<path fill="none" stroke="#0BBBEF" stroke-width="8" stroke-miterlimit="10" d="M217.7,103.1c0.4-7.9,4.5-15.3,10.2-20.8
		c5.7-5.4,13-9.1,20.5-11.7c11.6-4,25.6-5.2,35,2.7"/>
	<path fill="none" stroke="#0BBBEF" stroke-width="8" stroke-miterlimit="10" d="M301.3,227.4c0.6,3.3,3.4,5.7,6.1,7.7
		c4.4,3.2,9.1,6.3,14.4,7.7c7.7,2,16.4,0,22.5-5.2s9.5-13.4,8.8-21.4c11.6,8.4,28.5,7.9,38.3-2.5c9.8-10.4,10.6-28.2,1.6-39.3"/>
	<path fill="none" stroke="#0BBBEF" stroke-width="8" stroke-miterlimit="10" d="M282.5,74.4c-0.2-2.4,1.6-4.5,3.4-6.2
		c7.4-7.2,16.7-13.2,27-13.3c10.3-0.1,21.1,7.6,21.3,17.9c8-5.5,19.1-11.2,28.6-9.2c7.2,1.5,13.1,7.6,15.4,14.6
		c2.3,7,1.4,14.8-1.3,21.7"/>
	<path fill="none" stroke="#0BBBEF" stroke-width="8" stroke-miterlimit="10" d="M391.6,176.1c9.3-0.9,16.4-10.8,14.7-20
		c-1.6-9.2-11.1-16-20.4-15.1"/>
	<path fill="none" stroke="#0BBBEF" stroke-width="8" stroke-miterlimit="10" d="M385.2,139.7c0.7,1.3,2.6,0.5,3.6-0.6
		c5.8-5.9,8.2-14.9,6.2-23s-8.4-14.8-16.3-17.3"/>
	<path fill="none" stroke="#000000" stroke-width="5" stroke-miterlimit="10" d="M313.5,377.3c-2.3-0.6-4.7,1-6.1,3
		c-1.3,2.1-1.8,4.6-2.2,7c-0.4,2.2-0.6,4.8,1,6.2c2.5,2.2,6.1-0.9,7.7-3.9c2.1-4,3-9.6-0.3-12.4"/>
	<path fill="none" stroke="#000000" stroke-width="5" stroke-miterlimit="10" d="M258.4,367.5c-2.6-0.6-5.4,0.7-7.1,2.5
		c-1.6,1.8-2.3,3.9-2.9,6c-0.6,1.9-1,4.1,0.8,5.4c2.7,1.9,7.1-0.6,9-3.2c2.6-3.4,3.9-8.2,0.3-10.7"/>
	<path fill="none" stroke="#000000" stroke-width="5" stroke-miterlimit="10" d="M294.9,419.6c-5.1,7.3-16.2,11.1-25.7,8.6
		c-9.5-2.4-16.5-10.7-16.3-19.3"/>
	<path fill="none" stroke="#EC6608" stroke-width="18" stroke-miterlimit="10" d="M202.4,57.1c-4.5-5.5-3.2-14.3,1.5-19.8
		c4.6-5.5,11.8-8.2,18.8-9.4c5.5-0.9,11.4-1,16.5,1.3s9.1,7.4,8.9,13.1c-0.3,10.2-12.6,16.1-15.6,25.9c-1.7,5.9,0.2,12,2.1,17.8"/>
	<path fill="none" stroke="#EC6608" stroke-width="18" stroke-miterlimit="10" d="M240.6,96.9c-3.6-1.2-6.6,4.5-4.3,8.4
		c2.3,3.9,7.9,2.8,8.3-1.6c0.1-1.4-0.3-3-1.2-3.9c-0.4-0.4-1-0.7-1.5-0.9c-2.3-0.9-4.8-0.9-6.9,0.2"/>
	<path fill="none" stroke="#000000" stroke-width="8" stroke-miterlimit="10" d="M231.2,469.9c-18.9,0.1-37.8-1.4-55.5-4.4
		c-0.8-0.1-1.8-0.2-2.2,0.1c-0.4,0.3,1.4,0.5,0.9,0.2"/>
	<path fill="none" stroke="#000000" stroke-width="8" stroke-miterlimit="10" d="M173.5,468c-6,9-10.5,19-13.5,29.5
		c12.8,8,29.7,14.9,44.6,16"/>
	<path fill="none" stroke="#000000" stroke-width="8" stroke-miterlimit="10" d="M337.7,478.3c16.8,0.2,33.5-4.4,47.9-13"/>
	<path fill="none" stroke="#000000" stroke-width="8" stroke-miterlimit="10" d="M383.7,467.5c-0.1,12.8,4.7,24.3,8,36.7
		c-16.3,4.2-32.6,8.4-48.8,12.6"/>
	<path fill="none" stroke="#000000" stroke-width="8" stroke-miterlimit="10" d="M343.4,517.5c2.9,14.1,4,28.5,3.5,42.9"/>
	<path fill="none" stroke="#000000" stroke-width="8" stroke-miterlimit="10" d="M385.3,473.6c15.6-8.3,29.1-20.4,38.9-35.1
		c-0.9,1.3-1.8,2.6-2.6,3.8"/>
	<path fill="none" stroke="#000000" stroke-width="8" stroke-miterlimit="10" d="M391.7,495.5c20.6-11.3,39.2-27,54.6-45.8"/>
	<path fill="none" stroke="#000000" stroke-width="8" stroke-miterlimit="10" d="M412.5,413.3c-1.9,10.8,5.4,22.5,15.9,25.6"/>
	<path fill="none" stroke="#000000" stroke-width="8" stroke-miterlimit="10" d="M564.1,426"/>
	<path fill="none" stroke="#000000" stroke-width="8" stroke-miterlimit="10" d="M568.2,436.8"/>
	<path fill="none" stroke="#000000" stroke-width="8" stroke-miterlimit="10" d="M440.8,449.9c3,2.7,8.9,3.4,16.6,1.9
		c6.4-1.2,13.8-3.8,21.2-6.6"/>
	<path fill="none" stroke="#000000" stroke-width="4" stroke-miterlimit="10" d="M438.3,426.5c2.6,3.4,3.9,7.7,3.4,12"/>
	<path fill="none" stroke="#000000" stroke-width="8" stroke-miterlimit="10" d="M203.1,513.5c-2.5,11.8-3.7,23.9-3.5,35.9"/>
	<path fill="#9D9D9C" d="M54.1,375.6c1.1-0.3,2.1-0.6,3.1-1c0-0.1,0-0.1,0-0.2c-0.9-3.9,4.3-5.9,6.1-3c0.5-0.3,0.9-0.6,1.4-1
		c1-0.8,2.2-0.7,3.2-0.2c3.1-2.4,6.5-4.4,10-6.2c0.1-1.2,0.9-2.4,2.4-2.8l17.5-5.1c3.6-1.2,7.2-2.4,10.7-3.7
		c0.7-0.3,1.3-0.3,1.9-0.1c0.4-0.9,1.3-1.7,2.2-2c1.9-0.5,3.6,0.6,4.2,2.4c1,2.8,1.9,5.5,2.9,8.3c0.2,0.6,0.2,1.2,0,1.8
		c0.6,1.9,1.2,3.7,1.8,5.6c1.2-0.3,2.5,0.1,3.2,1.7c2.2,4.8,4.5,9.6,6.7,14.4c0.2,0.2,0.5,0.5,0.7,0.8c2.5,4.2,4.7,8.7,6.3,13.5
		c1.7,3.4,3.3,6.9,4.4,10.5c1.1,3.5-3.1,5.4-5.4,3.7c-1.6,1.2-3.7,2.1-6,2.9c-2.5,0.8-5.1,1.7-7.6,2.6c-0.1,0.6-0.5,1.1-1.1,1.6
		c-8.1,7-17.6,11.7-28.1,13.3c0,0,0,0-0.1,0c-0.2,0.7-0.7,1.3-1.5,1.7c-2,1.1-4,2.2-6,3.2c-1.4,0.8-3,0.6-4-0.4
		c-0.1,0-0.2,0.1-0.3,0.1c-1.5,0.4-3-0.3-3.8-1.5c-3.5-5.6-6-11.8-7.5-18.2c-1.2-0.1-2.4-0.8-3.1-2.4c-4.9-12-10.4-23.7-16.3-35.2
		C51.1,378.9,51.8,376.2,54.1,375.6z M86.1,427.1c10.9-5.3,22-10.1,33.4-14.3c2.7-1,5.4-2,8.2-2.9c1.4-0.5,3.4-0.7,4.7-1.6
		c1.3-0.8,1.1-0.8,0.9-2.4c-0.1-1-0.3-2.1-0.6-3.2c-1.4-2.8-2.9-5.6-4.2-8.3c-1.5,0.9-3.5,0.9-4.7-1c-2.9-4.7-4.7-9.9-6.3-15.1
		c-3.3,1.9-6.6,3.7-9.9,5.5c0.8,1.5,0.7,3.4-1.2,4.5c-10.1,6.1-20.7,11.3-31.5,15.6C79.3,411.3,83.1,419,86.1,427.1z M70.6,394.8
		c9.1-4.3,18.1-8.7,27-13.5c5.9-3.3,11.8-6.6,17.8-9.8c-1-3.5-2.2-6.9-3.7-10.2l-0.4,0.1c-0.7,0.2-1.4,0.1-2.1-0.1
		c-0.4,0.6-1,1.1-1.8,1.4c-12.8,4.1-25.3,8.9-37.4,14.6c-0.7,0.3-1.5,0.4-2.2,0.2c-0.7,0.9-1.4,1.7-2.1,2.4
		C67,385,68.7,389.9,70.6,394.8z"/>
	<path fill="none" stroke="#000000" stroke-width="6" stroke-miterlimit="10" d="M81.6,441.1c16.4-7.1,32.7-14.6,48.7-22.7
		c5.1-2.6,11.1-6,14.7-10.6c-10.6-20.1-21.1-40.3-31.7-60.4c-20.9,11.1-43.2,19.7-65,29C61.4,397.3,72.2,418.1,81.6,441.1z"/>
	<path fill="none" stroke="#000000" stroke-width="5" stroke-miterlimit="10" d="M71.5,392.8c14.7-6.7,30-15.4,44.7-22.1
		c-2.5-2.6-4.6-5.6-6.3-8.9c0.1,0.1,0.1,0.3,0.2,0.4c-14.4,5.5-29.7,9.9-43.6,16.7C68,383.4,70,388.3,71.5,392.8z"/>
	<path fill="none" stroke="#000000" stroke-width="5" stroke-miterlimit="10" d="M87,428.8c11.2-4.8,22.4-9.7,33.6-14.5
		c4.2-1.8,9.9-4.7,13.3-7.8c-4.6-9.2-9.9-18.1-15.8-26.6c-13.6,8.3-27.7,16.2-42,23.2C79,411.2,84.2,420.7,87,428.8z"/>
	<path fill="none" stroke="#000000" stroke-width="5" stroke-miterlimit="10" d="M124,392.7c-14.7,4.6-29,10.4-42.8,17.4"/>
	<path fill="none" stroke="#000000" stroke-width="5" stroke-miterlimit="10" d="M128.5,400c-15.4,5.6-30.6,12-45.4,19.2"/>
	<path fill="none" stroke="#000000" stroke-width="5" stroke-miterlimit="10" d="M105.7,387.3c5.3,9.5,10.6,19,15.9,28.5"/>
	<path fill="none" stroke="#000000" stroke-width="5" stroke-miterlimit="10" d="M89.2,396.5c5.2,7.8,9.7,16.1,13.4,24.8"/>
	<path fill="none" stroke="#000000" stroke-width="8" stroke-miterlimit="10" d="M170.1,476.3c-14.4-9.6-26.4-22.9-34.7-38.4
		c0.7,1.4,1.5,2.7,2.2,4.1"/>
	<path fill="none" stroke="#000000" stroke-width="8" stroke-miterlimit="10" d="M161.8,497.6c-19-13.1-35.7-30.3-48.9-50.5"/>
	<path fill="none" stroke="#000000" stroke-width="8" stroke-miterlimit="10" d="M129.6,381.2c1-1.4-0.4-3.2-0.8-4.9
		c-0.9-3.6,3.7-6.6,7.2-5.6c3.5,1,5.8,4.4,7.6,7.6c4.4,7.8,7.7,16.1,9.9,24.8c1.2,4.6,1.3,10.9-3.1,12.8"/>
	<path fill="none" stroke="#000000" stroke-width="8" stroke-miterlimit="10" d="M149.1,413.8c0.8,11-7.3,21.9-17.8,24.1"/>
	<path fill="none" stroke="#000000" stroke-width="8" stroke-miterlimit="10" d="M113,447.1c-2.6,2.8-6.1,4.7-9.8,5.3
		c-3.1,0.5-6.3,0.1-9.5-0.4c-4.9-0.8-9.8-1.9-14.6-3.3c-2.9-0.8-5.9-1.8-8.1-3.9c-2.3-2-3.6-5.4-2.5-8.3c1.1-2.9,5.3-4.2,7.4-2"/>
	<path fill="none" stroke="#000000" stroke-width="4" stroke-miterlimit="10" d="M122.8,424.7c-2.9,3.1-4.5,7.4-4.4,11.6"/>
	<path fill="none" stroke="#000000" stroke-width="8" stroke-miterlimit="10" d="M61.3,402.8c-2.5-1.1-5.5,1.3-5.7,4
		s1.7,5.3,4.1,6.6c2.4,1.3,4.2,4,6.9,4.3c-0.5-0.6,1.2-0.8,1.1,0c-0.1,0.8-1,1.2-1.7,1.5c-3.1,1.4-4.6,5.5-3.3,8.7s5.3,4.8,8.4,3.5"
		/>
	<path fill="none" stroke="#000000" stroke-width="8" stroke-miterlimit="10" d="M413.7,415.6c-1.4-0.4-0.9-2.5,0-3.7
		c8.3-11.2,23.2-15.4,37.2-15.6c2.4,0,5,0.1,7.1,1.3c2.1,1.2,3.5,3.9,2.5,6.2c-0.7,1.5-2.2,2.4-3.7,3.1c-7.9,4-16.4,6.9-25,8.8"/>
	<path fill="none" stroke="#000000" stroke-width="8" stroke-miterlimit="10" d="M423.9,401.5c4.6-12.4,9.2-24.7,13.8-37.1
		c26,4.6,52.1,12.8,74.8,26.4"/>
	<path fill="none" stroke="#000000" stroke-width="8" stroke-miterlimit="10" d="M512.3,390.8c-9,18-16.7,37.9-25.7,55.9
		c-12.5-7.7-25.9-13.9-39.8-18.4"/>
	<path fill="#0BBBEF" d="M487.6,390.3c-4.8-2.5-8.5,0.1-12.9,1.9c-1,0.4-3.5,1.4-4.5,0.4c-1-1-0.3-2.8-0.5-4c-0.2-1.5-0.9-2.7-2-3.7
		c-3.9-3.4-9.1-0.1-13.1-2.5c-2.8-1.7-5.3,2.6-2.5,4.3c3.4,2.1,6.3,0.6,9.9,1.3c4.2,0.8,1.7,5.6,4.6,8.2c2.1,1.9,5.2,2.2,7.8,1.5
		c1.8-0.5,3.4-1.5,5.1-2.3c4.3-2,9.1-0.2,8.8,5.1c-0.2,3.2,4.8,3.2,5,0C493.5,396.2,491.4,392.3,487.6,390.3z"/>
	<g>
		<path fill="#0BBBEF" d="M481.5,418.9c-2.7,0.6-5-0.6-6.5-2.9c-1.2-1.8-2-3.7-4.1-4.5c-3.5-1.5-7.1,1.2-6.5,4.9
			c0.4,2.8,4.1,2.1,4.8-0.2c-0.1-0.1-0.1-0.3,0-0.1c0.1-0.3,0.1-0.6,0-1c0.1,0.7,0.1,1,0,1.1c0.1,0.1,0.3,0.4,0.5,0.8
			c0.4,0.7,0.8,1.5,1.3,2.2c0.8,1.2,1.8,2.2,3,2.9c2.6,1.7,5.7,2.1,8.7,1.5C486,423.1,484.6,418.3,481.5,418.9z"/>
		<path fill="#0BBBEF" d="M469.2,416.2c0,0,0.1,0,0.1,0c0,0-0.1-0.1-0.1-0.1C469.2,416.2,469.2,416.2,469.2,416.2z"/>
	</g>
	<path fill="#9D9D9C" d="M643.6,151.4c-1.7-0.1-3.4-0.2-5.1-0.5c0-0.1,0-0.2,0-0.3c-0.6-6.3-9.2-7.6-10.4-2.6
		c-0.8-0.3-1.7-0.7-2.5-1.1c-1.9-0.9-3.6-0.4-4.8,0.8c-5.7-2.6-11.6-4.6-17.6-6.2c-0.8-1.8-2.4-3.3-4.8-3.5l-28.2-1.9
		c-5.9-0.7-11.8-1.3-17.6-2c-1.2-0.2-2.1,0.1-2.8,0.5c-1.1-1.3-2.7-2.2-4.2-2.3c-3-0.2-5,2.1-5,5.1c-0.1,4.6-0.2,9.1-0.3,13.7
		c0,1,0.3,1.9,0.8,2.7c-0.1,3.1,0,6.2,0,9.2c-1.9,0-3.6,1.1-3.9,3.6c-1,8.1-2,16.2-3,24.4c-0.2,0.4-0.4,0.9-0.6,1.5
		c-1.7,7.3-2.7,15-2.8,22.7c-0.9,5.8-1.6,11.7-1.5,17.5c0.1,5.7,7.1,7.2,9.6,3.8c2.9,1.4,6.4,2,10.2,2.4c4.1,0.4,8.3,1,12.4,1.5
		c0.5,0.8,1.2,1.5,2.3,2.1c15.2,8.1,31.5,12.1,47.7,11.1c0,0,0.1,0,0.1,0c0.7,1,1.7,1.7,3.1,2.1c3.5,1,6.9,2,10.4,3
		c2.4,0.7,4.7-0.1,5.7-2c0.1,0,0.3,0,0.4,0c2.4,0.2,4.3-1.4,4.9-3.6c2.4-9.8,3.2-20,2.3-30.4c1.7-0.5,3.2-2.1,3.4-4.7
		c1.5-20,3.9-39.8,7.2-59.4C649.6,155.4,647.2,151.5,643.6,151.4z M621.1,240.9c-18.6-4.5-37.3-8.2-56-10.8c-4.5-0.6-9-1.2-13.4-1.7
		c-2.3-0.3-5.4,0-7.6-0.8c-2.2-0.8-1.9-0.8-2.5-3.4c-0.4-1.6-0.6-3.3-0.7-5.1c0.7-4.8,1.5-9.5,2.2-14.2c2.6,1,5.7,0.2,6.5-3.1
		c2-8.2,2.2-16.7,2-25.3c5.7,1.8,11.4,3.5,17.1,5.1c-0.5,2.5,0.7,5.5,3.9,6.6c17.8,5.9,35.8,10.4,53.9,13.5
		C623.5,214.4,621.7,227.5,621.1,240.9z M628.4,186.2c-15.4-3.5-30.8-7.4-46.1-11.6c-10.3-3.1-20.6-6.2-30.9-9.1
		c-0.1-5.6-0.1-11.3,0.5-16.8l0.7,0c1.1,0.1,2.1-0.2,3-0.8c0.9,0.8,2,1.3,3.3,1.5c20.7,2,41.4,5.3,62.1,9.9c1.2,0.3,2.4,0.1,3.4-0.4
		c1.4,1.1,2.8,2.1,4.3,3C629.1,170,629,178.1,628.4,186.2z"/>
	<path fill="none" stroke="#000000" stroke-width="8" stroke-miterlimit="10" d="M634.3,260.9c-27.6-5.3-55.1-11.5-82.5-18.6
		c-8.8-2.3-19.2-5.5-26.7-11.4c6-34.4,11.9-68.7,17.9-103.1c36.1,10.1,73,15.9,109.4,22.8C643.2,187.1,637.3,222.6,634.3,260.9z"/>
	<path fill="none" stroke="#000000" stroke-width="5" stroke-miterlimit="10" d="M626.2,183.5c-24.8-5.4-51.5-13.6-76.3-19
		c2.4-4.9,4.1-10.2,5-15.7c0,0.2,0,0.5,0,0.7c23.8,3.6,48.5,5.3,72.1,11.1C626.8,168,626.3,176.2,626.2,183.5z"/>
	<path fill="none" stroke="#000000" stroke-width="5" stroke-miterlimit="10" d="M620.6,243.8c-18.8-3.7-37.6-7.3-56.4-11
		c-7-1.4-16.9-4-23.4-7.6c2.4-15.7,5.9-31.1,10.5-46c24,8.2,48.5,15.6,72.8,21.5C624,214.2,620.8,230.4,620.6,243.8z"/>
	<path fill="none" stroke="#000000" stroke-width="5" stroke-miterlimit="10" d="M548.9,200.8c23.8,2.2,47.6,6.3,71.2,12.4"/>
	<path fill="none" stroke="#000000" stroke-width="5" stroke-miterlimit="10" d="M545.7,213.5c25.4,3.5,50.8,8.2,76,14.2"/>
	<path fill="none" stroke="#000000" stroke-width="5" stroke-miterlimit="10" d="M573.2,186.5c-3.3,16.3-6.6,32.6-9.8,48.9"/>
	<path fill="none" stroke="#000000" stroke-width="5" stroke-miterlimit="10" d="M601.9,195.1c-4,13.7-6.6,27.9-7.9,42.4"/>
	<path fill="none" stroke="#0BBBEF" stroke-width="8" stroke-miterlimit="10" d="M280,289.8c-2.5,2.1-3.2,5.9-2.4,8.9
		c1,3.9,4.1,7.2,8.1,7.5s8.6-2.8,9.3-7c0.6-3.2-1.1-6.2-3.6-7.9c-2.5-1.7-5.6-2.2-8.7-2.2c-2.5,0-5.9,1.3-5.7,3.8"/>
	<path fill="none" stroke="#0BBBEF" stroke-width="8" stroke-miterlimit="10" d="M304.3,273.5c3.9-3.5,5.4-9,5.1-13
		c-0.5-5.3-4.1-9.2-9.4-8.9c-5.3,0.4-12.1,5.7-13.9,11.7c-1.4,4.6,0.2,8.5,3.2,10.4c3,1.9,7.1,1.9,11.3,1.3c3.3-0.5,8.2-3,8.5-6.5"
		/>
	<path fill="none" stroke="#EC6608" stroke-width="6" stroke-miterlimit="10" d="M475.4,260.5c7.6,0.3,16.5-3.6,22.1,1.6
		c3.3,3.1,3.8,8.3,2.3,12.6c-1.5,4.3-4.5,7.8-7.5,11.2c7.3-0.5,14.2-3.5,21.5-3.9c7.3-0.4,15.8,3.2,17.1,10.4"/>
	<path fill="none" stroke="#EC6608" stroke-width="6" stroke-miterlimit="10" d="M474.3,259.4c6.4-6.9,12.9-14.2,15.5-23.2
		c2-7,1.3-14.8-2.2-21.1s-10.1-11-17.3-11.9"/>
	<path fill="none" stroke="#EC6608" stroke-width="6" stroke-miterlimit="10" d="M468.5,201.2c12.4-2.8,20.9-15.4,21.6-28.1
		s-5.3-25-13.7-34.5c7,8.1,21,6.2,28.5-1.5c7.4-7.7,9.5-19.1,9.7-29.8c10.7,10.5,31.6,6.2,37.3-7.7c8.7,17.9,36.2,22.7,50.4,8.8
		c-2.1,8,4.9,16.1,12.9,18.2c8,2.1,16.4,0,24.4-2.1"/>
	<path fill="none" stroke="#EC6608" stroke-width="6" stroke-miterlimit="10" d="M597.2,298.3c5.3-4.8,13.5-6,19.9-2.9
		c6.4,3.1,10.7,10.2,10.3,17.3c2.5-11.2,7.6-22.1,16.3-29.5c8.8-7.4,21.6-10.5,32.1-5.8c-3.6-6.2-7.2-12.4-9-19.4
		s-1.5-14.7,2.4-20.7c3.9-6,12-9.5,18.6-6.7c-2.2-4.5-4.4-9.2-4.5-14.2c-0.2-5,2.3-10.5,7-12.2"/>
</g>
<g id="Layer_3">
	<path d="M795.5,95.2c0.4-7.8-0.9-15.7-5.1-23.1c-1.9-3.3-4.1-6.3-6.6-9.1c-1.4-4.7-5.9-9.4-9.8-12.3c1.1-0.6,1.4-2.8-0.3-3.6
		c-3.8-1.9-7.8-3.3-11.8-4.2c-0.1-0.1-0.3-0.2-0.4-0.2c-4.1-1.4-8.1-2.8-12.2-4.1c-1.5-0.5-3.1-1-4.7-1.2c-1.9-0.2-3.9,0.4-5.8-0.2
		c-0.1,0-0.1,0-0.2,0c-7.3-2.9-15.8,0.2-22.8,1.4c-0.7,0.1-1.1,0.6-1.3,1.1c-0.6,0.1-1.2,0.2-1.8,0.3c-3,0.5-6.1,1.2-9.2,2.1
		c-1.8-0.7-3.7-0.1-5.5,0.6c-5.2,2.2-10.4,4.5-15.5,6.8c-0.2,0.1-0.4,0.3-0.6,0.4c-0.6-0.4-1.3-0.5-2,0c-2,1.4-3.9,3-5.6,4.7
		c-2.7,1.6-5.3,3.4-7.7,5.4c-10,8-18.9,18.9-23.1,32c-4,12.2-2.8,26.7,6.6,37.1c9.4,10.3,22.9,13.7,35.2,15.1
		c13.2,1.6,26.6,1.4,39.6-0.6c-5.7,5.3-11.7,10.2-17.8,14.9c-2.6,2-5.2,3.9-7.9,5.9c-0.8,0.2-1.6,0.3-2.5,0.4
		c-2.2,0.3-3.4,2.1-3.8,4.1c-4.3,3.2-8.7,7.1-13.9,8c-1.2,0.2-1.6,1.4-1.3,2.4c-2,0.4-1.3,4,0.9,3.9c0.9,0,1.8-0.1,2.6-0.2
		c0.4,0.2,0.9,0.3,1.4,0.1c0.3-0.1,0.6-0.2,1-0.3c2-0.2,4-0.4,6-0.7c14.2-1.2,28.1-3.9,41.6-8.1c0.8-0.2,1.1-0.9,1-1.6
		c1.7-0.6,3.4-1.2,5.1-1.8c8.9-3.5,16.8-9.1,24.7-14.7c3.4-2.4,6.7-4.9,9.8-7.6c4-3.1,7.9-6.5,11.3-10.3c5.1-5.7,7.5-13.9,10.4-21.2
		c0.2-0.5,0.2-1,0-1.4c2.3-5.2,4.1-10.8,4.5-16.3C798.4,97.1,797,95.6,795.5,95.2z M684.1,91.7c-0.5-1.4-1.1-2.8-1.8-4.1
		c0.2-0.3,0.5-0.5,0.7-0.8C683.6,88.4,683.9,90,684.1,91.7z M728.8,51.1c-0.1,0.1-0.3,0.2-0.4,0.4c-0.1-0.1-0.3-0.3-0.4-0.4
		C728.3,51.1,728.6,51.1,728.8,51.1z M728.6,92.7c0.4-1.2,0.8-2.4,1.2-3.6c0,0.2,0.1,0.4,0.1,0.6c-0.4,1.1-0.8,2.1-1.2,3.2
		C728.7,92.9,728.7,92.8,728.6,92.7z"/>
	<path fill="none" stroke="#FFFFFF" stroke-width="8" stroke-miterlimit="10" d="M680.6,91.3c-1.2,7.4-0.9,15.1,0.8,22.6
		c0.9,3.9,2.2,7.9,4.8,10.9c2.6,3,6.7,4.9,10.1,3.6c2.7-1,4.5-3.7,5.8-6.5c5.1-10.7,6-28.6-1.7-39.5
		C691.9,70.1,682.5,79.1,680.6,91.3z"/>
	<path fill="none" stroke="#FFFFFF" stroke-width="8" stroke-miterlimit="10" d="M714.9,71.4c4.6,16.7,7.4,33.8,8.2,50.8"/>
	<path fill="none" stroke="#FFFFFF" stroke-width="8" stroke-miterlimit="10" d="M721,103.6c0.6,1.4,2.4,0.1,2.9-1.2
		c3.9-9.4,7.7-18.8,11.6-28.2"/>
	<path fill="none" stroke="#FFFFFF" stroke-width="8" stroke-miterlimit="10" d="M727,100.8c5,7.3,10,14.7,15,22"/>
	<path fill="none" stroke="#FFFFFF" stroke-width="8" stroke-miterlimit="10" d="M750.6,54.7c3.1,15.6,4.7,31.4,4.9,47.1"/>
	<path fill="none" stroke="#FFFFFF" stroke-width="8" stroke-miterlimit="10" d="M758.4,115.5c-3.5,1-4.8,6.4-2.4,9.5
		c3.3,0.7,5.7-4.6,3.2-7.2c-1.5,0.4-2.2,2.7-1.2,4.1"/>
	<path fill="none" stroke="#000000" stroke-width="8" stroke-miterlimit="10" d="M668.5,54.8c-12.3,9.1-22.9,22-26,38.2
		c-3.1,16.2,3.1,35.9,16.9,44.9c6.3,4.1,13.6,5.8,20.7,6.8c13.5,2,27.1,2.1,40.4,0.3c-14.3,16.1-32.2,28.5-51.9,36.1
		c5.4,2.8,11.4,3,17.2,2.9c30.9-0.8,60.7-11.7,84.6-30.8c8.9-7.1,17.1-15.5,22.3-26.1c6.6-13.6,7.9-30.4,3.5-46
		c-4.4-15.6-14.5-29.6-27.5-38.3c-13.6-9.1-34.4-7.1-49.1-6.2C701.1,37.7,683.3,43.9,668.5,54.8z"/>
	<path d="M792.2,86.2c1.9,11.1,3.3,23.2-3.4,32c-1.4,1.9,1.6,4.3,3,2.4c7.3-9.5,6-22.7,3.9-34.8C795.4,83.3,791.8,83.7,792.2,86.2z"
		/>
	<path d="M799.5,93.1c-0.8-2.9-1.7-5.9-2.5-8.8c-0.7-2.4-4.1-1.2-3.4,1.2c0.8,2.9,1.7,5.9,2.5,8.8C796.8,96.7,800.2,95.5,799.5,93.1
		z"/>
	<path d="M760.1,39.1c-1.6,0-3.2-0.3-4.7-0.7c-0.3-0.5-0.7-0.9-1.3-1c-0.8-0.2-1.6-0.1-2.3,0.2c-1.3,0.6-1.3,2.9,0.2,3.6
		c2.9,1.2,5.8,1.8,8.7,1.8C763.1,43,762.4,39.1,760.1,39.1z"/>
	<path d="M768.3,44.2c-1.5-0.9-3.1-1.5-4.7-1.8c-2.3-0.4-2.6,3.4-0.3,3.9c1.4,0.3,2.6,0.8,3.8,1.5c0.9,0.5,2-0.1,2.3-1
		C769.8,45.7,769.2,44.8,768.3,44.2z"/>
	<path fill="#FFFFFF" d="M585.6,254.9c-1.9-0.8-3.9-1.1-5.7-0.7c-1.5-1.2-3.2-2.3-4.9-3.1c1.2-1.3,2.3-2.5,3.5-3.8
		c1.7-1.8,3.8-5,6.2-7.2c1.9-1.1,3.8-2.2,5.6-3.2c7.4-4.2,2.4-16-5.8-13.7c-2.9,0.8-5.2,2.2-7.3,4c-12.7,7.8-25.5,17.9-29.6,31.9
		c-1.5,1.2-2.6,3-2.8,5.5c-0.5,8.2-2.2,16.2-4.8,23.9c-6.5,7.7-12,16.1-16.4,25.1c-2.4,5,0.4,9.6,4.4,10.8c0.1,2.7,0.6,5.5,1.7,8.3
		c1.9,4.8,8.5,8,12.5,3.3c6.6-7.6,13.2-15.3,19.8-22.9c2.8-3.2,5.7-6.6,9.3-9c3.2-2.1,6.7-3.5,9.9-5.6c7.6-5,10.9-11.9,12.4-20.7
		C595,269.3,594.8,258.9,585.6,254.9z"/>
	<path fill="none" stroke="#000000" stroke-width="10" stroke-miterlimit="10" d="M515.1,319.8c8-11.4,16.2-24.1,24.1-35.5
		c-0.3-26.9,18.8-52.9,44.6-60.7c3.5-1,8.2-1.2,9.6,2.2c1.3,3.3-2,6.5-4.9,8.6c-6.6,4.9-12.6,10.6-17.7,16.9
		c7.8,0.8,17.3,4.6,22.2,10.7c4.2,5.2,4.4,12.6,2.6,19c-3.1,11-11.7,20.3-22.4,24.1c-11.7,4.2-17.5,16.8-23.1,27.9"/>
</g>
<g id="Layer_4">
	<path fill="none" stroke="#3C3C3B" stroke-width="10" stroke-miterlimit="10" d="M406.6,74.7c67-0.9,134.4-0.9,201.6-0.2"/>
	<path fill="none" stroke="#3C3C3B" stroke-width="10" stroke-miterlimit="10" d="M97.1,85.7c12.1,82.2-1,165,7.2,247.4
		c-0.2-1-0.5-1.9-0.7-2.9"/>
	<path fill="none" stroke="#3C3C3B" stroke-width="10" stroke-miterlimit="10" d="M378.7,541c123.6-0.3,247.2,0,370.8,0.9"/>
	<path fill="none" stroke="#3C3C3B" stroke-width="10" stroke-miterlimit="10" d="M744.3,212.1c0.5,110,0.9,219.9,1.4,329.9
		c0.2-1.8,0.4-3.6,0.6-5.3"/>
	<path fill="none" stroke="#3C3C3B" stroke-width="10" stroke-miterlimit="10" d="M99.5,545.8c28.8-0.3,57.7-0.7,86.5-1"/>
	<path fill="none" stroke="#3C3C3B" stroke-width="10" stroke-miterlimit="10" d="M94,85.9c30.7-0.1,61.3-0.1,92-0.2"/>
	<path fill="none" stroke="#3C3C3B" stroke-width="10" stroke-miterlimit="10" d="M447.7,74.1c0.5,81.9,0.9,163.8,1.4,245.7
		c0.2-1.3,0.4-2.6,0.6-4"/>
	<path fill="none" stroke="#3C3C3B" stroke-width="10" stroke-miterlimit="10" d="M593.5,318.9c51.4-0.2,102.9-0.1,154.4,0.1"/>
	<path fill="none" stroke="#3C3C3B" stroke-width="10" stroke-miterlimit="10" d="M446,317c10,0,20,0,30,0"/>
	<path fill="none" stroke="#3C3C3B" stroke-width="10" stroke-miterlimit="10" d="M98.7,470c0.3,26.7,0.7,53.3,1,80"/>
</g>
</svg>
