<?xml version="1.0" encoding="utf-8"?>
<!-- Generator: Adobe Illustrator 21.1.0, SVG Export Plug-In . SVG Version: 6.00 Build 0)  -->
<svg version="1.1" xmlns="http://www.w3.org/2000/svg" xmlns:xlink="http://www.w3.org/1999/xlink" x="0px" y="0px"
	 viewBox="0 0 841.9 595.3" enable-background="new 0 0 841.9 595.3" xml:space="preserve">
<g id="Layer_2">
	<path fill="#3C3C3B" d="M507.1,269.3c-0.5-1.8-2.2-2.1-3.5-1.5c0,0,0-0.1,0-0.1c-0.3-1.4-2-2.8-3.5-2.6c-0.1,0-0.2,0-0.3,0
		c-2-4.8-7.8-5.3-11.9-3c-2.2-0.1-4.3,0-6.5,0.2c-0.4-0.2-0.9-0.3-1.4-0.4c-2.5-0.2-5-0.3-7.6-0.4c-2.1-0.1-4.2-0.2-6.1,0.9
		c-0.3,0.2-0.6,0.5-0.7,0.9c-0.5-0.7-1.2-1.2-2.2-1.6c-5.7-1.9-13-0.6-19.3,0.4c-0.6-0.3-1.3-0.5-2.2-0.4c-6.2,0.6-12.4,1-18.6,1.9
		c-1.9,0.3-3.6,0.7-5.4,1.1c-0.2,0-0.5-0.1-0.7-0.1c-10.2-0.1-25.1-0.1-34.9,5.8c-0.4,0.1-0.9,0.2-1.3,0.4c-0.3-0.1-0.7-0.1-1.1-0.1
		c-5.8,0.3-11.4,2.4-16.7,4.6c-1.9,0.8-4.2,1.5-6.2,2.5c-2.8,0.7-5.6,1.5-8.4,2.2c-8.9,2.4-17.5,5.9-25.8,9.8
		c-2.6,1.2-5.1,2.4-7.6,3.8c-0.7-0.2-1.5-0.1-2.3,0.2c-1.3,0.6-2.4,1.3-3.4,2c-0.8-0.3-1.6-0.4-2.4-0.3c0-0.1,0-0.1,0-0.2
		c-3.1,0.6-5.5,2.5-8.1,4.3c-0.7,0.4-1.4,0.9-2,1.3c-1,0.3-1.9,0.9-2.5,1.7c-1.1,0.7-2.1,1.5-3.1,2.4c0,0-0.1,0.1-0.1,0.1
		c-0.8,0.2-1.6,0.5-2.4,0.7c-2.3,0.6-3.2,2.7-2.8,4.6c-0.8,0.8-1.6,1.7-2.2,2.6c-1.3,1.8,0.6,4.1,2.5,4c0.2,4.2,1.9,7.9,5.7,10.7
		c0.2,0.1,0.4,0.3,0.6,0.4c-0.2,2.2,2.5,4.2,4.5,3.2c0.4,0.2,0.9,0.3,1.5,0.2l1.4-0.2c0.4,0.6,1,1,1.9,1c34.4,1.3,68.6-6.7,98.7-23
		c6.5-1.8,12.4-4.6,17.8-8.6c0.8,3.2,3,6.1,6.4,7.1c14,4.1,28.9,10,43.6,10c9.4,0,20.5-2.3,28.3-8.3c3.2-0.6,6.8-1.1,9.6-2.6
		c3-1.6,3-4.9,3.3-7.9C510.6,289,509.6,279,507.1,269.3z"/>
	<path fill="#3C3C3B" d="M491.5,225.1c-27.8-15.9-57.7-29.7-90.1-32c-11.9-0.9-23,0.2-33.7,2.6c2-2.4,2.4-6.3-1-7.9
		c-4.6-2.1-10.2-3.4-15.3-2.6c-0.4-0.6-1.1-1-2-1h-1.3c-0.7,0-1.3,0.3-1.8,0.8c-5.1-1-10.4-1.3-15.7-0.7c-5.8,0.7-13.6,2.3-17.8,7
		c-2.2,1.2-4.4,3-6.3,4.7c-0.6,0.6-1.3,1.2-1.9,1.8c-0.9,0.9-1.8,1.8-2.6,2.6c-8.6,8.8-14.9,19.9-18.5,31.7
		c-0.7,1.3-1.4,2.6-2.1,3.8c-0.8,1.5-0.6,3.1,0.1,4.3c-0.3,1.4-0.5,2.7-0.7,4.1c-0.1,0.9,0.1,1.8,0.5,2.6c-4.4,8.8-8,17.8-11,26.6
		c-0.7,2.1,0.3,3.7,1.8,4.5c-0.4,2.9-0.7,5.9-0.8,8.9c-0.5,11.3,1.9,22.4-1.1,33.5c-3.3,12.2-10.6,23-17.5,33.4
		c-0.3,0.4-0.4,0.8-0.5,1.2c-0.6,0.2-0.9,0.6-1.2,0.9c-1.1,0.7-1.9,2-1.9,3.4c0.1,2.2,1.8,4,4,4c1.3,0,2.6-0.7,3.3-1.8
		c5.5,1.8,11.7,2.2,17.3,1.9c6.8-0.4,15.7-1,21.9-4.3c0.2-0.1,0.5-0.2,0.7-0.4c0.1-0.1,0.2-0.1,0.3-0.2c1.1-0.7,1.8-1.6,2.2-2.6
		c0.9-0.6,1.7-1.2,2.5-1.9c2.2-1.9,1.7-5.4,0-7.3c-2.4-2.7-4.4-5.7-6.2-8.7c0.9-2.9-0.9-6-2.3-8.6c-1.5-2.8-3-6-5-8.5
		c-0.5-0.6-1.4-1-2.2-0.9c-0.3-0.6-0.6-1.2-0.9-1.8c-0.3-8.8-0.3-17.6-0.1-26.5c0-1.4-0.8-2.3-1.9-2.6c0.1-1.2,0.3-2.4,0.5-3.6
		c0.2-1.1-0.2-2.1-0.8-2.9c1-4,2.2-8.1,3.4-12.2c0,1.5,1.3,2.9,2.8,3c-0.4,0.5-0.9,0.9-1.3,1.4c-1.5,1.6,0.4,4.1,2.3,3
		c6.7-3.7,13.6-7.3,20-11.5c0.8-0.5,1.7-1.1,2.6-1.6c0.3,0,0.6,0,1-0.1c7.2-2.5,14.1-5.4,20.8-8.9c7.7-1.2,15.8-1.5,22.8-4.2
		c0.9-0.4,1.6-0.8,2.2-1.4c13-1.8,25.8-5.2,38.7-7.5c15.7-2.8,31.3-3.5,47.1-1.7c2.7,0.3,4.2-1.4,4.6-3.4c11,0.8,22,2.5,32.8,5.4
		C493.9,246.2,502.5,231.4,491.5,225.1z M286.6,269c0.8-2.6,1.7-5.2,2.7-7.8c-0.2,1.3,0,2.7,0.4,3.9
		C288.6,266.3,287.5,267.6,286.6,269z M290.5,258.2c0.5-1.3,1-2.5,1.6-3.8c0.1,0.2,0.2,0.4,0.3,0.6
		C291.7,256,291.1,257.1,290.5,258.2z M319.1,216.2c-3.8,2.1-5.4,5.2-5.5,8.2c-4.5,3.7-8.7,7.7-12.5,12c0-0.4-0.1-0.7-0.3-1
		c1.3-2,2.6-3.9,3.9-5.8c2.8-3.1,5.4-6.4,8.4-9.4c3.5-3.6,7.6-6.6,11.4-9.9c8.2-3.6,16.5-7,24.9-9.9c1.4-0.5,2.2-1.5,2.6-2.6
		c2.8-0.2,5.6-0.3,8.6-0.1c0.1,0,0.2,0,0.3,0C346.4,201.7,332.8,208.4,319.1,216.2z"/>
	<path fill="#EC6608" d="M503.9,255.6c-2-2-3-4.4-4.3-6.9c-0.5-1-2.2-4.3-3.8-3.7c-1.3,0.5-2.1,1.4-2.5,2.5c-3-1.5-7-1.9-10.1-2.2
		c0.2,0,0.4,0,0.6,0c2.8-0.1,3.4-4.2,0.7-4.9c-1-0.3-2.1-0.6-3.1-0.8c-1.3-0.4-2.3,0.3-2.8,1.3c-1.3,0.2-2.6,0.5-3.9,0.9
		c-1.1,0.3-1.8,1.3-1.8,2.4c0,0.4,0,0.7,0.1,1.1c-8-2.3-16.2-3.3-24.5-3c-10.1-1.8-21.7-0.4-31.6,0.7c-1.5,0.2-3,0.3-4.5,0.5
		c-0.4,0-0.7,0-1.1-0.1c-0.8-0.1-1.5,0.1-2.1,0.5c-0.9,0.1-1.7,0.2-2.6,0.3c-2.8,0.1-5.7,0.5-8.5,0.8c-6.9-0.3-13.8-0.2-20.8,0.3
		c-2.4,0.2-3.8,2-3.9,3.8c-1,0.2-2.1,0.4-3.1,0.7c-3.4,0.8-6.8,1.6-10.1,2.5c-1.7,0.2-3.5,0.4-5.2,0.6c-5.7,0.5-11.3,1.9-16.8,4
		c-0.8,0.3-1.4,0.9-1.7,1.5c-7.8,1.2-15.4,4.1-22.4,7.7c-5.1,2.6-10.4,5.4-14.2,9.6c-3,0.7-6.1,1.4-9.1,2.1
		c-3.8,0.9-3.8,5.5-1.1,7.2c-4.2,4-6.1,8.5-2.6,12.9c0.1,2.3,0.3,4.5,0.4,6.3c0.2,3.2,4.1,5.3,6.6,2.7c2.3-2.4,4.4-5,6.6-7.5
		c1.5-0.8,3.1-1.5,4.6-2.3c0.7-0.3,1.4-0.7,2.2-1.1c0.1,0,0.2-0.1,0.3-0.1c1.1-0.5,2.3-1,3.4-1.5c1.2-0.4,2.4-0.7,3.7-0.8
		c1.6-0.1,2.7-1,3.3-2.2c7.5-3.2,15-6.4,22.6-9.5c0.6-0.3,1.1-0.7,1.4-1.2c0.8,0.2,1.7,0.2,2.6-0.1c7.6-2.8,15.3-5.3,23-7.4
		c3.6-0.7,7.2-1.5,10.7-2.3c0.6-0.1,1.2-0.4,1.6-0.7c1.2-0.3,2.5-0.5,3.7-0.8c4.8-0.9,9.6-1.7,14.4-2.6c14.9,0.8,29.9-1.4,44.6-3.5
		c8.4-1.2,16.8-2.5,25.3-3c3.7-0.2,7.5-0.2,11.2,0.2c2.4,0.6,4.8,1,7.2,1.1c1.7,0.2,3.4,0.3,5.2,0c0.7-0.1,1.2-0.5,1.6-1
		c0.1,0,0.2,0,0.3,0c0.4,0.1,0.7,0.2,1.1,0.4c0.9,0.4,1.7,0.3,2.4,0.1c0.1,0,0.3,0,0.4,0C501.1,265.7,508.2,259.9,503.9,255.6z"/>
	<path fill="#EC6608" d="M464.7,419.9c-2.6-2.4-5.1-4.9-7.7-7.3c-0.1-0.1-0.3-0.2-0.4-0.3c-0.7-2.1-1.6-4.2-2.6-6.2
		c-0.7-1.3-2.4-1.4-3.6-0.8c-0.7-0.4-1.6-0.5-2.5-0.2c-3.3,1.6-6.6,3.2-9.8,5.1c-2.4,1.4-5.2,2.9-5.9,5.8c-0.5,2.2,0.4,4.7,2.5,5.7
		c1.9,0.9,4,0.5,5.8-0.3c1.2,0.2,2.5-0.2,2.9-1.7c0.5-1.6,1.2-3.1,2-4.5c0.2,0,0.4-0.1,0.6-0.2c0.4-0.2,0.8-0.4,1.1-0.6
		c0.7,0.2,1.5,0.1,2.1-0.3c0.4,0.2,0.9,0.3,1.5,0.3c0.5,0,0.8-0.1,1.2-0.1c0.6,1.9,1.1,3.8,1.5,5.8c0.1,1.2,0.1,2.4,0,3.7
		c-0.1,2.5,3.4,3.3,4.7,1.3c1-0.5,2.1-1,3.1-1.5C463.7,425.5,467,422.1,464.7,419.9z"/>
	<path fill="#EC6608" d="M425.8,430.9c-0.7-1-1.6-1.3-2.8-1.1c-6.2,0.8-9.9,6.4-12.4,11.9c-0.6-3-2.6-6.2-4.4-7.6
		c-4.1-3.2-11.3-3.7-14,1.4c-0.3-0.1-0.7-0.2-1.1-0.2c-1.2-0.1-2.7,1.3-2.5,2.5c0.4,3.2,2.2,5.1,4.4,6.7c0.2,0.1,0.3,0.3,0.5,0.4
		c0.6,0.7,1.3,1.2,2.1,1.6c0.7,0.8,1.4,1.6,2.1,2.3c2.3,2.3,10.7,13.2,13.2,5.6c0.1-0.3,0.1-0.6,0.1-0.9c1.8-0.5,3.7-1.4,5.5-2.3
		c1.3-0.7,2.4-1.3,3.4-1.9c0.1,0.1,0.1,0.3,0.2,0.4c1.4,2,3.9,1.5,5.4-0.1c2.2-2.4,2.5-5.5,2.1-8.6
		C428.5,437.5,427.9,433.9,425.8,430.9z"/>
	<path fill="#EC6608" d="M238.9,172.1c-8.7-4.7-17.8-8.1-27.4-10.2c-3.1-0.7-4.5,4.1-1.3,4.8c9.2,2,17.9,5.3,26.2,9.7
		C239.2,177.9,241.8,173.6,238.9,172.1z"/>
	<path fill="#EC6608" d="M201.9,232.3c-10.6-0.5-21.1-0.6-31.7-0.3c-3.2,0.1-3.2,5.1,0,5c10.6-0.3,21.2-0.2,31.7,0.3
		C205.1,237.5,205.1,232.5,201.9,232.3z"/>
	<path fill="#EC6608" d="M193.1,319.1c-10.8,2.3-21.6,4.2-32.5,5.8c-3.2,0.5-1.8,5.3,1.3,4.8c10.9-1.6,21.7-3.5,32.5-5.8
		C197.6,323.2,196.2,318.4,193.1,319.1z"/>
	<path fill="#EC6608" d="M210.1,410.9c-11.7,4-23.1,8.9-34,14.7c-2.8,1.5-0.3,5.8,2.5,4.3c10.6-5.6,21.5-10.3,32.8-14.2
		C214.5,414.7,213.2,409.8,210.1,410.9z"/>
	<path fill="#EC6608" d="M665.4,192.2c-11.2,1.9-21.9,5.4-32.2,10.2c-2.9,1.4-0.4,5.7,2.5,4.3c9.9-4.6,20.3-7.8,31-9.7
		C669.9,196.5,668.6,191.7,665.4,192.2z"/>
	<path fill="#EC6608" d="M688.1,260.6c-13.3,0.3-26.6,0.6-39.8,0.9c-3.2,0.1-3.2,5.1,0,5c13.3-0.3,26.6-0.6,39.8-0.9
		C691.3,265.5,691.3,260.5,688.1,260.6z"/>
	<path fill="#EC6608" d="M682.2,342.8c-11.3-2.5-22.6-4.9-34-7.1c-3.1-0.6-4.5,4.2-1.3,4.8c11.4,2.2,22.7,4.6,34,7.1
		C684,348.3,685.3,343.5,682.2,342.8z"/>
	<path fill="#EC6608" d="M670.5,433.3c-10.8-5.4-21.8-10.4-33-15.1c-3-1.2-4.3,3.6-1.3,4.8c10.8,4.5,21.4,9.4,31.8,14.6
		C670.9,439,673.4,434.7,670.5,433.3z"/>
	<path fill="#EC6608" d="M242.2,471.5c-6.9,6.7-13.5,13.6-19.9,20.8c-2.1,2.4,1.4,6,3.5,3.5c6.3-7.2,13-14.2,19.9-20.8
		C248.1,472.8,244.5,469.3,242.2,471.5z"/>
</g>
<g id="Layer_1">
	<path fill="none" stroke="#000000" stroke-width="8" stroke-miterlimit="10" d="M511.7,288.2c-2.3-36.5-24.2-64-53.5-80.1l0,0l0,0
		c-37.5-20.5-87.2-22.2-123.8,0.2c-31.7,19.4-52.6,56.7-49,93.7c3.1,31.5,23.2,59.9,49.7,77.2c34.3,22.3,80.4,26.6,117.2,8.6
		C489.1,369.7,514.3,329.1,511.7,288.2z"/>
	<path fill="none" stroke="#000000" stroke-width="6" stroke-miterlimit="10" d="M290.7,306.7c65.4-36.9,142.9-51.9,217.4-41.9"/>
	<path fill="none" stroke="#000000" stroke-width="7" stroke-miterlimit="10" d="M288.3,279.4c62.2-34.8,136.7-47,206.7-33.8"/>
	<path fill="none" stroke="#000000" stroke-width="8" stroke-miterlimit="10" d="M297.1,334c63.5,1,127-25.1,171.5-70.4"/>
	<path fill="none" stroke="#000000" stroke-width="8" stroke-miterlimit="10" d="M421.6,304.9c27.2,11.4,58.6,12.7,86.7,3.6"/>
	<path fill="none" stroke="#000000" stroke-width="8" stroke-miterlimit="10" d="M378.8,191.7C361.9,184,343,177,325,181.8
		c-25.2,6.7-39,33.6-45.9,58.8c-4.7,16.9-7.7,34.4-8.9,51.9c-1.1,15.6-0.9,31.7-7.3,46c-6.4,14.3-21.9,26-37,22.1
		c26.9,5,51.3,5.8,77.5-2.3"/>
	<text transform="matrix(1.104000e-02 -0.9999 0.9999 1.104000e-02 774.6125 537.1029)" font-family="'INGMe'" font-size="12px">© Beryl Ho</text>
	<path fill="none" stroke="#000000" stroke-width="7" stroke-miterlimit="10" d="M349.2,346.4c2-6.2,7.6-11,14.1-12.1
		c6.4-1.1,13.3,1.7,17.2,7"/>
	<path fill="none" stroke="#000000" stroke-width="7" stroke-miterlimit="10" d="M430.2,333.2c1.7-5.9,7.1-10.6,13.2-11.5
		c6.1-0.9,12.6,2.1,15.9,7.3"/>
	<path fill="none" stroke="#000000" stroke-width="7" stroke-miterlimit="10" d="M391,360.6c3.8,6.8,11.9,11.3,19.7,10.1
		c7.8-1.2,14.3-8.4,14-16.3"/>
	<path fill="none" stroke="#000000" stroke-width="5" stroke-miterlimit="10" d="M521.9,382.1c5.5,2.2,9.2,8.2,8.9,14.1
		c-0.4,6.1-4.7,11.3-9.9,14.4c-5.2,3.1-11.2,4.5-17.2,5.7"/>
	<path fill="none" stroke="#000000" stroke-width="5" stroke-miterlimit="10" d="M389.5,401c5.5,9.6,17.9,13.8,28.8,11.7
		c10.9-2.1,20.1-9.4,26.9-18.1"/>
	<path fill="none" stroke="#000000" stroke-width="8" stroke-miterlimit="10" d="M367.6,397.5c-13.4,16.9-21.5,38-22.9,59.6
		c-0.2,3-0.3,6,0.4,8.8c1.1,4.7,4,8.9,7.6,12.1c8.1,7.3,19.3,10.4,30.2,10.2c10.9-0.2,21.5-3.5,31.5-7.8c14.3-6.1,27.8-14.2,39.8-24
		"/>
	<path fill="none" stroke="#000000" stroke-width="8" stroke-miterlimit="10" d="M438.1,443.6c6.2,3,11.6,7.8,15.5,13.7"/>
	<path fill="none" stroke="#000000" stroke-width="5" stroke-miterlimit="10" d="M436.3,443.4c2.2-8.2,5.2-16.3,9-23.9
		c0.5-1,1-2,1.9-2.6c2-1.3,4.8,0.3,5.6,2.5s0.2,4.7-0.7,6.9c-0.9,2.2-2.1,4.3-2.3,6.6"/>
	<path fill="none" stroke="#000000" stroke-width="5" stroke-miterlimit="10" d="M451.7,433.1c3.1-3.3,6.3-6.8,10.6-8.3
		c4.3-1.5,9.9-0.2,11.7,4c0.6,1.5,0.7,3.1,0.6,4.7c-0.4,5.6-3.3,10.8-7.3,14.8c-3.9,4-8.8,6.9-13.7,9.6"/>
	<path fill="none" stroke="#000000" stroke-width="8" stroke-miterlimit="10" d="M375.9,423.3c-3.4,6.6-6.7,13.2-10.1,19.8
		c-2.9,5.8-5.8,13.1-1.8,18.3c2.5,3.3,7.1,4.3,11.2,4.5c15.1,0.7,29.2-6.6,42.6-13.6c6.8-3.6,13.6-7.2,20.4-10.7"/>
	<path fill="none" stroke="#000000" stroke-width="8" stroke-miterlimit="10" d="M377.5,425.3c-2.2,12.5-4.6,24.9-7.2,37.3"/>
	<path fill="none" stroke="#000000" stroke-width="5" stroke-miterlimit="10" d="M406.1,457.4c-4.6-3.5-9.1-7-13.5-10.5
		c-1.6-1.3-3.2-2.7-3.8-4.6c-0.6-2.1,0.1-4.3,1.3-6.1c2.5-3.8,7.4-6.1,11.9-5.5c4.6,0.6,8.7,3.9,10.2,8.3c1.2-3.3,3.5-6.8,6.2-9.1
		c2.7-2.3,7.1-2.8,9.5-0.3c1.2,1.3,1.6,3,1.8,4.7c0.6,4.3-0.2,8.9-2.2,12.8"/>
	<path fill="none" stroke="#000000" stroke-width="8" stroke-miterlimit="10" d="M460.1,455.3c-0.2,7.2,0.7,14.4,2.6,21.3"/>
	<path fill="none" stroke="#EC6608" stroke-width="10" stroke-miterlimit="10" d="M359.3,54.8c-3.6,10.7-6.9,21.9-6.2,33.2
		c0.6,11.3,5.7,23,15.4,28.8c7.1,4.3,16.3,5.1,24,2c7.7-3.1,13.8-10,16-18c3.3-12.2-2.3-25.3,0.1-37.7"/>
	<path fill="none" stroke="#EC6608" stroke-width="10" stroke-miterlimit="10" d="M409.3,91.2c0.5,10.1,0.6,20.3,0.2,30.4
		c-0.3,9-1.4,19-8,25.2c-2.7,2.6-6.1,4.2-9.6,5.5c-7.4,2.7-15.4,3.6-23.1,2.7c-5.8-0.7-11.7-2.5-15.9-6.5c-4.2-4-6.4-10.5-4.1-15.9"
		/>
	<path fill="none" stroke="#EC6608" stroke-width="10" stroke-miterlimit="10" d="M431.5,85.1c-3,6.5-4.9,13.6-5.4,20.8
		c-0.2,3.5-0.1,7.3,1.7,10.3c1.8,3.1,5.7,5.1,9,3.8c2.1-0.8,3.5-2.8,4.7-4.7c5.1-8.2,8.3-17.4,9.6-26.9"/>
	<path fill="none" stroke="#EC6608" stroke-width="10" stroke-miterlimit="10" d="M473.1,89.8c-8.5,15.1-17,30.2-25.5,45.3"/>
	<path fill="none" stroke="#EC6608" stroke-width="10" stroke-miterlimit="10" d="M473.6,93.1c1.2,9.9,2.4,19.8,3.6,29.7"/>
	<path fill="none" stroke="#EC6608" stroke-width="10" stroke-miterlimit="10" d="M502.8,100.7c-5,16.6-10,33.1-15,49.7"/>
	<path fill="none" stroke="#EC6608" stroke-width="10" stroke-miterlimit="10" d="M500.2,102.8c-7.2,5.3-14.3,10.6-21.5,15.8"/>
	<path fill="none" stroke="#EC6608" stroke-width="10" stroke-miterlimit="10" d="M528.1,102.9c-7.8,12.9-15.6,25.8-23.5,38.8"/>
	<path fill="none" stroke="#EC6608" stroke-width="10" stroke-miterlimit="10" d="M528.4,105.8c0.8,8.7,1.6,17.4,2.4,26"/>
	<path fill="none" stroke="#EC6608" stroke-width="10" stroke-miterlimit="10" d="M553.7,113.3c-4.8,14.3-9.6,28.6-14.5,42.9"/>
	<path fill="none" stroke="#EC6608" stroke-width="10" stroke-miterlimit="10" d="M551.4,115c-6.4,4.4-12.8,8.8-19.2,13.2"/>
	<path fill="none" stroke="#EC6608" stroke-width="10" stroke-miterlimit="10" d="M571.2,125.2c-5.4,6.4-10.7,13.1-14.1,20.2
		c-3.4,7.1-4.5,14.9-1.4,19.4c2.3,3.4,6.8,4.7,11.8,3.4c5-1.2,10.4-5,14.2-9.8c5.7-7.3,7.1-16,12.4-23.6"/>
	<path fill="none" stroke="#EC6608" stroke-width="10" stroke-miterlimit="10" d="M585.3,152.6c-3.1,6.4-6.3,12.7-9.8,19
		c-3.1,5.6-6.9,11.7-12.4,15c-2.2,1.3-4.5,2.1-6.8,2.6c-4.7,1-9.1,0.8-12.9-0.4c-2.8-1-5.2-2.6-6.1-5.5s0.1-7.2,3.1-10.3"/>
	<path fill="none" stroke="#EC6608" stroke-width="10" stroke-miterlimit="10" d="M635.9,106.4c-0.9,2-1.9,4-2.9,6
		c-9.5,19-18.9,38-28.4,56.9"/>
	<path fill="none" stroke="#EC6608" stroke-width="10" stroke-miterlimit="10" d="M599,181.8c-2.8,0.6-4.9,3.4-4.7,6.2
		c1.3,1.1,3.5,0.6,4.7-0.7c1.2-1.2,1.7-3,2.2-4.6c-1.4-0.8-3.4-0.6-4.6,0.5c-1.3,1.1-1.7,3-1.2,4.5"/>
</g>
<g id="Layer_3">
	<path fill="#EC6608" d="M530.4,224.1c0.1-1.3-0.7-2.6-2.4-2.6c-7,0.3-13.8,1.2-20.6,2.8c-0.2-0.1-0.5-0.1-0.7-0.1
		c-0.8,0-1.4,0.3-1.8,0.7c-0.1,0.1-0.3,0.1-0.4,0.2c-1.2-0.5-2.5-0.2-3.4,0.8c-3.2-2.8-8.6-3.2-12.4-1.9c-0.8,0.3-1.5,0.6-2.1,1
		c0.4-4.2-0.8-8.5-3.9-12c-1.1-1.2-2.7-1.6-4.2-1.3c-0.1-0.4-0.2-0.7-0.4-1.1c-1.1-2.4-3.3-4-5.6-4.4c0,0,0-0.1,0-0.1
		c-0.3-1.4-1.1-2.3-2.1-2.8c-0.7-0.9-1.5-1.7-2.4-2.2c-0.6-0.7-1.8-1.1-2.7-0.9c-1.4,0.4-2,1.7-1.7,3.1c0.3,1.8,0.5,3.5,0.8,5.3
		c0.1,0.6,0.4,1,0.9,1.3c-1.7,2.6-2.2,5.7-3.2,8.7c-1.3,4-3,7.9-3,12.2c-2,1.3-3.9,2.6-5.9,4c-2.5,1.9-1.9,5.3,0.4,6.6
		c0.5,1.4,1.8,2.5,3.9,2.3c9.4-0.8,18.1-3.4,26.4-7.8c0,0,0,0,0,0c0,0,0,0,0,0c0,0,0.1,0,0.1-0.1c0.1,0,0.3,0,0.4,0
		c-0.1,3.9,2.9,7.5,7,8.3c2.2,0.4,4.6,0,6.6-1c0,0,0.1,0.1,0.1,0.1c1.3,0.7,2.6,0.6,3.9,0c0.8-0.4,1.6-0.9,2.3-1.5
		c0.1,1,0.5,1.9,1.3,2.5c0.6,0.4,1.2,0.7,1.7,1c1.1,2.3,2.9,3.9,5.2,5.3c0.2,0.1,0.4,0.2,0.6,0.4c0,0.2,0,0.5,0.1,0.7
		c0.4,3.1,3.9,4.4,6.1,2.9c0.6,0.6,1.1,1.3,1.3,2.2c0.7,2.8,4.7,2.1,4.9-0.7c0.3-4.6,0.3-9.1,0-13.6c2.1-4.5,4.2-9,6.3-13.5
		C532.9,226.9,532,225.1,530.4,224.1z"/>
	<path fill="none" stroke="#000000" stroke-width="7" stroke-miterlimit="10" d="M500,225.6c-4-5.5-13.7-4.7-17.4,1
		s-1.2,14.3,4.7,17.8c6.2,3.8,15.5,1.6,18.8-4.9c3.2-6.5-1.3-15.7-8.5-16.5"/>
	<path fill="none" stroke="#000000" stroke-width="7" stroke-miterlimit="10" d="M501.7,222.7c10.8-1.1,21.6-2.3,32.4-3.4
		c-6.8,12.7-10.2,27.1-10,42c-6.6-5.3-13.1-10.5-19.7-15.8"/>
	<path fill="none" stroke="#000000" stroke-width="7" stroke-miterlimit="10" d="M485.5,221.9c-5.6-9-11.4-17.8-17.5-26.5
		c-7.6,17.1-13.1,35.2-16.3,53.7c9.6-2.6,19.1-5.6,28.5-9"/>
	<path fill="#EC6608" d="M530.8,362.8C530.8,362.8,530.8,362.8,530.8,362.8c5-4.2-1-7-3-10.2c-1-1.6-3.1-1.1-4.1,0.1
		c-0.8,0-1.6,0.1-2.5,0.2c-0.3-0.1-0.6-0.2-0.9-0.2c-0.8,0-1.4,0.2-1.9,0.5c0.2-0.7,0.4-1.3,0.5-2c1.2-1.7,1.8-3.7,1.9-5.8
		c0.2-0.2,0.4-0.5,0.6-0.7c1.1-1.4,0.3-3.2-1-3.8c-0.8-0.6-1.9-0.8-2.9,0c-0.8,0.7-1.6,1.3-2.4,2c-1.9,0-3.7,1.9-4.8,4.1
		c-0.2,0.2-0.4,0.4-0.6,0.7c-0.1,0.1-0.1,0.1-0.2,0.2c-0.1,0.1-0.1,0.2-0.2,0.3c-1-0.6-2.1-0.6-3.5,0.4c0,0,0,0,0,0
		c-0.2-0.1-0.3-0.1-0.5-0.1c-0.3-1.5-0.7-3-1.3-4.5c0-0.3-0.1-0.6-0.1-0.9c0,0,0.1-0.1,0.1-0.1c0-0.1,0.1-0.2,0.1-0.3
		c0.5-0.9,0.1-2.4-0.8-3c-0.1-0.1-0.2-0.1-0.3-0.2c0,0,0,0,0,0c0,0-0.1-0.1-0.1-0.1c-1.7-2.3-4.7-0.4-4.4,2
		c-0.2,0.4-0.3,0.9-0.3,1.4c-3.7,5.5-5.1,11.9-3.7,18.4c0.3,1.3,1.3,2.4,2.8,2.2c0.1,0,0.1,0,0.2,0c0.6,1.3,1.6,2.4,3.2,2.9
		c1,0.3,2,0.3,2.9,0c0.8,0.4,1.6,0.7,2.3,1.2c1.6,2,3.3,4,4.9,5.9c0.9,4.2,3,7.6,7.1,6.8c1.8,1,4.8,0.8,7.6,0c1.8,0,3.6-0.6,4.8-1.7
		c1.7,0,3.3-0.6,4.6-1.8c0.9-0.4,1.7-0.9,2.4-1.5c1.3,0.5,2.7,0.1,3.3-1.3c2.8-6.4-6.5-6.9-10.2-8.7c-1.4-0.6-2.5,0-3.1,1
		c-0.4-0.1-0.8-0.2-1.1-0.2c0.2-0.4,0.3-0.7,0.5-1.1C528.3,365.1,529.9,364.2,530.8,362.8z"/>
	<path fill="#EC6608" d="M501.4,408.9c-2.1-1.5-4.5-1.9-7-1.3c-0.6-1.1-1.3-2.2-1.9-3.1c-2.1-3.3-4.6-6.1-8.4-6.8
		c-1.2-1.6-2.5-3.2-3.8-4.7c-0.8-0.9-2-1-3-0.7c-1.6-4.4-4.2-8.4-6.3-12.6c-0.1-0.3-0.2-0.6-0.3-0.9c-0.1-0.4-0.3-0.7-0.6-1
		c-0.3-1.1-0.6-2.2-0.9-3.3c-0.2-0.6-0.5-1-0.9-1.3c0,0,0-0.1,0-0.1c-0.8-2.6-4.2-1.7-4.7,0.4c-0.7,0.2-1.2,0.7-1.4,1.4
		c-1.4-0.5-3,0.1-3.1,1.9c-0.1,1.1-0.1,2.1,0,3.1c-0.2,0.6-0.1,1.2,0.1,1.7c0.4,5.9,2.2,11.5,5.3,16.7c0.5,0.8,1.1,1.1,1.7,1.1
		c-0.6,0.6-0.9,1.5-0.5,2.6c2.5,5.6,6.6,9.9,12.1,12.6c1.6,0.8,2.9-0.2,3.3-1.6c0,0,0.1,0.1,0.1,0.1c1,1,1.8,2,2.5,3
		c0.6,0.8,1.5,1.1,2.4,0.9c1.4,1,3.2,2.1,4.9,2.2c0.7,0.5,1.6,0.8,2.4,0.4c1.1-0.5,2.1-1.2,3-1.9c1.1-0.3,2.2-0.9,3.1-1.6
		c1.2-0.4,2.3-0.9,3.4-1.4c1.4-0.6,1.8-2.3,1.3-3.5C504.4,409.9,502.9,408.7,501.4,408.9z"/>
	<path fill="#0BBBEF" d="M485.1,419.3c-1.1-0.2-2.1-0.6-3-1c-3.4-4.2-7.4-7.5-12.1-10.1c0,0-0.1,0-0.1,0c-1.1-2-2.3-3.8-3.7-5.6
		c-2.7-3.3-6.2-5.9-8.1-9.7c-0.1-0.3-0.1-0.5-0.2-0.8c-0.1-0.4-0.3-0.8-0.5-1.1c0-0.1,0-0.2,0-0.3c0.2-3.2-4.8-4-4.9-0.7
		c-0.1,1.5,0,3,0.1,4.5c-0.3,0.5-0.3,1.2,0.1,2c0.1,0.1,0.2,0.3,0.2,0.4c1.4,7.9,5.8,14.9,12.7,19.5c0.3,0.2,0.7,0.4,1,0.4
		c4.1,2.9,8.6,5.1,13.5,6.5c0.4,0.1,0.9,0.1,1.3,0.1c1,0.4,2,0.7,3.1,0.9C487.5,424.9,488.3,420,485.1,419.3z"/>
	<path fill="#0BBBEF" d="M511.7,394.1c-6.3-0.9-10.9-5.7-16.5-8.5c-5.2-5.8-10-12.4-11.4-19.4c-0.3-1.7-2.4-3.1-4-1.7
		c-2.8,2.4-5.7,3.8-9.4,4.3c-3,0.4-2.7,4.2-0.1,4.9c3.5,7.3,7.2,14.6,12.8,20.5c-0.9,0.8-1.3,2-0.3,3.2c2.4,2.6,4.7,5.9,8,7.4
		c3.4,1.6,8.4,2.4,12.2,2.7c0.4,0,0.8,0,1.2,0c0.1,0.5,0.4,1,0.9,1.4c1,0.7,2.7,0.7,3.5-0.4c0.6-0.9,1.2-1.9,1.7-2.9
		c1.9-1.8,2.4-5.1,3.3-7.9C514.1,396.1,513.4,394.3,511.7,394.1z"/>
	<path fill="#EC6608" d="M507,372.2c-1.4-1.6-3.4-2.7-5.2-3.7c-0.9-0.5-1.7-0.9-2.6-1.3c-1-0.7-2.1-1.3-3.1-1.8
		c-2.2-1.8-4.6-2.8-6.7-1.5c-0.7-0.1-1.3-0.3-2-0.4c-2.6-0.5-3.6,2.8-2,4.3c-0.1,0.6,0,1.2,0.4,1.8c3.8,5.5,8.2,10.5,13.3,14.8
		c2.7,2.3,8.8,8.5,12.9,7c4.7-1.7,2.7-6.6-1.1-11.6c0-0.4-0.2-0.9-0.6-1.3C508.6,376.8,508.6,374.1,507,372.2z"/>
	<path fill="none" stroke="#000000" stroke-width="5" stroke-miterlimit="10" d="M454.1,401.7c1,3.5,2.8,6.6,4.9,9.5
		c5.7,7.7,14.7,13.8,24.2,13.2c5.8-0.4,11.2-3.1,16.1-6.4c7.6-5.1,14.6-12.2,16.1-21.2c0.6-3.6,0.3-7.3-0.6-10.9
		C504.8,346,443.5,364.8,454.1,401.7z"/>
	<path fill="none" stroke="#000000" stroke-width="5" stroke-miterlimit="10" d="M453.8,402.4c-6,0.9-11.4,4-16.6,7
		c-2.1,1.2-4.3,2.5-5.7,4.4c-1.4,2-2,4.8-0.6,6.8c2,3,6.5,2.4,10,1.4"/>
	<path fill="none" stroke="#000000" stroke-width="5" stroke-miterlimit="10" d="M493.6,363.2c-1-7.9,0.3-16,3.7-22.9
		c0.5-1,1.2-2,2.3-1.9c0.5,0,0.9,0.3,1.3,0.5c3.3,2.2,5.2,6.5,4.6,10.4"/>
	<path fill="none" stroke="#000000" stroke-width="5" stroke-miterlimit="10" d="M505.1,352c1.7-4.3,4.6-8.2,8.3-11
		c1.5-1.1,3.2-2.1,5-2.2c1.9,0,3.8,1.3,3.9,3.2c0,0.9-0.3,1.7-0.7,2.4c-1.2,2.7-2.3,5.4-3.5,8.1"/>
	<path fill="none" stroke="#000000" stroke-width="5" stroke-miterlimit="10" d="M515.2,383c5.4-1.2,10.9-2.3,16.3-3.5
		c2.6-0.5,5.2-1.1,7.3-2.7c2.1-1.5,3.5-4.3,2.8-7c-0.8-2.9-4-4.7-6.9-4.8c-2.9-0.1-5.6,1-8.2,2.1"/>
	<path fill="none" stroke="#000000" stroke-width="5" stroke-miterlimit="10" d="M523.9,369c2.6-1.9,5.1-3.8,7.7-5.7
		c1.1-0.8,2.2-1.7,2.7-3c0.4-1.2,0.1-2.5-0.4-3.6c-2.6-5.7-11-7.6-16.2-3.7"/>
	<path fill="none" stroke="#000000" stroke-width="5" stroke-miterlimit="10" d="M457.6,379.7c-1.6,5.5,1.3,11.3,4.5,16.1
		c7.5,11.3,17.8,21.9,31.1,24.3"/>
	<path fill="none" stroke="#000000" stroke-width="5" stroke-miterlimit="10" d="M466.2,372.5c0.3-0.6,1.3-0.6,1.8-0.1
		s0.7,1.2,0.9,1.8c1.3,4.2,3.7,8,6.1,11.7c4.4,6.8,9,13.7,15.7,18.1c5,3.3,11,4.9,17,4.7c0.7,0,1.7-0.6,1.3-1.2"/>
	<path fill="none" stroke="#000000" stroke-width="5" stroke-miterlimit="10" d="M482,363.4c5.6,14.3,18,25.7,32.7,30"/>
</g>
<g id="Layer_4">
	<path fill="none" stroke="#3C3C3B" stroke-width="10" stroke-miterlimit="10" d="M98.5,91.5c68.7-0.9,137.4-1.8,206.1-2.7"/>
	<path fill="none" stroke="#3C3C3B" stroke-width="10" stroke-miterlimit="10" d="M99.5,87.6c12.1,149.6-1,300.3,7.2,450.2
		c-0.2-1.8-0.5-3.5-0.7-5.3"/>
	<path fill="none" stroke="#3C3C3B" stroke-width="10" stroke-miterlimit="10" d="M101.9,538.5c216.7-1.4,433.4-1.8,650.1-0.9"/>
	<path fill="none" stroke="#3C3C3B" stroke-width="10" stroke-miterlimit="10" d="M746.6,80c0.5,152.5,0.9,305,1.4,457.6
		c0.2-2.5,0.4-4.9,0.6-7.4"/>
	<path fill="none" stroke="#3C3C3B" stroke-width="10" stroke-miterlimit="10" d="M664,80c29,0,58,0,87,0"/>
</g>
</svg>
