<?xml version="1.0" encoding="utf-8"?>
<!-- Generator: Adobe Illustrator 21.1.0, SVG Export Plug-In . SVG Version: 6.00 Build 0)  -->
<svg version="1.1" xmlns="http://www.w3.org/2000/svg" xmlns:xlink="http://www.w3.org/1999/xlink" x="0px" y="0px"
	 viewBox="0 0 841.9 595.3" enable-background="new 0 0 841.9 595.3" xml:space="preserve">
<g id="Layer_2">
	<path fill="#3C3C3B" d="M340.3,264.5c-0.6-1.4-2.1-1.4-3.1-0.7c0,0,0-0.1,0-0.1c-0.4-1.1-2.1-2.1-3.2-1.7c-0.1,0-0.1,0-0.2,0.1
		c-2.4-3.7-7.2-3.3-10.3-0.8c-1.8,0.3-3.6,0.7-5.4,1.1c-0.4-0.1-0.8-0.1-1.2-0.1c-2.1,0.2-4.2,0.5-6.3,0.8c-1.8,0.2-3.5,0.4-4.9,1.6
		c-0.2,0.2-0.4,0.5-0.4,0.8c-0.5-0.5-1.2-0.8-2.1-1c-5-0.7-10.9,1.4-15.9,3.1c-0.5-0.2-1.2-0.2-1.9,0c-5.1,1.4-10.1,2.7-15.1,4.3
		c-1.5,0.5-2.9,1.1-4.3,1.7c-0.2,0-0.4,0-0.6,0c-8.5,1.4-20.8,3.6-28.1,9.8c-0.3,0.2-0.7,0.3-1,0.5c-0.3,0-0.6,0-0.9,0.1
		c-4.7,1.1-9.1,3.7-13.2,6.2c-1.4,0.9-3.2,1.8-4.8,2.9c-2.2,1-4.4,2-6.6,3c-7,3.3-13.6,7.4-20,11.9c-1.9,1.4-3.9,2.8-5.8,4.2
		c-0.6,0-1.3,0.1-1.9,0.5c-1,0.7-1.8,1.4-2.6,2.1c-0.7-0.2-1.4-0.1-2.1,0.1c0,0,0-0.1-0.1-0.1c-2.5,1-4.2,2.9-6.1,4.7
		c-0.5,0.5-1,0.9-1.5,1.4c-0.8,0.4-1.4,1-1.8,1.8c-0.8,0.8-1.5,1.6-2.2,2.4c0,0-0.1,0.1-0.1,0.1c-0.6,0.3-1.3,0.6-1.9,0.9
		c-1.8,0.9-2.2,2.7-1.7,4.2c-0.6,0.8-1.1,1.6-1.5,2.5c-0.8,1.6,1.1,3.3,2.7,3c0.8,3.4,2.7,6.3,6.3,8.1c0.2,0.1,0.4,0.2,0.5,0.2
		c0.1,1.8,2.7,3.1,4.2,2c0.4,0.1,0.8,0.1,1.3,0l1.1-0.4c0.4,0.4,1,0.7,1.7,0.6c28.7-3.9,55.9-15.5,78.6-33.3
		c5.1-2.4,9.6-5.6,13.5-9.7c1.1,2.6,3.4,4.6,6.3,5c12.2,1.3,25.4,4.1,37.6,2c7.8-1.4,16.7-4.8,22.3-11c2.6-1,5.5-1.9,7.6-3.5
		c2.3-1.8,1.8-4.5,1.6-7C346.1,280.4,343.8,272.2,340.3,264.5z"/>
	<path fill="#3C3C3B" d="M321,230.1c-25.4-9.2-52.2-16.3-79.4-13.6c-10,1-19.1,3.5-27.5,7.1c1.3-2.2,1.1-5.6-2-6.4
		c-4.1-1.1-8.9-1.3-13.1,0.1c-0.5-0.4-1.1-0.7-1.8-0.5l-1.1,0.2c-0.6,0.1-1.1,0.4-1.4,0.9c-4.4-0.1-8.8,0.4-13.1,1.7
		c-4.7,1.5-10.9,3.9-13.7,8.4c-1.7,1.3-3.2,3.1-4.5,4.8c-0.5,0.6-0.9,1.2-1.3,1.8c-0.6,0.9-1.2,1.8-1.7,2.5
		c-5.9,8.6-9.5,18.6-10.7,29c-0.4,1.2-0.8,2.3-1.2,3.5c-0.4,1.3-0.1,2.6,0.7,3.5c0,1.2,0,2.3,0,3.5c0,0.8,0.3,1.5,0.8,2.1
		c-2.4,7.9-4.1,15.9-5.2,23.7c-0.3,1.8,0.8,3,2.2,3.5c0.1,2.5,0.3,5,0.6,7.5c1.2,9.5,4.8,18.3,3.9,27.9c-1,10.6-5.4,20.6-9.7,30.2
		c-0.2,0.4-0.2,0.7-0.3,1.1c-0.4,0.3-0.7,0.6-0.9,0.9c-0.8,0.8-1.3,1.9-1.1,3.1c0.4,1.8,2.1,3.1,3.9,2.8c1.1-0.2,2-1,2.5-1.9
		c4.8,0.7,10,0.1,14.6-1c5.5-1.3,12.9-3.1,17.5-6.8c0.2-0.1,0.3-0.3,0.5-0.4c0.1-0.1,0.2-0.1,0.2-0.2c0.8-0.7,1.3-1.6,1.5-2.5
		c0.6-0.6,1.2-1.2,1.8-1.9c1.6-1.9,0.7-4.7-1.1-6.1c-2.4-1.9-4.5-4.1-6.4-6.3c0.3-2.6-1.7-4.8-3.1-6.8c-1.6-2.1-3.4-4.5-5.4-6.4
		c-0.5-0.5-1.3-0.6-1.9-0.5c-0.3-0.4-0.7-0.9-1-1.3c-1.5-7.3-2.8-14.6-3.9-21.9c-0.2-1.2-1-1.8-1.9-1.9c-0.1-1-0.1-2-0.1-3
		c0-0.9-0.4-1.7-1.1-2.3c0.3-3.5,0.6-7,1.1-10.6c0.2,1.3,1.5,2.2,2.8,2.1c-0.3,0.4-0.6,0.9-0.9,1.3c-1,1.5,0.9,3.3,2.4,2.2
		c5-4,10.3-8,15-12.4c0.6-0.6,1.3-1.1,1.9-1.7c0.3,0,0.5-0.1,0.8-0.2c5.6-3.1,10.9-6.5,16-10.4c6.2-2.1,12.9-3.6,18.3-6.8
		c0.7-0.4,1.2-0.9,1.6-1.4c10.6-3.4,20.6-8,31.1-11.8c12.6-4.6,25.4-7.4,38.9-8.3c2.3-0.1,3.3-1.7,3.3-3.5c9.3-0.9,18.6-1.1,28-0.3
		C326.1,247.3,331.1,233.8,321,230.1z M157.4,296.2c0.3-2.3,0.7-4.6,1.1-6.9c0,1.1,0.4,2.2,0.9,3.2
		C158.6,293.7,157.9,294.9,157.4,296.2z M159.1,286.6c0.2-1.1,0.5-2.2,0.8-3.3c0.1,0.1,0.2,0.3,0.3,0.4
		C159.8,284.7,159.4,285.6,159.1,286.6z M176.7,247.6c-2.8,2.3-3.7,5.1-3.4,7.6c-3.2,3.7-6.1,7.6-8.6,11.7c-0.1-0.3-0.2-0.6-0.4-0.8
		c0.8-1.8,1.6-3.6,2.4-5.4c1.9-3,3.6-6.1,5.6-9c2.4-3.5,5.3-6.6,8-9.9c6.3-4.2,12.7-8.2,19.3-11.8c1.1-0.6,1.6-1.5,1.8-2.5
		c2.3-0.6,4.6-1.1,7.1-1.4c0.1,0,0.2,0,0.2-0.1C197.3,231.7,186.9,239.2,176.7,247.6z"/>
	<path fill="#EC6608" d="M335.8,253.6c-2-1.4-3.2-3.2-4.6-5.1c-0.6-0.7-2.4-3.3-3.7-2.5c-1,0.6-1.5,1.5-1.7,2.5
		c-2.7-0.8-6.1-0.6-8.7-0.4c0.2,0,0.3-0.1,0.5-0.1c2.3-0.4,2.3-4-0.2-4.2c-0.9-0.1-1.8-0.2-2.7-0.2c-1.1-0.1-1.9,0.6-2.1,1.5
		c-1,0.4-2.1,0.8-3.1,1.3c-0.8,0.4-1.3,1.3-1.2,2.3c0,0.3,0.1,0.6,0.2,0.9c-7-0.7-13.9-0.4-20.7,1.1c-8.7,0-18.1,2.8-26.1,5.1
		c-1.2,0.3-2.4,0.7-3.7,1.1c-0.3,0-0.6,0.1-0.9,0.1c-0.7,0.1-1.3,0.3-1.7,0.7c-0.7,0.2-1.4,0.4-2.1,0.7c-2.3,0.5-4.7,1.2-6.9,1.9
		c-5.8,0.7-11.5,1.8-17.2,3.2c-2,0.5-2.8,2.2-2.7,3.8c-0.8,0.3-1.6,0.7-2.5,1c-2.7,1.1-5.4,2.3-8,3.6c-1.4,0.4-2.8,0.8-4.2,1.3
		c-4.7,1.3-9.1,3.2-13.3,5.8c-0.6,0.4-1,0.9-1.2,1.5c-6.3,2.1-12.2,5.7-17.5,9.6c-3.9,2.9-7.8,6-10.4,10c-2.4,1-4.9,2-7.3,3.1
		c-3,1.3-2.4,5.1,0.2,6.1c-2.9,4-3.8,7.9-0.3,11c0.4,1.9,0.9,3.7,1.3,5.2c0.6,2.6,4.2,3.8,5.9,1.3c1.6-2.3,2.9-4.8,4.4-7.2
		c1.2-0.8,2.3-1.7,3.5-2.5c0.5-0.4,1.1-0.8,1.6-1.2c0.1,0,0.1-0.1,0.2-0.1c0.9-0.6,1.8-1.1,2.6-1.7c0.9-0.5,1.9-0.9,2.9-1.2
		c1.3-0.3,2.1-1.2,2.5-2.3c5.8-3.7,11.6-7.4,17.3-11.2c0.5-0.3,0.8-0.7,1-1.2c0.7,0.1,1.4,0,2.2-0.5c5.9-3.5,11.9-6.6,18-9.5
		c2.9-1.1,5.7-2.3,8.6-3.5c0.5-0.2,0.9-0.5,1.2-0.8c1-0.4,2-0.8,3-1.2c3.9-1.4,7.7-2.8,11.6-4.2c12.4-1.5,24.6-5.5,36.5-9.4
		c6.8-2.2,13.6-4.5,20.6-6.1c3.1-0.7,6.2-1.2,9.3-1.5c2.1,0.2,4.2,0.2,6.1-0.1c1.4-0.1,2.9-0.2,4.3-0.8c0.5-0.2,0.9-0.6,1.2-1
		c0.1,0,0.2,0,0.3,0c0.3,0.1,0.6,0.1,0.9,0.2c0.8,0.2,1.5,0,2-0.2c0.1,0,0.2,0,0.3,0C334.8,262.4,339.9,256.6,335.8,253.6z"/>
	<path d="M256.2,345.7c-0.8-4.2-3-8.6-7.1-8.9c-1.6-0.1-2.5,1.3-2.2,2.7c-0.2,0.4-0.2,0.9,0,1.4c0.5,1.3,0.7,2.4,0.6,3.6
		c-0.1,0.6-0.2,1.2-0.4,1.8c-0.8,0.7-1.4,1.6-1.5,2.8c-0.2,0.1-0.3,0.3-0.4,0.5c-0.5-0.2-1-0.2-1.5,0.1c-0.2,0.1-0.5,0.3-0.7,0.4
		c-0.3,0-0.6,0-0.9,0.2c-0.9,0.4-2,1.3-2.9,2.3c-0.3,0.2-0.6,0.5-0.8,0.7c-0.6-0.2-1.1-0.1-1.6,0c-0.1,0-0.2,0-0.3,0
		c-3,0.1-5.8-0.3-8.6-1.1c-0.7-0.3-1.5-0.5-2.2-0.7c-0.6-0.8-1.2-1.6-2-2.3c0-0.4,0-0.9-0.1-1.3c-0.1-2.7-4.3-2.1-4.2,0.6
		c0.1,1.5,0.2,2.9,0.4,4.3c-0.2,3.1,0.1,7.2,2.9,8.2c0.3,0.1,0.7,0.2,1,0.2c0.5,0.8,1.5,1.3,2.6,0.9c1.1-0.4,1.4-0.6,2.4-1.2
		c0.3-0.2,0.5-0.5,0.6-0.8c1.2-0.3,2.6-0.5,3.7-0.8c0.5,0.7,1.4,1.1,2.4,1.2c0.8,0.1,1.7-0.2,2.5-0.6c0.9,0.3,2,0,2.6-0.7
		c0.5-0.6,1-1.2,1.5-1.8c0.9-0.3,1.8-1,2.6-1.8c0.3,0,0.7,0,1.2,0c1.7,0.1,3,0.3,4.7-0.2c0.3-0.1,0.7-0.2,0.9-0.4
		c0.7,0.3,1.6,0.3,2.2-0.2c0.8-0.1,1.5-0.7,1.9-1.4c0.4-0.8,0.6-1.5,0.7-2.2c0.3-0.3,0.5-0.7,0.5-1.2c0-0.3,0-0.6,0-1
		c0-0.7,0-1.3,0.1-2C256.6,346.6,256.4,346.1,256.2,345.7z"/>
	<path d="M330,325.1c-0.8-1.3-1.4-2.7-1.9-4.2c-0.2-1.2-0.6-2.3-1.3-3.4c-0.9-1.8-2.2-3.3-4.5-4.2c-2.2-0.8-4,2.2-2,3.7
		c0.2,0.2,0.5,0.4,0.7,0.5c-0.3,0.3-0.6,0.7-0.6,1.2c-0.1,0.7-0.4,2.1-0.5,3.6c-0.7,1.5-2.1,2.5-4,2.9c-1,0.2-1.6,1-1.8,1.9
		c-1,0.3-2,0.7-3,1.2c-0.9,0.4-1.3,1.2-1.2,1.9c-2.5,0.2-4.9-0.1-7.1-1c-0.9-0.6-2-1.1-3.2-1.5c-0.5-0.2-1-0.2-1.5,0
		c-0.1-0.2-0.1-0.4-0.2-0.6c-0.2-0.7-0.8-1.1-1.5-1.2c-0.3-0.4-0.6-0.6-1-0.7c0-1.1,0-1.9,0-2.2c0.1-2.7-4.1-3.2-4.2-0.5
		c-0.1,3.9,0.1,7.7,0.9,11.5c0.5,2.3,0.9,4.8,3.4,5.5c0.1,0,0.1,0,0.2,0c0.2,0.1,0.4,0.2,0.6,0.2c0.6,2,4.1,2.5,4.2-0.1
		c0-0.9,5-1.4,6.1-1.9c0.1,0.1,0.2,0.2,0.4,0.4c0.1,0.1,0.2,0.1,0.3,0.2c0,0,0.1,0,0.1,0.1c0,0,0.1,0,0.1,0.1c0.6,0.3,1.2,0.3,1.8,0
		c0.2-0.1,0.3-0.1,0.5-0.2c0.6-0.4,0.9-0.7,1.2-1.1c2.3-1.8,4.9-3,7.7-3.6c0.1,0.1,0.1,0.2,0.2,0.2c0.7,0.5,1.6,0.9,2.5,0.7
		c2.3-0.4,2.9-3.3,4.4-4.9c0.9,0.5,2,0.3,2.7-0.6c0.1-0.1,0.1-0.1,0.2-0.2c0.2-0.2,0.3-0.4,0.3-0.7C330,328.1,330.9,326.5,330,325.1
		z"/>
	<path fill="#EC6608" d="M304.6,425.6c-6.2-2.3-11.1,4-12.8,9.6c-0.4-0.5-0.8-1.1-1.2-1.6c-0.4-0.5-0.9-0.8-1.4-0.8
		c-0.6-0.8-1.4-1-2.2-0.9c0-0.6-0.2-1.2-0.8-1.7c-2-1.6-3.4-2-5.9-1.6c-2,0.3-2.2,2.9-1.1,4.2c2.9,3.3,5.8,6.5,8.7,9.6
		c0.4,1.9,0.9,3.9,1.3,5.8c0.3,1.2,1.3,1.8,2.3,1.8c0.1,0.2,0.3,0.4,0.5,0.6c0.2,0.2,0.5,0.3,0.8,0.4c1.1,0.3,2.4,0,3-1.1
		c0.2-0.3,0.3-0.7,0.5-1c0.1-0.3,0.2-0.6,0.3-0.9c0.4-0.2,0.8-0.5,1-0.9c3.1-4.6,7.6-9.4,9.7-14.5
		C308.3,429.8,307.5,426.7,304.6,425.6z"/>
	<path fill="#EC6608" d="M545,214.1c0.1-0.7,0-1.2-0.1-1.8c1.4-2.9,2.4-5.8,2.8-8c0.1-0.5,0.1-0.9,0-1.3c2.9-0.4,5.3-4.1,3-6.6
		c-2.8-3.1-5.9-5.5-9.3-8c-0.9-0.7-1.9-0.6-2.6,0c-0.8-1.1-1.7-2-2.9-2.7c-2.7-1.5-6.5-0.9-7.5,2.4c-0.9,2.9,1.3,4.1,3.2,5.4
		c-0.1,0.1-0.2,0.2-0.3,0.4c-0.2,0.3-0.3,0.6-0.4,0.9c-1,0-2,0-2.9-0.1c-3.2-0.4-6.5-0.7-9.7-1c-1.1-0.1-1.7,1.1-1.2,1.9
		c-0.2,0.2-0.4,0.4-0.6,0.7c-0.8,1.3-0.6,2.7,0.1,4c0,0,0,0.1,0,0.1c1.1,3.7,4.1,6.2,7.4,8.1c-1.9,0.6-3.7,1.3-5.3,2.3
		c-3.6,2.3-5.7,7.1-2.6,10.7c2.4,2.7,5.5,3,8.6,2.2c0,0.5,0.1,1.1,0.4,1.8c0.2,0.4,0.4,0.8,0.5,1.2c-1,1.9-2.7,2.6-4,4.5
		c-3.3,5,1.8,9.2,6.8,9c3.2-0.1,6.5-1.2,9.6-2.2c2.4-0.8,5.4-1.5,7.1-3.7C549.4,228.6,544.3,220.2,545,214.1z"/>
	<path fill="#EC6608" d="M638.1,220.2c-0.5-0.1-1-0.1-1.5-0.1c-2.9-3.1-8.6-3.5-13.6-3.1c0.3-0.1,0.7-0.2,0.9-0.3
		c1.8-0.7,3.4-1.3,4.6-2.5c0.6,0,1.2-0.2,1.8-0.7c1.1-0.9,1.9-1.8,2.7-3c2.3-3.2-0.6-7.9-4.6-6.4c-3.4,1.3-6.6,3.2-9.8,5.2
		c-0.4,0.1-0.7,0.3-1.1,0.4c-2.9,1.2-5.7,2.6-8.6,3.8c-2.9,1.2-1.5,4.4,0.4,5c0,0.4,0.1,0.7,0.2,1c-0.2,1.8-0.3,3.6-0.3,5.5
		c0,0.3,0,0.5,0.1,0.8c0,0,0,0,0,0.1c-0.2,0.7-0.3,1.4-0.4,2.1c-0.1,0.1-0.2,0.2-0.3,0.4c-0.7,0.7-1.4,1.6-2,2.5
		c0.2-1.2,0.4-2.5,0.5-3.8c0.7-5.2,1.1-11-2.2-15.3c-0.1-0.9-0.2-1.8-0.5-2.6c-0.5-1.8-2.8-2.1-4.1-1.2c-1,0.7-1.9,1.5-2.7,2.5
		c-0.8,0.6-1.4,1.4-1.6,2.4c-1.5,2.8-2.4,6.1-3,8.9c-1.4,6-1.9,12-1.7,18.1c0.2,4.2,6.1,7.1,9.4,4.1c1.4-1.2,2.4-2.6,3.2-4
		c0,0.5,0.2,1,0.7,1.5c0,0.1,0.1,0.1,0.1,0.2c0.2,0.3,0.5,0.5,0.8,0.7c0.6,1.4,1.5,2.8,2.5,4.1c0.2,0.3,0.4,0.6,0.7,0.9
		c0.2,0.2,0.3,0.4,0.5,0.6c2,2.3,4.2,4.4,5.9,5.9c0.1,0.2,0.2,0.4,0.3,0.6c1,2.4,3,3.2,5,2.8c0.1,0.1,0.2,0.2,0.4,0.2
		c0.2,0.1,0.4,0.3,0.7,0.4c2.3,1,5-0.4,5.4-2.9c0.3-1.6-0.5-3.1-1.8-3.8c0.2-1.7,0.3-3.6,0.3-5.5c0,0,0,0,0,0c1.4,2.3,5.4,3,7,0.5
		c2.7-4.1,2.8-8.8,0.6-12.2c-0.2-1.8-1.6-2.8-3.2-3.1c0,0,0,0-0.1,0c0-0.1,0-0.2,0-0.3c0-0.5,0.1-0.9,0.2-1.2
		c0.9-0.3,1.8-0.8,2.3-1.6c0.8-0.1,1.8-0.2,2.9-0.3c0.1,0,0.3-0.1,0.4-0.1c0.5,0.1,1.1,0.2,1.6,0.4
		C641.8,228.9,643.1,220.7,638.1,220.2z"/>
	<path fill="#EC6608" d="M580,190.5c-0.2,0.2-0.5,0.5-0.7,0.7c-3.3-0.9-6.8,1.5-9.4,3.7c-4.1,3.6-6.9,8.4-8.7,13.6
		c-2,5.8-3.6,13.1-3.2,20c-0.8,2.1-1.3,4.2-1.6,6.5c-0.9,6.8,4.9,11.2,11,12.1c3.5,0.5,5.9-3.2,5.2-6c1-1.5,1.5-3.5,0.9-5.7
		c-1-3.7-2.3-6.8-2.5-10.7c-0.1-1.1-0.1-2.2-0.1-3.3c0.8-1.1,1.1-2.5,1.6-3.7c0.5-1.4,1.1-2.8,1.6-4.2c0.1-0.2,0.1-0.4,0.2-0.6
		c6-4.9,11.2-11.7,13.2-19C588.7,189.4,582.6,187.7,580,190.5z"/>
	<path fill="#0BBBEF" d="M563,192.4c-13.3,8.9-18.6,24.8-13.9,40c0,0.1,0.1,0.2,0.1,0.2c-0.1,0.2-0.2,0.4-0.2,0.7
		c-0.2,1.3,0.7,2.6,2.1,2.9l0.5,0.1c1.3,0.2,2.7-0.7,2.9-2.1c0.1-0.7-0.1-1.5-0.6-2c0-0.1,0-0.2,0.1-0.3c0.8-6,1.7-11.9,3-17.9
		c1.2-5.4,2.1-11.8,6.6-15.6c0.2-0.1,0.3-0.3,0.4-0.4c0.7-0.5,1.4-1.1,2.1-1.6C568.6,194.6,565.7,190.6,563,192.4z"/>
	<path fill="#0BBBEF" d="M597.1,200.9c-0.2,0-0.4,0-0.5,0c-0.1-0.1-0.2-0.3-0.4-0.4c-0.8-1.2-1.9-2.4-3.1-3.2c0,0,0,0,0-0.1l0.1-0.5
		c0.2-1.3-0.7-2.7-2.1-2.9c-1.3-0.2-2.6,0.7-2.9,2.1l-0.1,0.5c0,0.1,0,0.3,0,0.4c-0.4,0.2-0.9,0.4-1.3,0.7c-2.9,1.8-5.4,6.3-6.4,8.1
		c-0.3,0.6-0.3,1.2-0.2,1.7c-1,1.1-1.9,2.3-2.7,3.5c-1.8,2.3-3.1,4.9-3.7,7.9c0,0.1,0,0.3-0.1,0.4c-0.5,1.8-0.9,3.6-1.2,5.5
		c-1.1,6.7-4.4,17.8,2.4,22.8c2.9,2.1,6,1.9,8.3,0.4c1.5,0,2.9-0.4,3.9-1.6c0.9-1.2,0.9-2.9,1.1-4.3c0.4-3.3,0.8-6.6,1.2-9.9
		c0.7-5.6,0.6-12.4,3-17.5c1.4-3.1,3.5-5.5,4.3-8.5C599.6,205.7,600.1,201.4,597.1,200.9z"/>
	<path fill="#0BBBEF" d="M565.7,395.3c-2,4.2-8.7,0.6-12.1,0.6c-2.4,0-4.6,0.8-6.4,2.2c-4.7,3.7-5.3,9.7-7,15
		c-1.4,4.3-4.5,8.6-9.2,5.6c-1.5-1-2.8-1.9-4.7-1.3c-2.5,0.8-9.4,13.6-7.2,14.8c-2.8-1.6-5.3,2.7-2.5,4.3c6.5,3.7,8-7.9,9.8-11.4
		c0.2-0.4,1.3-2.8,1.6-2.9c0,0,0.7,1.1,0.9,1.2c1.3,0.6,2.2,1.3,3.8,1.4c2.8,0.3,5.6-0.8,7.7-2.5c6.1-5.1,3.7-15.2,9.7-20
		c3.9-3.1,8.9,0.4,13.4-0.1c2.9-0.3,5.3-1.7,6.6-4.4C571.4,394.9,567.1,392.4,565.7,395.3z"/>
	<path fill="#0BBBEF" d="M584.5,412.2c-0.8-3.1-5.6-1.8-4.8,1.3c1.6,5.9-5,10.5-9.9,6.3c-1.2-1-3.1-1-3.9,0.5
		c-1.3,2.4-2.6,4.7-3.9,7.1c-1.6,2.8,2.8,5.3,4.3,2.5c0.9-1.6,1.8-3.2,2.6-4.8C577.1,429.1,587.1,422.1,584.5,412.2z"/>
	<path fill="#0BBBEF" d="M537.2,449.9c-3.5,0.5-6.6,2.1-9.2,4.4c-0.8,0-1.5,0.4-2,1.3c-0.4,0.8-0.9,1.7-1.3,2.5
		c-1.5,2.9,2.6,5.2,4.3,2.5c2.2-3.4,5.5-5.3,9.4-5.8C541.7,454.2,540.4,449.4,537.2,449.9z"/>
	<path fill="#C30064" d="M661.9,532.2c0.2-0.6,0.3-1.2,0.4-1.9c0.1-1.3-0.2-2.3-0.8-3c-0.4-2.7-0.8-5.3-1.3-7.9
		c0.1-2.2,0.1-4.5,0.1-6.7c0-5.8-7-8.4-11.1-4.6c-7.3,6.8-15.7,12.5-24.6,17.1c-7.4,3.8-16,6.3-22.7,11.4c-0.2-0.1-0.3-0.2-0.5-0.3
		c-1.1-0.4-2-0.1-3.1,0.2c-0.9,0.3-1.7,1.2-1.7,2.2c0,0.8,0.5,1.5,1.1,1.9c-0.3,1-0.2,2.2,0.5,3.1c4,5.8,11.5,9,17.5,12.4
		c5.3,3,10.2-2.8,8.9-7.2c0.6-0.4,1.2-0.9,1.7-1.3c1.8,2.1,5.2,3.1,7.2,0.6c1.3-1.6,2.7-3.1,4-4.7c1.8,0.6,4,0.4,5.5-0.8
		c0.4-0.3,0.7-0.6,1-0.8c1.4,1.6,3.7,2.4,5.6,0.8c1-0.7,1.8-1.5,2.6-2.3c0,0,0,0,0,0c0.2,0,0.4,0.1,0.6,0.1c3.3,0.7,7.6-1.5,7.4-5.4
		C661.2,534.4,661.7,533.4,661.9,532.2z"/>
</g>
<g id="Layer_1">
	<path fill="none" stroke="#000000" stroke-width="8" stroke-miterlimit="10" d="M346.9,279.6c-7.2-29.9-29.3-49.6-56-58.7l0,0l0,0
		c-34.1-11.6-75.5-5.8-102.6,18.1c-23.5,20.7-35.5,54.6-27.1,84.8c7.1,25.7,27.9,46.4,52.4,56.9c31.7,13.6,70.6,10.4,98.5-9.8
		C339.9,350.5,355,313.1,346.9,279.6z"/>
	<path fill="none" stroke="#000000" stroke-width="6" stroke-miterlimit="10" d="M166.2,326.8c48.9-40.1,111.1-63.7,174.2-66.2"/>
	<path fill="none" stroke="#000000" stroke-width="7" stroke-miterlimit="10" d="M160.3,304.5c46.5-37.9,106.6-58.7,166.6-57.9"/>
	<path fill="none" stroke="#000000" stroke-width="8" stroke-miterlimit="10" d="M175.5,348.6c52.8-8.4,101.8-39.2,132.1-83.2"/>
	<path fill="none" stroke="#000000" stroke-width="8" stroke-miterlimit="10" d="M274.6,306.4c24.3,5.5,50.5,2.1,72.4-9.6"/>
	<path fill="none" stroke="#000000" stroke-width="8" stroke-miterlimit="10" d="M222.7,218.7c-15.2-4-31.8-7-46-0.4
		c-19.9,9.2-27.5,33.5-29.6,55.4c-1.4,14.7-1.4,29.6,0.1,44.3c1.3,13.1,3.8,26.5,0.6,39.2c-3.2,12.7-14.4,24.7-27.5,23.7
		c23,0.2,43.4-2.6,63.9-13.1"/>
	<text transform="matrix(1.104000e-02 -0.9999 0.9999 1.104000e-02 774.6127 537.1029)" font-family="'INGMe'" font-size="12px">© Beryl Ho (ING)</text>
	<path fill="none" stroke="#000000" stroke-width="5" stroke-miterlimit="10" d="M261.8,390.8c5.9,7.2,16.9,8.9,25.6,5.6
		c8.7-3.3,15.3-10.7,19.7-18.9"/>
	<path fill="none" stroke="#000000" stroke-width="5" stroke-miterlimit="10" d="M219,355.6c0.2,1.2,0.4,2.4,1,3.5
		c0.7,1.5,2,2.6,3.3,3.6c5.7,4.4,13.4,6.5,20.3,4.8c7-1.7,13-7.7,14-14.8C261.2,326.8,214.8,325.4,219,355.6z"/>
	<path fill="none" stroke="#000000" stroke-width="5" stroke-miterlimit="10" d="M290.3,333.1c0.2,1.3,0.4,2.5,1,3.7
		c0.8,1.5,2,2.7,3.4,3.7c5.9,4.5,13.8,6.7,21,4.9c7.2-1.8,13.4-7.9,14.5-15.3C333.9,303.3,286,301.9,290.3,333.1z"/>
	<path fill="none" stroke="#000000" stroke-width="5" stroke-miterlimit="10" d="M223,341.1c-1.2,2.1-0.6,4.8,0.9,6.6
		c1.5,1.9,3.6,3,5.8,3.9c1.8,0.7,3.7,1.3,5.7,1.4c4.3,0.2,8.7-2.4,10.6-6.3s1.3-8.9-1.5-12.2"/>
	<path fill="none" stroke="#000000" stroke-width="3" stroke-miterlimit="10" d="M295.6,316.7c-2,5.1,1.1,11.5,6.3,13.2
		c4.2,1.3,8.8-0.2,12.3-2.7c3.5-2.5,6.3-6.5,6-10.7c-0.1-1.8-0.9-3.6-2.5-4.5"/>
	<path fill="none" stroke="#000000" stroke-width="3" stroke-miterlimit="10" d="M226.3,363.4c1.7-2.3,4.8-3.6,7.6-3
		c1.4,0.3,2.7,0.9,4.1,0.6c2.5-0.5,3.6-3.5,5.9-4.5c1.8-0.8,3.9-0.2,5.9-0.2c2,0,4.4-1.3,4.1-3.3"/>
	<path fill="none" stroke="#000000" stroke-width="3" stroke-miterlimit="10" d="M300.3,341.5c-0.2-1.4,1.3-2.5,2.7-2.6
		c1.4-0.1,2.7,0.5,4.1,0.7c1.4,0.2,3,0,3.8-1.1c0.3-0.5,0.4-1.1,0.7-1.6c0.7-1.6,2.5-2.4,4.3-2.5c1.7-0.1,3.4,0.4,5.1,0.7
		c0.5,0.1,1.1,0.2,1.6,0c0.7-0.3,1-1,1.3-1.6c1-1.8,3-3,5-3"/>
	<path fill="none" stroke="#000000" stroke-width="5" stroke-miterlimit="10" d="M249.7,394.8"/>
	<path fill="none" stroke="#000000" stroke-width="5" stroke-miterlimit="10" d="M299.1,379.3c7.7,5.9,12.4,14.4,16.2,23
		c15,33.5,20,70.9,14.3,106.9"/>
	<path fill="none" stroke="#000000" stroke-width="5" stroke-miterlimit="10" d="M261.6,424.3c0.2,27.1-4.6,54.3-13.9,79.7
		c20.5,4.6,42.8,6.5,63.8,7.2c6.3,0.2,13.1,0.1,18.2-3.7"/>
	<path fill="none" stroke="#000000" stroke-width="5" stroke-miterlimit="10" d="M247.9,394.1c-6.4,21.6-2.5,46.4-14.7,65.3
		c5.4,5.7,11.6,10.5,18.5,14.1c1.4,0.8,3.8,1,4-0.6"/>
	<path fill="none" stroke="#000000" stroke-width="5" stroke-miterlimit="10" d="M239.6,467.4c-4.1,3.9-5.7,10.2-4,15.6
		s6.7,9.6,12.3,10.5"/>
	<path fill="none" stroke="#000000" stroke-width="5" stroke-miterlimit="10" d="M306.9,380.5c20.5,18.2,30.4,47.5,25.4,74.4"/>
	<path fill="none" stroke="#000000" stroke-width="5" stroke-miterlimit="10" d="M296.1,454.6c-5.8-5.5-11.1-11.5-15.9-18
		c-1.2-1.6-2.4-3.5-2.1-5.5c0.5-3.1,4.5-4.4,7.4-3.3s4.8,3.8,6.6,6.3c0.8-3.3,4.3-6.4,6.8-8.8c1.5-1.4,3.5-2.7,5.5-2.3
		c2.3,0.4,3.8,3,3.9,5.4c0.1,2.4-0.9,4.7-1.9,6.8C303.3,441.9,299.1,447.9,296.1,454.6z"/>
	<path fill="none" stroke="#000000" stroke-width="5" stroke-miterlimit="10" d="M271.2,509.6c-2.1,7.8-4.1,15.5-6.2,23.3"/>
	<path fill="none" stroke="#000000" stroke-width="5" stroke-miterlimit="10" d="M285.6,512.2c-2,7.1-4,14.1-5.9,21.2
		c0.3-0.6,0.5-1.2,0.8-1.8"/>
	<path fill="none" stroke="#000000" stroke-width="5" stroke-miterlimit="10" d="M304.2,510.8c-1.9,8-3.9,16.1-5.8,24.1"/>
	<path fill="none" stroke="#000000" stroke-width="5" stroke-miterlimit="10" d="M554.8,197.1c-2.5,2.5-4.4,5.7-5.9,8.9
		c-4,8.7-5,19.5,0.2,27.6c3.1,4.9,8.2,8.3,13.4,11c8.1,4.2,17.7,6.9,26.3,3.9c3.4-1.2,6.5-3.3,9.2-5.8
		C628.2,214.5,582,169.9,554.8,197.1z"/>
	<path fill="none" stroke="#000000" stroke-width="5" stroke-miterlimit="10" d="M554.1,197.2c-3.7-4.8-9-8-14.1-11.1
		c-2.1-1.3-4.2-2.6-6.7-2.9c-2.4-0.3-5.2,0.6-6.2,2.8c-1.6,3.2,1.1,6.9,3.6,9.5"/>
	<path fill="none" stroke="#000000" stroke-width="5" stroke-miterlimit="10" d="M529.7,196.9c-2.6-1.8-5.4-3.6-8.6-3.7
		c-3.2-0.1-6.6,2.5-6.2,5.6c0.2,1.1,0.7,2.1,1.4,3c2.1,2.9,5.1,5.1,8.5,6.3"/>
	<path fill="none" stroke="#000000" stroke-width="5" stroke-miterlimit="10" d="M526.3,208.7c-0.1,0.5,1,0.2,0.7-0.3
		s-1-0.4-1.5-0.3c-1.9,0.4-3.7,0.9-5.5,1.5c-3.5,1.1-7.3,3.1-8,6.7c-0.6,3.5,2.3,6.7,5.7,7.8c3.3,1.1,7,0.5,10.4-0.1"/>
	<path fill="none" stroke="#000000" stroke-width="5" stroke-miterlimit="10" d="M527.8,225.3c-2.2,1-4.4,2.2-5.9,4
		c-1.5,1.9-2.1,4.7-0.8,6.7c1.3,2,4,2.6,6.4,2.7c6.8,0.4,13.6-1.2,19.5-4.7"/>
	<path fill="none" stroke="#000000" stroke-width="5" stroke-miterlimit="10" d="M607.6,213.1c6.4-4.7,14.1-7.5,21.8-7.8
		c1.1,0,2.3,0.1,2.8,1c0.2,0.4,0.2,0.9,0.2,1.4c-0.3,4-3.2,7.7-6.9,9"/>
	<path fill="none" stroke="#000000" stroke-width="5" stroke-miterlimit="10" d="M623,217.7c4.6-0.6,9.4,0.1,13.6,1.9
		c1.7,0.7,3.4,1.7,4.3,3.4c0.9,1.6,0.7,4-0.9,5c-0.7,0.4-1.6,0.5-2.5,0.6c-2.9,0.3-5.8,0.6-8.8,0.8"/>
	<path fill="none" stroke="#000000" stroke-width="5" stroke-miterlimit="10" d="M600.8,241.5c3.6,4.2,7.3,8.4,10.9,12.6
		c1.7,2,3.5,4,5.9,5.1c2.4,1.1,5.5,1,7.4-1c2.1-2.1,2.2-5.7,0.9-8.3c-1.3-2.6-3.6-4.4-5.8-6.2"/>
	<path fill="none" stroke="#000000" stroke-width="5" stroke-miterlimit="10" d="M617.2,242.3c2.9,1.3,5.8,2.6,8.7,4
		c1.2,0.6,2.6,1.1,3.9,0.9c1.2-0.2,2.2-1.1,3-2.1c3.7-5,1.4-13.3-4.6-16"/>
	<path fill="none" stroke="#000000" stroke-width="5" stroke-miterlimit="10" d="M575.7,189.5c-5.6,1.2-9.2,6.6-11.9,11.7
		c-6.3,12-10.6,26.2-6.2,39"/>
	<path fill="none" stroke="#000000" stroke-width="5" stroke-miterlimit="10" d="M586.2,193.5c0.7,0,1.1,0.8,1,1.5
		c-0.2,0.7-0.7,1.2-1.2,1.7c-3.1,3.1-5.2,7.1-7.3,11c-3.8,7.1-7.7,14.5-8.3,22.5c-0.4,5.9,1,12,4.1,17.1c0.4,0.6,1.3,1.2,1.7,0.6"/>
	<path fill="none" stroke="#000000" stroke-width="5" stroke-miterlimit="10" d="M601.8,203c-9.8,11.8-13.8,28.2-10.4,43.2"/>
	<path fill="none" stroke="#000000" stroke-width="9" stroke-miterlimit="10" d="M470.2,67.5C436.2,48,395.6,37.8,356,39
		c-27.6,0.8-55.6,7.5-75.4,23.3c-19.9,15.8-30,41.9-20.4,65.1c6.1,14.7,19.4,26.9,34.6,35.5c15.2,8.6,32.4,13.9,49.5,18.5
		c24.8,6.7,52.5,11.7,74.6,1.6"/>
	<path fill="none" stroke="#000000" stroke-width="8" stroke-miterlimit="10" d="M420.2,181.1c-7.9,19.6-26.6,35.3-49.5,41.3"/>
	<path fill="none" stroke="#000000" stroke-width="8" stroke-miterlimit="10" d="M367.6,221.7c10.7,2.9,22,1.5,32.5-0.7
		c39.7-8.2,76.1-28.5,92.4-59.2s8.2-72.2-24.5-95.9"/>
	<path fill="none" stroke="#EC6608" stroke-width="14" stroke-miterlimit="10" d="M469.6,45.8c-1-8.6,6.5-16.4,15.3-18.5
		s18.4,0.4,26.7,4.3c6.6,3.1,12.9,7.3,16.7,13.2c3.8,5.9,4.6,13.9,0.5,19.4c-7.4,9.8-24.7,6.7-34.7,14.3c-5.9,4.5-8.2,12-10.1,19"/>
	<path fill="none" stroke="#EC6608" stroke-width="14" stroke-miterlimit="10" d="M483.8,110.5c-3.1-3.8-10.2-0.3-10.5,5.2
		c-0.3,5.5,6.5,8.5,10,4.4c1.1-1.3,1.8-3.2,1.4-4.8c-0.2-0.7-0.6-1.4-1-2c-1.9-2.6-4.6-4.3-7.5-4.8"/>
	<path fill="none" stroke="#EC6608" stroke-width="7" stroke-miterlimit="10" d="M355.7,90.5c-3,11.3-5.9,22.6-8.9,34"/>
	<path fill="none" stroke="#EC6608" stroke-width="7" stroke-miterlimit="10" d="M356.6,92.6c2.5,6.3,5,12.5,7.5,18.8"/>
	<path fill="none" stroke="#EC6608" stroke-width="7" stroke-miterlimit="10" d="M377,92.5c-0.4,11.7-0.8,23.4-1.3,35"/>
	<path fill="none" stroke="#EC6608" stroke-width="7" stroke-miterlimit="10" d="M375.7,94.3c-3.8,4.7-7.5,9.4-11.3,14"/>
	<path fill="none" stroke="#EC6608" stroke-width="7" stroke-miterlimit="10" d="M395.3,102.8c-5,10.6-10,21.2-14.9,31.8"/>
	<path fill="none" stroke="#EC6608" stroke-width="7" stroke-miterlimit="10" d="M395.7,105.1c1.3,6.6,2.6,13.2,3.9,19.9"/>
	<path fill="none" stroke="#EC6608" stroke-width="7" stroke-miterlimit="10" d="M415.8,108.7c-2.6,11.4-5.1,22.8-7.7,34.2"/>
	<path fill="none" stroke="#EC6608" stroke-width="7" stroke-miterlimit="10" d="M414.2,110.3c-4.6,3.9-9.1,7.8-13.7,11.7"/>
	<path fill="none" stroke="#EC6608" stroke-width="7" stroke-miterlimit="10" d="M430.5,113.3c-2.4,4.9-4.8,9.9-5.8,14.9
		c-1,5-0.6,10.1,2.1,12.5c2,1.8,5,1.9,8,0.4c3-1.5,5.9-4.8,7.5-8.4c2.5-5.5,2-11.2,4.3-16.8"/>
	<path fill="none" stroke="#EC6608" stroke-width="7" stroke-miterlimit="10" d="M443.6,128.4c-1,4.5-2.1,9-3.3,13.6
		c-1.1,4-2.6,8.5-5.5,11.4c-1.2,1.2-2.6,2-3.9,2.7c-2.8,1.3-5.7,1.9-8.2,1.7c-1.9-0.2-3.7-0.9-4.7-2.5c-1-1.7-1-4.6,0.4-7"/>
	<path fill="none" stroke="#EC6608" stroke-width="7" stroke-miterlimit="10" d="M324.2,105.7c-1.7,4.1-3.4,8.4-3.5,12.8
		c-0.1,4.5,1.8,9.1,5.3,10.4c2.9,1.1,6.2-0.4,8.5-2.9c2.3-2.5,3.8-5.9,5-9.4C345.5,98.5,333.6,83.8,324.2,105.7z"/>
	<path fill="none" stroke="#EC6608" stroke-width="7" stroke-miterlimit="10" d="M290.5,92.1c-3,11.3-5.9,22.6-8.9,34"/>
	<path fill="none" stroke="#EC6608" stroke-width="7" stroke-miterlimit="10" d="M291.4,94.3c2.5,6.3,5,12.5,7.5,18.8"/>
	<path fill="none" stroke="#EC6608" stroke-width="7" stroke-miterlimit="10" d="M311.8,94.2c-0.4,11.7-0.8,23.4-1.3,35"/>
	<path fill="none" stroke="#EC6608" stroke-width="7" stroke-miterlimit="10" d="M310.5,96c-3.8,4.7-7.5,9.4-11.3,14"/>
	<path fill="none" stroke="#000000" stroke-width="9" stroke-miterlimit="10" d="M674.2,209.1c-8.7-28.9-28.2-52.1-54.6-65.2
		c-18.5-9.2-41.2-13.5-64.9-7.1c-23.7,6.4-48.2,25-57.7,48.2c-6.1,14.8-5.8,29.9-1.8,42.7c4,12.8,11.5,23.5,19.5,33.6
		c11.5,14.6,26.1,28.8,47.3,28.1"/>
	<path fill="none" stroke="#000000" stroke-width="8" stroke-miterlimit="10" d="M563.8,288c-18.5,13.9-41.4,20.5-60.3,17.5"/>
	<path fill="none" stroke="#000000" stroke-width="8" stroke-miterlimit="10" d="M502.2,303.8c5,6.3,13.3,9.1,21.6,11
		c31.4,7.2,68.8,3,100.4-17.4s54.7-58.7,49.7-90.6"/>
	<path fill="none" stroke="#EC6608" stroke-width="14" stroke-miterlimit="10" d="M627.3,120.6c-0.7-8.2,4.4-15.5,10.4-17.5
		c6-2,12.5,0.4,18.1,4.1c4.5,2.9,8.8,6.9,11.4,12.5c2.6,5.6,3.1,13.2,0.3,18.4c-5,9.3-16.8,6.4-23.5,13.6c-4,4.3-5.5,11.4-6.8,18"/>
	<path fill="none" stroke="#EC6608" stroke-width="14" stroke-miterlimit="10" d="M636.9,181.9c-2.1-3.6-6.9-0.2-7.1,5
		c-0.2,5.2,4.4,8,6.8,4.1c0.7-1.2,1.2-3,1-4.5c-0.1-0.7-0.4-1.3-0.7-1.9c-1.3-2.5-3.1-4.1-5.1-4.6"/>
	<path fill="none" stroke="#000000" stroke-width="8" stroke-miterlimit="10" d="M557.4,485.5c-10.2-13-21-27.7-19.9-44.2
		c0.2-2.8,0.9-5.9,3.1-7.6c2-1.5,4.8-1.6,7.3-1c8.1,2,13.4,9.7,17.9,16.7c4.9,7.8,9.9,15.7,14.8,23.5"/>
	<path fill="none" stroke="#000000" stroke-width="10" stroke-miterlimit="10" d="M549.1,474.4c-6.1,4.3-13.1,8.7-18,14.8
		c-16.6-18.9-34-37-52.1-54.1c30.7-25.2,62.2-51.3,94.4-74.1"/>
	<path fill="none" stroke="#000000" stroke-width="10" stroke-miterlimit="10" d="M573.1,450.6c13.9-11.8,28.5-22.7,43.7-32.7"/>
	<path fill="none" stroke="#000000" stroke-width="10" stroke-miterlimit="10" d="M571.9,361.4c14.4,19.6,29.5,38.7,45.4,57.1"/>
	<path fill="none" stroke="#000000" stroke-width="8" stroke-miterlimit="10" d="M538.7,488c12.9,18.4,36.7,28.5,58.9,25"/>
	<path fill="none" stroke="#000000" stroke-width="5" stroke-miterlimit="10" d="M589.1,461.2c10.3-3.4,20.9-6.6,31.4-9.3"/>
	<path fill="none" stroke="#000000" stroke-width="8" stroke-miterlimit="10" d="M630.1,497.8c4.3-7.4,5.4-16.4,4.7-25
		s-3.3-16.9-5.8-25.1c-2.7-8.9-5.8-18.4-13.2-24.1"/>
	<path fill="none" stroke="#000000" stroke-width="8" stroke-miterlimit="10" d="M594.5,513.2c7.4,0.2,14.3,5.8,16,12.9"/>
	<path fill="none" stroke="#000000" stroke-width="8" stroke-miterlimit="10" d="M631,493.8c-1,6.4,0.6,13.3,4.3,18.6"/>
	<path fill="none" stroke="#000000" stroke-width="8" stroke-miterlimit="10" d="M588.3,531.5c9.7,4,20.8,0.1,30.2-4.7
		c15.2-7.6,29.3-17.3,41.8-28.7"/>
	<path fill="none" stroke="#000000" stroke-width="8" stroke-miterlimit="10" d="M588.4,534.7c7.7,7,15.7,13.8,23.8,20.3"/>
	<path fill="none" stroke="#000000" stroke-width="8" stroke-miterlimit="10" d="M659.3,500.8c1.3,13,3.8,25.8,7.2,38.4"/>
	<path fill="none" stroke="#000000" stroke-width="5" stroke-miterlimit="10" d="M604.7,431.6c0.7,3.3,1.3,6.7,2,10"/>
	<path fill="none" stroke="#000000" stroke-width="5" stroke-miterlimit="10" d="M593,442.6c-0.5,1.7-0.2,3.6,0.9,5"/>
</g>
<g id="Layer_3">
	<path fill="#EC6608" d="M353.2,223.7c-0.1-1.1-1-2.1-2.4-1.8c-5.7,1.2-11.3,3-16.7,5.3c-0.2,0-0.4,0-0.6,0
		c-0.6,0.1-1.1,0.4-1.3,0.9c-0.1,0.1-0.2,0.2-0.3,0.2c-1-0.2-2.1,0.2-2.7,1.1c-3-1.8-7.6-1.4-10.6,0.2c-0.6,0.3-1.2,0.7-1.6,1.2
		c-0.3-3.5-1.9-6.9-5-9.4c-1.1-0.9-2.5-0.9-3.6-0.5c-0.2-0.3-0.3-0.6-0.5-0.9c-1.3-1.8-3.3-2.9-5.3-2.8c0,0,0-0.1,0-0.1
		c-0.4-1.1-1.3-1.7-2.2-2c-0.7-0.7-1.5-1.2-2.3-1.5c-0.6-0.5-1.6-0.7-2.3-0.3c-1.1,0.5-1.4,1.7-1,2.8c0.5,1.4,1,2.9,1.4,4.3
		c0.2,0.5,0.5,0.8,0.9,1c-1,2.4-1,5.1-1.4,7.7c-0.5,3.5-1.3,7-0.7,10.5c-1.5,1.3-2.9,2.7-4.3,4.1c-1.8,1.9-0.8,4.7,1.3,5.4
		c0.6,1.1,1.9,1.8,3.6,1.4c7.7-2,14.5-5.4,20.8-10.3c0,0,0,0,0,0c0,0,0,0,0,0c0,0,0.1,0,0.1-0.1c0.1,0,0.2,0,0.3-0.1
		c0.5,3.2,3.5,5.8,7,5.9c1.9,0,3.8-0.6,5.3-1.8c0,0,0.1,0,0.1,0c1.1,0.4,2.3,0.1,3.2-0.6c0.6-0.4,1.2-1,1.7-1.6
		c0.2,0.8,0.7,1.5,1.5,1.8c0.5,0.2,1.1,0.4,1.6,0.5c1.3,1.8,3,2.8,5.1,3.6c0.2,0.1,0.4,0.1,0.6,0.2c0.1,0.2,0.1,0.4,0.2,0.6
		c0.8,2.5,3.9,3.1,5.5,1.5c0.6,0.4,1.1,1,1.4,1.7c1,2.3,4.2,1,4-1.3c-0.4-3.8-1-7.6-2-11.3c1.1-4,2.2-8.1,3.2-12.1
		C355.6,225.6,354.6,224.2,353.2,223.7z"/>
	<path fill="none" stroke="#000000" stroke-width="7" stroke-miterlimit="10" d="M328.1,229.3c-4.1-4-12.1-1.9-14.3,3.4
		c-2.2,5.3,1.1,12,6.5,14.1c5.7,2.2,13.1-0.9,14.9-6.8c1.8-5.9-3.3-12.9-9.5-12.5"/>
	<path fill="none" stroke="#000000" stroke-width="7" stroke-miterlimit="10" d="M329.1,226.6c8.8-2.5,17.6-5,26.4-7.5
		c-3.8,11.5-4.6,24-2.2,36.3c-6.2-3.4-12.4-6.8-18.6-10.3"/>
	<path fill="none" stroke="#000000" stroke-width="7" stroke-miterlimit="10" d="M315.6,228.3c-5.9-6.7-12.1-13.1-18.4-19.4
		c-3.8,15.3-5.8,31.1-5.7,46.9c7.6-3.5,15.1-7.4,22.3-11.6"/>
	<path fill="none" stroke="#000000" stroke-width="3" stroke-miterlimit="10" d="M288,361c-1,3.5-2.7,7.4-6.2,8.4
		c-2,0.6-4.1,0-6-0.5c-0.6-0.2-1.2-0.3-1.8-0.5C277.7,366.5,284.3,363,288,361z"/>
</g>
<g id="Layer_4">
	<path fill="none" stroke="#3C3C3B" stroke-width="10" stroke-miterlimit="10" d="M98.5,90.7c47.8-0.4,95.6-0.7,143.4-1.1"/>
	<path fill="none" stroke="#3C3C3B" stroke-width="10" stroke-miterlimit="10" d="M99.5,87.6c12.1,149.6-1,300.3,7.2,450.2
		c-0.2-1.8-0.5-3.5-0.7-5.3"/>
	<path fill="none" stroke="#3C3C3B" stroke-width="10" stroke-miterlimit="10" d="M101.9,541.5c153.2-0.9,306.5-1.1,459.8-0.6"/>
	<path fill="none" stroke="#3C3C3B" stroke-width="10" stroke-miterlimit="10" d="M746.6,80c0.5,152.5,0.9,305,1.4,457.6
		c0.2-2.5,0.4-4.9,0.6-7.4"/>
	<path fill="none" stroke="#3C3C3B" stroke-width="10" stroke-miterlimit="10" d="M545.4,80c68.5,0,137.1,0,205.6,0"/>
	<path fill="none" stroke="#000000" stroke-width="8" stroke-miterlimit="10" d="M581.3,471.4c9.6,4.6,16.5,14.4,17.6,25"/>
	<path fill="none" stroke="#3C3C3B" stroke-width="10" stroke-miterlimit="10" d="M686,537.2c21.3-0.5,42.7-1,64-1.5"/>
</g>
</svg>
