<?xml version="1.0" encoding="utf-8"?>
<!-- Generator: Adobe Illustrator 21.1.0, SVG Export Plug-In . SVG Version: 6.00 Build 0)  -->
<svg version="1.1" xmlns="http://www.w3.org/2000/svg" xmlns:xlink="http://www.w3.org/1999/xlink" x="0px" y="0px"
	 viewBox="0 0 841.9 595.3" enable-background="new 0 0 841.9 595.3" xml:space="preserve">
<g id="Layer_2">
	<path fill="#3C3C3B" d="M543.1,159.1c-0.8-1.8-2.8-1.9-4-1c0,0,0-0.1-0.1-0.1c-0.5-1.4-2.7-2.7-4.2-2.2c-0.1,0-0.2,0.1-0.3,0.1
		c-3.1-4.8-9.4-4.3-13.3-1c-2.3,0.4-4.6,0.8-6.9,1.4c-0.5-0.1-1-0.2-1.6-0.1c-2.7,0.2-5.5,0.7-8.2,1c-2.3,0.3-4.6,0.6-6.4,2.1
		c-0.3,0.2-0.5,0.7-0.6,1.1c-0.7-0.6-1.5-1.1-2.7-1.3c-6.5-1-14.1,1.8-20.6,4c-0.7-0.2-1.5-0.3-2.4-0.1c-6.6,1.8-13.2,3.4-19.6,5.5
		c-2,0.6-3.8,1.4-5.5,2.2c-0.3,0-0.5,0-0.8,0.1c-11,1.8-27,4.6-36.4,12.7c-0.4,0.2-0.9,0.4-1.3,0.6c-0.4,0-0.8,0-1.2,0.1
		c-6.2,1.4-11.8,4.8-17.1,8.1c-1.9,1.2-4.2,2.4-6.2,3.8c-2.9,1.3-5.8,2.6-8.6,3.9c-9.1,4.3-17.7,9.6-25.9,15.4
		c-2.5,1.8-5,3.6-7.5,5.5c-0.8-0.1-1.6,0.1-2.4,0.7c-1.2,0.9-2.3,1.8-3.3,2.8c-0.9-0.2-1.8-0.2-2.7,0.2c0-0.1-0.1-0.1-0.1-0.2
		c-3.2,1.2-5.4,3.8-7.9,6.1c-0.6,0.6-1.3,1.2-2,1.8c-1.1,0.5-1.8,1.3-2.4,2.3c-1,1-2,2-2.9,3.1c0,0.1-0.1,0.1-0.1,0.2
		c-0.8,0.4-1.7,0.8-2.5,1.2c-2.4,1.1-2.9,3.5-2.2,5.5c-0.7,1-1.4,2.1-1.9,3.2c-1.1,2.1,1.4,4.3,3.4,3.8c1,4.4,3.5,8.1,8.1,10.5
		c0.2,0.1,0.5,0.2,0.7,0.3c0.2,2.4,3.5,4,5.5,2.6c0.5,0.1,1.1,0.1,1.7,0l1.4-0.5c0.5,0.5,1.3,0.9,2.3,0.7
		c37.2-5,72.5-20.1,101.9-43.2c6.6-3.1,12.4-7.3,17.5-12.5c1.4,3.3,4.4,6,8.2,6.4c15.8,1.7,32.9,5.4,48.8,2.5
		c10.1-1.8,21.6-6.3,28.9-14.2c3.4-1.3,7.2-2.5,9.8-4.6c2.9-2.3,2.4-5.8,2.1-9.1C550.6,179.7,547.6,169.1,543.1,159.1z"/>
	<path fill="#3C3C3B" d="M518,114.6c-32.9-11.9-67.6-21.1-102.9-17.6c-13,1.3-24.8,4.5-35.7,9.2c1.7-2.9,1.4-7.2-2.6-8.3
		c-4.8-1.3-10.2-1.6-15.2-0.4c-0.4-0.3-0.9-0.5-1.6-0.5c-5.8,0.4-11.5,0.6-17.3,0.7c-1.6,0-2.4,1.3-2.4,2.5c-1,0.2-1.9,0.5-2.9,0.8
		c-6.1,1.9-14.2,5-17.8,10.8c-2.2,1.7-4.1,4-5.9,6.3c-0.6,0.7-1.1,1.5-1.7,2.3c-0.8,1.2-1.6,2.3-2.3,3.3
		c-7.6,11.1-12.3,24.2-13.9,37.5c-0.5,1.5-1,3-1.5,4.5c-0.6,1.7-0.1,3.4,0.9,4.6c0,1.5,0,3,0,4.5c0,1,0.4,1.9,1,2.7
		c-3.1,10.2-5.3,20.7-6.8,30.7c-0.4,2.4,1.1,4,2.8,4.5c0.1,3.2,0.4,6.5,0.8,9.7c1.5,12.3,6.3,23.7,5.1,36.2
		c-1.3,13.8-7.1,26.7-12.6,39.2c-0.2,0.5-0.3,0.9-0.4,1.4c-0.6,0.4-0.9,0.8-1.1,1.2c-1.1,1-1.7,2.5-1.4,4c0.5,2.3,2.7,4,5.1,3.6
		c1.4-0.2,2.6-1.2,3.2-2.5c6.3,0.9,12.9,0.2,19-1.2c7.2-1.7,16.7-4.1,22.7-8.8c0.2-0.2,0.4-0.3,0.6-0.5c0.1-0.1,0.2-0.2,0.3-0.2
		c1-0.9,1.6-2,1.9-3.2c0.8-0.8,1.6-1.6,2.4-2.5c2-2.4,0.8-6.1-1.4-7.8c-3.1-2.5-5.8-5.3-8.3-8.2c0.5-3.3-2.1-6.3-4.1-8.8
		c-2.1-2.8-4.4-5.9-6.9-8.2c-0.7-0.6-1.6-0.8-2.5-0.6c-0.4-0.6-0.9-1.2-1.3-1.7c-2-9.4-3.6-18.9-5.1-28.4c-0.2-1.6-1.3-2.3-2.5-2.5
		c-0.1-1.3-0.2-2.6-0.2-3.9c0-1.2-0.6-2.2-1.4-2.9c0.3-4.5,0.8-9.1,1.4-13.7c0.3,1.6,1.9,2.9,3.6,2.7c-0.4,0.6-0.8,1.2-1.2,1.7
		c-1.3,2,1.2,4.3,3.1,2.8c6.5-5.2,13.3-10.4,19.4-16.1c0.8-0.7,1.6-1.5,2.5-2.2c0.3,0,0.7-0.1,1-0.3c7.2-4,14.1-8.5,20.7-13.4
		c8-2.8,16.7-4.6,23.7-8.8c0.9-0.6,1.6-1.2,2.1-1.9c13.7-4.4,26.7-10.4,40.3-15.3c16.4-5.9,33-9.6,50.4-10.7
		c2.9-0.2,4.3-2.3,4.3-4.5c12-1.2,24.1-1.5,36.3-0.3C524.6,136.8,531.1,119.3,518,114.6z M306,200.2c0.4-3,0.9-6,1.4-8.9
		c0,1.4,0.5,2.9,1.2,4.1C307.6,196.9,306.6,198.5,306,200.2z M308.1,187.8c0.3-1.4,0.6-2.9,1-4.3c0.1,0.2,0.3,0.4,0.4,0.6
		C309,185.3,308.5,186.5,308.1,187.8z M315.5,162.3c-0.1-0.3-0.2-0.6-0.4-0.9c0.5-0.2,0.9-0.5,1.2-1.2c1.6-3.6,3.4-7.1,5.4-10.6
		c0.6,0,1.2-0.2,1.7-0.7c1.1-1.2,2.2-2.3,3.3-3.5c0,0.6,0,1.1,0.1,1.7C322.5,151.9,318.8,157,315.5,162.3z M339.1,130.8
		c1.7-2.1,3.3-4.3,4.9-6.4c5.4-3.4,11-6.7,16.6-9.9c1.4-0.8,2.1-2,2.3-3.3c2.9-0.8,6-1.4,9.2-1.8c0.1,0,0.2,0,0.3-0.1
		C360.6,115.1,349.7,122.5,339.1,130.8z"/>
	<path fill="#EC6608" d="M537.2,145c-2.5-1.8-4.1-4.1-5.9-6.6c-0.7-1-3.2-4.3-4.8-3.3c-1.3,0.8-2,1.9-2.2,3.2
		c-3.5-1.1-7.9-0.8-11.2-0.5c0.2,0,0.5-0.1,0.7-0.2c3-0.6,2.9-5.1-0.2-5.4c-1.2-0.1-2.3-0.2-3.5-0.3c-1.5-0.1-2.4,0.8-2.8,1.9
		c-1.4,0.5-2.7,1.1-4,1.7c-1.1,0.6-1.7,1.7-1.5,2.9c0.1,0.4,0.2,0.8,0.3,1.2c-9.1-0.9-18.1-0.5-26.9,1.4c-11.2,0-23.4,3.7-33.9,6.7
		c-1.6,0.4-3.2,0.9-4.8,1.4c-0.4,0-0.8,0.1-1.2,0.1c-0.9,0.1-1.6,0.4-2.2,0.9c-0.9,0.3-1.8,0.6-2.7,0.9c-3,0.7-6,1.6-9,2.5
		c-7.5,1-14.9,2.4-22.3,4.2c-2.5,0.6-3.7,2.9-3.5,4.9c-1.1,0.4-2.1,0.8-3.2,1.3c-3.5,1.5-7,3-10.4,4.6c-1.8,0.5-3.7,1.1-5.5,1.7
		c-6.1,1.7-11.8,4.1-17.3,7.5c-0.8,0.5-1.3,1.2-1.6,2c-8.2,2.8-15.8,7.3-22.7,12.5c-5,3.7-10.1,7.8-13.5,13c-3.1,1.3-6.3,2.6-9.4,4
		c-3.9,1.7-3.1,6.6,0.2,7.9c-3.7,5.1-4.9,10.3-0.4,14.3c0.5,2.5,1.1,4.8,1.6,6.7c0.8,3.4,5.4,4.9,7.6,1.7c2-3,3.8-6.2,5.7-9.3
		c1.5-1.1,3-2.2,4.6-3.3c0.7-0.5,1.4-1,2.1-1.5c0.1-0.1,0.2-0.1,0.3-0.2c1.1-0.7,2.3-1.5,3.4-2.2c1.2-0.7,2.5-1.2,3.8-1.6
		c1.7-0.4,2.7-1.6,3.2-3c7.5-4.8,15-9.7,22.5-14.5c0.6-0.4,1-0.9,1.3-1.6c0.9,0.1,1.9-0.1,2.8-0.6c7.6-4.5,15.4-8.6,23.4-12.3
		c3.7-1.5,7.4-3,11.1-4.5c0.7-0.3,1.2-0.6,1.6-1.1c1.3-0.5,2.6-1,3.9-1.6c5-1.8,10-3.7,15-5.5c16.1-1.9,31.9-7.1,47.3-12.1
		c8.8-2.9,17.6-5.9,26.7-7.9c4-0.9,8-1.6,12.1-1.9c2.7,0.2,5.4,0.2,7.9-0.2c1.9-0.1,3.7-0.3,5.6-1c0.7-0.3,1.2-0.8,1.6-1.4
		c0.1,0,0.2,0,0.4,0c0.4,0.1,0.8,0.1,1.2,0.2c1,0.2,1.9,0.1,2.6-0.3c0.2,0,0.3,0,0.5-0.1C536,156.4,542.6,148.8,537.2,145z"/>
	<path d="M433.2,273.7c0.3-0.7,0.5-1.4,0.6-2.1c0.3-0.4,0.6-0.9,0.6-1.6c0-0.4,0-0.8,0-1.2c0-0.9,0.1-1.7,0.1-2.6
		c0-0.7-0.2-1.3-0.5-1.8c-1-5.4-3.9-11.1-9.2-11.6c-2.1-0.2-3.3,1.6-2.9,3.5c-0.2,0.6-0.3,1.2,0,1.9c0.6,1.7,0.9,3.1,0.8,4.6
		c-0.1,0.8-0.2,1.5-0.5,2.3c-1,0.9-1.8,2.1-2,3.6c-0.2,0.2-0.4,0.4-0.5,0.6c-0.6-0.2-1.3-0.3-2,0.1c-0.3,0.2-0.6,0.3-1,0.5
		c-0.4,0-0.8,0-1.2,0.2c-1.1,0.5-2.7,1.6-3.8,2.9c-0.4,0.3-0.7,0.6-1.1,0.9c-0.8-0.2-1.5-0.2-2.1,0c-0.1,0-0.2,0-0.4,0
		c-3.9,0.1-7.5-0.3-11.2-1.4c-1-0.3-1.9-0.7-2.9-1c-0.7-1.1-1.6-2.1-2.6-3c0-0.6-0.1-1.1-0.1-1.7c-0.1-3.5-5.5-2.7-5.4,0.8
		c0.1,1.9,0.2,3.8,0.6,5.5c-0.2,4.1,0.2,9.3,3.8,10.7c0.4,0.2,0.8,0.3,1.2,0.3c0.6,1.1,1.9,1.7,3.4,1.2c0.1,0,0.2-0.1,0.2-0.1
		c-0.1,1.1,0.3,2.2,1.6,2.9c3.4,1.6,7.1,2.5,10.8,2.7c0.2,0.2,0.5,0.4,0.9,0.5c11.3,3.1,19.6-5.4,25.9-13.6
		C435.7,276.3,434.6,274.2,433.2,273.7z M424.5,277.3c-0.6,0.3-1.2,0.6-1.8,0.9c-0.2-0.3-0.6-0.6-0.9-0.9
		C422.7,277.4,423.6,277.4,424.5,277.3z M400,282.7c1.3-0.3,2.6-0.4,3.7-0.7c0.7,1,1.8,1.5,3.1,1.6c1.1,0.1,2.2-0.2,3.3-0.7
		c1.1,0.4,2.6,0,3.4-0.9c0.5-0.6,1-1.2,1.5-1.8c-0.2,0.2-0.3,0.4-0.5,0.6c-0.8,1.1-0.6,2.3,0,3.2c-4.6,1.3-9.7,1-14.3-1.2
		C400.1,282.8,400,282.7,400,282.7z"/>
	<path d="M527.6,243.2c0.1-0.1,0.2-0.2,0.2-0.3c0.2-0.2,0.3-0.5,0.4-0.9c1.5-0.6,2.6-2.6,1.5-4.4c-1.1-1.7-1.8-3.6-2.4-5.4
		c-0.2-1.6-0.8-3-1.7-4.3c-1.2-2.3-2.8-4.3-5.9-5.4c-2.9-1-5.2,2.9-2.6,4.7c0.3,0.2,0.6,0.5,1,0.7c-0.4,0.4-0.8,0.9-0.8,1.6
		c-0.1,1-0.5,2.7-0.7,4.6c-0.9,1.9-2.7,3.3-5.1,3.8c-1.3,0.3-2.1,1.3-2.3,2.5c-1.3,0.4-2.6,0.9-3.9,1.6c-1.2,0.6-1.6,1.6-1.6,2.5
		c-3.2,0.3-6.3-0.1-9.2-1.2c-1.2-0.8-2.6-1.5-4.1-2c-0.7-0.3-1.3-0.2-1.9,0.1c-0.1-0.3-0.2-0.5-0.2-0.8c-0.3-0.9-1.1-1.4-1.9-1.5
		c-0.4-0.5-0.8-0.8-1.4-0.9c0-1.4,0-2.4,0.1-2.9c0.1-3.5-5.3-4.2-5.4-0.6c-0.1,5,0.1,10,1.2,14.9c0.6,2.9,1.2,6.3,4.4,7.2
		c0.1,0,0.2,0,0.3,0c0.2,0.1,0.5,0.2,0.7,0.3c0.5,1.7,2.7,2.6,4.1,2c1,0.9,2.4,1.5,4,1.9c-0.2,1.5,0.4,3,2.3,3.3
		c8.1,1.4,16-0.8,22.1-6.3c2.7-1.6,5.1-3.8,7.2-6.6c0-0.1,0.1-0.1,0.1-0.2c0.3,0.1,0.6,0.2,0.9,0.2c1.4-0.1,2.5-1.1,2.5-2.5v-0.7
		c0-1.3-1.1-2.6-2.5-2.5c-0.3,0-0.5,0.1-0.7,0.1c-0.3-0.9-1-1.6-1.9-2c0,0,0,0,0,0C525.3,244.6,526.6,244.3,527.6,243.2z"/>
	<path fill="#EC6608" d="M496.7,368c-8.1-3-14.4,5.2-16.6,12.5c-0.5-0.7-1-1.4-1.5-2.1c-0.5-0.7-1.2-1-1.8-1.1
		c-0.8-1-1.9-1.3-2.8-1.2c0.1-0.8-0.3-1.6-1.1-2.3c-2.6-2.1-4.4-2.6-7.7-2c-2.6,0.4-2.9,3.8-1.4,5.4c3.7,4.2,7.5,8.4,11.3,12.5
		c0.6,2.5,1.1,5,1.7,7.5c0.3,1.5,1.7,2.3,3,2.3c0.2,0.3,0.4,0.5,0.6,0.7c0.3,0.3,0.7,0.4,1,0.6c1.4,0.4,3.2,0,3.9-1.4
		c0.2-0.4,0.4-0.9,0.7-1.3c0.2-0.4,0.3-0.8,0.4-1.2c0.5-0.2,1-0.6,1.4-1.2c4-5.9,9.8-12.2,12.5-18.9
		C501.6,373.4,500.6,369.5,496.7,368z"/>
	<path fill="#FFFFFF" d="M426.6,266.9c-5.2,0-5.2,8,0,8C431.8,274.9,431.8,266.9,426.6,266.9z"/>
	<path fill="#FFFFFF" d="M521.2,233.8c-6.8,0-6.8,10.6,0,10.6C528,244.4,528.1,233.8,521.2,233.8z"/>
</g>
<g id="Layer_1">
	<path fill="none" stroke="#000000" stroke-width="8" stroke-miterlimit="10" d="M551.6,178.7c-9.4-38.8-38-64.3-72.5-76.1l0,0l0,0
		C434.9,87.5,381.2,95,346,126c-30.4,26.8-46,70.8-35.2,109.9c9.2,33.3,36.1,60.1,67.9,73.7c41.1,17.6,91.5,13.5,127.7-12.8
		C542.6,270.6,562.1,222.2,551.6,178.7z"/>
	<path fill="none" stroke="#000000" stroke-width="6" stroke-miterlimit="10" d="M317.4,239.9c63.4-52,144-82.6,225.9-85.8"/>
	<path fill="none" stroke="#000000" stroke-width="7" stroke-miterlimit="10" d="M309.7,211c60.3-49.1,138.2-76.1,215.9-75.1"/>
	<path fill="none" stroke="#000000" stroke-width="8" stroke-miterlimit="10" d="M329.4,268.1c68.5-10.8,131.9-50.8,171.3-107.9"/>
	<path fill="none" stroke="#000000" stroke-width="8" stroke-miterlimit="10" d="M457.8,213.5c31.4,7.2,65.4,2.7,93.9-12.4"/>
	<path fill="none" stroke="#000000" stroke-width="8" stroke-miterlimit="10" d="M390.6,99.8c-19.7-5.1-41.3-9.1-59.7-0.6
		c-25.8,11.9-35.6,43.5-38.4,71.8c-1.9,19.1-1.8,38.4,0.1,57.5c1.7,17,5,34.3,0.8,50.8c-4.2,16.5-18.6,32.1-35.6,30.7
		c29.8,0.3,56.3-3.4,82.9-17"/>
	<text transform="matrix(1.104000e-02 -0.9999 0.9999 1.104000e-02 618.6127 507.6966)" font-family="'INGMe'" font-size="12px">© Beryl Ho (ING)</text>
	<path fill="none" stroke="#000000" stroke-width="6" stroke-miterlimit="10" d="M441.3,322.9c7.7,9.3,21.9,11.5,33.2,7.2
		c11.3-4.3,19.9-13.9,25.5-24.6"/>
	<path fill="none" stroke="#000000" stroke-width="5" stroke-miterlimit="10" d="M385.8,277.3c0.2,1.6,0.5,3.2,1.3,4.6
		c1,1.9,2.6,3.4,4.2,4.7c7.4,5.7,17.3,8.4,26.4,6.2c9.1-2.3,16.8-9.9,18.1-19.2C440.6,239.8,380.4,238,385.8,277.3z"/>
	<path fill="none" stroke="#000000" stroke-width="5" stroke-miterlimit="10" d="M478.3,248.1c0.2,1.6,0.6,3.3,1.3,4.7
		c1,1.9,2.6,3.5,4.4,4.8c7.6,5.9,17.9,8.7,27.2,6.4c9.4-2.3,17.4-10.3,18.7-19.8C534.8,209.5,472.7,207.6,478.3,248.1z"/>
	<path fill="none" stroke="#000000" stroke-width="5" stroke-miterlimit="10" d="M391,258.4c-1.5,2.7-0.8,6.2,1.1,8.6
		c1.9,2.4,4.7,3.9,7.5,5.1c2.4,1,4.8,1.7,7.4,1.8c5.6,0.3,11.3-3.1,13.8-8.1c2.5-5.1,1.7-11.6-1.9-15.9"/>
	<path fill="none" stroke="#000000" stroke-width="3" stroke-miterlimit="10" d="M485.1,226.8c-2.6,6.6,1.4,15,8.1,17.1
		c5.4,1.7,11.4-0.2,16-3.5c4.5-3.3,8.2-8.4,7.8-13.9c-0.2-2.3-1.2-4.7-3.2-5.8"/>
	<path fill="none" stroke="#000000" stroke-width="3" stroke-miterlimit="10" d="M395.3,287.3c2.2-3,6.2-4.6,9.9-3.9
		c1.8,0.3,3.6,1.2,5.3,0.8c3.2-0.6,4.7-4.5,7.7-5.8c2.4-1,5.1-0.2,7.6-0.3s5.7-1.7,5.3-4.2"/>
	<path fill="none" stroke="#000000" stroke-width="3" stroke-miterlimit="10" d="M491.2,259c-0.2-1.8,1.7-3.2,3.5-3.3
		c1.8-0.1,3.5,0.6,5.3,0.9c1.8,0.3,3.9,0,4.9-1.5c0.4-0.6,0.5-1.4,0.9-2.1c0.9-2.1,3.3-3.1,5.5-3.3c2.2-0.1,4.5,0.5,6.7,1
		c0.7,0.1,1.4,0.3,2,0c0.8-0.4,1.2-1.3,1.7-2.1c1.3-2.3,3.9-3.8,6.5-3.9"/>
	<path fill="none" stroke="#000000" stroke-width="5" stroke-miterlimit="10" d="M425.6,328.1"/>
	<path fill="none" stroke="#000000" stroke-width="6" stroke-miterlimit="10" d="M489.7,308c10,7.6,16.1,18.7,21.1,29.8
		c19.4,43.5,25.9,91.9,18.5,138.6"/>
	<path fill="none" stroke="#000000" stroke-width="6" stroke-miterlimit="10" d="M441.1,366.2c0.2,35.2-5.9,70.4-18,103.3
		c26.6,5.9,55.5,8.4,82.7,9.4c8.2,0.3,17,0.1,23.6-4.8"/>
	<path fill="none" stroke="#000000" stroke-width="6" stroke-miterlimit="10" d="M423.2,327.1c-8.3,27.9-3.2,60.2-19.1,84.6
		c6.9,7.3,15.1,13.6,23.9,18.3c1.8,1,4.9,1.3,5.2-0.7"/>
	<path fill="none" stroke="#000000" stroke-width="5" stroke-miterlimit="10" d="M412.4,422.1c-5.3,5.1-7.4,13.3-5.2,20.3
		c2.2,7,8.6,12.5,15.9,13.6"/>
	<path fill="none" stroke="#000000" stroke-width="6" stroke-miterlimit="10" d="M499.8,309.5c26.5,23.6,39.5,61.6,32.9,96.5"/>
	<path fill="none" stroke="#000000" stroke-width="5" stroke-miterlimit="10" d="M485.7,405.6c-7.5-7.1-14.4-14.9-20.6-23.3
		c-1.5-2.1-3.1-4.5-2.7-7.1c0.6-4,5.8-5.7,9.6-4.3c3.7,1.4,6.2,4.9,8.5,8.2c1.1-4.3,5.5-8.3,8.8-11.4c1.9-1.9,4.5-3.5,7.2-3
		c3,0.6,4.9,3.9,5,6.9c0.1,3.1-1.2,6-2.5,8.8C495,389.2,489.6,396.9,485.7,405.6z"/>
	<path fill="none" stroke="#000000" stroke-width="5" stroke-miterlimit="10" d="M453.4,476.9c-2.7,10.1-5.4,20.1-8.1,30.2"/>
	<path fill="none" stroke="#000000" stroke-width="5" stroke-miterlimit="10" d="M472.1,480.3c-2.6,9.1-5.1,18.3-7.7,27.4
		c0.3-0.8,0.7-1.5,1-2.3"/>
	<path fill="none" stroke="#000000" stroke-width="5" stroke-miterlimit="10" d="M496.2,478.5c-2.5,10.4-5,20.8-7.6,31.2"/>
</g>
<g id="Layer_3">
	<path fill="#EC6608" d="M559.8,106.2c-0.2-1.4-1.3-2.7-3.1-2.3c-7.4,1.6-14.6,3.9-21.6,6.9c-0.3,0-0.5,0-0.8,0
		c-0.8,0.1-1.4,0.6-1.7,1.1c-0.1,0.1-0.3,0.2-0.4,0.3c-1.3-0.3-2.8,0.3-3.6,1.5c-4-2.4-9.8-1.8-13.7,0.3c-0.8,0.4-1.5,1-2.1,1.5
		c-0.4-4.6-2.5-9-6.4-12.2c-1.4-1.1-3.2-1.2-4.7-0.6c-0.2-0.4-0.4-0.8-0.6-1.1c-1.7-2.4-4.3-3.7-6.9-3.7c0,0,0-0.1-0.1-0.1
		c-0.6-1.4-1.6-2.2-2.8-2.6c-1-0.9-2-1.6-3-1.9c-0.8-0.7-2.1-0.8-3-0.4c-1.5,0.7-1.8,2.2-1.3,3.6c0.6,1.9,1.3,3.7,1.9,5.6
		c0.2,0.6,0.7,1,1.2,1.3c-1.3,3.1-1.3,6.6-1.8,10c-0.7,4.6-1.7,9-0.9,13.6c-1.9,1.7-3.8,3.5-5.6,5.4c-2.4,2.5-1,6.1,1.7,7.1
		c0.8,1.4,2.4,2.3,4.6,1.8c10-2.6,18.8-7.1,26.9-13.3c0,0,0,0,0,0c0,0,0,0,0,0c0,0,0.1-0.1,0.1-0.1c0.1,0,0.3-0.1,0.4-0.1
		c0.6,4.2,4.6,7.5,9.1,7.6c2.5,0.1,4.9-0.8,6.9-2.3c0,0,0.1,0,0.1,0.1c1.5,0.6,2.9,0.2,4.2-0.7c0.8-0.6,1.6-1.3,2.2-2
		c0.3,1,0.9,1.9,1.9,2.4c0.7,0.3,1.4,0.5,2,0.7c1.6,2.3,3.9,3.6,6.6,4.7c0.2,0.1,0.5,0.2,0.8,0.3c0.1,0.2,0.1,0.5,0.2,0.7
		c1,3.2,5,4,7.2,1.9c0.8,0.6,1.4,1.2,1.8,2.2c1.3,2.9,5.5,1.3,5.2-1.6c-0.5-5-1.4-9.8-2.6-14.6c1.4-5.2,2.8-10.5,4.2-15.7
		C562.9,108.7,561.6,106.9,559.8,106.2z"/>
	<path fill="none" stroke="#000000" stroke-width="7" stroke-miterlimit="10" d="M527.3,113.4c-5.4-5.2-15.6-2.5-18.5,4.4
		c-2.9,6.9,1.4,15.6,8.4,18.3c7.4,2.9,17-1.2,19.3-8.8c2.3-7.6-4.3-16.7-12.3-16.2"/>
	<path fill="none" stroke="#000000" stroke-width="7" stroke-miterlimit="10" d="M528.6,110c11.4-3.2,22.8-6.5,34.3-9.7
		c-4.9,14.9-5.9,31.1-2.8,47c-8-4.4-16.1-8.9-24.1-13.3"/>
	<path fill="none" stroke="#000000" stroke-width="7" stroke-miterlimit="10" d="M511,112.2c-7.7-8.6-15.6-17-23.8-25.2
		c-5,19.8-7.5,40.3-7.4,60.8c9.9-4.6,19.5-9.6,28.9-15"/>
	<path fill="none" stroke="#000000" stroke-width="3" stroke-miterlimit="10" d="M475.2,284.3c-1.3,4.5-3.5,9.6-8,10.9
		c-2.6,0.7-5.3,0-7.8-0.7c-0.8-0.2-1.5-0.4-2.3-0.6C461.9,291.3,470.4,286.8,475.2,284.3z"/>
</g>
<g id="Layer_4">
</g>
</svg>
