<?xml version="1.0" encoding="utf-8"?>
<!-- Generator: Adobe Illustrator 21.1.0, SVG Export Plug-In . SVG Version: 6.00 Build 0)  -->
<svg version="1.1" xmlns="http://www.w3.org/2000/svg" xmlns:xlink="http://www.w3.org/1999/xlink" x="0px" y="0px"
	 viewBox="0 0 841.9 595.3" enable-background="new 0 0 841.9 595.3" xml:space="preserve">
<g id="Layer_1">
	<path fill="none" stroke="#000000" stroke-width="8" stroke-miterlimit="10" d="M210.4,481.2c44.4-23.5,82.8-58.1,110.8-99.8
		c-2.5,3.7-5,7.3-7.5,11"/>
	<path fill="none" stroke="#000000" stroke-width="8" stroke-miterlimit="10" d="M227.8,548.6c58.7-32.3,111.7-76.8,155.3-130.5"/>
	<path fill="none" stroke="#000000" stroke-width="8" stroke-miterlimit="10" d="M288,309.4c-5.3,30.8,15.3,64,45.3,72.9"/>
	<path fill="none" stroke="#000000" stroke-width="8" stroke-miterlimit="10" d="M368.5,413.6c8.5,7.6,25.4,9.6,47.2,5.5
		c18.3-3.5,39.4-10.9,60.3-18.8"/>
	<path fill="none" stroke="#000000" stroke-width="4" stroke-miterlimit="10" d="M361.4,347c7.5,9.5,11.1,22,9.8,34.1"/>
	<path fill="none" stroke="#000000" stroke-width="8" stroke-miterlimit="10" d="M291.2,315.9c-3.9-1.2-2.5-7.2,0-10.5
		c23.7-31.7,66.1-43.8,105.7-44.4c6.9-0.1,14.2,0.2,20.2,3.7c6,3.5,10,11.2,7.2,17.5c-1.9,4.3-6.4,6.8-10.6,8.9
		c-22.5,11.3-46.5,19.7-71.2,24.9"/>
	<path fill="none" stroke="#706F6F" stroke-width="13" stroke-miterlimit="10" d="M365.5,194.2c13.1-35.2,26.2-70.3,39.3-105.5
		c74,13,148.4,36.6,212.9,75"/>
	<path fill="none" stroke="#706F6F" stroke-width="13" stroke-miterlimit="10" d="M571.9,245.3c-25.7,51.2-47.6,108-73.3,159.2
		c-35.5-21.9-73.6-39.5-113.3-52.3"/>
	<path fill="none" stroke="#706F6F" stroke-width="13" stroke-miterlimit="10" d="M569.6,250.8c13.4-32.1,30.5-62.8,51.1-91.4"/>
	<path fill="none" stroke="#706F6F" stroke-width="13" stroke-miterlimit="10" d="M366.9,190.7c-9.1,24-17.2,48.4-24.3,73.1"/>
	<path d="M436.2,162.4c0.2-0.2,0.5-0.5,0.7-0.7c0.3-0.3,0.7-0.5,1.1-0.5c0.2-0.1,0.4-0.2,0.6-0.3c1.8-0.8,3.5,1.6,1.7,2.5
		c-0.6,0.3-1.2,0.7-1.8,1.1c-0.6,0.7-1.2,1.3-1.8,2c-1.1,1.2-3.5-0.4-2.6-1.7C434.7,163.8,435.4,163.1,436.2,162.4z"/>
	<path d="M479.1,163.2c0-0.7-0.8-1.1-1.4-1c-0.7,0.2-1.4,0.3-2.1,0.5c0.2-0.2,0.4-0.4,0.7-0.6c0.6-0.5,0.3-1.4-0.3-1.7
		c0.4-0.6-0.1-1.4-0.7-1.6c-0.1,0-0.2-0.1-0.3-0.1c0.1-0.7-0.4-1.4-1.1-1.3c-0.1-0.7-0.7-1.3-1.5-1.2c-0.6,0-0.9,0.4-1,0.9
		c-0.1,0-0.2,0-0.2,0c0,0,0-0.1,0-0.1c0.1-0.3,0.2-0.6,0.3-0.9c0.1-0.2,0.1-0.3,0.1-0.5c0.2-1.8-0.6-3.6-2.1-4.7
		c-0.3-0.3-0.8-0.2-1.2,0c-0.7-0.3-1.4,0.2-1.6,0.8c0-0.2-0.1-0.5-0.2-0.7c-0.2-0.8-1-1-1.6-0.7c0-0.5-0.1-1-0.3-1.5
		c-0.5-0.9-1.4-1.4-2.3-1.4c-0.3-0.6-0.9-1.1-1.6-1.4c-0.7-0.3-1.7-0.1-1.8,0.8c-0.2,1.3-0.1,2.6,0.3,3.7c-0.3,0.1-0.5,0.1-0.8,0
		c1.4-2.2-0.8-4.9-2.8-6.3c-0.7-0.5-1.5,0.1-1.7,0.8c-0.1-0.1-0.1-0.2-0.2-0.2c-0.9-1.1-2.5-0.4-2.2,1c0,0.2,0.1,0.5,0.2,0.8
		c-0.3-0.8-0.8-1.6-1.6-2.2c-0.6-0.5-1.6-0.3-1.9,0.3c-0.4-0.6-0.7-1.2-1-1.6c-0.7-0.9-2.3-0.6-2.2,0.7c0,0.4,0.1,0.7,0.1,1
		c-0.5-0.7-1.1-1.2-1.7-1.5c-0.8-0.4-2,0.3-1.8,1.3c-0.3-0.4-0.5-0.7-0.7-0.9c-0.7-0.7-2-0.2-2,0.8c-0.3-0.4-0.6-0.7-0.9-1
		c-0.5-0.5-1.2-0.4-1.7,0c-0.6-0.3-1.3,0-1.6,0.8c0,0.1-0.1,0.3-0.1,0.4c-0.3-0.8-0.8-1.4-1.4-1.7c-0.5-0.2-1-0.2-1.5,0.2
		c-0.4,0.4-0.5,0.8-0.5,1.3c0,0.6,0.4,1,0.9,1.1c0.1,0,0.1,0,0.2,0.1c-0.2,0-0.4,0.1-0.6,0.3c-0.1-0.1-0.1-0.2-0.2-0.3
		c-0.6-0.9-1.9-0.6-2.2,0.4c-0.1,0.3-0.1,0.6-0.1,0.9c-0.8-0.3-1.7,0.2-1.6,1.2c0,0.3,0.1,0.7,0.2,1.2c-0.6,1.4,0.1,3.1,1.5,3.8
		c0.3,0.2,0.7,0.2,1,0.1c0.4,0.1,0.9,0.1,1.5-0.2c0.3-0.2,0.5-0.4,0.7-0.6c0.3,0.5,0.6,1,1,1.4c0.6,0.7,1.5,0.3,1.9-0.3
		c0.3-0.5,0.6-1,0.7-1.5c0.1,0,0.2,0,0.3-0.1c0.8-0.2,1.4-0.5,1.8-0.9c0.2,0.1,0.3,0.1,0.5,0.1c0.8,0.8,1.7,1.2,2.8,0.9
		c0.6-0.2,1-0.4,1.3-0.8c0.6,0.3,1.4,0.3,2.1-0.1c0.2-0.1,0.4-0.2,0.5-0.3c0.8,0.7,1.8,1,2.9,0.6c0.3-0.1,0.6-0.3,0.8-0.5
		c0.3,0.2,0.7,0.4,1,0.6c0.3,0.2,0.7,0.2,1,0c0.7,0.6,1.5,0.9,2.4,0.8c0.6-0.1,1-0.3,1.4-0.6c0.4,0.2,0.8,0.3,1.3,0.2
		c1.2,0.9,2.8,1.3,4.2,0.8c0.3,0.4,0.6,0.9,1,1.3c0.9,1.4,2,2.6,2.8,3.2c0.6,0.5,1.6,0.4,1.9-0.3c0.7-1.4,0.9-2.8,0.8-4.3
		c0.1,0.1,0.2,0.2,0.4,0.3c0,0,0.1,0,0.1,0c0,0.7,0.1,1.5,0.5,2.1c-0.4,0.3-0.8,0.7-1.1,1c-0.4,0.4-0.4,0.9-0.1,1.3
		c-0.1,0.1-0.3,0.2-0.4,0.4c-0.7,0.7,0,2.1,1,1.8c-0.1,0.8,0.7,1.5,1.6,1c0.4-0.2,0.8-0.4,1.2-0.7c0.1,0.4,0.3,0.7,0.6,0.8
		c-0.1,0.1-0.1,0.1-0.2,0.2c-0.3,0.4-0.3,0.9-0.1,1.2c-0.8,0.7,0.2,2.1,1.2,1.7c0.2-0.1,0.4-0.2,0.7-0.3c0,0.1-0.1,0.1-0.1,0.2
		c-0.5,0.9,0.4,1.8,1.3,1.6c1.1-0.3,2.1-0.5,3.2-0.8c-0.5,1.1,0.9,2.3,1.7,1.2C478.8,165.1,479.1,164.4,479.1,163.2z M440.1,149.1
		c0-0.1,0-0.2,0-0.3c0.1,0.2,0.3,0.5,0.4,0.7C440.4,149.5,440.3,149.3,440.1,149.1z M452.6,149.7c-0.2,0-0.5-0.2-0.7-0.4
		c0.1-0.6,0-1.1,0-1.7c0.2,0.8,0.6,1.6,1,2.3C452.8,150,452.7,149.9,452.6,149.7z M463.8,153.7c0,0,0-0.1,0.1-0.1c0.2,0,0.3,0,0.5,0
		c0,0.2,0,0.4-0.1,0.6C464,154,463.9,153.8,463.8,153.7z"/>
	<path d="M464,208.2c-0.4-1.1-1.8-1-2.3-0.2c0-0.2-0.1-0.3-0.1-0.5c-0.3-1.4-2.4-0.9-2.4,0.4c0,0.4,0,0.9,0.1,1.3
		c-0.7-0.5-2-0.2-2,1c0,0.2,0,0.4,0,0.6c-0.2-1.3-2.1-1.5-2.4-0.2c-0.1,0.5-0.2,1-0.3,1.5c-0.2-0.2-0.5-0.4-0.8-0.4
		c-0.5-0.5-1.3-0.4-1.7,0.2c-0.2,0.3-0.4,0.7-0.6,1c-0.2-0.2-0.4-0.3-0.6-0.5c-0.3-0.3-0.7-0.3-1-0.2c-0.3-0.1-0.7-0.2-1,0
		c0-0.2-0.1-0.4-0.1-0.6c-0.2-1.2-1.7-0.8-2,0.1c-0.4-0.4-1.1-0.4-1.5,0c-0.3,0-0.6,0.2-0.8,0.6c0,0.1-0.1,0.1-0.1,0.2
		c0-0.4-0.3-0.8-0.7-0.9c0-0.3,0-0.7,0-1.1c0.1-1.2-1.3-1.8-2-0.8c-0.2,0.3-0.4,0.5-0.5,0.8c-0.3-0.3-0.8-0.4-1.2-0.3
		c0.3-1.4-1.8-1.8-2.1-0.5c0,0.1-0.1,0.2-0.1,0.3c-0.3-0.4-0.9-0.5-1.4-0.3c-0.6-0.5-1.8-0.2-1.9,0.8c0,0.7-0.2,1.4-0.6,2
		c-0.1-0.8,0-1.7,0.3-2.5c0.4-1.3-1.7-1.8-2.1-0.5c0,0.1-0.1,0.3-0.1,0.4c-0.1-0.1-0.1-0.2-0.2-0.3c0-0.7-0.2-1.3-0.8-1.9
		c-0.5-0.5-1.2-0.7-1.8-0.7c0-0.4,0-0.7,0-1.1c0.1-1-1.5-1.6-2.1-0.8c-0.6,0.7-0.8,1.4-0.9,2.3c0-0.1,0-0.1,0-0.2c0,0,0,0,0,0
		c0.3-1,0.4-2.1,0.3-3c-0.1-0.9-1.1-1.4-1.8-1c0-0.3,0-0.6,0-0.9c-0.1-0.8-1.1-1.5-1.9-1c-0.1-0.7-0.6-1-1.2-1.1
		c0-0.2-0.1-0.3-0.1-0.5c-0.1-0.4-0.5-0.7-0.9-0.8c-0.1-0.1-0.2-0.2-0.4-0.3c-0.2-0.6-0.7-0.9-1.4-0.8c-0.6,0.1-1.1,0.3-1.6,0.6
		c0-0.4-0.3-0.7-0.7-0.9c0-0.7-0.6-1.3-1.4-1.1c-0.1,0-0.1,0.1-0.2,0.1c-0.3-0.2-0.7-0.3-1-0.2c-1.3,0.4-2.1,1.5-2.1,2.9
		c0,0.2,0.1,0.3,0.1,0.5c-0.1,0.2-0.3,0.5-0.4,0.7c-0.6,1,1,2.2,1.7,1.3c0.2-0.3,0.5-0.5,0.7-0.8c-0.1,0.2-0.2,0.3-0.3,0.4
		c-0.7,1,1,2.2,1.7,1.3c0.1,0.5,0.6,0.9,1.1,0.9c0.2,0,0.4,0,0.6,0c0,0.1,0.1,0.3,0.2,0.4c-0.1,0.3-0.1,0.6-0.2,0.9
		c-0.4,1.3,1.7,1.8,2.1,0.5c0-0.1,0.1-0.3,0.1-0.4c0.1,0,0.3,0.1,0.4,0c0.1,0,0.1,0,0.2,0c0.1,0.5,0.3,0.9,0.6,1.3
		c0,1.2,0.5,2.3,2,2.9c0.5,0.2,1,0.3,1.4,0.3c0.3,0.7,0.7,1.2,1.3,1.4c0.7,0.3,1.4,0.1,1.9-0.2c0.1,0.2,0.1,0.4,0.2,0.6
		c0.1,0.6,0.3,1.1,0.7,1.6c0.1,0.1,0.1,0.2,0.2,0.2c0.3,0.4,0.6,0.9,0.9,1.3c0.5,0.6,1.3,0.8,1.9,0.2c0.3-0.2,0.5-0.5,0.7-0.8
		c0.1,0.5,0.2,0.9,0.4,1.4c0.2,0.6,1,1,1.6,0.6c0.7-0.5,1.2-1,1.7-1.7c0.1,0.1,0.3,0.1,0.4,0.1c0.2,0.7,1.3,1,1.8,0.4
		c0.1-0.1,0.2-0.2,0.3-0.4c0,0,0,0,0,0.1c0.2,0.7,1.2,1,1.8,0.5c0,0,0,0,0.1,0c0.1,0.3,0.2,0.6,0.3,0.9c0.3,0.8,1.2,1,1.8,0.4
		c0.1-0.1,0.2-0.2,0.3-0.3c0,0.1,0.1,0.2,0.1,0.3c0.1,0.4,0.5,0.6,0.8,0.7c0.1,0.2,0.3,0.4,0.5,0.6c0.5,0.5,1.4,0.3,1.7-0.3
		c0.2-0.4,0.4-0.7,0.6-1.1c0,0,0,0,0,0c0.2,0.4,0.5,0.8,0.7,1.2c0.5,0.7,1.4,0.6,1.9-0.1c0.2-0.3,0.4-0.5,0.5-0.8
		c0.1,0,0.1,0,0.2-0.1c0.2-0.1,0.4-0.2,0.5-0.3c0.1,0.1,0.3,0.1,0.5,0.2c0,0.5,0.2,0.9,0.5,1.4c0.4,0.5,1.4,0.9,1.9,0.2
		c0.1-0.2,0.3-0.4,0.4-0.6c0.1,0.2,0.2,0.4,0.3,0.6c0.6,1,1.9,0.5,2.2-0.4c0.2-0.6,0.4-1.3,0.6-1.9c0.2,0.3,0.4,0.7,0.6,1
		c0.6,0.9,1.9,0.6,2.2-0.4c0.1-0.2,0.1-0.4,0.1-0.5c0.6,0.8,1.8,0.4,2.1-0.5c0.1-0.3,0.2-0.5,0.2-0.8c0.1,0.2,0.3,0.3,0.4,0.5
		c0.5,0.5,1.6,0.4,1.9-0.3C464.6,212.3,464.7,210.4,464,208.2z"/>
	<path fill="none" stroke="#000000" stroke-width="4" stroke-miterlimit="10" d="M452.6,213.5c5-1.4,10.4-0.7,15.2-3.1
		c4.9-2.5,8.3-8,10.7-13.6c1.7-4.1,3.1-8.5,3.4-13c0.7-9.3-2.9-18.2-8.6-24.2c-5.7-6-13.4-9.3-21.3-10.6c-7.5-1.3-15.3-0.8-22.6,2.3
		c-7.3,3.1-14,9.2-17.6,17.1c-3.7,8-4.1,17.9-0.2,25.2c2.1,3.9,5.2,6.9,8.5,9.4c4.9,3.7,10.4,6.5,16.2,8.2"/>
	<path fill="none" stroke="#000000" stroke-width="4" stroke-miterlimit="10" d="M461.9,171.1c-0.9-0.5-2.1-0.1-2.9,0.7
		c-0.8,0.7-1.2,1.8-1.6,2.8c-0.4,0.9-0.7,2-0.2,2.7c0.8,1.1,2.7,0.2,3.6-0.9C462.2,174.8,463.1,172.6,461.9,171.1"/>
	<path fill="none" stroke="#000000" stroke-width="4" stroke-miterlimit="10" d="M439.6,161.6c-1-0.5-2.4-0.2-3.2,0.4
		c-0.9,0.6-1.4,1.4-1.8,2.3c-0.4,0.7-0.8,1.6-0.2,2.3c1,1.1,3,0.4,4.1-0.5C439.9,164.9,440.9,163,439.6,161.6"/>
	<path fill="none" stroke="#000000" stroke-width="4" stroke-miterlimit="10" d="M449.9,187.1c-2.9,2.6-7.9,3.1-11.7,1.1
		c-3.8-1.9-5.9-6.1-5-9.8"/>
	<path fill="none" stroke="#706F6F" stroke-width="7" stroke-miterlimit="10" d="M421.9,113.9c30.6,8.5,60.6,19.4,89.8,32.5"/>
	<path fill="none" stroke="#706F6F" stroke-width="7" stroke-miterlimit="10" d="M511.1,146.6c-15.2,35-28.6,70.3-48.5,102.8
		c-16.4-9.5-34.5-15.7-52.5-21.9c-6.7-2.3-13.3-4.6-20-6.9c-4-1.4-5.9-2.6-10.1-2.9c14.5-33.4,28.7-66.9,42.3-100.7"/>
	<path fill="none" stroke="#000000" stroke-width="4" stroke-miterlimit="10" d="M415.8,204.5c-3.2,3-6.4,6-9.7,9"/>
	<path fill="none" stroke="#000000" stroke-width="4" stroke-miterlimit="10" d="M451.4,218.2c0.5,4.1,0,8.3-1.5,12.2"/>
</g>
<g id="Layer_2">
	<path fill="#EC6608" d="M532.5,294.8c0.2-1.5-0.9-2.3-2-2.4c-0.1-0.4-0.3-0.8-0.5-1.2c1.8-2.6,3-5.5,3.6-8.7
		c0.3-1.4-0.5-2.5-1.6-2.9c0-0.1,0-0.2-0.1-0.3c0-0.4,0.1-0.7,0.1-1.1c0.1-1.3-1.2-2.5-2.5-2.5c0,0-0.1,0-0.1,0
		c-0.3-1.3-0.6-2.3-1.1-3c0.3-0.7,0.2-1.6-0.4-2.3c-0.3-2.3-1-4.5-2.1-6.6c-0.9-1.7-2.9-1.5-3.9-0.5c-0.8-0.9-1.5-1.8-2.3-2.7
		c-0.6-0.7-1.4-0.9-2.1-0.8c-0.8-0.8-1.7-1.5-2.6-2.2c-2-1.3-3.9-1.1-6.2-1.6c0,0,0,0,0,0c-0.2,0-0.4-0.1-0.7-0.1
		c-0.8-0.1-1.5,0.2-1.9,0.8c-0.3-0.1-0.6-0.2-1-0.3c-1.4-0.6-2.8-1.2-4.1-2c-0.8-0.4-1.5-0.4-2.1-0.2c-0.7-0.4-1.5-0.5-2.4-0.1
		c-0.8,0.4-1.8,0.9-2.7,1.5c-0.4-0.4-1-0.7-1.6-0.7c-1.2,0-2.4,0.3-3.5,0.9c-0.2-0.1-0.5-0.1-0.7-0.1c-0.8-0.6-1.8-0.8-2.7-0.3
		c-2.9,1.7-5.1,3.8-6.7,6.5c-0.3,0.3-0.7,0.6-1,0.9c-1.1-0.2-2.4,0.3-2.9,1.6c-0.4,1.1-0.8,2.2-1.3,3.3c-3.3,2.6-7.4,6.4-8.1,10.5
		c-0.2,1.2,0,2.4,0.6,3.3c-1.8,1.3-3.5,2.8-4.1,4.6c-0.7,2.1,0.5,3.8,2.3,4.6c0.1,0.1,0.1,0.2,0.2,0.3c0.7,0.8,1.5,1.3,2.2,1.6
		c0,0.5,0.1,0.9,0.2,1.3c-1.3,2.3-2,4.8-1.1,6.9c0.3,0.6,1,1.1,1.6,1.2c0.1,0.6,0.3,1.2,0.6,1.7c-0.4,0-0.8,0.1-1.2,0.3
		c-1.1,0.6-1.8,2.3-1,3.4c1.4,2.1,3.6,3.4,6.1,3.4c0.8,0,1.6-0.4,2.1-1c0,0,0,0,0,0c0.8,0.9,1.8,1.6,2.8,1.9c0.5,1,1.3,1.8,2.1,2.4
		c2.1,1.5,5.4,2.6,8.1,2c0.2,0.1,0.3,0.3,0.5,0.4c1,0.8,2.2,1.3,3.4,1.8c0.1,0.1,0.3,0.2,0.4,0.4c2.7,1.8,6.2,1.9,9.1,0.4
		c0.3-0.2,0.5-0.4,0.7-0.6c0.2-0.1,0.4-0.1,0.6-0.2c0.9,0.1,1.8,0,2.6-0.1c1-0.1,2-0.4,2.9-0.7c4.6,0.5,9.4-2.5,13.1-5.6
		c1.2-0.6,2.3-1.4,3.1-2.3c0.5-0.4,0.9-1,1-1.7c0.2-0.5,0.2-0.9,0.2-1.4c0.1-0.4,0.4-0.8,0.7-1.3c0.2-0.3,0.3-0.7,0.4-1.2
		c0.4-0.3,0.9-0.5,1.3-0.8c0.5-0.3,0.9-0.6,1.3-1C530.6,300.3,532.1,298,532.5,294.8z M520.7,289.3c-2.1,2.2-3,6.2-3.6,9.1
		c0,0,0,0,0,0c-0.9,0.9-1.7,1.9-2,3c0,0.1,0,0.3-0.1,0.4c-1.6,0.6-3,1.6-3.7,3c-0.7,0.4-1.4,0.9-2,1.5c-5.4,1.1-10.9,1.8-16.4,2.1
		c-1.2-0.7-2.5-1.2-3.7-1.7c-1-1-2.3-1.7-3.6-2.2c-0.4-0.2-0.9-0.3-1.5-0.4c-0.3-0.4-0.6-0.7-0.9-1.1c-1.4-1.8-2.3-3.5-4.6-4.3
		c0.1-1.7-0.5-3.3-2.1-4.1c0.1-0.7,0-1.3-0.3-2c1.3-0.5,2.3-1.9,1.5-3.5c-0.4-0.7-0.7-1.4-0.9-2.2c0-0.5-0.2-1.1-0.4-1.5
		c-0.1-0.5-0.2-1-0.3-1.6c-0.1-0.8-0.4-1.6-1-2.1c0.1-0.1,0.2-0.1,0.2-0.2c3.8-4.7,7.5-9.4,11.1-14.2c0,0,0-0.1,0-0.1
		c0.3-0.1,0.6-0.2,0.9-0.3c0.8-0.3,1.6-0.8,2.4-1.4c0.8,0.5,1.7,0.7,2.7,0.8c0.9,0,3-0.3,5.3-1c1.5,0.5,3,0.9,4,1
		c1,0.2,1.8-0.2,2.4-0.8c2,0.9,4.2,1.4,6.3,2.1c0.2,0.3,0.5,0.5,0.8,0.7c2.4,1.4,5.5,3.2,7.6,5.5c0,0,0,0,0,0
		c1.3,4.8,2.4,9.6,3.3,14.5C521.6,288.5,521.1,288.8,520.7,289.3z"/>
	<path fill="#706F6F" d="M476.6,317.7c0.3-2.6-4-3.7-4.9-0.8c-2.4,7-10,13-15.2,17.9c-1.2,1.1-0.9,2.5-0.1,3.4
		c-1.5,1.7-2.9,3.5-4.2,5.3c-0.6,0.3-1.1,0.9-1.4,1.6c-0.1,0.3-0.2,0.7-0.3,1c-0.1,0.3-0.1,0.6,0,0.8c0.1,1,0.6,1.9,1.2,2.7
		c1.1,1.2,2.7,1.7,4.2,2c1.4,0.2,2.6-0.3,3.1-1.7c0.1-0.4,0.3-0.8,0.4-1.2c0.3-0.8,0-1.8-0.6-2.4c0-0.1,0.1-0.1,0.1-0.2
		c0.2-0.1,0.4-0.3,0.6-0.5l1.2-1.6c2.3-2.8,4.7-5.6,6.9-8.5c0.3-0.4,0.4-0.7,0.5-1.1c3.4-4.4,6.8-8.7,10.1-13.1
		C479.6,319.7,478.2,318,476.6,317.7z"/>
	<path fill="#C6C6C6" d="M479.5,322c-1.9,2.5-3.7,5.1-5.5,7.7c-0.6,0.1-1.2,0.4-1.6,1.2c-0.9,1.7-1.8,3.4-2.7,5.1
		c-1,1.6-2,3.2-3,4.8c-0.8-0.6-2-0.6-2.9,0.3c-1.7,1.7-2.9,3.6-3.8,5.7c-0.5,1.2,0.5,2.8,1.7,3.1c0,0,0.1,0,0.1,0
		c-1.2,2.5-2.3,5-3.2,7.6c-1.1,3,3.7,4.4,4.8,1.4c0-0.1,0.1-0.3,0.1-0.4c0.4,0,0.9,0,1.3-0.2c0.3-0.1,0.6-0.2,0.9-0.4
		c1.5-0.6,1.6-2,1.1-3c2.2-5.7,4.6-11.2,7.4-16.7c3.1-4.7,6.3-9.2,9.6-13.7C485.6,322.1,481.3,319.5,479.5,322z"/>
	<path fill="#FFFFFF" d="M518.6,292.4c0.1-0.5,0.2-1.1,0.2-1.7c2.9-5.4,1.5-14.5-2.3-18.3c-3.4-3.4-8.8-4.3-13.3-5.2
		c-5.4-1-10.6-1.1-15.9,0.6c-1.9,0.6-2.1,2.6-1.4,3.9c-4.1,2-7.3,5.4-8.1,9.9c-0.6,3.2,0,6.6,1.6,9.4c0,0.8,0.2,1.5,0.4,2.3
		c0,0.3,0,0.7,0.2,1.1c3.3,8.9,13.3,14.1,22.4,10.7C510.1,306.5,517.2,300.6,518.6,292.4z M513.3,276.5c0.7,0.8,1.1,1.7,1.4,2.9
		c-0.1-0.1-0.3-0.1-0.4-0.2C514,278.3,513.7,277.4,513.3,276.5z M510.4,293.2c0.2-0.4,0.4-0.8,0.5-1.1c0.4-0.3,0.7-0.6,1-0.9
		C511.5,291.9,511,292.6,510.4,293.2z"/>
	<path fill="none" stroke="#000000" stroke-width="4" stroke-miterlimit="10" d="M487.7,268.2c-6.6,3.5-10.9,10.6-11,17.9
		c-0.1,7.3,4.2,14.6,10.8,18.5c6.6,3.9,15.3,4.1,21.8,0.5c2-1.1,3.8-2.5,5.3-4.2c1.5-1.8,2.6-3.9,3.5-6.1c2.2-5.1,3.8-11,1.5-16.2
		C514.6,267.2,498.3,262.5,487.7,268.2z"/>
	<path fill="none" stroke="#000000" stroke-width="5" stroke-miterlimit="10" d="M480.1,317.1c2.3,1.2,5.5,0.7,7.3-1.3
		c1.9,2.8,4.7,5.2,8,5.9s7.2-0.9,8.4-4.1c3.8,3.5,11.1,1.5,12.6-3.4c3.2,0.2,6.6-0.4,9-2.6c2.3-2.2,2.9-6.3,0.6-8.6
		c2.9-1.3,5.6-3.3,6.8-6.2s0.6-6.7-2-8.4c2.2-2,4.3-4.6,4.4-7.6s-2.5-6.2-5.4-5.7c2.5-5.6-2.4-13.1-8.5-13
		c-1.6-5.6-8.6-8.8-13.9-6.5c-3.5-3.8-10.5-3.5-13.6,0.7c-1.9-2.4-5.4-3.5-8.3-2.6c-3,0.9-5.3,3.6-5.6,6.7c-5-0.6-9.4,5.6-7.2,10.1
		c-2.6-1.1-6,0.1-7.3,2.6s-0.4,5.9,2,7.5c-3,0.3-5.6,2.8-6.1,5.8c-0.4,3,1.4,6.1,4.2,7.2c-1.4,1-1.9,3.1-1,4.6
		c0.9,1.5,3.1,2,4.6,1.1c-2.8,2.1-3.3,6.6-1.1,9.4c2.3,2.9,4.9,0.9,7.3,2.1C477.6,311.9,477.1,315.5,480.1,317.1z"/>
	<path fill="none" stroke="#000000" stroke-width="5" stroke-miterlimit="10" d="M489.1,320c-1-0.3-1.9,0.7-2.6,1.5
		c-5,6.5-8.6,14.1-12.2,21.5c-2.5,5.2-4.1,12.4-6.6,17.6c-6.8-3.6-13.4-7.4-19.9-11.4c-0.6-0.4-2.6-0.2-2.1-0.7
		c10.5-11.8,20.2-24.3,29-37.5"/>
	<path fill="none" stroke="#000000" stroke-width="5" stroke-miterlimit="10" d="M470.9,356.1c4.5,0.3,7.9,2,12.3,3
		c0.4-12.7,3.1-25.4,8-37.2"/>
	<path fill="none" stroke="#000000" stroke-width="4" stroke-miterlimit="10" d="M480.8,318c-9.1,10.9-17.2,22.7-24.2,35.1"/>
	<path fill="none" stroke="#575756" stroke-width="4" stroke-miterlimit="10" d="M521.3,166.5c17.6,2.7,34.5,9.4,49.1,19.6"/>
	<path fill="none" stroke="#575756" stroke-width="4" stroke-miterlimit="10" d="M511.6,181.8c17.1,4,33.7,10.4,49,19"/>
	<path fill="none" stroke="#575756" stroke-width="4" stroke-miterlimit="10" d="M510.8,200.2c14.7,4.3,29.1,9.5,43.1,15.5"/>
	<path fill="none" stroke="#575756" stroke-width="4" stroke-miterlimit="10" d="M500.8,214.8c17.1,5.7,34.3,11.5,51.4,17.2"/>
	<path fill="none" stroke="#575756" stroke-width="4" stroke-miterlimit="10" d="M499.4,227.1c-0.2-0.1-0.3-0.1-0.5-0.2
		c13.2,4.1,25.8,10.1,37.3,17.8"/>
</g>
</svg>
