<?xml version="1.0" encoding="utf-8"?>
<!-- Generator: Adobe Illustrator 21.1.0, SVG Export Plug-In . SVG Version: 6.00 Build 0)  -->
<svg version="1.1" xmlns="http://www.w3.org/2000/svg" xmlns:xlink="http://www.w3.org/1999/xlink" x="0px" y="0px"
	 viewBox="0 0 841.9 595.3" enable-background="new 0 0 841.9 595.3" xml:space="preserve">
<g id="Layer_2">
	<path fill="#3C3C3B" d="M205,320.4c-0.3-0.2-0.7-0.3-1.2-0.3c-0.4,0-0.7,0-1.1,0c-4.3-0.6-8.4-0.6-12.7,0.1c-1.5,0.3-2,1.6-1.7,2.8
		c-0.3,0-0.5,0-0.8,0c0.1-0.2,0.1-0.4,0.2-0.6c0.3-1.2-0.4-2.8-1.7-3.1c-3.1-0.6-4.7,0.5-7.2,2.3c-2.4,1.8-4.8,3.6-7.2,5.4
		c-3.1,1.2-6,3.9-8.2,5.9c-2.8,2.6-8.3,7.6-8.1,11.8c0,0.5,0.1,0.9,0.2,1.3c-0.9,0.9-1.5,1.9-1.7,3.2c-0.2,1.5,0.6,2.8,1.9,3.1
		c0,0.1,0,0.1,0.1,0.2c0.3,0.5,0.9,1,1.5,1.1c0.7,0.2,1.3,0,1.9-0.3c0.8-0.4,1.6-0.7,2.5-1.1c0.5-0.2,1-1,1.1-1.5
		c0.1-0.2,0.1-0.4,0.1-0.6c10.6-4.1,19-12.4,23.3-22.8c0.3,0.2,0.6,0.4,1.1,0.5c4.3,0.7,8.4,0.3,12.3-1.2c2.8-0.1,5.5-0.8,8.1-1.9
		C210.5,323.5,207.9,319.2,205,320.4z"/>
	<path fill="#EC6608" d="M191.7,482.7c-0.3-0.1-0.6-0.2-0.9-0.2c-1.4-0.1-2.8-0.3-4.3-0.4c-2.5-1.5-5.2-2.5-8.1-2.9
		c-0.8-0.1-1.6,0-2.2,0.5c-5.1-1.5-10.3-2.7-15.5-3.5c-2.2-0.5-4.3-0.8-6.6-0.9c-0.3,0-0.5,0-0.8,0.1c-1.3-0.3-2.6-0.5-3.9-0.6
		c-1-0.2-1.9-0.4-2.9-0.6c-0.4-0.1-0.9-0.2-1.5-0.3c-0.3,0-0.6,0-0.8,0.1c-0.7-1.7-3.3-2.4-4.4-0.4c-1.4,2.6-2,5.2-2,7.8
		c-1.7,4.3-2.8,9.4-1.8,13.4c-0.9,0.8-1.7,1.8-2.3,3.1c-0.5,1.1-0.4,2.8,0.9,3.4c6,2.6,12.4,2.3,18.8,2.5l8.7,2.2
		c5.5,2.9,11.3,5.3,17.3,7.2c0.3,0.1,0.5,0.1,0.8,0.1c0.5,0.8,1.4,1.3,2.6,1c0.9-0.2,1.7-0.6,2.4-1.1c0.6,0.8,1.7,0.9,2.6,0.8
		c1.3-0.2,2.3-1,2.9-2.1c0.7-1.3,0.2-2.5-0.7-3.2c1.2-1.9,1.4-4.5,1.7-6.7c0.2-1.3,0.3-2.7,0.5-4c1.3-1.8,1.9-3.9,1.6-6.3
		c0.7-2.2,1.3-4.4,2-6.6C196.8,482.4,193.5,481.1,191.7,482.7z M145.1,491.7c-0.1,0.1-0.2,0.1-0.3,0.2c-0.2,0.2-0.5,0.4-0.6,0.7
		c0-0.5,0.1-1,0.3-1.5c0.2,0.1,0.5,0.3,0.7,0.3C145.1,491.5,145.1,491.6,145.1,491.7z M165.6,497.7c-0.1,0.1-0.2,0.2-0.3,0.2
		c-0.1,0-0.2-0.1-0.3-0.2c0.4-0.7,0.3-1.7-0.1-2.5c0-1,0.1-2,0.2-2.3c0.1-0.6,0.3-1.1,0.5-1.7c0.1,0.7,0.2,1.5,0.3,2.3
		C165.7,494.7,165.6,496.2,165.6,497.7z M172,497.8c-0.8,1-1.1,0.4-1.1-0.8c0.1-0.6,0.1-1.3,0.2-1.9c0.3-0.1,0.6-0.1,1-0.2
		c0.1,0.6,0.1,1.1,0.2,1.7C172.2,497.1,172.1,497.5,172,497.8z"/>
	<path fill="#9D9D9C" d="M213,478.8c-0.1-0.1-0.1-0.1-0.2-0.1l-1.1-19.9c0-0.3-0.1-0.6-0.2-0.9c0.1-2.7,0.2-5.5,0.2-8.2
		c0.4-0.4,0.6-0.9,0.6-1.7c0-8.6-0.1-17.2-0.1-25.7c0-3.4,0.1-6.8-0.3-10.1c-0.6-4.3-2.7-8.2-2.1-12.6c0.1-1-0.3-1.6-0.9-2
		c-0.1-0.6-0.1-1.3-0.2-1.9c0-2.3,0-4.6,0-7c0-1.8-2.1-3.2-3.8-2.2c-1.6,1-3.2,1.4-5,1c-1.2-0.3-2.1,0.3-2.6,1.1l-16.6-0.2
		c-1.7,0-2.5,1.4-2.4,2.7c-0.3,0.4-0.6,0.9-0.7,1.5c-0.2,1.3,0.4,2.4,0.8,3.6c0.1,0.4,0.2,0.7,0.3,1.1c-0.2,0.3-0.4,0.7-0.4,1.2
		l-0.6,7c-0.1,1.4,0.8,2.2,1.8,2.4c0,0.2,0,0.4-0.1,0.6c-2,3.3-3.1,6.9-3.5,11c-0.1,0.8,0.2,1.4,0.7,1.8c-0.4,2.1-0.6,4.2-0.7,6.3
		c-2,2.7-3.6,5.6-4.6,8.8c-0.9,0.3-1.7,1-1.8,2.2c-0.3,2.9-1.5,8.3,1,10.5c1.8,1.6,4.2,0.9,5.8-0.5c0.8-0.7,1.5-1.5,2.1-2.4
		c2.3-2.7,4.1-6.6,5.1-8.8c2.1-4.5,3.3-9.2,3.8-14.1c0.6-1.5,1.2-3,1.7-4.6c-0.5,2.1-0.4,4,0.6,5.3c-0.8,4.2-1.5,8.4-2.2,12.7
		c-1.5,3.3-3.3,6.5-5.6,9.4c-0.3,0.1-0.6,0.2-1,0.4c-2.6,1.9-3.1,4.4-2.7,7.5c0.4,2.9,1.1,5.7,1.9,8.6c-1.1,0.3-1.8,1.3-1.9,2.4
		c-0.3,2.5-1,5-2,7.3c-0.5,1.2,0.6,2.8,1.7,3.1c0.9,0.2,1.6,0,2.2-0.5c0.9,0.6,1.8,0.9,2.9,1c1.3,0.4,2.5,0.8,3.8,1.2
		c0.2,0.6,0.6,1.1,1.1,1.5c2.1,1.5,4.5,2.5,7.1,2.9c1.2,0.2,2.4-0.2,2.9-1.3c0.5,0.2,0.9,0.4,1.4,0.6c1.4,0.7,2.8,1.3,4.2,2
		c0.5,0.3,1.2,0.3,1.7,0.2c0.3,0.4,0.7,0.7,1.3,0.8c2.3,0.6,4.6,0,6.4-1.6C214,481.5,214,479.7,213,478.8z M184.2,398.8
		c-0.1-0.3-0.1-0.6-0.2-0.9c0.3,0.1,0.5,0.2,0.8,0.2C184.6,398.3,184.4,398.5,184.2,398.8z M190.2,415.5c0.4-1.2,0.7-2.4,1-3.6
		c0-0.1,0.1-0.3,0.1-0.4c0.4-0.1,0.8-0.3,1.1-0.4C191.6,412.5,190.8,414,190.2,415.5z M199.9,459.2c-0.2,0.8-0.4,1.5-0.5,1.9
		c0,0.2-0.1,0.3-0.1,0.6c0.2-1.9,0.6-3.7,1.1-5.4C200.1,457.2,200,458.2,199.9,459.2z"/>
	<path fill="#9D9D9C" d="M188.2,527.6c-6.3,1.4-12.4,0.3-17.9-3c-2.8-1.7-5.3,2.7-2.5,4.3c6.7,4,14.2,5.1,21.8,3.5
		C192.7,531.7,191.3,526.9,188.2,527.6z"/>
	<path fill="#9D9D9C" d="M226.5,531c-0.7-1.2-2.2-1.5-3.4-0.9c-1.4,0.7-2.8,1.5-4.1,2.2c-0.5,0.3-0.8,0.7-1,1.2
		c-4.7,0-9.2-1.5-13-4.6c-2.5-2-6,1.5-3.5,3.5c6.7,5.5,15.2,7.4,23.6,5.1c1.9-0.5,2.1-2.5,1.4-3.8C226.9,533.1,227,531.9,226.5,531z
		"/>
	<path fill="#EC6608" d="M145.2,209.9c-2.5,12.2-5.6,24.3-9.5,36.1c-1,3.1,3.8,4.4,4.8,1.3c3.9-11.8,7.1-23.9,9.5-36.1
		C150.6,208.1,145.8,206.7,145.2,209.9z"/>
	<path fill="#0BBBEF" d="M180.9,238.6c-8.1-12-15.2-27-28.7-33.9c-2.9-1.5-5.4,2.9-2.5,4.3c12.5,6.4,19.3,20.8,26.9,32.1
		C178.4,243.8,182.7,241.3,180.9,238.6z"/>
	<path fill="#B2B2B2" d="M180.9,239.6c-16.1,1.8-31.8,5.4-47,11c-3,1.1-1.7,5.9,1.3,4.8c14.8-5.4,30.1-9,45.7-10.8
		C184,244.3,184.1,239.3,180.9,239.6z"/>
</g>
<g id="Layer_1">
	<text transform="matrix(1.104000e-02 -0.9999 0.9999 1.104000e-02 705.9228 534.8002)" font-family="'INGMe'" font-size="12px">© Beryl Ho (ING)</text>
	<path fill="none" stroke="#000000" stroke-width="3" stroke-miterlimit="10" d="M529.3,445.7c-0.2-0.4-0.4-0.9-0.7-1.3"/>
	<path fill="none" d="M4,51c0-0.3,0-0.7,0-1"/>
	<path fill="none" stroke="#000000" stroke-width="7" stroke-miterlimit="10" d="M154,350.9c-1,12.5,6.6,24.9,17.7,30.8
		c11.1,5.8,25,5.4,36.2-0.1c9.1-4.4,16.7-12.1,20-21.6c3.3-9.5,2-20.8-4.3-28.6C203.1,305.7,156.9,316.9,154,350.9z"/>
	<path fill="none" stroke="#000000" stroke-width="5" stroke-miterlimit="10" d="M186.9,344.9c-1.7,2.3,0.3,6.3,3.2,6.3
		c0.1-2.5-1.5-5.1-3.8-6c-1.1,2,1.8,4.5,3.6,3.2"/>
	<path fill="none" stroke="#000000" stroke-width="5" stroke-miterlimit="10" d="M204.9,336.7c-0.8,2.5,0.4,5.5,2.6,6.8
		C209,341.1,207.6,337.4,204.9,336.7c-0.4,1.4,1.1,2.9,2.5,2.6"/>
	<path fill="none" stroke="#000000" stroke-width="5" stroke-miterlimit="10" d="M195.9,366.4c3.9,1.9,8.9,1,12-2"/>
	<path fill="none" stroke="#000000" stroke-width="4" stroke-miterlimit="10" d="M152.7,355.9c9.2-2,17.2-7.8,23.5-14.8
		c6.3-7,11.1-15.2,15.8-23.3"/>
	<path fill="none" stroke="#000000" stroke-width="4" stroke-miterlimit="10" d="M186.8,329.5c9-0.8,17.8-3.2,25.9-7"/>
	<path fill="none" stroke="#000000" stroke-width="7" stroke-miterlimit="10" d="M193.9,405.2c-5.2,15.4-10.2,31.2-14.5,46.9
		c-5.2-0.1-10.4-1.9-14.6-5.1c6.6-14.8,12.2-30,16.7-45.5c0.6-2.1,1.2-4.3,1.1-6.5"/>
	<path fill="none" stroke="#000000" stroke-width="7" stroke-miterlimit="10" d="M176.4,388c-1.7,11.1-3.5,22.2-5.2,33.2"/>
	<path fill="none" stroke="#000000" stroke-width="7" stroke-miterlimit="10" d="M210.2,384.5c5,19.9,5.1,42.1,5.2,63.7
		c0,13.5,0.1,26.9,0.1,40.4"/>
	<path fill="none" stroke="#000000" stroke-width="5" stroke-miterlimit="10" d="M167.6,451.4c-2.4,5.2-4.2,11.6-1.1,16.5
		c0.9,1.5,2.4,2.8,4.2,2.8c3,0.1,4.8-3.2,5.6-6.1c0.8-3.1,1.3-6.2,1.3-9.4"/>
	<path fill="none" stroke="#000000" stroke-width="5" stroke-miterlimit="10" d="M152.9,469.3c0.6-5.2,5.3-9.6,10.5-9.8"/>
	<path fill="none" stroke="#000000" stroke-width="5" stroke-miterlimit="10" d="M179.1,461c3.5,3.7,4.9,9.2,3.7,14.2"/>
	<path fill="none" stroke="#000000" stroke-width="5" stroke-miterlimit="10" d="M190.8,514.5c-19.2-3.7-39.4-9.5-58.5-13.9
		c1.5-9.4,3.8-20.9,5.7-30.2c19.8,2.8,39.5,6.7,58.9,11.7C195.3,493.8,193.4,503.1,190.8,514.5z"/>
	<path fill="none" stroke="#000000" stroke-width="5" stroke-miterlimit="10" d="M139.2,474.9c-2.2,5.8,1.2,12.5,6.3,16.1
		c5.1,3.5,11.5,4.6,17.6,5.5c5.9,0.9,11.9,1.7,17.8,0.6c5.9-1.1,11.6-4.5,14.1-9.9"/>
	<path fill="none" stroke="#000000" stroke-width="5" stroke-miterlimit="10" d="M163.8,491.4c-0.6,3.5-1.2,7.1-1.8,10.6"/>
	<path fill="none" stroke="#000000" stroke-width="7" stroke-miterlimit="10" d="M198.1,485.1c6,0.3,12,0.5,18,0.8"/>
	<path fill="none" stroke="#000000" stroke-width="5" stroke-miterlimit="10" d="M208.8,487.3c-0.3,11.9,0.2,23.9,1.3,35.8
		c0,0.4,0.2,1,0.6,1c0.4,0.1,0.3-0.9,0-0.6"/>
	<path fill="none" stroke="#000000" stroke-width="5" stroke-miterlimit="10" d="M212.2,525c7.4-2.5,15.6,3.6,16.5,11.4
		c-9.5,1.2-19.3,0.4-28.6-2.2c-0.2-2.1,1.7-6.8,1.5-8.9c-1.1-12.2-2.1-24.5-3.2-36.7"/>
	<path fill="none" stroke="#000000" stroke-width="5" stroke-miterlimit="10" d="M170.7,513.9c-2.3,4.7-4.1,9.6-5.2,14.7
		c9.1,2,19.5,3.8,28.6,6.2"/>
	<path fill="none" stroke="#000000" stroke-width="5" stroke-miterlimit="10" d="M182.9,516.6c-0.2,1.6-0.5,3.1-0.7,4.7
		c5.8-0.3,11.8,6.9,11.6,12.6"/>
	<path fill="none" stroke="#000000" stroke-width="7" stroke-miterlimit="10" d="M153.1,354.1c6,12.6,10.4,25.9,13.1,39.6
		c0.7,3.6,1.2,7.7-1.1,10.6c-2.7,3.3-7.8,3.3-11.8,1.9"/>
	<path fill="none" stroke="#EC6608" stroke-width="11" stroke-miterlimit="10" d="M223.2,196.4c-2.6-4.8-0.5-11,3.6-14.2
		c4.1-3.2,9.7-3.9,14.9-3.5c4.2,0.3,8.4,1.3,11.8,3.9c3.4,2.6,5.7,7,4.8,11.1c-1.5,7.4-11.3,9.5-14.7,16.1c-2,4-1.4,8.8-0.7,13.3"/>
	<path fill="none" stroke="#EC6608" stroke-width="11" stroke-miterlimit="10" d="M245.9,230.7c-2.5-1.5-5.4,2.1-4.2,5.4
		s5.4,3.4,6.2,0.3c0.3-1,0.2-2.2-0.4-3.1c-0.3-0.4-0.6-0.7-1-0.9c-1.6-1.1-3.4-1.5-5.1-1.1"/>
	<path fill="none" stroke="#000000" stroke-width="3" stroke-miterlimit="10" d="M203.6,527.8c5,4.7,13.4,5.2,18.9,1.1"/>
	<path fill="none" stroke="#000000" stroke-width="3" stroke-miterlimit="10" d="M168.3,523.1c5.7,4.1,13.3,5.4,20,3.2"/>
	<path fill="none" stroke="#000000" stroke-width="5" stroke-miterlimit="10" d="M259.9,162.1c-29.2-7.3-61.1-5.9-89.7,3.9
		c-20,6.9-38.9,18.3-49.9,34.9s-12.6,39-0.5,54.5c7.7,9.9,20.1,16.3,33.2,19.4c13,3.1,26.7,3.4,40.3,3c19.6-0.5,40.9-2.9,54.8-15.6"
		/>
	<path fill="none" stroke="#000000" stroke-width="5" stroke-miterlimit="10" d="M248.5,260.6c-1.4,16.8-11.6,33.1-27,42.9"/>
	<path fill="none" stroke="#000000" stroke-width="5" stroke-miterlimit="10" d="M219.2,303.6c8.5-0.2,16.4-3.9,23.5-7.9
		c27.1-15.3,49.2-39,54.3-66.3s-10-57.2-39.1-68.1"/>
	<path fill="none" stroke="#000000" stroke-width="4" stroke-miterlimit="10" d="M178.2,241.5c-14.1,2.7-29.6,5.4-43.8,8.1
		c4.6-13.4,9.3-26.7,13.9-40.1c0.3-0.8,0.9-1.7,1.7-1.5c0.1,1.2,1.4,1.6,2.3,2.4C162.5,220.1,170.7,229.7,178.2,241.5z"/>
	<path fill="none" stroke="#000000" stroke-width="4" stroke-miterlimit="10" d="M179.1,223.1c7.9-2.3,16-4.1,24.1-5.5"/>
	<path fill="none" stroke="#000000" stroke-width="4" stroke-miterlimit="10" d="M191.3,211.5c3.4,2,6.9,3.9,10.3,5.9"/>
	<path fill="none" stroke="#000000" stroke-width="4" stroke-miterlimit="10" d="M195,227.1c2.7-3.6,5.3-7.2,8-10.8"/>
	<path fill="none" stroke="#EC6608" stroke-width="9" stroke-miterlimit="10" d="M357.6,69.9c2.4,52,3.3,104.1,2.8,156.1"/>
	<path fill="none" stroke="#EC6608" stroke-width="9" stroke-miterlimit="10" d="M363.6,293.7c0.7,22.6,0.9,45.2,0.4,67.8
		c60-1.1,120.2,1.2,180.2,1.9"/>
	<path fill="none" stroke="#EC6608" stroke-width="9" stroke-miterlimit="10" d="M354.8,75c27.6,0,55.2,0,82.8,0"/>
	<path fill="none" stroke="#EC6608" stroke-width="9" stroke-miterlimit="10" d="M481.5,71.6c71.4-2.9,143.1-3.6,214.6-2"/>
	<path fill="none" stroke="#EC6608" stroke-width="9" stroke-miterlimit="10" d="M579.9,363.7c42-0.3,84-0.5,126-0.8"/>
	<path fill="none" stroke="#EC6608" stroke-width="9" stroke-miterlimit="10" d="M692.5,65c1.2,23.6,2.4,47.3,3.6,70.9"/>
	<path fill="none" stroke="#EC6608" stroke-width="9" stroke-miterlimit="10" d="M699.3,165.4c-0.9,67.1-0.4,134.2,1.7,201.2"/>
	<path fill="none" stroke="#EC6608" stroke-width="5" stroke-miterlimit="10" d="M354.8,224.9c53.1-0.5,106.2-1.1,159.3-1.6"/>
	<path fill="none" stroke="#EC6608" stroke-width="5" stroke-miterlimit="10" d="M475.3,167c38.1-0.7,76.2-1.4,114.3-2.1
		c0,24.3,0,49,0,73.3c21.4,0,44.4-1.7,65.7-1.7"/>
	<path fill="none" stroke="#EC6608" stroke-width="5" stroke-miterlimit="10" d="M418.8,226.1c0,13.9,0,27.8,0,41.7
		c29.8,0,60.9,0,90.6,0"/>
	<path fill="none" stroke="#EC6608" stroke-width="5" stroke-miterlimit="10" d="M409.2,106.2c0.7,26.6,1.4,53.2,2.2,79.9"/>
	<path fill="none" stroke="#EC6608" stroke-width="5" stroke-miterlimit="10" d="M625.6,203.5c24,0,48,0,72,0"/>
	<path fill="none" stroke="#EC6608" stroke-width="5" stroke-miterlimit="10" d="M625.6,113.2c1,30,2,60.1,3,90.1"/>
	<path fill="none" stroke="#EC6608" stroke-width="5" stroke-miterlimit="10" d="M539.8,165.4c1.8,66.3,2.2,133,1.4,199.5"/>
	<path fill="none" stroke="#EC6608" stroke-width="5" stroke-miterlimit="10" d="M401.6,323.7c45.3-0.4,90.5-0.8,135.8-1.2"/>
	<path fill="none" stroke="#EC6608" stroke-width="5" stroke-miterlimit="10" d="M608.4,282c30.9-0.8,61.8-1.7,92.7-2.5"/>
	<path fill="none" stroke="#EC6608" stroke-width="5" stroke-miterlimit="10" d="M580.3,290.3c-0.7,26.1-0.5,52.1,0.6,78.2"/>
	<path fill="none" stroke="#EC6608" stroke-width="5" stroke-miterlimit="10" d="M582.1,325.1c25.6-0.7,51.1-1.3,76.7-2"/>
	<path fill="none" stroke="#EC6608" stroke-width="5" stroke-miterlimit="10" d="M408.6,139.3c37.4-1,74.7-2,112.1-3"/>
	<path fill="none" stroke="#EC6608" stroke-width="5" stroke-miterlimit="10" d="M559.8,106.2c0,19.7,0,39.4,0,59"/>
	<path fill="none" stroke="#EC6608" stroke-width="5" stroke-miterlimit="10" d="M591.1,115.1c12.3,0,24.6,0,36.9,0"/>
	<path fill="none" stroke="#EC6608" stroke-width="5" stroke-miterlimit="10" d="M658.4,168.7c12.5,0,25,0,37.6,0"/>
	<path fill="none" stroke="#EC6608" stroke-width="5" stroke-miterlimit="10" d="M656.3,102.8c0.6,23.1,1.2,46.3,1.9,69.4"/>
	<path fill="none" stroke="#EC6608" stroke-width="5" stroke-miterlimit="10" d="M485,75c0,21.2,0,42.3,0,63.5"/>
</g>
<g id="Layer_3">
</g>
</svg>
