<?xml version="1.0" encoding="utf-8"?>
<!-- Generator: Adobe Illustrator 21.1.0, SVG Export Plug-In . SVG Version: 6.00 Build 0)  -->
<svg version="1.1" xmlns="http://www.w3.org/2000/svg" xmlns:xlink="http://www.w3.org/1999/xlink" x="0px" y="0px"
	 viewBox="0 0 841.9 595.3" enable-background="new 0 0 841.9 595.3" xml:space="preserve">
<g id="Layer_2">
	<path fill="#0BBBEF" d="M167.1,8.4"/>
	<path fill="#0BBBEF" d="M265.7,506.4c-0.5-2.6-3.4-2.6-4.9-1c-2.1-1.6-4.4-2.8-6.9-3.9c-0.1-0.3-0.2-0.6-0.4-1
		c-0.6-1.4-1.9-1.7-3.1-1.3c-3.8-4.4-7.1-9.2-10-14.2c0-0.6-0.3-1.2-1-1.8c0,0,0,0,0,0c-1.5-2.7-2.8-5.4-4-8.2
		c-0.8-1.9-1.5-3.8-2.1-5.7c-0.7-4-1.5-8-2.6-11.9c0-2.4,0.1-5-0.6-7.2c-1.5-5.5-7.5-4.2-11.9-4.1c-2.2,0-3.1,2.1-2.7,3.7
		c-0.3,1.2,0.2,2.6,1.3,3.1c0.1,0.1,0.2,0.1,0.4,0.2c-1.1,5.3,2.3,14.3,3.6,18c2.2,6.4,5.3,12.3,9.1,17.9c0,0,0,0,0,0
		c0.8,3.5,4.9,11.4,9.6,15.1c0.8,0.8,1.6,1.6,2.6,2.2c0.4,0.4,0.8,0.8,1.4,1c-0.1,0.6,0,1.2,0.4,1.9c1,1.6,2.3,3,3.7,4.2
		c-1.9-0.5-3.9-1-5.8-1.5c-0.1,0-0.3-0.1-0.4-0.1c-10.1-3.6-19.5-8.6-28.3-14.9c-0.6-0.5-1.3-0.6-1.8-0.5c-3.2-6-7.9-10.7-14.1-13.9
		c0.7-2-0.7-4.3-3.3-4.6c-1.1-0.1-2.1,0.7-2.6,1.7c-0.2,0.1-0.5,0.1-0.5,0.1l-3.1,0.6c-1.9,0.4-3.8,0.7-5.8,1.1
		c-3.1,0.6-2.5,4.6,0,5.4c3.6,5.9,8.2,10.7,14.9,12.2c0.1,0.1,0.2,0.1,0.3,0.2c8.2,7.9,18.8,14.9,29.5,19.4c0.2,0.4,0.6,0.7,1.1,0.9
		c1.9,1,3.8,1.7,5.8,2.2c0.2,0.6,0.6,1.1,1.3,1.5c0.5,0.2,0.9,0.4,1.4,0.6c-0.1,0.8,0.1,1.5,0.9,2.2c2.7,2.2,5.8,3.1,8.9,3
		c0,0.4,0,0.7-0.1,1.1c-4.7,1.2-9.4,2.3-14.2,3.2c-0.5-0.4-1.1-0.7-2-0.7c-13.3,0.8-26.1-1.4-38.4-6.5c-1.4-0.6-2.5,0-3.1,1.1
		c-0.4-0.1-0.9-0.3-1.3-0.4c-0.6-0.3-1.3-0.5-2-0.6c-2.4-0.1-3.7,0.8-4.2,2.2c-0.3,0.4-0.5,0.9-0.7,1.5c-1.7-1.8-5.7-0.3-5,2.8
		c0.1,0.5,0.3,1,0.5,1.5c-0.4,0.7-0.7,1.5-0.7,2.7c-0.2,5.8,7.1,5.4,11.7,4.1c5.3,2.1,11.4,3.1,16.6,4c4.8,0.8,9.5,1.1,14.3,0.6
		c2.4,1.1,5.1,1.1,7.9,0.9c0.3,0.3,0.7,0.5,1.3,0.5c4,0.6,7.9,0.3,11.6-0.9c1.6,0.3,3.3,0,5.2-0.4c5.1-1.3,10.1-3,15-4.9
		c2.4-1,2.4-4,0.9-5.2c0.6-0.3,1-0.9,1.2-1.7c1.3-6.1,2.5-12.2,3.8-18.3c0.1-0.5,0.1-0.9,0-1.3C265.6,511.8,266.2,509.1,265.7,506.4
		z M251.9,527.5c0.1-0.1,0.3-0.1,0.4-0.2c-0.2,0.7-0.3,1.4-0.5,2.2C251.9,528.8,251.9,528.2,251.9,527.5z"/>
	<path fill="#0BBBEF" d="M329,541.4c0,0-0.1,0-0.1-0.1c1.2-1.8,1.6-4.1,0.6-6.8c-3.6-9.8-6.3-20-7.6-30.3c-0.6-5-5.2-10.6-11.1-8.3
		c-10,3.8-20.1,4.6-30.5,1.7c-7.5-2-12,5.2-10.6,10.9c-4.1,11.3-6.5,23.1-7.4,35.1c-0.5,6.6,5.4,9.2,10.5,8c1.9,1.2,4.2,1.6,6.7,0.9
		c1.3-0.4,2.4-0.9,3.4-1.5c8.6,0.5,17.3,0.9,25.9,0.6c5.2-0.2,20-0.5,21.5-6.9C330.7,543.5,330.2,542,329,541.4z"/>
	<path fill="#0BBBEF" d="M403.6,525.2c-14.2,2.3-29.8,6.7-44.8,6.3c-0.4-2.1-3.7-2.9-5.1-1.2c-1.8-0.3-6.4-3-7.4-3.5
		c-1.8-0.8-3.7-1.6-5.5-2.5c1.7-1.7,3.3-3.4,5-5.1c0.2-0.1,0.5-0.2,0.7-0.3c0.5-0.1,0.9-0.3,1.3-0.6c1.3-0.6,2.6-1.2,3.8-1.8
		c1.2,0.4,2.6,0.1,3.4-1.2c0.3-0.4,0.5-0.8,0.8-1.2c2.5,1.4,5.4-0.5,7.5-2.1c0.7-0.5,1.4-1,2-1.5c3.4,0,6.6-1.5,9.7-3.3
		c3.6-2,7.2-4,10.6-6.2c6-1.3,11.4-5.5,16.3-9.8c2.9-2.1,5.7-4.2,8.5-6.5c1.2-0.9,1.1-2.8,0.2-3.9c-0.6-1-1.9-1.7-3.1-1.5
		c-2.1-1.2-3.6-3.8-6.3-4c-2.4-0.2-3.7,0.9-5.2,2.5c-0.5,0.6-1.1,1.1-1.6,1.6c-5,3-9.5,6.7-13.9,10.5c-3.8,0.9-7.4,3.4-10.7,5.4
		c-0.7,0.4-1.3,0.8-2,1.2c-0.4-0.1-0.8-0.2-1.2-0.2c-6.4,0.8-14.1,6.3-20.6,4.8c0.6-1,1.1-2,1.6-3c0.6-0.7,1.1-1.4,1.6-2
		c0.4-0.1,0.8-0.3,1.1-0.7c1.7-1.5,2.7-3.1,3.6-5c1.9-2.3,3.3-5.4,4.4-7.9c1.7-2.7,3.1-5.5,4.3-8.4c2.9-4.5,5.4-9.1,7.5-14.1
		c1.8-4.3,4.9-10.1,3.3-14.7c0.3-2.1-1.7-3.4-3.7-3.1c-2.6,0.4-4.8,0.5-7.4,0.4c-1.7-0.1-2.7,1.4-2.9,2.9c-0.2,1.7-0.5,3.3-0.9,4.9
		c-1.3,3.4-2.5,6.8-3.8,10.2c-0.2,0.6-0.2,1.1-0.1,1.6c-0.5,1.3-1,2.6-1.4,3.9c-0.7,1.2-1.4,2.3-2.1,3.4c-0.9,0.2-1.6,0.8-2,1.8
		c-0.5,1.2-1,2.4-1.6,3.6c-0.9,1.2-1.7,2.4-2.7,3.5c-0.6,0.2-1.2,0.6-1.6,1.3c-0.7,1.1-1.4,2.2-2.2,3.2c-0.6,0.7-1.1,1.3-1.7,2
		c-0.8,0.9-1,1.9-0.7,2.8c-0.6,0.6-1.1,1.2-1.7,1.8c-2.7,1.9-4.9,4.2-6.9,6.8c-0.3,0.1-0.6,0.2-0.8,0.4c-1.1-0.3-2.4,0-3.2,1.1
		c-2,2.6-1.4,5.6-0.2,8.4c1,2.3,2,4.6,2.8,6.9c0.1,0.9,0.2,1.8,0.4,2.7c0.1,0.4,0.3,0.7,0.5,1c-0.7,0.6-1.2,1.6-0.9,2.8
		c1,4.1,1.9,8.3,2.9,12.4c0.6,2.6,1.7,5.6,4.9,5.2c5.5,10.3,19.5,10.6,30,10.3c13.8-0.4,28.2-2.7,41.6-6.1
		C418.7,538.6,414,523.6,403.6,525.2z"/>
</g>
<g id="Layer_1">
	<text transform="matrix(1.104000e-02 -0.9999 0.9999 1.104000e-02 734.9245 505.0326)" font-family="'INGMe'" font-size="12px">© Beryl Ho (ING)</text>
	<path fill="none" stroke="#000000" stroke-width="7" stroke-miterlimit="10" d="M339.1,450.7c2.6,18.9-9.7,38.9-27.6,45.3
		c-5.4,1.9-11.1,2.7-16.7,3c-5.2,0.2-10.5,0-15.6-1.2c-15-3.6-27.3-16.3-30.6-31.5c-3.4-15.2,2.2-32.1,13.9-42.4
		C287.7,401.6,334.4,416.1,339.1,450.7z"/>
	<path fill="none" stroke="#000000" stroke-width="5" stroke-miterlimit="10" d="M312.4,469.2c-0.7,7.8-7.6,14.5-15.2,14.8
		s-15.1-5.8-16.3-13.4"/>
	<path fill="none" stroke="#575756" stroke-width="7" stroke-miterlimit="10" d="M341.6,502.7c17.1-1.8,33.6-9.1,46.6-20.2
		c13.1-11.2,14.4-24.9,23.5-38.6c2.5-3.7,7.3-7.6,10.9-4.9c-2.8,6.1-5.5,12.1-8.3,18.2c6.1-2.9,13.6,3.6,13.3,10.3s-6.5,12-13,13.7"
		/>
	<path fill="none" stroke="#706F6F" stroke-width="7" stroke-miterlimit="10" d="M398.5,472.5c7.5,2.4,14.3,6.8,19.6,12.6"/>
	<path fill="none" stroke="#575756" stroke-width="7" stroke-miterlimit="10" d="M352.4,516.4c24.2-4.3,46.7-16.9,62.9-35.1"/>
	<path fill="none" stroke="#000000" stroke-width="7" stroke-miterlimit="10" d="M342.3,523.7c15.9,6.5,33.9,7.8,50.7,4.2
		c16.9-3.7,24.6-15.1,39.3-22.9c4-2.1,10.1-3.2,11.9,0.8c-5.4,4-10.7,8.1-16.1,12.1c6.8,0.3,10.3,9.6,6.7,15.3s-11.5,7.5-18,5.9"/>
	<path fill="none" stroke="#000000" stroke-width="7" stroke-miterlimit="10" d="M406.9,524c5.4,5.6,9.3,12.7,11.1,20.3"/>
	<path fill="none" stroke="#000000" stroke-width="7" stroke-miterlimit="10" d="M345.2,540.8c23.3,7.6,49.2,7.2,72.2-1.2"/>
	<path fill="none" stroke="#878787" stroke-width="7" stroke-miterlimit="10" d="M325.6,496.9c13.7-10.3,24-24.9,29.3-41.1
		c5.4-16.3-0.6-28.6,0-45.1c0.2-4.5,2.3-10.3,6.8-9.8c0.8,6.6,1.6,13.2,2.4,19.8c3.7-5.6,13.6-3.9,16.7,2c3.2,5.9,0.7,13.6-4,18.4"
		/>
	<path fill="none" stroke="#878787" stroke-width="7" stroke-miterlimit="10" d="M358.6,442c7.7-1.8,15.8-1.5,23.3,0.8"/>
	<path fill="none" stroke="#878787" stroke-width="7" stroke-miterlimit="10" d="M342,503.1c18.5-16,31.2-38.3,35.5-62.2"/>
	<path fill="none" stroke="#000000" stroke-width="5" stroke-miterlimit="10" d="M264.2,430.3c-1.3,1.8-2.4,3.7-2.9,5.8
		c-1.9,7.4,4.8,15.2,12.5,15.6c7.7,0.4,14.8-5.6,16.7-13c0.7-2.5,0.8-5.3-0.2-7.7C285.4,419.4,270.2,421.8,264.2,430.3z"/>
	<path fill="none" stroke="#000000" stroke-width="5" stroke-miterlimit="10" d="M290.5,435.1c-0.2,5.3,2.7,10.7,7.2,13.6
		c6.7,4.2,16.8,2.1,20.6-4.7C328.6,425.1,291.4,408.9,290.5,435.1z"/>
	<path fill="none" stroke="#000000" stroke-width="5" stroke-miterlimit="10" d="M250.9,443.3c2.8-0.8,5.5-1.7,8.3-2.5"/>
	<path fill="none" stroke="#000000" stroke-width="5" stroke-miterlimit="10" d="M319.5,429.5c1.7-1.3,3.5-2.7,5.2-4"/>
	<path fill="none" stroke="#000000" stroke-width="5" stroke-miterlimit="10" d="M303.6,428.8c-1.2,0.7-1.5,2.5-0.6,3.5
		c0.9,1,2.8,1,3.6-0.1c0.9-1.1,0.2-3.1-1.2-3.3c-1.4-0.2-2.6,1.9-1.5,2.9c1.1,1,3.1-0.8,2.2-1.9c-0.4-0.2-0.8-0.4-1.2-0.6"/>
	<path fill="none" stroke="#000000" stroke-width="5" stroke-miterlimit="10" d="M275.5,429.5c-1.2,0.7-1.5,2.5-0.6,3.5
		c0.9,1,2.8,1,3.6-0.1c0.9-1.1,0.2-3.1-1.2-3.3c-1.4-0.2-2.6,1.9-1.5,2.9c1.1,1,3.1-0.8,2.2-1.9c-0.4-0.2-0.8-0.4-1.2-0.6"/>
	<path fill="none" stroke="#575756" stroke-width="7" stroke-miterlimit="10" d="M250,511.7c-17.1-3.5-33-12.3-45.1-24.7
		c-12.1-12.4-12.1-26.1-19.9-40.7c-2.1-3.9-6.6-8.3-10.5-5.9c2.2,6.3,4.4,12.6,6.5,18.9c-5.9-3.5-14.2,2.3-14.5,8.9
		c-0.3,6.7,5.3,12.5,11.8,14.9"/>
	<path fill="none" stroke="#575756" stroke-width="7" stroke-miterlimit="10" d="M195.5,476.1c-7.8,1.7-15.2,5.3-21.1,10.6"/>
	<path fill="none" stroke="#575756" stroke-width="7" stroke-miterlimit="10" d="M237.7,524.3c-24-6.6-45.6-21.4-60.1-41.1"/>
	<path fill="none" stroke="#000000" stroke-width="7" stroke-miterlimit="10" d="M248.5,529.3c-16.8,4.9-35.1,4.5-51.7-0.8
		c-16.7-5.3-23.4-17.4-37.4-26.6c-3.8-2.5-9.9-4.2-12.2-0.3c5,4.5,10,9.1,15,13.6c-6.9-0.3-11.4,8.6-8.3,14.6c3,6,10.8,8.6,17.7,7.6
		"/>
	<path fill="none" stroke="#000000" stroke-width="7" stroke-miterlimit="10" d="M183.1,523.2c-6.1,5.1-10.7,11.7-13.3,19.1"/>
	<path fill="none" stroke="#000000" stroke-width="7" stroke-miterlimit="10" d="M243.8,547c-24.3,5.3-50.5,2.3-72.9-8.3"/>
	<path fill="none" stroke="#878787" stroke-width="7" stroke-miterlimit="10" d="M259.8,505.4c-12.8-11.6-21.8-27.1-25.5-43.8
		c-3.8-16.7,3.6-28.4,4.6-44.9c0.3-4.4-1.3-10.4-5.9-10.4c-1.5,6.5-3,13-4.4,19.5c-3.2-5.9-13.3-5.2-17.1,0.4s-2.1,13.4,2.2,18.7"/>
	<path fill="none" stroke="#878787" stroke-width="7" stroke-miterlimit="10" d="M232,447.5c-7.6-2.5-15.8-3-23.7-1.5"/>
	<path fill="none" stroke="#878787" stroke-width="7" stroke-miterlimit="10" d="M242.5,510c-17.1-17.7-27.7-41.2-29.6-65.4"/>
	<path fill="none" stroke="#000000" stroke-width="7" stroke-miterlimit="10" d="M273.1,496.7c-6.2,15.8-9.5,32.6-9.7,49.5"/>
	<path fill="none" stroke="#000000" stroke-width="7" stroke-miterlimit="10" d="M317.7,494.4c7.3,16,12.2,33.1,14.6,50.5"/>
	<path fill="none" stroke="#000000" stroke-width="4" stroke-miterlimit="10" d="M123.2,429.3c-23.6,23.5-32.8,60.1-23,91.8"/>
	<path fill="none" stroke="#000000" stroke-width="4" stroke-miterlimit="10" d="M145.5,424.9c-13.1,14.8-21.8,33.2-25.1,52.6
		c-1,5.7-1.3,11.9,1.5,17"/>
	<path fill="none" stroke="#000000" stroke-width="4" stroke-miterlimit="10" d="M435.8,416c11.5,9.3,19.1,23.2,20.5,37.7"/>
	<path fill="none" stroke="#000000" stroke-width="4" stroke-miterlimit="10" d="M460.1,420.7c11.9,15,15.7,35.8,10,54"/>
	<path fill="none" stroke="#000000" stroke-width="7" stroke-miterlimit="10" d="M448.9,176.1c29.9-4,60.7-8,90-0.7"/>
	<path fill="none" stroke="#000000" stroke-width="7" stroke-miterlimit="10" d="M519.3,153.7c6.9,7.1,13.8,14.2,20.7,21.3"/>
	<path fill="none" stroke="#000000" stroke-width="7" stroke-miterlimit="10" d="M513,194.4c9-6.6,17.5-13.9,25.3-21.8"/>
	<path fill="#0BBBEF" d="M681.1,164.7c-1-8.2-2-16.5-3-24.7c-0.5-3.8-0.3-10.1-5.5-10.2c-3.2-0.1-3.2,4.9,0,5c0.3,0,3.2,27.7,3.5,30
		C676.5,167.8,681.5,167.9,681.1,164.7z"/>
	<path fill="#0BBBEF" d="M665.8,174.8c-1.5-2.8-5.9-0.3-4.3,2.5c5.7,10.4,7.7,22.1,5.7,33.8c-0.5,3.1,4.3,4.5,4.8,1.3
		C674.3,199.4,672.2,186.4,665.8,174.8z"/>
	<path fill="#0BBBEF" d="M659.7,224.6c-1.5-2.8-5.8-0.3-4.3,2.5c5.2,9.7,7.2,20.2,6.1,31.2c-0.3,3.2,4.7,3.2,5,0
		C667.7,246.5,665.3,235,659.7,224.6z"/>
	<path fill="#B2B2B2" d="M668.5,207.2c-9.8-2.9-19.9-3.7-30.1-2.4c-3.2,0.4-3.2,5.4,0,5c9.8-1.2,19.3-0.5,28.8,2.3
		C670.2,212.9,671.6,208.1,668.5,207.2z"/>
	<path fill="#B2B2B2" d="M675.7,163.5c-10.1-3-20.4-3.9-30.8-2.7c-3.2,0.4-3.2,5.4,0,5c10-1.2,19.8-0.4,29.5,2.5
		C677.5,169.3,678.8,164.4,675.7,163.5z"/>
	<path fill="#B2B2B2" d="M661.8,255.7c-9.3-3.8-19.2-5.1-29.1-3.8c-3.1,0.4-3.2,5.4,0,5c9.6-1.2,18.9,0,27.8,3.7
		C663.5,261.8,664.7,256.9,661.8,255.7z"/>
	<path fill="#F39200" d="M671.2,129.4l-25.3,31.5c-2,2.5,1.5,6,3.5,3.5c8.4-10.5,16.9-21,25.3-31.5
		C676.7,130.4,673.2,126.8,671.2,129.4z"/>
	<path fill="#F39200" d="M660.1,175.9c-7.5,8.5-15,17-22.5,25.4c-2.1,2.4,1.4,6,3.5,3.5c7.5-8.5,15-17,22.5-25.4
		C665.7,177,662.2,173.5,660.1,175.9z"/>
	<path fill="#F39200" d="M652,223.1c-9,8.1-17.1,17.1-24.4,26.8c-1.9,2.6,2.4,5.1,4.3,2.5c7-9.4,14.9-18,23.6-25.8
		C657.9,224.5,654.4,220.9,652,223.1z"/>
	<path fill="#B2B2B2" d="M703,291.9c-20.9-4.6-41.9-8.1-63.1-10.8c-10.3-1.3-20.5-2.3-30.9-3.1c-5.5-0.4-11-0.8-16.4-1
		c-2.9-0.1-6,0-8.8-0.6c2.3-1.3,3.6-3.8,3.9-6.6c7.4-63.6,23.6-126.1,47.6-185.5c1.5-3.8-1.7-8.2-5.2-9.2c-4.3-1.2-7.7,1.5-9.2,5.2
		c-24.6,60.7-40.6,124.5-48.1,189.5c-0.2,1.4,0.2,2.7,1,3.8c-4.8,1.8-7.3,9.9-1.6,13.9c8,5.7,19.9,4.3,29.2,4.9
		c11,0.7,21.9,1.7,32.8,2.9c21.8,2.5,43.4,6.2,64.9,10.9C708.4,308.4,712.4,294,703,291.9z"/>
	<path fill="none" stroke="#000000" stroke-width="8" stroke-miterlimit="10" d="M700,288.8c-37.9-10.3-77.6-14.3-116.7-11.1
		c2.6-19.3,5.7-38.6,9.3-57.8c9-47.9,21.4-95.7,43.9-138.9c35.4-4.7,71.3-1.7,105.6,8.3"/>
	<path fill="none" stroke="#000000" stroke-width="8" stroke-miterlimit="10" d="M742.1,87.6c-8.2,21.8-16.2,43.8-22.3,66.3
		c-11.9,44.4-16.1,90.5-20.1,136.3"/>
	<path fill="none" stroke="#000000" stroke-width="3" stroke-miterlimit="10" d="M676.7,167.3c-9.2-4.4-19.4-6.5-29.9-5.5
		c8.1-9.7,16.1-19.5,24.1-29.4C674.9,142.6,677,155.6,676.7,167.3z"/>
	<path fill="none" stroke="#000000" stroke-width="3" stroke-miterlimit="10" d="M668.7,211.2c-9.2-4.4-19.4-6.5-29.9-5.5
		c8.1-9.7,16.1-19.5,24.1-29.4C666.9,186.5,669,199.5,668.7,211.2z"/>
	<path fill="none" stroke="#000000" stroke-width="3" stroke-miterlimit="10" d="M661.7,259.3c-9.2-4.4-19.4-6.5-29.9-5.5
		c8.1-9.7,16.1-19.5,24.1-29.4C659.9,234.6,662,247.6,661.7,259.3z"/>
	<path fill="#EC6608" d="M748.3,272.1c-0.3-1.5-1.5-2-2.6-1.7c-0.2-0.4-0.5-0.7-0.8-1c0.9-3,1.3-6.2,1-9.4c-0.1-1.4-1.2-2.2-2.3-2.4
		c0-0.1-0.1-0.2-0.1-0.2c-0.1-0.4-0.1-0.7-0.2-1.1c-0.3-1.3-1.8-2.1-3.1-1.7c0,0-0.1,0-0.1,0c-0.6-1.1-1.3-2.1-1.9-2.6
		c0-0.8-0.3-1.5-1-2.1c-0.9-2.1-2.2-4.1-3.9-5.8c-1.4-1.4-3.2-0.7-3.9,0.7c-1-0.7-2-1.3-3-2c-0.8-0.5-1.6-0.5-2.2-0.2
		c-1-0.5-2.1-1-3.1-1.3c-2.3-0.7-4,0.1-6.4,0.2c0,0,0,0,0,0c-0.2,0-0.4,0-0.7,0.1c-0.8,0.1-1.3,0.6-1.6,1.3c-0.3,0-0.7,0-1,0
		c-1.5-0.2-3-0.4-4.5-0.7c-0.9-0.2-1.6,0-2.1,0.5c-0.7-0.2-1.6-0.1-2.3,0.6c-0.7,0.6-1.4,1.4-2.2,2.2c-0.5-0.3-1.2-0.4-1.8-0.2
		c-1.2,0.3-2.2,1-3.1,1.8c-0.2,0-0.5,0-0.7,0.1c-0.9-0.3-2-0.2-2.7,0.5c-2.3,2.5-3.8,5.1-4.6,8.1c-0.3,0.4-0.5,0.8-0.7,1.2
		c-1.1,0.2-2.2,0.9-2.3,2.4c-0.1,1.2-0.2,2.4-0.3,3.5c-2.4,3.4-5.2,8.3-4.8,12.3c0.1,1.3,0.7,2.3,1.5,3c-1.4,1.7-2.6,3.7-2.6,5.6
		c-0.1,2.2,1.6,3.5,3.5,3.8c0.1,0.1,0.2,0.2,0.3,0.2c0.9,0.5,1.8,0.8,2.5,0.9c0.2,0.4,0.3,0.8,0.6,1.2c-0.6,2.6-0.6,5.2,0.9,7
		c0.4,0.5,1.2,0.8,1.9,0.7c0.3,0.6,0.7,1.1,1.1,1.5c-0.4,0.1-0.8,0.3-1.1,0.6c-0.9,0.9-1,2.7,0,3.5c1.9,1.6,4.4,2.3,6.8,1.5
		c0.8-0.3,1.4-0.8,1.7-1.6c0,0,0,0,0,0c1,0.6,2.2,1,3.2,1c0.8,0.8,1.8,1.4,2.8,1.7c2.4,0.9,5.9,1,8.4-0.4c0.2,0.1,0.4,0.2,0.6,0.2
		c1.2,0.4,2.5,0.7,3.8,0.7c0.2,0.1,0.3,0.2,0.5,0.2c3.1,0.9,6.5,0.1,8.8-2.2c0.2-0.2,0.4-0.5,0.5-0.7c0.2-0.1,0.4-0.2,0.5-0.3
		c0.9-0.2,1.8-0.5,2.5-0.8c0.9-0.4,1.8-0.9,2.6-1.5c4.5-0.8,8.3-5.1,11-9.1c1-0.9,1.8-2,2.3-3.1c0.4-0.5,0.6-1.2,0.5-1.9
		c0-0.5,0-1-0.2-1.4c0-0.5,0.1-0.9,0.3-1.5c0.1-0.4,0.1-0.8,0-1.2c0.3-0.4,0.7-0.8,1-1.2c0.4-0.4,0.7-0.8,1-1.3
		C748.1,277.9,748.9,275.3,748.3,272.1z M735.5,270.1c-1.4,2.7-1.1,6.8-0.9,9.7c0,0,0,0,0,0c-0.6,1.1-1.1,2.3-1.1,3.5
		c0,0.1,0,0.3,0,0.4c-1.3,1-2.5,2.4-2.7,4c-0.6,0.6-1.1,1.3-1.5,2c-4.9,2.6-9.9,4.8-15.1,6.7c-1.3-0.3-2.7-0.5-4.1-0.6
		c-1.3-0.7-2.7-1-4.1-1.1c-0.4,0-1,0-1.6,0c-0.4-0.2-0.8-0.5-1.2-0.8c-1.8-1.4-3.2-2.7-5.6-2.8c-0.4-1.7-1.4-3-3.2-3.3
		c-0.1-0.6-0.4-1.2-0.8-1.8c1.1-0.8,1.7-2.5,0.4-3.8c-0.5-0.6-1-1.2-1.5-1.8c-0.2-0.5-0.5-1-0.8-1.3c-0.3-0.5-0.5-0.9-0.7-1.4
		c-0.3-0.8-0.9-1.4-1.6-1.7c0.1-0.1,0.1-0.2,0.2-0.3c2.3-5.6,4.5-11.2,6.6-16.8c0,0,0-0.1,0-0.1c0.3-0.2,0.5-0.3,0.8-0.5
		c0.6-0.5,1.3-1.2,1.9-2c0.9,0.2,1.8,0.2,2.8,0c0.9-0.2,2.8-1.2,4.8-2.5c1.6,0.1,3.1,0,4.1-0.2c1-0.1,1.7-0.7,2.1-1.5
		c2.2,0.3,4.4,0.2,6.6,0.2c0.3,0.2,0.6,0.3,1,0.4c2.7,0.6,6.1,1.5,8.8,3.1c0,0,0,0,0,0c2.6,4.2,5,8.5,7.3,12.9
		C736.2,269.1,735.8,269.6,735.5,270.1z"/>
	<path fill="#706F6F" d="M701.3,310c-0.5-2.6-4.8-2.4-5,0.6c-0.3,7.4-5.9,15.3-9.5,21.5c-0.8,1.4-0.1,2.7,0.9,3.3
		c-0.9,2.1-1.7,4.2-2.5,6.3c-0.5,0.5-0.8,1.1-0.9,1.9c0,0.3,0,0.7,0,1c0,0.3,0.1,0.6,0.2,0.8c0.4,0.9,1.1,1.7,1.9,2.2
		c1.4,0.9,3,0.9,4.6,0.7c1.4-0.2,2.4-1,2.5-2.5c0-0.4,0-0.8,0.1-1.3c0-0.9-0.5-1.7-1.2-2.1c0-0.1,0.1-0.1,0.1-0.2
		c0.1-0.2,0.3-0.4,0.4-0.7l0.7-1.9c1.5-3.4,2.9-6.7,4.2-10.1c0.2-0.4,0.2-0.8,0.2-1.2c2-5.1,4-10.3,6-15.4
		C704.7,311,702.9,309.8,701.3,310z"/>
	<path fill="#C6C6C6" d="M705.3,313.3c-1.1,3-2.1,6-3.1,9c-0.6,0.3-1,0.8-1.2,1.6c-0.4,1.9-0.8,3.8-1.1,5.7c-0.5,1.8-1,3.6-1.5,5.4
		c-1-0.3-2.1,0-2.7,1.1c-1.2,2.1-1.8,4.2-2,6.6c-0.2,1.3,1.3,2.5,2.5,2.5c0,0,0.1,0,0.1,0c-0.4,2.7-0.7,5.4-0.9,8.2
		c-0.2,3.2,4.8,3.2,5,0c0-0.1,0-0.3,0-0.4c0.4-0.1,0.8-0.3,1.2-0.5c0.2-0.2,0.5-0.4,0.7-0.6c1.2-1,1-2.3,0.1-3.2
		c0.5-6.1,1.2-12.1,2.3-18.1c1.6-5.3,3.5-10.6,5.4-15.8C711.2,311.6,706.4,310.3,705.3,313.3z"/>
	<path fill="#FFFFFF" d="M734.4,273.7c-0.1-0.5-0.2-1.1-0.3-1.7c1.2-6-2.6-14.3-7.4-16.9c-4.2-2.3-9.7-1.6-14.2-1.2
		c-5.4,0.6-10.5,2-15,5.1c-1.6,1.1-1.3,3.1-0.2,4.2c-3.3,3.1-5.5,7.3-5,11.8c0.4,3.2,1.9,6.3,4.2,8.6c0.2,0.7,0.6,1.4,1.1,2.1
		c0.1,0.3,0.2,0.6,0.5,1c5.7,7.6,16.7,9.7,24.5,3.9C730.3,289.6,735.4,282,734.4,273.7z M724.8,260c0.9,0.6,1.6,1.3,2.2,2.4
		c-0.2,0-0.3-0.1-0.5-0.1C725.9,261.5,725.4,260.7,724.8,260z M726.7,276.9c0.1-0.4,0.1-0.8,0.2-1.2c0.3-0.4,0.5-0.8,0.7-1.2
		C727.4,275.2,727.1,276.1,726.7,276.9z"/>
	<path fill="none" stroke="#000000" stroke-width="4" stroke-miterlimit="10" d="M697.9,259.3c-5.3,5.2-7.5,13.2-5.5,20.3
		s8.2,12.8,15.6,14.7c7.4,1.8,15.8-0.4,21.1-5.7c1.6-1.6,3-3.5,3.8-5.6c0.9-2.2,1.4-4.5,1.6-6.8c0.7-5.5,0.5-11.6-3.2-15.9
		C723.4,250.7,706.4,250.8,697.9,259.3z"/>
	<path fill="none" stroke="#000000" stroke-width="5" stroke-miterlimit="10" d="M704.4,308.3c2.6,0.5,5.5-0.9,6.6-3.3
		c2.6,2.1,5.9,3.7,9.3,3.4s6.6-2.9,6.9-6.3c4.6,2.3,11-1.7,11.1-6.8c3.1-0.7,6.3-2.3,7.9-5c1.6-2.8,1-6.9-1.8-8.4
		c2.4-2,4.4-4.8,4.8-7.9c0.4-3.1-1.3-6.6-4.3-7.5c1.6-2.6,2.8-5.6,2-8.6s-4.1-5.3-6.8-3.9c0.8-6.1-6-11.9-11.9-10.1
		c-3.1-4.9-10.7-6-15.2-2.3c-4.4-2.7-11.1-0.4-12.8,4.5c-2.5-1.7-6.1-1.8-8.7-0.1c-2.6,1.7-4,5-3.5,8c-5,0.9-7.4,8-4,11.8
		c-2.8-0.3-5.7,1.8-6.2,4.6c-0.6,2.8,1.3,5.8,4,6.6c-2.8,1.1-4.6,4.3-4.2,7.3s3.1,5.5,6.1,5.7c-1.1,1.3-0.9,3.6,0.4,4.7
		c1.3,1.2,3.5,1,4.7-0.2c-2.1,2.8-1.3,7.3,1.6,9.3c3.1,2.1,5-0.6,7.6-0.1C700.6,304.1,701.1,307.6,704.4,308.3z"/>
	<path fill="none" stroke="#000000" stroke-width="5" stroke-miterlimit="10" d="M713.9,308.5c-1.1,0.1-1.7,1.2-2.1,2.2
		c-3,7.7-4.3,15.9-5.6,24.1c-0.9,5.7-0.4,13.1-1.3,18.7c-7.5-1.5-15-3.3-22.3-5.3c-0.6-0.2-2.5,0.6-2.2,0
		c6.7-14.3,12.5-29.1,17.1-44.2"/>
	<path fill="none" stroke="#000000" stroke-width="5" stroke-miterlimit="10" d="M706.7,348.4c4.4-1,8.1-0.3,12.6-0.6
		c-3.3-12.3-4.3-25.2-2.9-37.9"/>
	<path fill="none" stroke="#000000" stroke-width="4" stroke-miterlimit="10" d="M705.4,309c-5.6,13.1-10,26.6-13.2,40.5"/>
	<path fill="none" stroke="#EC6608" stroke-width="4" stroke-miterlimit="10" d="M644.6,92.4c0.8,7.9-0.3,15.9-3.2,23.3"/>
	<path fill="none" stroke="#EC6608" stroke-width="4" stroke-miterlimit="10" d="M644.2,93c2.7,3.2,4.9,6.7,6.6,10.6"/>
	<path fill="none" stroke="#EC6608" stroke-width="4" stroke-miterlimit="10" d="M651.4,102.9c1.3-3.8,4.3-7.1,7.9-8.8"/>
	<path fill="none" stroke="#EC6608" stroke-width="4" stroke-miterlimit="10" d="M659.4,92.6c-2.3,7.7-3.5,15.6-3.8,23.6"/>
	<path fill="none" stroke="#EC6608" stroke-width="4" stroke-miterlimit="10" d="M668.4,94.5c-2.5,6.6-3.9,13.7-4.1,20.9
		c2.7,1.4,6.6,2.3,9.5,2.9"/>
	<path fill="none" stroke="#EC6608" stroke-width="4" stroke-miterlimit="10" d="M667.6,96.4c3.3,0.3,6.7,1.3,9.8,2.8"/>
	<path fill="none" stroke="#EC6608" stroke-width="4" stroke-miterlimit="10" d="M666.6,105.3c2.5,0.9,5,1.8,7.6,2.8"/>
	<path fill="none" stroke="#EC6608" stroke-width="4" stroke-miterlimit="10" d="M685.4,96.9c-1.1,7.5-2.2,15.1-3.3,22.6"/>
	<path fill="none" stroke="#EC6608" stroke-width="4" stroke-miterlimit="10" d="M684.6,98.8c2,2.8,2.8,6.2,4,9.4
		c1.4,4,3.2,7.8,5.4,11.4"/>
	<path fill="none" stroke="#EC6608" stroke-width="4" stroke-miterlimit="10" d="M698,96.8c-1.6,8.3-2.7,16.6-3.4,25"/>
	<path fill="none" stroke="#EC6608" stroke-width="4" stroke-miterlimit="10" d="M707.3,100.8c-1.8,4.5-2.6,9.4-2.3,14.2
		c0.1,1.9,0.4,3.8,1.5,5.3c1.1,1.5,3.3,2.3,4.9,1.4c0.8-0.4,1.3-1.2,1.8-1.9c3.2-5,4.6-11.1,3.8-16.9"/>
	<g>
		<path fill="#B2B2B2" d="M162.5,105.2c-13-1.2-26.1,1-38,6.4c-2,0.9-0.6,4.1,1.5,3.2c11.4-5.2,23.7-7.2,36.2-6.1
			C164.4,108.9,164.7,105.4,162.5,105.2z"/>
		<g>
			<path fill="#B2B2B2" d="M162.5,102.7c-11.4-0.9-22.9,0.4-33.7,4.4c-2.7,1-7.4,2-7.7,5.6c-0.2,2.6,1.8,4.6,4.3,4.7
				c2.1,0,4.3-1.5,6.2-2.2c2.8-1,5.6-1.9,8.5-2.5c6.1-1.4,12.3-1.9,18.6-1.7c2.9,0.1,6.7,0.9,7.7-2.8c0.7-2.6-0.9-4.6-3.2-5.3
				c-3.1-1-4.4,3.8-1.3,4.8c-0.4-1.2-1.2-1.8-2.3-1.6c-0.9-0.1-1.8-0.1-2.7-0.1c-1.2,0-2.4,0-3.5,0c-2.9,0.1-5.7,0.4-8.6,0.8
				c-2.9,0.4-5.8,1-8.6,1.8c-1.8,0.5-8.1,1.6-9.2,3.2c-1.3,2,5.4-0.5,6.5-0.8c2.8-0.9,5.7-1.6,8.6-2.2c6.8-1.3,13.6-1.5,20.5-0.9
				C165.7,108,165.6,103,162.5,102.7z"/>
		</g>
	</g>
	<g>
		<path fill="#F39200" d="M133,71.4c-2.6,12.4-5.5,24.8-8.9,37.1c-0.6,2.2,2.7,3.4,3.3,1.2c3.4-12.6,6.5-25.2,9.1-38
			C136.9,69.5,133.4,69.2,133,71.4z"/>
		<g>
			<path fill="#F39200" d="M130.5,70.7c-2.5,11.8-5.5,23.5-8.4,35.2c-0.7,2.7-1.1,5.7,2.1,7c2.5,1,4.5-0.4,5.5-2.6
				c2.3-5.1,3.1-11.6,4.4-17c1.5-6,2.8-12,4.1-18.1c0.6-2.7,1.5-5.9-1.6-7.4c-2.3-1.1-4.9,0.1-5.9,2.3c-1.3,2.9,3,5.4,4.3,2.5
				c-1.2-0.2-1.8,0.2-1.7,1.2c-0.1,0.6-0.3,1.3-0.4,1.9c-0.3,1.6-0.7,3.2-1,4.8c-0.7,3.2-1.4,6.3-2.2,9.5c-0.7,2.8-1.4,5.7-2.1,8.5
				c-0.4,1.6-0.8,3.2-1.2,4.7c-0.3,1.2-1.8,3.7-0.2,3.9c1.6,0.1,2.3-5.6,2.7-7.3c0.8-3.1,1.6-6.2,2.3-9.2c1.5-6.2,2.9-12.4,4.2-18.6
				C136,68.9,131.2,67.6,130.5,70.7z"/>
		</g>
	</g>
	<g>
		<path fill="#0BBBEF" d="M163,102.4c-5.2-12.9-13.7-24.9-25.5-32.7c-1.9-1.2-3.9,1.6-2,2.9c5.7,3.8,10.2,8.9,14.6,14.1
			c4.4,5.2,7.2,10.9,9.7,17.2C160.7,105.9,163.9,104.4,163,102.4z"/>
		<g>
			<path fill="#0BBBEF" d="M165.5,101.7c-4-9.8-9.5-18.9-17.1-26.4c-2.6-2.6-7.2-7.8-11.1-8.4c-2.8-0.4-5.3,2-4.9,4.8
				c0.2,1.3,0.9,2,1.9,2.9c2.6,2.3,5.4,4.2,7.9,6.7c4.3,4.4,8.5,9.2,11.4,14.6c1.7,3.1,2.9,10.4,7,11.2c3,0.5,5.3-2.1,4.9-4.9
				c-0.4-3.2-5.4-3.2-5,0c1.4-0.4,1.5-1.1,0.5-2.3c-0.1-0.2-0.2-0.4-0.3-0.6c-0.8-1.8-1.6-3.5-2.5-5.2c-1.5-2.8-3.1-5.4-5.1-7.9
				c-3.6-4.6-8.4-11.2-13.6-14c-2.4-1.3-2-0.2-0.7,1.3c1.1,1.2,3,2.4,4.3,3.6c2.3,2.1,4.4,4.4,6.4,6.8c4.6,5.7,8.3,12.2,11.1,19
				C161.8,106,166.7,104.7,165.5,101.7z"/>
		</g>
	</g>
	<path fill="#B2B2B2" d="M181.1,124.8c-22.9-1.8-45.5,4-67.4,10.2c-2.4-15.7-5.7-31.3-9.9-46.6c-2.2-8.2-4.7-16.3-7.5-24.3
		c-1.4-4-2.8-8-4.3-12c-1.3-3.4-2.3-7.7-5.2-10c-1.6-1.2-3.7-1.5-5.3,0c-1.3,1.3-1.6,4.1,0,5.3c1.3,1,1.7,2.5,2.3,4
		c0.7,1.8,1.3,3.5,2,5.3c1.4,3.8,2.8,7.7,4.1,11.5c2.6,7.9,5,15.8,7.2,23.9c4.3,15.9,7.6,32.1,9.9,48.4c0.1,0.9,0.8,1.7,1.5,2.1
		c0.8,0.7,1.9,1,3.2,0.6c22.5-6.4,45.6-12.9,69.3-11C185.9,132.6,185.9,125.1,181.1,124.8z"/>
	<path fill="none" stroke="#000000" stroke-width="5" stroke-miterlimit="10" d="M182,124c-22.6-0.8-47.8,2.9-68.2,10.8
		c-5.8-31-14.5-61.6-26.1-91.5c21.5-3.9,42.1-6.3,64.2-4.8"/>
	<path fill="none" stroke="#000000" stroke-width="5" stroke-miterlimit="10" d="M152.8,39.2c12.5,27.9,22.3,56.6,29.2,85.7"/>
	<path fill="none" stroke="#000000" stroke-width="3" stroke-miterlimit="10" d="M81.8,46.3c11,29.9,19.2,60.8,24.3,92.2"/>
	<path fill="none" stroke="#000000" stroke-width="3" stroke-miterlimit="10" d="M117.4,140.6c17.2-6.4,35.4-10.4,53.7-11.7"/>
	<path fill="none" stroke="#000000" stroke-width="2" stroke-miterlimit="10" d="M161.9,104.6c-13.3-0.6-26.7,1.6-38.7,7.3
		c4.5-13.7,8.8-27.5,13-41.3C146.6,79.6,156,92.2,161.9,104.6z"/>
	<path fill="none" stroke="#EC6608" stroke-miterlimit="10" d="M107.4,63.5c0,0.3,0,0.6,0,0.9c-0.1-3.3-0.2-6.6-0.3-10
		c0.7-0.6,1.6-0.8,2.4-0.8c0.9,0.1,1.2,1.2,0.7,2.1c-0.5,0.9-1.4,1.6-2.3,2.2c1.5,1.2,3.1,2.3,4.7,3.4"/>
	<path fill="none" stroke="#EC6608" stroke-miterlimit="10" d="M118.8,60.6c-1.3,0.6-2.6,1.2-4,1.7c-0.3-3-0.4-6-0.4-9
		c1-0.4,1.6-0.7,2.6-1.1"/>
	<path fill="none" stroke="#EC6608" stroke-miterlimit="10" d="M114.6,57.2c0.8-0.5,1.7-0.8,2.6-1"/>
	<path fill="none" stroke="#EC6608" stroke-miterlimit="10" d="M124,51.7c-0.5-0.4-1.2-0.5-1.7-0.2c-0.2,0.2-0.4,0.4-0.6,0.6
		c-1.5,2-1.9,4.8-1.2,7.2c0.1,0.4,0.3,0.8,0.6,1c0.5,0.3,1.1,0.2,1.6,0.1c0.8-0.2,1.8-0.7,1.8-1.5"/>
	<path fill="none" stroke="#EC6608" stroke-miterlimit="10" d="M131.3,58.1c-1.4,0.3-2.8,0.7-4.2,1c0.3-3,0.7-6,1.2-9
		c1.1-0.3,1.7-0.4,2.7-0.7"/>
	<path fill="none" stroke="#EC6608" stroke-miterlimit="10" d="M127.8,54c0.9-0.3,1.8-0.5,2.7-0.6"/>
	<path fill="none" stroke="#EC6608" stroke-miterlimit="10" d="M133.5,49.7c0.3,3.1,0.4,6.3,0.2,9.5"/>
	<path fill="none" stroke="#EC6608" stroke-miterlimit="10" d="M136.7,49c0.8,3.3,1.2,6.7,1.2,10.1"/>
	<path fill="none" stroke="#EC6608" stroke-miterlimit="10" d="M136.6,49.3c0.8-0.3,1.6-0.6,2.4-0.6c0.8,0,1.7,0.3,2.1,1
		c0.5,0.9,0.2,2-0.5,2.7c-0.7,0.7-1.6,1.1-2.5,1.5"/>
	<path fill="none" stroke="#EC6608" stroke-miterlimit="10" d="M143.7,48.4c2,0.2,4,0.5,5.9,0.9"/>
	<path fill="none" stroke="#EC6608" stroke-miterlimit="10" d="M146.4,48.4c-0.1,3.4-0.3,6.8-0.4,10.1"/>
	<g>
		<path fill="#B2B2B2" d="M377.7,100.8c-13-1.2-26.1,1-38,6.4c-2,0.9-0.6,4.1,1.5,3.2c11.4-5.2,23.7-7.2,36.2-6.1
			C379.6,104.5,379.9,101,377.7,100.8z"/>
		<g>
			<path fill="#B2B2B2" d="M377.7,98.3c-11.4-0.9-22.9,0.4-33.7,4.4c-2.7,1-7.4,2-7.7,5.6c-0.2,2.6,1.8,4.6,4.3,4.7
				c2.1,0,4.3-1.5,6.2-2.2c2.8-1,5.6-1.9,8.5-2.5c6.1-1.4,12.3-1.9,18.6-1.7c2.9,0.1,6.7,0.9,7.7-2.8c0.7-2.6-0.9-4.6-3.2-5.3
				c-3.1-1-4.4,3.8-1.3,4.8c-0.4-1.2-1.2-1.8-2.3-1.6c-0.9-0.1-1.8-0.1-2.7-0.1c-1.2,0-2.4,0-3.5,0c-2.9,0.1-5.7,0.4-8.6,0.8
				c-2.9,0.4-5.8,1-8.6,1.8c-1.8,0.5-8.1,1.6-9.2,3.2c-1.3,2,5.4-0.5,6.5-0.8c2.8-0.9,5.7-1.6,8.6-2.2c6.8-1.3,13.6-1.5,20.5-0.9
				C380.9,103.6,380.9,98.6,377.7,98.3z"/>
		</g>
	</g>
	<g>
		<path fill="#F39200" d="M348.2,67c-2.6,12.4-5.5,24.8-8.9,37.1c-0.6,2.2,2.7,3.4,3.3,1.2c3.4-12.6,6.5-25.2,9.1-38
			C352.1,65.1,348.6,64.8,348.2,67z"/>
		<g>
			<path fill="#F39200" d="M345.8,66.3c-2.5,11.8-5.5,23.5-8.4,35.2c-0.7,2.7-1.1,5.7,2.1,7c2.5,1,4.5-0.4,5.5-2.6
				c2.3-5.1,3.1-11.6,4.4-17c1.5-6,2.8-12,4.1-18.1c0.6-2.7,1.5-5.9-1.6-7.4c-2.3-1.1-4.9,0.1-5.9,2.3c-1.3,2.9,3,5.4,4.3,2.5
				c-1.2-0.2-1.8,0.2-1.7,1.2c-0.1,0.6-0.3,1.3-0.4,1.9c-0.3,1.6-0.7,3.2-1,4.8c-0.7,3.2-1.4,6.3-2.2,9.5c-0.7,2.8-1.4,5.7-2.1,8.5
				c-0.4,1.6-0.8,3.2-1.2,4.7c-0.3,1.2-1.8,3.7-0.2,3.9c1.6,0.1,2.3-5.6,2.7-7.3c0.8-3.1,1.6-6.2,2.3-9.2c1.5-6.2,2.9-12.4,4.2-18.6
				C351.3,64.5,346.4,63.2,345.8,66.3z"/>
		</g>
	</g>
	<g>
		<path fill="#0BBBEF" d="M378.3,98c-5.2-12.9-13.7-24.9-25.5-32.7c-1.9-1.2-3.9,1.6-2,2.9c5.7,3.8,10.2,8.9,14.6,14.1
			c4.4,5.2,7.2,10.9,9.7,17.2C376,101.5,379.1,100,378.3,98z"/>
		<g>
			<path fill="#0BBBEF" d="M380.7,97.3c-4-9.8-9.5-18.9-17.1-26.4c-2.6-2.6-7.2-7.8-11.1-8.4c-2.8-0.4-5.3,2-4.9,4.8
				c0.2,1.3,0.9,2,1.9,2.9c2.6,2.3,5.4,4.2,7.9,6.7c4.3,4.4,8.5,9.2,11.4,14.6c1.7,3.1,2.9,10.4,7,11.2c3,0.5,5.3-2.1,4.9-4.9
				c-0.4-3.2-5.4-3.2-5,0c1.4-0.4,1.5-1.1,0.5-2.3c-0.1-0.2-0.2-0.4-0.3-0.6c-0.8-1.8-1.6-3.5-2.5-5.2c-1.5-2.8-3.1-5.4-5.1-7.9
				c-3.6-4.6-8.4-11.2-13.6-14c-2.4-1.3-2-0.2-0.7,1.3c1.1,1.2,3,2.4,4.3,3.6c2.3,2.1,4.4,4.4,6.4,6.8c4.6,5.7,8.3,12.2,11.1,19
				C377.1,101.6,381.9,100.3,380.7,97.3z"/>
		</g>
	</g>
	<path fill="#B2B2B2" d="M396.3,120.4c-22.9-1.8-45.5,4-67.4,10.2c-2.4-15.7-5.7-31.3-9.9-46.6c-2.2-8.2-4.7-16.3-7.5-24.3
		c-1.4-4-2.8-8-4.3-12c-1.3-3.4-2.3-7.7-5.2-10c-1.6-1.2-3.7-1.5-5.3,0c-1.3,1.3-1.6,4.1,0,5.3c1.3,1,1.7,2.5,2.3,4
		c0.7,1.8,1.3,3.5,2,5.3c1.4,3.8,2.8,7.7,4.1,11.5c2.6,7.9,5,15.8,7.2,23.9c4.3,15.9,7.6,32.1,9.9,48.4c0.1,0.9,0.8,1.7,1.5,2.1
		c0.8,0.7,1.9,1,3.2,0.6c22.5-6.4,45.6-12.9,69.3-11C401.2,128.2,401.1,120.7,396.3,120.4z"/>
	<path fill="none" stroke="#000000" stroke-width="5" stroke-miterlimit="10" d="M397.3,119.6c-22.6-0.8-47.8,2.9-68.2,10.8
		c-5.8-31-14.5-61.6-26.1-91.5c21.5-3.9,42.1-6.3,64.2-4.8"/>
	<path fill="none" stroke="#000000" stroke-width="5" stroke-miterlimit="10" d="M368.1,34.8c12.5,27.9,22.3,56.6,29.2,85.7"/>
	<path fill="none" stroke="#000000" stroke-width="3" stroke-miterlimit="10" d="M297,41.9c11,29.9,19.2,60.8,24.3,92.2"/>
	<path fill="none" stroke="#000000" stroke-width="3" stroke-miterlimit="10" d="M332.6,136.2c17.2-6.4,35.4-10.4,53.7-11.7"/>
	<path fill="none" stroke="#000000" stroke-width="2" stroke-miterlimit="10" d="M377.1,100.2c-13.3-0.6-26.7,1.6-38.7,7.3
		c4.5-13.7,8.8-27.5,13-41.3C361.8,75.2,371.2,87.8,377.1,100.2z"/>
	<path fill="none" stroke="#EC6608" stroke-miterlimit="10" d="M322.7,59.1c0,0.3,0,0.6,0,0.9c-0.1-3.3-0.2-6.6-0.3-10
		c0.7-0.6,1.6-0.8,2.4-0.8c0.9,0.1,1.2,1.2,0.7,2.1s-1.4,1.6-2.3,2.2c1.5,1.2,3.1,2.3,4.7,3.4"/>
	<path fill="none" stroke="#EC6608" stroke-miterlimit="10" d="M334,56.2c-1.3,0.6-2.6,1.2-4,1.7c-0.3-3-0.4-6-0.4-9
		c1-0.4,1.6-0.7,2.6-1.1"/>
	<path fill="none" stroke="#EC6608" stroke-miterlimit="10" d="M329.8,52.8c0.8-0.5,1.7-0.8,2.6-1"/>
	<path fill="none" stroke="#EC6608" stroke-miterlimit="10" d="M339.2,47.3c-0.5-0.4-1.2-0.5-1.7-0.2c-0.2,0.2-0.4,0.4-0.6,0.6
		c-1.5,2-1.9,4.8-1.2,7.2c0.1,0.4,0.3,0.8,0.6,1c0.5,0.3,1.1,0.2,1.6,0.1c0.8-0.2,1.8-0.7,1.8-1.5"/>
	<path fill="none" stroke="#EC6608" stroke-miterlimit="10" d="M346.5,53.7c-1.4,0.3-2.8,0.7-4.2,1c0.3-3,0.7-6,1.2-9
		c1.1-0.3,1.7-0.4,2.7-0.7"/>
	<path fill="none" stroke="#EC6608" stroke-miterlimit="10" d="M343,49.6c0.9-0.3,1.8-0.5,2.7-0.6"/>
	<path fill="none" stroke="#EC6608" stroke-miterlimit="10" d="M348.7,45.3c0.3,3.1,0.4,6.3,0.2,9.5"/>
	<path fill="none" stroke="#EC6608" stroke-miterlimit="10" d="M351.9,44.6c0.8,3.3,1.2,6.7,1.2,10.1"/>
	<path fill="none" stroke="#EC6608" stroke-miterlimit="10" d="M351.9,44.9c0.8-0.3,1.6-0.6,2.4-0.6s1.7,0.3,2.1,1
		c0.5,0.9,0.2,2-0.5,2.7c-0.7,0.7-1.6,1.1-2.5,1.5"/>
	<path fill="none" stroke="#EC6608" stroke-miterlimit="10" d="M359,44c2,0.2,4,0.5,5.9,0.9"/>
	<path fill="none" stroke="#EC6608" stroke-miterlimit="10" d="M361.7,44c-0.1,3.4-0.3,6.8-0.4,10.1"/>
	<g>
		<path fill="#B2B2B2" d="M270.2,100.7c-13-1.2-26.1,1-38,6.4c-2,0.9-0.6,4.1,1.5,3.2c11.4-5.2,23.7-7.2,36.2-6.1
			C272.1,104.4,272.4,100.9,270.2,100.7z"/>
		<g>
			<path fill="#B2B2B2" d="M270.2,98.2c-11.4-0.9-22.9,0.4-33.7,4.4c-2.7,1-7.4,2-7.7,5.6c-0.2,2.6,1.8,4.6,4.3,4.7
				c2.1,0,4.3-1.5,6.2-2.2c2.8-1,5.6-1.9,8.5-2.5c6.1-1.4,12.3-1.9,18.6-1.7c2.9,0.1,6.7,0.9,7.7-2.8c0.7-2.6-0.9-4.6-3.2-5.3
				c-3.1-1-4.4,3.8-1.3,4.8c-0.4-1.2-1.2-1.8-2.3-1.6c-0.9-0.1-1.8-0.1-2.7-0.1c-1.2,0-2.4,0-3.5,0c-2.9,0.1-5.7,0.4-8.6,0.8
				c-2.9,0.4-5.8,1-8.6,1.8c-1.8,0.5-8.1,1.6-9.2,3.2c-1.3,2,5.4-0.5,6.5-0.8c2.8-0.9,5.7-1.6,8.6-2.2c6.8-1.3,13.6-1.5,20.5-0.9
				C273.4,103.5,273.4,98.5,270.2,98.2z"/>
		</g>
	</g>
	<g>
		<path fill="#F39200" d="M240.7,66.9c-2.6,12.4-5.5,24.8-8.9,37.1c-0.6,2.2,2.7,3.4,3.3,1.2c3.4-12.6,6.5-25.2,9.1-38
			C244.6,65,241.2,64.7,240.7,66.9z"/>
		<g>
			<path fill="#F39200" d="M238.3,66.2c-2.5,11.8-5.5,23.5-8.4,35.2c-0.7,2.7-1.1,5.7,2.1,7c2.5,1,4.5-0.4,5.5-2.6
				c2.3-5.1,3.1-11.6,4.4-17c1.5-6,2.8-12,4.1-18.1c0.6-2.7,1.5-5.9-1.6-7.4c-2.3-1.1-4.9,0.1-5.9,2.3c-1.3,2.9,3,5.4,4.3,2.5
				c-1.2-0.2-1.8,0.2-1.7,1.2c-0.1,0.6-0.3,1.3-0.4,1.9c-0.3,1.6-0.7,3.2-1,4.8c-0.7,3.2-1.4,6.3-2.2,9.5c-0.7,2.8-1.4,5.7-2.1,8.5
				c-0.4,1.6-0.8,3.2-1.2,4.7c-0.3,1.2-1.8,3.7-0.2,3.9c1.6,0.1,2.3-5.6,2.7-7.3c0.8-3.1,1.6-6.2,2.3-9.2c1.5-6.2,2.9-12.4,4.2-18.6
				C243.8,64.4,238.9,63.1,238.3,66.2z"/>
		</g>
	</g>
	<g>
		<path fill="#0BBBEF" d="M270.8,97.9C265.6,85,257.1,73,245.3,65.2c-1.9-1.2-3.9,1.6-2,2.9c5.7,3.8,10.2,8.9,14.6,14.1
			c4.4,5.2,7.2,10.9,9.7,17.2C268.5,101.5,271.6,100,270.8,97.9z"/>
		<g>
			<path fill="#0BBBEF" d="M273.2,97.2c-4-9.8-9.5-18.9-17.1-26.4c-2.6-2.6-7.2-7.8-11.1-8.4c-2.8-0.4-5.3,2-4.9,4.8
				c0.2,1.3,0.9,2,1.9,2.9c2.6,2.3,5.4,4.2,7.9,6.7c4.3,4.4,8.5,9.2,11.4,14.6c1.7,3.1,2.9,10.4,7,11.2c3,0.5,5.3-2.1,4.9-4.9
				c-0.4-3.2-5.4-3.2-5,0c1.4-0.4,1.5-1.1,0.5-2.3c-0.1-0.2-0.2-0.4-0.3-0.6c-0.8-1.8-1.6-3.5-2.5-5.2c-1.5-2.8-3.1-5.4-5.1-7.9
				c-3.6-4.6-8.4-11.2-13.6-14c-2.4-1.3-2-0.2-0.7,1.3c1.1,1.2,3,2.4,4.3,3.6c2.3,2.1,4.4,4.4,6.4,6.8c4.6,5.7,8.3,12.2,11.1,19
				C269.6,101.5,274.4,100.2,273.2,97.2z"/>
		</g>
	</g>
	<path fill="#B2B2B2" d="M288.9,120.3c-22.9-1.8-45.5,4-67.4,10.2c-2.4-15.7-5.7-31.3-9.9-46.6c-2.2-8.2-4.7-16.3-7.5-24.3
		c-1.4-4-2.8-8-4.3-12c-1.3-3.4-2.3-7.7-5.2-10c-1.6-1.2-3.7-1.5-5.3,0c-1.3,1.3-1.6,4.1,0,5.3c1.3,1,1.7,2.5,2.3,4
		c0.7,1.8,1.3,3.5,2,5.3c1.4,3.8,2.8,7.7,4.1,11.5c2.6,7.9,5,15.8,7.2,23.9c4.3,15.9,7.6,32.1,9.9,48.4c0.1,0.9,0.8,1.7,1.5,2.1
		c0.8,0.7,1.9,1,3.2,0.6c22.5-6.4,45.6-12.9,69.3-11C293.7,128.1,293.6,120.6,288.9,120.3z"/>
	<path fill="none" stroke="#000000" stroke-width="5" stroke-miterlimit="10" d="M289.8,119.5c-22.6-0.8-47.8,2.9-68.2,10.8
		c-5.8-31-14.5-61.6-26.1-91.5c21.5-3.9,42.1-6.3,64.2-4.8"/>
	<path fill="none" stroke="#000000" stroke-width="5" stroke-miterlimit="10" d="M260.6,34.7c12.5,27.9,22.3,56.6,29.2,85.7"/>
	<path fill="none" stroke="#000000" stroke-width="3" stroke-miterlimit="10" d="M189.5,41.8c11,29.9,19.2,60.8,24.3,92.2"/>
	<path fill="none" stroke="#000000" stroke-width="3" stroke-miterlimit="10" d="M225.1,136.2c17.2-6.4,35.4-10.4,53.7-11.7"/>
	<path fill="none" stroke="#000000" stroke-width="2" stroke-miterlimit="10" d="M269.6,100.1c-13.3-0.6-26.7,1.6-38.7,7.3
		c4.5-13.7,8.8-27.5,13-41.3C254.3,75.1,263.7,87.7,269.6,100.1z"/>
	<path fill="none" stroke="#EC6608" stroke-miterlimit="10" d="M215.2,59.1c0,0.3,0,0.6,0,0.9c-0.1-3.3-0.2-6.6-0.3-10
		c0.7-0.6,1.6-0.8,2.4-0.8c0.9,0.1,1.2,1.2,0.7,2.1s-1.4,1.6-2.3,2.2c1.5,1.2,3.1,2.3,4.7,3.4"/>
	<path fill="none" stroke="#EC6608" stroke-miterlimit="10" d="M226.5,56.1c-1.3,0.6-2.6,1.2-4,1.7c-0.3-3-0.4-6-0.4-9
		c1-0.4,1.6-0.7,2.6-1.1"/>
	<path fill="none" stroke="#EC6608" stroke-miterlimit="10" d="M222.4,52.7c0.8-0.5,1.7-0.8,2.6-1"/>
	<path fill="none" stroke="#EC6608" stroke-miterlimit="10" d="M231.8,47.2c-0.5-0.4-1.2-0.5-1.7-0.2c-0.2,0.2-0.4,0.4-0.6,0.6
		c-1.5,2-1.9,4.8-1.2,7.2c0.1,0.4,0.3,0.8,0.6,1c0.5,0.3,1.1,0.2,1.6,0.1c0.8-0.2,1.8-0.7,1.8-1.5"/>
	<path fill="none" stroke="#EC6608" stroke-miterlimit="10" d="M239,53.6c-1.4,0.3-2.8,0.7-4.2,1c0.3-3,0.7-6,1.2-9
		c1.1-0.3,1.7-0.4,2.7-0.7"/>
	<path fill="none" stroke="#EC6608" stroke-miterlimit="10" d="M235.5,49.5c0.9-0.3,1.8-0.5,2.7-0.6"/>
	<path fill="none" stroke="#EC6608" stroke-miterlimit="10" d="M241.2,45.2c0.3,3.1,0.4,6.3,0.2,9.5"/>
	<path fill="none" stroke="#EC6608" stroke-miterlimit="10" d="M244.4,44.5c0.8,3.3,1.2,6.7,1.2,10.1"/>
	<path fill="none" stroke="#EC6608" stroke-miterlimit="10" d="M244.4,44.8c0.8-0.3,1.6-0.6,2.4-0.6c0.8,0,1.7,0.3,2.1,1
		c0.5,0.9,0.2,2-0.5,2.7c-0.7,0.7-1.6,1.1-2.5,1.5"/>
	<path fill="none" stroke="#EC6608" stroke-miterlimit="10" d="M251.5,43.9c2,0.2,4,0.5,5.9,0.9"/>
	<path fill="none" stroke="#EC6608" stroke-miterlimit="10" d="M254.2,43.9c-0.1,3.4-0.3,6.8-0.4,10.1"/>
	<g>
		<path fill="#B2B2B2" d="M177.9,220.5c-13-1.2-26.1,1-38,6.4c-2,0.9-0.6,4.1,1.5,3.2c11.4-5.2,23.7-7.2,36.2-6.1
			C179.8,224.2,180.1,220.7,177.9,220.5z"/>
		<g>
			<path fill="#B2B2B2" d="M177.9,218c-11.4-0.9-22.9,0.4-33.7,4.4c-2.7,1-7.4,2-7.7,5.6c-0.2,2.6,1.8,4.6,4.3,4.7
				c2.1,0,4.3-1.5,6.2-2.2c2.8-1,5.6-1.9,8.5-2.5c6.1-1.4,12.3-1.9,18.6-1.7c2.9,0.1,6.7,0.9,7.7-2.8c0.7-2.6-0.9-4.6-3.2-5.3
				c-3.1-1-4.4,3.8-1.3,4.8c-0.4-1.2-1.2-1.8-2.3-1.6c-0.9-0.1-1.8-0.1-2.7-0.1c-1.2,0-2.4,0-3.5,0c-2.9,0.1-5.7,0.4-8.6,0.8
				c-2.9,0.4-5.8,1-8.6,1.8c-1.8,0.5-8.1,1.6-9.2,3.2c-1.3,2,5.4-0.5,6.5-0.8c2.8-0.9,5.7-1.6,8.6-2.2c6.8-1.3,13.6-1.5,20.5-0.9
				C181.1,223.3,181.1,218.3,177.9,218z"/>
		</g>
	</g>
	<g>
		<path fill="#F39200" d="M148.4,186.7c-2.6,12.4-5.5,24.8-8.9,37.1c-0.6,2.2,2.7,3.4,3.3,1.2c3.4-12.6,6.5-25.2,9.1-38
			C152.3,184.8,148.8,184.5,148.4,186.7z"/>
		<g>
			<path fill="#F39200" d="M146,186c-2.5,11.8-5.5,23.5-8.4,35.2c-0.7,2.7-1.1,5.7,2.1,7c2.5,1,4.5-0.4,5.5-2.6
				c2.3-5.1,3.1-11.6,4.4-17c1.5-6,2.8-12,4.1-18.1c0.6-2.7,1.5-5.9-1.6-7.4c-2.3-1.1-4.9,0.1-5.9,2.3c-1.3,2.9,3,5.4,4.3,2.5
				c-1.2-0.2-1.8,0.2-1.7,1.2c-0.1,0.6-0.3,1.3-0.4,1.9c-0.3,1.6-0.7,3.2-1,4.8c-0.7,3.2-1.4,6.3-2.2,9.5c-0.7,2.8-1.4,5.7-2.1,8.5
				c-0.4,1.6-0.8,3.2-1.2,4.7c-0.3,1.2-1.8,3.7-0.2,3.9c1.6,0.1,2.3-5.6,2.7-7.3c0.8-3.1,1.6-6.2,2.3-9.2c1.5-6.2,2.9-12.4,4.2-18.6
				C151.4,184.2,146.6,182.9,146,186z"/>
		</g>
	</g>
	<g>
		<path fill="#0BBBEF" d="M178.5,217.7c-5.2-12.9-13.7-24.9-25.5-32.7c-1.9-1.2-3.9,1.6-2,2.9c5.7,3.8,10.2,8.9,14.6,14.1
			c4.4,5.2,7.2,10.9,9.7,17.2C176.1,221.3,179.3,219.8,178.5,217.7z"/>
		<g>
			<path fill="#0BBBEF" d="M180.9,217c-4-9.8-9.5-18.9-17.1-26.4c-2.6-2.6-7.2-7.8-11.1-8.4c-2.8-0.4-5.3,2-4.9,4.8
				c0.2,1.3,0.9,2,1.9,2.9c2.6,2.3,5.4,4.2,7.9,6.7c4.3,4.4,8.5,9.2,11.4,14.6c1.7,3.1,2.9,10.4,7,11.2c3,0.5,5.3-2.1,4.9-4.9
				c-0.4-3.2-5.4-3.2-5,0c1.4-0.4,1.5-1.1,0.5-2.3c-0.1-0.2-0.2-0.4-0.3-0.6c-0.8-1.8-1.6-3.5-2.5-5.2c-1.5-2.8-3.1-5.4-5.1-7.9
				c-3.6-4.6-8.4-11.2-13.6-14c-2.4-1.3-2-0.2-0.7,1.3c1.1,1.2,3,2.4,4.3,3.6c2.3,2.1,4.4,4.4,6.4,6.8c4.6,5.7,8.3,12.2,11.1,19
				C177.3,221.3,182.1,220,180.9,217z"/>
		</g>
	</g>
	<path fill="#B2B2B2" d="M196.5,240.1c-22.9-1.8-45.5,4-67.4,10.2c-2.4-15.7-5.7-31.3-9.9-46.6c-2.2-8.2-4.7-16.3-7.5-24.3
		c-1.4-4-2.8-8-4.3-12c-1.3-3.4-2.3-7.7-5.2-10c-1.6-1.2-3.7-1.5-5.3,0c-1.3,1.3-1.6,4.1,0,5.3c1.3,1,1.7,2.5,2.3,4
		c0.7,1.8,1.3,3.5,2,5.3c1.4,3.8,2.8,7.7,4.1,11.5c2.6,7.9,5,15.8,7.2,23.9c4.3,15.9,7.6,32.1,9.9,48.4c0.1,0.9,0.8,1.7,1.5,2.1
		c0.8,0.7,1.9,1,3.2,0.6c22.5-6.4,45.6-12.9,69.3-11C201.3,247.9,201.3,240.5,196.5,240.1z"/>
	<path fill="none" stroke="#000000" stroke-width="5" stroke-miterlimit="10" d="M197.4,239.3c-22.6-0.8-47.8,2.9-68.2,10.8
		c-5.8-31-14.5-61.6-26.1-91.5c21.5-3.9,42.1-6.3,64.2-4.8"/>
	<path fill="none" stroke="#000000" stroke-width="5" stroke-miterlimit="10" d="M168.2,154.5c12.5,27.9,22.3,56.6,29.2,85.7"/>
	<path fill="none" stroke="#000000" stroke-width="3" stroke-miterlimit="10" d="M97.2,161.6c11,29.9,19.2,60.8,24.3,92.2"/>
	<path fill="none" stroke="#000000" stroke-width="3" stroke-miterlimit="10" d="M132.8,256c17.2-6.4,35.4-10.4,53.7-11.7"/>
	<path fill="none" stroke="#000000" stroke-width="2" stroke-miterlimit="10" d="M177.3,219.9c-13.3-0.6-26.7,1.6-38.7,7.3
		c4.5-13.7,8.8-27.5,13-41.3C162,194.9,171.4,207.5,177.3,219.9z"/>
	<path fill="none" stroke="#EC6608" stroke-miterlimit="10" d="M122.8,178.9c0,0.3,0,0.6,0,0.9c-0.1-3.3-0.2-6.6-0.3-10
		c0.7-0.6,1.6-0.8,2.4-0.8c0.9,0.1,1.2,1.2,0.7,2.1c-0.5,0.9-1.4,1.6-2.3,2.2c1.5,1.2,3.1,2.3,4.7,3.4"/>
	<path fill="none" stroke="#EC6608" stroke-miterlimit="10" d="M134.2,175.9c-1.3,0.6-2.6,1.2-4,1.7c-0.3-3-0.4-6-0.4-9
		c1-0.4,1.6-0.7,2.6-1.1"/>
	<path fill="none" stroke="#EC6608" stroke-miterlimit="10" d="M130,172.5c0.8-0.5,1.7-0.8,2.6-1"/>
	<path fill="none" stroke="#EC6608" stroke-miterlimit="10" d="M139.4,167c-0.5-0.4-1.2-0.5-1.7-0.2c-0.2,0.2-0.4,0.4-0.6,0.6
		c-1.5,2-1.9,4.8-1.2,7.2c0.1,0.4,0.3,0.8,0.6,1c0.5,0.3,1.1,0.2,1.6,0.1c0.8-0.2,1.8-0.7,1.8-1.5"/>
	<path fill="none" stroke="#EC6608" stroke-miterlimit="10" d="M146.7,173.4c-1.4,0.3-2.8,0.7-4.2,1c0.3-3,0.7-6,1.2-9
		c1.1-0.3,1.7-0.4,2.7-0.7"/>
	<path fill="none" stroke="#EC6608" stroke-miterlimit="10" d="M143.2,169.3c0.9-0.3,1.8-0.5,2.7-0.6"/>
	<path fill="none" stroke="#EC6608" stroke-miterlimit="10" d="M148.9,165c0.3,3.1,0.4,6.3,0.2,9.5"/>
	<path fill="none" stroke="#EC6608" stroke-miterlimit="10" d="M152.1,164.3c0.8,3.3,1.2,6.7,1.2,10.1"/>
	<path fill="none" stroke="#EC6608" stroke-miterlimit="10" d="M152,164.6c0.8-0.3,1.6-0.6,2.4-0.6c0.8,0,1.7,0.3,2.1,1
		c0.5,0.9,0.2,2-0.5,2.7c-0.7,0.7-1.6,1.1-2.5,1.5"/>
	<path fill="none" stroke="#EC6608" stroke-miterlimit="10" d="M159.2,163.7c2,0.2,4,0.5,5.9,0.9"/>
	<path fill="none" stroke="#EC6608" stroke-miterlimit="10" d="M161.9,163.7c-0.1,3.4-0.3,6.8-0.4,10.1"/>
	<g>
		<path fill="#B2B2B2" d="M287.3,218.8c-13-1.2-26.1,1-38,6.4c-2,0.9-0.6,4.1,1.5,3.2c11.4-5.2,23.7-7.2,36.2-6.1
			C289.2,222.5,289.5,219,287.3,218.8z"/>
		<g>
			<path fill="#B2B2B2" d="M287.3,216.3c-11.4-0.9-22.9,0.4-33.7,4.4c-2.7,1-7.4,2-7.7,5.6c-0.2,2.6,1.8,4.6,4.3,4.7
				c2.1,0,4.3-1.5,6.2-2.2c2.8-1,5.6-1.9,8.5-2.5c6.1-1.4,12.3-1.9,18.6-1.7c2.9,0.1,6.7,0.9,7.7-2.8c0.7-2.6-0.9-4.6-3.2-5.3
				c-3.1-1-4.4,3.8-1.3,4.8c-0.4-1.2-1.2-1.8-2.3-1.6c-0.9-0.1-1.8-0.1-2.7-0.1c-1.2,0-2.4,0-3.5,0c-2.9,0.1-5.7,0.4-8.6,0.8
				c-2.9,0.4-5.8,1-8.6,1.8c-1.8,0.5-8.1,1.6-9.2,3.2c-1.3,2,5.4-0.5,6.5-0.8c2.8-0.9,5.7-1.6,8.6-2.2c6.8-1.3,13.6-1.5,20.5-0.9
				C290.5,221.6,290.4,216.6,287.3,216.3z"/>
		</g>
	</g>
	<g>
		<path fill="#F39200" d="M257.8,185c-2.6,12.4-5.5,24.8-8.9,37.1c-0.6,2.2,2.7,3.4,3.3,1.2c3.4-12.6,6.5-25.2,9.1-38
			C261.7,183.1,258.2,182.8,257.8,185z"/>
		<g>
			<path fill="#F39200" d="M255.3,184.3c-2.5,11.8-5.5,23.5-8.4,35.2c-0.7,2.7-1.1,5.7,2.1,7c2.5,1,4.5-0.4,5.5-2.6
				c2.3-5.1,3.1-11.6,4.4-17c1.5-6,2.8-12,4.1-18.1c0.6-2.7,1.5-5.9-1.6-7.4c-2.3-1.1-4.9,0.1-5.9,2.3c-1.3,2.9,3,5.4,4.3,2.5
				c-1.2-0.2-1.8,0.2-1.7,1.2c-0.1,0.6-0.3,1.3-0.4,1.9c-0.3,1.6-0.7,3.2-1,4.8c-0.7,3.2-1.4,6.3-2.2,9.5c-0.7,2.8-1.4,5.7-2.1,8.5
				c-0.4,1.6-0.8,3.2-1.2,4.7c-0.3,1.2-1.8,3.7-0.2,3.9c1.6,0.1,2.3-5.6,2.7-7.3c0.8-3.1,1.6-6.2,2.3-9.2c1.5-6.2,2.9-12.4,4.2-18.6
				C260.8,182.5,256,181.2,255.3,184.3z"/>
		</g>
	</g>
	<g>
		<path fill="#0BBBEF" d="M287.8,216c-5.2-12.9-13.7-24.9-25.5-32.7c-1.9-1.2-3.9,1.6-2,2.9c5.7,3.8,10.2,8.9,14.6,14.1
			c4.4,5.2,7.2,10.9,9.7,17.2C285.5,219.6,288.7,218.1,287.8,216z"/>
		<g>
			<path fill="#0BBBEF" d="M290.2,215.3c-4-9.8-9.5-18.9-17.1-26.4c-2.6-2.6-7.2-7.8-11.1-8.4c-2.8-0.4-5.3,2-4.9,4.8
				c0.2,1.3,0.9,2,1.9,2.9c2.6,2.3,5.4,4.2,7.9,6.7c4.3,4.4,8.5,9.2,11.4,14.6c1.7,3.1,2.9,10.4,7,11.2c3,0.5,5.3-2.1,4.9-4.9
				c-0.4-3.2-5.4-3.2-5,0c1.4-0.4,1.5-1.1,0.5-2.3c-0.1-0.2-0.2-0.4-0.3-0.6c-0.8-1.8-1.6-3.5-2.5-5.2c-1.5-2.8-3.1-5.4-5.1-7.9
				c-3.6-4.6-8.4-11.2-13.6-14c-2.4-1.3-2-0.2-0.7,1.3c1.1,1.2,3,2.4,4.3,3.6c2.3,2.1,4.4,4.4,6.4,6.8c4.6,5.7,8.3,12.2,11.1,19
				C286.6,219.6,291.5,218.3,290.2,215.3z"/>
		</g>
	</g>
	<path fill="#B2B2B2" d="M305.9,238.4c-22.9-1.8-45.5,4-67.4,10.2c-2.4-15.7-5.7-31.3-9.9-46.6c-2.2-8.2-4.7-16.3-7.5-24.3
		c-1.4-4-2.8-8-4.3-12c-1.3-3.4-2.3-7.7-5.2-10c-1.6-1.2-3.7-1.5-5.3,0c-1.3,1.3-1.6,4.1,0,5.3c1.3,1,1.7,2.5,2.3,4
		c0.7,1.8,1.3,3.5,2,5.3c1.4,3.8,2.8,7.7,4.1,11.5c2.6,7.9,5,15.8,7.2,23.9c4.3,15.9,7.6,32.1,9.9,48.4c0.1,0.9,0.8,1.7,1.5,2.1
		c0.8,0.7,1.9,1,3.2,0.6c22.5-6.4,45.6-12.9,69.3-11C310.7,246.2,310.7,238.8,305.9,238.4z"/>
	<path fill="none" stroke="#000000" stroke-width="5" stroke-miterlimit="10" d="M306.8,237.6c-22.6-0.8-47.8,2.9-68.2,10.8
		c-5.8-31-14.5-61.6-26.1-91.5c21.5-3.9,42.1-6.3,64.2-4.8"/>
	<path fill="none" stroke="#000000" stroke-width="5" stroke-miterlimit="10" d="M277.6,152.8c12.5,27.9,22.3,56.6,29.2,85.7"/>
	<path fill="none" stroke="#000000" stroke-width="3" stroke-miterlimit="10" d="M206.6,159.9c11,29.9,19.2,60.8,24.3,92.2"/>
	<path fill="none" stroke="#000000" stroke-width="3" stroke-miterlimit="10" d="M242.2,254.3c17.2-6.4,35.4-10.4,53.7-11.7"/>
	<path fill="none" stroke="#000000" stroke-width="2" stroke-miterlimit="10" d="M286.7,218.2c-13.3-0.6-26.7,1.6-38.7,7.3
		c4.5-13.7,8.8-27.5,13-41.3C271.4,193.2,280.8,205.8,286.7,218.2z"/>
	<path fill="none" stroke="#EC6608" stroke-miterlimit="10" d="M232.2,177.2c0,0.3,0,0.6,0,0.9c-0.1-3.3-0.2-6.6-0.3-10
		c0.7-0.6,1.6-0.8,2.4-0.8c0.9,0.1,1.2,1.2,0.7,2.1c-0.5,0.9-1.4,1.6-2.3,2.2c1.5,1.2,3.1,2.3,4.7,3.4"/>
	<path fill="none" stroke="#EC6608" stroke-miterlimit="10" d="M243.5,174.2c-1.3,0.6-2.6,1.2-4,1.7c-0.3-3-0.4-6-0.4-9
		c1-0.4,1.6-0.7,2.6-1.1"/>
	<path fill="none" stroke="#EC6608" stroke-miterlimit="10" d="M239.4,170.8c0.8-0.5,1.7-0.8,2.6-1"/>
	<path fill="none" stroke="#EC6608" stroke-miterlimit="10" d="M248.8,165.3c-0.5-0.4-1.2-0.5-1.7-0.2c-0.2,0.2-0.4,0.4-0.6,0.6
		c-1.5,2-1.9,4.8-1.2,7.2c0.1,0.4,0.3,0.8,0.6,1c0.5,0.3,1.1,0.2,1.6,0.1c0.8-0.2,1.8-0.7,1.8-1.5"/>
	<path fill="none" stroke="#EC6608" stroke-miterlimit="10" d="M256.1,171.7c-1.4,0.3-2.8,0.7-4.2,1c0.3-3,0.7-6,1.2-9
		c1.1-0.3,1.7-0.4,2.7-0.7"/>
	<path fill="none" stroke="#EC6608" stroke-miterlimit="10" d="M252.6,167.6c0.9-0.3,1.8-0.5,2.7-0.6"/>
	<path fill="none" stroke="#EC6608" stroke-miterlimit="10" d="M258.3,163.3c0.3,3.1,0.4,6.3,0.2,9.5"/>
	<path fill="none" stroke="#EC6608" stroke-miterlimit="10" d="M261.5,162.6c0.8,3.3,1.2,6.7,1.2,10.1"/>
	<path fill="none" stroke="#EC6608" stroke-miterlimit="10" d="M261.4,162.9c0.8-0.3,1.6-0.6,2.4-0.6s1.7,0.3,2.1,1
		c0.5,0.9,0.2,2-0.5,2.7c-0.7,0.7-1.6,1.1-2.5,1.5"/>
	<path fill="none" stroke="#EC6608" stroke-miterlimit="10" d="M268.5,162c2,0.2,4,0.5,5.9,0.9"/>
	<path fill="none" stroke="#EC6608" stroke-miterlimit="10" d="M271.2,162c-0.1,3.4-0.3,6.8-0.4,10.1"/>
	<g>
		<path fill="#B2B2B2" d="M393.1,214.9c-13-1.2-26.1,1-38,6.4c-2,0.9-0.6,4.1,1.5,3.2c11.4-5.2,23.7-7.2,36.2-6.1
			C395,218.6,395.4,215.1,393.1,214.9z"/>
		<g>
			<path fill="#B2B2B2" d="M393.1,212.4c-11.4-0.9-22.9,0.4-33.7,4.4c-2.7,1-7.4,2-7.7,5.6c-0.2,2.6,1.8,4.6,4.3,4.7
				c2.1,0,4.3-1.5,6.2-2.2c2.8-1,5.6-1.9,8.5-2.5c6.1-1.4,12.3-1.9,18.6-1.7c2.9,0.1,6.7,0.9,7.7-2.8c0.7-2.6-0.9-4.6-3.2-5.3
				c-3.1-1-4.4,3.8-1.3,4.8c-0.4-1.2-1.2-1.8-2.3-1.6c-0.9-0.1-1.8-0.1-2.7-0.1c-1.2,0-2.4,0-3.5,0c-2.9,0.1-5.7,0.4-8.6,0.8
				c-2.9,0.4-5.8,1-8.6,1.8c-1.8,0.5-8.1,1.6-9.2,3.2c-1.3,2,5.4-0.5,6.5-0.8c2.8-0.9,5.7-1.6,8.6-2.2c6.8-1.3,13.6-1.5,20.5-0.9
				C396.3,217.6,396.3,212.6,393.1,212.4z"/>
		</g>
	</g>
	<g>
		<path fill="#F39200" d="M363.6,181.1c-2.6,12.4-5.5,24.8-8.9,37.1c-0.6,2.2,2.7,3.4,3.3,1.2c3.4-12.6,6.5-25.2,9.1-38
			C367.5,179.2,364.1,178.9,363.6,181.1z"/>
		<g>
			<path fill="#F39200" d="M361.2,180.4c-2.5,11.8-5.5,23.5-8.4,35.2c-0.7,2.7-1.1,5.7,2.1,7c2.5,1,4.5-0.4,5.5-2.6
				c2.3-5.1,3.1-11.6,4.4-17c1.5-6,2.8-12,4.1-18.1c0.6-2.7,1.5-5.9-1.6-7.4c-2.3-1.1-4.9,0.1-5.9,2.3c-1.3,2.9,3,5.4,4.3,2.5
				c-1.2-0.2-1.8,0.2-1.7,1.2c-0.1,0.6-0.3,1.3-0.4,1.9c-0.3,1.6-0.7,3.2-1,4.8c-0.7,3.2-1.4,6.3-2.2,9.5c-0.7,2.8-1.4,5.7-2.1,8.5
				c-0.4,1.6-0.8,3.2-1.2,4.7c-0.3,1.2-1.8,3.7-0.2,3.9c1.6,0.1,2.3-5.6,2.7-7.3c0.8-3.1,1.6-6.2,2.3-9.2c1.5-6.2,2.9-12.4,4.2-18.6
				C366.7,178.6,361.9,177.3,361.2,180.4z"/>
		</g>
	</g>
	<g>
		<path fill="#0BBBEF" d="M393.7,212c-5.2-12.9-13.7-24.9-25.5-32.7c-1.9-1.2-3.9,1.6-2,2.9c5.7,3.8,10.2,8.9,14.6,14.1
			c4.4,5.2,7.2,10.9,9.7,17.2C391.4,215.6,394.5,214.1,393.7,212z"/>
		<g>
			<path fill="#0BBBEF" d="M396.1,211.4c-4-9.8-9.5-18.9-17.1-26.4c-2.6-2.6-7.2-7.8-11.1-8.4c-2.8-0.4-5.3,2-4.9,4.8
				c0.2,1.3,0.9,2,1.9,2.9c2.6,2.3,5.4,4.2,7.9,6.7c4.3,4.4,8.5,9.2,11.4,14.6c1.7,3.1,2.9,10.4,7,11.2c3,0.5,5.3-2.1,4.9-4.9
				c-0.4-3.2-5.4-3.2-5,0c1.4-0.4,1.5-1.1,0.5-2.3c-0.1-0.2-0.2-0.4-0.3-0.6c-0.8-1.8-1.6-3.5-2.5-5.2c-1.5-2.8-3.1-5.4-5.1-7.9
				c-3.6-4.6-8.4-11.2-13.6-14c-2.4-1.3-2-0.2-0.7,1.3c1.1,1.2,3,2.4,4.3,3.6c2.3,2.1,4.4,4.4,6.4,6.8c4.6,5.7,8.3,12.2,11.1,19
				C392.5,215.6,397.3,214.4,396.1,211.4z"/>
		</g>
	</g>
	<path fill="#B2B2B2" d="M411.8,234.4c-22.9-1.8-45.5,4-67.4,10.2c-2.4-15.7-5.7-31.3-9.9-46.6c-2.2-8.2-4.7-16.3-7.5-24.3
		c-1.4-4-2.8-8-4.3-12c-1.3-3.4-2.3-7.7-5.2-10c-1.6-1.2-3.7-1.5-5.3,0c-1.3,1.3-1.6,4.1,0,5.3c1.3,1,1.7,2.5,2.3,4
		c0.7,1.8,1.3,3.5,2,5.3c1.4,3.8,2.8,7.7,4.1,11.5c2.6,7.9,5,15.8,7.2,23.9c4.3,15.9,7.6,32.1,9.9,48.4c0.1,0.9,0.8,1.7,1.5,2.1
		c0.8,0.7,1.9,1,3.2,0.6c22.5-6.4,45.6-12.9,69.3-11C416.6,242.3,416.5,234.8,411.8,234.4z"/>
	<path fill="none" stroke="#000000" stroke-width="5" stroke-miterlimit="10" d="M412.7,233.7c-22.6-0.8-47.8,2.9-68.2,10.8
		c-5.8-31-14.5-61.6-26.1-91.5c21.5-3.9,42.1-6.3,64.2-4.8"/>
	<path fill="none" stroke="#000000" stroke-width="5" stroke-miterlimit="10" d="M383.5,148.8c12.5,27.9,22.3,56.6,29.2,85.7"/>
	<path fill="none" stroke="#000000" stroke-width="3" stroke-miterlimit="10" d="M312.4,156c11,29.9,19.2,60.8,24.3,92.2"/>
	<path fill="none" stroke="#000000" stroke-width="3" stroke-miterlimit="10" d="M348,250.3c17.2-6.4,35.4-10.4,53.7-11.7"/>
	<path fill="none" stroke="#000000" stroke-width="2" stroke-miterlimit="10" d="M392.5,214.3c-13.3-0.6-26.7,1.6-38.7,7.3
		c4.5-13.7,8.8-27.5,13-41.3C377.2,189.3,386.6,201.9,392.5,214.3z"/>
	<path fill="none" stroke="#EC6608" stroke-miterlimit="10" d="M338.1,173.2c0,0.3,0,0.6,0,0.9c-0.1-3.3-0.2-6.6-0.3-10
		c0.7-0.6,1.6-0.8,2.4-0.8c0.9,0.1,1.2,1.2,0.7,2.1c-0.5,0.9-1.4,1.6-2.3,2.2c1.5,1.2,3.1,2.3,4.7,3.4"/>
	<path fill="none" stroke="#EC6608" stroke-miterlimit="10" d="M349.4,170.3c-1.3,0.6-2.6,1.2-4,1.7c-0.3-3-0.4-6-0.4-9
		c1-0.4,1.6-0.7,2.6-1.1"/>
	<path fill="none" stroke="#EC6608" stroke-miterlimit="10" d="M345.3,166.9c0.8-0.5,1.7-0.8,2.6-1"/>
	<path fill="none" stroke="#EC6608" stroke-miterlimit="10" d="M354.7,161.4c-0.5-0.4-1.2-0.5-1.7-0.2c-0.2,0.2-0.4,0.4-0.6,0.6
		c-1.5,2-1.9,4.8-1.2,7.2c0.1,0.4,0.3,0.8,0.6,1c0.5,0.3,1.1,0.2,1.6,0.1c0.8-0.2,1.8-0.7,1.8-1.5"/>
	<path fill="none" stroke="#EC6608" stroke-miterlimit="10" d="M362,167.8c-1.4,0.3-2.8,0.7-4.2,1c0.3-3,0.7-6,1.2-9
		c1.1-0.3,1.7-0.4,2.7-0.7"/>
	<path fill="none" stroke="#EC6608" stroke-miterlimit="10" d="M358.4,163.7c0.9-0.3,1.8-0.5,2.7-0.6"/>
	<path fill="none" stroke="#EC6608" stroke-miterlimit="10" d="M364.1,159.4c0.3,3.1,0.4,6.3,0.2,9.5"/>
	<path fill="none" stroke="#EC6608" stroke-miterlimit="10" d="M367.3,158.7c0.8,3.3,1.2,6.7,1.2,10.1"/>
	<path fill="none" stroke="#EC6608" stroke-miterlimit="10" d="M367.3,159c0.8-0.3,1.6-0.6,2.4-0.6c0.8,0,1.7,0.3,2.1,1
		c0.5,0.9,0.2,2-0.5,2.7c-0.7,0.7-1.6,1.1-2.5,1.5"/>
	<path fill="none" stroke="#EC6608" stroke-miterlimit="10" d="M371.4,158.1c2,0.2,4,0.5,5.9,0.9"/>
	<path fill="none" stroke="#EC6608" stroke-miterlimit="10" d="M377.1,158.1c-0.1,3.4-0.3,6.8-0.4,10.1"/>
	<g>
		<path fill="#B2B2B2" d="M189.8,336.6c-13-1.2-26.1,1-38,6.4c-2,0.9-0.6,4.1,1.5,3.2c11.4-5.2,23.7-7.2,36.2-6.1
			C191.8,340.3,192.1,336.8,189.8,336.6z"/>
		<g>
			<path fill="#B2B2B2" d="M189.8,334.1c-11.4-0.9-22.9,0.4-33.7,4.4c-2.7,1-7.4,2-7.7,5.6c-0.2,2.6,1.8,4.6,4.3,4.7
				c2.1,0,4.3-1.5,6.2-2.2c2.8-1,5.6-1.9,8.5-2.5c6.1-1.4,12.3-1.9,18.6-1.7c2.9,0.1,6.7,0.9,7.7-2.8c0.7-2.6-0.9-4.6-3.2-5.3
				c-3.1-1-4.4,3.8-1.3,4.8c-0.4-1.2-1.2-1.8-2.3-1.6c-0.9-0.1-1.8-0.1-2.7-0.1c-1.2,0-2.4,0-3.5,0c-2.9,0.1-5.7,0.4-8.6,0.8
				c-2.9,0.4-5.8,1-8.6,1.8c-1.8,0.5-8.1,1.6-9.2,3.2c-1.3,2,5.4-0.5,6.5-0.8c2.8-0.9,5.7-1.6,8.6-2.2c6.8-1.3,13.6-1.5,20.5-0.9
				C193,339.4,193,334.4,189.8,334.1z"/>
		</g>
	</g>
	<g>
		<path fill="#F39200" d="M160.3,302.8c-2.6,12.4-5.5,24.8-8.9,37.1c-0.6,2.2,2.7,3.4,3.3,1.2c3.4-12.6,6.5-25.2,9.1-38
			C164.3,300.9,160.8,300.6,160.3,302.8z"/>
		<g>
			<path fill="#F39200" d="M157.9,302.2c-2.5,11.8-5.5,23.5-8.4,35.2c-0.7,2.7-1.1,5.7,2.1,7c2.5,1,4.5-0.4,5.5-2.6
				c2.3-5.1,3.1-11.6,4.4-17c1.5-6,2.8-12,4.1-18.1c0.6-2.7,1.5-5.9-1.6-7.4c-2.3-1.1-4.9,0.1-5.9,2.3c-1.3,2.9,3,5.4,4.3,2.5
				c-1.2-0.2-1.8,0.2-1.7,1.2c-0.1,0.6-0.3,1.3-0.4,1.9c-0.3,1.6-0.7,3.2-1,4.8c-0.7,3.2-1.4,6.3-2.2,9.5c-0.7,2.8-1.4,5.7-2.1,8.5
				c-0.4,1.6-0.8,3.2-1.2,4.7c-0.3,1.2-1.8,3.7-0.2,3.9c1.6,0.1,2.3-5.6,2.7-7.3c0.8-3.1,1.6-6.2,2.3-9.2c1.5-6.2,2.9-12.4,4.2-18.6
				C163.4,300.3,158.6,299,157.9,302.2z"/>
		</g>
	</g>
	<g>
		<path fill="#0BBBEF" d="M190.4,333.8c-5.2-12.9-13.7-24.9-25.5-32.7c-1.9-1.2-3.9,1.6-2,2.9c5.7,3.8,10.2,8.9,14.6,14.1
			c4.4,5.2,7.2,10.9,9.7,17.2C188.1,337.4,191.3,335.9,190.4,333.8z"/>
		<g>
			<path fill="#0BBBEF" d="M192.8,333.1c-4-9.8-9.5-18.9-17.1-26.4c-2.6-2.6-7.2-7.8-11.1-8.4c-2.8-0.4-5.3,2-4.9,4.8
				c0.2,1.3,0.9,2,1.9,2.9c2.6,2.3,5.4,4.2,7.9,6.7c4.3,4.4,8.5,9.2,11.4,14.6c1.7,3.1,2.9,10.4,7,11.2c3,0.5,5.3-2.1,4.9-4.9
				c-0.4-3.2-5.4-3.2-5,0c1.4-0.4,1.5-1.1,0.5-2.3c-0.1-0.2-0.2-0.4-0.3-0.6c-0.8-1.8-1.6-3.5-2.5-5.2c-1.5-2.8-3.1-5.4-5.1-7.9
				c-3.6-4.6-8.4-11.2-13.6-14c-2.4-1.3-2-0.2-0.7,1.3c1.1,1.2,3,2.4,4.3,3.6c2.3,2.1,4.4,4.4,6.4,6.8c4.6,5.7,8.3,12.2,11.1,19
				C189.2,337.4,194.1,336.1,192.8,333.1z"/>
		</g>
	</g>
	<path fill="#B2B2B2" d="M208.5,356.2c-22.9-1.8-45.5,4-67.4,10.2c-2.4-15.7-5.7-31.3-9.9-46.6c-2.2-8.2-4.7-16.3-7.5-24.3
		c-1.4-4-2.8-8-4.3-12c-1.3-3.4-2.3-7.7-5.2-10c-1.6-1.2-3.7-1.5-5.3,0c-1.3,1.3-1.6,4.1,0,5.3c1.3,1,1.7,2.5,2.3,4
		c0.7,1.8,1.3,3.5,2,5.3c1.4,3.8,2.8,7.7,4.1,11.5c2.6,7.9,5,15.8,7.2,23.9c4.3,15.9,7.6,32.1,9.9,48.4c0.1,0.9,0.8,1.7,1.5,2.1
		c0.8,0.7,1.9,1,3.2,0.6c22.5-6.4,45.6-12.9,69.3-11C213.3,364.1,213.3,356.6,208.5,356.2z"/>
	<path fill="none" stroke="#000000" stroke-width="5" stroke-miterlimit="10" d="M209.4,355.4c-22.6-0.8-47.8,2.9-68.2,10.8
		c-5.8-31-14.5-61.6-26.1-91.5c21.5-3.9,42.1-6.3,64.2-4.8"/>
	<path fill="none" stroke="#000000" stroke-width="5" stroke-miterlimit="10" d="M180.2,270.6c12.5,27.9,22.3,56.6,29.2,85.7"/>
	<path fill="none" stroke="#000000" stroke-width="3" stroke-miterlimit="10" d="M109.2,277.7c11,29.9,19.2,60.8,24.3,92.2"/>
	<path fill="none" stroke="#000000" stroke-width="3" stroke-miterlimit="10" d="M144.8,372.1c17.2-6.4,35.4-10.4,53.7-11.7"/>
	<path fill="none" stroke="#000000" stroke-width="2" stroke-miterlimit="10" d="M189.3,336c-13.3-0.6-26.7,1.6-38.7,7.3
		c4.5-13.7,8.8-27.5,13-41.3C173.9,311,183.3,323.6,189.3,336z"/>
	<path fill="none" stroke="#EC6608" stroke-miterlimit="10" d="M134.8,295c0,0.3,0,0.6,0,0.9c-0.1-3.3-0.2-6.6-0.3-10
		c0.7-0.6,1.6-0.8,2.4-0.8c0.9,0.1,1.2,1.2,0.7,2.1c-0.5,0.9-1.4,1.6-2.3,2.2c1.5,1.2,3.1,2.3,4.7,3.4"/>
	<path fill="none" stroke="#EC6608" stroke-miterlimit="10" d="M146.1,292.1c-1.3,0.6-2.6,1.2-4,1.7c-0.3-3-0.4-6-0.4-9
		c1-0.4,1.6-0.7,2.6-1.1"/>
	<path fill="none" stroke="#EC6608" stroke-miterlimit="10" d="M142,288.7c0.8-0.5,1.7-0.8,2.6-1"/>
	<path fill="none" stroke="#EC6608" stroke-miterlimit="10" d="M151.4,283.2c-0.5-0.4-1.2-0.5-1.7-0.2c-0.2,0.2-0.4,0.4-0.6,0.6
		c-1.5,2-1.9,4.8-1.2,7.2c0.1,0.4,0.3,0.8,0.6,1c0.5,0.3,1.1,0.2,1.6,0.1c0.8-0.2,1.8-0.7,1.8-1.5"/>
	<path fill="none" stroke="#EC6608" stroke-miterlimit="10" d="M158.7,289.5c-1.4,0.3-2.8,0.7-4.2,1c0.3-3,0.7-6,1.2-9
		c1.1-0.3,1.7-0.4,2.7-0.7"/>
	<path fill="none" stroke="#EC6608" stroke-miterlimit="10" d="M155.2,285.5c0.9-0.3,1.8-0.5,2.7-0.6"/>
	<path fill="none" stroke="#EC6608" stroke-miterlimit="10" d="M160.8,281.1c0.3,3.1,0.4,6.3,0.2,9.5"/>
	<path fill="none" stroke="#EC6608" stroke-miterlimit="10" d="M164,280.5c0.8,3.3,1.2,6.7,1.2,10.1"/>
	<path fill="none" stroke="#EC6608" stroke-miterlimit="10" d="M164,280.7c0.8-0.3,1.6-0.6,2.4-0.6c0.8,0,1.7,0.3,2.1,1
		c0.5,0.9,0.2,2-0.5,2.7c-0.7,0.7-1.6,1.1-2.5,1.5"/>
	<path fill="none" stroke="#EC6608" stroke-miterlimit="10" d="M171.1,279.8c2,0.2,4,0.5,5.9,0.9"/>
	<path fill="none" stroke="#EC6608" stroke-miterlimit="10" d="M173.8,279.9c-0.1,3.4-0.3,6.8-0.4,10.1"/>
	<g>
		<path fill="#B2B2B2" d="M300.3,334.2c-13-1.2-26.1,1-38,6.4c-2,0.9-0.6,4.1,1.5,3.2c11.4-5.2,23.7-7.2,36.2-6.1
			C302.3,337.9,302.6,334.4,300.3,334.2z"/>
		<g>
			<path fill="#B2B2B2" d="M300.3,331.7c-11.4-0.9-22.9,0.4-33.7,4.4c-2.7,1-7.4,2-7.7,5.6c-0.2,2.6,1.8,4.6,4.3,4.7
				c2.1,0,4.3-1.5,6.2-2.2c2.8-1,5.6-1.9,8.5-2.5c6.1-1.4,12.3-1.9,18.6-1.7c2.9,0.1,6.7,0.9,7.7-2.8c0.7-2.6-0.9-4.6-3.2-5.3
				c-3.1-1-4.4,3.8-1.3,4.8c-0.4-1.2-1.2-1.8-2.3-1.6c-0.9-0.1-1.8-0.1-2.7-0.1c-1.2,0-2.4,0-3.5,0c-2.9,0.1-5.7,0.4-8.6,0.8
				c-2.9,0.4-5.8,1-8.6,1.8c-1.8,0.5-8.1,1.6-9.2,3.2c-1.3,2,5.4-0.5,6.5-0.8c2.8-0.9,5.7-1.6,8.6-2.2c6.8-1.3,13.6-1.5,20.5-0.9
				C303.5,337,303.5,332,300.3,331.7z"/>
		</g>
	</g>
	<g>
		<path fill="#F39200" d="M270.8,300.4c-2.6,12.4-5.5,24.8-8.9,37.1c-0.6,2.2,2.7,3.4,3.3,1.2c3.4-12.6,6.5-25.2,9.1-38
			C274.7,298.5,271.3,298.2,270.8,300.4z"/>
		<g>
			<path fill="#F39200" d="M268.4,299.7c-2.5,11.8-5.5,23.5-8.4,35.2c-0.7,2.7-1.1,5.7,2.1,7c2.5,1,4.5-0.4,5.5-2.6
				c2.3-5.1,3.1-11.6,4.4-17c1.5-6,2.8-12,4.1-18.1c0.6-2.7,1.5-5.9-1.6-7.4c-2.3-1.1-4.9,0.1-5.9,2.3c-1.3,2.9,3,5.4,4.3,2.5
				c-1.2-0.2-1.8,0.2-1.7,1.2c-0.1,0.6-0.3,1.3-0.4,1.9c-0.3,1.6-0.7,3.2-1,4.8c-0.7,3.2-1.4,6.3-2.2,9.5c-0.7,2.8-1.4,5.7-2.1,8.5
				c-0.4,1.6-0.8,3.2-1.2,4.7c-0.3,1.2-1.8,3.7-0.2,3.9c1.6,0.1,2.3-5.6,2.7-7.3c0.8-3.1,1.6-6.2,2.3-9.2c1.5-6.2,2.9-12.4,4.2-18.6
				C273.9,297.9,269.1,296.6,268.4,299.7z"/>
		</g>
	</g>
	<g>
		<path fill="#0BBBEF" d="M300.9,331.4c-5.2-12.9-13.7-24.9-25.5-32.7c-1.9-1.2-3.9,1.6-2,2.9c5.7,3.8,10.2,8.9,14.6,14.1
			c4.4,5.2,7.2,10.9,9.7,17.2C298.6,335,301.7,333.5,300.9,331.4z"/>
		<g>
			<path fill="#0BBBEF" d="M303.3,330.7c-4-9.8-9.5-18.9-17.1-26.4c-2.6-2.6-7.2-7.8-11.1-8.4c-2.8-0.4-5.3,2-4.9,4.8
				c0.2,1.3,0.9,2,1.9,2.9c2.6,2.3,5.4,4.2,7.9,6.7c4.3,4.4,8.5,9.2,11.4,14.6c1.7,3.1,2.9,10.4,7,11.2c3,0.5,5.3-2.1,4.9-4.9
				c-0.4-3.2-5.4-3.2-5,0c1.4-0.4,1.5-1.1,0.5-2.3c-0.1-0.2-0.2-0.4-0.3-0.6c-0.8-1.8-1.6-3.5-2.5-5.2c-1.5-2.8-3.1-5.4-5.1-7.9
				c-3.6-4.6-8.4-11.2-13.6-14c-2.4-1.3-2-0.2-0.7,1.3c1.1,1.2,3,2.4,4.3,3.6c2.3,2.1,4.4,4.4,6.4,6.8c4.6,5.7,8.3,12.2,11.1,19
				C299.7,335,304.5,333.7,303.3,330.7z"/>
		</g>
	</g>
	<path fill="#B2B2B2" d="M319,353.8c-22.9-1.8-45.5,4-67.4,10.2c-2.4-15.7-5.7-31.3-9.9-46.6c-2.2-8.2-4.7-16.3-7.5-24.3
		c-1.4-4-2.8-8-4.3-12c-1.3-3.4-2.3-7.7-5.2-10c-1.6-1.2-3.7-1.5-5.3,0c-1.3,1.3-1.6,4.1,0,5.3c1.3,1,1.7,2.5,2.3,4
		c0.7,1.8,1.3,3.5,2,5.3c1.4,3.8,2.8,7.7,4.1,11.5c2.6,7.9,5,15.8,7.2,23.9c4.3,15.9,7.6,32.1,9.9,48.4c0.1,0.9,0.8,1.7,1.5,2.1
		c0.8,0.7,1.9,1,3.2,0.6c22.5-6.4,45.6-12.9,69.3-11C323.8,361.6,323.7,354.2,319,353.8z"/>
	<path fill="none" stroke="#000000" stroke-width="5" stroke-miterlimit="10" d="M319.9,353c-22.6-0.8-47.8,2.9-68.2,10.8
		c-5.8-31-14.5-61.6-26.1-91.5c21.5-3.9,42.1-6.3,64.2-4.8"/>
	<path fill="none" stroke="#000000" stroke-width="5" stroke-miterlimit="10" d="M290.7,268.2c12.5,27.9,22.3,56.6,29.2,85.7"/>
	<path fill="none" stroke="#000000" stroke-width="3" stroke-miterlimit="10" d="M219.6,275.3c11,29.9,19.2,60.8,24.3,92.2"/>
	<path fill="none" stroke="#000000" stroke-width="3" stroke-miterlimit="10" d="M255.2,369.7c17.2-6.4,35.4-10.4,53.7-11.7"/>
	<path fill="none" stroke="#000000" stroke-width="2" stroke-miterlimit="10" d="M299.8,333.6c-13.3-0.6-26.7,1.6-38.7,7.3
		c4.5-13.7,8.8-27.5,13-41.3C284.4,308.6,293.8,321.2,299.8,333.6z"/>
	<path fill="none" stroke="#EC6608" stroke-miterlimit="10" d="M245.3,292.6c0,0.3,0,0.6,0,0.9c-0.1-3.3-0.2-6.6-0.3-10
		c0.7-0.6,1.6-0.8,2.4-0.8c0.9,0.1,1.2,1.2,0.7,2.1s-1.4,1.6-2.3,2.2c1.5,1.2,3.1,2.3,4.7,3.4"/>
	<path fill="none" stroke="#EC6608" stroke-miterlimit="10" d="M256.6,289.6c-1.3,0.6-2.6,1.2-4,1.7c-0.3-3-0.4-6-0.4-9
		c1-0.4,1.6-0.7,2.6-1.1"/>
	<path fill="none" stroke="#EC6608" stroke-miterlimit="10" d="M252.5,286.3c0.8-0.5,1.7-0.8,2.6-1"/>
	<path fill="none" stroke="#EC6608" stroke-miterlimit="10" d="M261.9,280.8c-0.5-0.4-1.2-0.5-1.7-0.2c-0.2,0.2-0.4,0.4-0.6,0.6
		c-1.5,2-1.9,4.8-1.2,7.2c0.1,0.4,0.3,0.8,0.6,1c0.5,0.3,1.1,0.2,1.6,0.1c0.8-0.2,1.8-0.7,1.8-1.5"/>
	<path fill="none" stroke="#EC6608" stroke-miterlimit="10" d="M269.2,287.1c-1.4,0.3-2.8,0.7-4.2,1c0.3-3,0.7-6,1.2-9
		c1.1-0.3,1.7-0.4,2.7-0.7"/>
	<path fill="none" stroke="#EC6608" stroke-miterlimit="10" d="M265.7,283c0.9-0.3,1.8-0.5,2.7-0.6"/>
	<path fill="none" stroke="#EC6608" stroke-miterlimit="10" d="M271.3,278.7c0.3,3.1,0.4,6.3,0.2,9.5"/>
	<path fill="none" stroke="#EC6608" stroke-miterlimit="10" d="M274.5,278c0.8,3.3,1.2,6.7,1.2,10.1"/>
	<path fill="none" stroke="#EC6608" stroke-miterlimit="10" d="M274.5,278.3c0.8-0.3,1.6-0.6,2.4-0.6c0.8,0,1.7,0.3,2.1,1
		c0.5,0.9,0.2,2-0.5,2.7c-0.7,0.7-1.6,1.1-2.5,1.5"/>
	<path fill="none" stroke="#EC6608" stroke-miterlimit="10" d="M281.6,277.4c2,0.2,4,0.5,5.9,0.9"/>
	<path fill="none" stroke="#EC6608" stroke-miterlimit="10" d="M284.3,277.4c-0.1,3.4-0.3,6.8-0.4,10.1"/>
	<g>
		<path fill="#B2B2B2" d="M401.4,331.7c-13-1.2-26.1,1-38,6.4c-2,0.9-0.6,4.1,1.5,3.2c11.4-5.2,23.7-7.2,36.2-6.1
			C403.3,335.4,403.6,331.9,401.4,331.7z"/>
		<g>
			<path fill="#B2B2B2" d="M401.4,329.2c-11.4-0.9-22.9,0.4-33.7,4.4c-2.7,1-7.4,2-7.7,5.6c-0.2,2.6,1.8,4.6,4.3,4.7
				c2.1,0,4.3-1.5,6.2-2.2c2.8-1,5.6-1.9,8.5-2.5c6.1-1.4,12.3-1.9,18.6-1.7c2.9,0.1,6.7,0.9,7.7-2.8c0.7-2.6-0.9-4.6-3.2-5.3
				c-3.1-1-4.4,3.8-1.3,4.8c-0.4-1.2-1.2-1.8-2.3-1.6c-0.9-0.1-1.8-0.1-2.7-0.1c-1.2,0-2.4,0-3.5,0c-2.9,0.1-5.7,0.4-8.6,0.8
				c-2.9,0.4-5.8,1-8.6,1.8c-1.8,0.5-8.1,1.6-9.2,3.2c-1.3,2,5.4-0.5,6.5-0.8c2.8-0.9,5.7-1.6,8.6-2.2c6.8-1.3,13.6-1.5,20.5-0.9
				C404.6,334.5,404.6,329.5,401.4,329.2z"/>
		</g>
	</g>
	<g>
		<path fill="#F39200" d="M371.9,297.9c-2.6,12.4-5.5,24.8-8.9,37.1c-0.6,2.2,2.7,3.4,3.3,1.2c3.4-12.6,6.5-25.2,9.1-38
			C375.8,296,372.3,295.7,371.9,297.9z"/>
		<g>
			<path fill="#F39200" d="M369.4,297.2c-2.5,11.8-5.5,23.5-8.4,35.2c-0.7,2.7-1.1,5.7,2.1,7c2.5,1,4.5-0.4,5.5-2.6
				c2.3-5.1,3.1-11.6,4.4-17c1.5-6,2.8-12,4.1-18.1c0.6-2.7,1.5-5.9-1.6-7.4c-2.3-1.1-4.9,0.1-5.9,2.3c-1.3,2.9,3,5.4,4.3,2.5
				c-1.2-0.2-1.8,0.2-1.7,1.2c-0.1,0.6-0.3,1.3-0.4,1.9c-0.3,1.6-0.7,3.2-1,4.8c-0.7,3.2-1.4,6.3-2.2,9.5c-0.7,2.8-1.4,5.7-2.1,8.5
				c-0.4,1.6-0.8,3.2-1.2,4.7c-0.3,1.2-1.8,3.7-0.2,3.9c1.6,0.1,2.3-5.6,2.7-7.3c0.8-3.1,1.6-6.2,2.3-9.2c1.5-6.2,2.9-12.4,4.2-18.6
				C374.9,295.4,370.1,294.1,369.4,297.2z"/>
		</g>
	</g>
	<g>
		<path fill="#0BBBEF" d="M401.9,328.9c-5.2-12.9-13.7-24.9-25.5-32.7c-1.9-1.2-3.9,1.6-2,2.9c5.7,3.8,10.2,8.9,14.6,14.1
			c4.4,5.2,7.2,10.9,9.7,17.2C399.6,332.5,402.8,331,401.9,328.9z"/>
		<g>
			<path fill="#0BBBEF" d="M404.4,328.2c-4-9.8-9.5-18.9-17.1-26.4c-2.6-2.6-7.2-7.8-11.1-8.4c-2.8-0.4-5.3,2-4.9,4.8
				c0.2,1.3,0.9,2,1.9,2.9c2.6,2.3,5.4,4.2,7.9,6.7c4.3,4.4,8.5,9.2,11.4,14.6c1.7,3.1,2.9,10.4,7,11.2c3,0.5,5.3-2.1,4.9-4.9
				c-0.4-3.2-5.4-3.2-5,0c1.4-0.4,1.5-1.1,0.5-2.3c-0.1-0.2-0.2-0.4-0.3-0.6c-0.8-1.8-1.6-3.5-2.5-5.2c-1.5-2.8-3.1-5.4-5.1-7.9
				c-3.6-4.6-8.4-11.2-13.6-14c-2.4-1.3-2-0.2-0.7,1.3c1.1,1.2,3,2.4,4.3,3.6c2.3,2.1,4.4,4.4,6.4,6.8c4.6,5.7,8.3,12.2,11.1,19
				C400.7,332.5,405.6,331.2,404.4,328.2z"/>
		</g>
	</g>
	<path fill="#B2B2B2" d="M420,351.3c-22.9-1.8-45.5,4-67.4,10.2c-2.4-15.7-5.7-31.3-9.9-46.6c-2.2-8.2-4.7-16.3-7.5-24.3
		c-1.4-4-2.8-8-4.3-12c-1.3-3.4-2.3-7.7-5.2-10c-1.6-1.2-3.7-1.5-5.3,0c-1.3,1.3-1.6,4.1,0,5.3c1.3,1,1.7,2.5,2.3,4
		c0.7,1.8,1.3,3.5,2,5.3c1.4,3.8,2.8,7.7,4.1,11.5c2.6,7.9,5,15.8,7.2,23.9c4.3,15.9,7.6,32.1,9.9,48.4c0.1,0.9,0.8,1.7,1.5,2.1
		c0.8,0.7,1.9,1,3.2,0.6c22.5-6.4,45.6-12.9,69.3-11C424.8,359.1,424.8,351.7,420,351.3z"/>
	<path fill="none" stroke="#000000" stroke-width="5" stroke-miterlimit="10" d="M420.9,350.5c-22.6-0.8-47.8,2.9-68.2,10.8
		c-5.8-31-14.5-61.6-26.1-91.5c21.5-3.9,42.1-6.3,64.2-4.8"/>
	<path fill="none" stroke="#000000" stroke-width="5" stroke-miterlimit="10" d="M391.7,265.7c12.5,27.9,22.3,56.6,29.2,85.7"/>
	<path fill="none" stroke="#000000" stroke-width="3" stroke-miterlimit="10" d="M320.7,272.8c11,29.9,19.2,60.8,24.3,92.2"/>
	<path fill="none" stroke="#000000" stroke-width="3" stroke-miterlimit="10" d="M356.3,367.2c17.2-6.4,35.4-10.4,53.7-11.7"/>
	<path fill="none" stroke="#000000" stroke-width="2" stroke-miterlimit="10" d="M400.8,331.1c-13.3-0.6-26.7,1.6-38.7,7.3
		c4.5-13.7,8.8-27.5,13-41.3C385.5,306.1,394.9,318.7,400.8,331.1z"/>
	<path fill="none" stroke="#EC6608" stroke-miterlimit="10" d="M346.3,290.1c0,0.3,0,0.6,0,0.9c-0.1-3.3-0.2-6.6-0.3-10
		c0.7-0.6,1.6-0.8,2.4-0.8c0.9,0.1,1.2,1.2,0.7,2.1c-0.5,0.9-1.4,1.6-2.3,2.2c1.5,1.2,3.1,2.3,4.7,3.4"/>
	<path fill="none" stroke="#EC6608" stroke-miterlimit="10" d="M357.7,287.1c-1.3,0.6-2.6,1.2-4,1.7c-0.3-3-0.4-6-0.4-9
		c1-0.4,1.6-0.7,2.6-1.1"/>
	<path fill="none" stroke="#EC6608" stroke-miterlimit="10" d="M353.5,283.7c0.8-0.5,1.7-0.8,2.6-1"/>
	<path fill="none" stroke="#EC6608" stroke-miterlimit="10" d="M362.9,278.2c-0.5-0.4-1.2-0.5-1.7-0.2c-0.2,0.2-0.4,0.4-0.6,0.6
		c-1.5,2-1.9,4.8-1.2,7.2c0.1,0.4,0.3,0.8,0.6,1c0.5,0.3,1.1,0.2,1.6,0.1c0.8-0.2,1.8-0.7,1.8-1.5"/>
	<path fill="none" stroke="#EC6608" stroke-miterlimit="10" d="M370.2,284.6c-1.4,0.3-2.8,0.7-4.2,1c0.3-3,0.7-6,1.2-9
		c1.1-0.3,1.7-0.4,2.7-0.7"/>
	<path fill="none" stroke="#EC6608" stroke-miterlimit="10" d="M366.7,280.5c0.9-0.3,1.8-0.5,2.7-0.6"/>
	<path fill="none" stroke="#EC6608" stroke-miterlimit="10" d="M372.4,276.2c0.3,3.1,0.4,6.3,0.2,9.5"/>
	<path fill="none" stroke="#EC6608" stroke-miterlimit="10" d="M375.6,275.5c0.8,3.3,1.2,6.7,1.2,10.1"/>
	<path fill="none" stroke="#EC6608" stroke-miterlimit="10" d="M375.5,275.8c0.8-0.3,1.6-0.6,2.4-0.6c0.8,0,1.7,0.3,2.1,1
		c0.5,0.9,0.2,2-0.5,2.7c-0.7,0.7-1.6,1.1-2.5,1.5"/>
	<path fill="none" stroke="#EC6608" stroke-miterlimit="10" d="M382.6,274.9c2,0.2,4,0.5,5.9,0.9"/>
	<path fill="none" stroke="#EC6608" stroke-miterlimit="10" d="M385.3,274.9c-0.1,3.4-0.3,6.8-0.4,10.1"/>
</g>
</svg>
