<?xml version="1.0" encoding="utf-8"?>
<!-- Generator: Adobe Illustrator 21.1.0, SVG Export Plug-In . SVG Version: 6.00 Build 0)  -->
<svg version="1.1" xmlns="http://www.w3.org/2000/svg" xmlns:xlink="http://www.w3.org/1999/xlink" x="0px" y="0px"
	 viewBox="0 0 841.9 595.3" enable-background="new 0 0 841.9 595.3" xml:space="preserve">
<g id="Layer_2">
	<path fill="#B2B2B2" d="M321.1,223.4c-26.1-2.5-52.2,1.9-76.1,12.8c-4.1,1.9-1.1,8.2,3,6.3c22.8-10.4,47.6-14.5,72.5-12.1
		C325,230.8,325.6,223.9,321.1,223.4z"/>
	<path fill="#F39200" d="M265.8,158.9c-5.2,24.9-11.1,49.7-17.9,74.3c-1.2,4.3,5.4,6.8,6.6,2.4c6.9-25.2,13-50.5,18.3-76.1
		C273.7,155.1,266.7,154.5,265.8,158.9z"/>
	<path fill="#0BBBEF" d="M167.1,8.4"/>
	<path fill="#0BBBEF" d="M326.1,221c-10.4-25.9-27.5-49.8-51-65.5c-3.8-2.5-7.8,3.2-4,5.7c11.4,7.6,20.5,17.8,29.3,28.2
		c8.9,10.4,14.4,21.9,19.4,34.6C321.5,228.2,327.8,225.2,326.1,221z"/>
	<path fill="#EC6608" d="M336.7,499.7c0.3-0.8,1-1.5,1.8-1.7c0.1-0.6,0.4-1.2,1.1-1.5c-0.6-3.1-0.8-6.2-0.5-9.3
		c0.2-1.4,1.3-2.1,2.4-2.2c-0.9-2.2-2.6-5-2.4-7.4c0.1-1.2,0.7-2.4,1.6-3.1c1-0.9,4.3-1.3,5.7-2.2c-0.1-0.8,0.2-1.6,1-2.2
		c0.1-0.1,0.2-0.1,0.3-0.2c0.9-0.7,2.1-0.2,2.9,0.4l0.3,0.3c0.4,0.3,0.6,0.9,0.6,1.4c1.8-0.9,4.3-0.8,6.1,0.7
		c6.5,5.3,11.3,12.9,12.3,21.3c0,0.2,0,0.4,0,0.5c1.6,1.2,1.2,4.4-1.3,4.3c-0.5,0-1-0.1-1.5-0.1c-0.2,0-0.4,0-0.6-0.1
		c-1.4,0.4-2.9,0.4-4.1-0.3c-1.9-1.1-3.5-2.5-4.8-4.1c-0.1-0.1-0.1-0.1-0.2-0.2c0.3,1.9,0.4,3.7,0.5,5.6c0.8,2.9,1.2,5.9,1,8.9
		c-0.2,4.9-5.2,6.4-8.4,4.6c-4.2-1.8-8.6-7.4-10.7-9.6c-0.2-0.2-0.3-0.4-0.4-0.6l-1.1-0.4C337.2,502.2,336.3,501,336.7,499.7z"/>
	<path fill="#EC6608" d="M264.1,506.3c0.4-1.1,1-2.1,1.7-3c0-0.2-0.1-0.4-0.1-0.6c0.2-5.2,1.1-10.3,2.6-15.3c0.3-1,1.3-1.6,2.3-1.7
		c1.3-4.6,3.5-8.9,7.4-11.7c3.1-2.3,6.4-2.4,10.1-1.9c4.3,0.6,8.5,1,12.8,1c0.1-0.1,0.2-0.2,0.3-0.3c1.1-1.1,2.5-0.8,3.3,0.2
		c0.4,0,0.8,0,1.2-0.1c3-0.2,3,4.5,0,4.7c0,0-0.1,0-0.1,0l0.2,1.3c2,0.6,1.8,2.9,0.5,4c0.3,2.3,0.6,4.6,0.8,6.9
		c0.1,0.8-0.1,1.3-0.5,1.7c0,0.1,0.1,0.2,0.1,0.3c0.5,0.5,1,1,1.4,1.5c3,1.7,6,4.4,8.3,6.6c1-0.7,2.5-0.8,3.2,0.7
		c1.1,2.3,2.3,4.6,3.4,7c0.9,1.9-0.6,3.8-2.7,3.5c-0.1,0-0.2,0-0.3-0.1c-0.4,0.7-1,1.2-1.9,1.3c-1.5,0.2-3.1,0.4-4.7,0.5
		c-3.3,1.9-9.3,0.6-12.3-0.2c-0.9-0.2-1.7-0.6-2.4-1.1c-0.5,0.4-1.2,0.6-2,0.4c-4.9-1.4-10-3.4-11.8-8.7c-0.1-0.3-0.2-0.5-0.2-0.8
		c-0.2-0.2-0.4-0.3-0.6-0.5c-1-0.8-0.8-2.5,0-3.3c0.1-0.1,0.1-0.1,0.2-0.2c0-0.6,0-1.1,0.1-1.7c-0.5-0.7-1-1.4-1.5-2.1
		c-0.4,1.4-1.1,2.7-2.1,3.9c0.1,0,0.3,0.1,0.4,0.1c2.2,0.6,2.2,3.9,0,4.5c-1.2,0.3-2.5,0.6-3.7,0.9c-0.3,0.4-0.7,0.7-1.4,0.9
		c-0.4,0.1-0.7,0.2-1.1,0.3c-0.4,1.2-0.8,2.3-1.2,3.5c-0.7,2.1-4,2.4-4.5,0c-0.1-0.3-0.1-0.6-0.2-0.9c-0.5,0.3-1.1,0.7-1.6,1.1
		C266,510.1,263.4,508.1,264.1,506.3z"/>
	<path fill="#EC6608" d="M364.4,533.6c-0.8-1.2-2-2.2-3.9-2.6c-4.4-1.1-8.8-0.9-13.2-0.1c-0.9-0.6-2-0.9-3.3-0.7
		c-12.2,2-24.6,2.2-36.9,2c-5.6-0.1-11.4,0-17-0.6c-6-0.6-11.2-3-16.5-6c-3.4-1.9-6.6,1.1-6.2,4.5c-0.9,1.2-1.1,2.9-0.2,4.4
		c0.8,1.5,1.3,2.9,1.4,4.4c0,1,0,2,0,3c0.1,2.9,2.2,4.2,4.3,4c0.5,0.2,1,0.3,1.5,0.4c14.8,1.2,29.4-0.8,44-2.3
		c6.5-0.4,13-0.8,19.4-1.4c0.9,0,1.8-0.1,2.7-0.1c0.3,0,0.5,0,0.7-0.1c5.8,0.9,11.6,1.2,17.5,0.8c2,2.3,6.1,2.3,7.2-1.4
		c0.3-1.1,0.7-2.2,1-3.3C367.9,536.1,366.3,534.2,364.4,533.6z"/>
	<path d="M268.3,354.8c-0.2-0.6-0.2-1.2-0.2-1.8c0.2-2,2.5-3.1,4-1.7c0.2,0.2,0.3,0.3,0.5,0.5c0.2-0.3,0.6-0.6,0.9-0.8
		c-0.1,0-0.2,0-0.3,0c-1.1-0.1-1.9-0.7-2.3-1.7c-0.3-1-0.2-1.8,0.4-2.7c0.6-1,1.6-1.2,2.7-1.1c1.2,0.2,2.4,1.2,3.4,2.5
		c0-0.3,0-0.5,0.1-0.8c0.2-1.6,1.4-2.5,2.7-2.3c0.7-0.9,2.1-1.4,3.2-0.8c0.8,0.5,1.5,1,2.1,1.5c-0.3-1.8,1.9-3.4,3.5-2.3
		c0.5,0.3,1.2,0.9,1.8,1.5c-0.8-1.7,1-3.6,2.8-3.2c1.2,0.3,2.5,1.1,3.8,2.1c-0.3-0.6-0.5-1.3-0.7-1.9c-0.7-2.5,2.2-3.6,3.9-2.3
		c0.7,0.5,1.6,1.4,2.6,2.5c0.4-1.3,2.2-2.2,3.5-1.4c1.7,0.9,3,2.1,3.9,3.5c-0.3-0.5-0.5-1-0.7-1.5c-1.1-2.5,1.6-4.5,3.7-2.8
		c0.1,0.1,0.3,0.2,0.4,0.3c0.2-1.4,1.3-2.8,2.9-2.2c4.3,1.8,9.6,5.9,7.9,10.6c0.6,0,1.1-0.2,1.5-0.4c-1.1-2.1-1.8-4.4-2.1-6.9
		c-0.2-1.7,1.6-2.5,3-2.3c1.5,0.2,2.7,0.9,3.6,1.9c1.7-0.5,3.7,0,4.9,1.6c0.6,0.8,1,1.7,1.3,2.7c1-0.7,2.6-0.7,3.3,0.7
		c0.2,0.4,0.4,0.8,0.6,1.2c0.2-1.2,1.2-2.4,2.7-2.2c0.6-0.6,1.4-0.9,2.2-0.5c4.5,1.9,7.2,6.7,5.7,11.5c-0.8,2.7-5,1.8-4.6-0.8
		c0,0-0.1,0-0.1-0.1c-2.2-1.1-3.6-3.2-4-5.5c-0.1,0-0.1,0-0.2,0c-0.4-0.1-0.7-0.2-0.9-0.4c0.8,2.7,0.9,5.4,0.3,8.4
		c-0.3,1.6-2.2,2.1-3.5,1.4c-1.7-0.9-4.3-2.7-6.6-4.8c-0.9-0.6-1.7-1.2-2.5-1.9c-2.5,1.5-5.6,1.4-8.2,0.3c-0.9,0.4-1.7,0.4-2.6,0.3
		c-0.5,0.7-1.3,1.3-2.3,1.7c-1.7,0.6-3.3,0.3-4.9-0.5c-0.6,0.4-1.4,0.5-2,0.4c-0.7-0.2-1.5-0.4-2.2-0.7c-0.3,0.5-0.7,0.9-1.2,1.2
		c-1.8,1.2-3.8,1.1-5.6,0.1c-0.3,0.3-0.5,0.5-0.9,0.8c-1.3,1-2.6,1.3-4,1.1c-0.4,0.8-1.1,1.5-2.1,2c-2,1.1-3.9,0.7-5.7-0.5
		c-0.3,0-0.7,0-1,0c-0.6,1-1.5,1.8-2.9,2.5c-0.2,0.1-0.4,0.2-0.6,0.3c-0.1,1.1-0.3,2.1-0.8,3.1c-0.5,1.3-2.1,2.4-3.5,1.4
		c-0.9-0.7-1.8-1.4-2.5-2.2c-0.2,0.5-0.6,1-1,1.4c-0.9,0.8-1.8,1.1-2.7,1.1c-0.6,0.4-1.3,0.5-2,0.3c-2.9-0.8-4.9-3.6-4.5-6.5
		c-0.4-0.8-0.7-1.6-0.9-2.2C265.2,356,266.8,354.7,268.3,354.8z M337.9,353.1c0-0.4-0.1-0.8-0.2-1.2c-0.3,0.1-0.6,0.1-0.9,0.1
		c0,0.1,0,0.2-0.1,0.2C337.2,352.6,337.5,352.8,337.9,353.1z M312.6,349.3c0.5,0.3,1,0.5,1.4,0.5c0.3,0.3,0.5,0.4,0.6,0.4
		c-1.1-1.2-2-2.6-2.8-4C312.2,347.1,312.5,348.2,312.6,349.3z M290.1,354c0.5,0.3,0.9,0.6,1,0.5c-0.4-0.4-0.8-0.7-1.2-1.2
		C290,353.6,290.1,353.8,290.1,354z"/>
	<path d="M338.4,472.3c0.4-1.2,1.4-1.7,2.4-1.6c0.2-1,0.4-2.1,0.4-3.2c0.1-2.1,2.4-2.8,3.7-1.9c0-1,0-1.9,0-2.9
		c0-2.7,3.7-3.1,4.6-0.7c-0.1-0.4-0.2-0.7-0.3-1.1c-0.6-2.2,1.8-3.4,3.4-2.7c-0.3-0.8-0.5-1.5-0.7-2.3c-0.6-2.5,3.1-4.3,4.3-1.8
		c0.1,0.3,0.3,0.6,0.4,0.9c0.5-1.7,3.1-2.6,4.4-0.6c2.3,3.7,2.9,7.4,2.3,11.7c-0.2,1.4-2.3,2.2-3.5,1.4c-0.4-0.3-0.7-0.5-1-0.8
		c0,0.5-0.1,1-0.1,1.5c-0.2,1.9-2.2,3-3.8,1.9c0,0.4,0,0.7,0,1.1c-0.1,2-2.5,3.2-4,1.7c-0.5-0.5-1-1.1-1.5-1.7
		c-0.1,1.3-0.2,2.6-0.4,3.8c-0.2,1.8-2.5,3.3-4,1.7c-0.3-0.3-0.6-0.7-0.8-1c-0.2,0.4-0.4,0.8-0.5,1.2c-0.7,1.5-2.6,1.3-3.7,0.5
		C338.2,476.1,337.7,474.2,338.4,472.3z"/>
	<path d="M272.6,457.4c0.4-1.9,3.4-2.3,4.3-0.6c0.1,0.3,0.3,0.6,0.4,0.8c1.1-0.2,2.3,0.3,2.7,1.5c1.1-1.3,3.4-0.4,3.9,1.1
		c0.2,0.6,0.3,1.1,0.4,1.7c1.1-0.9,3.2-0.5,3.8,1.1c0.7,1.7,1,3.9,0.8,5.8c0,0,0,0.1,0,0.1c0,0.1,0.1,0.2,0.1,0.3
		c-0.2-1.7,0-3.1,0.7-4.7c0.8-1.7,4-1.4,4.3,0.6c0.1,0.7,0.3,1.4,0.4,2.1c1.1-0.3,2.4-0.2,3.7,0.5c1.4,0.8,2.1,1.9,2.4,3.2
		c2.4,2.4,3.2,6.3,1,9.4c-0.9,1.3-2.4,1.5-3.7,0.5c-0.8-0.7-1.6-1.4-2.3-2.1c-0.2-0.1-0.4-0.2-0.5-0.4c-0.9-0.8-1.6-1.7-2-2.8
		c-0.2-0.3-0.5-0.7-0.7-1c-0.9,1-2.1,1.5-3.5,1.3c-1.3-0.2-2.4-1-3.1-2.2c-0.8,0.3-1.7,0.3-2.8,0.1c-3-0.5-4.5-2.4-5-4.6
		c-0.7-0.7-1.3-1.4-1.7-2.2c-0.1,0.1-0.2,0.1-0.4,0.2c-1.2,0.5-2.5-0.6-2.9-1.6C272.1,462.8,272,460.3,272.6,457.4z"/>
	<path fill="#B2B2B2" d="M700.4,290.1c-20.9-4.6-41.9-8.1-63.1-10.8c-10.3-1.3-20.5-2.3-30.9-3.1c-5.5-0.4-11-0.8-16.4-1
		c-2.9-0.1-6,0-8.8-0.6c2.3-1.3,3.6-3.8,3.9-6.6c7.4-63.6,23.6-126.1,47.6-185.5c1.5-3.8-1.7-8.2-5.2-9.2c-4.3-1.2-7.7,1.5-9.2,5.2
		c-24.6,60.7-40.6,124.5-48.1,189.5c-0.2,1.4,0.2,2.7,1,3.8c-4.8,1.8-7.3,9.9-1.6,13.9c8,5.7,19.9,4.3,29.2,4.9
		c11,0.7,21.9,1.7,32.8,2.9c21.8,2.5,43.4,6.2,64.9,10.9C705.8,306.6,709.8,292.1,700.4,290.1z"/>
	<path fill="#B2B2B2" d="M362.3,265.9c-46-3.6-91.1,8-135,20.4c-4.8-31.5-11.4-62.7-19.8-93.4c-4.5-16.4-9.5-32.6-15-48.7
		c-2.7-8-5.6-16-8.6-24c-2.5-6.7-4.5-15.4-10.5-20c-3.2-2.5-7.5-3.1-10.6,0c-2.6,2.6-3.2,8.1,0,10.6c2.6,2,3.4,5.1,4.6,8.1
		c1.4,3.5,2.7,7.1,4,10.6c2.8,7.7,5.5,15.4,8.1,23.1c5.3,15.8,10.1,31.8,14.4,47.8c8.6,31.9,15.2,64.3,19.9,96.9
		c0.3,1.8,1.5,3.3,3.1,4.3c1.6,1.4,3.8,2,6.5,1.3c45.2-12.9,91.3-25.8,138.8-22.1C371.9,281.6,371.9,266.6,362.3,265.9z"/>
</g>
<g id="Layer_1">
	<text transform="matrix(1.104000e-02 -0.9999 0.9999 1.104000e-02 706.7323 532.6127)" font-family="'INGMe'" font-size="12px">© Beryl Ho (ING)</text>
	<path fill="none" stroke="#000000" stroke-width="9" stroke-miterlimit="10" d="M364.1,264.3c-45.4-1.5-95.8,5.9-136.6,21.7
		c-11.6-62.1-29.2-123.5-52.4-183.4c43.2-7.8,84.4-12.7,128.7-9.5"/>
	<path fill="none" stroke="#000000" stroke-width="9" stroke-miterlimit="10" d="M305.6,94.3c25.1,55.9,44.6,113.4,58.5,171.8"/>
	<path fill="none" stroke="#000000" stroke-width="5" stroke-miterlimit="10" d="M165.3,108.6c22.1,60,38.4,121.9,48.8,184.8"/>
	<path fill="none" stroke="#000000" stroke-width="5" stroke-miterlimit="10" d="M234.6,295.7c34.5-12.9,70.9-20.8,107.6-23.5"/>
	<path fill="none" stroke="#000000" stroke-width="5" stroke-miterlimit="10" d="M323.8,225.4c-26.7-1.3-53.5,3.3-77.7,14.7
		c9-27.5,17.7-55.1,26.1-82.8C293.1,175.3,311.9,200.6,323.8,225.4z"/>
	<path fill="none" stroke="#EC6608" stroke-width="4" stroke-miterlimit="10" d="M645.3,95.1c0.9,7,0,14.3-2.4,21"/>
	<path fill="none" stroke="#EC6608" stroke-width="4" stroke-miterlimit="10" d="M645.8,95.7c2.5,2.8,4.6,5.9,6.1,9.3"/>
	<path fill="none" stroke="#EC6608" stroke-width="4" stroke-miterlimit="10" d="M652.4,104.4c1.1-3.5,3.7-6.4,6.9-8"/>
	<path fill="none" stroke="#EC6608" stroke-width="4" stroke-miterlimit="10" d="M659.4,95c-1.9,6.9-2.8,14.1-2.9,21.3"/>
	<path fill="none" stroke="#EC6608" stroke-width="4" stroke-miterlimit="10" d="M667.5,96.5c-2.1,6-3.2,12.4-3.2,18.9
		c2.5,1.2,6,1.9,8.6,2.4"/>
	<path fill="none" stroke="#EC6608" stroke-width="4" stroke-miterlimit="10" d="M666.9,98.2c3,0.2,6,1,8.8,2.3"/>
	<path fill="none" stroke="#EC6608" stroke-width="4" stroke-miterlimit="10" d="M666.2,106.2c2.3,0.8,4.6,1.5,6.8,2.3"/>
	<path fill="none" stroke="#EC6608" stroke-width="4" stroke-miterlimit="10" d="M682.9,100.1c-0.8,6.8-1.7,13.6-2.5,20.3"/>
	<path fill="none" stroke="#EC6608" stroke-width="4" stroke-miterlimit="10" d="M682.2,101.8c1.8,2.5,2.7,5.5,3.8,8.4
		c1.3,3.5,3,6.9,5.1,10.1"/>
	<path fill="none" stroke="#EC6608" stroke-width="4" stroke-miterlimit="10" d="M694.2,99.7c-1.2,7.5-2.1,15-2.5,22.5"/>
	<path fill="none" stroke="#EC6608" stroke-width="4" stroke-miterlimit="10" d="M702.7,101.1c-1.5,4.1-2.1,8.5-1.8,12.8
		c0.1,1.7,0.4,3.4,1.5,4.7c1,1.3,3,2,4.5,1.2c0.7-0.4,1.1-1.1,1.5-1.7c2.8-4.5,3.9-10,3-15.3"/>
	<path fill="none" stroke="#000000" stroke-width="7" stroke-miterlimit="10" d="M428.2,166.4c29.9-4,60.7-8,90-0.7"/>
	<path fill="none" stroke="#000000" stroke-width="7" stroke-miterlimit="10" d="M498.5,144.1c6.9,7.1,13.8,14.2,20.7,21.3"/>
	<path fill="none" stroke="#000000" stroke-width="7" stroke-miterlimit="10" d="M492.2,184.7c9-6.6,17.5-13.9,25.3-21.8"/>
	<path fill="#0BBBEF" d="M681.1,164.7c-1-8.2-2-16.5-3-24.7c-0.5-3.8-0.3-10.1-5.5-10.2c-3.2-0.1-3.2,4.9,0,5c0.3,0,3.2,27.7,3.5,30
		C676.5,167.8,681.5,167.9,681.1,164.7z"/>
	<path fill="#0BBBEF" d="M665.8,174.8c-1.5-2.8-5.9-0.3-4.3,2.5c5.7,10.4,7.7,22.1,5.7,33.8c-0.5,3.1,4.3,4.5,4.8,1.3
		C674.3,199.4,672.2,186.4,665.8,174.8z"/>
	<path fill="#0BBBEF" d="M659.7,224.6c-1.5-2.8-5.8-0.3-4.3,2.5c5.2,9.7,7.2,20.2,6.1,31.2c-0.3,3.2,4.7,3.2,5,0
		C667.7,246.5,665.3,235,659.7,224.6z"/>
	<path fill="#B2B2B2" d="M668.5,207.2c-9.8-2.9-19.9-3.7-30.1-2.4c-3.2,0.4-3.2,5.4,0,5c9.8-1.2,19.3-0.5,28.8,2.3
		C670.2,212.9,671.6,208.1,668.5,207.2z"/>
	<path fill="#B2B2B2" d="M675.7,163.5c-10.1-3-20.4-3.9-30.8-2.7c-3.2,0.4-3.2,5.4,0,5c10-1.2,19.8-0.4,29.5,2.5
		C677.5,169.3,678.8,164.4,675.7,163.5z"/>
	<path fill="#B2B2B2" d="M661.8,255.7c-9.3-3.8-19.2-5.1-29.1-3.8c-3.1,0.4-3.2,5.4,0,5c9.6-1.2,18.9,0,27.8,3.7
		C663.5,261.8,664.7,256.9,661.8,255.7z"/>
	<path fill="#F39200" d="M671.2,129.4l-25.3,31.5c-2,2.5,1.5,6,3.5,3.5c8.4-10.5,16.9-21,25.3-31.5
		C676.7,130.4,673.2,126.8,671.2,129.4z"/>
	<path fill="#F39200" d="M660.1,175.9c-7.5,8.5-15,17-22.5,25.4c-2.1,2.4,1.4,6,3.5,3.5c7.5-8.5,15-17,22.5-25.4
		C665.7,177,662.2,173.5,660.1,175.9z"/>
	<path fill="#F39200" d="M652,223.1c-9,8.1-17.1,17.1-24.4,26.8c-1.9,2.6,2.4,5.1,4.3,2.5c7-9.4,14.9-18,23.6-25.8
		C657.9,224.5,654.4,220.9,652,223.1z"/>
	<path fill="none" stroke="#000000" stroke-width="8" stroke-miterlimit="10" d="M700,288.8c-37.9-10.3-77.6-14.3-116.7-11.1
		c2.6-19.3,5.7-38.6,9.3-57.8c9-47.9,21.4-95.7,43.9-138.9c35.4-4.7,71.3-1.7,105.6,8.3"/>
	<path fill="none" stroke="#000000" stroke-width="8" stroke-miterlimit="10" d="M742.1,87.6c-8.2,21.8-16.2,43.8-22.3,66.3
		c-11.9,44.4-16.1,90.5-20.1,136.3"/>
	<path fill="none" stroke="#EC6608" stroke-width="4" stroke-miterlimit="10" d="M214.6,143.2c0,0.6,0,1.2,0.1,1.9
		c-0.2-6.7-0.4-13.3-0.7-20c1.4-1.2,3.2-1.7,4.8-1.5c1.9,0.1,2.3,2.4,1.4,4.2c-1,1.8-2.9,3.1-4.7,4.4c3,2.4,6.2,4.6,9.4,6.7"/>
	<path fill="none" stroke="#EC6608" stroke-width="4" stroke-miterlimit="10" d="M237.4,137.3c-2.6,1.2-5.3,2.3-7.9,3.5
		c-0.5-6-0.8-12.1-0.7-18.1c2-0.9,3.2-1.4,5.2-2.3"/>
	<path fill="none" stroke="#EC6608" stroke-width="4" stroke-miterlimit="10" d="M229,130.5c1.6-0.9,3.3-1.6,5.1-2"/>
	<path fill="none" stroke="#EC6608" stroke-width="4" stroke-miterlimit="10" d="M247.9,119.5c-0.9-0.9-2.4-1-3.5-0.3
		c-0.5,0.3-0.9,0.8-1.2,1.3c-3,4.1-3.8,9.6-2.3,14.4c0.2,0.8,0.6,1.6,1.2,2c0.9,0.6,2.2,0.4,3.3,0.1c1.6-0.4,3.6-1.4,3.6-3.1"/>
	<path fill="none" stroke="#EC6608" stroke-width="4" stroke-miterlimit="10" d="M262.5,132.2c-2.8,0.7-5.6,1.4-8.4,2.1
		c0.5-6,1.3-12,2.4-18c2.1-0.5,3.4-0.8,5.5-1.3"/>
	<path fill="none" stroke="#EC6608" stroke-width="4" stroke-miterlimit="10" d="M255.5,124.1c1.7-0.6,3.6-1,5.4-1.1"/>
	<path fill="none" stroke="#EC6608" stroke-width="4" stroke-miterlimit="10" d="M266.8,115.4c0.6,6.3,0.7,12.7,0.4,19"/>
	<path fill="none" stroke="#EC6608" stroke-width="4" stroke-miterlimit="10" d="M273.2,114.1c1.5,6.6,2.3,13.5,2.4,20.3"/>
	<path fill="none" stroke="#EC6608" stroke-width="4" stroke-miterlimit="10" d="M273.2,114.6c1.6-0.6,3.1-1.2,4.8-1.3
		c1.7,0,3.5,0.6,4.3,2.1c1,1.7,0.3,4-1,5.5c-1.4,1.5-3.2,2.3-5.1,3"/>
	<path fill="none" stroke="#EC6608" stroke-width="4" stroke-miterlimit="10" d="M287.4,112.8c4,0.4,7.9,1,11.8,1.8"/>
	<path fill="none" stroke="#EC6608" stroke-width="4" stroke-miterlimit="10" d="M292.8,112.9c-0.3,6.8-0.5,13.5-0.8,20.3"/>
	<path fill="none" stroke="#000000" stroke-width="3" stroke-miterlimit="10" d="M676.7,167.3c-9.2-4.4-19.4-6.5-29.9-5.5
		c8.1-9.7,16.1-19.5,24.1-29.4C674.9,142.6,677,155.6,676.7,167.3z"/>
	<path fill="none" stroke="#000000" stroke-width="3" stroke-miterlimit="10" d="M668.7,211.2c-9.2-4.4-19.4-6.5-29.9-5.5
		c8.1-9.7,16.1-19.5,24.1-29.4C666.9,186.5,669,199.5,668.7,211.2z"/>
	<path fill="none" stroke="#000000" stroke-width="3" stroke-miterlimit="10" d="M661.7,259.3c-9.2-4.4-19.4-6.5-29.9-5.5
		c8.1-9.7,16.1-19.5,24.1-29.4C659.9,234.6,662,247.6,661.7,259.3z"/>
	<path fill="#EC6608" d="M748.3,272.1c-0.3-1.5-1.5-2-2.6-1.7c-0.2-0.4-0.5-0.7-0.8-1c0.9-3,1.3-6.2,1-9.4c-0.1-1.4-1.2-2.2-2.3-2.4
		c0-0.1-0.1-0.2-0.1-0.2c-0.1-0.4-0.1-0.7-0.2-1.1c-0.3-1.3-1.8-2.1-3.1-1.7c0,0-0.1,0-0.1,0c-0.6-1.1-1.3-2.1-1.9-2.6
		c0-0.8-0.3-1.5-1-2.1c-0.9-2.1-2.2-4.1-3.9-5.8c-1.4-1.4-3.2-0.7-3.9,0.7c-1-0.7-2-1.3-3-2c-0.8-0.5-1.6-0.5-2.2-0.2
		c-1-0.5-2.1-1-3.1-1.3c-2.3-0.7-4,0.1-6.4,0.2c0,0,0,0,0,0c-0.2,0-0.4,0-0.7,0.1c-0.8,0.1-1.3,0.6-1.6,1.3c-0.3,0-0.7,0-1,0
		c-1.5-0.2-3-0.4-4.5-0.7c-0.9-0.2-1.6,0-2.1,0.5c-0.7-0.2-1.6-0.1-2.3,0.6c-0.7,0.6-1.4,1.4-2.2,2.2c-0.5-0.3-1.2-0.4-1.8-0.2
		c-1.2,0.3-2.2,1-3.1,1.8c-0.2,0-0.5,0-0.7,0.1c-0.9-0.3-2-0.2-2.7,0.5c-2.3,2.5-3.8,5.1-4.6,8.1c-0.3,0.4-0.5,0.8-0.7,1.2
		c-1.1,0.2-2.2,0.9-2.3,2.4c-0.1,1.2-0.2,2.4-0.3,3.5c-2.4,3.4-5.2,8.3-4.8,12.3c0.1,1.3,0.7,2.3,1.5,3c-1.4,1.7-2.6,3.7-2.6,5.6
		c-0.1,2.2,1.6,3.5,3.5,3.8c0.1,0.1,0.2,0.2,0.3,0.2c0.9,0.5,1.8,0.8,2.5,0.9c0.2,0.4,0.3,0.8,0.6,1.2c-0.6,2.6-0.6,5.2,0.9,7
		c0.4,0.5,1.2,0.8,1.9,0.7c0.3,0.6,0.7,1.1,1.1,1.5c-0.4,0.1-0.8,0.3-1.1,0.6c-0.9,0.9-1,2.7,0,3.5c1.9,1.6,4.4,2.3,6.8,1.5
		c0.8-0.3,1.4-0.8,1.7-1.6c0,0,0,0,0,0c1,0.6,2.2,1,3.2,1c0.8,0.8,1.8,1.4,2.8,1.7c2.4,0.9,5.9,1,8.4-0.4c0.2,0.1,0.4,0.2,0.6,0.2
		c1.2,0.4,2.5,0.7,3.8,0.7c0.2,0.1,0.3,0.2,0.5,0.2c3.1,0.9,6.5,0.1,8.8-2.2c0.2-0.2,0.4-0.5,0.5-0.7c0.2-0.1,0.4-0.2,0.5-0.3
		c0.9-0.2,1.8-0.5,2.5-0.8c0.9-0.4,1.8-0.9,2.6-1.5c4.5-0.8,8.3-5.1,11-9.1c1-0.9,1.8-2,2.3-3.1c0.4-0.5,0.6-1.2,0.5-1.9
		c0-0.5,0-1-0.2-1.4c0-0.5,0.1-0.9,0.3-1.5c0.1-0.4,0.1-0.8,0-1.2c0.3-0.4,0.7-0.8,1-1.2c0.4-0.4,0.7-0.8,1-1.3
		C748.1,277.9,748.9,275.3,748.3,272.1z M735.5,270.1c-1.4,2.7-1.1,6.8-0.9,9.7c0,0,0,0,0,0c-0.6,1.1-1.1,2.3-1.1,3.5
		c0,0.1,0,0.3,0,0.4c-1.3,1-2.5,2.4-2.7,4c-0.6,0.6-1.1,1.3-1.5,2c-4.9,2.6-9.9,4.8-15.1,6.7c-1.3-0.3-2.7-0.5-4.1-0.6
		c-1.3-0.7-2.7-1-4.1-1.1c-0.4,0-1,0-1.6,0c-0.4-0.2-0.8-0.5-1.2-0.8c-1.8-1.4-3.2-2.7-5.6-2.8c-0.4-1.7-1.4-3-3.2-3.3
		c-0.1-0.6-0.4-1.2-0.8-1.8c1.1-0.8,1.7-2.5,0.4-3.8c-0.5-0.6-1-1.2-1.5-1.8c-0.2-0.5-0.5-1-0.8-1.3c-0.3-0.5-0.5-0.9-0.7-1.4
		c-0.3-0.8-0.9-1.4-1.6-1.7c0.1-0.1,0.1-0.2,0.2-0.3c2.3-5.6,4.5-11.2,6.6-16.8c0,0,0-0.1,0-0.1c0.3-0.2,0.5-0.3,0.8-0.5
		c0.6-0.5,1.3-1.2,1.9-2c0.9,0.2,1.8,0.2,2.8,0c0.9-0.2,2.8-1.2,4.8-2.5c1.6,0.1,3.1,0,4.1-0.2c1-0.1,1.7-0.7,2.1-1.5
		c2.2,0.3,4.4,0.2,6.6,0.2c0.3,0.2,0.6,0.3,1,0.4c2.7,0.6,6.1,1.5,8.8,3.1c0,0,0,0,0,0c2.6,4.2,5,8.5,7.3,12.9
		C736.2,269.1,735.8,269.6,735.5,270.1z"/>
	<path fill="#706F6F" d="M701.3,310c-0.5-2.6-4.8-2.4-5,0.6c-0.3,7.4-5.9,15.3-9.5,21.5c-0.8,1.4-0.1,2.7,0.9,3.3
		c-0.9,2.1-1.7,4.2-2.5,6.3c-0.5,0.5-0.8,1.1-0.9,1.9c0,0.3,0,0.7,0,1c0,0.3,0.1,0.6,0.2,0.8c0.4,0.9,1.1,1.7,1.9,2.2
		c1.4,0.9,3,0.9,4.6,0.7c1.4-0.2,2.4-1,2.5-2.5c0-0.4,0-0.8,0.1-1.3c0-0.9-0.5-1.7-1.2-2.1c0-0.1,0.1-0.1,0.1-0.2
		c0.1-0.2,0.3-0.4,0.4-0.7l0.7-1.9c1.5-3.4,2.9-6.7,4.2-10.1c0.2-0.4,0.2-0.8,0.2-1.2c2-5.1,4-10.3,6-15.4
		C704.7,311,702.9,309.8,701.3,310z"/>
	<path fill="#C6C6C6" d="M705.3,313.3c-1.1,3-2.1,6-3.1,9c-0.6,0.3-1,0.8-1.2,1.6c-0.4,1.9-0.8,3.8-1.1,5.7c-0.5,1.8-1,3.6-1.5,5.4
		c-1-0.3-2.1,0-2.7,1.1c-1.2,2.1-1.8,4.2-2,6.6c-0.2,1.3,1.3,2.5,2.5,2.5c0,0,0.1,0,0.1,0c-0.4,2.7-0.7,5.4-0.9,8.2
		c-0.2,3.2,4.8,3.2,5,0c0-0.1,0-0.3,0-0.4c0.4-0.1,0.8-0.3,1.2-0.5c0.2-0.2,0.5-0.4,0.7-0.6c1.2-1,1-2.3,0.1-3.2
		c0.5-6.1,1.2-12.1,2.3-18.1c1.6-5.3,3.5-10.6,5.4-15.8C711.2,311.6,706.4,310.3,705.3,313.3z"/>
	<path fill="#FFFFFF" d="M734.4,273.7c-0.1-0.5-0.2-1.1-0.3-1.7c1.2-6-2.6-14.3-7.4-16.9c-4.2-2.3-9.7-1.6-14.2-1.2
		c-5.4,0.6-10.5,2-15,5.1c-1.6,1.1-1.3,3.1-0.2,4.2c-3.3,3.1-5.5,7.3-5,11.8c0.4,3.2,1.9,6.3,4.2,8.6c0.2,0.7,0.6,1.4,1.1,2.1
		c0.1,0.3,0.2,0.6,0.5,1c5.7,7.6,16.7,9.7,24.5,3.9C730.3,289.6,735.4,282,734.4,273.7z M724.8,260c0.9,0.6,1.6,1.3,2.2,2.4
		c-0.2,0-0.3-0.1-0.5-0.1C725.9,261.5,725.4,260.7,724.8,260z M726.7,276.9c0.1-0.4,0.1-0.8,0.2-1.2c0.3-0.4,0.5-0.8,0.7-1.2
		C727.4,275.2,727.1,276.1,726.7,276.9z"/>
	<path fill="none" stroke="#000000" stroke-width="4" stroke-miterlimit="10" d="M697.9,259.3c-5.3,5.2-7.5,13.2-5.5,20.3
		s8.2,12.8,15.6,14.7c7.4,1.8,15.8-0.4,21.1-5.7c1.6-1.6,3-3.5,3.8-5.6c0.9-2.2,1.4-4.5,1.6-6.8c0.7-5.5,0.5-11.6-3.2-15.9
		C723.4,250.7,706.4,250.8,697.9,259.3z"/>
	<path fill="none" stroke="#000000" stroke-width="5" stroke-miterlimit="10" d="M704.4,308.3c2.6,0.5,5.5-0.9,6.6-3.3
		c2.6,2.1,5.9,3.7,9.3,3.4s6.6-2.9,6.9-6.3c4.6,2.3,11-1.7,11.1-6.8c3.1-0.7,6.3-2.3,7.9-5c1.6-2.8,1-6.9-1.8-8.4
		c2.4-2,4.4-4.8,4.8-7.9c0.4-3.1-1.3-6.6-4.3-7.5c1.6-2.6,2.8-5.6,2-8.6s-4.1-5.3-6.8-3.9c0.8-6.1-6-11.9-11.9-10.1
		c-3.1-4.9-10.7-6-15.2-2.3c-4.4-2.7-11.1-0.4-12.8,4.5c-2.5-1.7-6.1-1.8-8.7-0.1c-2.6,1.7-4,5-3.5,8c-5,0.9-7.4,8-4,11.8
		c-2.8-0.3-5.7,1.8-6.2,4.6c-0.6,2.8,1.3,5.8,4,6.6c-2.8,1.1-4.6,4.3-4.2,7.3s3.1,5.5,6.1,5.7c-1.1,1.3-0.9,3.6,0.4,4.7
		c1.3,1.2,3.5,1,4.7-0.2c-2.1,2.8-1.3,7.3,1.6,9.3c3.1,2.1,5-0.6,7.6-0.1C700.6,304.1,701.1,307.6,704.4,308.3z"/>
	<path fill="none" stroke="#000000" stroke-width="5" stroke-miterlimit="10" d="M713.9,308.5c-1.1,0.1-1.7,1.2-2.1,2.2
		c-3,7.7-4.3,15.9-5.6,24.1c-0.9,5.7-0.4,13.1-1.3,18.7c-7.5-1.5-15-3.3-22.3-5.3c-0.6-0.2-2.5,0.6-2.2,0
		c6.7-14.3,12.5-29.1,17.1-44.2"/>
	<path fill="none" stroke="#000000" stroke-width="5" stroke-miterlimit="10" d="M706.7,348.4c4.4-1,8.1-0.3,12.6-0.6
		c-3.3-12.3-4.3-25.2-2.9-37.9"/>
	<path fill="none" stroke="#000000" stroke-width="4" stroke-miterlimit="10" d="M705.4,309c-5.6,13.1-10,26.6-13.2,40.5"/>
	<path d="M295.6,394.1c-1.1-2.7-1.8-5.4-2.1-8.3c0-0.5-0.2-0.8-0.4-1.2c-0.2-0.6-0.4-1.2-0.6-1.8c-0.6-1.8-2.7-2.3-4.1-1.1
		c-0.3,0.3-0.6,0.5-0.9,0.8c-1,0.9-0.9,2.6,0,3.5c0.1,0.1,0.3,0.2,0.4,0.3c0.1,0.6,0.4,1,0.9,1.4c0.4,2.6,1,5.2,2,7.7
		c0.5,1.2,1.6,2.1,3,1.7C295.1,396.8,296.1,395.3,295.6,394.1z"/>
	<path d="M336,378.2c-0.3-0.6-0.6-1.1-0.8-1.7c-0.4-0.8-1-1.2-1.6-1.4c-0.3-0.3-0.6-0.6-0.9-0.9c-2.6-2.3-6.4,1.5-3.8,3.9
		c0.9,0.8,1.8,1.8,2.5,2.8c0.8,1.5,1.5,3,2.3,4.6c1.4,2.8,5.9,0.9,4.9-2.1C337.9,381.6,337,379.8,336,378.2z"/>
	<path fill="none" stroke="#000000" stroke-width="5" stroke-miterlimit="10" d="M318.6,482.7c-3.9,0.6-11.8,4-12.3-2.3
		c-0.4-4.5,5.5-5.9,9-6.1c-3.9-3.7-8.4-6.8-13.2-9.2c-2.6-1.3-5.4-2.5-7.3-4.8s-2.1-6.1,0.3-7.8c2.3-1.6,5.5-0.5,8,0.8
		c8.5,4.4,17,11.3,24,17.9c-0.5-8.6,6-17.1,14.6-18.8c-0.3,7.3-2,14.6-5.1,21.2c1.5,2.9,1.8,6.3,3.3,9.2c1.7,3.2,3.4,6.9,2.1,10.3
		c-0.9,2.4-3.2,4.1-5.6,5.2c-5.2,2.3-11.5,2.2-16.7,0c-5.3-2.3-9.5-6.7-11.8-11.9c-0.1-0.2-0.1-0.3-0.2-0.5"/>
	<path fill="none" stroke="#000000" stroke-width="5" stroke-miterlimit="10" d="M324.6,492.6c-3.7,0.6-7.2,1.7-10.5,3.4"/>
	<path fill="none" stroke="#000000" stroke-width="8" stroke-miterlimit="10" d="M340.2,468.5c8.8-4.9,19.3-5.8,27.2-12.5
		c8.2-6.9,12.3-18.8,14.3-30.4c1.5-8.6,2.1-17.4,0.8-26c-2.6-17.8-13.4-33.1-26.8-41.9c-13.5-8.8-29.3-11.7-44.8-10.8
		c-14.6,0.9-29.3,5.1-41.7,14.2c-12.4,9.1-22.4,23.3-25.8,40c-3.5,16.6,0.1,35.5,10.5,47.6c5.6,6.5,12.8,10.8,20.2,14.1
		c10.9,4.8,22.4,7.7,34.1,8.4"/>
	<path fill="none" stroke="#000000" stroke-width="8" stroke-miterlimit="10" d="M355,466c3.9,1.4,6.8,4.7,9.2,8
		c8.8,12.1,13,27.4,11.8,42.2c-0.1,1.9-0.4,3.8-1.2,5.5c-2.4,5-8.8,6.5-14.4,6.3c-16.4-0.5-32.1-11.3-38.3-26.4"/>
	<path fill="none" stroke="#000000" stroke-width="8" stroke-miterlimit="10" d="M352.4,481c4.8,7.4,8.1,15.7,9.8,24.3
		c0.7,3.7,0.6,8.5-2.8,10.2c-2.5,1.3-5.6,0.2-8.1-1.2c-6.2-3.3-11.8-8-16.1-13.6"/>
	<path fill="none" stroke="#000000" stroke-width="8" stroke-miterlimit="10" d="M279,468.7c-10.2,6.6-14,19.6-15.4,31.7
		c-0.6,5.4-0.7,11.2,2.4,15.6c2,2.8,5.1,4.7,8.2,6.3c18.4,9.4,40.8,10.7,60.2,3.7"/>
	<path fill="none" stroke="#000000" stroke-width="8" stroke-miterlimit="10" d="M326,513c-9.4,2.8-19.6,2.9-29.1,0.2
		c-6.6-1.9-13.7-6.2-14.3-13c-0.3-3.5,1.2-7,3-10.1"/>
	<path fill="none" stroke="#000000" stroke-width="8" stroke-miterlimit="10" d="M268.6,519.1c-1.3,9-2,18-2,27.1"/>
	<path fill="none" stroke="#000000" stroke-width="8" stroke-miterlimit="10" d="M284.1,505.4c-7.1,0.3-14.1,2.5-20.1,6.4"/>
	<path fill="none" stroke="#000000" stroke-width="8" stroke-miterlimit="10" d="M375.3,504.5c-4.2-3-9.5-4.5-14.7-4"/>
	<path fill="none" stroke="#000000" stroke-width="8" stroke-miterlimit="10" d="M369,528.6c-0.4,4.7-0.1,9.5,1,14.1"/>
	<path fill="none" stroke="#000000" stroke-width="5" stroke-miterlimit="10" d="M290.5,383.4c1.7-0.5,3.4,0.8,4.4,2.6
		c1,1.7,1.3,3.9,1.6,5.9c0.3,1.8,0.5,4-0.7,5.2c-1.8,1.8-4.5-0.8-5.6-3.3C288.8,390.4,288.1,385.7,290.5,383.4"/>
	<path fill="none" stroke="#000000" stroke-width="5" stroke-miterlimit="10" d="M330.8,375.2c1.9-0.5,4,0.6,5.2,2.1
		c1.2,1.5,1.7,3.3,2.1,5c0.4,1.6,0.7,3.5-0.6,4.5c-2,1.6-5.2-0.5-6.6-2.7C329.1,381.3,328.1,377.2,330.8,375.2"/>
	<path fill="none" stroke="#000000" stroke-width="5" stroke-miterlimit="10" d="M304.1,418.9c3.8,6.2,11.8,9.3,18.8,7.3
		c6.9-2,12-9,11.9-16.2"/>
</g>
</svg>
