<?xml version="1.0" encoding="utf-8"?>
<!-- Generator: Adobe Illustrator 21.1.0, SVG Export Plug-In . SVG Version: 6.00 Build 0)  -->
<svg version="1.1" xmlns="http://www.w3.org/2000/svg" xmlns:xlink="http://www.w3.org/1999/xlink" x="0px" y="0px"
	 viewBox="0 0 841.9 595.3" enable-background="new 0 0 841.9 595.3" xml:space="preserve">
<g id="Layer_2">
	<path fill="#B2B2B2" d="M179,144.4c-16-2.3-32.2-1.5-47.8,2.2c-0.1,0-0.1,0-0.2,0c-0.1,0-0.3,0-0.4,0c0-0.5-0.3-1.1-1-1.2
		c-6.5-1.2-13.3-0.8-19.9-0.4c-0.2,0-0.3,0-0.5,0c-6.9-0.3-14.3-1.1-21.1,0.3c-0.6,0.1-0.8,0.5-0.9,0.9c-1.9,0.4-3.8,1-5.4,1.9
		c0-4.3-0.1-8.6-0.2-12.9c0.3-0.2,0.5-0.5,0.4-1c-0.3-2.4-0.6-4.9-0.9-7.3c-1.3-16.3-4.2-32.4-8.6-48.2c-0.4-1.6-2.9-0.8-2.4,0.8
		c0,0.1,0.1,0.2,0.1,0.3c0,0.1,0,0.3,0,0.4c2,10.4,4.1,20.8,5.9,31.3c-0.5,0.1-0.9,0.6-1,1.2c-0.3,10.5,3.2,20.6,2.9,31.1
		c0,0.5,0.2,0.8,0.5,1c-0.2,0.2-0.4,0.4-0.5,0.7l-0.9,3.6c-0.1,0.4,0,0.8,0.2,1.1c0,0.2-0.1,0.5-0.1,0.7c-0.1,0.9,0.6,1.4,1.2,1.5
		c0.3,0.3,0.7,0.4,1.2,0.2c6.5-2.7,13.4-4.1,20.5-4.1c0.5,0,0.9-0.2,1-0.6c0.6,0,1.2,0,1.8-0.1c2.3-0.1,4.6-0.2,6.9-0.4
		c6.6,0.3,13.1,0.8,19.6,1.5c0.3,0.3,0.7,0.5,1.2,0.4c15.6-3.9,31.8-4.8,47.7-2.5C180.1,147.1,180.6,144.6,179,144.4z"/>
	<path fill="#B2B2B2" d="M120.2,128.4c-9.3-2.2-18.9-2-28.1,0.7c-1.6,0.5-0.8,2.9,0.8,2.4c8.8-2.6,17.9-2.8,26.8-0.6
		C121.2,131.2,121.8,128.8,120.2,128.4z"/>
	<path fill="#F39200" d="M103.6,102.3c-3.1,8.7-6.6,17.3-10.3,25.9c-0.7,1.5,1.6,2.7,2.2,1.2c3.8-8.7,7.3-17.5,10.5-26.5
		C106.7,101.3,104.2,100.7,103.6,102.3z"/>
	<path fill="#0BBBEF" d="M167.1,8.4"/>
	<path fill="#0BBBEF" d="M122.2,127.8c-2.4-9.9-7.3-19.4-15-26.2c-1.2-1.1-3,0.8-1.8,1.9c3.7,3.3,6.5,7.5,9.1,11.7
		c2.7,4.2,4,8.6,5.2,13.5C120.1,130.1,122.5,129.4,122.2,127.8z"/>
	<path fill="#0BBBEF" d="M284.2,484.6c-0.5-2.8-3.7-2.8-5.3-1.1c-2.3-1.7-4.8-3.1-7.4-4.2c-0.1-0.3-0.3-0.7-0.4-1.1
		c-0.7-1.6-2.1-1.9-3.3-1.5c-4.1-4.8-7.7-10-10.8-15.4c0-0.7-0.3-1.3-1-1.9c0,0,0,0,0,0c-1.6-2.9-3-5.9-4.3-8.9
		c-0.8-2-1.6-4.1-2.3-6.2c-0.7-4.4-1.7-8.7-2.8-13c0-2.6,0.1-5.4-0.6-7.9c-1.6-5.9-8.1-4.5-12.9-4.5c-2.4,0-3.4,2.2-2.9,4
		c-0.3,1.3,0.2,2.8,1.4,3.4c0.1,0.1,0.3,0.1,0.4,0.2c-1.2,5.8,2.5,15.6,3.8,19.6c2.4,7,5.7,13.4,9.8,19.4c0,0,0,0,0,0
		c0.9,3.9,5.3,12.4,10.3,16.5c0.8,0.9,1.8,1.7,2.8,2.3c0.4,0.5,0.9,0.9,1.5,1.1c-0.1,0.6,0,1.3,0.4,2c1.1,1.8,2.4,3.3,4,4.6
		c-2.1-0.5-4.2-1.1-6.2-1.7c-0.1,0-0.3-0.1-0.4-0.1c-10.9-3.9-21-9.4-30.4-16.2c-0.7-0.5-1.4-0.6-2-0.6c-3.4-6.5-8.5-11.6-15.2-15.1
		c0.8-2.2-0.8-4.7-3.5-5c-1.2-0.2-2.3,0.8-2.8,1.9c-0.3,0.1-0.5,0.1-0.6,0.1l-3.3,0.6c-2.1,0.4-4.1,0.8-6.2,1.2
		c-3.3,0.6-2.7,5,0,5.9c3.9,6.4,8.8,11.6,16.1,13.3c0.1,0.1,0.2,0.1,0.3,0.2c8.8,8.6,20.3,16.2,31.8,21.1c0.3,0.4,0.6,0.7,1.1,1
		c2,1,4.1,1.8,6.3,2.4c0.2,0.6,0.6,1.2,1.4,1.7c0.5,0.3,1,0.5,1.5,0.7c-0.1,0.8,0.1,1.7,1,2.4c2.9,2.4,6.3,3.4,9.6,3.3
		c0,0.4,0,0.8-0.1,1.2c-5.1,1.3-10.1,2.5-15.2,3.5c-0.5-0.5-1.2-0.8-2.1-0.7c-14.3,0.8-28.1-1.6-41.3-7.1c-1.5-0.6-2.7,0-3.3,1.1
		c-0.5-0.2-0.9-0.3-1.4-0.4c-0.7-0.3-1.4-0.6-2.1-0.6c-2.6-0.2-4,0.9-4.5,2.4c-0.3,0.5-0.6,1-0.7,1.7c-1.8-2-6.1-0.3-5.3,3.1
		c0.1,0.6,0.3,1.1,0.5,1.7c-0.4,0.7-0.7,1.7-0.8,2.9c-0.3,6.3,7.6,5.9,12.6,4.5c5.7,2.3,12.2,3.4,17.9,4.3
		c5.2,0.9,10.3,1.2,15.4,0.7c2.6,1.2,5.5,1.2,8.5,1c0.3,0.3,0.8,0.5,1.4,0.6c4.3,0.7,8.5,0.3,12.5-1c1.7,0.4,3.6,0,5.6-0.5
		c5.5-1.4,10.9-3.2,16.2-5.4c2.6-1,2.6-4.4,1-5.7c0.6-0.3,1.1-0.9,1.3-1.8c1.4-6.6,2.7-13.2,4.1-19.9c0.1-0.5,0.1-1,0-1.4
		C284.1,490.4,284.8,487.5,284.2,484.6z M269.4,507.5c0.1-0.1,0.3-0.1,0.4-0.2c-0.2,0.8-0.4,1.6-0.5,2.3
		C269.3,508.9,269.4,508.2,269.4,507.5z"/>
	<path fill="#0BBBEF" d="M352.4,522.6c0,0-0.1-0.1-0.1-0.1c1.3-1.9,1.8-4.4,0.7-7.4c-3.9-10.7-6.8-21.7-8.2-33
		c-0.7-5.4-5.6-11.5-11.9-9.1c-10.8,4.2-21.7,5-32.9,1.9c-8-2.2-12.9,5.7-11.4,11.9c-4.4,12.3-7,25.1-7.9,38.2
		c-0.5,7.1,5.8,10,11.3,8.7c2,1.3,4.6,1.8,7.3,1c1.4-0.4,2.6-1,3.6-1.7c9.3,0.5,18.6,1,27.9,0.6c5.6-0.2,21.5-0.6,23.2-7.6
		C354.2,524.9,353.7,523.3,352.4,522.6z"/>
	<path fill="#0BBBEF" d="M432.6,505c-15.3,2.5-32.1,7.3-48.2,6.9c-0.5-2.3-3.9-3.2-5.5-1.3c-1.9-0.3-6.9-3.3-8-3.8
		c-2-0.9-3.9-1.8-5.9-2.7c1.8-1.9,3.6-3.7,5.3-5.6c0.3-0.1,0.5-0.2,0.8-0.3c0.5-0.1,1-0.3,1.4-0.6c1.4-0.6,2.8-1.3,4.1-2
		c1.3,0.4,2.8,0.1,3.7-1.3c0.3-0.4,0.6-0.9,0.9-1.3c2.7,1.6,5.8-0.6,8.1-2.2c0.7-0.5,1.5-1.1,2.2-1.6c3.6,0,7.1-1.6,10.4-3.5
		c3.9-2.1,7.7-4.4,11.4-6.7c6.4-1.5,12.3-6,17.6-10.7c3.1-2.3,6.1-4.6,9.1-7c1.2-1,1.1-3.1,0.2-4.3c-0.7-1.1-2-1.8-3.3-1.6
		c-2.3-1.3-3.9-4.1-6.8-4.4c-2.5-0.3-4,1-5.6,2.7c-0.6,0.6-1.1,1.2-1.7,1.7c-5.4,3.2-10.2,7.2-14.9,11.4c-4.1,1-8,3.7-11.5,5.8
		c-0.7,0.4-1.4,0.9-2.1,1.3c-0.4-0.2-0.8-0.2-1.3-0.2c-6.8,0.9-15.1,6.8-22.2,5.2c0.6-1.1,1.2-2.2,1.8-3.3c0.6-0.7,1.2-1.5,1.8-2.2
		c0.4-0.1,0.8-0.4,1.2-0.7c1.8-1.6,2.9-3.3,3.8-5.5c2-2.5,3.5-5.9,4.7-8.5c1.9-2.9,3.4-6,4.6-9.2c3.1-4.9,5.8-9.9,8-15.3
		c1.9-4.7,5.3-10.9,3.5-16c0.3-2.2-1.9-3.7-4-3.4c-2.7,0.4-5.2,0.5-7.9,0.4c-1.8-0.1-2.9,1.5-3.1,3.1c-0.2,1.8-0.6,3.6-1,5.4
		c-1.4,3.7-2.7,7.4-4.1,11.1c-0.2,0.6-0.2,1.2-0.1,1.7c-0.6,1.4-1.1,2.8-1.5,4.2c-0.7,1.3-1.5,2.5-2.3,3.7c-0.9,0.2-1.8,0.9-2.2,1.9
		c-0.5,1.3-1.1,2.6-1.7,3.9c-0.9,1.3-1.9,2.6-2.9,3.8c-0.7,0.2-1.3,0.6-1.7,1.4c-0.7,1.2-1.5,2.4-2.3,3.4c-0.6,0.7-1.2,1.4-1.9,2.1
		c-0.9,1-1,2.1-0.7,3c-0.6,0.6-1.2,1.3-1.8,1.9c-2.9,2.1-5.3,4.5-7.4,7.4c-0.3,0.1-0.6,0.2-0.9,0.4c-1.2-0.3-2.6,0-3.5,1.2
		c-2.1,2.8-1.5,6.1-0.2,9.1c1.1,2.5,2.1,5,3.1,7.5c0.1,1,0.2,1.9,0.4,3c0.1,0.4,0.3,0.8,0.5,1.1c-0.8,0.7-1.3,1.7-0.9,3
		c1,4.5,2.1,9,3.1,13.5c0.7,2.8,1.8,6.1,5.3,5.7c5.9,11.2,20.9,11.5,32.3,11.2c14.9-0.5,30.3-2.9,44.8-6.7
		C448.9,519.5,443.9,503.2,432.6,505z"/>
</g>
<g id="Layer_1">
	<text transform="matrix(1.104000e-02 -0.9999 0.9999 1.104000e-02 734.9245 505.0326)" font-family="'INGMe'" font-size="12px">© Beryl Ho (ING)</text>
	<path fill="none" stroke="#000000" stroke-width="3" stroke-miterlimit="10" d="M133.6,145.3c-16.3-2.9-34.8-2.8-50.4,0.8
		c-1-23-4.1-46-9.4-68.8c16-0.6,31.1-0.2,46.9,3.2"/>
	<path fill="none" stroke="#000000" stroke-width="2" stroke-miterlimit="10" d="M121.3,81.1c6.1,21.4,10.2,43.2,12.2,64.9"/>
	<path fill="none" stroke="#000000" stroke-width="3" stroke-miterlimit="10" d="M120.7,80.7c-0.1,0-0.3-0.1-0.4-0.1
		c13.5-7.4,31.2-7.3,47.7-6.3"/>
	<path fill="none" stroke="#000000" stroke-width="3" stroke-miterlimit="10" d="M133.9,145.4c14.6-4.1,31-4.7,46.6-1.5"/>
	<path fill="none" stroke="#000000" stroke-width="3" stroke-miterlimit="10" d="M166.7,74.1c5.2,23.1,9.4,46.2,12.6,69.4"/>
	<path fill="none" stroke="#000000" stroke-miterlimit="10" d="M70,78.9c4.9,22.8,7.5,45.9,8,69.1"/>
	<path fill="none" stroke="#000000" stroke-miterlimit="10" d="M85.3,150c13.1-2.9,26.6-3.8,40-2.9"/>
	<path fill="none" stroke="#000000" stroke-width="2" stroke-miterlimit="10" d="M140.2,146.7c12.7-2.2,25.8-2.1,38.5,0.4"/>
	<path fill="none" stroke="#000000" stroke-width="2" stroke-miterlimit="10" d="M121.1,129.2c-9.6-1.8-19.4-1.6-28.7,1.3
		c4.7-9.5,9.2-19,13.7-28.5C112.6,109.6,118.1,119.7,121.1,129.2z"/>
	<path fill="none" stroke="#000000" stroke-miterlimit="10" d="M133.9,86.1c6.6-2.8,14-2.6,21.2-2.3"/>
	<path fill="none" stroke="#000000" stroke-miterlimit="10" d="M134.1,90.1c7.6-2,15.6-2.4,23.4-1"/>
	<path fill="none" stroke="#000000" stroke-miterlimit="10" d="M134.9,94.1c5.1-0.8,10.2-1.4,15.3-1.6c2.8-0.1,5.6-0.1,8.3,0.6"/>
	<path fill="none" stroke="#000000" stroke-miterlimit="10" d="M138.1,108.9c7.8-3,17-2.5,25.9-2.1"/>
	<path fill="none" stroke="#000000" stroke-miterlimit="10" d="M139.6,113.1c7.5-2.1,15.7-2.8,23.8-1.9"/>
	<path fill="none" stroke="#000000" stroke-miterlimit="10" d="M140.5,116.5c7.8-2.2,16.5-1.5,24.8-0.8"/>
	<path fill="none" stroke="#000000" stroke-miterlimit="10" d="M141.6,125.2c8.3-2.3,17.2-2.6,25.7-0.9"/>
	<path fill="none" stroke="#000000" stroke-miterlimit="10" d="M142.6,128.6c7.9-1.8,16.3-1.8,24.2,0"/>
	<path fill="none" stroke="#000000" stroke-miterlimit="10" d="M142.5,133.9c8.2-3,17.4-3.3,25.9-0.9"/>
	<path fill="#B2B2B2" d="M303.5,141.6c-16-2.1-32.2-1.2-47.8,2.8c-0.1,0-0.1,0-0.2,0c-0.1,0-0.3,0-0.4,0c0-0.5-0.3-1-1-1.2
		c-6.5-1.1-13.3-0.7-19.9-0.2c-0.2,0-0.3,0-0.5,0c-7-0.3-14.3-0.9-21.1,0.5c-0.6,0.1-0.8,0.5-0.9,0.9c-1.9,0.4-3.7,1-5.4,1.9
		c0-4.3-0.1-8.6-0.4-12.9c0.3-0.2,0.4-0.6,0.4-1c-0.3-2.4-0.6-4.9-1-7.3c-1.5-16.3-4.5-32.4-9.1-48.1c-0.5-1.6-2.9-0.8-2.4,0.8
		c0,0.1,0.1,0.2,0.1,0.3c0,0.1,0,0.3,0,0.4c2.1,10.4,4.3,20.8,6.3,31.2c-0.5,0.1-0.9,0.6-1,1.2c-0.2,10.5,3.4,20.6,3.3,31.1
		c0,0.5,0.2,0.8,0.5,1c-0.2,0.2-0.4,0.4-0.5,0.7l-0.8,3.7c-0.1,0.4,0,0.8,0.3,1.1c0,0.2-0.1,0.5-0.1,0.7c-0.1,0.9,0.6,1.4,1.2,1.5
		c0.3,0.3,0.7,0.4,1.2,0.2c6.5-2.8,13.4-4.3,20.5-4.4c0.5,0,0.9-0.3,1-0.6c0.6,0,1.2-0.1,1.8-0.1c2.3-0.1,4.6-0.3,6.9-0.5
		c6.6,0.3,13.1,0.7,19.7,1.3c0.3,0.3,0.7,0.5,1.2,0.3c15.5-4.1,31.7-5.1,47.6-3C304.6,144.3,305.2,141.8,303.5,141.6z"/>
	<path fill="#B2B2B2" d="M244.6,126.2c-9.3-2.1-18.9-1.8-28.1,1c-1.6,0.5-0.8,2.9,0.8,2.4c8.7-2.7,17.9-3,26.8-0.9
		C245.6,129.1,246.2,126.6,244.6,126.2z"/>
	<path fill="#F39200" d="M227.7,100.3c-3.1,8.8-6.4,17.4-10,26c-0.6,1.5,1.6,2.7,2.3,1.2c3.7-8.8,7.1-17.6,10.2-26.6
		C230.7,99.3,228.2,98.8,227.7,100.3z"/>
	<path fill="#0BBBEF" d="M246.5,125.6c-2.5-9.8-7.5-19.3-15.3-26.1c-1.2-1.1-3,0.8-1.7,1.9c3.8,3.3,6.5,7.4,9.2,11.6
		c2.7,4.2,4.1,8.6,5.4,13.4C244.5,128,246.9,127.2,246.5,125.6z"/>
	<path fill="none" stroke="#000000" stroke-width="3" stroke-miterlimit="10" d="M258.1,143c-16.3-2.7-34.9-2.4-50.4,1.3
		c-1.2-23-4.6-46-10.1-68.7c16-0.7,31.1-0.5,46.9,2.7"/>
	<path fill="none" stroke="#000000" stroke-width="2" stroke-miterlimit="10" d="M245.2,78.9c6.4,21.4,10.7,43.1,12.9,64.8"/>
	<path fill="none" stroke="#000000" stroke-width="3" stroke-miterlimit="10" d="M244.5,78.5c-0.1,0-0.3-0.1-0.4-0.1
		c13.4-7.6,31.1-7.6,47.7-6.8"/>
	<path fill="none" stroke="#000000" stroke-width="3" stroke-miterlimit="10" d="M258.4,143.1c14.6-4.3,30.9-5,46.6-2"/>
	<path fill="none" stroke="#000000" stroke-width="3" stroke-miterlimit="10" d="M290.5,71.5c5.4,23,9.9,46.1,13.4,69.3"/>
	<path fill="none" stroke="#000000" stroke-miterlimit="10" d="M193.8,77.3c5.1,22.7,8,45.9,8.8,69"/>
	<path fill="none" stroke="#000000" stroke-miterlimit="10" d="M206.3,146.3c13.1-3,26.6-4.1,40-3.3"/>
	<path fill="none" stroke="#000000" stroke-width="2" stroke-miterlimit="10" d="M264.8,144.4c12.7-2.3,25.8-2.3,38.5,0"/>
	<path fill="none" stroke="#000000" stroke-width="2" stroke-miterlimit="10" d="M245.5,127.1c-9.6-1.7-19.5-1.4-28.7,1.6
		c4.6-9.5,9-19.1,13.4-28.6C236.7,107.5,242.3,117.6,245.5,127.1z"/>
	<path fill="none" stroke="#000000" stroke-miterlimit="10" d="M257.8,83.8c6.6-2.9,14-2.7,21.2-2.5"/>
	<path fill="none" stroke="#000000" stroke-miterlimit="10" d="M258.1,87.8c7.6-2.1,15.6-2.5,23.4-1.2"/>
	<path fill="none" stroke="#000000" stroke-miterlimit="10" d="M258.9,91.8c5.1-0.9,10.2-1.5,15.3-1.8c2.8-0.2,5.6-0.2,8.3,0.5"/>
	<path fill="none" stroke="#000000" stroke-miterlimit="10" d="M262.2,106.5c7.8-3.1,17-2.7,25.8-2.4"/>
	<path fill="none" stroke="#000000" stroke-miterlimit="10" d="M263.8,110.8c7.4-2.2,15.7-3,23.8-2.2"/>
	<path fill="none" stroke="#000000" stroke-miterlimit="10" d="M264.7,114.1c7.7-2.2,16.4-1.7,24.8-1.1"/>
	<path fill="none" stroke="#000000" stroke-miterlimit="10" d="M265.9,122.8c8.3-2.4,17.2-2.8,25.7-1.2"/>
	<path fill="none" stroke="#000000" stroke-miterlimit="10" d="M267,126.2c7.9-1.9,16.2-1.9,24.2-0.2"/>
	<path fill="none" stroke="#000000" stroke-miterlimit="10" d="M267,131.5c8.2-3.1,17.4-3.5,25.8-1.1"/>
	<path fill="#B2B2B2" d="M420.7,142.2c-16-2.4-32.2-1.7-47.8,2c-0.1,0-0.1,0-0.2,0c-0.1,0-0.3,0-0.4,0c0-0.5-0.3-1.1-1-1.2
		c-6.5-1.2-13.3-0.9-19.9-0.5c-0.2,0-0.3,0-0.5,0c-6.9-0.4-14.2-1.1-21.1,0.2c-0.6,0.1-0.8,0.5-0.9,0.9c-1.9,0.4-3.8,0.9-5.4,1.8
		c0-4.3,0-8.6-0.2-12.9c0.3-0.2,0.5-0.5,0.4-1c-0.3-2.4-0.6-4.9-0.9-7.3c-1.2-16.3-4-32.4-8.4-48.2c-0.4-1.6-2.9-0.8-2.4,0.7
		c0,0.1,0.1,0.2,0.1,0.3c0,0.1,0,0.3,0,0.4c1.9,10.4,4,20.8,5.8,31.3c-0.5,0.1-0.9,0.5-1,1.2c-0.4,10.5,3.1,20.7,2.8,31.2
		c0,0.5,0.2,0.8,0.5,1c-0.2,0.2-0.4,0.4-0.5,0.7l-0.9,3.6c-0.1,0.4,0,0.8,0.2,1.1c0,0.2-0.1,0.5-0.1,0.7c-0.1,0.9,0.6,1.4,1.2,1.5
		c0.3,0.3,0.7,0.4,1.2,0.2c6.6-2.7,13.4-4.1,20.5-4c0.5,0,0.9-0.2,1-0.6c0.6,0,1.2,0,1.8-0.1c2.3-0.1,4.6-0.2,6.9-0.4
		c6.6,0.4,13.1,0.9,19.6,1.6c0.3,0.3,0.7,0.5,1.2,0.4c15.6-3.8,31.8-4.6,47.7-2.2C421.7,144.9,422.3,142.4,420.7,142.2z"/>
	<path fill="#B2B2B2" d="M361.9,125.9c-9.3-2.3-18.9-2.1-28.1,0.5c-1.6,0.5-0.8,2.9,0.7,2.4c8.8-2.5,17.9-2.7,26.8-0.5
		C363,128.8,363.5,126.3,361.9,125.9z"/>
	<path fill="#F39200" d="M345.5,99.7c-3.2,8.7-6.7,17.3-10.4,25.8c-0.7,1.5,1.6,2.7,2.2,1.2c3.8-8.7,7.4-17.5,10.6-26.4
		C348.5,98.8,346,98.2,345.5,99.7z"/>
	<path fill="#0BBBEF" d="M363.9,125.3c-2.4-9.9-7.2-19.4-14.9-26.3c-1.2-1.1-3,0.7-1.8,1.8c3.7,3.3,6.4,7.5,9.1,11.7
		c2.7,4.2,4,8.7,5.1,13.5C361.8,127.6,364.3,126.9,363.9,125.3z"/>
	<path fill="none" stroke="#000000" stroke-width="3" stroke-miterlimit="10" d="M375.3,142.9c-16.3-3-34.8-3-50.4,0.5
		c-0.9-23-3.9-46-9.1-68.9c16-0.5,31.1-0.1,46.9,3.4"/>
	<path fill="none" stroke="#000000" stroke-width="2" stroke-miterlimit="10" d="M363.3,78.6c6,21.5,10,43.2,11.9,65"/>
	<path fill="none" stroke="#000000" stroke-width="3" stroke-miterlimit="10" d="M362.6,78.2c-0.1,0-0.3-0.1-0.4-0.1
		c13.6-7.3,31.2-7.1,47.8-6.1"/>
	<path fill="none" stroke="#000000" stroke-width="3" stroke-miterlimit="10" d="M375.5,143c14.6-4.1,31-4.5,46.6-1.3"/>
	<path fill="none" stroke="#000000" stroke-width="3" stroke-miterlimit="10" d="M408.7,71.9c5,23.1,9.1,46.3,12.3,69.5"/>
	<path fill="none" stroke="#000000" stroke-miterlimit="10" d="M310.7,75c4.8,22.8,7.3,46,7.7,69.2"/>
	<path fill="none" stroke="#000000" stroke-miterlimit="10" d="M326.9,147.3c13.1-2.8,26.6-3.7,40-2.7"/>
	<path fill="none" stroke="#000000" stroke-width="2" stroke-miterlimit="10" d="M381.9,144.4c12.7-2.1,25.8-1.9,38.5,0.6"/>
	<path fill="none" stroke="#000000" stroke-width="2" stroke-miterlimit="10" d="M362.8,126.8c-9.5-1.9-19.4-1.7-28.8,1.2
		c4.7-9.4,9.3-18.9,13.8-28.4C354.4,107.1,359.8,117.2,362.8,126.8z"/>
	<path fill="none" stroke="#000000" stroke-miterlimit="10" d="M375.8,83.7c6.6-2.8,14-2.5,21.2-2.2"/>
	<path fill="none" stroke="#000000" stroke-miterlimit="10" d="M376,87.7c7.6-2,15.7-2.3,23.4-0.9"/>
	<path fill="none" stroke="#000000" stroke-miterlimit="10" d="M376.8,91.7c5.1-0.8,10.2-1.3,15.3-1.5c2.8-0.1,5.6-0.1,8.3,0.6"/>
	<path fill="none" stroke="#000000" stroke-miterlimit="10" d="M379.9,106.5c7.8-2.9,17-2.5,25.9-1.9"/>
	<path fill="none" stroke="#000000" stroke-miterlimit="10" d="M381.4,110.7c7.5-2.1,15.7-2.7,23.8-1.8"/>
	<path fill="none" stroke="#000000" stroke-miterlimit="10" d="M382.3,114.1c7.8-2.1,16.5-1.4,24.8-0.7"/>
	<path fill="none" stroke="#000000" stroke-miterlimit="10" d="M383.3,122.8c8.4-2.2,17.2-2.5,25.7-0.8"/>
	<path fill="none" stroke="#000000" stroke-miterlimit="10" d="M384.3,126.3c7.9-1.7,16.3-1.7,24.2,0.1"/>
	<path fill="none" stroke="#000000" stroke-miterlimit="10" d="M384.2,131.5c8.3-3,17.5-3.2,25.9-0.7"/>
	<path fill="#B2B2B2" d="M184.6,232.4c-16-2.3-32.2-1.5-47.8,2.2c-0.1,0-0.1,0-0.2,0c-0.1,0-0.3,0-0.4,0c0-0.5-0.3-1.1-1-1.2
		c-6.5-1.2-13.3-0.8-19.9-0.4c-0.2,0-0.3,0-0.5,0c-6.9-0.3-14.3-1.1-21.1,0.3c-0.6,0.1-0.8,0.5-0.9,0.9c-1.9,0.4-3.8,1-5.4,1.9
		c0-4.3-0.1-8.6-0.2-12.9c0.3-0.2,0.5-0.5,0.4-1c-0.3-2.4-0.6-4.9-0.9-7.3c-1.3-16.3-4.2-32.4-8.6-48.2c-0.4-1.6-2.9-0.8-2.4,0.8
		c0,0.1,0.1,0.2,0.1,0.3c0,0.1,0,0.3,0,0.4c2,10.4,4.1,20.8,5.9,31.3c-0.5,0.1-0.9,0.6-1,1.2c-0.3,10.5,3.2,20.6,2.9,31.1
		c0,0.5,0.2,0.8,0.5,1c-0.2,0.2-0.4,0.4-0.5,0.7l-0.9,3.6c-0.1,0.4,0,0.8,0.2,1.1c0,0.2-0.1,0.5-0.1,0.7c-0.1,0.9,0.6,1.4,1.2,1.5
		c0.3,0.3,0.7,0.4,1.2,0.2c6.5-2.7,13.4-4.1,20.5-4.1c0.5,0,0.9-0.2,1-0.6c0.6,0,1.2,0,1.8-0.1c2.3-0.1,4.6-0.2,6.9-0.4
		c6.6,0.3,13.1,0.8,19.6,1.5c0.3,0.3,0.7,0.5,1.2,0.4c15.6-3.9,31.8-4.8,47.7-2.5C185.6,235.1,186.2,232.7,184.6,232.4z"/>
	<path fill="#B2B2B2" d="M125.8,216.4c-9.3-2.2-18.9-2-28.1,0.7c-1.6,0.5-0.8,2.9,0.8,2.4c8.8-2.6,17.9-2.8,26.8-0.6
		C126.8,219.3,127.4,216.8,125.8,216.4z"/>
	<path fill="#F39200" d="M109.2,190.3c-3.1,8.7-6.6,17.3-10.3,25.9c-0.7,1.5,1.6,2.7,2.2,1.2c3.8-8.7,7.3-17.5,10.5-26.5
		C112.2,189.3,109.7,188.8,109.2,190.3z"/>
	<path fill="#0BBBEF" d="M127.7,215.8c-2.4-9.9-7.3-19.4-15-26.2c-1.2-1.1-3,0.8-1.8,1.9c3.7,3.3,6.5,7.5,9.1,11.7
		c2.7,4.2,4,8.6,5.2,13.5C125.7,218.1,128.1,217.4,127.7,215.8z"/>
	<path fill="none" stroke="#000000" stroke-width="3" stroke-miterlimit="10" d="M139.2,233.4c-16.3-2.9-34.8-2.8-50.4,0.8
		c-1-23-4.1-46-9.4-68.8c16-0.6,31.1-0.2,46.9,3.2"/>
	<path fill="none" stroke="#000000" stroke-width="2" stroke-miterlimit="10" d="M126.9,169.1c6.1,21.4,10.2,43.2,12.2,64.9"/>
	<path fill="none" stroke="#000000" stroke-width="3" stroke-miterlimit="10" d="M126.3,168.7c-0.1,0-0.3-0.1-0.4-0.1
		c13.5-7.4,31.2-7.3,47.7-6.3"/>
	<path fill="none" stroke="#000000" stroke-width="3" stroke-miterlimit="10" d="M139.5,233.4c14.6-4.1,31-4.7,46.6-1.5"/>
	<path fill="none" stroke="#000000" stroke-width="3" stroke-miterlimit="10" d="M172.3,162.2c5.2,23.1,9.4,46.2,12.6,69.4"/>
	<path fill="none" stroke="#000000" stroke-miterlimit="10" d="M75.6,167c4.9,22.8,7.5,45.9,8,69.1"/>
	<path fill="none" stroke="#000000" stroke-miterlimit="10" d="M90.9,238c13.1-2.9,26.6-3.8,40-2.9"/>
	<path fill="none" stroke="#000000" stroke-width="2" stroke-miterlimit="10" d="M145.8,234.8c12.7-2.2,25.8-2.1,38.5,0.4"/>
	<path fill="none" stroke="#000000" stroke-width="2" stroke-miterlimit="10" d="M126.7,217.3c-9.6-1.8-19.4-1.6-28.7,1.3
		c4.7-9.5,9.2-19,13.7-28.5C118.2,197.6,123.7,207.7,126.7,217.3z"/>
	<path fill="none" stroke="#000000" stroke-miterlimit="10" d="M139.5,174.1c6.6-2.8,14-2.6,21.2-2.3"/>
	<path fill="none" stroke="#000000" stroke-miterlimit="10" d="M139.7,178.1c7.6-2,15.6-2.4,23.4-1"/>
	<path fill="none" stroke="#000000" stroke-miterlimit="10" d="M140.5,182.1c5.1-0.8,10.2-1.4,15.3-1.6c2.8-0.1,5.6-0.1,8.3,0.6"/>
	<path fill="none" stroke="#000000" stroke-miterlimit="10" d="M143.7,196.9c7.8-3,17-2.5,25.9-2.1"/>
	<path fill="none" stroke="#000000" stroke-miterlimit="10" d="M145.2,201.2c7.5-2.1,15.7-2.8,23.8-1.9"/>
	<path fill="none" stroke="#000000" stroke-miterlimit="10" d="M146.1,204.5c7.8-2.2,16.5-1.5,24.8-0.8"/>
	<path fill="none" stroke="#000000" stroke-miterlimit="10" d="M147.1,213.2c8.3-2.3,17.2-2.6,25.7-0.9"/>
	<path fill="none" stroke="#000000" stroke-miterlimit="10" d="M148.2,216.7c7.9-1.8,16.3-1.8,24.2,0"/>
	<path fill="none" stroke="#000000" stroke-miterlimit="10" d="M148.1,221.9c8.2-3,17.4-3.3,25.9-0.9"/>
	<path fill="#B2B2B2" d="M309.1,229.6c-16-2.1-32.2-1.2-47.8,2.8c-0.1,0-0.1,0-0.2,0c-0.1,0-0.3,0-0.4,0c0-0.5-0.3-1-1-1.2
		c-6.5-1.1-13.3-0.7-19.9-0.2c-0.2,0-0.3,0-0.5,0c-7-0.3-14.3-0.9-21.1,0.5c-0.6,0.1-0.8,0.5-0.9,0.9c-1.9,0.4-3.7,1-5.4,1.9
		c0-4.3-0.1-8.6-0.4-12.9c0.3-0.2,0.4-0.6,0.4-1c-0.3-2.4-0.6-4.9-1-7.3c-1.5-16.3-4.5-32.4-9.1-48.1c-0.5-1.6-2.9-0.8-2.4,0.8
		c0,0.1,0.1,0.2,0.1,0.3c0,0.1,0,0.3,0,0.4c2.1,10.4,4.3,20.8,6.3,31.2c-0.5,0.1-0.9,0.6-1,1.2c-0.2,10.5,3.4,20.6,3.3,31.1
		c0,0.5,0.2,0.8,0.5,1c-0.2,0.2-0.4,0.4-0.5,0.7l-0.8,3.7c-0.1,0.4,0,0.8,0.3,1.1c0,0.2-0.1,0.5-0.1,0.7c-0.1,0.9,0.6,1.4,1.2,1.5
		c0.3,0.3,0.7,0.4,1.2,0.2c6.5-2.8,13.4-4.3,20.5-4.4c0.5,0,0.9-0.3,1-0.6c0.6,0,1.2-0.1,1.8-0.1c2.3-0.1,4.6-0.3,6.9-0.5
		c6.6,0.3,13.1,0.7,19.7,1.3c0.3,0.3,0.7,0.5,1.2,0.3c15.5-4.1,31.7-5.1,47.6-3C310.2,232.3,310.7,229.9,309.1,229.6z"/>
	<path fill="#B2B2B2" d="M250.2,214.3c-9.3-2.1-18.9-1.8-28.1,1c-1.6,0.5-0.8,2.9,0.8,2.4c8.7-2.7,17.9-3,26.8-0.9
		C251.2,217.1,251.8,214.6,250.2,214.3z"/>
	<path fill="#F39200" d="M233.3,188.3c-3.1,8.8-6.4,17.4-10,26c-0.6,1.5,1.6,2.7,2.3,1.2c3.7-8.8,7.1-17.6,10.2-26.6
		C236.3,187.3,233.8,186.8,233.3,188.3z"/>
	<path fill="#0BBBEF" d="M252.1,213.6c-2.5-9.8-7.5-19.3-15.3-26.1c-1.2-1.1-3,0.8-1.7,1.9c3.8,3.3,6.5,7.4,9.2,11.6
		c2.7,4.2,4.1,8.6,5.4,13.4C250,216,252.5,215.2,252.1,213.6z"/>
	<path fill="none" stroke="#000000" stroke-width="3" stroke-miterlimit="10" d="M263.7,231.1c-16.3-2.7-34.9-2.4-50.4,1.3
		c-1.2-23-4.6-46-10.1-68.7c16-0.7,31.1-0.5,46.9,2.7"/>
	<path fill="none" stroke="#000000" stroke-width="2" stroke-miterlimit="10" d="M250.7,166.9c6.4,21.4,10.7,43.1,12.9,64.8"/>
	<path fill="none" stroke="#000000" stroke-width="3" stroke-miterlimit="10" d="M250.1,166.6c-0.1,0-0.3-0.1-0.4-0.1
		c13.4-7.6,31.1-7.6,47.7-6.8"/>
	<path fill="none" stroke="#000000" stroke-width="3" stroke-miterlimit="10" d="M264,231.1c14.6-4.3,30.9-5,46.6-2"/>
	<path fill="none" stroke="#000000" stroke-width="3" stroke-miterlimit="10" d="M296.1,159.5c5.4,23,9.9,46.1,13.4,69.3"/>
	<path fill="none" stroke="#000000" stroke-miterlimit="10" d="M199.4,165.4c5.1,22.7,8,45.9,8.8,69"/>
	<path fill="none" stroke="#000000" stroke-miterlimit="10" d="M215.5,236.2c13.1-3,26.6-4.1,40-3.3"/>
	<path fill="none" stroke="#000000" stroke-width="2" stroke-miterlimit="10" d="M270.4,232.4c12.7-2.3,25.8-2.3,38.5,0"/>
	<path fill="none" stroke="#000000" stroke-width="2" stroke-miterlimit="10" d="M251,215.1c-9.6-1.7-19.5-1.4-28.7,1.6
		c4.6-9.5,9-19.1,13.4-28.6C242.3,195.6,247.9,205.6,251,215.1z"/>
	<path fill="none" stroke="#000000" stroke-miterlimit="10" d="M263.4,171.8c6.6-2.9,14-2.7,21.2-2.5"/>
	<path fill="none" stroke="#000000" stroke-miterlimit="10" d="M263.6,175.8c7.6-2.1,15.6-2.5,23.4-1.2"/>
	<path fill="none" stroke="#000000" stroke-miterlimit="10" d="M264.5,179.8c5.1-0.9,10.2-1.5,15.3-1.8c2.8-0.2,5.6-0.2,8.3,0.5"/>
	<path fill="none" stroke="#000000" stroke-miterlimit="10" d="M267.8,194.6c7.8-3.1,17-2.7,25.8-2.4"/>
	<path fill="none" stroke="#000000" stroke-miterlimit="10" d="M269.4,198.8c7.4-2.2,15.7-3,23.8-2.2"/>
	<path fill="none" stroke="#000000" stroke-miterlimit="10" d="M270.3,202.2c7.7-2.2,16.4-1.7,24.8-1.1"/>
	<path fill="none" stroke="#000000" stroke-miterlimit="10" d="M271.5,210.9c8.3-2.4,17.2-2.8,25.7-1.2"/>
	<path fill="none" stroke="#000000" stroke-miterlimit="10" d="M272.5,214.3c7.9-1.9,16.2-1.9,24.2-0.2"/>
	<path fill="none" stroke="#000000" stroke-miterlimit="10" d="M272.5,219.5c8.2-3.1,17.4-3.5,25.8-1.1"/>
	<path fill="#B2B2B2" d="M425.6,230.4c-16-2.4-32.2-1.7-47.8,2c-0.1,0-0.1,0-0.2,0c-0.1,0-0.3,0-0.4,0c0-0.5-0.3-1.1-1-1.2
		c-6.5-1.2-13.3-0.9-19.9-0.5c-0.2,0-0.3,0-0.5,0c-6.9-0.4-14.2-1.1-21.1,0.2c-0.6,0.1-0.8,0.5-0.9,0.9c-1.9,0.4-3.8,0.9-5.4,1.8
		c0-4.3,0-8.6-0.2-12.9c0.3-0.2,0.5-0.5,0.4-1c-0.3-2.4-0.6-4.9-0.9-7.3c-1.2-16.3-4-32.4-8.4-48.2c-0.4-1.6-2.9-0.8-2.4,0.7
		c0,0.1,0.1,0.2,0.1,0.3c0,0.1,0,0.3,0,0.4c1.9,10.4,4,20.8,5.8,31.3c-0.5,0.1-0.9,0.5-1,1.2c-0.4,10.5,3.1,20.7,2.8,31.2
		c0,0.5,0.2,0.8,0.5,1c-0.2,0.2-0.4,0.4-0.5,0.7l-0.9,3.6c-0.1,0.4,0,0.8,0.2,1.1c0,0.2-0.1,0.5-0.1,0.7c-0.1,0.9,0.6,1.4,1.2,1.5
		c0.3,0.3,0.7,0.4,1.2,0.2c6.6-2.7,13.4-4.1,20.5-4c0.5,0,0.9-0.2,1-0.6c0.6,0,1.2,0,1.8-0.1c2.3-0.1,4.6-0.2,6.9-0.4
		c6.6,0.4,13.1,0.9,19.6,1.6c0.3,0.3,0.7,0.5,1.2,0.4c15.6-3.8,31.8-4.6,47.7-2.2C426.6,233.1,427.2,230.7,425.6,230.4z"/>
	<path fill="#B2B2B2" d="M367.5,214c-9.3-2.3-18.9-2.1-28.1,0.5c-1.6,0.5-0.8,2.9,0.7,2.4c8.8-2.5,17.9-2.7,26.8-0.5
		C368.5,216.8,369.1,214.4,367.5,214z"/>
	<path fill="#F39200" d="M351,187.8c-3.2,8.7-6.7,17.3-10.4,25.8c-0.7,1.5,1.6,2.7,2.2,1.2c3.8-8.7,7.4-17.5,10.6-26.4
		C354.1,186.8,351.6,186.2,351,187.8z"/>
	<path fill="#0BBBEF" d="M369.4,213.3c-2.4-9.9-7.2-19.4-14.9-26.3c-1.2-1.1-3,0.7-1.8,1.8c3.7,3.3,6.4,7.5,9.1,11.7
		c2.7,4.2,4,8.7,5.1,13.5C367.4,215.7,369.8,214.9,369.4,213.3z"/>
	<path fill="none" stroke="#000000" stroke-width="3" stroke-miterlimit="10" d="M380.8,231c-16.3-3-34.8-3-50.4,0.5
		c-0.9-23-3.9-46-9.1-68.9c16-0.5,31.1-0.1,46.9,3.4"/>
	<path fill="none" stroke="#000000" stroke-width="2" stroke-miterlimit="10" d="M368.8,166.6c6,21.5,10,43.2,11.9,65"/>
	<path fill="none" stroke="#000000" stroke-width="3" stroke-miterlimit="10" d="M368.2,166.3c-0.1,0-0.3-0.1-0.4-0.1
		c13.6-7.3,31.2-7.1,47.8-6.1"/>
	<path fill="none" stroke="#000000" stroke-width="3" stroke-miterlimit="10" d="M381.1,231c14.6-4.1,31-4.5,46.6-1.3"/>
	<path fill="none" stroke="#000000" stroke-width="3" stroke-miterlimit="10" d="M414.3,159.9c5,23.1,9.1,46.3,12.3,69.5"/>
	<path fill="none" stroke="#000000" stroke-miterlimit="10" d="M316.3,163c4.8,22.8,7.3,46,7.7,69.2"/>
	<path fill="none" stroke="#000000" stroke-miterlimit="10" d="M332.5,235.4c13.1-2.8,26.6-3.7,40-2.7"/>
	<path fill="none" stroke="#000000" stroke-width="2" stroke-miterlimit="10" d="M387.4,232.4c12.7-2.1,25.8-1.9,38.5,0.6"/>
	<path fill="none" stroke="#000000" stroke-width="2" stroke-miterlimit="10" d="M368.4,214.8c-9.5-1.9-19.4-1.7-28.8,1.2
		c4.7-9.4,9.3-18.9,13.8-28.4C360,195.1,365.4,205.3,368.4,214.8z"/>
	<path fill="none" stroke="#000000" stroke-miterlimit="10" d="M381.4,171.7c6.6-2.8,14-2.5,21.2-2.2"/>
	<path fill="none" stroke="#000000" stroke-miterlimit="10" d="M381.6,175.7c7.6-2,15.7-2.3,23.4-0.9"/>
	<path fill="none" stroke="#000000" stroke-miterlimit="10" d="M382.4,179.7c5.1-0.8,10.2-1.3,15.3-1.5c2.8-0.1,5.6-0.1,8.3,0.6"/>
	<path fill="none" stroke="#000000" stroke-miterlimit="10" d="M385.5,194.6c7.8-2.9,17-2.5,25.9-1.9"/>
	<path fill="none" stroke="#000000" stroke-miterlimit="10" d="M387,198.8c7.5-2.1,15.7-2.7,23.8-1.8"/>
	<path fill="none" stroke="#000000" stroke-miterlimit="10" d="M387.9,202.2c7.8-2.1,16.5-1.4,24.8-0.7"/>
	<path fill="none" stroke="#000000" stroke-miterlimit="10" d="M388.9,210.9c8.4-2.2,17.2-2.5,25.7-0.8"/>
	<path fill="none" stroke="#000000" stroke-miterlimit="10" d="M389.9,214.3c7.9-1.7,16.3-1.7,24.2,0.1"/>
	<path fill="none" stroke="#000000" stroke-miterlimit="10" d="M389.8,219.5c8.3-3,17.5-3.2,25.9-0.7"/>
	<path fill="#B2B2B2" d="M195.2,316.3c-16-2.3-32.2-1.5-47.8,2.2c-0.1,0-0.1,0-0.2,0c-0.1,0-0.3,0-0.4,0c0-0.5-0.3-1.1-1-1.2
		c-6.5-1.2-13.3-0.8-19.9-0.4c-0.2,0-0.3,0-0.5,0c-6.9-0.3-14.3-1.1-21.1,0.3c-0.6,0.1-0.8,0.5-0.9,0.9c-1.9,0.4-3.8,1-5.4,1.9
		c0-4.3-0.1-8.6-0.2-12.9c0.3-0.2,0.5-0.5,0.4-1c-0.3-2.4-0.6-4.9-0.9-7.3c-1.3-16.3-4.2-32.4-8.6-48.2c-0.4-1.6-2.9-0.8-2.4,0.8
		c0,0.1,0.1,0.2,0.1,0.3c0,0.1,0,0.3,0,0.4c2,10.4,4.1,20.8,5.9,31.3c-0.5,0.1-0.9,0.6-1,1.2c-0.3,10.5,3.2,20.6,2.9,31.1
		c0,0.5,0.2,0.8,0.5,1c-0.2,0.2-0.4,0.4-0.5,0.7l-0.9,3.6c-0.1,0.4,0,0.8,0.2,1.1c0,0.2-0.1,0.5-0.1,0.7c-0.1,0.9,0.6,1.4,1.2,1.5
		c0.3,0.3,0.7,0.4,1.2,0.2c6.5-2.7,13.4-4.1,20.5-4.1c0.5,0,0.9-0.2,1-0.6c0.6,0,1.2,0,1.8-0.1c2.3-0.1,4.6-0.2,6.9-0.4
		c6.6,0.3,13.1,0.8,19.6,1.5c0.3,0.3,0.7,0.5,1.2,0.4c15.6-3.9,31.8-4.8,47.7-2.5C196.3,319,196.8,316.5,195.2,316.3z"/>
	<path fill="#B2B2B2" d="M136.4,300.3c-9.3-2.2-18.9-2-28.1,0.7c-1.6,0.5-0.8,2.9,0.8,2.4c8.8-2.6,17.9-2.8,26.8-0.6
		C137.4,303.1,138,300.6,136.4,300.3z"/>
	<path fill="#F39200" d="M119.8,274.1c-3.1,8.7-6.6,17.3-10.3,25.9c-0.7,1.5,1.6,2.7,2.2,1.2c3.8-8.7,7.3-17.5,10.5-26.5
		C122.9,273.2,120.4,272.6,119.8,274.1z"/>
	<path fill="#0BBBEF" d="M138.4,299.6c-2.4-9.9-7.3-19.4-15-26.2c-1.2-1.1-3,0.8-1.8,1.9c3.7,3.3,6.5,7.5,9.1,11.7
		c2.7,4.2,4,8.6,5.2,13.5C136.3,302,138.7,301.2,138.4,299.6z"/>
	<path fill="none" stroke="#000000" stroke-width="3" stroke-miterlimit="10" d="M149.8,317.2c-16.3-2.9-34.8-2.8-50.4,0.8
		c-1-23-4.1-46-9.4-68.8c16-0.6,31.1-0.2,46.9,3.2"/>
	<path fill="none" stroke="#000000" stroke-width="2" stroke-miterlimit="10" d="M137.5,252.9c6.1,21.4,10.2,43.2,12.2,64.9"/>
	<path fill="none" stroke="#000000" stroke-width="3" stroke-miterlimit="10" d="M136.9,252.6c-0.1,0-0.3-0.1-0.4-0.1
		c13.5-7.4,31.2-7.3,47.7-6.3"/>
	<path fill="none" stroke="#000000" stroke-width="3" stroke-miterlimit="10" d="M139.5,317.4c14.6-4.1,31-4.7,46.6-1.5"/>
	<path fill="none" stroke="#000000" stroke-width="3" stroke-miterlimit="10" d="M182.9,246c5.2,23.1,9.4,46.2,12.6,69.4"/>
	<path fill="none" stroke="#000000" stroke-miterlimit="10" d="M86.2,250.8c4.9,22.8,7.5,45.9,8,69.1"/>
	<path fill="none" stroke="#000000" stroke-miterlimit="10" d="M101.5,321.8c13.1-2.9,26.6-3.8,40-2.9"/>
	<path fill="none" stroke="#000000" stroke-width="2" stroke-miterlimit="10" d="M156.4,318.6c12.7-2.2,25.8-2.1,38.5,0.4"/>
	<path fill="none" stroke="#000000" stroke-width="2" stroke-miterlimit="10" d="M137.3,301.1c-9.6-1.8-19.4-1.6-28.7,1.3
		c4.7-9.5,9.2-19,13.7-28.5C128.8,281.5,134.3,291.6,137.3,301.1z"/>
	<path fill="none" stroke="#000000" stroke-miterlimit="10" d="M150.1,257.9c6.6-2.8,14-2.6,21.2-2.3"/>
	<path fill="none" stroke="#000000" stroke-miterlimit="10" d="M150.3,262c7.6-2,15.6-2.4,23.4-1"/>
	<path fill="none" stroke="#000000" stroke-miterlimit="10" d="M151.1,266c5.1-0.8,10.2-1.4,15.3-1.6c2.8-0.1,5.6-0.1,8.3,0.6"/>
	<path fill="none" stroke="#000000" stroke-miterlimit="10" d="M154.3,280.8c7.8-3,17-2.5,25.9-2.1"/>
	<path fill="none" stroke="#000000" stroke-miterlimit="10" d="M155.8,285c7.5-2.1,15.7-2.8,23.8-1.9"/>
	<path fill="none" stroke="#000000" stroke-miterlimit="10" d="M156.7,288.4c7.8-2.2,16.5-1.5,24.8-0.8"/>
	<path fill="none" stroke="#000000" stroke-miterlimit="10" d="M157.8,297.1c8.3-2.3,17.2-2.6,25.7-0.9"/>
	<path fill="none" stroke="#000000" stroke-miterlimit="10" d="M158.8,300.5c7.9-1.8,16.3-1.8,24.2,0"/>
	<path fill="none" stroke="#000000" stroke-miterlimit="10" d="M158.7,305.7c8.2-3,17.4-3.3,25.9-0.9"/>
	<path fill="#B2B2B2" d="M319.7,313.5c-16-2.1-32.2-1.2-47.8,2.8c-0.1,0-0.1,0-0.2,0c-0.1,0-0.3,0-0.4,0c0-0.5-0.3-1-1-1.2
		c-6.5-1.1-13.3-0.7-19.9-0.2c-0.2,0-0.3,0-0.5,0c-7-0.3-14.3-0.9-21.1,0.5c-0.6,0.1-0.8,0.5-0.9,0.9c-1.9,0.4-3.7,1-5.4,1.9
		c0-4.3-0.1-8.6-0.4-12.9c0.3-0.2,0.4-0.6,0.4-1c-0.3-2.4-0.6-4.9-1-7.3c-1.5-16.3-4.5-32.4-9.1-48.1c-0.5-1.6-2.9-0.8-2.4,0.8
		c0,0.1,0.1,0.2,0.1,0.3c0,0.1,0,0.3,0,0.4c2.1,10.4,4.3,20.8,6.3,31.2c-0.5,0.1-0.9,0.6-1,1.2c-0.2,10.5,3.4,20.6,3.3,31.1
		c0,0.5,0.2,0.8,0.5,1c-0.2,0.2-0.4,0.4-0.5,0.7l-0.8,3.7c-0.1,0.4,0,0.8,0.3,1.1c0,0.2-0.1,0.5-0.1,0.7c-0.1,0.9,0.6,1.4,1.2,1.5
		c0.3,0.3,0.7,0.4,1.2,0.2c6.5-2.8,13.4-4.3,20.5-4.4c0.5,0,0.9-0.3,1-0.6c0.6,0,1.2-0.1,1.8-0.1c2.3-0.1,4.6-0.3,6.9-0.5
		c6.6,0.3,13.1,0.7,19.7,1.3c0.3,0.3,0.7,0.5,1.2,0.3c15.5-4.1,31.7-5.1,47.6-3C320.8,316.2,321.4,313.7,319.7,313.5z"/>
	<path fill="#B2B2B2" d="M260.8,298.1c-9.3-2.1-18.9-1.8-28.1,1c-1.6,0.5-0.8,2.9,0.8,2.4c8.7-2.7,17.9-3,26.8-0.9
		C261.8,301,262.4,298.5,260.8,298.1z"/>
	<path fill="#F39200" d="M243.9,272.2c-3.1,8.8-6.4,17.4-10,26c-0.6,1.5,1.6,2.7,2.3,1.2c3.7-8.8,7.1-17.6,10.2-26.6
		C246.9,271.2,244.4,270.6,243.9,272.2z"/>
	<path fill="#0BBBEF" d="M262.7,297.5c-2.5-9.8-7.5-19.3-15.3-26.1c-1.2-1.1-3,0.8-1.7,1.9c3.8,3.3,6.5,7.4,9.2,11.6
		c2.7,4.2,4.1,8.6,5.4,13.4C260.7,299.8,263.1,299.1,262.7,297.5z"/>
	<path fill="none" stroke="#000000" stroke-width="3" stroke-miterlimit="10" d="M274.4,314.9c-16.3-2.7-34.9-2.4-50.4,1.3
		c-1.2-23-4.6-46-10.1-68.7c16-0.7,31.1-0.5,46.9,2.7"/>
	<path fill="none" stroke="#000000" stroke-width="2" stroke-miterlimit="10" d="M261.4,250.8c6.4,21.4,10.7,43.1,12.9,64.8"/>
	<path fill="none" stroke="#000000" stroke-width="3" stroke-miterlimit="10" d="M260.7,250.4c-0.1,0-0.3-0.1-0.4-0.1
		c13.4-7.6,31.1-7.6,47.7-6.8"/>
	<path fill="none" stroke="#000000" stroke-width="3" stroke-miterlimit="10" d="M274.6,314.9c14.6-4.3,30.9-5,46.6-2"/>
	<path fill="none" stroke="#000000" stroke-width="3" stroke-miterlimit="10" d="M306.7,243.3c5.4,23,9.9,46.1,13.4,69.3"/>
	<path fill="none" stroke="#000000" stroke-miterlimit="10" d="M210,249.2c5.1,22.7,8,45.9,8.8,69"/>
	<path fill="none" stroke="#000000" stroke-miterlimit="10" d="M226.1,320.1c13.1-3,26.6-4.1,40-3.3"/>
	<path fill="none" stroke="#000000" stroke-width="2" stroke-miterlimit="10" d="M281,316.2c12.7-2.3,25.8-2.3,38.5,0"/>
	<path fill="none" stroke="#000000" stroke-width="2" stroke-miterlimit="10" d="M261.7,299c-9.6-1.7-19.5-1.4-28.7,1.6
		c4.6-9.5,9-19.1,13.4-28.6C252.9,279.4,258.5,289.4,261.7,299z"/>
	<path fill="none" stroke="#000000" stroke-miterlimit="10" d="M274,255.6c6.6-2.9,14-2.7,21.2-2.5"/>
	<path fill="none" stroke="#000000" stroke-miterlimit="10" d="M274.3,259.7c7.6-2.1,15.6-2.5,23.4-1.2"/>
	<path fill="none" stroke="#000000" stroke-miterlimit="10" d="M275.1,263.6c5.1-0.9,10.2-1.5,15.3-1.8c2.8-0.2,5.6-0.2,8.3,0.5"/>
	<path fill="none" stroke="#000000" stroke-miterlimit="10" d="M278.4,278.4c7.8-3.1,17-2.7,25.8-2.4"/>
	<path fill="none" stroke="#000000" stroke-miterlimit="10" d="M280,282.6c7.4-2.2,15.7-3,23.8-2.2"/>
	<path fill="none" stroke="#000000" stroke-miterlimit="10" d="M280.9,286c7.7-2.2,16.4-1.7,24.8-1.1"/>
	<path fill="none" stroke="#000000" stroke-miterlimit="10" d="M282.1,294.7c8.3-2.4,17.2-2.8,25.7-1.2"/>
	<path fill="none" stroke="#000000" stroke-miterlimit="10" d="M283.2,298.1c7.9-1.9,16.2-1.9,24.2-0.2"/>
	<path fill="none" stroke="#000000" stroke-miterlimit="10" d="M283.2,303.3c8.2-3.1,17.4-3.5,25.8-1.1"/>
	<path fill="#B2B2B2" d="M436.9,314.1c-16-2.4-32.2-1.7-47.8,2c-0.1,0-0.1,0-0.2,0c-0.1,0-0.3,0-0.4,0c0-0.5-0.3-1.1-1-1.2
		c-6.5-1.2-13.3-0.9-19.9-0.5c-0.2,0-0.3,0-0.5,0c-6.9-0.4-14.2-1.1-21.1,0.2c-0.6,0.1-0.8,0.5-0.9,0.9c-1.9,0.4-3.8,0.9-5.4,1.8
		c0-4.3,0-8.6-0.2-12.9c0.3-0.2,0.5-0.5,0.4-1c-0.3-2.4-0.6-4.9-0.9-7.3c-1.2-16.3-4-32.4-8.4-48.2c-0.4-1.6-2.9-0.8-2.4,0.7
		c0,0.1,0.1,0.2,0.1,0.3c0,0.1,0,0.3,0,0.4c1.9,10.4,4,20.8,5.8,31.3c-0.5,0.1-0.9,0.5-1,1.2c-0.4,10.5,3.1,20.7,2.8,31.2
		c0,0.5,0.2,0.8,0.5,1c-0.2,0.2-0.4,0.4-0.5,0.7l-0.9,3.6c-0.1,0.4,0,0.8,0.2,1.1c0,0.2-0.1,0.5-0.1,0.7c-0.1,0.9,0.6,1.4,1.2,1.5
		c0.3,0.3,0.7,0.4,1.2,0.2c6.6-2.7,13.4-4.1,20.5-4c0.5,0,0.9-0.2,1-0.6c0.6,0,1.2,0,1.8-0.1c2.3-0.1,4.6-0.2,6.9-0.4
		c6.6,0.4,13.1,0.9,19.6,1.6c0.3,0.3,0.7,0.5,1.2,0.4c15.6-3.8,31.8-4.6,47.7-2.2C437.9,316.8,438.5,314.3,436.9,314.1z"/>
	<path fill="#B2B2B2" d="M378.1,297.8c-9.3-2.3-18.9-2.1-28.1,0.5c-1.6,0.5-0.8,2.9,0.7,2.4c8.8-2.5,17.9-2.7,26.8-0.5
		C379.2,300.7,379.7,298.2,378.1,297.8z"/>
	<path fill="#F39200" d="M361.7,271.6c-3.2,8.7-6.7,17.3-10.4,25.8c-0.7,1.5,1.6,2.7,2.2,1.2c3.8-8.7,7.4-17.5,10.6-26.4
		C364.7,270.7,362.2,270.1,361.7,271.6z"/>
	<path fill="#0BBBEF" d="M380.1,297.2c-2.4-9.9-7.2-19.4-14.9-26.3c-1.2-1.1-3,0.7-1.8,1.8c3.7,3.3,6.4,7.5,9.1,11.7
		c2.7,4.2,4,8.7,5.1,13.5C378,299.5,380.5,298.8,380.1,297.2z"/>
	<path fill="none" stroke="#000000" stroke-width="3" stroke-miterlimit="10" d="M391.5,314.8c-16.3-3-34.8-3-50.4,0.5
		c-0.9-23-3.9-46-9.1-68.9c16-0.5,31.1-0.1,46.9,3.4"/>
	<path fill="none" stroke="#000000" stroke-width="2" stroke-miterlimit="10" d="M379.5,250.5c6,21.5,10,43.2,11.9,65"/>
	<path fill="none" stroke="#000000" stroke-width="3" stroke-miterlimit="10" d="M378.9,250.1c-0.1,0-0.3-0.1-0.4-0.1
		c13.6-7.3,31.2-7.1,47.8-6.1"/>
	<path fill="none" stroke="#000000" stroke-width="3" stroke-miterlimit="10" d="M391.7,314.8c14.6-4.1,31-4.5,46.6-1.3"/>
	<path fill="none" stroke="#000000" stroke-width="3" stroke-miterlimit="10" d="M424.9,243.8c5,23.1,9.1,46.3,12.3,69.5"/>
	<path fill="none" stroke="#000000" stroke-miterlimit="10" d="M326.9,246.9c4.8,22.8,7.3,46,7.7,69.2"/>
	<path fill="none" stroke="#000000" stroke-miterlimit="10" d="M343.1,319.2c13.1-2.8,26.6-3.7,40-2.7"/>
	<path fill="none" stroke="#000000" stroke-width="2" stroke-miterlimit="10" d="M398.1,316.2c12.7-2.1,25.8-1.9,38.5,0.6"/>
	<path fill="none" stroke="#000000" stroke-width="2" stroke-miterlimit="10" d="M379,298.7c-9.5-1.9-19.4-1.7-28.8,1.2
		c4.7-9.4,9.3-18.9,13.8-28.4C370.6,279,376,289.1,379,298.7z"/>
	<path fill="none" stroke="#000000" stroke-miterlimit="10" d="M392,255.5c6.6-2.8,14-2.5,21.2-2.2"/>
	<path fill="none" stroke="#000000" stroke-miterlimit="10" d="M392.2,259.6c7.6-2,15.7-2.3,23.4-0.9"/>
	<path fill="none" stroke="#000000" stroke-miterlimit="10" d="M393,263.6c5.1-0.8,10.2-1.3,15.3-1.5c2.8-0.1,5.6-0.1,8.3,0.6"/>
	<path fill="none" stroke="#000000" stroke-miterlimit="10" d="M396.1,278.4c7.8-2.9,17-2.5,25.9-1.9"/>
	<path fill="none" stroke="#000000" stroke-miterlimit="10" d="M397.6,282.6c7.5-2.1,15.7-2.7,23.8-1.8"/>
	<path fill="none" stroke="#000000" stroke-miterlimit="10" d="M398.5,286c7.8-2.1,16.5-1.4,24.8-0.7"/>
	<path fill="none" stroke="#000000" stroke-miterlimit="10" d="M399.5,294.7c8.4-2.2,17.2-2.5,25.7-0.8"/>
	<path fill="none" stroke="#000000" stroke-miterlimit="10" d="M400.5,298.1c7.9-1.7,16.3-1.7,24.2,0.1"/>
	<path fill="none" stroke="#000000" stroke-miterlimit="10" d="M400.4,303.4c8.3-3,17.5-3.2,25.9-0.7"/>
	<path fill="none" stroke="#000000" stroke-width="7" stroke-miterlimit="10" d="M363.2,423.9c2.8,20.6-10.5,42.3-29.7,49.3
		c-5.8,2.1-11.9,2.9-18,3.2c-5.6,0.2-11.4,0-16.8-1.3c-16.1-3.9-29.3-17.8-33-34.3c-3.6-16.5,2.4-34.9,15-46.1
		C307.9,370.5,358.1,386.3,363.2,423.9z"/>
	<path fill="none" stroke="#000000" stroke-width="5" stroke-miterlimit="10" d="M334.5,444.1c-0.7,8.4-8.2,15.8-16.4,16.1
		c-8.3,0.4-16.2-6.3-17.5-14.6"/>
	<path fill="none" stroke="#575756" stroke-width="7" stroke-miterlimit="10" d="M365.9,480.5c18.4-2,36.1-9.9,50.1-22
		c14.1-12.2,15.5-27,25.3-42c2.7-4.1,7.9-8.3,11.7-5.3c-3,6.6-6,13.2-8.9,19.8c6.6-3.1,14.7,3.9,14.3,11.2c-0.4,7.3-7,13-14,14.9"/>
	<path fill="none" stroke="#706F6F" stroke-width="7" stroke-miterlimit="10" d="M427.1,447.7c8.1,2.6,15.4,7.4,21.1,13.7"/>
	<path fill="none" stroke="#575756" stroke-width="7" stroke-miterlimit="10" d="M377.5,495.4c26-4.6,50.3-18.3,67.7-38.2"/>
	<path fill="none" stroke="#000000" stroke-width="7" stroke-miterlimit="10" d="M366.7,503.3c17.1,7,36.5,8.5,54.5,4.5
		c18.2-4,26.5-16.4,42.3-24.9c4.3-2.3,10.9-3.5,12.9,0.9c-5.8,4.4-11.5,8.8-17.3,13.2c7.3,0.4,11,10.5,7.2,16.6
		c-3.8,6.2-12.3,8.1-19.4,6.4"/>
	<path fill="none" stroke="#000000" stroke-width="7" stroke-miterlimit="10" d="M436.2,503.6c5.8,6.1,10,13.8,12,22.1"/>
	<path fill="none" stroke="#000000" stroke-width="7" stroke-miterlimit="10" d="M369.8,522c25.1,8.3,52.9,7.8,77.7-1.4"/>
	<path fill="none" stroke="#878787" stroke-width="7" stroke-miterlimit="10" d="M348.7,474.2c14.8-11.2,25.8-27.1,31.6-44.7
		c5.8-17.7-0.7-31.2,0-49.1c0.2-4.8,2.5-11.2,7.3-10.6c0.9,7.2,1.7,14.4,2.6,21.6c4-6.1,14.6-4.2,18,2.2c3.4,6.4,0.8,14.8-4.3,20"/>
	<path fill="none" stroke="#878787" stroke-width="7" stroke-miterlimit="10" d="M384.2,414.4c8.2-1.9,17-1.6,25.1,0.8"/>
	<path fill="none" stroke="#878787" stroke-width="7" stroke-miterlimit="10" d="M366.4,481c19.9-17.4,33.6-41.7,38.2-67.7"/>
	<path fill="none" stroke="#000000" stroke-width="5" stroke-miterlimit="10" d="M282.6,401.7c-1.4,1.9-2.6,4-3.2,6.3
		c-2,8,5.2,16.5,13.5,17c8.2,0.4,15.9-6.1,18-14.1c0.7-2.8,0.9-5.8-0.2-8.4C305.5,389.9,289,392.5,282.6,401.7z"/>
	<path fill="none" stroke="#000000" stroke-width="5" stroke-miterlimit="10" d="M311,406.9c-0.2,5.8,2.9,11.6,7.7,14.8
		c7.2,4.6,18.1,2.3,22.1-5.2C351.9,396.1,311.9,378.5,311,406.9z"/>
	<path fill="none" stroke="#000000" stroke-width="5" stroke-miterlimit="10" d="M268.3,415.9c3-0.9,6-1.8,8.9-2.7"/>
	<path fill="none" stroke="#000000" stroke-width="5" stroke-miterlimit="10" d="M342.1,400.8c1.9-1.4,3.7-2.9,5.6-4.3"/>
	<path fill="none" stroke="#000000" stroke-width="5" stroke-miterlimit="10" d="M325,400.1c-1.3,0.7-1.6,2.7-0.7,3.8
		c1,1.1,3,1.1,3.9-0.1c1-1.2,0.2-3.4-1.3-3.6c-1.5-0.2-2.8,2.1-1.6,3.1c1.2,1,3.3-0.9,2.3-2.1c-0.4-0.2-0.9-0.4-1.3-0.6"/>
	<path fill="none" stroke="#000000" stroke-width="5" stroke-miterlimit="10" d="M294.7,400.9c-1.3,0.7-1.6,2.7-0.7,3.8
		c1,1.1,3,1.1,3.9-0.1c1-1.2,0.2-3.4-1.3-3.6s-2.8,2.1-1.6,3.1c1.2,1,3.3-0.9,2.3-2.1c-0.4-0.2-0.9-0.4-1.3-0.6"/>
	<path fill="none" stroke="#575756" stroke-width="7" stroke-miterlimit="10" d="M267.4,490.4c-18.4-3.8-35.6-13.4-48.5-26.8
		c-13-13.5-13-28.4-21.4-44.3c-2.3-4.3-7.1-9-11.3-6.5c2.3,6.9,4.7,13.7,7,20.6c-6.3-3.8-15.3,2.5-15.6,9.7
		c-0.3,7.3,5.7,13.6,12.7,16.2"/>
	<path fill="none" stroke="#575756" stroke-width="7" stroke-miterlimit="10" d="M208.7,451.6c-8.4,1.8-16.3,5.8-22.7,11.5"/>
	<path fill="none" stroke="#575756" stroke-width="7" stroke-miterlimit="10" d="M254.1,504.1c-25.8-7.2-49-23.2-64.6-44.7"/>
	<path fill="none" stroke="#000000" stroke-width="7" stroke-miterlimit="10" d="M265.7,509.4c-18.1,5.3-37.8,4.9-55.6-0.9
		c-18-5.8-25.2-18.9-40.3-28.9c-4.1-2.7-10.7-4.6-13.1-0.4c5.4,4.9,10.8,9.9,16.2,14.8c-7.4-0.3-12.2,9.3-9,15.8
		c3.3,6.5,11.7,9.3,19,8.3"/>
	<path fill="none" stroke="#000000" stroke-width="7" stroke-miterlimit="10" d="M195.3,502.8c-6.5,5.5-11.5,12.8-14.4,20.8"/>
	<path fill="none" stroke="#000000" stroke-width="7" stroke-miterlimit="10" d="M260.7,528.7c-26.2,5.8-54.4,2.5-78.5-9"/>
	<path fill="none" stroke="#878787" stroke-width="7" stroke-miterlimit="10" d="M277.8,483.4c-13.8-12.6-23.4-29.5-27.4-47.6
		c-4-18.2,3.8-30.9,4.9-48.8c0.3-4.8-1.4-11.4-6.3-11.3c-1.6,7.1-3.2,14.1-4.8,21.2c-3.4-6.5-14.4-5.6-18.4,0.4
		c-4.1,6.1-2.2,14.6,2.4,20.3"/>
	<path fill="none" stroke="#878787" stroke-width="7" stroke-miterlimit="10" d="M247.9,420.4c-8.2-2.7-17-3.3-25.5-1.6"/>
	<path fill="none" stroke="#878787" stroke-width="7" stroke-miterlimit="10" d="M259.3,488.4c-18.4-19.3-29.8-44.8-31.9-71.1"/>
	<path fill="none" stroke="#000000" stroke-width="7" stroke-miterlimit="10" d="M292.2,473.9c-6.6,17.1-10.2,35.5-10.5,53.8"/>
	<path fill="none" stroke="#000000" stroke-width="7" stroke-miterlimit="10" d="M340.2,471.5c7.8,17.5,13.1,36,15.7,55"/>
	<path fill="none" stroke="#000000" stroke-width="4" stroke-miterlimit="10" d="M130.8,400.6c-25.4,25.5-35.3,65.4-24.7,99.9"/>
	<path fill="none" stroke="#000000" stroke-width="4" stroke-miterlimit="10" d="M154.9,395.8c-14.1,16.1-23.5,36.1-27,57.2
		c-1,6.2-1.5,13,1.6,18.4"/>
	<path fill="none" stroke="#000000" stroke-width="4" stroke-miterlimit="10" d="M467.3,386.2c12.4,10.1,20.5,25.2,22.1,41.1"/>
	<path fill="none" stroke="#000000" stroke-width="4" stroke-miterlimit="10" d="M493.5,391.3c12.8,16.3,16.9,39,10.8,58.8"/>
	<path fill="none" stroke="#000000" stroke-width="7" stroke-miterlimit="10" d="M448.9,176.1c29.9-4,60.7-8,90-0.7"/>
	<path fill="none" stroke="#000000" stroke-width="7" stroke-miterlimit="10" d="M519.3,153.7c6.9,7.1,13.8,14.2,20.7,21.3"/>
	<path fill="none" stroke="#000000" stroke-width="7" stroke-miterlimit="10" d="M513,194.4c9-6.6,17.5-13.9,25.3-21.8"/>
	<path fill="#0BBBEF" d="M681.1,164.7c-1-8.2-2-16.5-3-24.7c-0.5-3.8-0.3-10.1-5.5-10.2c-3.2-0.1-3.2,4.9,0,5c0.3,0,3.2,27.7,3.5,30
		C676.5,167.8,681.5,167.9,681.1,164.7z"/>
	<path fill="#0BBBEF" d="M665.8,174.8c-1.5-2.8-5.9-0.3-4.3,2.5c5.7,10.4,7.7,22.1,5.7,33.8c-0.5,3.1,4.3,4.5,4.8,1.3
		C674.3,199.4,672.2,186.4,665.8,174.8z"/>
	<path fill="#0BBBEF" d="M659.7,224.6c-1.5-2.8-5.8-0.3-4.3,2.5c5.2,9.7,7.2,20.2,6.1,31.2c-0.3,3.2,4.7,3.2,5,0
		C667.7,246.5,665.3,235,659.7,224.6z"/>
	<path fill="#B2B2B2" d="M668.5,207.2c-9.8-2.9-19.9-3.7-30.1-2.4c-3.2,0.4-3.2,5.4,0,5c9.8-1.2,19.3-0.5,28.8,2.3
		C670.2,212.9,671.6,208.1,668.5,207.2z"/>
	<path fill="#B2B2B2" d="M675.7,163.5c-10.1-3-20.4-3.9-30.8-2.7c-3.2,0.4-3.2,5.4,0,5c10-1.2,19.8-0.4,29.5,2.5
		C677.5,169.3,678.8,164.4,675.7,163.5z"/>
	<path fill="#B2B2B2" d="M661.8,255.7c-9.3-3.8-19.2-5.1-29.1-3.8c-3.1,0.4-3.2,5.4,0,5c9.6-1.2,18.9,0,27.8,3.7
		C663.5,261.8,664.7,256.9,661.8,255.7z"/>
	<path fill="#F39200" d="M671.2,129.4l-25.3,31.5c-2,2.5,1.5,6,3.5,3.5c8.4-10.5,16.9-21,25.3-31.5
		C676.7,130.4,673.2,126.8,671.2,129.4z"/>
	<path fill="#F39200" d="M660.1,175.9c-7.5,8.5-15,17-22.5,25.4c-2.1,2.4,1.4,6,3.5,3.5c7.5-8.5,15-17,22.5-25.4
		C665.7,177,662.2,173.5,660.1,175.9z"/>
	<path fill="#F39200" d="M652,223.1c-9,8.1-17.1,17.1-24.4,26.8c-1.9,2.6,2.4,5.1,4.3,2.5c7-9.4,14.9-18,23.6-25.8
		C657.9,224.5,654.4,220.9,652,223.1z"/>
	<path fill="#B2B2B2" d="M703,291.9c-20.9-4.6-41.9-8.1-63.1-10.8c-10.3-1.3-20.5-2.3-30.9-3.1c-5.5-0.4-11-0.8-16.4-1
		c-2.9-0.1-6,0-8.8-0.6c2.3-1.3,3.6-3.8,3.9-6.6c7.4-63.6,23.6-126.1,47.6-185.5c1.5-3.8-1.7-8.2-5.2-9.2c-4.3-1.2-7.7,1.5-9.2,5.2
		c-24.6,60.7-40.6,124.5-48.1,189.5c-0.2,1.4,0.2,2.7,1,3.8c-4.8,1.8-7.3,9.9-1.6,13.9c8,5.7,19.9,4.3,29.2,4.9
		c11,0.7,21.9,1.7,32.8,2.9c21.8,2.5,43.4,6.2,64.9,10.9C708.4,308.4,712.4,294,703,291.9z"/>
	<path fill="none" stroke="#000000" stroke-width="8" stroke-miterlimit="10" d="M700,288.8c-37.9-10.3-77.6-14.3-116.7-11.1
		c2.6-19.3,5.7-38.6,9.3-57.8c9-47.9,21.4-95.7,43.9-138.9c35.4-4.7,71.3-1.7,105.6,8.3"/>
	<path fill="none" stroke="#000000" stroke-width="8" stroke-miterlimit="10" d="M742.1,87.6c-8.2,21.8-16.2,43.8-22.3,66.3
		c-11.9,44.4-16.1,90.5-20.1,136.3"/>
	<path fill="none" stroke="#000000" stroke-width="3" stroke-miterlimit="10" d="M676.7,167.3c-9.2-4.4-19.4-6.5-29.9-5.5
		c8.1-9.7,16.1-19.5,24.1-29.4C674.9,142.6,677,155.6,676.7,167.3z"/>
	<path fill="none" stroke="#000000" stroke-width="3" stroke-miterlimit="10" d="M668.7,211.2c-9.2-4.4-19.4-6.5-29.9-5.5
		c8.1-9.7,16.1-19.5,24.1-29.4C666.9,186.5,669,199.5,668.7,211.2z"/>
	<path fill="none" stroke="#000000" stroke-width="3" stroke-miterlimit="10" d="M661.7,259.3c-9.2-4.4-19.4-6.5-29.9-5.5
		c8.1-9.7,16.1-19.5,24.1-29.4C659.9,234.6,662,247.6,661.7,259.3z"/>
	<path fill="#EC6608" d="M748.3,272.1c-0.3-1.5-1.5-2-2.6-1.7c-0.2-0.4-0.5-0.7-0.8-1c0.9-3,1.3-6.2,1-9.4c-0.1-1.4-1.2-2.2-2.3-2.4
		c0-0.1-0.1-0.2-0.1-0.2c-0.1-0.4-0.1-0.7-0.2-1.1c-0.3-1.3-1.8-2.1-3.1-1.7c0,0-0.1,0-0.1,0c-0.6-1.1-1.3-2.1-1.9-2.6
		c0-0.8-0.3-1.5-1-2.1c-0.9-2.1-2.2-4.1-3.9-5.8c-1.4-1.4-3.2-0.7-3.9,0.7c-1-0.7-2-1.3-3-2c-0.8-0.5-1.6-0.5-2.2-0.2
		c-1-0.5-2.1-1-3.1-1.3c-2.3-0.7-4,0.1-6.4,0.2c0,0,0,0,0,0c-0.2,0-0.4,0-0.7,0.1c-0.8,0.1-1.3,0.6-1.6,1.3c-0.3,0-0.7,0-1,0
		c-1.5-0.2-3-0.4-4.5-0.7c-0.9-0.2-1.6,0-2.1,0.5c-0.7-0.2-1.6-0.1-2.3,0.6c-0.7,0.6-1.4,1.4-2.2,2.2c-0.5-0.3-1.2-0.4-1.8-0.2
		c-1.2,0.3-2.2,1-3.1,1.8c-0.2,0-0.5,0-0.7,0.1c-0.9-0.3-2-0.2-2.7,0.5c-2.3,2.5-3.8,5.1-4.6,8.1c-0.3,0.4-0.5,0.8-0.7,1.2
		c-1.1,0.2-2.2,0.9-2.3,2.4c-0.1,1.2-0.2,2.4-0.3,3.5c-2.4,3.4-5.2,8.3-4.8,12.3c0.1,1.3,0.7,2.3,1.5,3c-1.4,1.7-2.6,3.7-2.6,5.6
		c-0.1,2.2,1.6,3.5,3.5,3.8c0.1,0.1,0.2,0.2,0.3,0.2c0.9,0.5,1.8,0.8,2.5,0.9c0.2,0.4,0.3,0.8,0.6,1.2c-0.6,2.6-0.6,5.2,0.9,7
		c0.4,0.5,1.2,0.8,1.9,0.7c0.3,0.6,0.7,1.1,1.1,1.5c-0.4,0.1-0.8,0.3-1.1,0.6c-0.9,0.9-1,2.7,0,3.5c1.9,1.6,4.4,2.3,6.8,1.5
		c0.8-0.3,1.4-0.8,1.7-1.6c0,0,0,0,0,0c1,0.6,2.2,1,3.2,1c0.8,0.8,1.8,1.4,2.8,1.7c2.4,0.9,5.9,1,8.4-0.4c0.2,0.1,0.4,0.2,0.6,0.2
		c1.2,0.4,2.5,0.7,3.8,0.7c0.2,0.1,0.3,0.2,0.5,0.2c3.1,0.9,6.5,0.1,8.8-2.2c0.2-0.2,0.4-0.5,0.5-0.7c0.2-0.1,0.4-0.2,0.5-0.3
		c0.9-0.2,1.8-0.5,2.5-0.8c0.9-0.4,1.8-0.9,2.6-1.5c4.5-0.8,8.3-5.1,11-9.1c1-0.9,1.8-2,2.3-3.1c0.4-0.5,0.6-1.2,0.5-1.9
		c0-0.5,0-1-0.2-1.4c0-0.5,0.1-0.9,0.3-1.5c0.1-0.4,0.1-0.8,0-1.2c0.3-0.4,0.7-0.8,1-1.2c0.4-0.4,0.7-0.8,1-1.3
		C748.1,277.9,748.9,275.3,748.3,272.1z M735.5,270.1c-1.4,2.7-1.1,6.8-0.9,9.7c0,0,0,0,0,0c-0.6,1.1-1.1,2.3-1.1,3.5
		c0,0.1,0,0.3,0,0.4c-1.3,1-2.5,2.4-2.7,4c-0.6,0.6-1.1,1.3-1.5,2c-4.9,2.6-9.9,4.8-15.1,6.7c-1.3-0.3-2.7-0.5-4.1-0.6
		c-1.3-0.7-2.7-1-4.1-1.1c-0.4,0-1,0-1.6,0c-0.4-0.2-0.8-0.5-1.2-0.8c-1.8-1.4-3.2-2.7-5.6-2.8c-0.4-1.7-1.4-3-3.2-3.3
		c-0.1-0.6-0.4-1.2-0.8-1.8c1.1-0.8,1.7-2.5,0.4-3.8c-0.5-0.6-1-1.2-1.5-1.8c-0.2-0.5-0.5-1-0.8-1.3c-0.3-0.5-0.5-0.9-0.7-1.4
		c-0.3-0.8-0.9-1.4-1.6-1.7c0.1-0.1,0.1-0.2,0.2-0.3c2.3-5.6,4.5-11.2,6.6-16.8c0,0,0-0.1,0-0.1c0.3-0.2,0.5-0.3,0.8-0.5
		c0.6-0.5,1.3-1.2,1.9-2c0.9,0.2,1.8,0.2,2.8,0c0.9-0.2,2.8-1.2,4.8-2.5c1.6,0.1,3.1,0,4.1-0.2c1-0.1,1.7-0.7,2.1-1.5
		c2.2,0.3,4.4,0.2,6.6,0.2c0.3,0.2,0.6,0.3,1,0.4c2.7,0.6,6.1,1.5,8.8,3.1c0,0,0,0,0,0c2.6,4.2,5,8.5,7.3,12.9
		C736.2,269.1,735.8,269.6,735.5,270.1z"/>
	<path fill="#706F6F" d="M701.3,310c-0.5-2.6-4.8-2.4-5,0.6c-0.3,7.4-5.9,15.3-9.5,21.5c-0.8,1.4-0.1,2.7,0.9,3.3
		c-0.9,2.1-1.7,4.2-2.5,6.3c-0.5,0.5-0.8,1.1-0.9,1.9c0,0.3,0,0.7,0,1c0,0.3,0.1,0.6,0.2,0.8c0.4,0.9,1.1,1.7,1.9,2.2
		c1.4,0.9,3,0.9,4.6,0.7c1.4-0.2,2.4-1,2.5-2.5c0-0.4,0-0.8,0.1-1.3c0-0.9-0.5-1.7-1.2-2.1c0-0.1,0.1-0.1,0.1-0.2
		c0.1-0.2,0.3-0.4,0.4-0.7l0.7-1.9c1.5-3.4,2.9-6.7,4.2-10.1c0.2-0.4,0.2-0.8,0.2-1.2c2-5.1,4-10.3,6-15.4
		C704.7,311,702.9,309.8,701.3,310z"/>
	<path fill="#C6C6C6" d="M705.3,313.3c-1.1,3-2.1,6-3.1,9c-0.6,0.3-1,0.8-1.2,1.6c-0.4,1.9-0.8,3.8-1.1,5.7c-0.5,1.8-1,3.6-1.5,5.4
		c-1-0.3-2.1,0-2.7,1.1c-1.2,2.1-1.8,4.2-2,6.6c-0.2,1.3,1.3,2.5,2.5,2.5c0,0,0.1,0,0.1,0c-0.4,2.7-0.7,5.4-0.9,8.2
		c-0.2,3.2,4.8,3.2,5,0c0-0.1,0-0.3,0-0.4c0.4-0.1,0.8-0.3,1.2-0.5c0.2-0.2,0.5-0.4,0.7-0.6c1.2-1,1-2.3,0.1-3.2
		c0.5-6.1,1.2-12.1,2.3-18.1c1.6-5.3,3.5-10.6,5.4-15.8C711.2,311.6,706.4,310.3,705.3,313.3z"/>
	<path fill="#FFFFFF" d="M734.4,273.7c-0.1-0.5-0.2-1.1-0.3-1.7c1.2-6-2.6-14.3-7.4-16.9c-4.2-2.3-9.7-1.6-14.2-1.2
		c-5.4,0.6-10.5,2-15,5.1c-1.6,1.1-1.3,3.1-0.2,4.2c-3.3,3.1-5.5,7.3-5,11.8c0.4,3.2,1.9,6.3,4.2,8.6c0.2,0.7,0.6,1.4,1.1,2.1
		c0.1,0.3,0.2,0.6,0.5,1c5.7,7.6,16.7,9.7,24.5,3.9C730.3,289.6,735.4,282,734.4,273.7z M724.8,260c0.9,0.6,1.6,1.3,2.2,2.4
		c-0.2,0-0.3-0.1-0.5-0.1C725.9,261.5,725.4,260.7,724.8,260z M726.7,276.9c0.1-0.4,0.1-0.8,0.2-1.2c0.3-0.4,0.5-0.8,0.7-1.2
		C727.4,275.2,727.1,276.1,726.7,276.9z"/>
	<path fill="none" stroke="#000000" stroke-width="4" stroke-miterlimit="10" d="M697.9,259.3c-5.3,5.2-7.5,13.2-5.5,20.3
		s8.2,12.8,15.6,14.7c7.4,1.8,15.8-0.4,21.1-5.7c1.6-1.6,3-3.5,3.8-5.6c0.9-2.2,1.4-4.5,1.6-6.8c0.7-5.5,0.5-11.6-3.2-15.9
		C723.4,250.7,706.4,250.8,697.9,259.3z"/>
	<path fill="none" stroke="#000000" stroke-width="5" stroke-miterlimit="10" d="M704.4,308.3c2.6,0.5,5.5-0.9,6.6-3.3
		c2.6,2.1,5.9,3.7,9.3,3.4s6.6-2.9,6.9-6.3c4.6,2.3,11-1.7,11.1-6.8c3.1-0.7,6.3-2.3,7.9-5c1.6-2.8,1-6.9-1.8-8.4
		c2.4-2,4.4-4.8,4.8-7.9c0.4-3.1-1.3-6.6-4.3-7.5c1.6-2.6,2.8-5.6,2-8.6s-4.1-5.3-6.8-3.9c0.8-6.1-6-11.9-11.9-10.1
		c-3.1-4.9-10.7-6-15.2-2.3c-4.4-2.7-11.1-0.4-12.8,4.5c-2.5-1.7-6.1-1.8-8.7-0.1c-2.6,1.7-4,5-3.5,8c-5,0.9-7.4,8-4,11.8
		c-2.8-0.3-5.7,1.8-6.2,4.6c-0.6,2.8,1.3,5.8,4,6.6c-2.8,1.1-4.6,4.3-4.2,7.3s3.1,5.5,6.1,5.7c-1.1,1.3-0.9,3.6,0.4,4.7
		c1.3,1.2,3.5,1,4.7-0.2c-2.1,2.8-1.3,7.3,1.6,9.3c3.1,2.1,5-0.6,7.6-0.1C700.6,304.1,701.1,307.6,704.4,308.3z"/>
	<path fill="none" stroke="#000000" stroke-width="5" stroke-miterlimit="10" d="M713.9,308.5c-1.1,0.1-1.7,1.2-2.1,2.2
		c-3,7.7-4.3,15.9-5.6,24.1c-0.9,5.7-0.4,13.1-1.3,18.7c-7.5-1.5-15-3.3-22.3-5.3c-0.6-0.2-2.5,0.6-2.2,0
		c6.7-14.3,12.5-29.1,17.1-44.2"/>
	<path fill="none" stroke="#000000" stroke-width="5" stroke-miterlimit="10" d="M706.7,348.4c4.4-1,8.1-0.3,12.6-0.6
		c-3.3-12.3-4.3-25.2-2.9-37.9"/>
	<path fill="none" stroke="#000000" stroke-width="4" stroke-miterlimit="10" d="M705.4,309c-5.6,13.1-10,26.6-13.2,40.5"/>
	<path fill="none" stroke="#EC6608" stroke-width="4" stroke-miterlimit="10" d="M644.6,92.4c0.8,7.9-0.3,15.9-3.2,23.3"/>
	<path fill="none" stroke="#EC6608" stroke-width="4" stroke-miterlimit="10" d="M644.2,93c2.7,3.2,4.9,6.7,6.6,10.6"/>
	<path fill="none" stroke="#EC6608" stroke-width="4" stroke-miterlimit="10" d="M651.4,102.9c1.3-3.8,4.3-7.1,7.9-8.8"/>
	<path fill="none" stroke="#EC6608" stroke-width="4" stroke-miterlimit="10" d="M659.4,92.6c-2.3,7.7-3.5,15.6-3.8,23.6"/>
	<path fill="none" stroke="#EC6608" stroke-width="4" stroke-miterlimit="10" d="M668.4,94.5c-2.5,6.6-3.9,13.7-4.1,20.9
		c2.7,1.4,6.6,2.3,9.5,2.9"/>
	<path fill="none" stroke="#EC6608" stroke-width="4" stroke-miterlimit="10" d="M667.6,96.4c3.3,0.3,6.7,1.3,9.8,2.8"/>
	<path fill="none" stroke="#EC6608" stroke-width="4" stroke-miterlimit="10" d="M666.6,105.3c2.5,0.9,5,1.8,7.6,2.8"/>
	<path fill="none" stroke="#EC6608" stroke-width="4" stroke-miterlimit="10" d="M685.4,96.9c-1.1,7.5-2.2,15.1-3.3,22.6"/>
	<path fill="none" stroke="#EC6608" stroke-width="4" stroke-miterlimit="10" d="M684.6,98.8c2,2.8,2.8,6.2,4,9.4
		c1.4,4,3.2,7.8,5.4,11.4"/>
	<path fill="none" stroke="#EC6608" stroke-width="4" stroke-miterlimit="10" d="M698,96.8c-1.6,8.3-2.7,16.6-3.4,25"/>
	<path fill="none" stroke="#EC6608" stroke-width="4" stroke-miterlimit="10" d="M707.3,100.8c-1.8,4.5-2.6,9.4-2.3,14.2
		c0.1,1.9,0.4,3.8,1.5,5.3c1.1,1.5,3.3,2.3,4.9,1.4c0.8-0.4,1.3-1.2,1.8-1.9c3.2-5,4.6-11.1,3.8-16.9"/>
	<path fill="none" stroke="#EC6608" stroke-miterlimit="10" d="M84.3,95.3c0,0.2,0,0.5-0.1,0.7c0.2-2.4,0.4-4.9,0.5-7.3
		c0.5-0.4,1.3-0.5,1.8-0.4c0.7,0.1,0.8,1,0.3,1.6c-0.4,0.6-1.2,1-1.9,1.4c1,1,2.1,1.9,3.2,2.8"/>
	<path fill="none" stroke="#EC6608" stroke-miterlimit="10" d="M92.8,94c-1,0.3-2,0.6-3,1c0-2.2,0.2-4.4,0.5-6.7
		c0.8-0.2,1.2-0.4,2-0.6"/>
	<path fill="none" stroke="#EC6608" stroke-miterlimit="10" d="M90,91.2c0.6-0.3,1.3-0.5,2-0.5"/>
	<path fill="none" stroke="#EC6608" stroke-miterlimit="10" d="M98.2,88c-0.3-0.4-0.9-0.5-1.3-0.3c-0.2,0.1-0.4,0.3-0.5,0.4
		c-1.2,1.4-1.8,3.3-1.4,5.2c0.1,0.3,0.2,0.6,0.4,0.8c0.3,0.3,0.8,0.2,1.2,0.2c0.6-0.1,1.4-0.4,1.4-1"/>
	<path fill="none" stroke="#EC6608" stroke-miterlimit="10" d="M103.1,93.2c-1.1,0.1-2.1,0.3-3.2,0.4c0.4-2.2,1-4.3,1.6-6.5
		c0.8-0.1,1.3-0.2,2.1-0.3"/>
	<path fill="none" stroke="#EC6608" stroke-miterlimit="10" d="M100.8,90c0.7-0.2,1.3-0.2,2-0.2"/>
	<path fill="none" stroke="#EC6608" stroke-miterlimit="10" d="M106.2,87.3c0,2.3-0.2,4.7-0.6,7"/>
	<path fill="none" stroke="#EC6608" stroke-miterlimit="10" d="M109.5,87.2c0.3,2.5,0.3,5,0.1,7.5"/>
	<path fill="none" stroke="#EC6608" stroke-miterlimit="10" d="M109.4,87.4c0.6-0.2,1.2-0.3,1.8-0.3c0.6,0.1,1.2,0.4,1.5,0.9
		c0.3,0.7,0,1.5-0.6,2s-1.3,0.7-2,0.9"/>
	<path fill="none" stroke="#EC6608" stroke-miterlimit="10" d="M114.7,87.3c1.4,0.3,2.9,0.7,4.3,1.1"/>
	<path fill="none" stroke="#EC6608" stroke-miterlimit="10" d="M116.7,87.5c-0.4,2.5-0.7,4.9-1.1,7.4"/>
	<path fill="none" stroke="#EC6608" stroke-miterlimit="10" d="M208.2,92c0,0.2,0,0.5-0.1,0.7c0.2-2.4,0.4-4.9,0.5-7.3
		c0.5-0.4,1.3-0.5,1.8-0.4c0.7,0.1,0.8,1,0.3,1.6s-1.2,1-1.9,1.4c1,1,2.1,1.9,3.2,2.8"/>
	<path fill="none" stroke="#EC6608" stroke-miterlimit="10" d="M216.7,90.7c-1,0.3-2,0.6-3,1c0-2.2,0.2-4.4,0.5-6.7
		c0.8-0.2,1.2-0.4,2-0.6"/>
	<path fill="none" stroke="#EC6608" stroke-miterlimit="10" d="M214,87.9c0.6-0.3,1.3-0.5,2-0.5"/>
	<path fill="none" stroke="#EC6608" stroke-miterlimit="10" d="M222.2,84.7c-0.3-0.4-0.9-0.5-1.3-0.3c-0.2,0.1-0.4,0.3-0.5,0.4
		c-1.2,1.4-1.8,3.3-1.4,5.2c0.1,0.3,0.2,0.6,0.4,0.8c0.3,0.3,0.8,0.2,1.2,0.2c0.6-0.1,1.4-0.4,1.4-1"/>
	<path fill="none" stroke="#EC6608" stroke-miterlimit="10" d="M227,89.9c-1.1,0.1-2.1,0.3-3.2,0.4c0.4-2.2,1-4.3,1.6-6.5
		c0.8-0.1,1.3-0.2,2.1-0.3"/>
	<path fill="none" stroke="#EC6608" stroke-miterlimit="10" d="M224.8,86.7c0.7-0.2,1.3-0.2,2-0.2"/>
	<path fill="none" stroke="#EC6608" stroke-miterlimit="10" d="M230.1,84c0,2.3-0.2,4.7-0.6,7"/>
	<path fill="none" stroke="#EC6608" stroke-miterlimit="10" d="M233.4,83.9c0.3,2.5,0.3,5,0.1,7.5"/>
	<path fill="none" stroke="#EC6608" stroke-miterlimit="10" d="M233.4,84.1c0.6-0.2,1.2-0.3,1.8-0.3c0.6,0.1,1.2,0.4,1.5,0.9
		c0.3,0.7,0,1.5-0.6,2c-0.6,0.5-1.3,0.7-2,0.9"/>
	<path fill="none" stroke="#EC6608" stroke-miterlimit="10" d="M238.6,84c1.4,0.3,2.9,0.7,4.3,1.1"/>
	<path fill="none" stroke="#EC6608" stroke-miterlimit="10" d="M240.6,84.2c-0.4,2.5-0.7,4.9-1.1,7.4"/>
	<path fill="none" stroke="#EC6608" stroke-miterlimit="10" d="M326,92.3c0,0.2,0,0.5-0.1,0.7c0.2-2.4,0.4-4.9,0.5-7.3
		c0.5-0.4,1.3-0.5,1.8-0.4c0.7,0.1,0.8,1,0.3,1.6s-1.2,1-1.9,1.4c1,1,2.1,1.9,3.2,2.8"/>
	<path fill="none" stroke="#EC6608" stroke-miterlimit="10" d="M334.6,91.1c-1,0.3-2,0.6-3,1c0-2.2,0.2-4.4,0.5-6.7
		c0.8-0.2,1.2-0.4,2-0.6"/>
	<path fill="none" stroke="#EC6608" stroke-miterlimit="10" d="M331.8,88.3c0.6-0.3,1.3-0.5,2-0.5"/>
	<path fill="none" stroke="#EC6608" stroke-miterlimit="10" d="M340,85c-0.3-0.4-0.9-0.5-1.3-0.3c-0.2,0.1-0.4,0.3-0.5,0.4
		c-1.2,1.4-1.8,3.3-1.4,5.2c0.1,0.3,0.2,0.6,0.4,0.8c0.3,0.3,0.8,0.2,1.2,0.2c0.6-0.1,1.4-0.4,1.4-1"/>
	<path fill="none" stroke="#EC6608" stroke-miterlimit="10" d="M344.8,90.3c-1.1,0.1-2.1,0.3-3.2,0.4c0.4-2.2,1-4.3,1.6-6.5
		c0.8-0.1,1.3-0.2,2.1-0.3"/>
	<path fill="none" stroke="#EC6608" stroke-miterlimit="10" d="M342.6,87c0.7-0.2,1.3-0.2,2-0.2"/>
	<path fill="none" stroke="#EC6608" stroke-miterlimit="10" d="M347.9,84.4c0,2.3-0.2,4.7-0.6,7"/>
	<path fill="none" stroke="#EC6608" stroke-miterlimit="10" d="M351.2,84.2c0.3,2.5,0.3,5,0.1,7.5"/>
	<path fill="none" stroke="#EC6608" stroke-miterlimit="10" d="M351.2,84.4c0.6-0.2,1.2-0.3,1.8-0.3c0.6,0.1,1.2,0.4,1.5,0.9
		c0.3,0.7,0,1.5-0.6,2s-1.3,0.7-2,0.9"/>
	<path fill="none" stroke="#EC6608" stroke-miterlimit="10" d="M356.5,84.3c1.4,0.3,2.9,0.7,4.3,1.1"/>
	<path fill="none" stroke="#EC6608" stroke-miterlimit="10" d="M358.4,84.6c-0.4,2.5-0.7,4.9-1.1,7.4"/>
	<path fill="none" stroke="#EC6608" stroke-miterlimit="10" d="M89.4,182c0,0.2,0,0.5-0.1,0.7c0.2-2.4,0.4-4.9,0.5-7.3
		c0.5-0.4,1.3-0.5,1.8-0.4c0.7,0.1,0.8,1,0.3,1.6c-0.4,0.6-1.2,1-1.9,1.4c1,1,2.1,1.9,3.2,2.8"/>
	<path fill="none" stroke="#EC6608" stroke-miterlimit="10" d="M97.9,180.7c-1,0.3-2,0.6-3,1c0-2.2,0.2-4.4,0.5-6.7
		c0.8-0.2,1.2-0.4,2-0.6"/>
	<path fill="none" stroke="#EC6608" stroke-miterlimit="10" d="M95.2,177.9c0.6-0.3,1.3-0.5,2-0.5"/>
	<path fill="none" stroke="#EC6608" stroke-miterlimit="10" d="M103.4,174.7c-0.3-0.4-0.9-0.5-1.3-0.3c-0.2,0.1-0.4,0.3-0.5,0.4
		c-1.2,1.4-1.8,3.3-1.4,5.2c0.1,0.3,0.2,0.6,0.4,0.8c0.3,0.3,0.8,0.2,1.2,0.2c0.6-0.1,1.4-0.4,1.4-1"/>
	<path fill="none" stroke="#EC6608" stroke-miterlimit="10" d="M108.2,179.9c-1.1,0.1-2.1,0.3-3.2,0.4c0.4-2.2,1-4.3,1.6-6.5
		c0.8-0.1,1.3-0.2,2.1-0.3"/>
	<path fill="none" stroke="#EC6608" stroke-miterlimit="10" d="M106,176.7c0.7-0.2,1.3-0.2,2-0.2"/>
	<path fill="none" stroke="#EC6608" stroke-miterlimit="10" d="M111.3,174.1c0,2.3-0.2,4.7-0.6,7"/>
	<path fill="none" stroke="#EC6608" stroke-miterlimit="10" d="M114.6,173.9c0.3,2.5,0.3,5,0.1,7.5"/>
	<path fill="none" stroke="#EC6608" stroke-miterlimit="10" d="M114.6,174.1c0.6-0.2,1.2-0.3,1.8-0.3c0.6,0.1,1.2,0.4,1.5,0.9
		c0.3,0.7,0,1.5-0.6,2c-0.6,0.5-1.3,0.7-2,0.9"/>
	<path fill="none" stroke="#EC6608" stroke-miterlimit="10" d="M119.8,174c1.4,0.3,2.9,0.7,4.3,1.1"/>
	<path fill="none" stroke="#EC6608" stroke-miterlimit="10" d="M121.8,174.2c-0.4,2.5-0.7,4.9-1.1,7.4"/>
	<path fill="none" stroke="#EC6608" stroke-miterlimit="10" d="M212.8,180c0,0.2,0,0.5-0.1,0.7c0.2-2.4,0.4-4.9,0.5-7.3
		c0.5-0.4,1.3-0.5,1.8-0.4c0.7,0.1,0.8,1,0.3,1.6c-0.4,0.6-1.2,1-1.9,1.4c1,1,2.1,1.9,3.2,2.8"/>
	<path fill="none" stroke="#EC6608" stroke-miterlimit="10" d="M221.3,178.7c-1,0.3-2,0.6-3,1c0-2.2,0.2-4.4,0.5-6.7
		c0.8-0.2,1.2-0.4,2-0.6"/>
	<path fill="none" stroke="#EC6608" stroke-miterlimit="10" d="M218.5,175.9c0.6-0.3,1.3-0.5,2-0.5"/>
	<path fill="none" stroke="#EC6608" stroke-miterlimit="10" d="M226.7,172.7c-0.3-0.4-0.9-0.5-1.3-0.3c-0.2,0.1-0.4,0.3-0.5,0.4
		c-1.2,1.4-1.8,3.3-1.4,5.2c0.1,0.3,0.2,0.6,0.4,0.8c0.3,0.3,0.8,0.2,1.2,0.2c0.6-0.1,1.4-0.4,1.4-1"/>
	<path fill="none" stroke="#EC6608" stroke-miterlimit="10" d="M231.6,177.9c-1.1,0.1-2.1,0.3-3.2,0.4c0.4-2.2,1-4.3,1.6-6.5
		c0.8-0.1,1.3-0.2,2.1-0.3"/>
	<path fill="none" stroke="#EC6608" stroke-miterlimit="10" d="M229.3,174.7c0.7-0.2,1.3-0.2,2-0.2"/>
	<path fill="none" stroke="#EC6608" stroke-miterlimit="10" d="M234.7,172c0,2.3-0.2,4.7-0.6,7"/>
	<path fill="none" stroke="#EC6608" stroke-miterlimit="10" d="M238,171.9c0.3,2.5,0.3,5,0.1,7.5"/>
	<path fill="none" stroke="#EC6608" stroke-miterlimit="10" d="M237.9,172.1c0.6-0.2,1.2-0.3,1.8-0.3s1.2,0.4,1.5,0.9
		c0.3,0.7,0,1.5-0.6,2c-0.6,0.5-1.3,0.7-2,0.9"/>
	<path fill="none" stroke="#EC6608" stroke-miterlimit="10" d="M243.2,172c1.4,0.3,2.9,0.7,4.3,1.1"/>
	<path fill="none" stroke="#EC6608" stroke-miterlimit="10" d="M245.2,172.2c-0.4,2.5-0.7,4.9-1.1,7.4"/>
	<path fill="none" stroke="#EC6608" stroke-miterlimit="10" d="M331.3,179.9c0,0.2,0,0.5-0.1,0.7c0.2-2.4,0.4-4.9,0.5-7.3
		c0.5-0.4,1.3-0.5,1.8-0.4c0.7,0.1,0.8,1,0.3,1.6s-1.2,1-1.9,1.4c1,1,2.1,1.9,3.2,2.8"/>
	<path fill="none" stroke="#EC6608" stroke-miterlimit="10" d="M339.9,178.6c-1,0.3-2,0.6-3,1c0-2.2,0.2-4.4,0.5-6.7
		c0.8-0.2,1.2-0.4,2-0.6"/>
	<path fill="none" stroke="#EC6608" stroke-miterlimit="10" d="M337.1,175.8c0.6-0.3,1.3-0.5,2-0.5"/>
	<path fill="none" stroke="#EC6608" stroke-miterlimit="10" d="M345.3,172.6c-0.3-0.4-0.9-0.5-1.3-0.3c-0.2,0.1-0.4,0.3-0.5,0.4
		c-1.2,1.4-1.8,3.3-1.4,5.2c0.1,0.3,0.2,0.6,0.4,0.8c0.3,0.3,0.8,0.2,1.2,0.2c0.6-0.1,1.4-0.4,1.4-1"/>
	<path fill="none" stroke="#EC6608" stroke-miterlimit="10" d="M350.1,177.9c-1.1,0.1-2.1,0.3-3.2,0.4c0.4-2.2,1-4.3,1.6-6.5
		c0.8-0.1,1.3-0.2,2.1-0.3"/>
	<path fill="none" stroke="#EC6608" stroke-miterlimit="10" d="M347.9,174.6c0.7-0.2,1.3-0.2,2-0.2"/>
	<path fill="none" stroke="#EC6608" stroke-miterlimit="10" d="M353.2,172c0,2.3-0.2,4.7-0.6,7"/>
	<path fill="none" stroke="#EC6608" stroke-miterlimit="10" d="M356.5,171.8c0.3,2.5,0.3,5,0.1,7.5"/>
	<path fill="none" stroke="#EC6608" stroke-miterlimit="10" d="M356.5,172c0.6-0.2,1.2-0.3,1.8-0.3c0.6,0.1,1.2,0.4,1.5,0.9
		c0.3,0.7,0,1.5-0.6,2c-0.6,0.5-1.3,0.7-2,0.9"/>
	<path fill="none" stroke="#EC6608" stroke-miterlimit="10" d="M361.8,171.9c1.4,0.3,2.9,0.7,4.3,1.1"/>
	<path fill="none" stroke="#EC6608" stroke-miterlimit="10" d="M363.7,172.2c-0.4,2.5-0.7,4.9-1.1,7.4"/>
	<path fill="none" stroke="#EC6608" stroke-miterlimit="10" d="M99.6,266.6c0,0.2,0,0.5-0.1,0.7c0.2-2.4,0.4-4.9,0.5-7.3
		c0.5-0.4,1.3-0.5,1.8-0.4c0.7,0.1,0.8,1,0.3,1.6c-0.4,0.6-1.2,1-1.9,1.4c1,1,2.1,1.9,3.2,2.8"/>
	<path fill="none" stroke="#EC6608" stroke-miterlimit="10" d="M108.2,265.3c-1,0.3-2,0.6-3,1c0-2.2,0.2-4.4,0.5-6.7
		c0.8-0.2,1.2-0.4,2-0.6"/>
	<path fill="none" stroke="#EC6608" stroke-miterlimit="10" d="M105.4,262.5c0.6-0.3,1.3-0.5,2-0.5"/>
	<path fill="none" stroke="#EC6608" stroke-miterlimit="10" d="M113.6,259.3c-0.3-0.4-0.9-0.5-1.3-0.3c-0.2,0.1-0.4,0.3-0.5,0.4
		c-1.2,1.4-1.8,3.3-1.4,5.2c0.1,0.3,0.2,0.6,0.4,0.8c0.3,0.3,0.8,0.2,1.2,0.2c0.6-0.1,1.4-0.4,1.4-1"/>
	<path fill="none" stroke="#EC6608" stroke-miterlimit="10" d="M118.5,264.5c-1.1,0.1-2.1,0.3-3.2,0.4c0.4-2.2,1-4.3,1.6-6.5
		c0.8-0.1,1.3-0.2,2.1-0.3"/>
	<path fill="none" stroke="#EC6608" stroke-miterlimit="10" d="M116.2,261.3c0.7-0.2,1.3-0.2,2-0.2"/>
	<path fill="none" stroke="#EC6608" stroke-miterlimit="10" d="M121.6,258.6c0,2.3-0.2,4.7-0.6,7"/>
	<path fill="none" stroke="#EC6608" stroke-miterlimit="10" d="M124.8,258.5c0.3,2.5,0.3,5,0.1,7.5"/>
	<path fill="none" stroke="#EC6608" stroke-miterlimit="10" d="M124.8,258.7c0.6-0.2,1.2-0.3,1.8-0.3c0.6,0.1,1.2,0.4,1.5,0.9
		c0.3,0.7,0,1.5-0.6,2c-0.6,0.5-1.3,0.7-2,0.9"/>
	<path fill="none" stroke="#EC6608" stroke-miterlimit="10" d="M130.1,258.6c1.4,0.3,2.9,0.7,4.3,1.1"/>
	<path fill="none" stroke="#EC6608" stroke-miterlimit="10" d="M132.1,258.8c-0.4,2.5-0.7,4.9-1.1,7.4"/>
	<path fill="none" stroke="#EC6608" stroke-miterlimit="10" d="M224,265.4c0,0.2,0,0.5-0.1,0.7c0.2-2.4,0.4-4.9,0.5-7.3
		c0.5-0.4,1.3-0.5,1.8-0.4c0.7,0.1,0.8,1,0.3,1.6c-0.4,0.6-1.2,1-1.9,1.4c1,1,2.1,1.9,3.2,2.8"/>
	<path fill="none" stroke="#EC6608" stroke-miterlimit="10" d="M232.5,264.1c-1,0.3-2,0.6-3,1c0-2.2,0.2-4.4,0.5-6.7
		c0.8-0.2,1.2-0.4,2-0.6"/>
	<path fill="none" stroke="#EC6608" stroke-miterlimit="10" d="M229.8,261.3c0.6-0.3,1.3-0.5,2-0.5"/>
	<path fill="none" stroke="#EC6608" stroke-miterlimit="10" d="M238,258.1c-0.3-0.4-0.9-0.5-1.3-0.3c-0.2,0.1-0.4,0.3-0.5,0.4
		c-1.2,1.4-1.8,3.3-1.4,5.2c0.1,0.3,0.2,0.6,0.4,0.8c0.3,0.3,0.8,0.2,1.2,0.2c0.6-0.1,1.4-0.4,1.4-1"/>
	<path fill="none" stroke="#EC6608" stroke-miterlimit="10" d="M242.8,263.3c-1.1,0.1-2.1,0.3-3.2,0.4c0.4-2.2,1-4.3,1.6-6.5
		c0.8-0.1,1.3-0.2,2.1-0.3"/>
	<path fill="none" stroke="#EC6608" stroke-miterlimit="10" d="M240.6,260.1c0.7-0.2,1.3-0.2,2-0.2"/>
	<path fill="none" stroke="#EC6608" stroke-miterlimit="10" d="M245.9,257.4c0,2.3-0.2,4.7-0.6,7"/>
	<path fill="none" stroke="#EC6608" stroke-miterlimit="10" d="M249.2,257.3c0.3,2.5,0.3,5,0.1,7.5"/>
	<path fill="none" stroke="#EC6608" stroke-miterlimit="10" d="M249.2,257.5c0.6-0.2,1.2-0.3,1.8-0.3s1.2,0.4,1.5,0.9
		c0.3,0.7,0,1.5-0.6,2c-0.6,0.5-1.3,0.7-2,0.9"/>
	<path fill="none" stroke="#EC6608" stroke-miterlimit="10" d="M254.4,257.4c1.4,0.3,2.9,0.7,4.3,1.1"/>
	<path fill="none" stroke="#EC6608" stroke-miterlimit="10" d="M256.4,257.6c-0.4,2.5-0.7,4.9-1.1,7.4"/>
	<path fill="none" stroke="#EC6608" stroke-miterlimit="10" d="M341.6,263.6c0,0.2,0,0.5-0.1,0.7c0.2-2.4,0.4-4.9,0.5-7.3
		c0.5-0.4,1.3-0.5,1.8-0.4c0.7,0.1,0.8,1,0.3,1.6s-1.2,1-1.9,1.4c1,1,2.1,1.9,3.2,2.8"/>
	<path fill="none" stroke="#EC6608" stroke-miterlimit="10" d="M350.2,262.3c-1,0.3-2,0.6-3,1c0-2.2,0.2-4.4,0.5-6.7
		c0.8-0.2,1.2-0.4,2-0.6"/>
	<path fill="none" stroke="#EC6608" stroke-miterlimit="10" d="M347.4,259.5c0.6-0.3,1.3-0.5,2-0.5"/>
	<path fill="none" stroke="#EC6608" stroke-miterlimit="10" d="M355.6,256.3c-0.3-0.4-0.9-0.5-1.3-0.3c-0.2,0.1-0.4,0.3-0.5,0.4
		c-1.2,1.4-1.8,3.3-1.4,5.2c0.1,0.3,0.2,0.6,0.4,0.8c0.3,0.3,0.8,0.2,1.2,0.2c0.6-0.1,1.4-0.4,1.4-1"/>
	<path fill="none" stroke="#EC6608" stroke-miterlimit="10" d="M360.4,261.5c-1.1,0.1-2.1,0.3-3.2,0.4c0.4-2.2,1-4.3,1.6-6.5
		c0.8-0.1,1.3-0.2,2.1-0.3"/>
	<path fill="none" stroke="#EC6608" stroke-miterlimit="10" d="M358.2,258.3c0.7-0.2,1.3-0.2,2-0.2"/>
	<path fill="none" stroke="#EC6608" stroke-miterlimit="10" d="M363.5,255.6c0,2.3-0.2,4.7-0.6,7"/>
	<path fill="none" stroke="#EC6608" stroke-miterlimit="10" d="M366.8,255.5c0.3,2.5,0.3,5,0.1,7.5"/>
	<path fill="none" stroke="#EC6608" stroke-miterlimit="10" d="M366.8,255.7c0.6-0.2,1.2-0.3,1.8-0.3c0.6,0.1,1.2,0.4,1.5,0.9
		c0.3,0.7,0,1.5-0.6,2c-0.6,0.5-1.3,0.7-2,0.9"/>
	<path fill="none" stroke="#EC6608" stroke-miterlimit="10" d="M372.1,255.6c1.4,0.3,2.9,0.7,4.3,1.1"/>
	<path fill="none" stroke="#EC6608" stroke-miterlimit="10" d="M374,255.8c-0.4,2.5-0.7,4.9-1.1,7.4"/>
</g>
</svg>
