<?xml version="1.0" encoding="UTF-8" standalone="no"?>
<!DOCTYPE svg PUBLIC "-//W3C//DTD SVG 1.1//EN" "http://www.w3.org/Graphics/SVG/1.1/DTD/svg11.dtd">
<svg width="100%" height="100%" viewBox="0 0 1036 857" version="1.1" xmlns="http://www.w3.org/2000/svg" xmlns:xlink="http://www.w3.org/1999/xlink" xml:space="preserve" xmlns:serif="http://www.serif.com/" style="fill-rule:evenodd;clip-rule:evenodd;stroke-miterlimit:10;">
    <g transform="matrix(1,0,0,1,-1114.23,-68.6568)">
        <g transform="matrix(4.16667,0,0,4.16667,1639.29,781.31)">
            <path d="M0,-170.523C-6.599,-167.053 -10.741,-158.831 -14.681,-152.792C-18.774,-146.515 -22.548,-140.007 -26.372,-133.564C-34.506,-119.857 -42.046,-105.801 -49.418,-91.672C-56.646,-77.821 -63.735,-63.87 -70.324,-49.702C-73.623,-42.609 -76.857,-35.486 -80.027,-28.334C-81.549,-24.9 -83.056,-21.46 -84.548,-18.013C-86.229,-14.127 -88.403,-10.357 -88.419,-6.059C-88.438,-0.821 -82.08,1.459 -78.417,-1.916C-75.443,-4.655 -74.246,-8.475 -72.563,-12.088C-70.851,-15.766 -69.12,-19.437 -67.373,-23.098C-64.146,-29.86 -60.85,-36.588 -57.515,-43.297C-50.561,-57.289 -43.56,-71.247 -36.21,-85.036C-28.859,-98.826 -21.17,-112.428 -13.565,-126.078C-9.916,-132.629 -6.077,-139.081 -2.482,-145.662C1.018,-152.071 6.251,-159.334 6.418,-166.839C6.493,-170.202 2.774,-171.982 0,-170.523" style="fill:rgb(237,102,35);fill-rule:nonzero;"/>
        </g>
        <g transform="matrix(4.16667,0,0,4.16667,1995.55,789.645)">
            <path d="M0,-14.547C-3.65,-14.141 -7.645,-15.226 -11.294,-15.711C-15.067,-16.213 -18.844,-16.681 -22.628,-17.094C-30.195,-17.919 -37.787,-18.566 -45.388,-18.991C-60.592,-19.844 -75.854,-19.855 -91.064,-19.138C-106.323,-18.419 -121.536,-16.844 -136.631,-14.496C-143.794,-13.381 -150.984,-11.939 -158.01,-10.147C-164.604,-8.464 -173.072,-6.928 -178.142,-2.089C-179.967,-0.348 -178.967,2.601 -176.715,3.316C-170.445,5.308 -162.68,3.33 -156.29,2.561C-149.085,1.695 -141.882,0.814 -134.675,-0.042C-120.198,-1.763 -105.637,-2.85 -91.064,-3.299C-76.469,-3.749 -61.858,-3.471 -47.288,-2.524C-40.318,-2.07 -33.357,-1.49 -26.414,-0.733C-22.745,-0.332 -19.079,0.106 -15.423,0.608C-12.315,1.034 -7.395,0.899 -4.542,2.224C0.657,4.64 7.041,2.793 8.679,-3.154C10.107,-8.34 5.919,-15.204 0,-14.547" style="fill:rgb(181,178,177);fill-rule:nonzero;"/>
        </g>
        <g transform="matrix(4.16667,0,0,4.16667,1883.38,460.029)">
            <path d="M0,-20.549C-8.123,-35.067 -16.476,-49.532 -25.474,-63.529C-28.083,-67.588 -48.002,-100.908 -54.039,-91.319C-57.413,-85.961 -51.416,-77.481 -48.758,-72.838C-44.859,-66.029 -40.843,-59.266 -36.804,-52.54C-28.875,-39.338 -21.251,-25.954 -13.939,-12.401C0.027,13.488 13.647,40.628 15.646,70.487C16.291,80.14 30.975,80.359 30.833,70.487C30.359,37.663 15.71,7.531 0,-20.549" style="fill:rgb(23,187,238);fill-rule:nonzero;"/>
        </g>
        <g transform="matrix(4.16667,0,0,4.16667,1991.23,87.0175)">
            <path d="M0,162.82C-55.84,149.715 -114.111,149.012 -169.558,163.69C-139.892,109.135 -110.783,54.278 -82.237,-0.87C-45.401,45.192 -15.475,105.906 0,162.82Z" style="fill:none;stroke:rgb(30,28,26);stroke-width:7px;"/>
        </g>
        <g transform="matrix(4.16667,0,0,4.16667,-751,-67)">
            <path d="M653.032,109.103C653.16,108.943 653.416,108.863 653.8,108.863C654.184,108.863 654.448,108.951 654.592,109.127C654.736,109.303 654.792,110.407 654.76,112.439C654.76,112.455 654.76,112.487 654.76,112.535C654.728,114.343 654.788,115.383 654.94,115.655C655.092,115.927 655.64,116.007 656.584,115.895C656.616,115.895 656.632,115.887 656.632,115.871C657.48,115.775 658.208,115.663 658.816,115.535C659.424,115.407 659.788,115.203 659.908,114.923C660.028,114.643 660.016,114.015 659.872,113.039C659.712,111.855 659.616,111.127 659.584,110.855C659.536,110.439 659.576,110.143 659.704,109.967C659.848,109.791 660.136,109.707 660.568,109.715C661,109.723 661.288,109.807 661.432,109.967C661.512,110.063 661.592,110.463 661.672,111.167C661.752,111.871 661.812,112.655 661.852,113.519C661.892,114.383 661.896,115.087 661.864,115.631C661.784,116.671 661.744,117.811 661.744,119.051C661.744,120.291 661.784,121.079 661.864,121.415C661.992,122.119 661.696,122.711 660.976,123.191C660.768,123.319 660.624,123.379 660.544,123.371C660.464,123.363 660.32,123.263 660.112,123.071L659.704,122.663L659.824,120.071C659.904,118.359 659.88,117.463 659.752,117.383C659.656,117.303 659.152,117.351 658.24,117.527C656.864,117.815 656.072,117.975 655.864,118.007L654.832,118.223L654.832,120.119C654.832,120.679 654.824,121.095 654.808,121.367C654.792,121.639 654.76,121.847 654.712,121.991C654.664,122.135 654.592,122.263 654.496,122.375C654.288,122.615 654.044,122.731 653.764,122.723C653.484,122.715 653.264,122.591 653.104,122.351C653.056,122.255 653.016,122.115 652.984,121.931C652.952,121.747 652.924,121.387 652.9,120.851C652.876,120.315 652.86,119.675 652.852,118.931C652.844,118.187 652.832,117.095 652.816,115.655C652.8,111.479 652.872,109.295 653.032,109.103Z" style="fill:rgb(30,28,26);fill-rule:nonzero;"/>
            <path d="M666.616,109.583C666.712,109.535 666.892,109.467 667.156,109.379C667.42,109.291 667.712,109.195 668.032,109.091C668.352,108.987 668.656,108.895 668.944,108.815C669.232,108.735 669.432,108.695 669.544,108.695C669.688,108.679 670.136,108.871 670.888,109.271C671.624,109.703 672.196,110.231 672.604,110.855C673.012,111.479 673.32,112.327 673.528,113.399C673.752,114.567 673.84,115.415 673.792,115.943C673.744,116.471 673.496,117.311 673.048,118.463C672.68,119.407 672.4,120.043 672.208,120.371C672.016,120.699 671.68,121.103 671.2,121.583C670.608,122.175 669.964,122.683 669.268,123.107C668.572,123.531 667.984,123.783 667.504,123.863C666.832,123.975 666,123.695 665.008,123.023C664.016,122.351 663.304,121.591 662.872,120.743C662.36,119.719 662.24,118.287 662.512,116.447C662.704,115.135 662.992,114.143 663.376,113.471C663.52,113.247 663.736,112.831 664.024,112.223C664.232,111.775 664.624,111.255 665.2,110.663C665.776,110.071 666.248,109.711 666.616,109.583ZM670.456,111.263C670.28,111.167 669.896,111.087 669.304,111.023C668.648,110.943 668.084,111.007 667.612,111.215C667.14,111.423 666.712,111.799 666.328,112.343C665.88,112.935 665.576,113.403 665.416,113.747C665.256,114.091 665.056,114.687 664.816,115.535C664.592,116.367 664.464,117.163 664.432,117.923C664.4,118.683 664.472,119.279 664.648,119.711C664.84,120.159 665.148,120.571 665.572,120.947C665.996,121.323 666.4,121.551 666.784,121.631C667.584,121.759 668.38,121.547 669.172,120.995C669.964,120.443 670.608,119.663 671.104,118.655C671.6,117.647 671.848,116.583 671.848,115.463C671.848,114.567 671.704,113.691 671.416,112.835C671.128,111.979 670.808,111.455 670.456,111.263Z" style="fill:rgb(30,28,26);fill-rule:nonzero;"/>
            <path d="M679.336,109.607C679.784,109.479 680.336,109.439 680.992,109.487C681.648,109.535 682.12,109.647 682.408,109.823C682.568,109.935 682.668,110.039 682.708,110.135C682.748,110.231 682.744,110.391 682.696,110.615C682.632,110.935 682.48,111.211 682.24,111.443C682,111.675 681.784,111.751 681.592,111.671C681.048,111.447 680.68,111.327 680.488,111.311C680.296,111.295 679.96,111.359 679.48,111.503C678.568,111.759 677.956,112.131 677.644,112.619C677.332,113.107 677.4,113.583 677.848,114.047C678.104,114.335 678.8,114.727 679.936,115.223C681.232,115.783 682.144,116.383 682.672,117.023C683.2,117.663 683.464,118.479 683.464,119.471C683.464,120.223 683.176,121.023 682.6,121.871C682.024,122.719 681.368,123.319 680.632,123.671C680.232,123.863 679.664,123.983 678.928,124.031C678.192,124.079 677.568,124.039 677.056,123.911C676.672,123.815 676.24,123.559 675.76,123.143C675.28,122.727 674.928,122.303 674.704,121.871C674.4,121.295 674.248,120.583 674.248,119.735C674.248,118.887 674.392,118.415 674.68,118.319C674.744,118.303 674.836,118.375 674.956,118.535C675.076,118.695 675.192,118.911 675.304,119.183C675.528,119.679 675.816,120.211 676.168,120.779C676.52,121.347 676.808,121.711 677.032,121.871C677.192,122.015 677.672,122.119 678.472,122.183L679.648,122.279L680.416,121.511C680.928,120.983 681.224,120.487 681.304,120.023C681.4,119.479 681.376,119.019 681.232,118.643C681.088,118.267 680.808,117.931 680.392,117.635C679.976,117.339 679.368,117.047 678.568,116.759C677.336,116.295 676.444,115.691 675.892,114.947C675.34,114.203 675.184,113.391 675.424,112.511C675.584,111.903 676.016,111.339 676.72,110.819C677.424,110.299 678.296,109.895 679.336,109.607Z" style="fill:rgb(30,28,26);fill-rule:nonzero;"/>
            <path d="M692.704,109.655C692.944,109.655 693.252,109.647 693.628,109.631C694.004,109.615 694.32,109.603 694.576,109.595C694.832,109.587 695.016,109.583 695.128,109.583C695.544,109.567 695.84,109.635 696.016,109.787C696.192,109.939 696.24,110.167 696.16,110.471C696.032,110.951 695.812,111.251 695.5,111.371C695.188,111.491 694.456,111.551 693.304,111.551C691.896,111.583 691.148,111.639 691.06,111.719C690.972,111.799 690.976,113.511 691.072,116.855C691.168,120.199 691.256,122.047 691.336,122.399C691.416,122.719 691.32,123.071 691.048,123.455C690.776,123.839 690.464,124.047 690.112,124.079C689.76,124.111 689.52,124.039 689.392,123.863C689.248,123.703 689.152,121.775 689.104,118.079L689.056,112.535L688.6,112.151C688.296,111.895 687.936,111.799 687.52,111.863C686.352,112.007 685.584,112.075 685.216,112.067C684.848,112.059 684.584,111.967 684.424,111.791C684.168,111.535 684.008,111.255 683.944,110.951C683.88,110.647 683.936,110.431 684.112,110.303C684.24,110.207 685.292,110.083 687.268,109.931C689.244,109.779 691.056,109.687 692.704,109.655Z" style="fill:rgb(30,28,26);fill-rule:nonzero;"/>
        </g>
        <g transform="matrix(4.16665,-0.0112501,0.0112501,4.16665,-751,-67)">
            <path d="M512.532,224.623C512.628,224.607 512.756,224.591 512.916,224.575C513.652,224.495 514.128,224.459 514.344,224.467C514.56,224.475 514.94,224.527 515.484,224.623C515.516,224.623 515.54,224.623 515.556,224.623C515.988,224.703 516.424,224.843 516.864,225.043C517.304,225.243 517.7,225.479 518.052,225.751C518.404,226.023 518.716,226.331 518.988,226.675C519.26,227.019 519.444,227.359 519.54,227.695C519.668,228.095 519.676,228.623 519.564,229.279C519.452,229.935 519.268,230.463 519.012,230.863C518.756,231.247 518.404,231.655 517.956,232.087C517.508,232.519 517.116,232.823 516.78,232.999C516.444,233.175 515.896,233.383 515.136,233.623C514.376,233.863 513.764,234.015 513.3,234.079C512.788,234.159 512.476,234.299 512.364,234.499C512.252,234.699 512.252,235.159 512.364,235.879C512.444,236.407 512.476,236.783 512.46,237.007C512.444,237.231 512.364,237.503 512.22,237.823C511.82,238.799 511.34,238.999 510.78,238.423L510.372,238.015L510.468,234.175C510.564,231.615 510.556,229.671 510.444,228.343C510.348,226.983 510.3,226.119 510.3,225.751C510.3,225.383 510.364,225.135 510.492,225.007C510.636,224.863 511.316,224.735 512.532,224.623ZM515.484,226.711C514.876,226.535 514.276,226.455 513.684,226.471C513.092,226.487 512.692,226.591 512.484,226.783C512.404,226.863 512.368,227.743 512.376,229.423C512.384,231.103 512.428,232.007 512.508,232.135C512.588,232.247 512.832,232.283 513.24,232.243C513.648,232.203 514.124,232.087 514.668,231.895C516.588,231.255 517.548,230.239 517.548,228.847C517.548,228.367 517.368,227.939 517.008,227.563C516.648,227.187 516.14,226.903 515.484,226.711Z" style="fill:rgb(30,28,26);fill-rule:nonzero;"/>
            <path d="M526.86,224.455C527.164,224.311 527.424,224.235 527.64,224.227C527.856,224.219 528.1,224.271 528.372,224.383C528.564,224.447 528.68,224.527 528.72,224.623C528.76,224.719 528.756,224.935 528.708,225.271C528.628,225.751 528.796,226.735 529.212,228.223C529.612,229.663 530.108,231.583 530.7,233.983C531.132,235.679 531.376,236.723 531.432,237.115C531.488,237.507 531.452,237.855 531.324,238.159C531.164,238.543 530.972,238.747 530.748,238.771C530.524,238.795 530.228,238.647 529.86,238.327C529.508,238.039 529.332,237.711 529.332,237.343C529.332,236.927 529.26,236.403 529.116,235.771C528.972,235.139 528.844,234.775 528.732,234.679C528.62,234.583 527.844,234.495 526.404,234.415C524.964,234.319 524.156,234.223 523.98,234.127C523.788,234.031 523.66,233.983 523.596,233.983C523.436,233.983 523.068,234.807 522.492,236.455C522.14,237.463 521.868,238.071 521.676,238.279C521.484,238.487 521.26,238.591 521.004,238.591C520.748,238.591 520.524,238.479 520.332,238.255C520.172,238.095 520.092,237.967 520.092,237.871C520.092,237.775 520.164,237.575 520.308,237.271C520.388,237.095 520.572,236.627 520.86,235.867C521.148,235.107 521.364,234.623 521.508,234.415C521.684,234.143 522.076,233.335 522.684,231.991C523.932,229.287 524.856,227.391 525.456,226.303C526.056,225.215 526.524,224.599 526.86,224.455ZM527.052,227.575C526.956,227.383 526.868,227.287 526.788,227.287C526.708,227.287 526.368,227.903 525.768,229.135C525.168,230.367 524.868,231.071 524.868,231.247C524.868,231.423 524.8,231.579 524.664,231.715C524.528,231.851 524.516,231.975 524.628,232.087C524.74,232.215 525.22,232.363 526.068,232.531C526.916,232.699 527.484,232.767 527.772,232.735C527.964,232.719 528.084,232.671 528.132,232.591C528.18,232.511 528.204,232.343 528.204,232.087C528.188,231.783 528.028,231.023 527.724,229.807C527.42,228.591 527.196,227.847 527.052,227.575Z" style="fill:rgb(30,28,26);fill-rule:nonzero;"/>
            <path d="M540.708,225.007C540.948,225.007 541.256,224.999 541.632,224.983C542.008,224.967 542.324,224.955 542.58,224.947C542.836,224.939 543.02,224.935 543.132,224.935C543.548,224.919 543.844,224.987 544.02,225.139C544.196,225.291 544.244,225.519 544.164,225.823C544.036,226.303 543.816,226.603 543.504,226.723C543.192,226.843 542.46,226.903 541.308,226.903C539.9,226.935 539.152,226.991 539.064,227.071C538.976,227.151 538.98,228.863 539.076,232.207C539.172,235.551 539.26,237.399 539.34,237.751C539.42,238.071 539.324,238.423 539.052,238.807C538.78,239.191 538.468,239.399 538.116,239.431C537.764,239.463 537.524,239.391 537.396,239.215C537.252,239.055 537.156,237.127 537.108,233.431L537.06,227.887L536.604,227.503C536.3,227.247 535.94,227.151 535.524,227.215C534.356,227.359 533.588,227.427 533.22,227.419C532.852,227.411 532.588,227.319 532.428,227.143C532.172,226.887 532.012,226.607 531.948,226.303C531.884,225.999 531.94,225.783 532.116,225.655C532.244,225.559 533.296,225.435 535.272,225.283C537.248,225.131 539.06,225.039 540.708,225.007Z" style="fill:rgb(30,28,26);fill-rule:nonzero;"/>
            <path d="M544.86,224.455C544.988,224.295 545.244,224.215 545.628,224.215C546.012,224.215 546.276,224.303 546.42,224.479C546.564,224.655 546.62,225.759 546.588,227.791C546.588,227.807 546.588,227.839 546.588,227.887C546.556,229.695 546.616,230.735 546.768,231.007C546.92,231.279 547.468,231.359 548.412,231.247C548.444,231.247 548.46,231.239 548.46,231.223C549.308,231.127 550.036,231.015 550.644,230.887C551.252,230.759 551.616,230.555 551.736,230.275C551.856,229.995 551.844,229.367 551.7,228.391C551.54,227.207 551.444,226.479 551.412,226.207C551.364,225.791 551.404,225.495 551.532,225.319C551.676,225.143 551.964,225.059 552.396,225.067C552.828,225.075 553.116,225.159 553.26,225.319C553.34,225.415 553.42,225.815 553.5,226.519C553.58,227.223 553.64,228.007 553.68,228.871C553.72,229.735 553.724,230.439 553.692,230.983C553.612,232.023 553.572,233.163 553.572,234.403C553.572,235.643 553.612,236.431 553.692,236.767C553.82,237.471 553.524,238.063 552.804,238.543C552.596,238.671 552.452,238.731 552.372,238.723C552.292,238.715 552.148,238.615 551.94,238.423L551.532,238.015L551.652,235.423C551.732,233.711 551.708,232.815 551.58,232.735C551.484,232.655 550.98,232.703 550.068,232.879C548.692,233.167 547.9,233.327 547.692,233.359L546.66,233.575L546.66,235.471C546.66,236.031 546.652,236.447 546.636,236.719C546.62,236.991 546.588,237.199 546.54,237.343C546.492,237.487 546.42,237.615 546.324,237.727C546.116,237.967 545.872,238.083 545.592,238.075C545.312,238.067 545.092,237.943 544.932,237.703C544.884,237.607 544.844,237.467 544.812,237.283C544.78,237.099 544.752,236.739 544.728,236.203C544.704,235.667 544.688,235.027 544.68,234.283C544.672,233.539 544.66,232.447 544.644,231.007C544.628,226.831 544.7,224.647 544.86,224.455Z" style="fill:rgb(30,28,26);fill-rule:nonzero;"/>
            <path d="M573.036,225.007C573.276,225.007 573.584,224.999 573.96,224.983C574.336,224.967 574.652,224.955 574.908,224.947C575.164,224.939 575.348,224.935 575.46,224.935C575.876,224.919 576.172,224.987 576.348,225.139C576.524,225.291 576.572,225.519 576.492,225.823C576.364,226.303 576.144,226.603 575.832,226.723C575.52,226.843 574.788,226.903 573.636,226.903C572.228,226.935 571.48,226.991 571.392,227.071C571.304,227.151 571.308,228.863 571.404,232.207C571.5,235.551 571.588,237.399 571.668,237.751C571.748,238.071 571.652,238.423 571.38,238.807C571.108,239.191 570.796,239.399 570.444,239.431C570.092,239.463 569.852,239.391 569.724,239.215C569.58,239.055 569.484,237.127 569.436,233.431L569.388,227.887L568.932,227.503C568.628,227.247 568.268,227.151 567.852,227.215C566.684,227.359 565.916,227.427 565.548,227.419C565.18,227.411 564.916,227.319 564.756,227.143C564.5,226.887 564.34,226.607 564.276,226.303C564.212,225.999 564.268,225.783 564.444,225.655C564.572,225.559 565.624,225.435 567.6,225.283C569.576,225.131 571.388,225.039 573.036,225.007Z" style="fill:rgb(30,28,26);fill-rule:nonzero;"/>
            <path d="M578.532,223.783C578.644,223.671 578.92,223.599 579.36,223.567C579.8,223.535 580.652,223.519 581.916,223.519L585.06,223.519L585.06,224.119C585.06,224.455 584.96,224.747 584.76,224.995C584.56,225.243 584.304,225.403 583.992,225.475C583.68,225.547 582.94,225.591 581.772,225.607C581.324,225.623 580.976,225.639 580.728,225.655C580.48,225.671 580.244,225.711 580.02,225.775C579.796,225.839 579.64,225.911 579.552,225.991C579.464,226.071 579.38,226.207 579.3,226.399C579.22,226.591 579.168,226.791 579.144,226.999C579.12,227.207 579.1,227.511 579.084,227.911C579.052,228.887 579.1,229.439 579.228,229.567C579.356,229.695 580.116,229.767 581.508,229.783L583.596,229.783L583.668,230.503C583.684,230.871 583.624,231.147 583.488,231.331C583.352,231.515 583.104,231.643 582.744,231.715C582.384,231.787 581.828,231.823 581.076,231.823C579.972,231.823 579.364,231.883 579.252,232.003C579.14,232.123 579.068,232.775 579.036,233.959C579.02,234.743 579.028,235.247 579.06,235.471C579.092,235.695 579.18,235.863 579.324,235.975C579.516,236.119 580.064,236.195 580.968,236.203C581.872,236.211 582.58,236.151 583.092,236.023C583.78,235.831 584.224,235.735 584.424,235.735C584.624,235.735 584.804,235.831 584.964,236.023C585.172,236.247 585.28,236.535 585.288,236.887C585.296,237.239 585.196,237.511 584.988,237.703C584.876,237.831 584.592,237.927 584.136,237.991C583.68,238.055 582.772,238.119 581.412,238.183L578.124,238.375C577.74,237.975 577.356,237.583 576.972,237.199L577.116,235.975C577.196,235.319 577.244,233.643 577.26,230.947C577.276,228.251 577.252,226.495 577.188,225.679C577.14,225.183 577.136,224.879 577.176,224.767C577.216,224.655 577.38,224.519 577.668,224.359C578.1,224.135 578.388,223.943 578.532,223.783Z" style="fill:rgb(30,28,26);fill-rule:nonzero;"/>
            <path d="M597.804,224.839C597.964,224.775 598.228,224.743 598.596,224.743C598.852,224.727 599.048,224.775 599.184,224.887C599.32,224.999 599.408,225.187 599.448,225.451C599.488,225.715 599.476,226.063 599.412,226.495C599.348,227.119 599.316,228.415 599.316,230.383C599.316,232.351 599.356,234.071 599.436,235.543L599.556,237.703L599.1,238.015C598.908,238.143 598.76,238.207 598.656,238.207C598.552,238.207 598.388,238.143 598.164,238.015C597.844,237.855 597.636,237.671 597.54,237.463C597.46,237.239 597.428,235.879 597.444,233.383C597.476,230.855 597.452,229.519 597.372,229.375C597.292,229.247 597.18,229.183 597.036,229.183C596.892,229.183 596.476,229.623 595.788,230.503C595.1,231.383 594.652,232.047 594.444,232.495C594.06,233.375 593.668,233.815 593.268,233.815C593.076,233.815 592.696,233.535 592.128,232.975C591.56,232.415 590.992,231.803 590.424,231.139C589.856,230.475 589.328,229.871 588.84,229.327C588.352,228.783 588.084,228.527 588.036,228.559C587.94,228.623 587.844,229.459 587.748,231.067C587.652,232.675 587.612,233.991 587.628,235.015C587.66,236.039 587.64,236.751 587.568,237.151C587.496,237.551 587.348,237.815 587.124,237.943C586.9,238.055 586.644,238.047 586.356,237.919C586.068,237.791 585.876,237.591 585.78,237.319C585.684,237.063 585.692,235.895 585.804,233.815C585.932,231.079 586.012,229.191 586.044,228.151C586.076,227.031 586.12,226.319 586.176,226.015C586.232,225.711 586.332,225.487 586.476,225.343C586.828,225.071 587.164,225.003 587.484,225.139C587.804,225.275 588.324,225.703 589.044,226.423C589.924,227.335 590.404,227.919 590.484,228.175C590.58,228.463 590.748,228.719 590.988,228.943C591.084,229.023 591.46,229.439 592.116,230.191C592.644,230.767 592.932,231.055 592.98,231.055C593.044,231.055 593.356,230.703 593.916,229.999C594.764,228.975 595.388,228.247 595.788,227.815C596.46,227.047 596.932,226.383 597.204,225.823C597.444,225.247 597.644,224.919 597.804,224.839Z" style="fill:rgb(30,28,26);fill-rule:nonzero;"/>
            <path d="M602.244,224.623C602.34,224.607 602.468,224.591 602.628,224.575C603.364,224.495 603.84,224.459 604.056,224.467C604.272,224.475 604.652,224.527 605.196,224.623C605.228,224.623 605.252,224.623 605.268,224.623C605.7,224.703 606.136,224.843 606.576,225.043C607.016,225.243 607.412,225.479 607.764,225.751C608.116,226.023 608.428,226.331 608.7,226.675C608.972,227.019 609.156,227.359 609.252,227.695C609.38,228.095 609.388,228.623 609.276,229.279C609.164,229.935 608.98,230.463 608.724,230.863C608.468,231.247 608.116,231.655 607.668,232.087C607.22,232.519 606.828,232.823 606.492,232.999C606.156,233.175 605.608,233.383 604.848,233.623C604.088,233.863 603.476,234.015 603.012,234.079C602.5,234.159 602.188,234.299 602.076,234.499C601.964,234.699 601.964,235.159 602.076,235.879C602.156,236.407 602.188,236.783 602.172,237.007C602.156,237.231 602.076,237.503 601.932,237.823C601.532,238.799 601.052,238.999 600.492,238.423L600.084,238.015L600.18,234.175C600.276,231.615 600.268,229.671 600.156,228.343C600.06,226.983 600.012,226.119 600.012,225.751C600.012,225.383 600.076,225.135 600.204,225.007C600.348,224.863 601.028,224.735 602.244,224.623ZM605.196,226.711C604.588,226.535 603.988,226.455 603.396,226.471C602.804,226.487 602.404,226.591 602.196,226.783C602.116,226.863 602.08,227.743 602.088,229.423C602.096,231.103 602.14,232.007 602.22,232.135C602.3,232.247 602.544,232.283 602.952,232.243C603.36,232.203 603.836,232.087 604.38,231.895C606.3,231.255 607.26,230.239 607.26,228.847C607.26,228.367 607.08,227.939 606.72,227.563C606.36,227.187 605.852,226.903 605.196,226.711Z" style="fill:rgb(30,28,26);fill-rule:nonzero;"/>
            <path d="M610.62,225.007C610.94,224.751 611.256,224.607 611.568,224.575C611.88,224.543 612.148,224.631 612.372,224.839C612.564,224.999 612.664,225.207 612.672,225.463C612.68,225.719 612.604,226.159 612.444,226.783C612.252,227.535 612.104,229.311 612,232.111C611.896,234.911 611.924,236.383 612.084,236.527C612.292,236.735 612.876,236.875 613.836,236.947C614.796,237.019 615.78,236.999 616.788,236.887C617.7,236.791 618.264,236.747 618.48,236.755C618.696,236.763 618.86,236.839 618.972,236.983C619.308,237.463 619.276,237.951 618.876,238.447C618.716,238.655 618.464,238.775 618.12,238.807C617.776,238.839 616.756,238.863 615.06,238.879C612.692,238.895 611.404,238.943 611.196,239.023C610.956,239.103 610.652,238.983 610.284,238.663C610.156,238.551 610.06,238.463 609.996,238.399C609.932,238.335 609.884,238.255 609.852,238.159C609.82,238.063 609.804,237.967 609.804,237.871C609.804,237.775 609.82,237.623 609.852,237.415C610.044,235.799 610.18,233.811 610.26,231.451C610.34,229.091 610.324,227.439 610.212,226.495C610.148,225.999 610.132,225.683 610.164,225.547C610.196,225.411 610.348,225.231 610.62,225.007Z" style="fill:rgb(30,28,26);fill-rule:nonzero;"/>
            <path d="M626.412,224.455C626.716,224.311 626.976,224.235 627.192,224.227C627.408,224.219 627.652,224.271 627.924,224.383C628.116,224.447 628.232,224.527 628.272,224.623C628.312,224.719 628.308,224.935 628.26,225.271C628.18,225.751 628.348,226.735 628.764,228.223C629.164,229.663 629.66,231.583 630.252,233.983C630.684,235.679 630.928,236.723 630.984,237.115C631.04,237.507 631.004,237.855 630.876,238.159C630.716,238.543 630.524,238.747 630.3,238.771C630.076,238.795 629.78,238.647 629.412,238.327C629.06,238.039 628.884,237.711 628.884,237.343C628.884,236.927 628.812,236.403 628.668,235.771C628.524,235.139 628.396,234.775 628.284,234.679C628.172,234.583 627.396,234.495 625.956,234.415C624.516,234.319 623.708,234.223 623.532,234.127C623.34,234.031 623.212,233.983 623.148,233.983C622.988,233.983 622.62,234.807 622.044,236.455C621.692,237.463 621.42,238.071 621.228,238.279C621.036,238.487 620.812,238.591 620.556,238.591C620.3,238.591 620.076,238.479 619.884,238.255C619.724,238.095 619.644,237.967 619.644,237.871C619.644,237.775 619.716,237.575 619.86,237.271C619.94,237.095 620.124,236.627 620.412,235.867C620.7,235.107 620.916,234.623 621.06,234.415C621.236,234.143 621.628,233.335 622.236,231.991C623.484,229.287 624.408,227.391 625.008,226.303C625.608,225.215 626.076,224.599 626.412,224.455ZM626.604,227.575C626.508,227.383 626.42,227.287 626.34,227.287C626.26,227.287 625.92,227.903 625.32,229.135C624.72,230.367 624.42,231.071 624.42,231.247C624.42,231.423 624.352,231.579 624.216,231.715C624.08,231.851 624.068,231.975 624.18,232.087C624.292,232.215 624.772,232.363 625.62,232.531C626.468,232.699 627.036,232.767 627.324,232.735C627.516,232.719 627.636,232.671 627.684,232.591C627.732,232.511 627.756,232.343 627.756,232.087C627.74,231.783 627.58,231.023 627.276,229.807C626.972,228.591 626.748,227.847 626.604,227.575Z" style="fill:rgb(30,28,26);fill-rule:nonzero;"/>
            <path d="M640.26,225.007C640.5,225.007 640.808,224.999 641.184,224.983C641.56,224.967 641.876,224.955 642.132,224.947C642.388,224.939 642.572,224.935 642.684,224.935C643.1,224.919 643.396,224.987 643.572,225.139C643.748,225.291 643.796,225.519 643.716,225.823C643.588,226.303 643.368,226.603 643.056,226.723C642.744,226.843 642.012,226.903 640.86,226.903C639.452,226.935 638.704,226.991 638.616,227.071C638.528,227.151 638.532,228.863 638.628,232.207C638.724,235.551 638.812,237.399 638.892,237.751C638.972,238.071 638.876,238.423 638.604,238.807C638.332,239.191 638.02,239.399 637.668,239.431C637.316,239.463 637.076,239.391 636.948,239.215C636.804,239.055 636.708,237.127 636.66,233.431L636.612,227.887L636.156,227.503C635.852,227.247 635.492,227.151 635.076,227.215C633.908,227.359 633.14,227.427 632.772,227.419C632.404,227.411 632.14,227.319 631.98,227.143C631.724,226.887 631.564,226.607 631.5,226.303C631.436,225.999 631.492,225.783 631.668,225.655C631.796,225.559 632.848,225.435 634.824,225.283C636.8,225.131 638.612,225.039 640.26,225.007Z" style="fill:rgb(30,28,26);fill-rule:nonzero;"/>
            <path d="M645.756,223.783C645.868,223.671 646.144,223.599 646.584,223.567C647.024,223.535 647.876,223.519 649.14,223.519L652.284,223.519L652.284,224.119C652.284,224.455 652.184,224.747 651.984,224.995C651.784,225.243 651.528,225.403 651.216,225.475C650.904,225.547 650.164,225.591 648.996,225.607C648.548,225.623 648.2,225.639 647.952,225.655C647.704,225.671 647.468,225.711 647.244,225.775C647.02,225.839 646.864,225.911 646.776,225.991C646.688,226.071 646.604,226.207 646.524,226.399C646.444,226.591 646.392,226.791 646.368,226.999C646.344,227.207 646.324,227.511 646.308,227.911C646.276,228.887 646.324,229.439 646.452,229.567C646.58,229.695 647.34,229.767 648.732,229.783L650.82,229.783L650.892,230.503C650.908,230.871 650.848,231.147 650.712,231.331C650.576,231.515 650.328,231.643 649.968,231.715C649.608,231.787 649.052,231.823 648.3,231.823C647.196,231.823 646.588,231.883 646.476,232.003C646.364,232.123 646.292,232.775 646.26,233.959C646.244,234.743 646.252,235.247 646.284,235.471C646.316,235.695 646.404,235.863 646.548,235.975C646.74,236.119 647.288,236.195 648.192,236.203C649.096,236.211 649.804,236.151 650.316,236.023C651.004,235.831 651.448,235.735 651.648,235.735C651.848,235.735 652.028,235.831 652.188,236.023C652.396,236.247 652.504,236.535 652.512,236.887C652.52,237.239 652.42,237.511 652.212,237.703C652.1,237.831 651.816,237.927 651.36,237.991C650.904,238.055 649.996,238.119 648.636,238.183L645.348,238.375C644.964,237.975 644.58,237.583 644.196,237.199L644.34,235.975C644.42,235.319 644.468,233.643 644.484,230.947C644.5,228.251 644.476,226.495 644.412,225.679C644.364,225.183 644.36,224.879 644.4,224.767C644.44,224.655 644.604,224.519 644.892,224.359C645.324,224.135 645.612,223.943 645.756,223.783Z" style="fill:rgb(30,28,26);fill-rule:nonzero;"/>
        </g>
        <g transform="matrix(4.16667,0,0,4.16667,-751,-67)">
            <path d="M459.747,92.872C459.907,92.808 460.171,92.776 460.539,92.776C460.795,92.76 460.991,92.808 461.127,92.92C461.263,93.032 461.351,93.22 461.391,93.484C461.431,93.748 461.419,94.096 461.355,94.528C461.291,95.152 461.259,96.448 461.259,98.416C461.259,100.384 461.299,102.104 461.379,103.576L461.499,105.736L461.043,106.048C460.851,106.176 460.703,106.24 460.599,106.24C460.495,106.24 460.331,106.176 460.107,106.048C459.787,105.888 459.579,105.704 459.483,105.496C459.403,105.272 459.371,103.912 459.387,101.416C459.419,98.888 459.395,97.552 459.315,97.408C459.235,97.28 459.123,97.216 458.979,97.216C458.835,97.216 458.419,97.656 457.731,98.536C457.043,99.416 456.595,100.08 456.387,100.528C456.003,101.408 455.611,101.848 455.211,101.848C455.019,101.848 454.639,101.568 454.071,101.008C453.503,100.448 452.935,99.836 452.367,99.172C451.799,98.508 451.271,97.904 450.783,97.36C450.295,96.816 450.027,96.56 449.979,96.592C449.883,96.656 449.787,97.492 449.691,99.1C449.595,100.708 449.555,102.024 449.571,103.048C449.603,104.072 449.583,104.784 449.511,105.184C449.439,105.584 449.291,105.848 449.067,105.976C448.843,106.088 448.587,106.08 448.299,105.952C448.011,105.824 447.819,105.624 447.723,105.352C447.627,105.096 447.635,103.928 447.747,101.848C447.875,99.112 447.955,97.224 447.987,96.184C448.019,95.064 448.063,94.352 448.119,94.048C448.175,93.744 448.275,93.52 448.419,93.376C448.771,93.104 449.107,93.036 449.427,93.172C449.747,93.308 450.267,93.736 450.987,94.456C451.867,95.368 452.347,95.952 452.427,96.208C452.523,96.496 452.691,96.752 452.931,96.976C453.027,97.056 453.403,97.472 454.059,98.224C454.587,98.8 454.875,99.088 454.923,99.088C454.987,99.088 455.299,98.736 455.859,98.032C456.707,97.008 457.331,96.28 457.731,95.848C458.403,95.08 458.875,94.416 459.147,93.856C459.387,93.28 459.587,92.952 459.747,92.872Z" style="fill:rgb(30,28,26);fill-rule:nonzero;"/>
            <path d="M463.515,91.816C463.627,91.704 463.903,91.632 464.343,91.6C464.783,91.568 465.635,91.552 466.899,91.552L470.043,91.552L470.043,92.152C470.043,92.488 469.943,92.78 469.743,93.028C469.543,93.276 469.287,93.436 468.975,93.508C468.663,93.58 467.923,93.624 466.755,93.64C466.307,93.656 465.959,93.672 465.711,93.688C465.463,93.704 465.227,93.744 465.003,93.808C464.779,93.872 464.623,93.944 464.535,94.024C464.447,94.104 464.363,94.24 464.283,94.432C464.203,94.624 464.151,94.824 464.127,95.032C464.103,95.24 464.083,95.544 464.067,95.944C464.035,96.92 464.083,97.472 464.211,97.6C464.339,97.728 465.099,97.8 466.491,97.816L468.579,97.816L468.651,98.536C468.667,98.904 468.607,99.18 468.471,99.364C468.335,99.548 468.087,99.676 467.727,99.748C467.367,99.82 466.811,99.856 466.059,99.856C464.955,99.856 464.347,99.916 464.235,100.036C464.123,100.156 464.051,100.808 464.019,101.992C464.003,102.776 464.011,103.28 464.043,103.504C464.075,103.728 464.163,103.896 464.307,104.008C464.499,104.152 465.047,104.228 465.951,104.236C466.855,104.244 467.563,104.184 468.075,104.056C468.763,103.864 469.207,103.768 469.407,103.768C469.607,103.768 469.787,103.864 469.947,104.056C470.155,104.28 470.263,104.568 470.271,104.92C470.279,105.272 470.179,105.544 469.971,105.736C469.859,105.864 469.575,105.96 469.119,106.024C468.663,106.088 467.755,106.152 466.395,106.216L463.107,106.408C462.723,106.008 462.339,105.616 461.955,105.232L462.099,104.008C462.179,103.352 462.227,101.676 462.243,98.98C462.259,96.284 462.235,94.528 462.171,93.712C462.123,93.216 462.119,92.912 462.159,92.8C462.199,92.688 462.363,92.552 462.651,92.392C463.083,92.168 463.371,91.976 463.515,91.816Z" style="fill:rgb(30,28,26);fill-rule:nonzero;"/>
            <path d="M479.499,93.04C479.739,93.04 480.047,93.032 480.423,93.016C480.799,93 481.115,92.988 481.371,92.98C481.627,92.972 481.811,92.968 481.923,92.968C482.339,92.952 482.635,93.02 482.811,93.172C482.987,93.324 483.035,93.552 482.955,93.856C482.827,94.336 482.607,94.636 482.295,94.756C481.983,94.876 481.251,94.936 480.099,94.936C478.691,94.968 477.943,95.024 477.855,95.104C477.767,95.184 477.771,96.896 477.867,100.24C477.963,103.584 478.051,105.432 478.131,105.784C478.211,106.104 478.115,106.456 477.843,106.84C477.571,107.224 477.259,107.432 476.907,107.464C476.555,107.496 476.315,107.424 476.187,107.248C476.043,107.088 475.947,105.16 475.899,101.464L475.851,95.92L475.395,95.536C475.091,95.28 474.731,95.184 474.315,95.248C473.147,95.392 472.379,95.46 472.011,95.452C471.643,95.444 471.379,95.352 471.219,95.176C470.963,94.92 470.803,94.64 470.739,94.336C470.675,94.032 470.731,93.816 470.907,93.688C471.035,93.592 472.087,93.468 474.063,93.316C476.039,93.164 477.851,93.072 479.499,93.04Z" style="fill:rgb(30,28,26);fill-rule:nonzero;"/>
            <path d="M483.651,92.488C483.779,92.328 484.035,92.248 484.419,92.248C484.803,92.248 485.067,92.336 485.211,92.512C485.355,92.688 485.411,93.792 485.379,95.824C485.379,95.84 485.379,95.872 485.379,95.92C485.347,97.728 485.407,98.768 485.559,99.04C485.711,99.312 486.259,99.392 487.203,99.28C487.235,99.28 487.251,99.272 487.251,99.256C488.099,99.16 488.827,99.048 489.435,98.92C490.043,98.792 490.407,98.588 490.527,98.308C490.647,98.028 490.635,97.4 490.491,96.424C490.331,95.24 490.235,94.512 490.203,94.24C490.155,93.824 490.195,93.528 490.323,93.352C490.467,93.176 490.755,93.092 491.187,93.1C491.619,93.108 491.907,93.192 492.051,93.352C492.131,93.448 492.211,93.848 492.291,94.552C492.371,95.256 492.431,96.04 492.471,96.904C492.511,97.768 492.515,98.472 492.483,99.016C492.403,100.056 492.363,101.196 492.363,102.436C492.363,103.676 492.403,104.464 492.483,104.8C492.611,105.504 492.315,106.096 491.595,106.576C491.387,106.704 491.243,106.764 491.163,106.756C491.083,106.748 490.939,106.648 490.731,106.456L490.323,106.048L490.443,103.456C490.523,101.744 490.499,100.848 490.371,100.768C490.275,100.688 489.771,100.736 488.859,100.912C487.483,101.2 486.691,101.36 486.483,101.392L485.451,101.608L485.451,103.504C485.451,104.064 485.443,104.48 485.427,104.752C485.411,105.024 485.379,105.232 485.331,105.376C485.283,105.52 485.211,105.648 485.115,105.76C484.907,106 484.663,106.116 484.383,106.108C484.103,106.1 483.883,105.976 483.723,105.736C483.675,105.64 483.635,105.5 483.603,105.316C483.571,105.132 483.543,104.772 483.519,104.236C483.495,103.7 483.479,103.06 483.471,102.316C483.463,101.572 483.451,100.48 483.435,99.04C483.419,94.864 483.491,92.68 483.651,92.488Z" style="fill:rgb(30,28,26);fill-rule:nonzero;"/>
            <path d="M497.235,92.968C497.331,92.92 497.511,92.852 497.775,92.764C498.039,92.676 498.331,92.58 498.651,92.476C498.971,92.372 499.275,92.28 499.563,92.2C499.851,92.12 500.051,92.08 500.163,92.08C500.307,92.064 500.755,92.256 501.507,92.656C502.243,93.088 502.815,93.616 503.223,94.24C503.631,94.864 503.939,95.712 504.147,96.784C504.371,97.952 504.459,98.8 504.411,99.328C504.363,99.856 504.115,100.696 503.667,101.848C503.299,102.792 503.019,103.428 502.827,103.756C502.635,104.084 502.299,104.488 501.819,104.968C501.227,105.56 500.583,106.068 499.887,106.492C499.191,106.916 498.603,107.168 498.123,107.248C497.451,107.36 496.619,107.08 495.627,106.408C494.635,105.736 493.923,104.976 493.491,104.128C492.979,103.104 492.859,101.672 493.131,99.832C493.323,98.52 493.611,97.528 493.995,96.856C494.139,96.632 494.355,96.216 494.643,95.608C494.851,95.16 495.243,94.64 495.819,94.048C496.395,93.456 496.867,93.096 497.235,92.968ZM501.075,94.648C500.899,94.552 500.515,94.472 499.923,94.408C499.267,94.328 498.703,94.392 498.231,94.6C497.759,94.808 497.331,95.184 496.947,95.728C496.499,96.32 496.195,96.788 496.035,97.132C495.875,97.476 495.675,98.072 495.435,98.92C495.211,99.752 495.083,100.548 495.051,101.308C495.019,102.068 495.091,102.664 495.267,103.096C495.459,103.544 495.767,103.956 496.191,104.332C496.615,104.708 497.019,104.936 497.403,105.016C498.203,105.144 498.999,104.932 499.791,104.38C500.583,103.828 501.227,103.048 501.723,102.04C502.219,101.032 502.467,99.968 502.467,98.848C502.467,97.952 502.323,97.076 502.035,96.22C501.747,95.364 501.427,94.84 501.075,94.648Z" style="fill:rgb(30,28,26);fill-rule:nonzero;"/>
            <path d="M507.387,92.584C507.691,92.344 507.999,92.232 508.311,92.248C508.623,92.264 508.899,92.4 509.139,92.656C509.411,92.944 509.867,93.12 510.507,93.184C511.771,93.344 512.747,93.64 513.435,94.072C514.939,95.048 516.003,96.472 516.627,98.344C517.251,100.216 517.283,102.064 516.723,103.888C516.451,104.736 516.187,105.364 515.931,105.772C515.675,106.18 515.275,106.576 514.731,106.96C514.107,107.44 513.439,107.776 512.727,107.968C512.015,108.16 511.139,108.256 510.099,108.256C509.171,108.256 508.551,108.208 508.239,108.112C507.927,108.016 507.075,107.6 505.683,106.864C505.379,106.704 505.219,106.488 505.203,106.216C505.187,105.944 505.303,105.716 505.551,105.532C505.799,105.348 506.115,105.272 506.499,105.304C506.691,105.352 506.843,105.352 506.955,105.304C507.067,105.256 507.143,105.196 507.183,105.124C507.223,105.052 507.283,104.896 507.363,104.656C507.475,104.272 507.531,103.304 507.531,101.752C507.531,100.2 507.475,98.608 507.363,96.976C507.283,96.064 507.179,95.504 507.051,95.296C506.923,95.088 506.603,94.984 506.091,94.984C505.835,94.984 505.567,94.86 505.287,94.612C505.007,94.364 504.867,94.128 504.867,93.904C504.867,93.664 505.019,93.44 505.323,93.232C505.627,93.024 505.947,92.92 506.283,92.92C506.731,92.92 507.099,92.808 507.387,92.584ZM511.923,95.584C511.603,95.424 511.111,95.3 510.447,95.212C509.783,95.124 509.395,95.136 509.283,95.248C509.203,95.328 509.195,96.752 509.259,99.52C509.323,102.288 509.411,103.888 509.523,104.32C509.603,104.784 509.539,105.232 509.331,105.664C509.187,105.936 509.115,106.12 509.115,106.216C509.115,106.312 509.171,106.376 509.283,106.408C509.379,106.456 509.603,106.476 509.955,106.468C510.307,106.46 510.683,106.436 511.083,106.396C511.483,106.356 511.867,106.3 512.235,106.228C512.603,106.156 512.859,106.088 513.003,106.024C513.739,105.672 514.319,105.02 514.743,104.068C515.167,103.116 515.323,102.128 515.211,101.104C515.115,100.128 514.939,99.296 514.683,98.608C514.427,97.92 514.075,97.336 513.627,96.856C513.179,96.376 512.611,95.952 511.923,95.584Z" style="fill:rgb(30,28,26);fill-rule:nonzero;"/>
        </g>
    </g>
</svg>
