<?xml version="1.0" encoding="UTF-8" standalone="no"?>
<!DOCTYPE svg PUBLIC "-//W3C//DTD SVG 1.1//EN" "http://www.w3.org/Graphics/SVG/1.1/DTD/svg11.dtd">
<svg width="100%" height="100%" viewBox="0 0 365 423" version="1.1" xmlns="http://www.w3.org/2000/svg" xmlns:xlink="http://www.w3.org/1999/xlink" xml:space="preserve" xmlns:serif="http://www.serif.com/" style="fill-rule:evenodd;clip-rule:evenodd;stroke-miterlimit:10;">
    <g transform="matrix(0.24,0,0,0.24,0,0)">
        <g id="Layer-2" serif:id="Layer 2" transform="matrix(4.16667,0,0,4.16667,0,0)">
            <g transform="matrix(1,0,0,1,285.301,171.547)">
                <path d="M0,-99.427C-0.82,-101.247 -2.771,-101.278 -4.035,-100.377C-4.053,-100.425 -4.069,-100.475 -4.088,-100.522C-4.632,-101.943 -6.771,-103.182 -8.297,-102.704C-8.391,-102.675 -8.483,-102.645 -8.577,-102.616C-11.628,-107.425 -17.942,-106.868 -21.915,-103.66C-24.248,-103.31 -26.559,-102.813 -28.853,-102.236C-29.333,-102.343 -29.847,-102.401 -30.417,-102.357C-33.15,-102.145 -35.891,-101.702 -38.61,-101.349C-40.896,-101.052 -43.162,-100.789 -44.998,-99.28C-45.296,-99.035 -45.511,-98.609 -45.559,-98.181C-46.217,-98.81 -47.108,-99.269 -48.229,-99.434C-54.702,-100.387 -62.373,-97.61 -68.878,-95.441C-69.585,-95.686 -70.393,-95.743 -71.296,-95.5C-77.848,-93.741 -84.446,-92.064 -90.906,-89.986C-92.859,-89.358 -94.684,-88.59 -96.455,-87.76C-96.708,-87.757 -96.965,-87.74 -97.229,-87.697C-108.214,-85.864 -124.221,-83.082 -133.66,-74.972C-134.105,-74.767 -134.547,-74.554 -134.985,-74.336C-135.363,-74.366 -135.759,-74.361 -136.198,-74.261C-142.35,-72.86 -148.011,-69.492 -153.306,-66.159C-155.184,-64.977 -157.497,-63.795 -159.474,-62.337C-162.373,-61.035 -165.235,-59.713 -168.043,-58.4C-177.168,-54.135 -185.728,-48.821 -193.962,-43.031C-196.481,-41.26 -198.979,-39.443 -201.427,-37.564C-202.211,-37.623 -203.05,-37.436 -203.859,-36.869C-205.103,-35.999 -206.189,-35.074 -207.182,-34.089C-208.051,-34.297 -208.997,-34.257 -209.864,-33.917C-209.891,-33.973 -209.917,-34.03 -209.944,-34.086C-213.153,-32.845 -215.378,-30.314 -217.854,-27.997C-218.503,-27.389 -219.156,-26.787 -219.805,-26.184C-220.865,-25.636 -221.645,-24.84 -222.168,-23.908C-223.172,-22.909 -224.15,-21.884 -225.051,-20.775C-225.095,-20.72 -225.13,-20.665 -225.171,-20.61C-226,-20.198 -226.83,-19.787 -227.667,-19.391C-230.065,-18.26 -230.543,-15.856 -229.854,-13.911C-230.57,-12.87 -231.22,-11.798 -231.773,-10.684C-232.833,-8.55 -230.396,-6.354 -228.335,-6.839C-227.347,-2.408 -224.831,1.309 -220.21,3.649C-219.978,3.766 -219.739,3.855 -219.504,3.96C-219.354,6.326 -216.044,7.998 -214.043,6.607C-213.54,6.743 -212.981,6.75 -212.389,6.558L-210.97,6.098C-210.436,6.636 -209.676,6.963 -208.713,6.833C-171.52,1.805 -136.203,-13.252 -106.83,-36.398C-100.195,-39.508 -94.401,-43.701 -89.309,-48.946C-87.863,-45.624 -84.89,-42.938 -81.119,-42.525C-65.298,-40.79 -48.206,-37.172 -32.351,-39.981C-22.218,-41.776 -10.71,-46.252 -3.45,-54.198C-0.086,-55.464 3.701,-56.703 6.344,-58.763C9.286,-61.057 8.706,-64.577 8.421,-67.898C7.479,-78.836 4.503,-89.436 0,-99.427" style="fill:rgb(60,59,58);fill-rule:nonzero;"/>
            </g>
            <g transform="matrix(1,0,0,1,81.3088,184.071)">
                <path d="M0,-140.312C1.678,-142.435 3.322,-144.585 4.937,-146.761C10.372,-150.201 15.889,-153.51 21.522,-156.64C22.919,-157.416 23.627,-158.639 23.824,-159.915C26.763,-160.684 29.818,-161.284 33.008,-161.682C33.118,-161.695 33.209,-161.731 33.313,-161.751C21.531,-155.965 10.623,-148.58 0,-140.312M-23.646,-108.749C-23.733,-109.063 -23.88,-109.344 -24.057,-109.605C-23.583,-109.781 -23.158,-110.145 -22.875,-110.775C-21.244,-114.399 -19.446,-117.925 -17.508,-121.365C-16.932,-121.354 -16.338,-121.567 -15.813,-122.115C-14.709,-123.269 -13.643,-124.453 -12.562,-125.626C-12.58,-125.067 -12.552,-124.512 -12.472,-123.966C-16.645,-119.179 -20.336,-114.082 -23.646,-108.749M-31,-83.275C-30.69,-84.724 -30.369,-86.168 -30.018,-87.604C-29.882,-87.412 -29.753,-87.215 -29.603,-87.032C-30.098,-85.804 -30.562,-84.55 -31,-83.275M-33.151,-70.863C-32.731,-73.849 -32.267,-76.833 -31.701,-79.8C-31.664,-78.355 -31.224,-76.924 -30.496,-75.658C-31.56,-74.131 -32.468,-72.538 -33.151,-70.863M178.927,-156.52C146.04,-168.436 111.299,-177.593 75.992,-174.088C62.998,-172.799 51.242,-169.571 40.287,-164.935C41.982,-167.845 41.684,-172.134 37.695,-173.195C32.924,-174.464 27.45,-174.823 22.501,-173.58C22.108,-173.918 21.573,-174.121 20.877,-174.07C15.11,-173.646 9.339,-173.428 3.556,-173.416C1.941,-173.413 1.136,-172.151 1.142,-170.896C0.176,-170.662 -0.788,-170.409 -1.746,-170.116C-7.894,-168.235 -15.934,-165.083 -19.556,-159.277C-21.721,-157.55 -23.695,-155.267 -25.419,-152.993C-26.008,-152.257 -26.56,-151.499 -27.077,-150.72C-27.909,-149.538 -28.666,-148.413 -29.333,-147.437C-36.942,-136.329 -41.63,-123.273 -43.259,-109.9C-43.774,-108.394 -44.292,-106.888 -44.8,-105.379C-45.375,-103.67 -44.898,-101.97 -43.88,-100.812C-43.907,-99.296 -43.909,-97.781 -43.857,-96.269C-43.822,-95.256 -43.445,-94.351 -42.878,-93.607C-45.943,-83.366 -48.161,-72.942 -49.665,-62.902C-50.022,-60.52 -48.61,-58.949 -46.834,-58.385C-46.721,-55.154 -46.479,-51.921 -46.076,-48.694C-44.544,-36.419 -39.809,-25.015 -40.982,-12.459C-42.271,1.323 -48.046,14.207 -53.601,26.716C-53.815,27.2 -53.917,27.664 -53.96,28.111C-54.52,28.478 -54.868,28.889 -55.063,29.315C-56.138,30.312 -56.759,31.802 -56.434,33.277C-55.919,35.608 -53.773,37.281 -51.342,36.857C-49.94,36.613 -48.711,35.611 -48.095,34.334C-41.809,35.222 -35.152,34.519 -29.112,33.086C-21.921,31.381 -12.373,29.025 -6.37,24.317C-6.14,24.165 -5.927,23.986 -5.727,23.79C-5.633,23.71 -5.531,23.635 -5.439,23.554C-4.397,22.633 -3.796,21.504 -3.537,20.33C-2.712,19.552 -1.932,18.737 -1.17,17.83C0.87,15.4 -0.328,11.751 -2.538,9.983C-5.653,7.493 -8.325,4.715 -10.812,1.792C-10.359,-1.539 -12.954,-4.462 -14.883,-6.999C-17,-9.785 -19.255,-12.869 -21.827,-15.236C-22.478,-15.835 -23.47,-16.02 -24.318,-15.826C-24.747,-16.401 -25.191,-16.982 -25.646,-17.575C-27.599,-27.006 -29.265,-36.499 -30.743,-46.014C-30.986,-47.577 -32.056,-48.351 -33.237,-48.486C-33.34,-49.79 -33.405,-51.096 -33.413,-52.406C-33.42,-53.593 -33.99,-54.617 -34.808,-55.338C-34.474,-59.88 -34.007,-64.472 -33.402,-69.067C-33.115,-67.442 -31.491,-66.166 -29.813,-66.402C-30.203,-65.823 -30.593,-65.244 -30.978,-64.665C-32.298,-62.675 -29.789,-60.357 -27.907,-61.855C-21.368,-67.056 -14.612,-72.232 -8.498,-77.928C-7.708,-78.663 -6.857,-79.405 -5.98,-80.159C-5.645,-80.177 -5.298,-80.27 -4.952,-80.461C2.279,-84.44 9.178,-88.927 15.761,-93.899C23.794,-96.68 32.459,-98.509 39.463,-102.682C40.393,-103.236 41.062,-103.871 41.548,-104.547C55.24,-108.933 68.276,-114.947 81.816,-119.858C98.18,-125.793 114.796,-129.488 132.186,-130.562C135.131,-130.745 136.455,-132.822 136.462,-135.082C148.47,-136.307 160.597,-136.548 172.791,-135.419C185.538,-134.239 192.023,-151.774 178.927,-156.52" style="fill:rgb(60,59,58);fill-rule:nonzero;"/>
            </g>
            <g transform="matrix(1,0,0,1,279.362,142.661)">
                <path d="M0,-84.657C-2.545,-86.461 -4.089,-88.788 -5.919,-91.253C-6.639,-92.223 -9.092,-95.509 -10.75,-94.514C-12.086,-93.713 -12.759,-92.604 -12.967,-91.329C-16.508,-92.42 -20.877,-92.081 -24.209,-91.846C-23.98,-91.897 -23.758,-91.96 -23.526,-92.005C-20.543,-92.582 -20.608,-97.136 -23.731,-97.411C-24.896,-97.513 -26.06,-97.615 -27.224,-97.718C-28.712,-97.848 -29.656,-96.941 -29.988,-95.833C-31.346,-95.336 -32.679,-94.772 -33.97,-94.105C-35.063,-93.539 -35.674,-92.39 -35.491,-91.168C-35.431,-90.762 -35.327,-90.377 -35.19,-90.012C-44.253,-90.944 -53.255,-90.47 -62.077,-88.628C-73.303,-88.653 -85.499,-84.947 -95.972,-81.97C-97.533,-81.527 -99.124,-81.07 -100.729,-80.596C-101.118,-80.554 -101.508,-80.511 -101.897,-80.469C-102.813,-80.369 -103.53,-80.041 -104.086,-79.583C-104.995,-79.302 -105.906,-79.015 -106.818,-78.72C-109.847,-78.042 -112.865,-77.157 -115.78,-76.238C-123.271,-75.272 -130.694,-73.879 -138.078,-72.03C-140.621,-71.393 -141.75,-69.176 -141.596,-67.155C-142.658,-66.729 -143.724,-66.312 -144.78,-65.875C-148.33,-64.405 -151.807,-62.872 -155.216,-61.259C-157.057,-60.73 -158.886,-60.181 -160.692,-59.59C-166.764,-57.924 -172.443,-55.446 -177.994,-52.107C-178.834,-51.601 -179.333,-50.898 -179.56,-50.118C-187.721,-47.336 -195.354,-42.779 -202.243,-37.658C-207.287,-33.908 -212.369,-29.877 -215.761,-24.698C-218.908,-23.374 -222.059,-22.056 -225.194,-20.702C-229.081,-19.023 -228.25,-14.083 -224.996,-12.781C-228.732,-7.656 -229.914,-2.527 -225.413,1.538C-224.905,3.991 -224.272,6.327 -223.786,8.267C-222.944,11.621 -218.342,13.191 -216.201,9.964C-214.186,6.928 -212.382,3.765 -210.515,0.638C-208.997,-0.462 -207.479,-1.563 -205.959,-2.662C-205.258,-3.169 -204.552,-3.689 -203.836,-4.202C-203.752,-4.257 -203.663,-4.32 -203.58,-4.373C-202.436,-5.11 -201.292,-5.847 -200.147,-6.584C-198.934,-7.248 -197.668,-7.798 -196.322,-8.142C-194.626,-8.577 -193.589,-9.753 -193.128,-11.103C-185.632,-15.929 -178.137,-20.756 -170.641,-25.582C-170.033,-25.973 -169.61,-26.52 -169.339,-27.138C-168.435,-27.037 -167.47,-27.198 -166.524,-27.753C-158.912,-32.226 -151.105,-36.304 -143.143,-40.043C-139.422,-41.507 -135.714,-43.011 -132.027,-44.576C-131.375,-44.853 -130.86,-45.22 -130.464,-45.644C-129.182,-46.174 -127.894,-46.691 -126.604,-47.203C-121.594,-49.019 -116.604,-50.873 -111.614,-52.676C-95.488,-54.58 -79.698,-59.797 -64.327,-64.811C-55.49,-67.694 -46.713,-70.707 -37.632,-72.746C-33.648,-73.64 -29.624,-74.344 -25.551,-74.654C-22.837,-74.435 -20.151,-74.448 -17.618,-74.809C-15.755,-74.885 -13.909,-75.119 -12.066,-75.83C-11.368,-76.099 -10.849,-76.593 -10.49,-77.19C-10.366,-77.195 -10.243,-77.203 -10.119,-77.207C-9.716,-77.138 -9.313,-77.075 -8.909,-76.991C-7.88,-76.778 -7.024,-76.933 -6.321,-77.297C-6.165,-77.309 -6.012,-77.325 -5.868,-77.359C-1.198,-73.242 5.393,-80.836 0,-84.657" style="fill:rgb(236,102,7);fill-rule:nonzero;"/>
            </g>
            <g transform="matrix(1,0,0,1,142.167,177.63)">
                <path d="M0,18.097C1.253,17.836 2.583,17.658 3.694,17.367C4.404,18.33 5.53,18.836 6.825,18.93C7.885,19.008 9.024,18.723 10.076,18.207C11.201,18.633 12.695,18.237 13.464,17.329C13.956,16.75 14.433,16.141 14.921,15.546C14.769,15.742 14.616,15.924 14.462,16.135C13.701,17.188 13.854,18.421 14.484,19.385C9.853,20.67 4.816,20.38 0.159,18.155C0.105,18.129 0.053,18.119 0,18.097M24.521,12.695C23.922,13.041 23.319,13.335 22.707,13.58C22.459,13.241 22.155,12.943 21.806,12.706C22.732,12.755 23.601,12.783 24.521,12.695M33.197,9.084C33.496,8.365 33.69,7.674 33.796,7.006C34.145,6.63 34.384,6.108 34.432,5.425C34.46,5.028 34.472,4.609 34.471,4.176C34.497,3.315 34.523,2.454 34.55,1.594C34.572,0.878 34.362,0.287 34.023,-0.182C32.985,-5.565 30.079,-11.29 24.868,-11.761C22.765,-11.951 21.565,-10.113 21.984,-8.253C21.782,-7.699 21.734,-7.067 21.942,-6.387C22.578,-4.734 22.826,-3.26 22.725,-1.757C22.636,-0.987 22.484,-0.213 22.269,0.576C21.244,1.432 20.472,2.691 20.284,4.195C20.088,4.369 19.908,4.566 19.748,4.789C19.147,4.541 18.454,4.537 17.759,4.92C17.448,5.092 17.13,5.265 16.809,5.442C16.409,5.418 15.997,5.489 15.596,5.678C14.454,6.217 12.939,7.305 11.826,8.597C11.454,8.898 11.096,9.207 10.768,9.533C10.011,9.319 9.287,9.351 8.636,9.569C8.518,9.556 8.4,9.546 8.282,9.551C4.408,9.688 0.742,9.203 -2.89,8.156C-3.846,7.821 -4.816,7.506 -5.8,7.199C-6.532,6.134 -7.41,5.124 -8.449,4.169C-8.479,3.61 -8.502,3.051 -8.525,2.495C-8.674,-1.009 -14.07,-0.167 -13.923,3.311C-13.843,5.203 -13.695,7.064 -13.371,8.841C-13.601,12.908 -13.211,18.154 -9.619,19.508C-9.176,19.675 -8.769,19.761 -8.378,19.813C-7.783,20.866 -6.487,21.47 -4.97,20.977C-4.886,20.95 -4.815,20.924 -4.738,20.898C-4.886,21.993 -4.452,23.112 -3.112,23.752C0.331,25.397 3.997,26.294 7.658,26.487C7.904,26.68 8.202,26.839 8.565,26.939C19.852,30.048 28.151,21.503 34.468,13.366C35.756,11.707 34.657,9.599 33.197,9.084" style="fill:rgb(29,29,27);fill-rule:nonzero;"/>
            </g>
            <g transform="matrix(1,0,0,1,269.76,157.133)">
                <path d="M0,-0.889C0.077,-0.981 0.155,-1.073 0.232,-1.165C0.436,-1.406 0.571,-1.702 0.656,-2.017C2.147,-2.611 3.294,-4.594 2.152,-6.395C1.076,-8.093 0.379,-9.949 -0.28,-11.777C-0.485,-13.374 -1.113,-14.812 -2.018,-16.121C-3.18,-18.449 -4.817,-20.419 -7.882,-21.516C-10.752,-22.544 -13.072,-18.663 -10.512,-16.784C-10.192,-16.55 -9.872,-16.317 -9.557,-16.082C-9.996,-15.695 -10.317,-15.162 -10.396,-14.475C-10.509,-13.504 -10.851,-11.761 -11.086,-9.842C-12.025,-7.924 -13.828,-6.545 -16.21,-6.048C-17.47,-5.785 -18.338,-4.71 -18.489,-3.568C-19.804,-3.158 -21.101,-2.64 -22.41,-2.009C-23.587,-1.442 -24.036,-0.454 -23.976,0.508C-27.214,0.764 -30.283,0.369 -33.218,-0.728C-34.446,-1.544 -35.86,-2.183 -37.314,-2.729C-37.991,-2.983 -38.657,-2.926 -39.239,-2.677C-39.322,-2.93 -39.398,-3.183 -39.487,-3.437C-39.802,-4.331 -40.556,-4.818 -41.395,-4.96C-41.753,-5.455 -42.231,-5.764 -42.752,-5.91C-42.743,-7.289 -42.713,-8.349 -42.7,-8.78C-42.597,-12.269 -48.018,-12.94 -48.121,-9.429C-48.269,-4.41 -47.991,0.558 -46.952,5.483C-46.332,8.419 -45.776,11.734 -42.526,12.65C-42.438,12.674 -42.355,12.676 -42.27,12.694C-42.041,12.817 -41.801,12.925 -41.545,13.009C-41.026,14.714 -38.876,15.583 -37.451,15.023C-36.402,15.943 -35.02,16.558 -33.467,16.967C-33.717,18.423 -33.079,19.924 -31.186,20.251C-23.05,21.655 -15.176,19.493 -9.063,13.97C-6.356,12.324 -3.917,10.122 -1.909,7.403C-1.861,7.338 -1.839,7.269 -1.799,7.203C-1.516,7.318 -1.212,7.381 -0.895,7.367C0.46,7.306 1.605,6.268 1.605,4.867L1.605,4.2C1.605,2.892 0.455,1.64 -0.895,1.7C-1.151,1.712 -1.396,1.768 -1.631,1.845C-1.954,0.909 -2.592,0.24 -3.503,-0.12C-3.498,-0.126 -3.493,-0.133 -3.488,-0.139C-2.267,0.468 -0.92,0.204 0,-0.889" style="fill:rgb(29,29,27);fill-rule:nonzero;"/>
            </g>
            <g transform="matrix(1,0,0,1,238.936,311.276)">
                <path d="M0,-30.255C-8.059,-33.275 -14.39,-25.012 -16.605,-17.803C-17.089,-18.499 -17.6,-19.188 -18.146,-19.869C-18.686,-20.541 -19.331,-20.861 -19.986,-20.92C-20.815,-21.901 -21.858,-22.251 -22.833,-22.136C-22.783,-22.914 -23.091,-23.719 -23.933,-24.394C-26.527,-26.474 -28.326,-26.954 -31.615,-26.42C-34.212,-25.998 -34.481,-22.645 -33.046,-21.003C-29.349,-16.776 -25.564,-12.63 -21.727,-8.531C-21.165,-6.026 -20.603,-3.521 -20.041,-1.016C-19.693,0.533 -18.366,1.29 -17.008,1.29C-16.842,1.565 -16.636,1.816 -16.376,2.027C-16.071,2.294 -15.723,2.476 -15.348,2.577C-13.938,3.02 -12.194,2.599 -11.481,1.18L-10.831,-0.115C-10.649,-0.478 -10.533,-0.871 -10.477,-1.273C-9.971,-1.501 -9.502,-1.869 -9.122,-2.428C-5.081,-8.371 0.667,-14.655 3.412,-21.29C4.887,-24.857 3.82,-28.823 0,-30.255" style="fill:rgb(236,102,7);fill-rule:nonzero;"/>
            </g>
            <g transform="matrix(1,0,0,1,168.796,187.907)">
                <path d="M0,-8.021C-5.162,-8.021 -5.17,0 0,0C5.162,0 5.17,-8.021 0,-8.021" style="fill:white;fill-rule:nonzero;"/>
            </g>
            <g transform="matrix(1,0,0,1,263.438,157.421)">
                <path d="M0,-10.574C-6.805,-10.574 -6.815,0 0,0C6.804,0 6.815,-10.574 0,-10.574" style="fill:white;fill-rule:nonzero;"/>
            </g>
        </g>
        <g id="Layer-1" serif:id="Layer 1" transform="matrix(4.16667,0,0,4.16667,0,0)">
            <g transform="matrix(0.0110416,-0.999939,0.999939,0.0110416,-257.802,-86.9998)">
                <path d="M-491.715,619.861C-491.715,620.413 -491.813,620.955 -492.009,621.487C-492.205,622.019 -492.487,622.493 -492.855,622.909C-493.223,623.325 -493.675,623.661 -494.211,623.917C-494.747,624.173 -495.351,624.301 -496.023,624.301C-496.695,624.301 -497.299,624.173 -497.835,623.917C-498.371,623.661 -498.823,623.325 -499.191,622.909C-499.559,622.493 -499.841,622.019 -500.037,621.487C-500.233,620.955 -500.331,620.413 -500.331,619.861C-500.331,619.309 -500.233,618.767 -500.037,618.235C-499.841,617.703 -499.559,617.229 -499.191,616.813C-498.823,616.397 -498.371,616.061 -497.835,615.805C-497.299,615.549 -496.695,615.421 -496.023,615.421C-495.351,615.421 -494.747,615.549 -494.211,615.805C-493.675,616.061 -493.223,616.397 -492.855,616.813C-492.487,617.229 -492.205,617.703 -492.009,618.235C-491.813,618.767 -491.715,619.309 -491.715,619.861ZM-492.471,619.861C-492.471,619.389 -492.555,618.927 -492.723,618.475C-492.891,618.023 -493.129,617.623 -493.437,617.275C-493.745,616.927 -494.117,616.647 -494.553,616.435C-494.989,616.223 -495.479,616.117 -496.023,616.117C-496.567,616.117 -497.057,616.223 -497.493,616.435C-497.929,616.647 -498.301,616.927 -498.609,617.275C-498.917,617.623 -499.155,618.023 -499.323,618.475C-499.491,618.927 -499.575,619.389 -499.575,619.861C-499.575,620.333 -499.491,620.795 -499.323,621.247C-499.155,621.699 -498.917,622.099 -498.609,622.447C-498.301,622.795 -497.929,623.075 -497.493,623.287C-497.057,623.499 -496.567,623.605 -496.023,623.605C-495.479,623.605 -494.989,623.499 -494.553,623.287C-494.117,623.075 -493.745,622.795 -493.437,622.447C-493.129,622.099 -492.891,621.699 -492.723,621.247C-492.555,620.795 -492.471,620.333 -492.471,619.861ZM-496.011,622.333C-496.323,622.333 -496.607,622.275 -496.863,622.159C-497.119,622.043 -497.341,621.879 -497.529,621.667C-497.717,621.455 -497.861,621.201 -497.961,620.905C-498.061,620.609 -498.111,620.277 -498.111,619.909C-498.111,619.477 -498.053,619.099 -497.937,618.775C-497.821,618.451 -497.663,618.181 -497.463,617.965C-497.263,617.749 -497.029,617.587 -496.761,617.479C-496.493,617.371 -496.211,617.317 -495.915,617.317C-495.651,617.317 -495.397,617.349 -495.153,617.413C-494.909,617.477 -494.679,617.589 -494.463,617.749C-494.423,617.781 -494.403,617.813 -494.403,617.845C-494.403,617.877 -494.411,617.913 -494.427,617.953L-494.571,618.277C-494.619,618.365 -494.691,618.381 -494.787,618.325C-495.171,618.093 -495.543,617.977 -495.903,617.977C-496.351,617.977 -496.703,618.139 -496.959,618.463C-497.215,618.787 -497.343,619.253 -497.343,619.861C-497.343,620.461 -497.213,620.913 -496.953,621.217C-496.693,621.521 -496.347,621.673 -495.915,621.673C-495.723,621.673 -495.531,621.645 -495.339,621.589C-495.147,621.533 -494.959,621.461 -494.775,621.373C-494.663,621.325 -494.591,621.353 -494.559,621.457L-494.475,621.757C-494.451,621.853 -494.471,621.917 -494.535,621.949C-494.767,622.085 -495.003,622.183 -495.243,622.243C-495.483,622.303 -495.739,622.333 -496.011,622.333Z" style="fill:rgb(29,29,27);fill-rule:nonzero;"/>
                <path d="M-487.023,624.181C-487.159,624.181 -487.227,624.117 -487.227,623.989L-487.227,615.733C-487.227,615.605 -487.159,615.541 -487.023,615.541L-485.139,615.541C-484.123,615.541 -483.391,615.761 -482.943,616.201C-482.551,616.577 -482.355,617.109 -482.355,617.797C-482.355,618.173 -482.447,618.523 -482.631,618.847C-482.815,619.171 -483.059,619.417 -483.363,619.585C-482.891,619.737 -482.527,619.995 -482.271,620.359C-482.015,620.723 -481.887,621.165 -481.887,621.685C-481.887,622.165 -481.965,622.565 -482.121,622.885C-482.277,623.205 -482.489,623.461 -482.757,623.653C-483.025,623.845 -483.337,623.981 -483.693,624.061C-484.049,624.141 -484.427,624.181 -484.827,624.181L-487.023,624.181ZM-484.995,623.401C-484.675,623.401 -484.383,623.375 -484.119,623.323C-483.855,623.271 -483.627,623.181 -483.435,623.053C-483.243,622.925 -483.095,622.751 -482.991,622.531C-482.887,622.311 -482.835,622.033 -482.835,621.697C-482.835,621.225 -482.971,620.853 -483.243,620.581C-483.411,620.413 -483.625,620.291 -483.885,620.215C-484.145,620.139 -484.467,620.101 -484.851,620.101L-486.303,620.101L-486.303,623.401L-484.995,623.401ZM-485.079,619.357C-484.463,619.357 -484.011,619.229 -483.723,618.973C-483.435,618.717 -483.291,618.337 -483.291,617.833C-483.291,617.361 -483.415,617.001 -483.663,616.753C-483.815,616.609 -484.009,616.501 -484.245,616.429C-484.481,616.357 -484.779,616.321 -485.139,616.321L-486.303,616.321L-486.303,619.357L-485.079,619.357Z" style="fill:rgb(29,29,27);fill-rule:nonzero;"/>
                <path d="M-477.987,624.301C-478.483,624.301 -478.911,624.227 -479.271,624.079C-479.631,623.931 -479.931,623.721 -480.171,623.449C-480.411,623.177 -480.589,622.849 -480.705,622.465C-480.821,622.081 -480.879,621.653 -480.879,621.181C-480.879,620.677 -480.811,620.213 -480.675,619.789C-480.539,619.365 -480.347,618.999 -480.099,618.691C-479.851,618.383 -479.551,618.145 -479.199,617.977C-478.847,617.809 -478.451,617.725 -478.011,617.725C-477.587,617.725 -477.217,617.807 -476.901,617.971C-476.585,618.135 -476.321,618.361 -476.109,618.649C-475.897,618.937 -475.739,619.279 -475.635,619.675C-475.531,620.071 -475.479,620.501 -475.479,620.965C-475.479,621.213 -475.547,621.337 -475.683,621.337L-479.955,621.337C-479.939,622.073 -479.751,622.615 -479.391,622.963C-479.031,623.311 -478.499,623.485 -477.795,623.485C-477.563,623.485 -477.315,623.455 -477.051,623.395C-476.787,623.335 -476.511,623.237 -476.223,623.101C-476.119,623.053 -476.043,623.077 -475.995,623.173L-475.839,623.545C-475.799,623.649 -475.831,623.733 -475.935,623.797C-476.503,624.133 -477.187,624.301 -477.987,624.301ZM-477.999,618.541C-478.551,618.541 -478.989,618.719 -479.313,619.075C-479.637,619.431 -479.843,619.929 -479.931,620.569L-476.379,620.569C-476.379,620.329 -476.411,620.089 -476.475,619.849C-476.539,619.609 -476.637,619.393 -476.769,619.201C-476.901,619.009 -477.069,618.851 -477.273,618.727C-477.477,618.603 -477.719,618.541 -477.999,618.541Z" style="fill:rgb(29,29,27);fill-rule:nonzero;"/>
                <path d="M-473.103,619.189C-472.903,618.765 -472.623,618.425 -472.263,618.169C-471.903,617.913 -471.527,617.785 -471.135,617.785C-471.039,617.785 -470.969,617.797 -470.925,617.821C-470.881,617.845 -470.859,617.901 -470.859,617.989L-470.859,618.409C-470.859,618.457 -470.869,618.497 -470.889,618.529C-470.909,618.561 -470.951,618.585 -471.015,618.601C-471.327,618.657 -471.589,618.737 -471.801,618.841C-472.013,618.945 -472.199,619.077 -472.359,619.237C-472.615,619.493 -472.799,619.809 -472.911,620.185C-473.023,620.561 -473.079,621.057 -473.079,621.673L-473.079,624.013C-473.079,624.125 -473.139,624.181 -473.259,624.181L-473.775,624.181C-473.895,624.181 -473.955,624.125 -473.955,624.013L-473.955,620.389C-473.955,619.925 -473.957,619.491 -473.961,619.087C-473.965,618.683 -473.975,618.325 -473.991,618.013C-473.991,617.901 -473.931,617.845 -473.811,617.845L-473.343,617.845C-473.215,617.845 -473.147,617.901 -473.139,618.013C-473.123,618.149 -473.113,618.329 -473.109,618.553C-473.105,618.777 -473.103,618.989 -473.103,619.189Z" style="fill:rgb(29,29,27);fill-rule:nonzero;"/>
                <path d="M-465.531,623.473C-465.739,623.721 -466.021,623.921 -466.377,624.073C-466.733,624.225 -467.103,624.301 -467.487,624.301C-467.807,624.301 -468.115,624.247 -468.411,624.139C-468.707,624.031 -468.959,623.873 -469.167,623.665C-469.391,623.441 -469.549,623.165 -469.641,622.837C-469.733,622.509 -469.779,622.093 -469.779,621.589L-469.779,618.013C-469.779,617.901 -469.719,617.845 -469.599,617.845L-469.083,617.845C-468.963,617.845 -468.903,617.901 -468.903,618.013L-468.903,621.073C-468.903,621.585 -468.883,621.987 -468.843,622.279C-468.803,622.571 -468.703,622.813 -468.543,623.005C-468.303,623.293 -467.891,623.437 -467.307,623.437C-467.067,623.437 -466.811,623.391 -466.539,623.299C-466.267,623.207 -466.051,623.081 -465.891,622.921C-465.835,622.857 -465.775,622.763 -465.711,622.639C-465.647,622.515 -465.603,622.301 -465.579,621.997C-465.563,621.813 -465.551,621.583 -465.543,621.307C-465.535,621.031 -465.531,620.697 -465.531,620.305L-465.531,618.013C-465.531,617.901 -465.471,617.845 -465.351,617.845L-464.835,617.845C-464.715,617.845 -464.655,617.901 -464.655,618.013L-464.655,624.373C-464.655,624.829 -464.711,625.235 -464.823,625.591C-464.935,625.947 -465.119,626.253 -465.375,626.509C-465.599,626.733 -465.879,626.905 -466.215,627.025C-466.551,627.145 -466.967,627.205 -467.463,627.205C-467.727,627.205 -468.001,627.185 -468.285,627.145C-468.569,627.105 -468.783,627.065 -468.927,627.025C-469.007,627.001 -469.055,626.971 -469.071,626.935C-469.087,626.899 -469.087,626.853 -469.071,626.797L-468.999,626.449C-468.983,626.377 -468.959,626.331 -468.927,626.311C-468.895,626.291 -468.835,626.289 -468.747,626.305C-468.531,626.345 -468.323,626.377 -468.123,626.401C-467.923,626.425 -467.695,626.437 -467.439,626.437C-467.095,626.437 -466.805,626.391 -466.569,626.299C-466.333,626.207 -466.143,626.081 -465.999,625.921C-465.831,625.729 -465.711,625.499 -465.639,625.231C-465.567,624.963 -465.531,624.649 -465.531,624.289L-465.531,623.473Z" style="fill:rgb(29,29,27);fill-rule:nonzero;"/>
                <path d="M-461.979,622.813C-461.979,623.077 -461.953,623.259 -461.901,623.359C-461.849,623.459 -461.719,623.509 -461.511,623.509C-461.399,623.509 -461.343,623.561 -461.343,623.665L-461.343,623.905C-461.343,623.969 -461.351,624.015 -461.367,624.043C-461.383,624.071 -461.415,624.093 -461.463,624.109C-461.503,624.125 -461.565,624.141 -461.649,624.157C-461.733,624.173 -461.819,624.181 -461.907,624.181C-462.107,624.181 -462.275,624.143 -462.411,624.067C-462.547,623.991 -462.647,623.889 -462.711,623.761C-462.775,623.649 -462.815,623.503 -462.831,623.323C-462.847,623.143 -462.855,622.897 -462.855,622.585L-462.855,617.989C-462.855,617.453 -462.859,617.015 -462.867,616.675C-462.875,616.335 -462.883,616.061 -462.891,615.853C-462.899,615.645 -462.907,615.491 -462.915,615.391C-462.923,615.291 -462.927,615.213 -462.927,615.157C-462.927,615.045 -462.875,614.989 -462.771,614.989L-462.231,614.989C-462.127,614.989 -462.071,615.033 -462.063,615.121C-462.039,615.305 -462.019,615.651 -462.003,616.159C-461.987,616.667 -461.979,617.329 -461.979,618.145L-461.979,622.813Z" style="fill:rgb(29,29,27);fill-rule:nonzero;"/>
                <path d="M-456.771,624.181C-456.907,624.181 -456.975,624.117 -456.975,623.989L-456.975,615.733C-456.975,615.605 -456.907,615.541 -456.771,615.541L-456.255,615.541C-456.119,615.541 -456.051,615.605 -456.051,615.733L-456.051,619.417L-452.019,619.417L-452.019,615.733C-452.019,615.605 -451.951,615.541 -451.815,615.541L-451.299,615.541C-451.163,615.541 -451.095,615.605 -451.095,615.733L-451.095,623.989C-451.095,624.117 -451.163,624.181 -451.299,624.181L-451.815,624.181C-451.951,624.181 -452.019,624.117 -452.019,623.989L-452.019,620.197L-456.051,620.197L-456.051,623.989C-456.051,624.117 -456.119,624.181 -456.255,624.181L-456.771,624.181Z" style="fill:rgb(29,29,27);fill-rule:nonzero;"/>
                <path d="M-446.835,624.301C-447.307,624.301 -447.713,624.221 -448.053,624.061C-448.393,623.901 -448.673,623.679 -448.893,623.395C-449.113,623.111 -449.275,622.779 -449.379,622.399C-449.483,622.019 -449.535,621.609 -449.535,621.169C-449.535,620.593 -449.463,620.089 -449.319,619.657C-449.175,619.225 -448.971,618.867 -448.707,618.583C-448.443,618.299 -448.131,618.085 -447.771,617.941C-447.411,617.797 -447.015,617.725 -446.583,617.725C-446.111,617.725 -445.705,617.805 -445.365,617.965C-445.025,618.125 -444.745,618.347 -444.525,618.631C-444.305,618.915 -444.143,619.247 -444.039,619.627C-443.935,620.007 -443.883,620.417 -443.883,620.857C-443.883,621.433 -443.955,621.937 -444.099,622.369C-444.243,622.801 -444.447,623.159 -444.711,623.443C-444.975,623.727 -445.287,623.941 -445.647,624.085C-446.007,624.229 -446.403,624.301 -446.835,624.301ZM-446.787,623.509C-446.547,623.509 -446.307,623.465 -446.067,623.377C-445.827,623.289 -445.615,623.145 -445.431,622.945C-445.247,622.745 -445.097,622.481 -444.981,622.153C-444.865,621.825 -444.807,621.425 -444.807,620.953C-444.807,620.689 -444.833,620.413 -444.885,620.125C-444.937,619.837 -445.031,619.575 -445.167,619.339C-445.303,619.103 -445.489,618.907 -445.725,618.751C-445.961,618.595 -446.263,618.517 -446.631,618.517C-446.871,618.517 -447.111,618.561 -447.351,618.649C-447.591,618.737 -447.803,618.881 -447.987,619.081C-448.171,619.281 -448.321,619.545 -448.437,619.873C-448.553,620.201 -448.611,620.601 -448.611,621.073C-448.611,621.337 -448.585,621.613 -448.533,621.901C-448.481,622.189 -448.387,622.451 -448.251,622.687C-448.115,622.923 -447.929,623.119 -447.693,623.275C-447.457,623.431 -447.155,623.509 -446.787,623.509Z" style="fill:rgb(29,29,27);fill-rule:nonzero;"/>
                <path d="M-439.275,620.437C-439.275,619.805 -439.227,619.225 -439.131,618.697C-439.035,618.169 -438.911,617.687 -438.759,617.251C-438.607,616.815 -438.437,616.423 -438.249,616.075C-438.061,615.727 -437.879,615.421 -437.703,615.157C-437.623,615.045 -437.539,615.013 -437.451,615.061L-437.127,615.217C-437.007,615.281 -436.979,615.365 -437.043,615.469C-437.291,615.877 -437.501,616.279 -437.673,616.675C-437.845,617.071 -437.985,617.471 -438.093,617.875C-438.201,618.279 -438.279,618.693 -438.327,619.117C-438.375,619.541 -438.399,619.981 -438.399,620.437C-438.399,620.893 -438.375,621.333 -438.327,621.757C-438.279,622.181 -438.201,622.595 -438.093,622.999C-437.985,623.403 -437.845,623.803 -437.673,624.199C-437.501,624.595 -437.291,624.997 -437.043,625.405C-436.979,625.509 -437.007,625.593 -437.127,625.657L-437.451,625.813C-437.539,625.861 -437.623,625.829 -437.703,625.717C-437.879,625.453 -438.061,625.147 -438.249,624.799C-438.437,624.451 -438.607,624.059 -438.759,623.623C-438.911,623.187 -439.035,622.705 -439.131,622.177C-439.227,621.649 -439.275,621.069 -439.275,620.437Z" style="fill:rgb(29,29,27);fill-rule:nonzero;"/>
                <path d="M-435.255,624.181C-435.391,624.181 -435.459,624.117 -435.459,623.989L-435.459,615.733C-435.459,615.605 -435.391,615.541 -435.255,615.541L-434.739,615.541C-434.603,615.541 -434.535,615.605 -434.535,615.733L-434.535,623.989C-434.535,624.117 -434.603,624.181 -434.739,624.181L-435.255,624.181Z" style="fill:rgb(29,29,27);fill-rule:nonzero;"/>
                <path d="M-431.643,623.989C-431.643,624.117 -431.711,624.181 -431.847,624.181L-432.315,624.181C-432.451,624.181 -432.519,624.117 -432.519,623.989L-432.519,615.733C-432.519,615.605 -432.455,615.541 -432.327,615.541L-431.811,615.541C-431.699,615.541 -431.617,615.555 -431.565,615.583C-431.513,615.611 -431.455,615.681 -431.391,615.793L-428.391,620.629C-428.119,621.077 -427.881,621.471 -427.677,621.811C-427.473,622.151 -427.271,622.497 -427.071,622.849C-427.087,622.529 -427.097,622.165 -427.101,621.757C-427.105,621.349 -427.107,620.933 -427.107,620.509L-427.107,615.733C-427.107,615.605 -427.039,615.541 -426.903,615.541L-426.435,615.541C-426.299,615.541 -426.231,615.605 -426.231,615.733L-426.231,623.989C-426.231,624.117 -426.299,624.181 -426.435,624.181L-426.939,624.181C-427.051,624.181 -427.133,624.167 -427.185,624.139C-427.237,624.111 -427.295,624.041 -427.359,623.929L-430.359,619.093C-430.639,618.637 -430.883,618.239 -431.091,617.899C-431.299,617.559 -431.495,617.217 -431.679,616.873C-431.663,617.193 -431.653,617.557 -431.649,617.965C-431.645,618.373 -431.643,618.789 -431.643,619.213L-431.643,623.989Z" style="fill:rgb(29,29,27);fill-rule:nonzero;"/>
                <path d="M-421.143,620.341C-421.279,620.341 -421.347,620.277 -421.347,620.149L-421.347,619.753C-421.347,619.633 -421.279,619.573 -421.143,619.573L-418.455,619.573C-418.319,619.573 -418.251,619.633 -418.251,619.753L-418.251,623.485C-418.251,623.573 -418.265,623.643 -418.293,623.695C-418.321,623.747 -418.387,623.793 -418.491,623.833C-418.827,623.977 -419.201,624.091 -419.613,624.175C-420.025,624.259 -420.435,624.301 -420.843,624.301C-421.443,624.301 -421.967,624.217 -422.415,624.049C-422.863,623.881 -423.239,623.641 -423.543,623.329C-423.911,622.953 -424.187,622.483 -424.371,621.919C-424.555,621.355 -424.647,620.709 -424.647,619.981C-424.647,619.213 -424.549,618.531 -424.353,617.935C-424.157,617.339 -423.871,616.841 -423.495,616.441C-423.183,616.105 -422.809,615.851 -422.373,615.679C-421.937,615.507 -421.443,615.421 -420.891,615.421C-420.387,615.421 -419.937,615.479 -419.541,615.595C-419.145,615.711 -418.811,615.861 -418.539,616.045C-418.427,616.125 -418.403,616.229 -418.467,616.357L-418.587,616.609C-418.627,616.681 -418.665,616.729 -418.701,616.753C-418.737,616.777 -418.791,616.769 -418.863,616.729C-419.471,616.377 -420.139,616.201 -420.867,616.201C-421.715,616.201 -422.367,616.461 -422.823,616.981C-423.119,617.309 -423.337,617.719 -423.477,618.211C-423.617,618.703 -423.687,619.261 -423.687,619.885C-423.687,620.517 -423.615,621.077 -423.471,621.565C-423.327,622.053 -423.103,622.453 -422.799,622.765C-422.567,622.997 -422.281,623.177 -421.941,623.305C-421.601,623.433 -421.191,623.497 -420.711,623.497C-420.455,623.497 -420.179,623.469 -419.883,623.413C-419.587,623.357 -419.339,623.289 -419.139,623.209L-419.139,620.341L-421.143,620.341Z" style="fill:rgb(29,29,27);fill-rule:nonzero;"/>
                <path d="M-414.675,620.437C-414.675,621.069 -414.723,621.649 -414.819,622.177C-414.915,622.705 -415.039,623.187 -415.191,623.623C-415.343,624.059 -415.513,624.451 -415.701,624.799C-415.889,625.147 -416.071,625.453 -416.247,625.717C-416.327,625.829 -416.411,625.861 -416.499,625.813L-416.823,625.657C-416.943,625.593 -416.971,625.509 -416.907,625.405C-416.659,624.997 -416.449,624.595 -416.277,624.199C-416.105,623.803 -415.965,623.403 -415.857,622.999C-415.749,622.595 -415.671,622.181 -415.623,621.757C-415.575,621.333 -415.551,620.893 -415.551,620.437C-415.551,619.981 -415.575,619.541 -415.623,619.117C-415.671,618.693 -415.749,618.279 -415.857,617.875C-415.965,617.471 -416.105,617.071 -416.277,616.675C-416.449,616.279 -416.659,615.877 -416.907,615.469C-416.971,615.365 -416.943,615.281 -416.823,615.217L-416.499,615.061C-416.411,615.013 -416.327,615.045 -416.247,615.157C-416.071,615.421 -415.889,615.727 -415.701,616.075C-415.513,616.423 -415.343,616.815 -415.191,617.251C-415.039,617.687 -414.915,618.169 -414.819,618.697C-414.723,619.225 -414.675,619.805 -414.675,620.437Z" style="fill:rgb(29,29,27);fill-rule:nonzero;"/>
            </g>
            <g transform="matrix(1,0,0,1,293.825,149.071)">
                <path d="M0,-57.405C-9.352,-96.23 -38.021,-121.748 -72.548,-133.505L-72.527,-133.479L-72.548,-133.505C-116.709,-148.543 -170.453,-141.067 -205.622,-110.102C-236.064,-83.3 -251.612,-39.263 -240.817,-0.166C-231.619,33.147 -204.683,59.961 -172.906,73.55C-131.78,91.138 -81.425,87.074 -45.237,60.783C-9.051,34.492 10.475,-13.919 0,-57.405Z" style="fill:none;stroke:rgb(29,29,27);stroke-width:8px;"/>
            </g>
            <g transform="matrix(0.934805,-0.355163,-0.355163,-0.934805,82.1595,190.241)">
                <path d="M-7.878,42.914C69.845,68.979 156.06,68.978 233.784,42.914" style="fill:none;stroke:rgb(29,29,27);stroke-width:6px;"/>
            </g>
            <g transform="matrix(0.944571,-0.328307,-0.328307,-0.944571,70.4302,157.384)">
                <path d="M-6.512,37.559C66.587,64.104 149.009,64.103 222.109,37.559" style="fill:none;stroke:rgb(29,29,27);stroke-width:7px;"/>
            </g>
            <g transform="matrix(0.846046,-0.53311,-0.53311,-0.846046,113.506,218.48)">
                <path d="M-15.582,53.956C48.153,26.6 123.102,26.599 186.837,53.956" style="fill:none;stroke:rgb(29,29,27);stroke-width:8px;"/>
            </g>
            <g transform="matrix(0.991352,-0.131226,-0.131226,-0.991352,200.792,132.636)">
                <path d="M0.062,6.185C30.294,-5.062 64.567,-5.062 94.799,6.185" style="fill:none;stroke:rgb(29,29,27);stroke-width:8px;"/>
            </g>
            <g transform="matrix(1,0,0,1,132.779,215.3)">
                <path d="M0,-202.528C-19.654,-207.669 -41.25,-211.633 -59.687,-203.101C-85.5,-191.157 -95.304,-159.613 -98.066,-131.305C-99.93,-112.202 -99.882,-92.912 -97.925,-73.818C-96.187,-56.858 -92.97,-39.503 -97.158,-22.976C-101.347,-6.449 -115.788,9.105 -132.779,7.697C-102.937,8.008 -76.48,4.265 -49.905,-9.315" style="fill:none;stroke:rgb(29,29,27);stroke-width:8px;"/>
            </g>
            <g transform="matrix(1,0,0,1,183.511,230.029)">
                <path d="M0,5.833C7.709,15.131 21.872,17.33 33.172,13.066C44.471,8.803 53.068,-0.823 58.72,-11.497" style="fill:none;stroke:rgb(29,29,27);stroke-width:6px;"/>
            </g>
            <g transform="matrix(1,0,0,1,128.013,168.726)">
                <path d="M0,21.571C0.219,23.152 0.545,24.741 1.268,26.165C2.226,28.051 3.825,29.532 5.5,30.824C12.901,36.531 22.814,39.271 31.882,37.007C40.949,34.742 48.729,27.058 50.026,17.802C54.748,-15.876 -5.453,-17.7 0,21.571Z" style="fill:none;stroke:rgb(29,29,27);stroke-width:5px;"/>
            </g>
            <g transform="matrix(1,0,0,1,220.484,138.853)">
                <path d="M0,22.276C0.228,23.909 0.563,25.551 1.31,27.02C2.3,28.968 3.95,30.498 5.681,31.832C13.323,37.726 23.561,40.555 32.925,38.217C42.289,35.878 50.322,27.943 51.662,18.385C56.539,-16.395 -5.631,-18.279 0,22.276Z" style="fill:none;stroke:rgb(29,29,27);stroke-width:5px;"/>
            </g>
            <g transform="matrix(1,0,0,1,133.173,178.631)">
                <path d="M0,-7.223C-1.516,-4.564 -0.769,-1.052 1.119,1.358C3.006,3.768 5.822,5.26 8.658,6.411C11.012,7.366 13.476,8.142 16.013,8.259C21.647,8.518 27.287,5.191 29.786,0.135C32.285,-4.921 31.503,-11.422 27.875,-15.741" style="fill:none;stroke:rgb(29,29,27);stroke-width:5px;"/>
            </g>
            <g transform="matrix(1,0,0,1,227.336,152.571)">
                <path d="M0,-12.749C-2.566,-6.151 1.399,2.203 8.134,4.386C13.52,6.133 19.522,4.171 24.106,0.849C28.601,-2.409 32.311,-7.515 31.898,-13.05C31.727,-15.358 30.698,-17.756 28.676,-18.882" style="fill:none;stroke:rgb(29,29,27);stroke-width:3px;"/>
            </g>
            <g transform="matrix(1,0,0,1,137.448,186.975)">
                <path d="M0,13.365C2.218,10.345 6.234,8.762 9.917,9.456C11.699,9.792 13.467,10.615 15.25,10.285C18.455,9.692 19.971,5.804 22.956,4.495C25.31,3.463 28.017,4.247 30.588,4.227C33.158,4.207 36.253,2.549 35.921,0" style="fill:none;stroke:rgb(29,29,27);stroke-width:3px;"/>
            </g>
            <g transform="matrix(1,0,0,1,233.423,157.645)">
                <path d="M0,14.348C-0.249,12.554 1.69,11.124 3.499,11.014C5.307,10.903 7.046,11.639 8.83,11.952C10.614,12.265 12.755,11.994 13.727,10.465C14.135,9.824 14.273,9.05 14.585,8.356C15.506,6.304 17.851,5.209 20.096,5.064C22.34,4.92 24.553,5.54 26.748,6.027C27.424,6.176 28.153,6.308 28.787,6.033C29.631,5.666 30.022,4.721 30.483,3.925C31.812,1.631 34.366,0.097 37.016,0" style="fill:none;stroke:rgb(29,29,27);stroke-width:3px;"/>
            </g>
            <g transform="matrix(1,0,0,1,231.899,389.389)">
                <path d="M0,-168.394C10.011,-160.806 16.094,-149.665 21.056,-138.556C40.483,-95.065 46.966,-46.613 39.592,0" style="fill:none;stroke:rgb(29,29,27);stroke-width:6px;"/>
            </g>
            <g transform="matrix(1,0,0,1,183.25,392.178)">
                <path d="M0,-112.932C0.199,-77.753 -5.925,-42.547 -17.968,-9.636C8.627,-3.717 37.493,-1.218 64.684,-0.282C72.842,0 81.644,-0.144 88.24,-5.106" style="fill:none;stroke:rgb(29,29,27);stroke-width:6px;"/>
            </g>
            <g transform="matrix(1,0,0,1,165.442,344.394)">
                <path d="M0,-104.266C-8.277,-76.324 -3.181,-44.071 -19.091,-19.654C-12.153,-12.32 -4.035,-6.103 4.854,-1.317C6.664,-0.342 9.736,0 10.013,-2.037" style="fill:none;stroke:rgb(29,29,27);stroke-width:6px;"/>
            </g>
            <g transform="matrix(1,0,0,1,154.644,368.998)">
                <path d="M0,-33.871C-5.323,-28.802 -7.433,-20.617 -5.223,-13.605C-3.012,-6.595 3.411,-1.1 10.679,0" style="fill:none;stroke:rgb(29,29,27);stroke-width:5px;"/>
            </g>
            <g transform="matrix(0.322942,0.946419,0.946419,-0.322942,300.977,236.478)">
                <path d="M-32.289,-51.338C-1.362,-33.86 38.719,-33.86 69.646,-51.338" style="fill:none;stroke:rgb(29,29,27);stroke-width:6px;"/>
            </g>
            <g transform="matrix(1,0,0,1,227.897,277.229)">
                <path d="M0,41.354C-7.545,34.223 -14.445,26.41 -20.588,18.04C-22.121,15.951 -23.682,13.533 -23.275,10.974C-22.647,7.019 -17.437,5.278 -13.701,6.716C-9.964,8.155 -7.452,11.614 -5.159,14.897C-4.073,10.553 0.376,6.583 3.602,3.478C5.538,1.614 8.121,0 10.762,0.502C13.8,1.082 15.71,4.361 15.79,7.453C15.869,10.544 14.563,13.483 13.282,16.297C9.346,24.956 3.937,32.697 0,41.354Z" style="fill:none;stroke:rgb(29,29,27);stroke-width:5px;"/>
            </g>
            <g transform="matrix(-0.258248,0.966079,0.966079,0.258248,205.133,412.779)">
                <path d="M-19.65,-15.087C-9.239,-15.086 1.173,-15.088 11.584,-15.087" style="fill:none;stroke:rgb(29,29,27);stroke-width:5px;"/>
            </g>
            <g transform="matrix(1,0,0,1,214.324,420.698)">
                <path d="M0,-27.43C-2.568,-18.287 -5.138,-9.144 -7.706,0C-7.361,-0.765 -7.017,-1.531 -6.672,-2.295" style="fill:none;stroke:rgb(29,29,27);stroke-width:5px;"/>
            </g>
            <g transform="matrix(-0.235168,0.971955,0.971955,0.235168,248.932,414.419)">
                <path d="M-19.84,-15.612C-9.132,-15.613 1.576,-15.613 12.285,-15.612" style="fill:none;stroke:rgb(29,29,27);stroke-width:5px;"/>
            </g>
        </g>
        <g id="Layer-3" serif:id="Layer 3" transform="matrix(4.16667,0,0,4.16667,0,0)">
            <g transform="matrix(1,0,0,1,301.971,45.2652)">
                <path d="M0,-26.079C-0.169,-27.492 -1.269,-28.763 -3.059,-28.376C-10.5,-26.766 -17.701,-24.47 -24.685,-21.48C-24.936,-21.507 -25.204,-21.498 -25.49,-21.448C-26.327,-21.303 -26.887,-20.868 -27.233,-20.314C-27.382,-20.22 -27.513,-20.116 -27.63,-20.004C-28.972,-20.278 -30.399,-19.712 -31.192,-18.524C-35.146,-20.911 -41.036,-20.314 -44.904,-18.231C-45.715,-17.794 -46.402,-17.28 -46.977,-16.71C-47.385,-21.281 -49.478,-25.685 -53.411,-28.877C-54.785,-29.993 -56.615,-30.08 -58.136,-29.52C-58.338,-29.898 -58.539,-30.277 -58.786,-30.633C-60.446,-33.028 -63.069,-34.334 -65.646,-34.324C-65.663,-34.365 -65.683,-34.404 -65.699,-34.444C-66.275,-35.842 -67.331,-36.681 -68.511,-37.059C-69.463,-37.929 -70.47,-38.653 -71.502,-38.966C-72.306,-39.654 -73.614,-39.813 -74.526,-39.383C-75.986,-38.695 -76.302,-37.15 -75.828,-35.748C-75.202,-33.896 -74.576,-32.044 -73.95,-30.192C-73.753,-29.607 -73.293,-29.194 -72.742,-28.94C-74.034,-25.793 -74.073,-22.375 -74.57,-18.972C-75.237,-14.405 -76.266,-9.926 -75.478,-5.347C-77.377,-3.629 -79.235,-1.855 -81.029,0.009C-83.408,2.481 -82.071,6.077 -79.371,7.065C-78.536,8.486 -76.93,9.412 -74.761,8.85C-64.769,6.259 -55.943,1.787 -47.813,-4.486C-47.801,-4.493 -47.789,-4.5 -47.778,-4.507C-47.778,-4.508 -47.779,-4.509 -47.779,-4.509C-47.744,-4.537 -47.708,-4.563 -47.672,-4.59C-47.535,-4.626 -47.394,-4.652 -47.255,-4.684C-46.609,-0.514 -42.682,2.822 -38.174,2.934C-35.689,2.995 -33.253,2.106 -31.298,0.606C-31.252,0.625 -31.207,0.651 -31.16,0.668C-29.671,1.224 -28.238,0.835 -26.994,-0.058C-26.187,-0.636 -25.437,-1.315 -24.766,-2.068C-24.502,-1.038 -23.901,-0.124 -22.873,0.327C-22.186,0.629 -21.504,0.85 -20.823,1.034C-19.178,3.325 -16.971,4.678 -14.215,5.707C-13.97,5.798 -13.713,5.883 -13.451,5.966C-13.382,6.213 -13.326,6.463 -13.251,6.709C-12.271,9.945 -8.228,10.678 -6.098,8.656C-5.333,9.21 -4.701,9.905 -4.29,10.812C-2.965,13.734 1.163,12.139 0.866,9.176C0.371,4.216 -0.488,-0.635 -1.713,-5.431C-0.313,-10.672 1.087,-15.914 2.487,-21.157C3.132,-23.571 1.793,-25.348 0,-26.079" style="fill:rgb(236,102,7);fill-rule:nonzero;"/>
            </g>
            <g transform="matrix(1,0,0,1,269.496,46.8146)">
                <path d="M0,-20.371C-5.375,-25.556 -15.64,-22.86 -18.542,-15.979C-21.444,-9.098 -17.133,-0.425 -10.178,2.295C-2.785,5.185 6.813,1.068 9.087,-6.537C11.361,-14.142 4.748,-23.231 -3.173,-22.71" style="fill:none;stroke:rgb(29,29,27);stroke-width:7px;"/>
            </g>
            <g transform="matrix(1,0,0,1,270.782,50.537)">
                <path d="M0,-27.529C11.418,-30.776 22.835,-34.023 34.253,-37.27C29.322,-22.343 28.345,-6.201 31.408,9.741C23.362,5.304 15.316,0.867 7.271,-3.569" style="fill:none;stroke:rgb(29,29,27);stroke-width:7px;"/>
            </g>
            <g transform="matrix(1,0,0,1,253.175,35.563)">
                <path d="M0,-10.365C-7.696,-18.987 -15.636,-27.39 -23.808,-35.563C-28.776,-15.719 -31.277,4.741 -31.234,25.198C-21.378,20.617 -11.716,15.616 -2.285,10.214" style="fill:none;stroke:rgb(29,29,27);stroke-width:7px;"/>
            </g>
            <g transform="matrix(-0.542112,-0.840306,-0.840306,0.542112,198.542,198.612)">
                <path d="M-9.109,-16.582C-12.214,-13.028 -15.321,-8.458 -13.931,-3.949C-13.151,-1.415 -11.087,0.482 -9.109,2.248C-8.511,2.783 -7.912,3.318 -7.314,3.853C-7.815,-1.532 -8.608,-11.196 -9.109,-16.582Z" style="fill:none;stroke:rgb(29,29,27);stroke-width:3px;"/>
            </g>
        </g>
    </g>
</svg>
