<?xml version="1.0" encoding="UTF-8" standalone="no"?>
<!DOCTYPE svg PUBLIC "-//W3C//DTD SVG 1.1//EN" "http://www.w3.org/Graphics/SVG/1.1/DTD/svg11.dtd">
<svg width="100%" height="100%" viewBox="0 0 430 430" version="1.1" xmlns="http://www.w3.org/2000/svg" xmlns:xlink="http://www.w3.org/1999/xlink" xml:space="preserve" xmlns:serif="http://www.serif.com/" style="fill-rule:evenodd;clip-rule:evenodd;stroke-miterlimit:10;">
    <g transform="matrix(0.24,0,0,0.24,0,0)">
        <g id="Layer-3" serif:id="Layer 3" transform="matrix(4.16667,0,0,4.16667,-858.104,-344.333)">
            <g transform="matrix(0.0110416,-0.999939,0.999939,0.0110416,1.01666,3.26605)">
                <path d="M-484.055,621.937C-484.055,622.489 -484.153,623.031 -484.349,623.563C-484.545,624.095 -484.827,624.569 -485.195,624.985C-485.563,625.401 -486.015,625.737 -486.551,625.993C-487.087,626.249 -487.691,626.377 -488.363,626.377C-489.035,626.377 -489.639,626.249 -490.175,625.993C-490.711,625.737 -491.163,625.401 -491.531,624.985C-491.899,624.569 -492.181,624.095 -492.377,623.563C-492.573,623.031 -492.671,622.489 -492.671,621.937C-492.671,621.385 -492.573,620.843 -492.377,620.311C-492.181,619.779 -491.899,619.305 -491.531,618.889C-491.163,618.473 -490.711,618.137 -490.175,617.881C-489.639,617.625 -489.035,617.497 -488.363,617.497C-487.691,617.497 -487.087,617.625 -486.551,617.881C-486.015,618.137 -485.563,618.473 -485.195,618.889C-484.827,619.305 -484.545,619.779 -484.349,620.311C-484.153,620.843 -484.055,621.385 -484.055,621.937ZM-484.811,621.937C-484.811,621.465 -484.895,621.003 -485.063,620.551C-485.231,620.099 -485.469,619.699 -485.777,619.351C-486.085,619.003 -486.457,618.723 -486.893,618.511C-487.329,618.299 -487.819,618.193 -488.363,618.193C-488.907,618.193 -489.397,618.299 -489.833,618.511C-490.269,618.723 -490.641,619.003 -490.949,619.351C-491.257,619.699 -491.495,620.099 -491.663,620.551C-491.831,621.003 -491.915,621.465 -491.915,621.937C-491.915,622.409 -491.831,622.871 -491.663,623.323C-491.495,623.775 -491.257,624.175 -490.949,624.523C-490.641,624.871 -490.269,625.151 -489.833,625.363C-489.397,625.575 -488.907,625.681 -488.363,625.681C-487.819,625.681 -487.329,625.575 -486.893,625.363C-486.457,625.151 -486.085,624.871 -485.777,624.523C-485.469,624.175 -485.231,623.775 -485.063,623.323C-484.895,622.871 -484.811,622.409 -484.811,621.937ZM-488.351,624.409C-488.663,624.409 -488.947,624.351 -489.203,624.235C-489.459,624.119 -489.681,623.955 -489.869,623.743C-490.057,623.531 -490.201,623.277 -490.301,622.981C-490.401,622.685 -490.451,622.353 -490.451,621.985C-490.451,621.553 -490.393,621.175 -490.277,620.851C-490.161,620.527 -490.003,620.257 -489.803,620.041C-489.603,619.825 -489.369,619.663 -489.101,619.555C-488.833,619.447 -488.551,619.393 -488.255,619.393C-487.991,619.393 -487.737,619.425 -487.493,619.489C-487.249,619.553 -487.019,619.665 -486.803,619.825C-486.763,619.857 -486.743,619.889 -486.743,619.921C-486.743,619.953 -486.751,619.989 -486.767,620.029L-486.911,620.353C-486.959,620.441 -487.031,620.457 -487.127,620.401C-487.511,620.169 -487.883,620.053 -488.243,620.053C-488.691,620.053 -489.043,620.215 -489.299,620.539C-489.555,620.863 -489.683,621.329 -489.683,621.937C-489.683,622.537 -489.553,622.989 -489.293,623.293C-489.033,623.597 -488.687,623.749 -488.255,623.749C-488.063,623.749 -487.871,623.721 -487.679,623.665C-487.487,623.609 -487.299,623.537 -487.115,623.449C-487.003,623.401 -486.931,623.429 -486.899,623.533L-486.815,623.833C-486.791,623.929 -486.811,623.993 -486.875,624.025C-487.107,624.161 -487.343,624.259 -487.583,624.319C-487.823,624.379 -488.079,624.409 -488.351,624.409Z" style="fill:rgb(29,29,27);fill-rule:nonzero;"/>
                <path d="M-479.363,626.257C-479.499,626.257 -479.567,626.193 -479.567,626.065L-479.567,617.809C-479.567,617.681 -479.499,617.617 -479.363,617.617L-477.479,617.617C-476.463,617.617 -475.731,617.837 -475.283,618.277C-474.891,618.653 -474.695,619.185 -474.695,619.873C-474.695,620.249 -474.787,620.599 -474.971,620.923C-475.155,621.247 -475.399,621.493 -475.703,621.661C-475.231,621.813 -474.867,622.071 -474.611,622.435C-474.355,622.799 -474.227,623.241 -474.227,623.761C-474.227,624.241 -474.305,624.641 -474.461,624.961C-474.617,625.281 -474.829,625.537 -475.097,625.729C-475.365,625.921 -475.677,626.057 -476.033,626.137C-476.389,626.217 -476.767,626.257 -477.167,626.257L-479.363,626.257ZM-477.335,625.477C-477.015,625.477 -476.723,625.451 -476.459,625.399C-476.195,625.347 -475.967,625.257 -475.775,625.129C-475.583,625.001 -475.435,624.827 -475.331,624.607C-475.227,624.387 -475.175,624.109 -475.175,623.773C-475.175,623.301 -475.311,622.929 -475.583,622.657C-475.751,622.489 -475.965,622.367 -476.225,622.291C-476.485,622.215 -476.807,622.177 -477.191,622.177L-478.643,622.177L-478.643,625.477L-477.335,625.477ZM-477.419,621.433C-476.803,621.433 -476.351,621.305 -476.063,621.049C-475.775,620.793 -475.631,620.413 -475.631,619.909C-475.631,619.437 -475.755,619.077 -476.003,618.829C-476.155,618.685 -476.349,618.577 -476.585,618.505C-476.821,618.433 -477.119,618.397 -477.479,618.397L-478.643,618.397L-478.643,621.433L-477.419,621.433Z" style="fill:rgb(29,29,27);fill-rule:nonzero;"/>
                <path d="M-470.327,626.377C-470.823,626.377 -471.251,626.303 -471.611,626.155C-471.971,626.007 -472.271,625.797 -472.511,625.525C-472.751,625.253 -472.929,624.925 -473.045,624.541C-473.161,624.157 -473.219,623.729 -473.219,623.257C-473.219,622.753 -473.151,622.289 -473.015,621.865C-472.879,621.441 -472.687,621.075 -472.439,620.767C-472.191,620.459 -471.891,620.221 -471.539,620.053C-471.187,619.885 -470.791,619.801 -470.351,619.801C-469.927,619.801 -469.557,619.883 -469.241,620.047C-468.925,620.211 -468.661,620.437 -468.449,620.725C-468.237,621.013 -468.079,621.355 -467.975,621.751C-467.871,622.147 -467.819,622.577 -467.819,623.041C-467.819,623.289 -467.887,623.413 -468.023,623.413L-472.295,623.413C-472.279,624.149 -472.091,624.691 -471.731,625.039C-471.371,625.387 -470.839,625.561 -470.135,625.561C-469.903,625.561 -469.655,625.531 -469.391,625.471C-469.127,625.411 -468.851,625.313 -468.563,625.177C-468.459,625.129 -468.383,625.153 -468.335,625.249L-468.179,625.621C-468.139,625.725 -468.171,625.809 -468.275,625.873C-468.843,626.209 -469.527,626.377 -470.327,626.377ZM-470.339,620.617C-470.891,620.617 -471.329,620.795 -471.653,621.151C-471.977,621.507 -472.183,622.005 -472.271,622.645L-468.719,622.645C-468.719,622.405 -468.751,622.165 -468.815,621.925C-468.879,621.685 -468.977,621.469 -469.109,621.277C-469.241,621.085 -469.409,620.927 -469.613,620.803C-469.817,620.679 -470.059,620.617 -470.339,620.617Z" style="fill:rgb(29,29,27);fill-rule:nonzero;"/>
                <path d="M-465.443,621.265C-465.243,620.841 -464.963,620.501 -464.603,620.245C-464.243,619.989 -463.867,619.861 -463.475,619.861C-463.379,619.861 -463.309,619.873 -463.265,619.897C-463.221,619.921 -463.199,619.977 -463.199,620.065L-463.199,620.485C-463.199,620.533 -463.209,620.573 -463.229,620.605C-463.249,620.637 -463.291,620.661 -463.355,620.677C-463.667,620.733 -463.929,620.813 -464.141,620.917C-464.353,621.021 -464.539,621.153 -464.699,621.313C-464.955,621.569 -465.139,621.885 -465.251,622.261C-465.363,622.637 -465.419,623.133 -465.419,623.749L-465.419,626.089C-465.419,626.201 -465.479,626.257 -465.599,626.257L-466.115,626.257C-466.235,626.257 -466.295,626.201 -466.295,626.089L-466.295,622.465C-466.295,622.001 -466.297,621.567 -466.301,621.163C-466.305,620.759 -466.315,620.401 -466.331,620.089C-466.331,619.977 -466.271,619.921 -466.151,619.921L-465.683,619.921C-465.555,619.921 -465.487,619.977 -465.479,620.089C-465.463,620.225 -465.453,620.405 -465.449,620.629C-465.445,620.853 -465.443,621.065 -465.443,621.265Z" style="fill:rgb(29,29,27);fill-rule:nonzero;"/>
                <path d="M-457.871,625.549C-458.079,625.797 -458.361,625.997 -458.717,626.149C-459.073,626.301 -459.443,626.377 -459.827,626.377C-460.147,626.377 -460.455,626.323 -460.751,626.215C-461.047,626.107 -461.299,625.949 -461.507,625.741C-461.731,625.517 -461.889,625.241 -461.981,624.913C-462.073,624.585 -462.119,624.169 -462.119,623.665L-462.119,620.089C-462.119,619.977 -462.059,619.921 -461.939,619.921L-461.423,619.921C-461.303,619.921 -461.243,619.977 -461.243,620.089L-461.243,623.149C-461.243,623.661 -461.223,624.063 -461.183,624.355C-461.143,624.647 -461.043,624.889 -460.883,625.081C-460.643,625.369 -460.231,625.513 -459.647,625.513C-459.407,625.513 -459.151,625.467 -458.879,625.375C-458.607,625.283 -458.391,625.157 -458.231,624.997C-458.175,624.933 -458.115,624.839 -458.051,624.715C-457.987,624.591 -457.943,624.377 -457.919,624.073C-457.903,623.889 -457.891,623.659 -457.883,623.383C-457.875,623.107 -457.871,622.773 -457.871,622.381L-457.871,620.089C-457.871,619.977 -457.811,619.921 -457.691,619.921L-457.175,619.921C-457.055,619.921 -456.995,619.977 -456.995,620.089L-456.995,626.449C-456.995,626.905 -457.051,627.311 -457.163,627.667C-457.275,628.023 -457.459,628.329 -457.715,628.585C-457.939,628.809 -458.219,628.981 -458.555,629.101C-458.891,629.221 -459.307,629.281 -459.803,629.281C-460.067,629.281 -460.341,629.261 -460.625,629.221C-460.909,629.181 -461.123,629.141 -461.267,629.101C-461.347,629.077 -461.395,629.047 -461.411,629.011C-461.427,628.975 -461.427,628.929 -461.411,628.873L-461.339,628.525C-461.323,628.453 -461.299,628.407 -461.267,628.387C-461.235,628.367 -461.175,628.365 -461.087,628.381C-460.871,628.421 -460.663,628.453 -460.463,628.477C-460.263,628.501 -460.035,628.513 -459.779,628.513C-459.435,628.513 -459.145,628.467 -458.909,628.375C-458.673,628.283 -458.483,628.157 -458.339,627.997C-458.171,627.805 -458.051,627.575 -457.979,627.307C-457.907,627.039 -457.871,626.725 -457.871,626.365L-457.871,625.549Z" style="fill:rgb(29,29,27);fill-rule:nonzero;"/>
                <path d="M-454.319,624.889C-454.319,625.153 -454.293,625.335 -454.241,625.435C-454.189,625.535 -454.059,625.585 -453.851,625.585C-453.739,625.585 -453.683,625.637 -453.683,625.741L-453.683,625.981C-453.683,626.045 -453.691,626.091 -453.707,626.119C-453.723,626.147 -453.755,626.169 -453.803,626.185C-453.843,626.201 -453.905,626.217 -453.989,626.233C-454.073,626.249 -454.159,626.257 -454.247,626.257C-454.447,626.257 -454.615,626.219 -454.751,626.143C-454.887,626.067 -454.987,625.965 -455.051,625.837C-455.115,625.725 -455.155,625.579 -455.171,625.399C-455.187,625.219 -455.195,624.973 -455.195,624.661L-455.195,620.065C-455.195,619.529 -455.199,619.091 -455.207,618.751C-455.215,618.411 -455.223,618.137 -455.231,617.929C-455.239,617.721 -455.247,617.567 -455.255,617.467C-455.263,617.367 -455.267,617.289 -455.267,617.233C-455.267,617.121 -455.215,617.065 -455.111,617.065L-454.571,617.065C-454.467,617.065 -454.411,617.109 -454.403,617.197C-454.379,617.381 -454.359,617.727 -454.343,618.235C-454.327,618.743 -454.319,619.405 -454.319,620.221L-454.319,624.889Z" style="fill:rgb(29,29,27);fill-rule:nonzero;"/>
                <path d="M-449.111,626.257C-449.247,626.257 -449.315,626.193 -449.315,626.065L-449.315,617.809C-449.315,617.681 -449.247,617.617 -449.111,617.617L-448.595,617.617C-448.459,617.617 -448.391,617.681 -448.391,617.809L-448.391,621.493L-444.359,621.493L-444.359,617.809C-444.359,617.681 -444.291,617.617 -444.155,617.617L-443.639,617.617C-443.503,617.617 -443.435,617.681 -443.435,617.809L-443.435,626.065C-443.435,626.193 -443.503,626.257 -443.639,626.257L-444.155,626.257C-444.291,626.257 -444.359,626.193 -444.359,626.065L-444.359,622.273L-448.391,622.273L-448.391,626.065C-448.391,626.193 -448.459,626.257 -448.595,626.257L-449.111,626.257Z" style="fill:rgb(29,29,27);fill-rule:nonzero;"/>
                <path d="M-439.175,626.377C-439.647,626.377 -440.053,626.297 -440.393,626.137C-440.733,625.977 -441.013,625.755 -441.233,625.471C-441.453,625.187 -441.615,624.855 -441.719,624.475C-441.823,624.095 -441.875,623.685 -441.875,623.245C-441.875,622.669 -441.803,622.165 -441.659,621.733C-441.515,621.301 -441.311,620.943 -441.047,620.659C-440.783,620.375 -440.471,620.161 -440.111,620.017C-439.751,619.873 -439.355,619.801 -438.923,619.801C-438.451,619.801 -438.045,619.881 -437.705,620.041C-437.365,620.201 -437.085,620.423 -436.865,620.707C-436.645,620.991 -436.483,621.323 -436.379,621.703C-436.275,622.083 -436.223,622.493 -436.223,622.933C-436.223,623.509 -436.295,624.013 -436.439,624.445C-436.583,624.877 -436.787,625.235 -437.051,625.519C-437.315,625.803 -437.627,626.017 -437.987,626.161C-438.347,626.305 -438.743,626.377 -439.175,626.377ZM-439.127,625.585C-438.887,625.585 -438.647,625.541 -438.407,625.453C-438.167,625.365 -437.955,625.221 -437.771,625.021C-437.587,624.821 -437.437,624.557 -437.321,624.229C-437.205,623.901 -437.147,623.501 -437.147,623.029C-437.147,622.765 -437.173,622.489 -437.225,622.201C-437.277,621.913 -437.371,621.651 -437.507,621.415C-437.643,621.179 -437.829,620.983 -438.065,620.827C-438.301,620.671 -438.603,620.593 -438.971,620.593C-439.211,620.593 -439.451,620.637 -439.691,620.725C-439.931,620.813 -440.143,620.957 -440.327,621.157C-440.511,621.357 -440.661,621.621 -440.777,621.949C-440.893,622.277 -440.951,622.677 -440.951,623.149C-440.951,623.413 -440.925,623.689 -440.873,623.977C-440.821,624.265 -440.727,624.527 -440.591,624.763C-440.455,624.999 -440.269,625.195 -440.033,625.351C-439.797,625.507 -439.495,625.585 -439.127,625.585Z" style="fill:rgb(29,29,27);fill-rule:nonzero;"/>
                <path d="M-431.615,622.513C-431.615,621.881 -431.567,621.301 -431.471,620.773C-431.375,620.245 -431.251,619.763 -431.099,619.327C-430.947,618.891 -430.777,618.499 -430.589,618.151C-430.401,617.803 -430.219,617.497 -430.043,617.233C-429.963,617.121 -429.879,617.089 -429.791,617.137L-429.467,617.293C-429.347,617.357 -429.319,617.441 -429.383,617.545C-429.631,617.953 -429.841,618.355 -430.013,618.751C-430.185,619.147 -430.325,619.547 -430.433,619.951C-430.541,620.355 -430.619,620.769 -430.667,621.193C-430.715,621.617 -430.739,622.057 -430.739,622.513C-430.739,622.969 -430.715,623.409 -430.667,623.833C-430.619,624.257 -430.541,624.671 -430.433,625.075C-430.325,625.479 -430.185,625.879 -430.013,626.275C-429.841,626.671 -429.631,627.073 -429.383,627.481C-429.319,627.585 -429.347,627.669 -429.467,627.733L-429.791,627.889C-429.879,627.937 -429.963,627.905 -430.043,627.793C-430.219,627.529 -430.401,627.223 -430.589,626.875C-430.777,626.527 -430.947,626.135 -431.099,625.699C-431.251,625.263 -431.375,624.781 -431.471,624.253C-431.567,623.725 -431.615,623.145 -431.615,622.513Z" style="fill:rgb(29,29,27);fill-rule:nonzero;"/>
                <path d="M-427.595,626.257C-427.731,626.257 -427.799,626.193 -427.799,626.065L-427.799,617.809C-427.799,617.681 -427.731,617.617 -427.595,617.617L-427.079,617.617C-426.943,617.617 -426.875,617.681 -426.875,617.809L-426.875,626.065C-426.875,626.193 -426.943,626.257 -427.079,626.257L-427.595,626.257Z" style="fill:rgb(29,29,27);fill-rule:nonzero;"/>
                <path d="M-423.983,626.065C-423.983,626.193 -424.051,626.257 -424.187,626.257L-424.655,626.257C-424.791,626.257 -424.859,626.193 -424.859,626.065L-424.859,617.809C-424.859,617.681 -424.795,617.617 -424.667,617.617L-424.151,617.617C-424.039,617.617 -423.957,617.631 -423.905,617.659C-423.853,617.687 -423.795,617.757 -423.731,617.869L-420.731,622.705C-420.459,623.153 -420.221,623.547 -420.017,623.887C-419.813,624.227 -419.611,624.573 -419.411,624.925C-419.427,624.605 -419.437,624.241 -419.441,623.833C-419.445,623.425 -419.447,623.009 -419.447,622.585L-419.447,617.809C-419.447,617.681 -419.379,617.617 -419.243,617.617L-418.775,617.617C-418.639,617.617 -418.571,617.681 -418.571,617.809L-418.571,626.065C-418.571,626.193 -418.639,626.257 -418.775,626.257L-419.279,626.257C-419.391,626.257 -419.473,626.243 -419.525,626.215C-419.577,626.187 -419.635,626.117 -419.699,626.005L-422.699,621.169C-422.979,620.713 -423.223,620.315 -423.431,619.975C-423.639,619.635 -423.835,619.293 -424.019,618.949C-424.003,619.269 -423.993,619.633 -423.989,620.041C-423.985,620.449 -423.983,620.865 -423.983,621.289L-423.983,626.065Z" style="fill:rgb(29,29,27);fill-rule:nonzero;"/>
                <path d="M-413.483,622.417C-413.619,622.417 -413.687,622.353 -413.687,622.225L-413.687,621.829C-413.687,621.709 -413.619,621.649 -413.483,621.649L-410.795,621.649C-410.659,621.649 -410.591,621.709 -410.591,621.829L-410.591,625.561C-410.591,625.649 -410.605,625.719 -410.633,625.771C-410.661,625.823 -410.727,625.869 -410.831,625.909C-411.167,626.053 -411.541,626.167 -411.953,626.251C-412.365,626.335 -412.775,626.377 -413.183,626.377C-413.783,626.377 -414.307,626.293 -414.755,626.125C-415.203,625.957 -415.579,625.717 -415.883,625.405C-416.251,625.029 -416.527,624.559 -416.711,623.995C-416.895,623.431 -416.987,622.785 -416.987,622.057C-416.987,621.289 -416.889,620.607 -416.693,620.011C-416.497,619.415 -416.211,618.917 -415.835,618.517C-415.523,618.181 -415.149,617.927 -414.713,617.755C-414.277,617.583 -413.783,617.497 -413.231,617.497C-412.727,617.497 -412.277,617.555 -411.881,617.671C-411.485,617.787 -411.151,617.937 -410.879,618.121C-410.767,618.201 -410.743,618.305 -410.807,618.433L-410.927,618.685C-410.967,618.757 -411.005,618.805 -411.041,618.829C-411.077,618.853 -411.131,618.845 -411.203,618.805C-411.811,618.453 -412.479,618.277 -413.207,618.277C-414.055,618.277 -414.707,618.537 -415.163,619.057C-415.459,619.385 -415.677,619.795 -415.817,620.287C-415.957,620.779 -416.027,621.337 -416.027,621.961C-416.027,622.593 -415.955,623.153 -415.811,623.641C-415.667,624.129 -415.443,624.529 -415.139,624.841C-414.907,625.073 -414.621,625.253 -414.281,625.381C-413.941,625.509 -413.531,625.573 -413.051,625.573C-412.795,625.573 -412.519,625.545 -412.223,625.489C-411.927,625.433 -411.679,625.365 -411.479,625.285L-411.479,622.417L-413.483,622.417Z" style="fill:rgb(29,29,27);fill-rule:nonzero;"/>
                <path d="M-407.015,622.513C-407.015,623.145 -407.063,623.725 -407.159,624.253C-407.255,624.781 -407.379,625.263 -407.531,625.699C-407.683,626.135 -407.853,626.527 -408.041,626.875C-408.229,627.223 -408.411,627.529 -408.587,627.793C-408.667,627.905 -408.751,627.937 -408.839,627.889L-409.163,627.733C-409.283,627.669 -409.311,627.585 -409.247,627.481C-408.999,627.073 -408.789,626.671 -408.617,626.275C-408.445,625.879 -408.305,625.479 -408.197,625.075C-408.089,624.671 -408.011,624.257 -407.963,623.833C-407.915,623.409 -407.891,622.969 -407.891,622.513C-407.891,622.057 -407.915,621.617 -407.963,621.193C-408.011,620.769 -408.089,620.355 -408.197,619.951C-408.305,619.547 -408.445,619.147 -408.617,618.751C-408.789,618.355 -408.999,617.953 -409.247,617.545C-409.311,617.441 -409.283,617.357 -409.163,617.293L-408.839,617.137C-408.751,617.089 -408.667,617.121 -408.587,617.233C-408.411,617.497 -408.229,617.803 -408.041,618.151C-407.853,618.499 -407.683,618.891 -407.531,619.327C-407.379,619.763 -407.255,620.245 -407.159,620.773C-407.063,621.301 -407.015,621.881 -407.015,622.513Z" style="fill:rgb(29,29,27);fill-rule:nonzero;"/>
            </g>
            <g transform="matrix(1,0,0,1,401.473,248.279)">
                <path d="M0,22.324C-0.128,20.997 -0.469,19.892 -0.975,18.94C0.479,14.697 0.419,10.016 -3.207,6.935C-5.914,4.635 -9.704,3.991 -13.065,3.285C-16.527,2.558 -20.075,0.428 -23.578,1.735C-24.031,1.905 -24.444,2.12 -24.827,2.364C-25.412,1.454 -26.344,0.734 -27.696,0.407C-31.393,-0.485 -35.131,-1.764 -38.918,-2.404C-39.097,-4.154 -41.389,-5.185 -42.969,-4.019C-43.84,-5.101 -45.426,-5.558 -46.541,-4.223C-46.733,-3.993 -46.907,-3.758 -47.095,-3.526C-49.82,-3.603 -52.483,-0.046 -54.077,2.256C-56.414,3.307 -57.676,6.69 -55.506,9.024C-49.95,15.003 -40.662,17.613 -33.099,19.979C-28.62,21.381 -24.091,22.621 -19.522,23.693C-17.308,24.212 -14.958,24.532 -12.674,25.02C-11.319,27.086 -8.973,27.692 -6.868,26.918C-3.807,27.882 0.37,26.142 0,22.324" style="fill:rgb(236,102,7);fill-rule:nonzero;"/>
            </g>
            <g transform="matrix(1,0,0,1,492.303,316.564)">
                <path d="M0,29.421C-1.168,30.553 -2.21,31.905 -2.638,33.351C-2.688,33.52 -2.702,33.687 -2.731,33.856C-4.79,34.648 -6.679,35.935 -7.55,37.811C-8.521,38.364 -9.426,39.028 -10.144,39.812C-17.204,41.197 -24.309,42.107 -31.483,42.554C-33.047,41.686 -34.674,40.942 -36.358,40.318C-37.679,39.001 -39.348,38.123 -41.103,37.457C-41.635,37.255 -42.323,37.079 -43.058,36.887C-43.474,36.429 -43.878,35.956 -44.258,35.45C-46.056,33.06 -47.3,30.912 -50.19,29.826C-50.085,27.606 -50.885,25.574 -52.958,24.496C-52.888,23.644 -53,22.788 -53.329,21.953C-51.624,21.342 -50.314,19.457 -51.4,17.379C-51.876,16.469 -52.273,15.518 -52.608,14.546C-52.62,13.835 -52.813,13.145 -53.175,12.574C-53.324,11.904 -53.444,11.228 -53.51,10.541C-53.611,9.465 -54.08,8.474 -54.866,7.859C-54.769,7.768 -54.663,7.693 -54.573,7.583C-49.595,1.515 -44.765,-4.666 -40.078,-10.962C-40.052,-10.997 -40.04,-11.031 -40.016,-11.066C-39.613,-11.162 -39.211,-11.28 -38.816,-11.43C-37.839,-11.803 -36.725,-12.434 -35.648,-13.24C-34.662,-12.64 -33.457,-12.278 -32.186,-12.229C-30.963,-12.183 -28.223,-12.658 -25.251,-13.53C-23.321,-12.85 -21.373,-12.417 -20.042,-12.197C-18.72,-11.979 -17.637,-12.489 -16.909,-13.298C-14.325,-12.16 -11.472,-11.451 -8.739,-10.577C-8.493,-10.237 -8.153,-9.929 -7.704,-9.674C-6.155,-8.793 -4.412,-7.786 -2.715,-6.637C-1.476,-5.308 -0.07,-4.091 0.894,-2.509C2.626,0.333 3.551,3.62 3.71,6.939C3.858,10.049 3.076,12.764 2.256,15.718C1.699,17.723 1.484,19.413 2.576,20.907C1.303,23.622 0.563,26.847 0.002,29.409C0.001,29.413 0.001,29.417 0,29.421M20.729,5.969C20.746,5.733 20.763,5.495 20.772,5.267C20.822,4.058 20.238,3.275 19.433,2.905C19.398,1.261 17.854,-0.128 16.251,-0.161C16.201,-0.161 16.156,-0.15 16.107,-0.149C15.768,-1.794 15.287,-3.187 14.711,-4.035C15.051,-4.978 14.963,-6.065 14.213,-7.052C13.833,-10.053 12.915,-12.969 11.503,-15.697C10.333,-17.956 7.779,-17.698 6.371,-16.321C5.363,-17.508 4.354,-18.694 3.347,-19.881C2.527,-20.845 1.528,-21.104 0.603,-20.923C-0.501,-21.954 -1.64,-22.924 -2.843,-23.733C-5.456,-25.491 -7.858,-25.107 -10.857,-25.881C-10.857,-25.879 -10.858,-25.876 -10.858,-25.873C-11.134,-25.928 -11.42,-25.976 -11.72,-26.016C-12.805,-26.158 -13.635,-25.726 -14.185,-25.036C-14.602,-25.154 -15.023,-25.27 -15.469,-25.374C-17.289,-26.14 -19.081,-26.979 -20.828,-27.964C-21.823,-28.525 -22.799,-28.51 -23.625,-28.166C-24.476,-28.708 -25.567,-28.868 -26.731,-28.272C-27.815,-27.718 -29.018,-27.076 -30.224,-26.351C-30.795,-26.888 -31.546,-27.236 -32.37,-27.255C-33.959,-27.292 -35.527,-26.879 -36.907,-26.125C-37.196,-26.191 -37.494,-26.233 -37.797,-26.254C-38.791,-27.017 -40.184,-27.275 -41.338,-26.595C-43.531,-25.301 -45.412,-23.813 -47.03,-22.121C-49.357,-22.43 -52.225,-21.537 -53.796,-20.044C-54.938,-18.957 -55.75,-17.6 -56.396,-16.169C-56.526,-16.166 -56.653,-16.169 -56.788,-16.151C-58.508,-15.92 -59.678,-14.51 -59.756,-12.791C-59.813,-11.525 -59.619,-9.979 -59.065,-8.656C-60.233,-7.635 -61.411,-6.531 -62.503,-5.346C-63.698,-6.323 -65.277,-6.623 -66.727,-6.012C-68.152,-5.41 -69.297,-3.91 -69.225,-2.298C-69.161,-0.881 -68.461,0.481 -67.212,1.211C-67.099,1.278 -66.979,1.323 -66.861,1.377C-67.057,1.936 -67.216,2.498 -67.314,3.065C-67.597,4.691 -67.253,6.192 -66.484,7.349C-68.883,8.991 -71.087,11.013 -71.862,13.355C-72.758,16.062 -71.157,18.308 -68.861,19.376C-68.764,19.502 -68.692,19.638 -68.58,19.758C-67.613,20.788 -66.659,21.44 -65.731,21.796C-65.69,22.387 -65.613,22.959 -65.478,23.499C-67.18,26.556 -68.137,29.791 -66.925,32.525C-66.563,33.34 -65.68,33.929 -64.785,34.134C-64.632,34.952 -64.369,35.714 -63.988,36.391C-64.524,36.366 -65.076,36.469 -65.613,36.76C-67.055,37.542 -67.898,39.701 -66.923,41.174C-65.137,43.868 -62.297,45.634 -58.992,45.55C-57.918,45.523 -56.935,45.01 -56.321,44.203C-56.303,44.204 -56.284,44.207 -56.267,44.208C-55.219,45.4 -53.948,46.288 -52.601,46.686C-51.889,47.946 -50.883,49.078 -49.802,49.873C-47.103,51.859 -42.738,53.269 -39.216,52.513C-39.017,52.694 -38.809,52.872 -38.582,53.039C-37.245,54.021 -35.73,54.774 -34.136,55.347C-33.971,55.51 -33.784,55.663 -33.569,55.805C-30.013,58.144 -25.453,58.289 -21.724,56.267C-21.342,56.06 -21.049,55.806 -20.806,55.531C-20.537,55.462 -20.274,55.381 -20.01,55.304C-18.821,55.38 -17.619,55.31 -16.571,55.188C-15.273,55.037 -14.023,54.73 -12.82,54.308C-7.196,54.922 -1.222,51.432 3.497,47.671C3.85,47.852 4.207,48.017 4.581,48.12C5.822,48.462 7.627,48.278 8.803,47.833C10.47,47.201 11.59,45.796 11.341,43.944C11.281,43.499 11.113,43.055 10.875,42.642C10.96,42.436 11.033,42.224 11.084,42.002C11.297,41.061 11.013,39.962 10.237,39.351C10.401,38.993 10.597,38.63 10.869,38.23C11.172,37.785 11.313,37.256 11.338,36.716C11.909,36.372 12.467,36.015 13.006,35.641C13.641,35.303 14.203,34.849 14.718,34.332C17.481,32.001 19.502,29.03 19.944,24.831C19.948,24.8 19.943,24.775 19.945,24.743C20.05,24.12 20.03,23.476 19.859,22.853C19.497,21.537 18.302,20.075 16.88,19.801C19.076,16.466 20.637,12.759 21.412,8.74C21.628,7.624 21.312,6.677 20.729,5.969" style="fill:rgb(236,102,7);fill-rule:nonzero;"/>
            </g>
            <g transform="matrix(1,0,0,1,440.806,407.427)">
                <path d="M0,-33.778C0.163,-34.051 0.296,-34.338 0.363,-34.635C0.511,-35.28 0.511,-35.939 0.363,-36.584C0.207,-37.27 -0.41,-38.21 -1.073,-38.637C-0.826,-40.741 -2.055,-43.051 -4.789,-43.051C-8.104,-43.051 -9.213,-39.648 -8.14,-37.342C-8.396,-37.039 -8.615,-36.677 -8.765,-36.23C-11.825,-27.078 -21.775,-19.318 -28.619,-12.9C-30.142,-11.472 -29.8,-9.594 -28.7,-8.413C-30.607,-6.174 -32.426,-3.862 -34.194,-1.508C-34.783,-1.219 -35.28,-0.743 -35.658,-0.156C-36.208,-0.564 -36.917,-0.817 -37.789,-0.817C-42.494,-0.817 -42.502,6.495 -37.789,6.495C-36.764,6.495 -35.975,6.136 -35.396,5.593C-35.22,5.872 -35.026,6.138 -34.814,6.382C-33.408,8.006 -31.344,8.638 -29.3,8.975C-27.485,9.273 -25.906,8.615 -25.252,6.779C-25.068,6.264 -24.885,5.748 -24.702,5.233C-24.31,4.134 -24.698,2.934 -25.471,2.104C-25.41,2.032 -25.35,1.958 -25.289,1.887C-25.03,1.699 -24.782,1.481 -24.562,1.196L-22.942,-0.898C-19.882,-4.547 -16.86,-8.225 -13.918,-11.97C-13.544,-12.447 -13.356,-12.923 -13.289,-13.383L-0.1,-30.44C0.838,-31.653 0.689,-32.875 0,-33.778" style="fill:rgb(111,111,110);fill-rule:nonzero;"/>
            </g>
            <g transform="matrix(1,0,0,1,444.207,422.524)">
                <path d="M0,-48.022C-0.708,-47.058 -1.409,-46.09 -2.113,-45.124C-3.722,-43.903 -5.181,-42.381 -6.673,-41.078C-10.431,-37.795 -13.937,-34.204 -16.794,-30.097C-18.361,-27.843 -19.756,-25.388 -20.835,-22.816C-22.827,-20.754 -24.299,-18.42 -25.424,-15.771C-25.933,-14.575 -25.335,-13.193 -24.366,-12.365L-25.268,-10.915C-25.816,-10.942 -26.324,-10.69 -26.566,-10.103C-26.762,-10.141 -26.969,-10.165 -27.19,-10.165C-30.556,-10.165 -30.888,-5.471 -28.193,-4.529C-28.197,-4.512 -28.202,-4.498 -28.206,-4.481C-28.463,-3.505 -27.984,-2.429 -27.209,-1.782C-27.212,-1.774 -27.215,-1.767 -27.218,-1.76C-28.412,1.546 -24.224,3.358 -21.998,1.548C-20.516,2.076 -18.744,1.729 -17.709,0.001C-17.285,-0.706 -16.951,-1.424 -16.656,-2.15C-16.427,-2.486 -16.294,-2.856 -16.25,-3.243C-15.683,-4.968 -15.38,-6.745 -15.173,-8.573C-14.677,-8.891 -14.273,-9.353 -14.036,-9.916C-13.79,-10.5 -13.745,-11.184 -13.897,-11.816C-11.786,-16.883 -9.512,-21.874 -7.034,-26.776C-3.059,-32.841 1.23,-38.724 5.528,-44.577C8.013,-47.961 2.466,-51.38 0,-48.022" style="fill:rgb(198,198,198);fill-rule:nonzero;"/>
            </g>
        </g>
        <g id="Layer-1" serif:id="Layer 1" transform="matrix(4.16667,0,0,4.16667,-858.104,-344.333)">
            <g transform="matrix(1,0,0,1,289.367,91.9534)">
                <path d="M0,137.426C17.062,91.617 34.123,45.809 51.184,0C147.51,16.877 244.456,47.607 328.447,97.697" style="fill:none;stroke:rgb(111,111,110);stroke-width:13px;"/>
            </g>
            <g transform="matrix(1,0,0,1,558.17,503.327)">
                <path d="M0,-207.336C-33.436,-140.647 -62.018,-66.69 -95.453,0C-141.699,-28.476 -191.356,-51.404 -243.023,-68.14" style="fill:none;stroke:rgb(111,111,110);stroke-width:13px;"/>
            </g>
            <g transform="matrix(0.488237,-0.872711,-0.872711,-0.488237,624.178,301.706)">
                <path d="M-34.897,59.51C10.111,64.756 55.949,64.755 101.482,59.51" style="fill:none;stroke:rgb(111,111,110);stroke-width:13px;"/>
            </g>
            <g transform="matrix(-0.355534,0.934663,0.934663,0.355534,332.083,390.78)">
                <path d="M-141.825,-97.791C-71.867,-100.808 -2.045,-100.809 67.428,-97.791" style="fill:none;stroke:rgb(111,111,110);stroke-width:13px;"/>
            </g>
            <g transform="matrix(1,0,0,1,381.437,191.704)">
                <path d="M0,-3.739C0.294,-4.057 0.589,-4.376 0.884,-4.694C1.302,-5.146 1.808,-5.321 2.304,-5.3C2.571,-5.445 2.843,-5.585 3.124,-5.716C5.449,-6.801 7.708,-3.594 5.363,-2.5C4.521,-2.108 3.754,-1.645 3.063,-1.11C2.261,-0.243 1.458,0.623 0.656,1.49C-0.8,3.062 -3.929,1.026 -2.729,-0.738C-1.965,-1.862 -1.053,-2.867 0,-3.739" style="fill:rgb(29,29,27);fill-rule:nonzero;"/>
            </g>
            <g transform="matrix(1,0,0,1,417.284,179.156)">
                <path d="M0,-2.588C0.024,-2.634 0.047,-2.681 0.07,-2.727C0.272,-2.701 0.469,-2.69 0.659,-2.692C0.651,-2.416 0.628,-2.14 0.586,-1.865C0.381,-2.098 0.19,-2.342 0,-2.588M-14.553,-7.681C-14.866,-7.722 -15.156,-7.91 -15.423,-8.195C-15.337,-8.942 -15.359,-9.677 -15.485,-10.389C-15.166,-9.381 -14.745,-8.308 -14.218,-7.36C-14.289,-7.337 -14.4,-7.442 -14.553,-7.681M-30.869,-8.514C-30.86,-8.652 -30.85,-8.79 -30.847,-8.926C-30.665,-8.605 -30.47,-8.295 -30.264,-7.998C-30.392,-7.985 -30.6,-8.224 -30.869,-8.514M19.953,9.893C19.964,8.931 18.957,8.399 18.122,8.605L15.391,9.278C15.669,8.993 15.958,8.713 16.263,8.438C17.011,7.764 16.602,6.613 15.835,6.198C16.354,5.433 15.645,4.407 14.882,4.121C14.746,4.07 14.612,4.038 14.477,3.994C14.625,3.124 13.991,2.21 13.028,2.308C12.847,1.355 12.117,0.625 11.037,0.689C10.271,0.734 9.852,1.266 9.758,1.856C9.658,1.847 9.556,1.846 9.452,1.859C9.438,1.814 9.423,1.769 9.406,1.725C9.584,1.354 9.722,0.975 9.821,0.59C9.918,0.379 9.961,0.147 9.957,-0.085C10.275,-2.417 9.206,-4.796 7.207,-6.237C6.754,-6.564 6.161,-6.484 5.691,-6.21C4.724,-6.569 3.874,-5.969 3.572,-5.203C3.513,-5.499 3.447,-5.795 3.365,-6.096C3.087,-7.108 2.085,-7.357 1.296,-7.054C1.293,-7.734 1.171,-8.399 0.87,-9.017C0.282,-10.228 -0.888,-10.903 -2.112,-10.813C-2.549,-11.6 -3.238,-12.251 -4.202,-12.625C-5.052,-12.954 -6.357,-12.722 -6.496,-11.588C-6.706,-9.879 -6.583,-8.256 -6.157,-6.737C-6.488,-6.641 -6.852,-6.622 -7.231,-6.695C-5.405,-9.501 -8.291,-13.051 -10.83,-14.844C-11.773,-15.51 -12.722,-14.742 -13.048,-13.865C-13.121,-13.967 -13.193,-14.065 -13.263,-14.152C-14.408,-15.582 -16.464,-14.64 -16.115,-12.843C-16.055,-12.531 -15.976,-12.173 -15.879,-11.786C-16.298,-12.839 -16.976,-13.822 -17.927,-14.695C-18.672,-15.38 -19.982,-15.117 -20.439,-14.294C-20.91,-15.14 -21.386,-15.854 -21.762,-16.319C-22.679,-17.459 -24.787,-17.137 -24.684,-15.414C-24.657,-14.951 -24.601,-14.498 -24.527,-14.051C-25.181,-14.899 -25.937,-15.59 -26.681,-15.984C-27.776,-16.563 -29.274,-15.572 -29.009,-14.344C-29.338,-14.846 -29.668,-15.272 -29.971,-15.58C-30.885,-16.509 -32.532,-15.797 -32.633,-14.577C-32.972,-15.036 -33.355,-15.477 -33.789,-15.895C-34.396,-16.483 -35.403,-16.383 -35.993,-15.865C-36.815,-16.195 -37.745,-15.813 -38.104,-14.797C-38.164,-14.63 -38.21,-14.463 -38.255,-14.296C-38.704,-15.351 -39.34,-16.174 -40.116,-16.476C-40.808,-16.744 -41.458,-16.71 -42.021,-16.169C-42.538,-15.67 -42.707,-15.189 -42.655,-14.465C-42.602,-13.716 -42.115,-13.226 -41.429,-12.992L-41.218,-12.92C-41.494,-12.866 -41.746,-12.739 -41.95,-12.546C-42.039,-12.697 -42.128,-12.84 -42.217,-12.97C-43.021,-14.15 -44.69,-13.793 -45.1,-12.487C-45.224,-12.092 -45.277,-11.676 -45.27,-11.253C-46.266,-11.589 -47.451,-10.958 -47.4,-9.741C-47.383,-9.328 -47.3,-8.785 -47.156,-8.187C-47.89,-6.334 -47.033,-4.192 -45.224,-3.223C-44.846,-3.021 -44.328,-3.001 -43.885,-3.153C-43.312,-2.973 -42.677,-3.031 -41.984,-3.441C-41.636,-3.648 -41.357,-3.907 -41.127,-4.2C-40.75,-3.567 -40.315,-2.951 -39.796,-2.358C-39.05,-1.505 -37.847,-2.01 -37.319,-2.757C-36.885,-3.37 -36.564,-4.025 -36.345,-4.699C-36.195,-4.715 -36.045,-4.738 -35.896,-4.774C-34.875,-5.022 -34.132,-5.447 -33.614,-5.994C-33.408,-5.928 -33.199,-5.867 -32.984,-5.82C-32.001,-4.8 -30.79,-4.26 -29.321,-4.649C-28.567,-4.848 -28.015,-5.2 -27.626,-5.66C-26.787,-5.323 -25.864,-5.304 -24.874,-5.759C-24.619,-5.877 -24.392,-6.01 -24.186,-6.155C-23.086,-5.26 -21.837,-4.852 -20.462,-5.394C-20.058,-5.553 -19.729,-5.766 -19.465,-6.019C-19.051,-5.732 -18.617,-5.464 -18.16,-5.221C-17.777,-5.018 -17.249,-4.999 -16.802,-5.158C-15.914,-4.376 -14.875,-3.936 -13.687,-4.095C-12.909,-4.2 -12.324,-4.469 -11.894,-4.855C-11.371,-4.605 -10.796,-4.512 -10.169,-4.632C-8.614,-3.512 -6.576,-2.969 -4.737,-3.606C-4.355,-3.034 -3.895,-2.496 -3.395,-1.975C-2.211,-0.193 -0.754,1.37 0.229,2.205C0.958,2.824 2.261,2.782 2.707,1.807C3.561,-0.06 3.91,-1.875 3.768,-3.771C3.899,-3.622 4.074,-3.491 4.3,-3.389C4.337,-3.373 4.369,-3.351 4.405,-3.333C4.352,-2.368 4.564,-1.399 5.024,-0.546C4.531,-0.117 4.038,0.311 3.545,0.739C3.019,1.196 3.068,1.923 3.41,2.459C3.247,2.623 3.08,2.78 2.919,2.948C1.998,3.915 2.976,5.686 4.283,5.287C4.181,6.327 5.258,7.278 6.398,6.647C6.909,6.364 7.419,6.082 7.929,5.799C8.033,6.262 8.338,6.679 8.749,6.872C8.669,6.97 8.59,7.067 8.51,7.164C8.076,7.698 8.104,8.308 8.367,8.784C7.366,9.704 8.625,11.528 9.865,11.05C10.155,10.938 10.444,10.827 10.734,10.715C10.688,10.79 10.638,10.859 10.593,10.934C9.921,12.057 11.128,13.231 12.256,12.954C13.648,12.611 15.041,12.267 16.432,11.925C15.836,13.305 17.661,14.871 18.676,13.532C19.567,12.356 19.936,11.375 19.953,9.893" style="fill:rgb(29,29,27);fill-rule:nonzero;"/>
            </g>
            <g transform="matrix(1,0,0,1,417.564,245.526)">
                <path d="M0,2.139C-0.507,0.675 -2.38,0.872 -2.948,1.901C-2.99,1.675 -3.026,1.45 -3.076,1.223C-3.474,-0.594 -6.192,0.046 -6.168,1.762C-6.16,2.324 -6.108,2.869 -6.037,3.406C-6.954,2.69 -8.67,3.147 -8.641,4.669C-8.636,4.926 -8.637,5.181 -8.641,5.433C-8.863,3.752 -11.366,3.438 -11.752,5.208C-11.892,5.849 -12.043,6.486 -12.204,7.12C-12.479,6.825 -12.87,6.648 -13.272,6.611C-13.899,6.003 -14.951,6.081 -15.486,6.916C-15.769,7.355 -16.05,7.794 -16.333,8.233C-16.572,8.019 -16.812,7.806 -17.053,7.593C-17.425,7.262 -17.919,7.17 -18.362,7.273C-18.767,7.087 -19.271,7.074 -19.672,7.254C-19.731,6.993 -19.791,6.733 -19.843,6.468C-20.145,4.951 -22.066,5.367 -22.508,6.539C-23.067,6.026 -23.973,5.965 -24.487,6.523C-24.897,6.56 -25.276,6.779 -25.482,7.243C-25.519,7.326 -25.562,7.401 -25.601,7.483C-25.633,6.907 -26.021,6.468 -26.508,6.274C-26.512,5.819 -26.498,5.359 -26.454,4.89C-26.304,3.31 -28.141,2.527 -29.072,3.902C-29.301,4.24 -29.53,4.578 -29.759,4.915C-30.175,4.506 -30.827,4.344 -31.353,4.565C-31,2.787 -33.653,2.172 -34.104,3.934C-34.141,4.076 -34.181,4.213 -34.221,4.351C-34.656,3.873 -35.417,3.709 -35.984,3.986C-36.725,3.298 -38.316,3.731 -38.425,5.076C-38.44,6.039 -38.713,6.942 -39.187,7.729C-39.259,6.633 -39.137,5.534 -38.811,4.415C-38.301,2.67 -41.054,2.042 -41.562,3.782C-41.615,3.964 -41.656,4.149 -41.7,4.332C-41.771,4.197 -41.845,4.063 -41.927,3.933C-41.895,3.077 -42.181,2.238 -42.994,1.508C-43.706,0.868 -44.538,0.59 -45.333,0.635C-45.344,0.162 -45.338,-0.316 -45.301,-0.804C-45.201,-2.137 -47.239,-2.845 -48.035,-1.821C-48.789,-0.851 -49.096,-0.002 -49.238,1.166C-49.255,1.089 -49.271,1.012 -49.288,0.935C-49.291,0.914 -49.289,0.894 -49.292,0.874C-48.857,-0.4 -48.76,-1.897 -48.947,-3.084C-49.136,-4.279 -50.417,-4.85 -51.297,-4.416C-51.279,-4.796 -51.282,-5.186 -51.332,-5.596C-51.461,-6.674 -52.822,-7.578 -53.752,-6.915C-53.853,-7.767 -54.577,-8.27 -55.317,-8.286C-55.351,-8.484 -55.383,-8.679 -55.435,-8.891C-55.575,-9.47 -56.064,-9.829 -56.609,-9.941C-56.746,-10.119 -56.922,-10.264 -57.129,-10.358C-57.327,-11.085 -58.098,-11.543 -58.905,-11.348C-59.635,-11.172 -60.336,-10.92 -61.007,-10.611C-61.06,-11.154 -61.427,-11.578 -61.916,-11.763C-61.917,-12.625 -62.64,-13.512 -63.708,-13.176C-63.794,-13.149 -63.872,-13.11 -63.957,-13.08C-64.336,-13.355 -64.846,-13.481 -65.275,-13.367C-66.997,-12.907 -68.04,-11.407 -67.978,-9.646C-67.97,-9.414 -67.902,-9.204 -67.793,-9.022C-67.97,-8.709 -68.15,-8.399 -68.337,-8.091C-69.159,-6.746 -67.057,-5.18 -66.067,-6.452C-65.776,-6.825 -65.468,-7.158 -65.141,-7.458C-65.26,-7.262 -65.375,-7.066 -65.508,-6.873C-66.396,-5.586 -64.263,-4.006 -63.281,-5.187C-63.116,-4.561 -62.442,-4.04 -61.8,-4.037C-61.533,-4.036 -61.265,-4.035 -60.998,-4.033C-60.939,-3.855 -60.845,-3.698 -60.724,-3.566C-60.809,-3.193 -60.908,-2.82 -61.033,-2.448C-61.612,-0.727 -58.857,-0.105 -58.281,-1.814C-58.226,-1.979 -58.184,-2.145 -58.137,-2.31C-57.968,-2.256 -57.788,-2.23 -57.595,-2.261C-57.503,-2.276 -57.415,-2.296 -57.326,-2.315C-57.146,-1.723 -56.876,-1.149 -56.515,-0.599C-56.519,0.952 -55.836,2.354 -53.921,3.174C-53.214,3.476 -52.595,3.568 -52.048,3.517C-51.708,4.378 -51.164,5.069 -50.313,5.405C-49.432,5.752 -48.552,5.593 -47.816,5.091C-47.733,5.355 -47.633,5.614 -47.535,5.873C-47.418,6.608 -47.123,7.329 -46.644,7.993C-46.56,8.11 -46.46,8.211 -46.353,8.303C-46.002,8.887 -45.625,9.46 -45.19,10.01C-44.522,10.854 -43.515,10.989 -42.696,10.256C-42.355,9.951 -42.076,9.616 -41.849,9.262C-41.74,9.86 -41.587,10.454 -41.387,11.038C-41.104,11.869 -40.063,12.338 -39.291,11.814C-38.404,11.213 -37.667,10.48 -37.087,9.649C-36.908,9.718 -36.716,9.747 -36.524,9.744C-36.225,10.669 -34.808,11.01 -34.18,10.218C-34.053,10.057 -33.934,9.895 -33.814,9.734C-33.807,9.757 -33.802,9.78 -33.794,9.804C-33.488,10.765 -32.187,11.076 -31.49,10.427C-31.461,10.439 -31.433,10.446 -31.405,10.456C-31.299,10.834 -31.189,11.211 -31.061,11.59C-30.713,12.614 -29.446,12.889 -28.685,12.137C-28.562,12.015 -28.451,11.89 -28.336,11.765C-28.29,11.894 -28.251,12.021 -28.202,12.15C-28.011,12.648 -27.61,12.98 -27.16,13.09C-26.979,13.337 -26.785,13.582 -26.568,13.822C-25.919,14.537 -24.799,14.183 -24.357,13.466C-24.061,12.984 -23.795,12.5 -23.551,12.012C-23.544,12.014 -23.537,12.016 -23.53,12.018C-23.251,12.571 -22.936,13.112 -22.565,13.642C-21.921,14.567 -20.724,14.459 -20.126,13.565C-19.89,13.212 -19.668,12.855 -19.455,12.496C-19.385,12.47 -19.315,12.447 -19.248,12.412C-19.005,12.286 -18.787,12.144 -18.578,11.996C-18.398,12.095 -18.203,12.175 -17.987,12.231C-17.976,12.852 -17.758,13.462 -17.306,14.013C-16.72,14.727 -15.517,15.142 -14.812,14.258C-14.623,14.02 -14.442,13.781 -14.269,13.54C-14.147,13.803 -14.013,14.066 -13.865,14.328C-13.121,15.651 -11.412,15.014 -10.981,13.845C-10.681,13.029 -10.405,12.207 -10.141,11.383C-9.914,11.829 -9.668,12.272 -9.393,12.708C-8.626,13.916 -6.893,13.508 -6.509,12.224C-6.439,11.99 -6.376,11.756 -6.313,11.521C-5.476,12.535 -3.965,12.083 -3.552,10.879C-3.438,10.547 -3.342,10.216 -3.249,9.884C-3.073,10.108 -2.899,10.332 -2.708,10.551C-2.089,11.257 -0.581,11.06 -0.231,10.152C0.804,7.46 0.953,4.888 0,2.139" style="fill:rgb(29,29,27);fill-rule:nonzero;"/>
            </g>
            <g transform="matrix(1,0,0,1,402.75,168.771)">
                <path d="M0,85.761C6.536,83.879 13.514,84.871 19.732,81.698C26.165,78.415 30.604,71.235 33.675,63.937C35.938,58.556 37.677,52.843 38.14,47.016C39.097,34.967 34.36,23.311 26.877,15.483C19.394,7.655 9.42,3.374 -0.821,1.643C-10.54,0 -20.812,0.573 -30.317,4.667C-39.821,8.76 -48.493,16.591 -53.288,26.963C-58.083,37.335 -58.583,50.248 -53.588,59.721C-50.894,64.832 -46.815,68.739 -42.469,72.003C-36.057,76.819 -28.917,80.419 -21.391,82.63" style="fill:none;stroke:rgb(29,29,27);stroke-width:4px;"/>
            </g>
            <g transform="matrix(1,0,0,1,414.913,208.181)">
                <path d="M0,-8.917C-1.183,-9.524 -2.723,-8.988 -3.719,-8.012C-4.715,-7.036 -5.29,-5.709 -5.839,-4.422C-6.33,-3.271 -6.8,-1.861 -6.097,-0.89C-5.011,0.607 -2.597,-0.611 -1.351,-2.082C0.297,-4.026 1.506,-6.993 0.064,-8.967" style="fill:none;stroke:rgb(29,29,27);stroke-width:4px;"/>
            </g>
            <g transform="matrix(1,0,0,1,385.801,194.099)">
                <path d="M0,-7.21C-1.344,-7.844 -3.083,-7.514 -4.204,-6.752C-5.324,-5.991 -5.965,-4.888 -6.576,-3.816C-7.123,-2.858 -7.645,-1.672 -6.84,-0.765C-5.6,0.634 -2.875,-0.211 -1.475,-1.381C0.375,-2.927 1.721,-5.401 0.073,-7.248" style="fill:none;stroke:rgb(29,29,27);stroke-width:4px;"/>
            </g>
            <g transform="matrix(1,0,0,1,399.292,213.004)">
                <path d="M0,7.177C-3.763,10.556 -10.336,11.202 -15.25,8.675C-20.164,6.147 -22.978,0.673 -21.779,-4.025" style="fill:none;stroke:rgb(29,29,27);stroke-width:4px;"/>
            </g>
            <g transform="matrix(0.940232,0.340533,0.340533,-0.940232,373.475,106.168)">
                <path d="M-3.716,-21.173C37.485,-18.007 79.072,-18.007 120.633,-21.172" style="fill:none;stroke:rgb(111,111,110);stroke-width:7px;"/>
            </g>
            <g transform="matrix(1,0,0,1,479.009,262.694)">
                <path d="M0,-95.359C-19.771,-49.821 -37.296,-3.854 -63.116,38.546C-84.521,26.183 -108.06,18.065 -131.432,10.021C-140.115,7.033 -148.797,4.045 -157.48,1.057C-162.648,-0.722 -165.175,-2.383 -170.627,-2.758C-151.678,-46.233 -133.294,-89.953 -115.483,-133.905" style="fill:none;stroke:rgb(111,111,110);stroke-width:7px;"/>
            </g>
            <g transform="matrix(-0.730745,0.682651,0.682651,0.730745,347.906,257.225)">
                <path d="M-14.917,-5.883C-9.171,-5.884 -3.426,-5.884 2.321,-5.884" style="fill:none;stroke:rgb(29,29,27);stroke-width:4px;"/>
            </g>
            <g transform="matrix(-0.12253,0.992465,0.992465,0.12253,408.377,270.237)">
                <path d="M-8.646,-8.272C-3.404,-6.988 2.148,-6.987 7.391,-8.272" style="fill:none;stroke:rgb(29,29,27);stroke-width:4px;"/>
            </g>
            <g transform="matrix(-0.971094,-0.238699,-0.238699,0.971094,221.657,398.93)">
                <path d="M-114.711,13.891C-76.22,10.085 -37.133,10.086 1.682,13.891" style="fill:none;stroke:rgb(111,111,110);stroke-width:13px;"/>
            </g>
            <g transform="matrix(1,0,0,1,413.017,209.046)">
                <path d="M0,-9.28C-0.711,-9.248 -1.359,-8.942 -1.82,-8.46C-2.069,-8.408 -2.317,-8.33 -2.557,-8.197C-4.803,-6.955 -5.706,-4.51 -5.326,-2.068C-5.124,-0.772 -3.433,0.061 -2.25,-0.322C-0.904,-0.758 -0.348,-1.902 -0.488,-3.215C-0.487,-3.22 -0.485,-3.226 -0.484,-3.232C-0.46,-3.05 -0.453,-3.064 -0.464,-3.292C-0.464,-3.3 -0.464,-3.302 -0.463,-3.31C-0.448,-3.376 -0.433,-3.443 -0.413,-3.508C-0.388,-3.552 -0.361,-3.595 -0.334,-3.638C-0.224,-3.625 -0.114,-3.608 0,-3.613C1.354,-3.674 2.5,-4.712 2.5,-6.113L2.5,-6.78C2.5,-8.088 1.35,-9.341 0,-9.28" style="fill:rgb(87,87,86);fill-rule:nonzero;"/>
            </g>
            <g transform="matrix(1,0,0,1,483.023,323.914)">
                <path d="M0,15.437C0.231,14.945 0.464,14.454 0.696,13.961C1.17,13.576 1.623,13.17 2.043,12.735C1.466,13.678 0.768,14.586 0,15.437M3.78,-6.306C4.64,-5.287 5.267,-4.048 5.646,-2.55C5.459,-2.649 5.268,-2.734 5.076,-2.814C4.714,-4.031 4.288,-5.199 3.78,-6.306M10.689,14.369C10.803,13.684 10.894,12.957 10.961,12.204C14.705,5.109 12.962,-6.637 7.944,-11.687C3.564,-16.094 -3.525,-17.328 -9.38,-18.404C-16.354,-19.686 -23.233,-19.849 -30.026,-17.629C-32.438,-16.84 -32.811,-14.182 -31.833,-12.519C-37.131,-9.938 -41.368,-5.452 -42.406,0.398C-43.144,4.547 -42.393,8.958 -40.375,12.625C-40.354,13.646 -40.146,14.642 -39.791,15.597C-39.83,16.012 -39.772,16.472 -39.585,16.971C-35.253,28.533 -22.307,35.286 -10.434,30.909C-0.315,32.684 8.919,25.059 10.689,14.369" style="fill:white;fill-rule:nonzero;"/>
            </g>
            <g transform="matrix(1,0,0,1,453.503,352.025)">
                <path d="M0,-45.318C-8.588,-40.741 -14.245,-31.573 -14.311,-22.038C-14.376,-12.504 -8.823,-2.959 -0.238,2.062C8.347,7.083 19.638,7.364 28.19,2.726C30.809,1.306 33.181,-0.544 35.057,-2.795C37.024,-5.154 38.419,-7.909 39.643,-10.705C42.548,-17.339 44.55,-25.025 41.561,-31.775C35.004,-46.586 13.817,-52.682 0,-45.318Z" style="fill:none;stroke:rgb(29,29,27);stroke-width:4px;"/>
            </g>
            <g transform="matrix(1,0,0,1,443.53,292.043)">
                <path d="M0,78.342C3.051,79.967 7.165,79.245 9.48,76.68C11.997,80.298 15.543,83.463 19.864,84.327C24.187,85.191 29.251,83.137 30.777,79.002C35.726,83.576 45.171,81.014 47.13,74.567C51.29,74.854 55.785,74.071 58.8,71.191C61.814,68.31 62.597,62.927 59.61,60.016C63.334,58.338 66.844,55.705 68.465,51.956C70.087,48.206 69.284,43.238 65.893,40.961C68.79,38.321 71.438,34.957 71.613,31.041C71.79,27.125 68.393,22.947 64.535,23.644C67.781,16.306 61.459,6.632 53.435,6.661C51.329,-0.569 42.267,-4.831 35.355,-1.843C30.837,-6.849 21.687,-6.385 17.698,-0.947C15.161,-4.068 10.686,-5.461 6.825,-4.33C2.964,-3.2 -0.054,0.387 -0.507,4.384C-7.038,3.622 -12.732,11.684 -9.829,17.585C-13.221,16.154 -17.581,17.713 -19.298,20.968C-21.014,24.224 -19.837,28.702 -16.741,30.693C-20.65,31.053 -24.096,34.336 -24.645,38.223C-25.194,42.111 -22.792,46.219 -19.136,47.648C-21.02,48.906 -21.625,51.736 -20.423,53.655C-19.22,55.574 -16.409,56.262 -14.455,55.115C-18.093,57.888 -18.812,63.768 -15.949,67.335C-12.899,71.136 -9.509,68.492 -6.421,70.007C-3.149,71.613 -3.902,76.264 0,78.342Z" style="fill:none;stroke:rgb(29,29,27);stroke-width:5px;"/>
            </g>
            <g transform="matrix(1,0,0,1,455.324,415.352)">
                <path d="M0,-41.196C-1.341,-41.523 -2.533,-40.332 -3.374,-39.238C-9.931,-30.71 -14.615,-20.921 -19.251,-11.214C-22.477,-4.459 -24.595,4.94 -27.82,11.695C-36.616,7.002 -45.269,2.04 -53.761,-3.183C-54.504,-3.64 -57.103,-3.394 -56.521,-4.045C-42.8,-19.402 -30.176,-35.74 -18.776,-52.891" style="fill:none;stroke:rgb(29,29,27);stroke-width:5px;"/>
            </g>
            <g transform="matrix(-0.567399,0.823443,0.823443,0.567399,438.609,420.36)">
                <path d="M-43.47,-22.837C-25.033,-24.532 -6.44,-24.533 11.998,-22.837" style="fill:none;stroke:rgb(29,29,27);stroke-width:4px;"/>
            </g>
            <g transform="matrix(0.928969,0.370159,0.370159,-0.928969,504.263,163.381)">
                <path d="M-2.446,-12.745C20.113,-7.535 43.858,-7.534 66.417,-12.745" style="fill:none;stroke:rgb(87,87,86);stroke-width:4px;"/>
            </g>
            <g transform="matrix(0.932313,0.361652,0.361652,-0.932313,491.227,183.483)">
                <path d="M-2.317,-12.381C20.353,-9.152 43.479,-9.153 66.149,-12.381" style="fill:none;stroke:rgb(87,87,86);stroke-width:4px;"/>
            </g>
            <g transform="matrix(0.940913,0.338647,0.338647,-0.940913,488.698,209.286)">
                <path d="M-1.762,-10.097C18.091,-8.882 38.017,-8.882 57.87,-10.097" style="fill:none;stroke:rgb(87,87,86);stroke-width:4px;"/>
            </g>
            <g transform="matrix(0.948204,0.317663,0.317663,-0.948204,475.891,227.115)">
                <path d="M-1.83,-11.222C21.722,-11.221 45.273,-11.221 68.824,-11.222" style="fill:none;stroke:rgb(87,87,86);stroke-width:4px;"/>
            </g>
            <g transform="matrix(1,0,0,1,468.754,275.933)">
                <path d="M0,-22.656C-0.225,-22.736 -0.45,-22.817 -0.675,-22.897C16.502,-17.519 32.914,-9.704 47.916,0.241" style="fill:none;stroke:rgb(87,87,86);stroke-width:4px;"/>
            </g>
            <g transform="matrix(0.953826,0.300358,0.300358,-0.953826,323.389,269.142)">
                <path d="M-1.959,-12.746C26.717,-7.395 55.982,-7.394 82.909,-12.745" style="fill:none;stroke:rgb(87,87,86);stroke-width:4px;"/>
            </g>
            <g transform="matrix(0.956083,0.293096,0.293096,-0.956083,307.044,289.289)">
                <path d="M-1.855,-12.381C26.648,-9.07 55.186,-9.071 82.629,-12.381" style="fill:none;stroke:rgb(87,87,86);stroke-width:4px;"/>
            </g>
            <g transform="matrix(0.961855,0.27356,0.27356,-0.961855,304.532,315.259)">
                <path d="M-1.408,-10.097C23.355,-8.854 48.022,-8.854 72.408,-10.097" style="fill:none;stroke:rgb(87,87,86);stroke-width:4px;"/>
            </g>
            <g transform="matrix(0.966698,0.25592,0.25592,-0.966698,288.212,333.096)">
                <path d="M-1.46,-11.221C27.771,-11.222 57.004,-11.222 86.235,-11.221" style="fill:none;stroke:rgb(87,87,86);stroke-width:4px;"/>
            </g>
            <g transform="matrix(1,0,0,1,281.604,382.327)">
                <path d="M0,-22.655C-0.285,-22.735 -0.57,-22.815 -0.854,-22.896C20.881,-17.518 41.649,-9.703 60.633,0.241" style="fill:none;stroke:rgb(87,87,86);stroke-width:4px;"/>
            </g>
            <g transform="matrix(1,0,0,1,433.648,379.353)">
                <path d="M0,40.609C5.855,40.969 10.252,43.204 15.971,44.51C16.456,27.921 19.995,11.427 26.357,-3.901" style="fill:none;stroke:rgb(29,29,27);stroke-width:5px;"/>
            </g>
        </g>
    </g>
</svg>
