<?xml version="1.0" encoding="UTF-8" standalone="no"?>
<!DOCTYPE svg PUBLIC "-//W3C//DTD SVG 1.1//EN" "http://www.w3.org/Graphics/SVG/1.1/DTD/svg11.dtd">
<svg width="100%" height="100%" viewBox="0 0 240 80" version="1.1" xmlns="http://www.w3.org/2000/svg" xmlns:xlink="http://www.w3.org/1999/xlink" xml:space="preserve" xmlns:serif="http://www.serif.com/" style="fill-rule:evenodd;clip-rule:evenodd;stroke-linejoin:round;stroke-miterlimit:1.41421;">
    <g transform="matrix(1,0,0,1,95.2581,31.199)">
        <path d="M0,9.093L3.117,5.202L10.945,-3.141L17.297,-3.141L6.867,7.991L17.953,22.781L11.484,22.781L3.164,11.413L0.141,13.898L0.141,22.781L-5.32,22.781L-5.32,-13.688L0.141,-13.688L0.141,4.101L-0.141,9.093L0,9.093Z" style="fill-rule:nonzero;"/>
    </g>
    <g transform="matrix(1,0,0,1,-159,-90.901)">
        <path d="M281.891,144.88L276.383,144.88L276.383,118.958L281.891,118.958L281.891,144.88ZM276.055,112.091C276.055,111.107 276.324,110.349 276.863,109.818C277.402,109.287 278.172,109.021 279.172,109.021C280.141,109.021 280.895,109.287 281.434,109.818C281.973,110.349 282.242,111.107 282.242,112.091C282.242,113.029 281.973,113.767 281.434,114.306C280.895,114.845 280.141,115.115 279.172,115.115C278.172,115.115 277.402,114.845 276.863,114.306C276.324,113.767 276.055,113.029 276.055,112.091" style="fill-rule:nonzero;"/>
    </g>
    <g transform="matrix(1,0,0,1,142.578,39.8699)">
        <path d="M0,-7.781C-2.219,-7.781 -3.816,-7.129 -4.793,-5.824C-5.77,-4.519 -6.273,-2.336 -6.305,0.727L-6.305,1.102C-6.305,4.258 -5.805,6.543 -4.805,7.957C-3.805,9.371 -2.172,10.078 0.094,10.078C2.047,10.078 3.527,9.305 4.535,7.758C5.543,6.211 6.047,3.977 6.047,1.055C6.047,-4.836 4.031,-7.781 0,-7.781M1.43,-12.281C4.664,-12.281 7.184,-11.109 8.988,-8.765C10.793,-6.422 11.695,-3.133 11.695,1.102C11.695,5.352 10.781,8.66 8.953,11.028C7.125,13.395 4.586,14.578 1.336,14.578C-1.945,14.578 -4.492,13.399 -6.305,11.039L-6.68,11.039L-7.687,14.11L-11.813,14.11L-11.813,-22.359L-6.305,-22.359L-6.305,-13.687C-6.305,-13.047 -6.336,-12.093 -6.398,-10.828C-6.461,-9.562 -6.508,-8.758 -6.539,-8.414L-6.305,-8.414C-4.555,-10.992 -1.977,-12.281 1.43,-12.281" style="fill-rule:nonzero;"/>
    </g>
    <g transform="matrix(1,0,0,1,168.688,31.8075)">
        <path d="M0,18.422C2,18.422 3.605,17.863 4.816,16.746C6.027,15.629 6.633,14.063 6.633,12.047L6.633,9.797L3.305,9.938C0.711,10.031 -1.176,10.465 -2.355,11.238C-3.535,12.012 -4.125,13.195 -4.125,14.789C-4.125,15.945 -3.781,16.84 -3.094,17.473C-2.406,18.106 -1.375,18.422 0,18.422M8.203,22.172L7.102,18.563L6.914,18.563C5.664,20.141 4.406,21.215 3.141,21.785C1.875,22.356 0.25,22.641 -1.734,22.641C-4.281,22.641 -6.27,21.953 -7.699,20.578C-9.129,19.203 -9.844,17.258 -9.844,14.742C-9.844,12.07 -8.852,10.055 -6.867,8.695C-4.883,7.336 -1.859,6.594 2.203,6.469L6.68,6.328L6.68,4.945C6.68,3.289 6.293,2.051 5.52,1.231C4.746,0.41 3.547,0 1.922,0C0.594,0 -0.68,0.195 -1.898,0.586C-3.117,0.977 -4.289,1.438 -5.414,1.969L-7.195,-1.969C-5.789,-2.703 -4.25,-3.262 -2.578,-3.644C-0.906,-4.027 0.672,-4.219 2.156,-4.219C5.453,-4.219 7.941,-3.5 9.621,-2.062C11.301,-0.625 12.141,1.633 12.141,4.711L12.141,22.172L8.203,22.172Z" style="fill-rule:nonzero;"/>
    </g>
    <g transform="matrix(1,0,0,1,211.321,27.5885)">
        <path d="M0,26.391L-5.531,26.391L-5.531,10.453C-5.531,8.454 -5.934,6.961 -6.738,5.977C-7.543,4.993 -8.82,4.5 -10.57,4.5C-12.898,4.5 -14.602,5.188 -15.68,6.563C-16.758,7.938 -17.297,10.243 -17.297,13.477L-17.297,26.391L-22.805,26.391L-22.805,0.469L-18.492,0.469L-17.719,3.868L-17.437,3.868C-16.656,2.633 -15.547,1.68 -14.109,1.008C-12.672,0.336 -11.078,0 -9.328,0C-3.109,0 0,3.164 0,9.493L0,26.391Z" style="fill-rule:nonzero;"/>
    </g>
    <g transform="matrix(1,0,0,1,227,31.8075)">
        <path d="M0,18.422C2,18.422 3.605,17.863 4.816,16.746C6.027,15.629 6.633,14.063 6.633,12.047L6.633,9.797L3.305,9.938C0.711,10.031 -1.176,10.465 -2.355,11.238C-3.535,12.012 -4.125,13.195 -4.125,14.789C-4.125,15.945 -3.781,16.84 -3.094,17.473C-2.406,18.106 -1.375,18.422 0,18.422M8.203,22.172L7.102,18.563L6.914,18.563C5.664,20.141 4.406,21.215 3.141,21.785C1.875,22.356 0.25,22.641 -1.734,22.641C-4.281,22.641 -6.27,21.953 -7.699,20.578C-9.129,19.203 -9.844,17.258 -9.844,14.742C-9.844,12.07 -8.852,10.055 -6.867,8.695C-4.883,7.336 -1.859,6.594 2.203,6.469L6.68,6.328L6.68,4.945C6.68,3.289 6.293,2.051 5.52,1.231C4.746,0.41 3.547,0 1.922,0C0.594,0 -0.68,0.195 -1.898,0.586C-3.117,0.977 -4.289,1.438 -5.414,1.969L-7.195,-1.969C-5.789,-2.703 -4.25,-3.262 -2.578,-3.644C-0.906,-4.027 0.672,-4.219 2.156,-4.219C5.453,-4.219 7.941,-3.5 9.621,-2.062C11.301,-0.625 12.141,1.633 12.141,4.711L12.141,22.172L8.203,22.172Z" style="fill-rule:nonzero;"/>
    </g>
    <g transform="matrix(1,0,0,1,29.575,79.9997)">
        <path d="M0,-43.489L-29.575,-8L-29.575,0L-25.828,0L7.125,-39.543C4.874,-40.996 2.489,-42.31 0,-43.489" style="fill:rgb(1,155,143);fill-rule:nonzero;"/>
    </g>
    <g transform="matrix(1,0,0,1,36.6956,79.9999)">
        <path d="M0,-39.537L-32.948,0L23.305,0C23.305,-16.092 14.171,-30.394 0,-39.537" style="fill:rgb(62,190,176);fill-rule:nonzero;"/>
    </g>
    <g transform="matrix(1,0,0,1,0.0003,30)">
        <path d="M0,42L29.58,6.504C20.848,2.372 10.759,0 0,0L0,42Z" style="fill:rgb(53,53,53);fill-rule:nonzero;"/>
    </g>
    <g transform="matrix(0,1,1,0,48.2523,-11.748)">
        <path d="M11.748,-48.252L41.748,-48.252C41.748,-37.493 44.12,-27.404 48.252,-18.672L11.748,11.748L11.748,-48.252Z" style="fill:rgb(240,78,152);fill-rule:nonzero;"/>
    </g>
</svg>
