<?xml version="1.0" encoding="UTF-8" standalone="no"?>
<!DOCTYPE svg PUBLIC "-//W3C//DTD SVG 1.1//EN" "http://www.w3.org/Graphics/SVG/1.1/DTD/svg11.dtd">
<svg width="100%" height="100%" viewBox="0 0 842 596" version="1.1" xmlns="http://www.w3.org/2000/svg" xmlns:xlink="http://www.w3.org/1999/xlink" xml:space="preserve" xmlns:serif="http://www.serif.com/" style="fill-rule:evenodd;clip-rule:evenodd;stroke-miterlimit:10;">
    <g transform="matrix(0.24,0,0,0.24,0,0)">
        <g id="Layer-2" serif:id="Layer 2" transform="matrix(4.16667,0,0,4.16667,0,0)">
            <g transform="matrix(1,0,0,1,321.129,438.994)">
                <path d="M0,-78.677C-0.34,-78.871 -0.746,-78.995 -1.235,-78.994C-1.598,-78.993 -1.96,-78.992 -2.323,-78.991C-6.596,-79.636 -10.709,-79.607 -14.974,-78.874C-16.444,-78.621 -16.943,-77.299 -16.702,-76.09C-16.972,-76.118 -17.228,-76.108 -17.468,-76.063C-17.412,-76.26 -17.343,-76.45 -17.29,-76.649C-16.959,-77.887 -17.701,-79.451 -19.036,-79.724C-22.139,-80.357 -23.74,-79.185 -26.218,-77.385C-28.653,-75.617 -31.058,-73.807 -33.463,-71.995C-36.558,-70.791 -39.502,-68.1 -41.692,-66.11C-44.514,-63.544 -49.972,-58.467 -49.828,-54.308C-49.812,-53.835 -49.737,-53.416 -49.617,-53.043C-50.186,-52.437 -50.649,-51.769 -50.962,-51.031C-50.5,-55.105 -49.512,-59.056 -47.325,-62.724C-47.013,-63.249 -46.949,-63.797 -47.044,-64.311C-45.493,-65.628 -46.859,-69.003 -49.522,-68.643C-54.168,-68.014 -56.806,-64.349 -58.016,-60.063C-58.408,-58.672 -58.734,-57.248 -59.031,-55.812C-59.467,-55.521 -59.805,-55.086 -59.932,-54.475C-60.216,-53.106 -60.503,-51.737 -60.79,-50.368C-60.976,-50.137 -61.123,-49.862 -61.213,-49.538C-62.358,-45.409 -63.504,-41.281 -64.649,-37.151C-64.84,-36.891 -64.988,-36.565 -65.075,-36.167C-65.321,-35.033 -65.586,-33.907 -65.861,-32.784C-66.58,-30.193 -67.298,-27.602 -68.017,-25.011C-69.905,-18.959 -72.24,-13.065 -75.045,-7.323C-75.062,-7.287 -75.069,-7.253 -75.084,-7.218C-75.3,-6.971 -75.521,-6.726 -75.749,-6.485L-78.286,-4.021C-80.606,-1.768 -77.116,1.68 -74.75,-0.486C-74.318,-0.881 -73.9,-1.274 -73.495,-1.666C-72.604,-0.991 -71.311,-0.82 -70.236,-1.772C-61.901,-9.151 -54.021,-16.997 -52.108,-28.425C-51.021,-34.92 -51.626,-41.815 -51.194,-48.465C-50.911,-47.611 -50.251,-46.958 -49.413,-46.767C-49.385,-46.711 -49.367,-46.649 -49.334,-46.598C-48.99,-46.065 -48.478,-45.594 -47.84,-45.449C-47.144,-45.29 -46.562,-45.414 -45.914,-45.701C-45.093,-46.065 -44.273,-46.428 -43.453,-46.79C-42.917,-47.028 -42.453,-47.745 -42.304,-48.284C-42.254,-48.468 -42.234,-48.671 -42.229,-48.878C-31.676,-52.95 -23.229,-61.255 -18.954,-71.728C-18.676,-71.503 -18.323,-71.332 -17.865,-71.258C-13.612,-70.571 -9.479,-70.952 -5.605,-72.444C-2.807,-72.546 -0.105,-73.224 2.517,-74.358C5.46,-75.63 2.923,-79.933 0,-78.677" style="fill:rgb(60,59,58);fill-rule:nonzero;"/>
            </g>
            <g transform="matrix(1,0,0,1,440.156,333.413)">
                <path d="M0,-5.336C0.484,-6.31 1.312,-6.783 1.782,-7.647C1.428,-6.697 1.203,-5.735 1.184,-4.839C0.156,-3.8 -1.404,-2.509 0,-5.336M51.817,-0.191C51.687,-1.052 50.834,-1.689 50.071,-1.938C49.307,-2.188 48.535,-2.221 47.788,-2.101C47.32,-3.233 45.972,-4.052 44.761,-3.643C44.724,-3.63 44.685,-3.613 44.646,-3.6C44.55,-4.5 44.074,-5.383 43.079,-6.196C41.88,-7.178 40.596,-7.316 39.358,-6.908C39.428,-7.09 39.493,-7.268 39.551,-7.44C40.233,-9.485 37.677,-11.423 35.878,-10.264C35.063,-9.737 34.063,-8.792 33.091,-7.623C33.143,-8.276 33.094,-8.923 32.919,-9.54C32.381,-11.449 30.142,-11.852 28.74,-10.644C28.591,-10.515 28.441,-10.372 28.292,-10.23C28.373,-10.602 28.435,-10.964 28.472,-11.309C28.668,-13.12 26.171,-14.53 24.71,-13.467C24.309,-13.174 23.892,-12.834 23.474,-12.458C23.083,-13.956 21.229,-15.052 19.784,-14.073C18.63,-13.291 17.369,-12.13 16.362,-10.8C16.444,-11.268 16.509,-11.735 16.534,-12.201C16.663,-14.52 13.788,-15.291 12.267,-13.969C10.404,-12.351 8.523,-9.36 8.498,-6.754C8.38,-6.68 8.27,-6.596 8.145,-6.53C8.021,-6.496 7.898,-6.461 7.774,-6.427C8.205,-7.699 8.479,-8.975 8.57,-10.132C8.738,-12.263 5.698,-13.471 4.303,-11.899C3.464,-10.954 2.613,-9.629 2.009,-8.223C2.04,-8.332 2.074,-8.437 2.094,-8.56C2.284,-9.769 1.936,-10.671 0.945,-11.383L0.488,-11.711C-0.171,-12.186 -1.376,-12.184 -2.036,-11.711L-2.42,-11.437C-3.43,-10.713 -3.662,-9.615 -3.421,-8.652C-4.136,-7.779 -5.183,-6.853 -5.537,-6.045C-6.012,-4.966 -6.207,-3.821 -6.056,-2.65C-5.753,-0.316 -4.03,1.498 -1.64,1.694C0.855,1.9 2.944,0.788 4.578,-0.93C4.743,-0.9 4.89,-0.858 5.069,-0.84C7.48,-0.585 9.65,-1.309 11.438,-2.617C11.539,-2.576 11.622,-2.526 11.729,-2.488C13.247,-1.949 14.726,-2.071 16.103,-2.602C16.392,-2.357 16.721,-2.12 17.097,-1.898C18.318,-1.178 19.493,-0.95 20.596,-1.077C20.997,-0.711 21.479,-0.366 22.059,-0.052C23.329,0.64 24.71,0.735 26.052,0.417C26.42,0.758 26.841,1.082 27.37,1.367C28.091,1.756 28.807,1.963 29.51,2.025C29.914,3.226 30.905,4.166 32.748,4.615C32.876,4.645 33.01,4.668 33.148,4.686C33.198,4.848 33.256,5.004 33.325,5.151C34.854,8.414 37.645,8.416 40.39,7.055C40.533,7.134 40.681,7.212 40.841,7.286C41.783,7.72 42.848,7.843 43.931,7.743C46.266,9.955 50.395,8.967 51.233,5.401C51.41,4.647 51.261,4.002 50.928,3.493C51.644,2.356 52.013,1.091 51.817,-0.191" style="fill:rgb(29,29,27);fill-rule:nonzero;"/>
            </g>
            <g transform="matrix(1,0,0,1,311.958,405.675)">
                <path d="M0,-2.554C-0.125,-3.019 -0.619,-3.174 -1.091,-3.183C-1.142,-3.27 -1.21,-3.349 -1.304,-3.409C-0.998,-3.718 -0.845,-4.133 -1.311,-4.431C-1.863,-4.783 -2.876,-4.525 -3.37,-4.184C-4.132,-3.657 -4.826,-3.056 -5.452,-2.393C-5.54,-2.333 -5.62,-2.262 -5.699,-2.189C-6.289,-2.516 -7.183,-2.212 -7.704,-1.917C-9.05,-1.154 -8.55,0.28 -7.378,0.734C-7.359,0.794 -7.333,0.853 -7.29,0.912C-7.08,1.196 -6.7,1.257 -6.314,1.225C-6.323,1.264 -6.332,1.303 -6.34,1.342C-6.458,1.875 -5.809,2.139 -5.403,2.176C-4.838,2.229 -4.052,2.029 -3.685,1.566C-3.176,0.924 -2.666,0.281 -2.157,-0.361C-1.983,-0.58 -1.921,-0.808 -1.948,-1.015C-1.697,-1.081 -1.445,-1.149 -1.194,-1.215C-0.648,-1.361 0.183,-1.871 0,-2.554" style="fill:rgb(29,29,27);fill-rule:nonzero;"/>
            </g>
            <g transform="matrix(1,0,0,1,325.911,400.999)">
                <path d="M0,0.163C-0.002,0.111 -0.021,0.06 -0.072,0.009C-0.201,-0.118 -0.329,-0.246 -0.458,-0.374C-0.342,-0.835 -0.556,-1.126 -0.922,-1.268L-0.944,-1.64C-1.018,-2.877 -3.013,-2.775 -3.669,-1.993C-4.908,-1.847 -6.06,-1.302 -7,-0.341C-7.32,-0.014 -7.378,0.662 -6.91,0.904C-6.147,1.299 -5.313,1.489 -4.479,1.506C-4.552,1.653 -4.562,1.818 -4.452,2.002C-4.001,2.747 -3.066,3.04 -2.234,2.992C-1.775,2.966 -1.348,2.891 -0.935,2.682C-0.712,2.568 -0.221,2.321 -0.215,2.013C-0.213,1.906 -0.215,1.809 -0.224,1.72C-0.046,1.603 0.114,1.468 0.223,1.296C0.471,0.904 0.392,0.401 0,0.163" style="fill:rgb(29,29,27);fill-rule:nonzero;"/>
            </g>
            <g transform="matrix(1,0,0,1,322.281,408.192)">
                <path d="M0,-0.841C0.295,-1.164 0.517,-1.675 0.196,-2.003C0.22,-2.062 0.215,-2.121 0.173,-2.181C-0.316,-2.862 -0.951,-2.916 -1.653,-2.807C-4.743,-3.717 -8.057,-2.903 -10.51,-0.664C-10.815,-0.59 -11.076,-0.495 -11.205,-0.394C-11.863,0.119 -12.211,0.471 -12.428,1.313C-12.543,1.763 -11.79,1.722 -11.416,1.678C-11.424,1.776 -11.417,1.879 -11.387,1.985C-11.139,2.876 -9.524,2.753 -8.87,2.722C-6.426,2.608 -3.531,1.819 -1.57,0.224C-1.458,0.198 -1.345,0.176 -1.231,0.145C-0.855,0.046 0.309,-0.549 0,-0.841" style="fill:rgb(195,0,100);fill-rule:nonzero;"/>
            </g>
            <g transform="matrix(1,0,0,1,235.519,299.014)">
                <path d="M0,12.769C0.552,12.734 1.111,12.608 1.668,12.392C3.223,13.208 4.783,13.221 6.26,12.678C6.292,12.697 6.327,12.711 6.36,12.729C3.635,13.406 0.904,13.966 -1.917,14.357C-1.256,14.035 -0.609,13.485 0,12.769M21.445,-8.128C20.469,-8.326 19.316,-7.831 18.785,-6.959C18.484,-7.018 18.174,-7.072 17.833,-7.102C13.703,-7.471 9.692,-6.459 5.716,-5.161C4.931,-5.254 4.19,-5.127 3.5,-4.831C1.257,-4.675 -0.97,-4.412 -3.183,-4.027C-5.601,-3.924 -7.913,-3.422 -10.304,-2.398C-10.666,-2.243 -10.96,-2.041 -11.194,-1.807C-11.92,-1.823 -12.641,-1.502 -13.162,-0.864C-14.669,-1.619 -17.018,-0.787 -16.929,1.431C-16.798,4.661 -15.504,8.88 -12.618,10.85C-11.836,11.739 -10.742,12.225 -9.263,12.064C-8.804,12.332 -8.315,12.54 -7.802,12.685C-7.144,13.719 -6.269,14.464 -5.19,14.759C-6.332,14.964 -6.967,15.805 -7.14,16.737C-8.31,18.112 -7.541,20.981 -5.116,21.008C2.517,21.095 9.553,17.772 17.123,17.385C20.343,17.221 20.036,12.229 16.823,12.393C16.673,12.401 16.525,12.416 16.375,12.426C15.98,11.389 14.991,10.551 13.678,10.748C13.879,10.565 14.074,10.376 14.267,10.184C17.076,9.16 19.987,5.66 21,3.906C22.233,1.772 23.023,-0.711 22.812,-2.786C23.097,-3.563 23.302,-4.367 23.399,-5.181C23.561,-6.521 22.842,-7.845 21.445,-8.128" style="fill:rgb(178,178,178);fill-rule:nonzero;"/>
            </g>
            <g transform="matrix(1,0,0,1,257.272,288.94)">
                <path d="M0,-8.453C-0.828,-9.814 -2.092,-10.69 -3.591,-11.22C-5.1,-12.593 -7.214,-13.53 -8.912,-14.888C-11.187,-16.707 -14.089,-13.772 -12.722,-11.705C-18.811,-11.375 -27.062,-11.803 -31.515,-7.728C-31.929,-7.35 -32.145,-6.938 -32.223,-6.529C-33.205,-5.707 -33.927,-4.552 -34.102,-3.271C-34.149,-3.27 -34.196,-3.282 -34.244,-3.278C-37.196,-3.021 -41.619,-2.368 -42.658,0.963C-42.703,1.107 -42.735,1.249 -42.764,1.389C-43.087,1.51 -43.403,1.704 -43.694,1.989C-43.826,2.118 -43.958,2.247 -44.089,2.376C-44.684,2.959 -44.858,4.06 -44.563,4.819C-43.227,8.254 -39.962,7.744 -37.035,5.899C-34.148,5.587 -30.199,4.239 -27.524,2.154C-26.99,2.06 -26.47,1.897 -25.984,1.665C-25.472,1.419 -25.024,1.116 -24.626,0.775C-22.604,2.057 -20.064,2.214 -17.791,0.278C-17.453,-0.01 -17.172,-0.333 -16.927,-0.672C-16.435,-0.913 -15.952,-1.182 -15.481,-1.471C-15.349,-1.42 -15.204,-1.39 -15.064,-1.35C-14.952,-0.285 -14.241,0.757 -13.105,0.904C-10.978,1.18 -9.107,0.798 -7.208,-0.168C-6.548,-0.503 -6.2,-1.251 -6.144,-2.016C-5.023,-1.957 -4.034,-2.355 -3.273,-3.048C-1.891,-1.693 1.05,-2.364 1.018,-4.791C1.757,-6.07 1.276,-7.854 0,-8.453" style="fill:rgb(255,237,0);fill-rule:nonzero;"/>
            </g>
            <g transform="matrix(1,0,0,1,446.075,368.175)">
                <path d="M0,0.338C0.069,-0.139 -0.324,-0.475 -0.754,-0.671C-0.767,-0.771 -0.799,-0.87 -0.86,-0.963C-0.457,-1.126 -0.152,-1.447 -0.463,-1.904C-0.831,-2.446 -1.864,-2.609 -2.452,-2.49C-3.36,-2.308 -4.235,-2.029 -5.072,-1.668C-5.177,-1.647 -5.278,-1.614 -5.38,-1.578C-5.793,-2.112 -6.733,-2.185 -7.329,-2.12C-8.867,-1.951 -8.974,-0.435 -8.077,0.444C-8.083,0.506 -8.083,0.571 -8.066,0.643C-7.985,0.986 -7.661,1.192 -7.294,1.316C-7.317,1.348 -7.341,1.381 -7.364,1.413C-7.683,1.856 -7.19,2.355 -6.833,2.55C-6.334,2.82 -5.533,2.947 -5.013,2.667C-4.291,2.278 -3.569,1.89 -2.848,1.5C-2.602,1.367 -2.455,1.183 -2.398,0.983C-2.141,1.021 -1.884,1.058 -1.626,1.096C-1.066,1.178 -0.102,1.037 0,0.338" style="fill:rgb(29,29,27);fill-rule:nonzero;"/>
            </g>
            <g transform="matrix(1,0,0,1,460.488,372.733)">
                <path d="M0,-2.902C-0.309,-2.881 -0.628,-2.833 -0.946,-2.762C-0.83,-3.787 -2.49,-4.367 -3.34,-3.939C-4.536,-4.294 -5.81,-4.248 -7.054,-3.737C-7.477,-3.562 -7.797,-2.964 -7.462,-2.556C-6.917,-1.893 -6.226,-1.389 -5.467,-1.045C-5.591,-0.938 -5.667,-0.791 -5.637,-0.578C-5.518,0.285 -4.774,0.923 -3.99,1.208C-3.56,1.365 -3.137,1.465 -2.675,1.435C-2.425,1.419 -1.877,1.386 -1.749,1.105C-1.705,1.008 -1.67,0.919 -1.642,0.832C-1.433,0.796 -1.232,0.735 -1.064,0.62C-0.681,0.359 -0.556,-0.135 -0.821,-0.509C-0.806,-0.548 -0.812,-0.597 -0.825,-0.65C-0.492,-0.793 -0.203,-0.998 -0.133,-1.289C-0.098,-1.433 -0.136,-1.539 -0.217,-1.616C0.163,-1.728 0.521,-1.906 0.745,-2.201C1.144,-2.723 0.401,-2.928 0,-2.902" style="fill:rgb(29,29,27);fill-rule:nonzero;"/>
            </g>
            <g transform="matrix(1,0,0,1,453.888,372.448)">
                <path d="M0,4.028C0.399,3.847 0.804,3.466 0.64,3.038C0.685,2.993 0.704,2.936 0.687,2.865C0.508,2.047 -0.054,1.746 -0.742,1.569C-3.221,-0.488 -6.587,-1.049 -9.726,0.039C-10.034,-0.013 -10.312,-0.029 -10.471,0.012C-11.277,0.223 -11.737,0.41 -12.268,1.097C-12.552,1.465 -11.844,1.726 -11.482,1.833C-11.529,1.92 -11.563,2.016 -11.578,2.127C-11.701,3.043 -10.17,3.567 -9.556,3.798C-7.266,4.658 -4.295,5.077 -1.863,4.386C-1.749,4.407 -1.638,4.43 -1.521,4.448C-1.137,4.505 0.169,4.418 0,4.028" style="fill:rgb(195,0,100);fill-rule:nonzero;"/>
            </g>
            <g transform="matrix(1,0,0,1,450.589,410.266)">
                <path d="M0,12.816C-0.068,12.828 -0.137,12.837 -0.205,12.848C-0.585,11.963 -1.483,11.397 -2.411,11.304C-3.313,9.983 -4.252,8.69 -5.233,7.427C-5.776,3.369 -7.618,-0.392 -10.537,-3.46C-11.776,-4.763 -13.623,-4.196 -14.411,-2.929C-15.342,-2.65 -16.13,-1.891 -16.194,-0.646C-16.231,0.577 -16.345,1.78 -16.542,2.97C-17.343,1.862 -18.958,1.473 -20.249,2.609C-19.815,1.132 -19.431,-0.362 -19.106,-1.879C-18.437,-5.008 -23.032,-6.323 -23.928,-3.208C-23.991,-2.989 -24.063,-2.765 -24.13,-2.543C-24.147,-2.53 -24.167,-2.521 -24.184,-2.506C-28.505,1.075 -31.54,5.789 -33.056,11.137C-33.448,11.89 -33.824,12.656 -34.167,13.444C-35.362,16.19 -32.17,18.361 -30.218,16.408C-29.667,16.755 -28.904,16.956 -27.878,16.962C-24.938,16.978 -23.798,14.351 -23.079,11.936C-22.771,10.905 -22.478,9.868 -22.179,8.834C-22.117,8.866 -22.053,8.892 -21.988,8.92C-22.323,10.973 -22.499,13.166 -22.097,14.707C-22.093,14.95 -22.063,15.203 -21.975,15.474C-20.895,18.784 -17.869,19.128 -14.771,19.131C-9.371,19.139 -3.987,18.534 1.329,17.637C4.495,17.104 3.152,12.285 0,12.816" style="fill:rgb(236,102,7);fill-rule:nonzero;"/>
            </g>
            <g transform="matrix(1,0,0,1,460.481,424.13)">
                <path d="M0,-9.028C-0.561,-9.953 -1.759,-10.503 -2.823,-10.176C-3.701,-9.908 -4.464,-9.306 -4.96,-8.549C-5.555,-8.154 -5.996,-7.514 -6.05,-6.611C-6.164,-4.669 -5.956,-2.734 -5.483,-0.848C-5.007,1.057 -2.654,1.475 -1.306,0.255C1.27,-2.075 1.788,-6.078 0,-9.028" style="fill:rgb(236,102,7);fill-rule:nonzero;"/>
            </g>
            <g transform="matrix(1,0,0,1,459.675,411.038)">
                <path d="M0,-5.791C-0.696,-6.538 -1.586,-6.992 -2.516,-7.184C-2.686,-7.282 -2.861,-7.366 -3.044,-7.416C-3.839,-7.635 -4.553,-7.445 -5.117,-7.02C-6.429,-6.556 -7.509,-5.502 -7.841,-3.898C-8.199,-2.169 -7.454,-0.436 -5.897,0.43C-5.687,0.546 -5.476,0.64 -5.263,0.717C-4.483,1.424 -3.465,1.844 -2.373,1.798C-0.609,1.726 0.716,0.396 1.187,-1.234C1.65,-2.84 1.116,-4.593 0,-5.791" style="fill:rgb(236,102,7);fill-rule:nonzero;"/>
            </g>
            <g transform="matrix(1,0,0,1,489.31,412.903)">
                <path d="M0,10.082C-0.538,4.844 -2.487,0.328 -6.005,-3.647C-6.798,-4.544 -7.722,-4.638 -8.498,-4.286C-8.881,-4.327 -9.268,-4.296 -9.63,-4.192C-10.487,-5.291 -12.374,-5.673 -13.499,-4.579C-14.583,-3.524 -15.477,-2.368 -16.222,-1.142C-16.76,-0.711 -17.123,-0.09 -17.15,0.614C-17.33,1.01 -17.517,1.403 -17.667,1.811C-19.213,3.263 -22.185,6.005 -23.396,7.327C-23.543,7.364 -23.685,7.409 -23.826,7.454C-25.162,6.182 -28.071,6.765 -28.166,9.207C-28.225,10.704 -27.536,11.81 -26.516,12.43C-26.25,13.054 -25.756,13.556 -24.974,13.761C-23.526,14.139 -22.046,14.498 -20.551,14.662C-20.095,15.125 -19.46,15.417 -18.761,15.452C-12.597,15.755 -6.457,15.631 -0.31,15.079C2.761,14.804 2.884,10.144 0,10.082" style="fill:rgb(236,102,7);fill-rule:nonzero;"/>
            </g>
            <g transform="matrix(1,0,0,1,370.769,82.2831)">
                <path d="M0,9.421C0.51,9.504 1.046,9.495 1.601,9.391C2.838,10.583 4.255,10.936 5.718,10.69C5.743,10.716 5.771,10.738 5.798,10.764C3.17,10.879 0.561,10.87 -2.092,10.665C-1.42,10.472 -0.71,10.037 0,9.421M24.085,-7.764C23.239,-8.184 22.082,-7.917 21.408,-7.121C21.147,-7.248 20.876,-7.372 20.573,-7.477C16.894,-8.762 13.022,-8.578 9.119,-8.086C8.426,-8.355 7.724,-8.383 7.031,-8.223C4.955,-8.549 2.871,-8.758 0.772,-8.838C-1.451,-9.257 -3.666,-9.235 -6.066,-8.684C-6.429,-8.601 -6.741,-8.454 -7.005,-8.261C-7.662,-8.435 -8.388,-8.256 -9.001,-7.703C-10.208,-8.821 -12.529,-8.461 -12.932,-6.123C-13.519,-2.717 -13.262,1.978 -11.066,4.667C-10.548,5.767 -9.659,6.514 -8.277,6.668C-7.917,7.047 -7.519,7.372 -7.083,7.635C-6.709,8.86 -6.077,9.83 -5.159,10.372C-6.243,10.338 -7.004,11.08 -7.366,12.017C-8.731,13.199 -8.658,16.368 -6.457,16.925C0.472,18.678 7.603,16.733 14.577,17.978C17.543,18.507 18.355,13.219 15.395,12.692C15.256,12.667 15.118,12.651 14.98,12.629C14.847,11.458 14.129,10.367 12.892,10.286C13.114,10.138 13.333,9.983 13.55,9.825C16.331,9.364 19.746,6.338 21.051,4.724C22.639,2.761 23.9,0.336 24.162,-1.879C24.591,-2.63 24.953,-3.427 25.22,-4.256C25.659,-5.622 25.294,-7.164 24.085,-7.764" style="fill:rgb(178,178,178);fill-rule:nonzero;"/>
            </g>
            <g transform="matrix(1,0,0,1,395.782,63.0994)">
                <path d="M0,2.903C-0.448,1.31 -1.389,0.126 -2.613,-0.75C-3.665,-2.504 -5.35,-3.937 -6.575,-5.716C-8.215,-8.099 -11.427,-5.686 -10.648,-3.244C-16.146,-4.228 -23.409,-6.47 -28.245,-3.212C-28.693,-2.909 -28.973,-2.53 -29.13,-2.121C-30.18,-1.483 -31.07,-0.442 -31.498,0.849C-31.541,0.84 -31.58,0.818 -31.623,0.811C-34.309,0.434 -38.39,0.149 -40.024,3.378C-40.095,3.518 -40.154,3.658 -40.209,3.798C-40.524,3.852 -40.846,3.985 -41.166,4.217C-41.311,4.322 -41.456,4.427 -41.601,4.533C-42.255,5.008 -42.645,6.112 -42.543,6.965C-42.083,10.82 -39.064,11.002 -36.063,9.725C-33.423,10.031 -29.617,9.493 -26.789,7.912C-26.292,7.93 -25.794,7.875 -25.312,7.739C-24.804,7.596 -24.34,7.38 -23.912,7.112C-22.383,8.884 -20.152,9.6 -17.714,8.086C-17.352,7.861 -17.033,7.587 -16.743,7.288C-16.252,7.146 -15.765,6.971 -15.284,6.775C-15.177,6.857 -15.054,6.92 -14.938,6.991C-15.064,8.12 -14.652,9.357 -13.671,9.757C-11.834,10.507 -10.085,10.518 -8.187,9.929C-7.528,9.725 -7.058,9.025 -6.845,8.243C-5.859,8.549 -4.893,8.351 -4.067,7.798C-3.123,9.506 -0.359,9.45 0.128,6.925C1.06,5.759 1.01,3.802 0,2.903" style="fill:rgb(255,237,0);fill-rule:nonzero;"/>
            </g>
            <g transform="matrix(1,0,0,1,289.508,472.077)">
                <path d="M0,-27.768C0.057,-27.906 0.127,-28.035 0.165,-28.182C1.178,-32.23 -1.515,-36.997 -5.059,-38.891C-5.633,-39.198 -6.353,-39.2 -6.979,-38.98C-11.924,-40.2 -17.43,-33.43 -19.821,-29.239C-22.06,-25.317 -23.633,-20.678 -24.332,-15.937C-25.993,-10.837 -26.922,-4.549 -24.165,-0.483C-24.506,2.879 -23.965,6.163 -21.286,8.559C-16.958,12.432 -9.848,11.526 -5.675,7.922C-5.548,7.812 -5.437,7.692 -5.315,7.579C-3.279,8.405 -0.367,7.072 -0.247,4.376C-0.151,2.234 -0.185,0.069 -0.289,-2.107C0.427,-5.435 0.594,-8.944 0.65,-12.149C0.668,-13.221 0.677,-14.348 0.664,-15.504C0.681,-16.094 0.691,-16.669 0.713,-17.205C0.863,-20.797 0.541,-24.251 0,-27.768" style="fill:rgb(236,102,7);fill-rule:nonzero;"/>
            </g>
            <g transform="matrix(1,0,0,1,320.981,556.233)">
                <path d="M0,-47.365C-0.255,-49.762 -3.493,-51.552 -4.793,-48.983C-6.12,-49.818 -7.985,-49.742 -8.745,-48.106C-10.126,-49.641 -12.686,-49.684 -14.427,-48.31C-15.332,-49.071 -16.515,-49.544 -17.981,-49.544C-23.838,-49.544 -25.219,-42.019 -22.119,-38.473C-22.91,-31.614 -22.651,-24.77 -22.05,-17.721C-21.985,-16.962 -21.791,-16.275 -21.514,-15.651C-21.937,-15.063 -22.359,-14.474 -22.782,-13.886C-22.82,-12.939 -22.844,-11.992 -22.854,-11.045C-22.902,-8.206 -22.896,-5.368 -22.929,-2.529C-22.978,1.833 -19.218,4.187 -15.621,3.493C-11.624,2.724 -6.042,1.975 -2.678,-0.548C1.006,-3.31 0.341,-7.508 0.107,-11.771C-0.541,-23.597 1.247,-35.639 0,-47.365" style="fill:rgb(25,187,239);fill-rule:nonzero;"/>
            </g>
            <g transform="matrix(1,0,0,1,343.83,87.4498)">
                <path d="M0,-6.922L-10.03,-4.376C-12.496,-3.75 -12.085,0.633 -9.591,0C-6.248,-0.849 -2.904,-1.698 0.439,-2.546C2.905,-3.172 2.494,-7.555 0,-6.922" style="fill:rgb(255,237,0);fill-rule:nonzero;"/>
            </g>
            <g transform="matrix(1,0,0,1,341.678,57.92)">
                <path d="M0,-0.296C-2.179,-1.559 -4.358,-2.823 -6.537,-4.086C-8.759,-5.374 -10.369,-1.279 -8.164,0C-5.984,1.263 -3.805,2.526 -1.626,3.789C0.596,5.078 2.205,0.982 0,-0.296" style="fill:rgb(255,237,0);fill-rule:nonzero;"/>
            </g>
            <g transform="matrix(1,0,0,1,390.215,41.705)">
                <path d="M0,-10.999C-2.091,-7.804 -4.554,-5.095 -7.441,-2.816C-9.549,-1.153 -7.232,2.331 -5.13,0.671C-1.988,-1.808 0.768,-4.837 3.043,-8.313C4.566,-10.641 1.526,-13.33 0,-10.999" style="fill:rgb(255,237,0);fill-rule:nonzero;"/>
            </g>
            <g transform="matrix(1,0,0,1,416.336,63.7022)">
                <path d="M0,-3.671C-3.285,-3.292 -6.487,-3.501 -9.689,-4.232C-12.153,-4.794 -12.757,-0.403 -10.305,0.156C-6.768,0.963 -3.186,1.123 0.438,0.704C2.962,0.413 2.526,-3.962 0,-3.671" style="fill:rgb(255,237,0);fill-rule:nonzero;"/>
            </g>
            <g transform="matrix(1,0,0,1,416.027,90.3387)">
                <path d="M0,2.318C-3.39,1.297 -6.352,-0.426 -8.994,-2.978C-10.887,-4.806 -13.37,-1.284 -11.486,0.535C-8.626,3.298 -5.299,5.298 -1.626,6.403C0.765,7.124 2.416,3.045 0,2.318" style="fill:rgb(255,237,0);fill-rule:nonzero;"/>
            </g>
        </g>
        <g id="Layer-1" serif:id="Layer 1" transform="matrix(4.16667,0,0,4.16667,0,0)">
            <g transform="matrix(0.0110416,-0.999939,0.999939,0.0110416,0,0)">
                <path d="M-552.801,678.764C-552.801,679.316 -552.899,679.858 -553.095,680.39C-553.291,680.922 -553.573,681.396 -553.941,681.812C-554.309,682.228 -554.761,682.564 -555.297,682.82C-555.833,683.076 -556.437,683.204 -557.109,683.204C-557.781,683.204 -558.385,683.076 -558.921,682.82C-559.457,682.564 -559.909,682.228 -560.277,681.812C-560.645,681.396 -560.927,680.922 -561.123,680.39C-561.319,679.858 -561.417,679.316 -561.417,678.764C-561.417,678.212 -561.319,677.67 -561.123,677.138C-560.927,676.606 -560.645,676.132 -560.277,675.716C-559.909,675.3 -559.457,674.964 -558.921,674.708C-558.385,674.452 -557.781,674.324 -557.109,674.324C-556.437,674.324 -555.833,674.452 -555.297,674.708C-554.761,674.964 -554.309,675.3 -553.941,675.716C-553.573,676.132 -553.291,676.606 -553.095,677.138C-552.899,677.67 -552.801,678.212 -552.801,678.764ZM-553.557,678.764C-553.557,678.292 -553.641,677.83 -553.809,677.378C-553.977,676.926 -554.215,676.526 -554.523,676.178C-554.831,675.83 -555.203,675.55 -555.639,675.338C-556.075,675.126 -556.565,675.02 -557.109,675.02C-557.653,675.02 -558.143,675.126 -558.579,675.338C-559.015,675.55 -559.387,675.83 -559.695,676.178C-560.003,676.526 -560.241,676.926 -560.409,677.378C-560.577,677.83 -560.661,678.292 -560.661,678.764C-560.661,679.236 -560.577,679.698 -560.409,680.15C-560.241,680.602 -560.003,681.002 -559.695,681.35C-559.387,681.698 -559.015,681.978 -558.579,682.19C-558.143,682.402 -557.653,682.508 -557.109,682.508C-556.565,682.508 -556.075,682.402 -555.639,682.19C-555.203,681.978 -554.831,681.698 -554.523,681.35C-554.215,681.002 -553.977,680.602 -553.809,680.15C-553.641,679.698 -553.557,679.236 -553.557,678.764ZM-557.097,681.236C-557.409,681.236 -557.693,681.178 -557.949,681.062C-558.205,680.946 -558.427,680.782 -558.615,680.57C-558.803,680.358 -558.947,680.104 -559.047,679.808C-559.147,679.512 -559.197,679.18 -559.197,678.812C-559.197,678.38 -559.139,678.002 -559.023,677.678C-558.907,677.354 -558.749,677.084 -558.549,676.868C-558.349,676.652 -558.115,676.49 -557.847,676.382C-557.579,676.274 -557.297,676.22 -557.001,676.22C-556.737,676.22 -556.483,676.252 -556.239,676.316C-555.995,676.38 -555.765,676.492 -555.549,676.652C-555.509,676.684 -555.489,676.716 -555.489,676.748C-555.489,676.78 -555.497,676.816 -555.513,676.856L-555.657,677.18C-555.705,677.268 -555.777,677.284 -555.873,677.228C-556.257,676.996 -556.629,676.88 -556.989,676.88C-557.437,676.88 -557.789,677.042 -558.045,677.366C-558.301,677.69 -558.429,678.156 -558.429,678.764C-558.429,679.364 -558.299,679.816 -558.039,680.12C-557.779,680.424 -557.433,680.576 -557.001,680.576C-556.809,680.576 -556.617,680.548 -556.425,680.492C-556.233,680.436 -556.045,680.364 -555.861,680.276C-555.749,680.228 -555.677,680.256 -555.645,680.36L-555.561,680.66C-555.537,680.756 -555.557,680.82 -555.621,680.852C-555.853,680.988 -556.089,681.086 -556.329,681.146C-556.569,681.206 -556.825,681.236 -557.097,681.236Z" style="fill:rgb(29,29,27);fill-rule:nonzero;"/>
                <path d="M-548.109,683.084C-548.245,683.084 -548.313,683.02 -548.313,682.892L-548.313,674.636C-548.313,674.508 -548.245,674.444 -548.109,674.444L-546.225,674.444C-545.209,674.444 -544.477,674.664 -544.029,675.104C-543.637,675.48 -543.441,676.012 -543.441,676.7C-543.441,677.076 -543.533,677.426 -543.717,677.75C-543.901,678.074 -544.145,678.32 -544.449,678.488C-543.977,678.64 -543.613,678.898 -543.357,679.262C-543.101,679.626 -542.973,680.068 -542.973,680.588C-542.973,681.068 -543.051,681.468 -543.207,681.788C-543.363,682.108 -543.575,682.364 -543.843,682.556C-544.111,682.748 -544.423,682.884 -544.779,682.964C-545.135,683.044 -545.513,683.084 -545.913,683.084L-548.109,683.084ZM-546.081,682.304C-545.761,682.304 -545.469,682.278 -545.205,682.226C-544.941,682.174 -544.713,682.084 -544.521,681.956C-544.329,681.828 -544.181,681.654 -544.077,681.434C-543.973,681.214 -543.921,680.936 -543.921,680.6C-543.921,680.128 -544.057,679.756 -544.329,679.484C-544.497,679.316 -544.711,679.194 -544.971,679.118C-545.231,679.042 -545.553,679.004 -545.937,679.004L-547.389,679.004L-547.389,682.304L-546.081,682.304ZM-546.165,678.26C-545.549,678.26 -545.097,678.132 -544.809,677.876C-544.521,677.62 -544.377,677.24 -544.377,676.736C-544.377,676.264 -544.501,675.904 -544.749,675.656C-544.901,675.512 -545.095,675.404 -545.331,675.332C-545.567,675.26 -545.865,675.224 -546.225,675.224L-547.389,675.224L-547.389,678.26L-546.165,678.26Z" style="fill:rgb(29,29,27);fill-rule:nonzero;"/>
                <path d="M-539.073,683.204C-539.569,683.204 -539.997,683.13 -540.357,682.982C-540.717,682.834 -541.017,682.624 -541.257,682.352C-541.497,682.08 -541.675,681.752 -541.791,681.368C-541.907,680.984 -541.965,680.556 -541.965,680.084C-541.965,679.58 -541.897,679.116 -541.761,678.692C-541.625,678.268 -541.433,677.902 -541.185,677.594C-540.937,677.286 -540.637,677.048 -540.285,676.88C-539.933,676.712 -539.537,676.628 -539.097,676.628C-538.673,676.628 -538.303,676.71 -537.987,676.874C-537.671,677.038 -537.407,677.264 -537.195,677.552C-536.983,677.84 -536.825,678.182 -536.721,678.578C-536.617,678.974 -536.565,679.404 -536.565,679.868C-536.565,680.116 -536.633,680.24 -536.769,680.24L-541.041,680.24C-541.025,680.976 -540.837,681.518 -540.477,681.866C-540.117,682.214 -539.585,682.388 -538.881,682.388C-538.649,682.388 -538.401,682.358 -538.137,682.298C-537.873,682.238 -537.597,682.14 -537.309,682.004C-537.205,681.956 -537.129,681.98 -537.081,682.076L-536.925,682.448C-536.885,682.552 -536.917,682.636 -537.021,682.7C-537.589,683.036 -538.273,683.204 -539.073,683.204ZM-539.085,677.444C-539.637,677.444 -540.075,677.622 -540.399,677.978C-540.723,678.334 -540.929,678.832 -541.017,679.472L-537.465,679.472C-537.465,679.232 -537.497,678.992 -537.561,678.752C-537.625,678.512 -537.723,678.296 -537.855,678.104C-537.987,677.912 -538.155,677.754 -538.359,677.63C-538.563,677.506 -538.805,677.444 -539.085,677.444Z" style="fill:rgb(29,29,27);fill-rule:nonzero;"/>
                <path d="M-534.189,678.092C-533.989,677.668 -533.709,677.328 -533.349,677.072C-532.989,676.816 -532.613,676.688 -532.221,676.688C-532.125,676.688 -532.055,676.7 -532.011,676.724C-531.967,676.748 -531.945,676.804 -531.945,676.892L-531.945,677.312C-531.945,677.36 -531.955,677.4 -531.975,677.432C-531.995,677.464 -532.037,677.488 -532.101,677.504C-532.413,677.56 -532.675,677.64 -532.887,677.744C-533.099,677.848 -533.285,677.98 -533.445,678.14C-533.701,678.396 -533.885,678.712 -533.997,679.088C-534.109,679.464 -534.165,679.96 -534.165,680.576L-534.165,682.916C-534.165,683.028 -534.225,683.084 -534.345,683.084L-534.861,683.084C-534.981,683.084 -535.041,683.028 -535.041,682.916L-535.041,679.292C-535.041,678.828 -535.043,678.394 -535.047,677.99C-535.051,677.586 -535.061,677.228 -535.077,676.916C-535.077,676.804 -535.017,676.748 -534.897,676.748L-534.429,676.748C-534.301,676.748 -534.233,676.804 -534.225,676.916C-534.209,677.052 -534.199,677.232 -534.195,677.456C-534.191,677.68 -534.189,677.892 -534.189,678.092Z" style="fill:rgb(29,29,27);fill-rule:nonzero;"/>
                <path d="M-526.617,682.376C-526.825,682.624 -527.107,682.824 -527.463,682.976C-527.819,683.128 -528.189,683.204 -528.573,683.204C-528.893,683.204 -529.201,683.15 -529.497,683.042C-529.793,682.934 -530.045,682.776 -530.253,682.568C-530.477,682.344 -530.635,682.068 -530.727,681.74C-530.819,681.412 -530.865,680.996 -530.865,680.492L-530.865,676.916C-530.865,676.804 -530.805,676.748 -530.685,676.748L-530.169,676.748C-530.049,676.748 -529.989,676.804 -529.989,676.916L-529.989,679.976C-529.989,680.488 -529.969,680.89 -529.929,681.182C-529.889,681.474 -529.789,681.716 -529.629,681.908C-529.389,682.196 -528.977,682.34 -528.393,682.34C-528.153,682.34 -527.897,682.294 -527.625,682.202C-527.353,682.11 -527.137,681.984 -526.977,681.824C-526.921,681.76 -526.861,681.666 -526.797,681.542C-526.733,681.418 -526.689,681.204 -526.665,680.9C-526.649,680.716 -526.637,680.486 -526.629,680.21C-526.621,679.934 -526.617,679.6 -526.617,679.208L-526.617,676.916C-526.617,676.804 -526.557,676.748 -526.437,676.748L-525.921,676.748C-525.801,676.748 -525.741,676.804 -525.741,676.916L-525.741,683.276C-525.741,683.732 -525.797,684.138 -525.909,684.494C-526.021,684.85 -526.205,685.156 -526.461,685.412C-526.685,685.636 -526.965,685.808 -527.301,685.928C-527.637,686.048 -528.053,686.108 -528.549,686.108C-528.813,686.108 -529.087,686.088 -529.371,686.048C-529.655,686.008 -529.869,685.968 -530.013,685.928C-530.093,685.904 -530.141,685.874 -530.157,685.838C-530.173,685.802 -530.173,685.756 -530.157,685.7L-530.085,685.352C-530.069,685.28 -530.045,685.234 -530.013,685.214C-529.981,685.194 -529.921,685.192 -529.833,685.208C-529.617,685.248 -529.409,685.28 -529.209,685.304C-529.009,685.328 -528.781,685.34 -528.525,685.34C-528.181,685.34 -527.891,685.294 -527.655,685.202C-527.419,685.11 -527.229,684.984 -527.085,684.824C-526.917,684.632 -526.797,684.402 -526.725,684.134C-526.653,683.866 -526.617,683.552 -526.617,683.192L-526.617,682.376Z" style="fill:rgb(29,29,27);fill-rule:nonzero;"/>
                <path d="M-523.065,681.716C-523.065,681.98 -523.039,682.162 -522.987,682.262C-522.935,682.362 -522.805,682.412 -522.597,682.412C-522.485,682.412 -522.429,682.464 -522.429,682.568L-522.429,682.808C-522.429,682.872 -522.437,682.918 -522.453,682.946C-522.469,682.974 -522.501,682.996 -522.549,683.012C-522.589,683.028 -522.651,683.044 -522.735,683.06C-522.819,683.076 -522.905,683.084 -522.993,683.084C-523.193,683.084 -523.361,683.046 -523.497,682.97C-523.633,682.894 -523.733,682.792 -523.797,682.664C-523.861,682.552 -523.901,682.406 -523.917,682.226C-523.933,682.046 -523.941,681.8 -523.941,681.488L-523.941,676.892C-523.941,676.356 -523.945,675.918 -523.953,675.578C-523.961,675.238 -523.969,674.964 -523.977,674.756C-523.985,674.548 -523.993,674.394 -524.001,674.294C-524.009,674.194 -524.013,674.116 -524.013,674.06C-524.013,673.948 -523.961,673.892 -523.857,673.892L-523.317,673.892C-523.213,673.892 -523.157,673.936 -523.149,674.024C-523.125,674.208 -523.105,674.554 -523.089,675.062C-523.073,675.57 -523.065,676.232 -523.065,677.048L-523.065,681.716Z" style="fill:rgb(29,29,27);fill-rule:nonzero;"/>
                <path d="M-517.857,683.084C-517.993,683.084 -518.061,683.02 -518.061,682.892L-518.061,674.636C-518.061,674.508 -517.993,674.444 -517.857,674.444L-517.341,674.444C-517.205,674.444 -517.137,674.508 -517.137,674.636L-517.137,678.32L-513.105,678.32L-513.105,674.636C-513.105,674.508 -513.037,674.444 -512.901,674.444L-512.385,674.444C-512.249,674.444 -512.181,674.508 -512.181,674.636L-512.181,682.892C-512.181,683.02 -512.249,683.084 -512.385,683.084L-512.901,683.084C-513.037,683.084 -513.105,683.02 -513.105,682.892L-513.105,679.1L-517.137,679.1L-517.137,682.892C-517.137,683.02 -517.205,683.084 -517.341,683.084L-517.857,683.084Z" style="fill:rgb(29,29,27);fill-rule:nonzero;"/>
                <path d="M-507.921,683.204C-508.393,683.204 -508.799,683.124 -509.139,682.964C-509.479,682.804 -509.759,682.582 -509.979,682.298C-510.199,682.014 -510.361,681.682 -510.465,681.302C-510.569,680.922 -510.621,680.512 -510.621,680.072C-510.621,679.496 -510.549,678.992 -510.405,678.56C-510.261,678.128 -510.057,677.77 -509.793,677.486C-509.529,677.202 -509.217,676.988 -508.857,676.844C-508.497,676.7 -508.101,676.628 -507.669,676.628C-507.197,676.628 -506.791,676.708 -506.451,676.868C-506.111,677.028 -505.831,677.25 -505.611,677.534C-505.391,677.818 -505.229,678.15 -505.125,678.53C-505.021,678.91 -504.969,679.32 -504.969,679.76C-504.969,680.336 -505.041,680.84 -505.185,681.272C-505.329,681.704 -505.533,682.062 -505.797,682.346C-506.061,682.63 -506.373,682.844 -506.733,682.988C-507.093,683.132 -507.489,683.204 -507.921,683.204ZM-507.873,682.412C-507.633,682.412 -507.393,682.368 -507.153,682.28C-506.913,682.192 -506.701,682.048 -506.517,681.848C-506.333,681.648 -506.183,681.384 -506.067,681.056C-505.951,680.728 -505.893,680.328 -505.893,679.856C-505.893,679.592 -505.919,679.316 -505.971,679.028C-506.023,678.74 -506.117,678.478 -506.253,678.242C-506.389,678.006 -506.575,677.81 -506.811,677.654C-507.047,677.498 -507.349,677.42 -507.717,677.42C-507.957,677.42 -508.197,677.464 -508.437,677.552C-508.677,677.64 -508.889,677.784 -509.073,677.984C-509.257,678.184 -509.407,678.448 -509.523,678.776C-509.639,679.104 -509.697,679.504 -509.697,679.976C-509.697,680.24 -509.671,680.516 -509.619,680.804C-509.567,681.092 -509.473,681.354 -509.337,681.59C-509.201,681.826 -509.015,682.022 -508.779,682.178C-508.543,682.334 -508.241,682.412 -507.873,682.412Z" style="fill:rgb(29,29,27);fill-rule:nonzero;"/>
                <path d="M-500.361,679.34C-500.361,678.708 -500.313,678.128 -500.217,677.6C-500.121,677.072 -499.997,676.59 -499.845,676.154C-499.693,675.718 -499.523,675.326 -499.335,674.978C-499.147,674.63 -498.965,674.324 -498.789,674.06C-498.709,673.948 -498.625,673.916 -498.537,673.964L-498.213,674.12C-498.093,674.184 -498.065,674.268 -498.129,674.372C-498.377,674.78 -498.587,675.182 -498.759,675.578C-498.931,675.974 -499.071,676.374 -499.179,676.778C-499.287,677.182 -499.365,677.596 -499.413,678.02C-499.461,678.444 -499.485,678.884 -499.485,679.34C-499.485,679.796 -499.461,680.236 -499.413,680.66C-499.365,681.084 -499.287,681.498 -499.179,681.902C-499.071,682.306 -498.931,682.706 -498.759,683.102C-498.587,683.498 -498.377,683.9 -498.129,684.308C-498.065,684.412 -498.093,684.496 -498.213,684.56L-498.537,684.716C-498.625,684.764 -498.709,684.732 -498.789,684.62C-498.965,684.356 -499.147,684.05 -499.335,683.702C-499.523,683.354 -499.693,682.962 -499.845,682.526C-499.997,682.09 -500.121,681.608 -500.217,681.08C-500.313,680.552 -500.361,679.972 -500.361,679.34Z" style="fill:rgb(29,29,27);fill-rule:nonzero;"/>
                <path d="M-496.341,683.084C-496.477,683.084 -496.545,683.02 -496.545,682.892L-496.545,674.636C-496.545,674.508 -496.477,674.444 -496.341,674.444L-495.825,674.444C-495.689,674.444 -495.621,674.508 -495.621,674.636L-495.621,682.892C-495.621,683.02 -495.689,683.084 -495.825,683.084L-496.341,683.084Z" style="fill:rgb(29,29,27);fill-rule:nonzero;"/>
                <path d="M-492.729,682.892C-492.729,683.02 -492.797,683.084 -492.933,683.084L-493.401,683.084C-493.537,683.084 -493.605,683.02 -493.605,682.892L-493.605,674.636C-493.605,674.508 -493.541,674.444 -493.413,674.444L-492.897,674.444C-492.785,674.444 -492.703,674.458 -492.651,674.486C-492.599,674.514 -492.541,674.584 -492.477,674.696L-489.477,679.532C-489.204,679.98 -488.966,680.374 -488.762,680.714C-488.558,681.054 -488.356,681.4 -488.156,681.752C-488.172,681.432 -488.182,681.068 -488.186,680.66C-488.19,680.252 -488.192,679.836 -488.192,679.412L-488.192,674.636C-488.192,674.508 -488.124,674.444 -487.988,674.444L-487.52,674.444C-487.384,674.444 -487.316,674.508 -487.316,674.636L-487.316,682.892C-487.316,683.02 -487.384,683.084 -487.52,683.084L-488.024,683.084C-488.136,683.084 -488.218,683.07 -488.27,683.042C-488.322,683.014 -488.38,682.944 -488.444,682.832L-491.445,677.996C-491.725,677.54 -491.969,677.142 -492.177,676.802C-492.385,676.462 -492.581,676.12 -492.765,675.776C-492.749,676.096 -492.739,676.46 -492.735,676.868C-492.731,677.276 -492.729,677.692 -492.729,678.116L-492.729,682.892Z" style="fill:rgb(29,29,27);fill-rule:nonzero;"/>
                <path d="M-482.228,679.244C-482.364,679.244 -482.432,679.18 -482.432,679.052L-482.432,678.656C-482.432,678.536 -482.364,678.476 -482.228,678.476L-479.54,678.476C-479.404,678.476 -479.336,678.536 -479.336,678.656L-479.336,682.388C-479.336,682.476 -479.35,682.546 -479.378,682.598C-479.406,682.65 -479.472,682.696 -479.576,682.736C-479.912,682.88 -480.286,682.994 -480.698,683.078C-481.11,683.162 -481.52,683.204 -481.928,683.204C-482.528,683.204 -483.052,683.12 -483.5,682.952C-483.948,682.784 -484.324,682.544 -484.628,682.232C-484.996,681.856 -485.272,681.386 -485.456,680.822C-485.64,680.258 -485.732,679.612 -485.732,678.884C-485.732,678.116 -485.634,677.434 -485.438,676.838C-485.242,676.242 -484.956,675.744 -484.58,675.344C-484.268,675.008 -483.894,674.754 -483.458,674.582C-483.022,674.41 -482.528,674.324 -481.976,674.324C-481.472,674.324 -481.022,674.382 -480.626,674.498C-480.23,674.614 -479.896,674.764 -479.624,674.948C-479.512,675.028 -479.488,675.132 -479.552,675.26L-479.672,675.512C-479.712,675.584 -479.75,675.632 -479.786,675.656C-479.822,675.68 -479.876,675.672 -479.948,675.632C-480.556,675.28 -481.224,675.104 -481.952,675.104C-482.8,675.104 -483.452,675.364 -483.908,675.884C-484.204,676.212 -484.422,676.622 -484.562,677.114C-484.702,677.606 -484.772,678.164 -484.772,678.788C-484.772,679.42 -484.7,679.98 -484.556,680.468C-484.412,680.956 -484.188,681.356 -483.884,681.668C-483.652,681.9 -483.366,682.08 -483.026,682.208C-482.686,682.336 -482.276,682.4 -481.796,682.4C-481.54,682.4 -481.264,682.372 -480.968,682.316C-480.672,682.26 -480.424,682.192 -480.224,682.112L-480.224,679.244L-482.228,679.244Z" style="fill:rgb(29,29,27);fill-rule:nonzero;"/>
                <path d="M-475.76,679.34C-475.76,679.972 -475.808,680.552 -475.904,681.08C-476,681.608 -476.124,682.09 -476.276,682.526C-476.428,682.962 -476.598,683.354 -476.786,683.702C-476.974,684.05 -477.156,684.356 -477.332,684.62C-477.412,684.732 -477.496,684.764 -477.584,684.716L-477.908,684.56C-478.028,684.496 -478.056,684.412 -477.992,684.308C-477.744,683.9 -477.534,683.498 -477.362,683.102C-477.19,682.706 -477.05,682.306 -476.942,681.902C-476.834,681.498 -476.756,681.084 -476.708,680.66C-476.66,680.236 -476.636,679.796 -476.636,679.34C-476.636,678.884 -476.66,678.444 -476.708,678.02C-476.756,677.596 -476.834,677.182 -476.942,676.778C-477.05,676.374 -477.19,675.974 -477.362,675.578C-477.534,675.182 -477.744,674.78 -477.992,674.372C-478.056,674.268 -478.028,674.184 -477.908,674.12L-477.584,673.964C-477.496,673.916 -477.412,673.948 -477.332,674.06C-477.156,674.324 -476.974,674.63 -476.786,674.978C-476.598,675.326 -476.428,675.718 -476.276,676.154C-476.124,676.59 -476,677.072 -475.904,677.6C-475.808,678.128 -475.76,678.708 -475.76,679.34Z" style="fill:rgb(29,29,27);fill-rule:nonzero;"/>
            </g>
            <g transform="matrix(1,0,0,1,418.351,368.687)">
                <path d="M0,-18.627C-5.808,-3.072 0.985,16.098 15.15,24.761C19.396,27.357 24.133,29.066 28.952,30.31C33.416,31.46 38.01,32.227 42.617,32.116C56.143,31.789 69.109,23.256 74.884,11.021C80.657,-1.213 79.038,-16.569 70.947,-27.412C53.456,-50.854 10.601,-47.017 0,-18.627Z" style="fill:none;stroke:rgb(29,29,27);stroke-width:7px;"/>
            </g>
            <g transform="matrix(1,0,0,1,300.561,406.474)">
                <path d="M0,-5.315C2.737,2.1 10.449,6.877 16.98,5.205C23.513,3.533 27.999,-4.368 26.86,-12.192" style="fill:none;stroke:rgb(29,29,27);stroke-width:4px;"/>
            </g>
            <g transform="matrix(1,0,0,1,438.726,428.983)">
                <path d="M0,-30.838C-4.685,-20.974 -8.554,-10.746 -11.559,-0.285C-11.585,-0.191 -11.612,-0.095 -11.64,0" style="fill:none;stroke:rgb(29,29,27);stroke-width:7px;"/>
            </g>
            <g transform="matrix(1,0,0,1,528.679,457.693)">
                <path d="M0,-29.299C-46.187,-27.061 -92.434,-26.075 -138.674,-26.344C-138.292,-19.597 -138.846,-10.889 -138.465,-4.142C-138.374,-2.541 -138.065,-0.614 -136.577,0" style="fill:none;stroke:rgb(29,29,27);stroke-width:9px;"/>
            </g>
            <g transform="matrix(1,0,0,1,523.864,458.615)">
                <path d="M0,-29.16C0.48,-19.225 -0.989,-10.898 -0.509,-0.964C-44.955,-0.136 -89.413,0 -133.863,-0.556" style="fill:none;stroke:rgb(29,29,27);stroke-width:9px;"/>
            </g>
            <g transform="matrix(1,0,0,1,497.358,570.308)">
                <path d="M0,-110.098C-0.349,-73.765 2.965,-37.907 2.616,-1.574C-25.018,-0.147 -52.11,0 -79.781,-0.122C-77.996,-36.085 -77.114,-72.094 -77.137,-108.101" style="fill:none;stroke:rgb(29,29,27);stroke-width:8px;"/>
            </g>
            <g transform="matrix(1,0,0,1,439.487,428.109)">
                <path d="M0,-27.928C-1.128,-28.213 -0.872,-25.698 -0.086,-24.617C5.954,-16.317 11.994,-8.016 18.035,0.285C23.269,-8.074 31.462,-16.392 35.95,-25.44" style="fill:none;stroke:rgb(29,29,27);stroke-width:7px;"/>
            </g>
            <g transform="matrix(1,0,0,1,458.428,411.776)">
                <path d="M0,-10.408C-3.438,-11.422 -7.324,-7.921 -6.675,-4.396C-6.024,-0.871 -1.146,1.014 1.705,-1.159C4.556,-3.331 4.032,-8.535 0.807,-10.096" style="fill:none;stroke:rgb(29,29,27);stroke-width:5px;"/>
            </g>
            <g transform="matrix(-0.346516,0.938044,0.938044,0.346516,457.706,418.408)">
                <path d="M-5.771,-4.02C-2.982,-4.789 0.012,-4.789 2.801,-4.02" style="fill:none;stroke:rgb(29,29,27);stroke-width:5px;"/>
            </g>
            <g transform="matrix(0.236133,0.971721,0.971721,-0.236133,464.583,414.271)">
                <path d="M-3.161,-4.02C-0.425,-4.46 2.38,-4.459 5.115,-4.02" style="fill:none;stroke:rgb(29,29,27);stroke-width:5px;"/>
            </g>
            <g transform="matrix(1,0,0,1,270.171,382.185)">
                <path d="M0,8.614C-1.035,21.109 6.592,33.563 17.687,39.405C28.781,45.248 42.665,44.757 53.936,39.261C62.99,34.846 70.621,27.156 73.961,17.652C77.302,8.148 75.963,-3.112 69.655,-10.966C49.039,-36.634 2.817,-25.393 0,8.614Z" style="fill:none;stroke:rgb(29,29,27);stroke-width:7px;"/>
            </g>
            <g transform="matrix(1,0,0,1,268.812,357.691)">
                <path d="M0,38.111C9.196,36.105 17.223,30.328 23.523,23.337C29.824,16.344 34.597,8.139 39.322,0" style="fill:none;stroke:rgb(29,29,27);stroke-width:4px;"/>
            </g>
            <g transform="matrix(0.965214,-0.26146,-0.26146,-0.965214,304.282,372.66)">
                <path d="M-0.467,3.511C8.389,1.91 17.532,1.91 26.386,3.511" style="fill:none;stroke:rgb(29,29,27);stroke-width:4px;"/>
            </g>
            <g transform="matrix(1,0,0,1,123.198,327.735)">
                <path d="M0,-53.194C26.554,-72.675 59.492,-85.44 92.564,-89.064C115.69,-91.599 139.599,-89.499 157.651,-79.19C175.704,-68.88 186.619,-49.267 180.763,-29.732C177.034,-17.291 167.079,-6.064 155.178,2.531C143.276,11.125 129.464,17.36 115.59,23.006C95.549,31.161 72.863,38.405 53.551,32.907" style="fill:none;stroke:rgb(29,29,27);stroke-width:6px;"/>
            </g>
            <g transform="matrix(0.856863,0.515545,0.515545,-0.856863,185.752,349.543)">
                <path d="M-3.771,-13.581C11.02,-21.868 30.953,-21.868 48.914,-13.581" style="fill:none;stroke:rgb(29,29,27);stroke-width:6px;"/>
            </g>
            <g transform="matrix(1,0,0,1,223.152,276.67)">
                <path d="M0,108.812C-8.676,112.324 -18.208,112.504 -27.141,111.984C-60.996,110.012 -93.276,98.101 -109.686,75.518C-126.096,52.935 -123.272,18.961 -98.226,-3.692" style="fill:none;stroke:rgb(29,29,27);stroke-width:6px;"/>
            </g>
            <g transform="matrix(1,0,0,1,296.257,386.207)">
                <path d="M0,5.872C-0.836,3.281 1.638,0.487 4.35,0.244C7.061,0 9.628,1.657 11.381,3.74" style="fill:none;stroke:rgb(29,29,27);stroke-width:4px;"/>
            </g>
            <g transform="matrix(1,0,0,1,317.085,379.539)">
                <path d="M0,7.876C0.388,5.881 1.123,3.895 2.504,2.404C3.886,0.914 6.001,0 7.986,0.434C9.971,0.868 11.605,2.873 11.268,4.877" style="fill:none;stroke:rgb(29,29,27);stroke-width:4px;"/>
            </g>
            <g transform="matrix(-0.612211,0.790695,0.790695,0.612211,428.774,434.187)">
                <path d="M-34.099,-16.724C-20.287,-20.206 -5.61,-20.205 8.202,-16.723" style="fill:none;stroke:rgb(29,29,27);stroke-width:7px;"/>
            </g>
            <g transform="matrix(0.976223,-0.216767,-0.216767,-0.976223,302.381,405.186)">
                <path d="M-0.275,2.87C8.435,0.556 17.769,0.556 26.247,2.87" style="fill:none;stroke:rgb(29,29,27);stroke-width:4px;"/>
            </g>
            <g transform="matrix(0.97157,-0.236752,-0.236752,-0.97157,309.369,411.113)">
                <path d="M-0.634,1.957C3.414,6.468 11.439,6.468 15.488,1.957" style="fill:none;stroke:rgb(29,29,27);stroke-width:4px;"/>
            </g>
            <g transform="matrix(0.893349,-0.449364,-0.449364,-0.893349,184.513,322.689)">
                <path d="M-1.318,5.554C6.915,5.991 15.171,5.992 23.403,5.555" style="fill:none;stroke:rgb(29,29,27);stroke-width:4px;"/>
            </g>
            <g transform="matrix(0.961229,0.275751,0.275751,-0.961229,190.603,302.6)">
                <path d="M-0.231,-1.644C3.742,-1.644 7.716,-1.643 11.689,-1.644" style="fill:none;stroke:rgb(29,29,27);stroke-width:4px;"/>
            </g>
            <g transform="matrix(0.384668,-0.923055,-0.923055,-0.384668,204.559,316.941)">
                <path d="M-4.139,6.209C0.346,6.209 4.829,6.209 9.314,6.209" style="fill:none;stroke:rgb(29,29,27);stroke-width:4px;"/>
            </g>
            <g transform="matrix(1,0,0,1,260.495,313.643)">
                <path d="M0,-24.857C0.854,-18.599 0.057,-11.689 -4.148,-6.977C-7.582,-3.131 -12.75,-1.327 -17.807,-0.323C-24.34,0.973 -31.694,1.002 -36.989,-3.037C-41.04,-6.126 -43.27,-11.444 -42.635,-16.499C-29.257,-19.524 -17.577,-22.967 -4.023,-25.065C-3.023,-25.219 -0.136,-25.859 0,-24.857Z" style="fill:none;stroke:rgb(29,29,27);stroke-width:5px;"/>
            </g>
            <g transform="matrix(1,0,0,1,253.54,320.564)">
                <path d="M0,-8.679C0.985,-6.907 1.708,-6.012 2.693,-4.24C-6.56,-1.521 -16.189,-0.09 -25.833,0C-25.417,-1.542 -24.711,-3.006 -23.762,-4.29" style="fill:none;stroke:rgb(29,29,27);stroke-width:5px;"/>
            </g>
            <g transform="matrix(1,0,0,1,236.551,301.603)">
                <path d="M0,-12.753C-6.269,-15.933 -13.848,-16.421 -20.472,-14.071C-21.425,-13.734 -22.392,-13.317 -23.063,-12.562C-24.421,-11.032 -24.139,-8.644 -23.349,-6.757C-22.559,-4.87 -21.34,-3.125 -21.014,-1.106C-20.687,0.914 -21.715,3.392 -23.742,3.668" style="fill:none;stroke:rgb(29,29,27);stroke-width:2px;"/>
            </g>
            <g transform="matrix(1,0,0,1,220.717,281.227)">
                <path d="M0,12.6C0.613,10.592 1.939,8.892 3.239,7.243C5.126,4.846 7.162,2.339 10.027,1.293C13.567,0 17.5,1.244 20.953,2.756C22.724,3.531 24.524,4.393 26.457,4.465C28.389,4.536 30.516,3.571 31.121,1.735" style="fill:none;stroke:rgb(29,29,27);stroke-width:2px;"/>
            </g>
            <g transform="matrix(1,0,0,1,232.68,274.597)">
                <path d="M0,16.85C2.082,12.887 3.978,7.185 7.53,4.296C12.809,0 19.091,1.524 21.053,8.008C21.392,9.128 21.674,10.299 22.359,11.247C23.044,12.197 24.268,12.876 25.385,12.528C26.766,12.098 27.281,10.45 27.59,9.037" style="fill:none;stroke:rgb(29,29,27);stroke-width:2px;"/>
            </g>
            <g transform="matrix(1,0,0,1,247.85,288.185)">
                <path d="M0,-5.119C-0.333,-3.602 -2.2,-2.837 -3.714,-3.182C-5.229,-3.528 -6.427,-4.661 -7.471,-5.812C-8.515,-6.962 -9.525,-8.209 -10.907,-8.919C-12.491,-9.732 -14.37,-9.733 -16.132,-9.479C-21.867,-8.654 -27.171,-5.202 -30.247,-0.292C-29.086,2.764 -24.764,1.619 -23.451,4.614" style="fill:none;stroke:rgb(29,29,27);stroke-width:2px;"/>
            </g>
            <g transform="matrix(1,0,0,1,241.814,272.794)">
                <path d="M0,15.284C2.403,14.296 2.358,10.982 2.906,8.441C3.419,6.062 4.828,3.886 6.789,2.443C10.107,0 16.371,5.076 17.432,9.057C17.727,10.162 17.892,11.368 18.643,12.23C19.395,13.093 21.023,13.291 21.558,12.28" style="fill:none;stroke:rgb(29,29,27);stroke-width:2px;"/>
            </g>
            <g transform="matrix(1,0,0,1,218.802,281.792)">
                <path d="M0,-27.318C2.254,-18.036 3.59,-9.281 5.844,0C-0.125,-3.241 -5.83,-6.965 -11.199,-11.124" style="fill:none;stroke:rgb(29,29,27);stroke-width:5px;"/>
            </g>
            <g transform="matrix(1,0,0,1,436.811,379.406)">
                <path d="M0,-17.416C-0.414,-9.523 4.783,-2.088 11.444,-1.044C18.105,0 25.348,-5.485 27.393,-13.123" style="fill:none;stroke:rgb(29,29,27);stroke-width:4px;"/>
            </g>
            <g transform="matrix(1,0,0,1,436.443,350.185)">
                <path d="M0,1.763C0.255,-0.948 3.632,-2.537 6.219,-1.69C8.806,-0.842 10.511,1.694 11.298,4.3" style="fill:none;stroke:rgb(29,29,27);stroke-width:4px;"/>
            </g>
            <g transform="matrix(1,0,0,1,457.421,352.721)">
                <path d="M0,3.17C1.145,1.49 2.604,-0.044 4.462,-0.867C6.319,-1.691 8.624,-1.695 10.275,-0.513C11.928,0.671 12.638,3.158 11.536,4.865" style="fill:none;stroke:rgb(29,29,27);stroke-width:4px;"/>
            </g>
            <g transform="matrix(0.982457,0.186492,0.186492,-0.982457,437.913,361.156)">
                <path d="M-0.297,-2.479C8.413,-4.793 17.747,-4.795 26.224,-2.479" style="fill:none;stroke:rgb(29,29,27);stroke-width:4px;"/>
            </g>
            <g transform="matrix(0.986085,0.166239,0.166239,-0.986085,440.69,371.249)">
                <path d="M0.202,-1.314C4.249,3.197 12.275,3.197 16.323,-1.314" style="fill:none;stroke:rgb(29,29,27);stroke-width:4px;"/>
            </g>
            <g transform="matrix(0.205829,0.978588,0.978588,-0.205829,489.435,408.707)">
                <path d="M-9.679,-12.268C-1.609,-10.214 6.975,-10.214 15.045,-12.268" style="fill:none;stroke:rgb(29,29,27);stroke-width:7px;"/>
            </g>
            <g transform="matrix(1,0,0,1,476.587,426.449)">
                <path d="M0,-26.529C-0.584,-26.407 -0.063,-25.53 0.474,-25.27C5.158,-23 8.779,-18.928 11.379,-14.418C13.978,-9.907 15.65,-4.934 17.307,0" style="fill:none;stroke:rgb(29,29,27);stroke-width:7px;"/>
            </g>
            <g transform="matrix(0.0160242,0.999872,0.999872,-0.0160242,372.895,168.431)">
                <path d="M-47.194,-48.26C-15.145,-47.442 16.959,-47.442 49.035,-48.26" style="fill:none;stroke:rgb(236,102,7);stroke-width:7px;"/>
            </g>
            <g transform="matrix(1,0,0,1,327.238,302.877)">
                <path d="M0,-42.944C0.418,-29.033 0.487,-15.103 0.207,-1.186C33.654,-1.863 67.167,-0.46 100.617,0" style="fill:none;stroke:rgb(236,102,7);stroke-width:7px;"/>
            </g>
            <g transform="matrix(1,0,0,1,322.302,125.143)">
                <path d="M0,0L46.119,0" style="fill:none;stroke:rgb(236,102,7);stroke-width:7px;"/>
            </g>
            <g transform="matrix(0.999946,-0.0103519,-0.0103519,-0.999946,392.976,123.644)">
                <path d="M-0.008,0.619C39.804,2.023 79.738,2.023 119.583,0.619" style="fill:none;stroke:rgb(236,102,7);stroke-width:7px;"/>
            </g>
            <g transform="matrix(0.999976,-0.00690562,-0.00690562,-0.999976,447.771,303.324)">
                <path d="M-0.001,0.243C23.411,0.243 46.821,0.242 70.232,0.243" style="fill:none;stroke:rgb(236,102,7);stroke-width:7px;"/>
            </g>
            <g transform="matrix(0.0458215,0.99895,0.99895,-0.0458215,533.282,138.843)">
                <path d="M-20.865,-21.845C-6.287,-21.845 8.291,-21.845 22.869,-21.845" style="fill:none;stroke:rgb(236,102,7);stroke-width:7px;"/>
            </g>
            <g transform="matrix(0.00784552,0.999969,0.999969,-0.00784552,576.529,242.177)">
                <path d="M-61.785,-61.744C-20.451,-62.596 20.915,-62.597 62.234,-61.744" style="fill:none;stroke:rgb(236,102,7);stroke-width:7px;"/>
            </g>
            <g transform="matrix(0.999938,-0.011104,-0.011104,-0.999938,322.31,218.001)">
                <path d="M-0.003,0.493C29.596,0.493 59.195,0.494 88.794,0.493" style="fill:none;stroke:rgb(236,102,7);stroke-width:5px;"/>
            </g>
            <g transform="matrix(1,0,0,1,389.472,224.432)">
                <path d="M0,-42.616C21.226,-43.045 42.451,-43.474 63.678,-43.903C63.678,-28.922 63.681,-13.694 63.681,1.287C75.603,1.287 88.396,0.217 100.318,0.217" style="fill:none;stroke:rgb(236,102,7);stroke-width:5px;"/>
            </g>
            <g transform="matrix(1,0,0,1,358.007,243.91)">
                <path d="M0,-25.677L0,0L50.498,0" style="fill:none;stroke:rgb(236,102,7);stroke-width:5px;"/>
            </g>
            <g transform="matrix(0.0245202,0.999699,0.999699,-0.0245202,377.805,167.801)">
                <path d="M-24.009,-24.605C-7.601,-24.605 8.808,-24.606 25.216,-24.605" style="fill:none;stroke:rgb(236,102,7);stroke-width:5px;"/>
            </g>
            <g transform="matrix(1,0,0,1,473.216,204.318)">
                <path d="M0,0L40.128,0" style="fill:none;stroke:rgb(236,102,7);stroke-width:5px;"/>
            </g>
            <g transform="matrix(0.0301049,0.999547,0.999547,-0.0301049,501.802,174.777)">
                <path d="M-26.934,-27.757C-8.42,-27.757 10.092,-27.758 28.606,-27.757" style="fill:none;stroke:rgb(236,102,7);stroke-width:5px;"/>
            </g>
            <g transform="matrix(0.00617307,0.999981,0.999981,-0.00617307,487.51,241.356)">
                <path d="M-60.86,-61.714C-20.002,-60.983 21.11,-60.983 62.094,-61.714" style="fill:none;stroke:rgb(236,102,7);stroke-width:5px;"/>
            </g>
            <g transform="matrix(0.999955,-0.00952929,-0.00952929,-0.999955,348.407,278.775)">
                <path d="M-0.002,0.361C25.218,0.36 50.44,0.36 75.66,0.361" style="fill:none;stroke:rgb(236,102,7);stroke-width:5px;"/>
            </g>
            <g transform="matrix(0.999563,-0.0295714,-0.0295714,-0.999563,463.659,253.45)">
                <path d="M-0.011,0.764C17.213,0.764 34.437,0.764 51.66,0.764" style="fill:none;stroke:rgb(236,102,7);stroke-width:5px;"/>
            </g>
            <g transform="matrix(0.00734801,0.999973,0.999973,-0.00734801,472.065,281.764)">
                <path d="M-24.116,-23.882C-8.063,-24.411 8.012,-24.412 24.061,-23.882" style="fill:none;stroke:rgb(236,102,7);stroke-width:5px;"/>
            </g>
            <g transform="matrix(0.999592,-0.0285558,-0.0285558,-0.999592,449.006,279.87)">
                <path d="M-0.009,0.61C14.244,0.611 28.497,0.611 42.75,0.61" style="fill:none;stroke:rgb(236,102,7);stroke-width:5px;"/>
            </g>
            <g transform="matrix(0.999574,-0.0291884,-0.0291884,-0.999574,352.345,165.712)">
                <path d="M-0.013,0.912C20.817,0.912 41.647,0.912 62.477,0.912" style="fill:none;stroke:rgb(236,102,7);stroke-width:5px;"/>
            </g>
            <g transform="matrix(0,1,1,0,454.769,162.586)">
                <path d="M-18.191,-18.191L18.191,-18.191" style="fill:none;stroke:rgb(236,102,7);stroke-width:5px;"/>
            </g>
            <g transform="matrix(1,0,0,1,454.024,149.846)">
                <path d="M0,0L20.586,0" style="fill:none;stroke:rgb(236,102,7);stroke-width:5px;"/>
            </g>
            <g transform="matrix(1,0,0,1,491.535,182.917)">
                <path d="M0,0L20.936,0" style="fill:none;stroke:rgb(236,102,7);stroke-width:5px;"/>
            </g>
            <g transform="matrix(0.0241074,0.999709,0.999709,-0.0241074,512.269,162.631)">
                <path d="M-20.888,-21.398C-6.618,-21.398 7.651,-21.398 21.92,-21.398" style="fill:none;stroke:rgb(236,102,7);stroke-width:5px;"/>
            </g>
            <g transform="matrix(0,1,1,0,414.45,144.688)">
                <path d="M-19.554,-19.554L19.554,-19.554" style="fill:none;stroke:rgb(236,102,7);stroke-width:5px;"/>
            </g>
            <g transform="matrix(1,0,0,1,396.016,92.3228)">
                <path d="M0,-18.234C-0.553,-12.113 -2.624,-5.695 -7.112,-2.038C-10.776,0.948 -15.482,1.65 -19.934,1.613C-25.683,1.564 -31.866,0.149 -35.494,-4.732C-38.27,-8.465 -39.064,-13.963 -37.505,-18.647C-25.656,-18.9 -15.147,-19.884 -3.337,-19.221C-2.466,-19.172 0.088,-19.214 0,-18.234Z" style="fill:none;stroke:rgb(29,29,27);stroke-width:5px;"/>
            </g>
            <g transform="matrix(1,0,0,1,385.489,99.7362)">
                <path d="M0,-5.036C0.467,-3.157 0.894,-2.163 1.361,-0.284C-6.962,0.487 -15.341,-0.041 -23.458,-1.848C-22.796,-3.233 -21.906,-4.487 -20.848,-5.523" style="fill:none;stroke:rgb(29,29,27);stroke-width:5px;"/>
            </g>
            <g transform="matrix(1,0,0,1,375.892,74.3461)">
                <path d="M0,-4.893C-4.62,-9.148 -10.887,-11.1 -16.927,-10.164C-17.796,-10.03 -18.692,-9.823 -19.41,-9.236C-20.861,-8.047 -21.108,-5.719 -20.827,-3.769C-20.546,-1.82 -19.877,0.08 -20.012,2.065C-20.148,4.049 -21.514,6.207 -23.272,6.072" style="fill:none;stroke:rgb(29,29,27);stroke-width:2px;"/>
            </g>
            <g transform="matrix(1,0,0,1,361.583,61.755)">
                <path d="M0,9.326C0.922,7.536 2.381,6.179 3.807,4.864C5.878,2.955 8.097,0.969 10.715,0.535C13.951,0 17.002,1.956 19.595,4.071C20.925,5.156 22.263,6.33 23.872,6.777C25.48,7.223 27.462,6.723 28.343,5.095" style="fill:none;stroke:rgb(29,29,27);stroke-width:2px;"/>
            </g>
            <g transform="matrix(1,0,0,1,372.113,58.627)">
                <path d="M0,12.537C2.553,9.175 5.302,4.123 8.871,2.071C14.176,-0.98 19.144,1.702 19.477,8.255C19.534,9.388 19.533,10.557 19.916,11.594C20.299,12.631 21.189,13.517 22.198,13.405C23.445,13.267 24.211,11.8 24.758,10.516" style="fill:none;stroke:rgb(29,29,27);stroke-width:2px;"/>
            </g>
            <g transform="matrix(1,0,0,1,386.555,63.173)">
                <path d="M0,2.994C-0.588,4.372 -2.311,4.734 -3.512,4.108C-4.714,3.481 -5.491,2.169 -6.135,0.869C-6.778,-0.43 -7.373,-1.815 -8.39,-2.76C-9.555,-3.845 -11.133,-4.215 -12.666,-4.319C-17.649,-4.659 -22.804,-2.416 -26.384,1.652C-26.029,4.788 -22.167,4.546 -21.671,7.653" style="fill:none;stroke:rgb(29,29,27);stroke-width:2px;"/>
            </g>
            <g transform="matrix(1,0,0,1,380.469,59.4209)">
                <path d="M0,10.33C2.219,9.861 2.853,6.7 3.829,4.39C4.743,2.227 6.367,0.434 8.307,-0.555C11.589,-2.228 15.821,3.83 15.904,7.826C15.928,8.935 15.822,10.114 16.278,11.082C16.734,12.05 18.062,12.558 18.716,11.701" style="fill:none;stroke:rgb(29,29,27);stroke-width:2px;"/>
            </g>
            <g transform="matrix(1,0,0,1,367.957,60.4026)">
                <path d="M0,-27.136C0.01,-17.864 -0.644,-9.272 -0.633,0C-4.989,-4.254 -9.025,-8.917 -12.691,-13.927" style="fill:none;stroke:rgb(29,29,27);stroke-width:5px;"/>
            </g>
            <g transform="matrix(-0.0633576,0.997991,0.997991,0.0633576,331.593,469.624)">
                <path d="M-42.434,-37.767C-16.759,-41.469 9.566,-41.469 35.315,-37.767" style="fill:none;stroke:rgb(29,29,27);stroke-width:7px;"/>
            </g>
            <g transform="matrix(1,0,0,1,291.01,474.384)">
                <path d="M0,-33.164C1.864,-37.548 -1.423,-42.96 -5.99,-44.312C-10.558,-45.666 -15.627,-43.634 -18.962,-40.232C-22.296,-36.831 -24.169,-32.269 -25.546,-27.709C-28.065,-19.364 -29.184,-10.6 -28.843,-1.89C-28.707,1.6 -28.19,5.399 -25.668,7.814C-24.566,8.87 -23.163,9.565 -21.719,10.063C-14.636,12.502 -6.139,10.01 -1.496,4.13" style="fill:none;stroke:rgb(29,29,27);stroke-width:7px;"/>
            </g>
            <g transform="matrix(1,0,0,1,264.995,440.998)">
                <path d="M0,12.569C7.639,13.014 15.411,10.646 21.504,6.018C23.753,4.31 25.839,2.213 26.793,-0.445" style="fill:none;stroke:rgb(29,29,27);stroke-width:4px;"/>
            </g>
            <g transform="matrix(1,0,0,1,314.245,461.261)">
                <path d="M0,-21.171C-0.317,-19.833 -0.637,-18.446 -0.376,-17.096C-0.115,-15.746 0.892,-14.438 2.259,-14.287C3.538,-14.146 4.688,-15.006 5.686,-15.818C10.159,-19.458 14.632,-23.099 19.104,-26.738C21.344,-23.772 23.922,-20.435 26.161,-17.468C23.232,-13.932 20.302,-10.395 17.373,-6.858C14.749,-3.691 12.079,-0.481 8.69,1.852C5.302,4.184 1.042,5.567 -2.967,4.649C-4.418,4.316 -5.823,3.677 -6.904,2.652C-7.793,1.809 -8.435,0.74 -8.989,-0.353C-11.385,-5.077 -12.329,-10.525 -11.662,-15.779" style="fill:none;stroke:rgb(29,29,27);stroke-width:5px;"/>
            </g>
            <g transform="matrix(1,0,0,1,334.005,427.408)">
                <path d="M0,5.56C1.581,0.918 3.58,-3.581 5.964,-7.865C6.416,-8.675 6.955,-9.542 7.835,-9.835C9.243,-10.303 10.72,-8.937 10.947,-7.47C11.175,-6.004 10.548,-4.555 9.936,-3.205C8.689,-0.453 7.442,2.298 6.196,5.05C7.575,2.581 10.836,1.351 13.503,2.294C16.17,3.239 17.931,6.246 17.45,9.034C17.039,11.415 15.197,13.374 13.027,14.442C10.858,15.509 8.391,15.801 5.974,15.863" style="fill:none;stroke:rgb(29,29,27);stroke-width:4px;"/>
            </g>
            <g transform="matrix(1,0,0,1,294.095,431.001)">
                <path d="M0,16.012C1.221,11.665 3.328,7.443 6.736,4.481C10.145,1.519 14.999,0 19.319,1.312C23.64,2.624 26.991,7.14 26.26,11.596C26.173,12.127 26.037,12.693 26.253,13.186C26.468,13.679 27.233,13.941 27.542,13.5" style="fill:none;stroke:rgb(29,29,27);stroke-width:4px;"/>
            </g>
            <g transform="matrix(1,0,0,1,289.92,504.742)">
                <path d="M0,-5.503C6.125,-1.347 13.842,0 21.26,-0.358C28.678,-0.716 35.913,-2.654 43.08,-4.581" style="fill:none;stroke:rgb(29,29,27);stroke-width:7px;"/>
            </g>
            <g transform="matrix(0.280724,0.959788,0.959788,-0.280724,332.278,427.426)">
                <path d="M-4.822,-6.435C-0.409,-5.573 4.173,-5.572 8.586,-6.435" style="fill:none;stroke:rgb(29,29,27);stroke-width:7px;"/>
            </g>
            <g transform="matrix(-0.0251835,0.999683,0.999683,0.0251835,355.368,479.046)">
                <path d="M-23.971,-24.141C-8.155,-22.976 7.753,-22.976 23.56,-24.141" style="fill:none;stroke:rgb(29,29,27);stroke-width:7px;"/>
            </g>
            <g transform="matrix(1,0,0,1,277.007,439.513)">
                <path d="M0,-67.377C-2.021,-70.865 -7.74,-70.726 -10.89,-68.111C-14.04,-65.497 -15.274,-61.408 -16.357,-57.558C-19.739,-45.537 -23.121,-33.517 -26.502,-21.496C-29.048,-12.447 -31.898,-2.899 -39.07,3.488C-22.194,-1.819 -8.999,-16.602 -6.169,-33.369" style="fill:none;stroke:rgb(29,29,27);stroke-width:4px;"/>
            </g>
            <g transform="matrix(1,0,0,1,299.362,570.474)">
                <path d="M0,-64.358C-0.788,-42.906 -1.575,-21.453 -2.362,0C-2.354,-0.388 -2.347,-0.777 -2.339,-1.166" style="fill:none;stroke:rgb(29,29,27);stroke-width:5px;"/>
            </g>
            <g transform="matrix(0.999779,-0.0210004,-0.0210004,-0.999779,297.572,570.072)">
                <path d="M-0.003,0.318C10.107,0.318 20.218,0.319 30.329,0.319" style="fill:none;stroke:rgb(29,29,27);stroke-width:5px;"/>
            </g>
            <g transform="matrix(1,0,0,1,315.025,569.878)">
                <path d="M0,-62.11C-2.815,-45.719 -4.687,-29.166 -5.604,-12.558C-0.006,-12.983 6.217,-12.586 10.699,-9.184C12.123,-8.103 13.325,-6.632 13.75,-4.889C14.175,-3.146 13.701,-1.125 12.311,0" style="fill:none;stroke:rgb(29,29,27);stroke-width:5px;"/>
            </g>
            <g transform="matrix(1,0,0,1,322.99,563.773)">
                <path d="M0,-59.298C-1.859,-49.51 -2.241,-39.411 -2.616,-29.378C-2.821,-23.903 -3.026,-18.428 -3.23,-12.953C3.176,-14.151 10.022,-7.59 11.71,0" style="fill:none;stroke:rgb(29,29,27);stroke-width:5px;"/>
            </g>
            <g transform="matrix(0.992915,-0.118827,-0.118827,-0.992915,328.471,564.174)">
                <path d="M-0.052,0.458C2.442,1.184 5.139,1.183 7.631,0.458" style="fill:none;stroke:rgb(29,29,27);stroke-width:5px;"/>
            </g>
            <g transform="matrix(1,0,0,1,298.696,552.313)">
                <path d="M0,5.917C3.154,6.778 6.515,6.856 9.705,6.143C13.209,5.358 19.984,1.901 22.202,-0.939" style="fill:none;stroke:rgb(29,29,27);stroke-width:5px;"/>
            </g>
            <g transform="matrix(1,0,0,1,302.593,354.131)">
                <path d="M0,-43.532C19.063,-35.867 39.49,-31.606 60.028,-31.012C54.327,-19.468 44.925,-9.509 36.245,0C60.529,-7.998 84.478,-17.014 108.007,-27.017" style="fill:none;stroke:rgb(29,29,27);stroke-width:6px;"/>
            </g>
            <g transform="matrix(1,0,0,1,492.723,20.7362)">
                <path d="M0,305.924C20.853,303.63 39.563,291.093 53.144,274.232C68.378,255.318 76.628,231.409 79.622,206.692C82.895,179.679 80.558,151.669 75.334,125.079C70.308,99.494 61.081,74.841 44.231,55.629C28.844,38.084 8.987,25.771 -11.747,17.224C-35.204,7.554 -60.333,2.034 -85.384,1.021C-110.631,0 -136.177,3.772 -159.825,13.476C-180.154,21.819 -199.047,34.444 -214.734,50.752C-230.615,67.26 -243.11,87.605 -250.024,110.319C-257.239,134.016 -258.638,159.943 -253.336,184.321C-252.053,190.22 -250.375,196.02 -248.3,201.653" style="fill:none;stroke:rgb(29,29,27);stroke-width:6px;"/>
            </g>
            <g transform="matrix(1,0,0,1,410,328)">
                <path d="M0,0L12,0" style="fill:none;stroke:rgb(29,29,27);stroke-width:6px;"/>
            </g>
            <g transform="matrix(1,0,0,1,292.004,142.76)">
                <path d="M0,90.014C14.109,90.289 28.218,90.564 42.327,90.839C43.979,90.871 45.744,90.939 47.087,91.901C48.907,93.204 49.357,95.703 49.382,97.941C49.457,104.893 47.317,113.154 52.446,117.848C55.469,120.614 59.941,120.894 64.036,121.027C80.739,121.571 97.443,122.116 114.146,122.66C116.349,122.732 118.663,122.78 120.622,121.77C124.506,119.77 125.356,114.675 125.601,110.313C126.511,94.106 125.51,77.793 122.626,61.819C98.103,58.867 73.274,58.46 48.667,60.607C48.188,40.401 47.708,20.196 47.229,-0.01C60.701,-1.843 74.528,-1.02 87.688,2.399C88.427,-9.322 89.167,-21.044 89.906,-32.766" style="fill:none;stroke:rgb(25,187,239);stroke-width:5px;"/>
            </g>
            <g transform="matrix(1,0,0,1,373.047,108.954)">
                <path d="M0,10.078C2.508,6.345 5.514,2.946 8.912,0C11.962,2.625 14.19,5.218 16.443,8.553" style="fill:none;stroke:rgb(25,187,239);stroke-width:5px;"/>
            </g>
        </g>
        <g id="Layer-3" serif:id="Layer 3" transform="matrix(4.16667,0,0,4.16667,0,0)">
            <g transform="matrix(1,0,0,1,609.805,357.331)">
                <path d="M0,-9.329C0.697,-9.929 1.41,-10.513 2.137,-11.084C2.096,-10.966 2.054,-10.848 2.011,-10.729C1.324,-10.221 0.647,-9.704 -0.027,-9.183C-0.019,-9.232 -0.009,-9.28 0,-9.329M14.811,-33.762C14.66,-33.738 14.512,-33.71 14.366,-33.671C14.311,-33.786 14.254,-33.899 14.192,-34.012C14.398,-33.928 14.605,-33.848 14.811,-33.762M-33.015,-22.805C-32.875,-23.765 -32.84,-24.74 -32.89,-25.717C-32.616,-25.796 -32.342,-25.875 -32.067,-25.955C-32.305,-24.892 -32.627,-23.838 -33.015,-22.805M49.31,11.46C52.396,6.982 54.168,1.943 53.633,-3.6C53.394,-6.086 52.782,-8.519 51.877,-10.883C52.498,-14.079 50.748,-18.114 48.844,-20.989C49.911,-21.031 50.856,-22.251 49.915,-23.188C47.689,-25.404 45.215,-27.359 42.538,-29.049C42.471,-29.136 42.392,-29.223 42.287,-29.305C39.747,-31.309 37.2,-33.312 34.594,-35.249C33.607,-35.981 32.62,-36.726 31.493,-37.285C30.142,-37.955 28.414,-38.181 27.238,-39.101C27.202,-39.13 27.165,-39.152 27.129,-39.177C22.669,-42.987 15.191,-43.64 9.511,-44.967C8.955,-45.097 8.489,-44.955 8.159,-44.685C7.675,-44.808 7.192,-44.934 6.706,-45.048C4.237,-45.619 1.685,-46.121 -0.902,-46.484C-1.972,-47.396 -3.637,-47.63 -5.252,-47.706C-9.931,-47.924 -14.617,-48.038 -19.297,-48.204C-19.515,-48.212 -19.699,-48.175 -19.869,-48.119C-20.169,-48.525 -20.689,-48.809 -21.367,-48.722C-23.391,-48.459 -25.356,-48.062 -27.272,-47.56C-29.893,-47.392 -32.476,-47.076 -34.955,-46.642C-45.293,-44.833 -55.816,-40.969 -63.572,-34.522C-70.861,-28.464 -75.119,-19.596 -71.665,-10.777C-68.223,-1.989 -59.335,3.892 -50.58,8.317C-41.189,13.063 -31.103,16.871 -20.668,19.389C-26.804,20.856 -33.025,22.029 -39.29,23.022C-41.938,23.442 -44.592,23.829 -47.249,24.201C-47.913,24.061 -48.572,23.903 -49.225,23.722C-50.964,23.236 -52.541,23.944 -53.493,25.064C-57.808,25.711 -62.535,26.723 -66.777,25.766C-67.735,25.55 -68.427,26.129 -68.607,26.788C-70.246,26.44 -70.98,28.756 -69.28,29.322C-68.601,29.549 -67.917,29.76 -67.233,29.975C-67.009,30.238 -66.668,30.433 -66.199,30.474L-65.358,30.547C-63.792,31.012 -62.219,31.452 -60.636,31.864C-49.564,35.27 -38.175,37.697 -26.573,39.14C-25.895,39.225 -25.453,38.935 -25.254,38.52C-23.759,38.69 -22.263,38.839 -20.764,38.941C-12.825,39.48 -4.915,38.44 2.912,37.442C6.295,37.012 9.672,36.514 12.97,35.791C17.101,35.124 21.197,34.256 25.084,33.003C30.969,31.107 35.605,27.007 40.389,23.561C40.729,23.316 40.875,23.025 40.891,22.734C44.44,20.308 47.774,17.552 50.021,14.438C50.754,13.421 50.264,12.138 49.31,11.46" style="fill:rgb(29,29,27);fill-rule:nonzero;"/>
            </g>
            <g transform="matrix(1,0,0,1,573.05,349.138)">
                <path d="M0,-20.422C-3.345,-15.658 -5.788,-10.162 -7.135,-4.372C-7.84,-1.344 -8.241,1.883 -7.413,4.866C-6.586,7.849 -4.271,10.514 -1.395,10.782C0.917,10.998 3.121,9.694 4.995,8.202C12.279,2.401 19.096,-9.765 17.326,-19.948C15.333,-31.42 5.525,-28.293 0,-20.422Z" style="fill:none;stroke:white;stroke-width:5px;"/>
            </g>
            <g transform="matrix(-0.287867,0.957671,0.957671,0.287867,615.278,356.456)">
                <path d="M-25.738,-19.139C-12.418,-17.651 1.032,-17.65 14.232,-19.139" style="fill:none;stroke:white;stroke-width:5px;"/>
            </g>
            <g transform="matrix(1,0,0,1,598.694,336.808)">
                <path d="M0,15.009C-0.077,16.202 1.729,15.897 2.59,15.138C8.761,9.695 14.932,4.25 21.102,-1.193" style="fill:none;stroke:white;stroke-width:5px;"/>
            </g>
            <g transform="matrix(0.153262,0.988186,0.988186,-0.153262,615.964,359.171)">
                <path d="M-9.027,-10.536C-1.92,-10.535 5.189,-10.535 12.295,-10.536" style="fill:none;stroke:white;stroke-width:5px;"/>
            </g>
            <g transform="matrix(-0.342913,0.939367,0.939367,0.342913,647.608,355.627)">
                <path d="M-24.598,-17.206C-12.372,-16.063 -0.08,-16.062 12.036,-17.206" style="fill:none;stroke:white;stroke-width:5px;"/>
            </g>
            <g transform="matrix(1,0,0,1,624.741,378.376)">
                <path d="M0,-6.883C-2.827,-7.377 -5.618,-4.081 -4.907,-1.086C-2.749,0.494 0.675,-2.366 -0.194,-5.024C-1.431,-5.229 -2.663,-3.861 -2.439,-2.532" style="fill:none;stroke:white;stroke-width:5px;"/>
            </g>
            <g transform="matrix(1,0,0,1,578.036,397.852)">
                <path d="M0,-89.551C-12.464,-87.764 -24.94,-83.243 -32.943,-74.593C-40.947,-65.944 -43.288,-52.595 -36.095,-43.287C-32.804,-39.03 -27.924,-35.962 -22.955,-33.289C-13.516,-28.21 -3.354,-24.207 7.203,-21.408C-9.219,-16.086 -26.958,-13.947 -44.438,-15.181C-41.369,-11.987 -36.946,-10.106 -32.574,-8.53C-9.132,-0.085 17.038,2.14 41.733,-2.21C50.896,-3.824 60.006,-6.388 67.651,-11.13C77.419,-17.189 84.338,-26.757 86.505,-37.204C88.672,-47.651 86.062,-58.855 79.392,-67.736C72.427,-77.009 56.092,-81.847 44.719,-85.57C30.484,-90.23 14.927,-91.691 0,-89.551Z" style="fill:none;stroke:rgb(29,29,27);stroke-width:8px;"/>
            </g>
        </g>
        <g transform="matrix(0.904519,0,0,0.904519,6.33409,1182.8)">
            <g>
                <g>
                    <g>
                        <g transform="matrix(1,0,0,1,681.068,132.86)">
                            <path d="M0,31.834C-1.015,23.584 -2.028,15.334 -3.042,7.085C-3.512,3.259 -3.297,-3.013 -8.522,-3.124C-11.741,-3.191 -11.74,1.809 -8.522,1.876C-8.222,1.883 -5.283,29.532 -5,31.834C-4.613,34.986 0.392,35.025 0,31.834" style="fill:rgb(42,185,235);fill-rule:nonzero;"/>
                        </g>
                        <g transform="matrix(1,0,0,1,665.815,212.82)">
                            <path d="M0,-38.029C-1.541,-40.855 -5.86,-38.334 -4.317,-35.505C1.351,-25.108 3.387,-13.362 1.401,-1.674C0.867,1.473 5.685,2.826 6.223,-0.344C8.442,-13.412 6.352,-26.38 0,-38.029" style="fill:rgb(42,185,235);fill-rule:nonzero;"/>
                        </g>
                        <g transform="matrix(1,0,0,1,659.724,258.653)">
                            <path d="M0,-34.043C-1.53,-36.875 -5.849,-34.354 -4.317,-31.52C0.903,-21.859 2.918,-11.275 1.799,-0.366C1.472,2.832 6.474,2.81 6.799,-0.366C8.006,-12.129 5.616,-23.652 0,-34.043" style="fill:rgb(42,185,235);fill-rule:nonzero;"/>
                        </g>
                        <g transform="matrix(1,0,0,1,668.465,209.243)">
                            <path d="M0,-2.018C-9.835,-4.878 -19.92,-5.722 -30.088,-4.463C-33.239,-4.073 -33.278,0.932 -30.088,0.537C-20.316,-0.673 -10.791,0.052 -1.329,2.803C1.767,3.704 3.089,-1.12 0,-2.018" style="fill:rgb(183,178,177);fill-rule:nonzero;"/>
                        </g>
                        <g transform="matrix(1,0,0,1,675.723,165.366)">
                            <path d="M0,-1.845C-10.07,-4.822 -20.412,-5.736 -30.845,-4.504C-34.002,-4.131 -34.039,0.874 -30.845,0.496C-20.83,-0.686 -11.005,0.117 -1.329,2.977C1.764,3.891 3.084,-0.933 0,-1.845" style="fill:rgb(183,178,177);fill-rule:nonzero;"/>
                        </g>
                        <g transform="matrix(1,0,0,1,661.81,256.63)">
                            <path d="M0,-0.904C-9.29,-4.743 -19.159,-6.049 -29.129,-4.751C-32.274,-4.342 -32.315,0.664 -29.129,0.249C-19.544,-0.998 -10.264,0.225 -1.329,3.917C1.642,5.145 2.938,0.31 0,-0.904" style="fill:rgb(183,178,177);fill-rule:nonzero;"/>
                        </g>
                        <g transform="matrix(1,0,0,1,671.189,164.381)">
                            <path d="M0,-35.023L-25.277,-3.536C-27.273,-1.049 -23.758,2.51 -21.742,0C-13.316,-10.496 -4.891,-20.992 3.535,-31.487C5.531,-33.973 2.015,-37.533 0,-35.023" style="fill:rgb(241,145,33);fill-rule:nonzero;"/>
                        </g>
                        <g transform="matrix(1,0,0,1,660.06,204.88)">
                            <path d="M0,-28.985C-7.495,-20.502 -14.99,-12.019 -22.485,-3.536C-24.609,-1.132 -21.086,2.417 -18.95,0C-11.455,-8.484 -3.96,-16.966 3.535,-25.449C5.659,-27.853 2.136,-31.402 0,-28.985" style="fill:rgb(241,145,33);fill-rule:nonzero;"/>
                        </g>
                        <g transform="matrix(1,0,0,1,651.983,252.852)">
                            <path d="M0,-29.764C-9.03,-21.639 -17.128,-12.674 -24.377,-2.931C-26.299,-0.347 -21.961,2.148 -20.06,-0.407C-13.07,-9.801 -5.167,-18.398 3.536,-26.228C5.933,-28.385 2.388,-31.912 0,-29.764" style="fill:rgb(241,145,33);fill-rule:nonzero;"/>
                        </g>
                        <g transform="matrix(1,0,0,1,702.969,90.486)">
                            <path d="M0,201.41C-20.854,196.834 -41.903,193.265 -63.095,190.66C-73.354,189.398 -83.643,188.38 -93.95,187.607C-99.426,187.197 -104.907,186.856 -110.392,186.585C-113.27,186.442 -116.358,186.625 -119.192,186.011C-116.939,184.722 -115.606,182.213 -115.283,179.425C-107.914,115.793 -91.708,53.279 -67.673,-6.081C-66.141,-9.863 -69.341,-14.285 -72.911,-15.307C-77.183,-16.529 -80.623,-13.806 -82.137,-10.069C-106.716,50.634 -122.752,114.386 -130.283,179.425C-130.444,180.812 -130.037,182.129 -129.294,183.265C-134.108,185.1 -136.586,193.138 -130.892,197.214C-122.939,202.906 -110.958,201.49 -101.684,202.074C-90.724,202.764 -79.78,203.732 -68.868,204.975C-47.065,207.46 -25.419,211.171 -3.987,215.874C5.421,217.939 9.439,203.482 0,201.41" style="fill:rgb(183,178,177);fill-rule:nonzero;"/>
                        </g>
                        <g transform="matrix(1,0,0,1,700.008,76.4222)">
                            <path d="M0,212.423C-37.881,202.087 -77.604,198.107 -116.734,201.349C-114.167,182.014 -111.077,162.748 -107.469,143.58C-98.454,95.683 -86.026,47.929 -63.597,4.659C-28.18,0 7.731,3.007 42.04,12.956" style="fill:none;stroke:rgb(32,28,25);stroke-width:13.82px;"/>
                        </g>
                        <g transform="matrix(1,0,0,1,742.098,290.2)">
                            <path d="M0,-202.599C-8.178,-180.76 -16.211,-158.822 -22.271,-136.274C-34.192,-91.912 -38.321,-45.814 -42.401,0" style="fill:none;stroke:rgb(32,28,25);stroke-width:13.82px;"/>
                        </g>
                        <g transform="matrix(1,0,0,1,676.729,132.366)">
                            <path d="M0,34.893C-9.153,30.455 -19.389,28.371 -29.936,29.402C-24.912,23.376 -19.921,17.319 -14.961,11.233C-11.919,7.499 -8.888,3.755 -5.87,0C-1.805,10.276 0.271,23.199 0,34.893Z" style="fill:none;stroke:rgb(32,28,25);stroke-width:4.61px;"/>
                        </g>
                        <g transform="matrix(1,0,0,1,668.709,176.268)">
                            <path d="M0,34.893C-9.153,30.455 -19.388,28.371 -29.936,29.402C-21.831,19.679 -13.809,9.878 -5.87,0C-1.805,10.277 0.271,23.199 0,34.893Z" style="fill:none;stroke:rgb(32,28,25);stroke-width:4.61px;"/>
                        </g>
                        <g transform="matrix(1,0,0,1,661.75,224.366)">
                            <path d="M0,34.893C-9.153,30.455 -19.389,28.371 -29.936,29.402C-21.831,19.679 -13.809,9.877 -5.87,0C-1.805,10.276 0.271,23.199 0,34.893Z" style="fill:none;stroke:rgb(32,28,25);stroke-width:4.61px;"/>
                        </g>
                        <g transform="matrix(1,0,0,1,735.531,277.984)">
                            <path d="M0,-7.887C-1.354,-5.166 -1.084,-1.111 -0.872,1.815C-0.872,1.818 -0.871,1.821 -0.871,1.824C-1.483,2.912 -1.955,4.135 -1.954,5.292C-1.954,5.427 -1.929,5.554 -1.913,5.684C-3.256,6.717 -4.364,8.077 -4.597,9.648C-5.19,10.268 -5.712,10.954 -6.068,11.687C-10.964,14.249 -15.995,16.469 -21.179,18.365C-22.52,18.067 -23.88,17.875 -25.256,17.783C-26.515,17.102 -27.935,16.821 -29.372,16.713C-29.808,16.681 -30.354,16.702 -30.936,16.72C-31.342,16.474 -31.743,16.214 -32.133,15.925C-33.978,14.558 -35.363,13.248 -37.728,13.08C-38.135,11.423 -39.168,10.102 -40.929,9.761C-41.063,9.118 -41.333,8.513 -41.757,7.97C-40.636,7.148 -40.083,5.474 -41.336,4.182C-41.885,3.616 -42.385,3.003 -42.844,2.361C-43.008,1.839 -43.3,1.373 -43.691,1.032C-43.947,0.571 -44.185,0.1 -44.382,-0.391C-44.691,-1.161 -45.253,-1.788 -45.966,-2.069C-45.914,-2.158 -45.853,-2.236 -45.811,-2.337C-43.471,-7.89 -41.265,-13.494 -39.189,-19.153C-39.178,-19.183 -39.177,-19.212 -39.166,-19.242C-38.891,-19.401 -38.621,-19.575 -38.363,-19.772C-37.725,-20.26 -37.043,-20.969 -36.426,-21.796C-35.569,-21.57 -34.603,-21.567 -33.656,-21.808C-32.746,-22.041 -30.832,-22.989 -28.836,-24.28C-27.267,-24.201 -25.738,-24.307 -24.71,-24.436C-23.689,-24.565 -23.004,-25.176 -22.645,-25.93C-20.494,-25.657 -18.238,-25.758 -16.037,-25.711C-15.781,-25.515 -15.464,-25.362 -15.077,-25.272C-12.359,-24.64 -8.936,-23.804 -6.262,-22.188C-6.254,-22.174 -6.25,-22.16 -6.241,-22.146C-3.635,-17.925 -1.211,-13.607 1.05,-9.197C0.624,-8.843 0.258,-8.405 0,-7.887M12.809,-5.909C12.534,-7.39 11.331,-7.873 10.188,-7.655C9.943,-8.026 9.669,-8.364 9.379,-8.68C10.327,-11.694 10.691,-14.854 10.376,-18.074C10.236,-19.497 9.153,-20.283 8.029,-20.434C7.984,-20.51 7.955,-20.602 7.905,-20.671C7.847,-21.033 7.786,-21.394 7.708,-21.753C7.425,-23.074 5.882,-23.843 4.633,-23.499C4.597,-23.49 4.566,-23.471 4.53,-23.46C3.921,-24.596 3.263,-25.517 2.653,-26.016C2.698,-26.784 2.396,-27.565 1.628,-28.127C0.694,-30.254 -0.619,-32.199 -2.254,-33.9C-3.608,-35.307 -5.432,-34.559 -6.168,-33.238C-7.169,-33.892 -8.17,-34.545 -9.172,-35.199C-9.984,-35.729 -10.777,-35.702 -11.419,-35.366C-12.456,-35.885 -13.506,-36.35 -14.568,-36.683C-16.876,-37.407 -18.561,-36.599 -20.937,-36.514L-20.937,-36.509C-21.151,-36.489 -21.372,-36.462 -21.602,-36.425C-22.431,-36.293 -22.947,-35.794 -23.201,-35.165C-23.534,-35.161 -23.87,-35.155 -24.221,-35.135C-25.728,-35.301 -27.23,-35.527 -28.731,-35.871C-29.587,-36.067 -30.301,-35.842 -30.834,-35.408C-31.579,-35.622 -32.417,-35.501 -33.145,-34.808C-33.821,-34.163 -34.566,-33.429 -35.296,-32.632C-35.833,-32.903 -36.462,-32.994 -37.073,-32.829C-38.25,-32.51 -39.314,-31.862 -40.166,-31.007C-40.394,-30.992 -40.621,-30.958 -40.849,-30.907C-41.747,-31.251 -42.828,-31.137 -43.529,-30.385C-45.815,-27.93 -47.319,-25.262 -48.145,-22.265C-48.397,-21.897 -48.625,-21.507 -48.837,-21.107C-49.956,-20.955 -51.02,-20.167 -51.13,-18.738L-51.402,-15.211C-53.781,-11.799 -56.652,-6.946 -56.176,-2.881C-56.028,-1.622 -55.448,-0.593 -54.63,0.092C-56.037,1.824 -57.218,3.794 -57.277,5.687C-57.346,7.875 -55.677,9.179 -53.753,9.464C-53.654,9.535 -53.571,9.62 -53.463,9.684C-52.526,10.231 -51.682,10.502 -50.921,10.562C-50.762,10.988 -50.58,11.392 -50.362,11.76C-50.948,14.382 -50.946,16.972 -49.457,18.721C-49.014,19.241 -48.233,19.482 -47.53,19.438C-47.239,20.007 -46.88,20.51 -46.451,20.925C-46.852,21.024 -47.235,21.22 -47.567,21.551C-48.458,22.442 -48.607,24.216 -47.567,25.087C-45.665,26.68 -43.188,27.36 -40.774,26.576C-39.989,26.321 -39.378,25.73 -39.102,25.002C-39.089,24.998 -39.074,24.997 -39.061,24.993C-38.029,25.642 -36.9,26.019 -35.821,26.017C-35.021,26.789 -34.034,27.403 -33.064,27.752C-30.645,28.625 -27.124,28.709 -24.696,27.384C-24.51,27.474 -24.318,27.56 -24.114,27.633C-22.916,28.064 -21.637,28.287 -20.338,28.361C-20.182,28.445 -20.01,28.518 -19.821,28.574C-16.692,29.52 -13.304,28.631 -11.001,26.328C-10.765,26.092 -10.604,25.842 -10.485,25.586C-10.303,25.477 -10.127,25.36 -9.949,25.245C-9.058,25.042 -8.188,24.728 -7.443,24.409C-6.521,24.015 -5.668,23.515 -4.874,22.943C-0.36,22.122 3.444,17.848 6.127,13.856C7.137,12.935 7.975,11.885 8.474,10.776C8.887,10.24 9.073,9.554 8.956,8.832C8.977,8.356 8.921,7.877 8.779,7.398C8.79,6.947 8.876,6.489 9.053,5.935C9.179,5.542 9.167,5.121 9.068,4.718C9.413,4.341 9.746,3.956 10.061,3.563C10.455,3.175 10.77,2.718 11.036,2.226C12.561,-0.094 13.399,-2.722 12.809,-5.909" style="fill:rgb(234,101,35);fill-rule:nonzero;"/>
                        </g>
                        <g transform="matrix(1,0,0,1,701.274,345.935)">
                            <path d="M0,-35.974C-0.5,-38.566 -4.848,-38.362 -4.95,-35.366C-5.205,-27.96 -10.836,-20.076 -14.473,-13.858C-15.281,-12.474 -14.62,-11.166 -13.552,-10.537C-14.467,-8.472 -15.302,-6.372 -16.089,-4.255C-16.592,-3.79 -16.899,-3.113 -16.991,-2.368C-17.034,-2.019 -17.01,-1.674 -16.948,-1.336C-16.927,-1.042 -16.846,-0.775 -16.716,-0.537C-16.337,0.375 -15.635,1.171 -14.823,1.689C-13.434,2.578 -11.775,2.592 -10.197,2.393C-8.797,2.217 -7.778,1.388 -7.697,-0.107C-7.675,-0.526 -7.652,-0.945 -7.63,-1.365C-7.581,-2.259 -8.129,-3.058 -8.88,-3.5C-8.851,-3.567 -8.822,-3.633 -8.792,-3.7C-8.644,-3.895 -8.508,-4.109 -8.408,-4.367L-7.674,-6.262C-6.218,-9.616 -4.796,-12.984 -3.448,-16.382C-3.276,-16.815 -3.242,-17.206 -3.293,-17.56C-1.298,-22.705 0.696,-27.85 2.691,-32.995C3.451,-34.953 1.659,-36.178 0,-35.974" style="fill:rgb(114,111,110);fill-rule:nonzero;"/>
                        </g>
                        <g transform="matrix(1,0,0,1,705.269,353.476)">
                            <path d="M0,-40.2C-1.07,-37.222 -2.126,-34.242 -3.131,-31.25C-3.692,-30.989 -4.145,-30.48 -4.318,-29.667C-4.719,-27.787 -5.084,-25.903 -5.426,-24.015C-5.958,-22.221 -6.455,-20.418 -6.918,-18.606C-7.889,-18.896 -8.986,-18.647 -9.626,-17.495C-10.777,-15.423 -11.407,-13.254 -11.674,-10.909C-11.827,-9.565 -10.416,-8.409 -9.174,-8.409C-9.125,-8.409 -9.081,-8.42 -9.033,-8.423C-9.457,-5.712 -9.773,-2.975 -9.936,-0.203C-10.123,3.011 -5.122,3 -4.936,-0.203C-4.927,-0.342 -4.913,-0.478 -4.904,-0.616C-4.481,-0.709 -4.075,-0.885 -3.736,-1.154C-3.492,-1.349 -3.248,-1.544 -3.004,-1.738C-1.767,-2.725 -2.003,-4.076 -2.855,-4.959C-2.396,-11.028 -1.625,-17.045 -0.539,-23.024C1.062,-28.357 2.935,-33.624 4.821,-38.871C5.911,-41.904 1.082,-43.211 0,-40.2" style="fill:rgb(203,198,196);fill-rule:nonzero;"/>
                        </g>
                        <g transform="matrix(1,0,0,1,726.73,272.349)">
                            <path d="M0,4.508C0.063,4.095 0.127,3.682 0.19,3.27C0.454,2.882 0.7,2.485 0.914,2.072C0.695,2.893 0.379,3.714 0,4.508M-1.964,-12.323C-1.109,-11.76 -0.378,-10.985 0.229,-9.965C0.069,-9.997 -0.09,-10.018 -0.248,-10.035C-0.78,-10.852 -1.349,-11.619 -1.964,-12.323M7.635,1.387C7.569,0.86 7.478,0.303 7.362,-0.265C8.57,-6.305 4.722,-14.571 -0.074,-17.193C-4.261,-19.481 -9.749,-18.841 -14.293,-18.355C-19.707,-17.776 -24.807,-16.394 -29.322,-13.277C-30.926,-12.17 -30.619,-10.132 -29.537,-9.121C-32.873,-6.064 -35.012,-1.837 -34.499,2.696C-34.136,5.911 -32.62,8.994 -30.335,11.254C-30.096,12 -29.726,12.688 -29.256,13.313C-29.194,13.628 -29.051,13.953 -28.804,14.28C-23.091,21.844 -12.087,23.989 -4.303,18.175C3.533,17.272 8.666,9.643 7.635,1.387" style="fill:white;fill-rule:nonzero;"/>
                        </g>
                        <g transform="matrix(1,0,0,1,697.873,287.449)">
                            <path d="M0,-28.176C-5.322,-22.931 -7.485,-14.947 -5.451,-7.915C-3.418,-0.882 2.753,4.931 10.169,6.753C17.584,8.575 25.958,6.317 31.24,1.035C32.858,-0.582 34.2,-2.461 35.09,-4.528C36.022,-6.694 36.448,-9.027 36.738,-11.351C37.429,-16.869 37.224,-22.964 33.55,-27.281C25.49,-36.751 8.563,-36.614 0,-28.176Z" style="fill:none;stroke:rgb(32,28,25);stroke-width:9.21px;"/>
                        </g>
                        <g transform="matrix(1,0,0,1,704.435,238.401)">
                            <path d="M0,69.923C2.601,70.453 5.472,69.024 6.616,66.63C9.258,68.743 12.56,70.3 15.93,69.992C19.299,69.684 22.579,67.067 22.8,63.69C27.441,65.976 33.835,62.028 33.869,56.855C36.994,56.157 40.132,54.601 41.722,51.821C43.313,49.042 42.713,44.909 39.879,43.419C42.254,41.37 44.263,38.666 44.638,35.552C45.013,32.438 43.337,28.956 40.343,28.021C41.899,25.444 43.114,22.391 42.389,19.469C41.663,16.548 38.251,14.215 35.563,15.569C36.351,9.459 29.584,3.718 23.684,5.491C20.556,0.63 12.954,-0.53 8.519,3.179C4.1,0.48 -2.534,2.82 -4.283,7.694C-6.832,5.95 -10.431,5.902 -13.025,7.577C-15.621,9.252 -17.059,12.551 -16.52,15.592C-21.494,16.458 -23.926,23.635 -20.5,27.345C-23.309,27.033 -26.179,29.132 -26.731,31.903C-27.284,34.674 -25.439,37.714 -22.727,38.503C-25.525,39.622 -27.345,42.791 -26.9,45.772C-26.456,48.753 -23.79,51.254 -20.787,51.507C-21.899,52.844 -21.728,55.059 -20.423,56.21C-19.118,57.36 -16.899,57.253 -15.712,55.982C-17.784,58.817 -17.029,63.302 -14.144,65.303C-11.068,67.435 -9.15,64.749 -6.546,65.19C-3.787,65.657 -3.326,69.245 0,69.923Z" style="fill:none;stroke:rgb(32,28,25);stroke-width:4.61px;"/>
                        </g>
                        <g transform="matrix(1,0,0,1,713.939,349.022)">
                            <path d="M0,-40.497C-1.058,-40.445 -1.676,-39.309 -2.056,-38.319C-5.021,-30.61 -6.332,-22.382 -7.624,-14.224C-8.524,-8.548 -8.031,-1.167 -8.931,4.51C-16.431,2.977 -23.883,1.213 -31.274,-0.778C-31.921,-0.953 -33.78,-0.204 -33.494,-0.809C-26.747,-15.11 -21.021,-29.893 -16.375,-45.007" style="fill:none;stroke:rgb(32,28,25);stroke-width:4.61px;"/>
                        </g>
                        <g transform="matrix(1,0,0,1,706.732,309.863)">
                            <path d="M0,38.519C4.389,37.505 8.113,38.191 12.608,37.904C9.344,25.587 8.348,12.672 9.685,0" style="fill:none;stroke:rgb(32,28,25);stroke-width:4.61px;"/>
                        </g>
                        <g transform="matrix(-0.309831,0.950792,0.950792,0.309831,716.001,341.811)">
                            <path d="M-27.891,-20.246C-13.734,-21.548 0.54,-21.548 14.696,-20.246" style="fill:none;stroke:rgb(32,28,25);stroke-width:4.61px;"/>
                        </g>
                        <g transform="matrix(-0.137854,0.990453,0.990453,0.137854,654.771,106.88)">
                            <path d="M-12.935,-12.027C-5.245,-10.174 2.885,-10.174 10.576,-12.027" style="fill:none;stroke:rgb(234,101,35);stroke-width:4.61px;"/>
                        </g>
                        <g transform="matrix(0.529327,0.848418,0.848418,-0.529327,650.249,92.692)">
                            <path d="M-2.927,-5.277C1.188,-4.663 5.396,-4.663 9.511,-5.277" style="fill:none;stroke:rgb(234,101,35);stroke-width:4.61px;"/>
                        </g>
                        <g transform="matrix(0.671393,-0.741101,-0.741101,-0.671393,655.911,104.381)">
                            <path d="M-1.945,4.385C1.783,5.981 6.163,5.981 9.891,4.385" style="fill:none;stroke:rgb(234,101,35);stroke-width:4.61px;"/>
                        </g>
                        <g transform="matrix(-0.160375,0.987056,0.987056,0.160375,668.774,108.214)">
                            <path d="M-13.87,-11.799C-5.943,-12.794 2.109,-12.794 10.036,-11.799" style="fill:none;stroke:rgb(234,101,35);stroke-width:4.61px;"/>
                        </g>
                        <g transform="matrix(1,0,0,1,668.379,118.277)">
                            <path d="M0,-23.808C-2.501,-17.198 -3.88,-10.111 -4.07,-2.873C-1.35,-1.461 2.515,-0.617 5.472,0" style="fill:none;stroke:rgb(234,101,35);stroke-width:4.61px;"/>
                        </g>
                        <g transform="matrix(0.960533,0.278166,0.278166,-0.960533,668.174,95.0857)">
                            <path d="M-0.2,-1.412C3.091,-0.801 6.569,-0.8 9.955,-1.413" style="fill:none;stroke:rgb(234,101,35);stroke-width:4.61px;"/>
                        </g>
                        <g transform="matrix(0.93979,0.341753,0.341753,-0.93979,667.281,104.129)">
                            <path d="M-0.242,-1.376C2.441,-1.375 5.125,-1.375 7.807,-1.376" style="fill:none;stroke:rgb(234,101,35);stroke-width:4.61px;"/>
                        </g>
                        <g transform="matrix(-0.145196,0.989403,0.989403,0.145196,694.658,111.502)">
                            <path d="M-13.077,-11.298C-8.877,-11.298 -4.676,-11.298 -0.476,-11.298C2.936,-11.298 6.349,-11.298 9.761,-11.298" style="fill:none;stroke:rgb(234,101,35);stroke-width:4.61px;"/>
                        </g>
                        <g transform="matrix(1,0,0,1,684.605,119.617)">
                            <path d="M0,-20.815C1.975,-18.026 2.842,-14.632 3.959,-11.402C5.334,-7.423 7.14,-3.593 9.332,0" style="fill:none;stroke:rgb(234,101,35);stroke-width:4.61px;"/>
                        </g>
                        <g transform="matrix(-0.133879,0.990998,0.990998,0.133879,708.445,112.643)">
                            <path d="M-14.288,-12.487C-10.016,-12.71 -5.74,-12.819 -1.472,-12.816C2.666,-12.812 6.797,-12.703 10.914,-12.487" style="fill:none;stroke:rgb(234,101,35);stroke-width:4.61px;"/>
                        </g>
                        <g transform="matrix(1,0,0,1,707.343,122.668)">
                            <path d="M0,-21.827C-1.785,-17.337 -2.58,-12.457 -2.314,-7.633C-2.212,-5.769 -1.916,-3.821 -0.792,-2.33C0.331,-0.839 2.51,0 4.137,-0.915C4.9,-1.344 5.437,-2.079 5.909,-2.816C9.101,-7.789 10.47,-13.904 9.703,-19.762" style="fill:none;stroke:rgb(234,101,35);stroke-width:4.61px;"/>
                        </g>
                    </g>
                </g>
            </g>
        </g>
    </g>
</svg>
