<?xml version="1.0" encoding="UTF-8" standalone="no"?>
<!DOCTYPE svg PUBLIC "-//W3C//DTD SVG 1.1//EN" "http://www.w3.org/Graphics/SVG/1.1/DTD/svg11.dtd">
<svg width="100%" height="100%" viewBox="0 0 842 596" version="1.1" xmlns="http://www.w3.org/2000/svg" xmlns:xlink="http://www.w3.org/1999/xlink" xml:space="preserve" xmlns:serif="http://www.serif.com/" style="fill-rule:evenodd;clip-rule:evenodd;stroke-miterlimit:10;">
    <g transform="matrix(0.24,0,0,0.24,0,0)">
        <g id="Layer-2" serif:id="Layer 2" transform="matrix(4.16667,0,0,4.16667,0,0)">
            <g transform="matrix(1,0,0,1,295.129,382.549)">
                <path d="M0,-31.706C-0.34,-31.9 -0.746,-32.024 -1.235,-32.023C-1.598,-32.022 -1.96,-32.021 -2.323,-32.021C-6.596,-32.665 -10.709,-32.636 -14.974,-31.903C-16.444,-31.65 -16.943,-30.329 -16.702,-29.119C-16.972,-29.147 -17.228,-29.137 -17.468,-29.092C-17.412,-29.289 -17.343,-29.479 -17.29,-29.678C-16.959,-30.917 -17.701,-32.48 -19.036,-32.753C-22.139,-33.386 -23.74,-32.215 -26.218,-30.415C-28.653,-28.646 -31.058,-26.836 -33.463,-25.024C-36.558,-23.82 -39.502,-21.129 -41.692,-19.139C-44.514,-16.573 -49.972,-11.496 -49.828,-7.337C-49.812,-6.864 -49.737,-6.445 -49.617,-6.072C-50.473,-5.159 -51.128,-4.124 -51.316,-2.883C-51.542,-1.389 -50.666,-0.082 -49.413,0.204C-49.385,0.259 -49.367,0.321 -49.334,0.373C-48.99,0.906 -48.478,1.376 -47.84,1.522C-47.144,1.68 -46.562,1.557 -45.914,1.27C-45.093,0.906 -44.273,0.543 -43.453,0.18C-42.917,-0.058 -42.453,-0.775 -42.304,-1.314C-42.254,-1.497 -42.234,-1.7 -42.229,-1.907C-31.676,-5.98 -23.229,-14.284 -18.954,-24.757C-18.676,-24.532 -18.323,-24.361 -17.865,-24.288C-13.613,-23.601 -9.479,-23.982 -5.605,-25.474C-2.807,-25.575 -0.105,-26.254 2.517,-27.387C5.46,-28.659 2.923,-32.962 0,-31.706" style="fill:rgb(60,59,58);fill-rule:nonzero;"/>
            </g>
            <g transform="matrix(1,0,0,1,441.156,325.939)">
                <path d="M0,-5.336C0.484,-6.31 1.312,-6.783 1.782,-7.647C1.428,-6.698 1.203,-5.736 1.184,-4.839C0.156,-3.801 -1.404,-2.509 0,-5.336M51.817,-0.191C51.687,-1.052 50.834,-1.689 50.071,-1.938C49.307,-2.188 48.535,-2.221 47.788,-2.102C47.32,-3.234 45.972,-4.052 44.761,-3.644C44.724,-3.631 44.685,-3.614 44.646,-3.601C44.55,-4.5 44.074,-5.383 43.079,-6.197C41.88,-7.178 40.596,-7.316 39.358,-6.908C39.428,-7.09 39.493,-7.269 39.551,-7.44C40.233,-9.485 37.677,-11.424 35.878,-10.264C35.063,-9.737 34.063,-8.792 33.091,-7.623C33.143,-8.276 33.094,-8.923 32.919,-9.541C32.381,-11.449 30.142,-11.852 28.74,-10.644C28.591,-10.515 28.441,-10.372 28.292,-10.231C28.373,-10.603 28.435,-10.964 28.472,-11.309C28.668,-13.12 26.171,-14.53 24.71,-13.467C24.309,-13.175 23.892,-12.834 23.474,-12.458C23.083,-13.956 21.229,-15.052 19.784,-14.073C18.63,-13.291 17.369,-12.13 16.362,-10.8C16.444,-11.268 16.509,-11.736 16.534,-12.201C16.663,-14.52 13.788,-15.291 12.267,-13.969C10.404,-12.351 8.523,-9.36 8.498,-6.754C8.38,-6.68 8.27,-6.597 8.145,-6.53C8.021,-6.496 7.898,-6.461 7.774,-6.427C8.205,-7.699 8.479,-8.975 8.57,-10.132C8.738,-12.263 5.698,-13.472 4.303,-11.899C3.464,-10.955 2.613,-9.629 2.009,-8.224C2.04,-8.333 2.074,-8.438 2.094,-8.56C2.284,-9.769 1.936,-10.671 0.945,-11.383C0.793,-11.492 0.641,-11.602 0.488,-11.712C-0.171,-12.186 -1.376,-12.184 -2.036,-11.712L-2.42,-11.437C-3.43,-10.713 -3.662,-9.615 -3.421,-8.652C-4.136,-7.779 -5.183,-6.853 -5.537,-6.045C-6.012,-4.967 -6.207,-3.821 -6.056,-2.65C-5.753,-0.316 -4.03,1.498 -1.64,1.694C0.855,1.899 2.944,0.788 4.578,-0.93C4.743,-0.9 4.89,-0.858 5.069,-0.84C7.48,-0.585 9.65,-1.31 11.438,-2.617C11.539,-2.577 11.622,-2.526 11.729,-2.489C13.247,-1.949 14.726,-2.072 16.103,-2.602C16.392,-2.357 16.721,-2.121 17.097,-1.898C18.318,-1.178 19.493,-0.951 20.596,-1.077C20.997,-0.711 21.479,-0.367 22.059,-0.052C23.329,0.639 24.71,0.735 26.052,0.416C26.42,0.758 26.841,1.082 27.37,1.367C28.091,1.756 28.807,1.962 29.51,2.024C29.914,3.226 30.905,4.166 32.748,4.614C32.876,4.645 33.01,4.668 33.148,4.685C33.198,4.848 33.256,5.003 33.325,5.151C34.854,8.414 37.645,8.416 40.39,7.054C40.533,7.134 40.681,7.212 40.841,7.285C41.783,7.72 42.848,7.842 43.931,7.743C46.266,9.955 50.395,8.967 51.233,5.401C51.41,4.647 51.261,4.001 50.928,3.493C51.644,2.356 52.013,1.09 51.817,-0.191" style="fill:rgb(29,29,27);fill-rule:nonzero;"/>
            </g>
            <g transform="matrix(1,0,0,1,262.11,518.721)">
                <path d="M0,9.429C-0.777,10.447 -1.056,9.783 -1.11,8.605C-1.012,7.988 -0.968,7.35 -0.949,6.706C-0.633,6.614 -0.315,6.559 0.003,6.53C0.058,7.09 0.134,7.644 0.237,8.185C0.231,8.759 0.164,9.215 0,9.429M-6.405,9.341C-6.49,9.451 -6.585,9.542 -6.701,9.586C-6.821,9.632 -6.908,9.53 -6.974,9.339C-6.609,8.596 -6.703,7.617 -7.111,6.819C-7.07,5.782 -6.969,4.788 -6.905,4.518C-6.758,3.94 -6.585,3.37 -6.393,2.808C-6.273,3.459 -6.149,4.277 -6.063,5.127C-6.248,6.37 -6.41,7.848 -6.405,9.341M-26.922,3.344C-27.007,3.407 -27.104,3.456 -27.185,3.523C-27.428,3.724 -27.638,3.95 -27.832,4.187C-27.826,3.697 -27.746,3.2 -27.577,2.719C-27.352,2.865 -27.103,2.975 -26.838,3.043C-26.868,3.138 -26.894,3.246 -26.922,3.344M19.749,-5.622C19.451,-5.749 19.137,-5.834 18.824,-5.858C17.399,-5.968 15.981,-6.116 14.566,-6.285C12.086,-7.776 9.337,-8.766 6.456,-9.167C5.653,-9.279 4.864,-9.133 4.268,-8.705C-0.83,-10.233 -6.001,-11.403 -11.255,-12.236C-13.413,-12.702 -15.603,-13.031 -17.87,-13.11C-18.155,-13.12 -18.405,-13.081 -18.638,-13.023C-19.917,-13.311 -21.217,-13.515 -22.538,-13.633C-23.493,-13.834 -24.448,-14.034 -25.402,-14.234C-25.824,-14.367 -26.296,-14.44 -26.901,-14.499C-27.194,-14.527 -27.457,-14.491 -27.7,-14.424C-28.443,-16.092 -31.016,-16.868 -32.113,-14.797C-33.468,-12.241 -34.144,-9.621 -34.087,-6.95C-35.754,-2.638 -36.906,2.414 -35.891,6.451C-36.777,7.233 -37.555,8.242 -38.18,9.538C-38.711,10.643 -38.597,12.384 -37.283,12.958C-31.247,15.597 -24.868,15.262 -18.446,15.414L-9.702,17.64C-4.156,20.533 1.605,22.937 7.578,24.846C7.853,24.934 8.107,24.96 8.352,24.962C8.866,25.775 9.796,26.297 11.001,25.96C11.873,25.717 12.664,25.35 13.389,24.897C13.974,25.672 15.115,25.807 16.001,25.683C17.271,25.504 18.3,24.659 18.92,23.564C19.645,22.283 19.132,21.067 18.216,20.384C19.419,18.466 19.577,15.86 19.88,13.681C20.067,12.338 20.226,10.995 20.359,9.651C21.683,7.864 22.239,5.703 21.964,3.304C22.623,1.109 23.266,-1.091 23.944,-3.28C24.768,-5.94 21.477,-7.2 19.749,-5.622" style="fill:rgb(236,102,7);fill-rule:nonzero;"/>
            </g>
            <g transform="matrix(1,0,0,1,289.984,441.329)">
                <path d="M0,48.23C-0.222,49.039 -0.421,49.717 -0.542,50.161C-0.584,50.319 -0.634,50.509 -0.689,50.717C-0.457,48.859 -0.1,47.061 0.413,45.325C0.262,46.292 0.126,47.26 0,48.23M-9.63,4.552C-9.263,3.365 -8.911,2.17 -8.589,0.963C-8.55,0.817 -8.526,0.671 -8.515,0.528C-8.132,0.403 -7.754,0.253 -7.378,0.088C-8.23,1.558 -9.012,3.073 -9.63,4.552M-15.673,-12.164C-15.726,-12.451 -15.784,-12.736 -15.843,-13.022C-15.584,-12.946 -15.327,-12.868 -15.065,-12.804C-15.265,-12.587 -15.482,-12.388 -15.673,-12.164M13.167,67.917C13.107,67.862 13.043,67.823 12.982,67.775L11.906,47.919C11.89,47.614 11.805,47.324 11.675,47.053C11.767,44.323 11.836,41.591 11.879,38.859C12.268,38.462 12.529,37.916 12.525,37.193C12.488,28.614 12.45,20.034 12.413,11.454C12.398,8.09 12.559,4.667 12.122,1.321C11.56,-2.976 9.469,-6.877 9.979,-11.287C10.091,-12.252 9.707,-12.918 9.111,-13.296C9.043,-13.937 8.976,-14.578 8.906,-15.218C8.901,-17.541 8.897,-19.864 8.893,-22.187C8.89,-24.017 6.749,-25.388 5.131,-24.345C3.55,-23.326 1.979,-22.938 0.113,-23.351C-1.082,-23.615 -2.012,-23.079 -2.537,-22.276L-19.138,-22.467C-20.843,-22.487 -21.636,-21.093 -21.534,-19.772C-21.857,-19.379 -22.101,-18.885 -22.218,-18.226C-22.455,-16.895 -21.83,-15.864 -21.445,-14.608C-21.331,-14.238 -21.235,-13.866 -21.134,-13.495C-21.346,-13.163 -21.495,-12.769 -21.532,-12.299L-22.088,-5.303C-22.198,-3.915 -21.322,-3.132 -20.274,-2.949C-20.299,-2.733 -20.321,-2.517 -20.352,-2.303C-22.302,0.962 -23.48,4.626 -23.899,8.648C-23.979,9.41 -23.678,10.016 -23.195,10.435C-23.584,12.494 -23.821,14.585 -23.917,16.706C-25.963,19.36 -27.543,22.275 -28.504,25.458C-29.395,25.767 -30.157,26.504 -30.286,27.671C-30.602,30.528 -31.768,35.927 -29.306,38.158C-27.542,39.757 -25.095,39.1 -23.457,37.667C-22.652,36.962 -21.958,36.148 -21.345,35.265C-19.063,32.599 -17.286,28.679 -16.258,26.466C-14.175,21.982 -12.949,17.274 -12.411,12.41C-11.805,10.899 -11.242,9.37 -10.707,7.829C-11.176,9.924 -11.091,11.791 -10.097,13.13C-10.878,17.342 -11.592,21.566 -12.251,25.799C-13.726,29.12 -15.597,32.277 -17.856,35.213C-18.174,35.269 -18.503,35.406 -18.835,35.642C-21.468,37.515 -21.97,40.034 -21.487,43.164C-21.043,46.037 -20.359,48.912 -19.606,51.777C-20.725,52.042 -21.381,53.048 -21.516,54.205C-21.81,56.731 -22.539,59.182 -23.522,61.523C-24.045,62.768 -22.959,64.273 -21.776,64.598C-20.907,64.836 -20.164,64.603 -19.592,64.11C-18.729,64.702 -17.748,65.008 -16.726,65.153C-15.469,65.552 -14.211,65.946 -12.949,66.322C-12.769,66.911 -12.373,67.443 -11.828,67.822C-9.719,69.286 -7.301,70.283 -4.771,70.714C-3.583,70.917 -2.372,70.47 -1.854,69.378C-1.385,69.605 -0.916,69.819 -0.446,70.012C0.953,70.664 2.351,71.314 3.75,71.965C4.296,72.22 4.911,72.301 5.484,72.21C5.791,72.617 6.218,72.93 6.759,73.059C9.102,73.618 11.354,73.009 13.167,71.453C14.163,70.597 14.11,68.783 13.167,67.917" style="fill:rgb(157,156,156);fill-rule:nonzero;"/>
            </g>
            <g transform="matrix(1,0,0,1,278.321,559.834)">
                <path d="M0,-1.849C-6.283,-0.474 -12.43,-1.54 -17.938,-4.827C-20.708,-6.479 -23.226,-2.158 -20.461,-0.509C-13.792,3.469 -6.243,4.63 1.33,2.972C4.471,2.285 3.142,-2.536 0,-1.849" style="fill:rgb(157,156,156);fill-rule:nonzero;"/>
            </g>
            <g transform="matrix(1,0,0,1,316.648,566.295)">
                <path d="M0,-4.857C-0.701,-6.055 -2.23,-6.4 -3.42,-5.753C-4.8,-5.005 -6.179,-4.256 -7.559,-3.507C-8.045,-3.243 -8.387,-2.808 -8.585,-2.312C-13.265,-2.286 -17.824,-3.807 -21.619,-6.882C-24.097,-8.891 -27.656,-5.375 -25.154,-3.347C-18.425,2.107 -9.959,4.034 -1.563,1.723C0.305,1.208 0.561,-0.747 -0.208,-2.033C0.403,-2.82 0.511,-3.983 0,-4.857" style="fill:rgb(157,156,156);fill-rule:nonzero;"/>
            </g>
            <g transform="matrix(1,0,0,1,285.958,396.201)">
                <path d="M0,-2.554C-0.125,-3.02 -0.619,-3.174 -1.091,-3.183C-1.142,-3.27 -1.21,-3.349 -1.304,-3.409C-0.998,-3.718 -0.845,-4.133 -1.311,-4.431C-1.863,-4.783 -2.876,-4.525 -3.37,-4.184C-4.132,-3.657 -4.826,-3.056 -5.452,-2.393C-5.54,-2.333 -5.62,-2.263 -5.699,-2.189C-6.289,-2.517 -7.183,-2.213 -7.704,-1.917C-9.05,-1.154 -8.55,0.28 -7.378,0.734C-7.359,0.794 -7.333,0.853 -7.29,0.912C-7.08,1.196 -6.7,1.257 -6.314,1.225C-6.323,1.264 -6.332,1.303 -6.34,1.342C-6.458,1.875 -5.809,2.139 -5.403,2.176C-4.838,2.229 -4.052,2.029 -3.685,1.566C-3.176,0.924 -2.666,0.281 -2.157,-0.362C-1.983,-0.58 -1.921,-0.808 -1.948,-1.015C-1.697,-1.081 -1.445,-1.149 -1.194,-1.215C-0.648,-1.361 0.183,-1.871 0,-2.554" style="fill:rgb(29,29,27);fill-rule:nonzero;"/>
            </g>
            <g transform="matrix(1,0,0,1,299.911,391.526)">
                <path d="M0,0.161C-0.002,0.11 -0.021,0.059 -0.072,0.008C-0.201,-0.12 -0.329,-0.248 -0.458,-0.375C-0.342,-0.837 -0.556,-1.128 -0.922,-1.269L-0.944,-1.641C-1.018,-2.878 -3.013,-2.777 -3.669,-1.995C-4.908,-1.848 -6.06,-1.303 -7,-0.342C-7.32,-0.015 -7.378,0.661 -6.91,0.903C-6.147,1.298 -5.313,1.488 -4.479,1.504C-4.552,1.651 -4.562,1.817 -4.452,2C-4.001,2.746 -3.066,3.039 -2.234,2.991C-1.775,2.965 -1.348,2.89 -0.935,2.68C-0.712,2.566 -0.221,2.32 -0.215,2.011C-0.213,1.904 -0.215,1.808 -0.224,1.719C-0.046,1.601 0.114,1.467 0.223,1.295C0.471,0.903 0.392,0.399 0,0.161" style="fill:rgb(29,29,27);fill-rule:nonzero;"/>
            </g>
            <g transform="matrix(1,0,0,1,296.281,398.716)">
                <path d="M0,-0.84C0.295,-1.164 0.517,-1.674 0.196,-2.002C0.22,-2.062 0.215,-2.121 0.173,-2.181C-0.316,-2.861 -0.951,-2.915 -1.653,-2.807C-4.743,-3.717 -8.057,-2.903 -10.51,-0.664C-10.815,-0.589 -11.076,-0.494 -11.205,-0.394C-11.863,0.12 -12.211,0.472 -12.428,1.313C-12.543,1.764 -11.79,1.723 -11.416,1.679C-11.424,1.777 -11.417,1.879 -11.387,1.986C-11.139,2.877 -9.524,2.754 -8.87,2.723C-6.426,2.608 -3.531,1.82 -1.57,0.225C-1.458,0.199 -1.345,0.176 -1.231,0.145C-0.855,0.046 0.309,-0.549 0,-0.84" style="fill:rgb(195,0,100);fill-rule:nonzero;"/>
            </g>
            <g transform="matrix(1,0,0,1,206.737,263.649)">
                <path d="M0,10.137C0.553,10.163 1.122,10.101 1.7,9.949C3.155,10.932 4.703,11.117 6.231,10.742C6.262,10.764 6.294,10.782 6.325,10.803C3.542,11.174 0.765,11.428 -2.082,11.503C-1.389,11.256 -0.685,10.781 0,10.137M23.633,-8.25C22.684,-8.555 21.484,-8.191 20.859,-7.383C20.566,-7.476 20.264,-7.563 19.929,-7.631C15.865,-8.456 11.767,-7.895 7.67,-7.047C6.901,-7.227 6.151,-7.183 5.433,-6.965C3.186,-7.06 0.943,-7.045 -1.298,-6.908C-3.713,-7.074 -6.067,-6.832 -8.557,-6.08C-8.934,-5.966 -9.249,-5.797 -9.507,-5.592C-10.227,-5.687 -10.978,-5.448 -11.567,-4.873C-12.981,-5.79 -15.408,-5.224 -15.565,-3.01C-15.794,0.214 -14.977,4.552 -12.327,6.83C-11.648,7.8 -10.615,8.405 -9.127,8.409C-8.701,8.725 -8.239,8.988 -7.744,9.188C-7.205,10.289 -6.419,11.127 -5.379,11.539C-6.537,11.616 -7.261,12.382 -7.537,13.288C-8.852,14.525 -8.406,17.461 -5.999,17.758C1.577,18.692 8.938,16.17 16.505,16.626C19.723,16.82 19.972,11.825 16.761,11.631C16.611,11.622 16.462,11.621 16.312,11.615C16.034,10.54 15.145,9.598 13.818,9.647C14.038,9.488 14.253,9.322 14.465,9.153C17.371,8.446 20.653,5.29 21.854,3.66C23.317,1.677 24.377,-0.704 24.398,-2.789C24.767,-3.53 25.06,-4.306 25.248,-5.104C25.557,-6.418 24.989,-7.813 23.633,-8.25" style="fill:rgb(178,178,178);fill-rule:nonzero;"/>
            </g>
            <g transform="matrix(1,0,0,1,231.831,247.459)">
                <path d="M0,-2.36C-0.672,-3.805 -1.831,-4.815 -3.262,-5.508C-4.608,-7.04 -6.606,-8.207 -8.143,-9.745C-10.201,-11.805 -13.412,-9.21 -12.283,-7.005C-18.371,-7.352 -26.523,-8.693 -31.401,-5.138C-31.854,-4.808 -32.114,-4.423 -32.237,-4.025C-33.304,-3.318 -34.151,-2.25 -34.466,-0.996C-34.514,-1 -34.559,-1.017 -34.607,-1.018C-37.569,-1.091 -42.038,-0.933 -43.439,2.262C-43.5,2.4 -43.548,2.537 -43.592,2.674C-43.927,2.758 -44.262,2.916 -44.583,3.167C-44.729,3.281 -44.874,3.394 -45.019,3.508C-45.675,4.021 -45.971,5.096 -45.761,5.883C-44.814,9.445 -41.513,9.301 -38.399,7.791C-35.496,7.803 -31.422,6.901 -28.532,5.126C-27.99,5.092 -27.455,4.988 -26.947,4.81C-26.411,4.623 -25.932,4.372 -25.498,4.077C-23.631,5.576 -21.124,6.014 -18.65,4.342C-18.283,4.094 -17.968,3.804 -17.687,3.494C-17.17,3.309 -16.661,3.095 -16.161,2.861C-16.035,2.926 -15.894,2.972 -15.76,3.027C-15.767,4.098 -15.176,5.212 -14.063,5.484C-11.979,5.995 -10.079,5.823 -8.083,5.073C-7.391,4.813 -6.961,4.109 -6.82,3.355C-5.713,3.538 -4.686,3.252 -3.854,2.648C-2.629,4.148 0.368,3.808 0.605,1.392C1.482,0.203 1.202,-1.624 0,-2.36" style="fill:rgb(255,237,0);fill-rule:nonzero;"/>
            </g>
            <g transform="matrix(1,0,0,1,447.075,360.7)">
                <path d="M0,0.338C0.069,-0.14 -0.324,-0.476 -0.754,-0.671C-0.767,-0.771 -0.799,-0.87 -0.86,-0.963C-0.457,-1.126 -0.152,-1.447 -0.463,-1.904C-0.831,-2.446 -1.864,-2.609 -2.452,-2.49C-3.36,-2.308 -4.235,-2.029 -5.072,-1.668C-5.177,-1.647 -5.278,-1.614 -5.38,-1.578C-5.793,-2.112 -6.733,-2.186 -7.329,-2.12C-8.867,-1.951 -8.974,-0.436 -8.077,0.444C-8.083,0.506 -8.083,0.571 -8.066,0.643C-7.985,0.985 -7.661,1.192 -7.294,1.316C-7.317,1.348 -7.341,1.38 -7.364,1.413C-7.683,1.856 -7.19,2.355 -6.833,2.549C-6.334,2.82 -5.533,2.947 -5.013,2.667C-4.291,2.278 -3.569,1.889 -2.848,1.5C-2.602,1.367 -2.455,1.183 -2.398,0.983C-2.141,1.02 -1.884,1.058 -1.626,1.096C-1.066,1.178 -0.102,1.037 0,0.338" style="fill:rgb(29,29,27);fill-rule:nonzero;"/>
            </g>
            <g transform="matrix(1,0,0,1,461.488,365.256)">
                <path d="M0,-2.9C-0.309,-2.879 -0.628,-2.831 -0.946,-2.761C-0.83,-3.785 -2.49,-4.366 -3.34,-3.937C-4.536,-4.293 -5.81,-4.246 -7.054,-3.735C-7.477,-3.561 -7.797,-2.962 -7.462,-2.555C-6.917,-1.891 -6.226,-1.387 -5.467,-1.043C-5.591,-0.936 -5.667,-0.789 -5.637,-0.577C-5.518,0.287 -4.774,0.925 -3.99,1.209C-3.56,1.367 -3.137,1.466 -2.675,1.437C-2.425,1.421 -1.877,1.388 -1.749,1.107C-1.705,1.01 -1.67,0.921 -1.642,0.834C-1.433,0.797 -1.232,0.737 -1.064,0.622C-0.681,0.36 -0.556,-0.133 -0.821,-0.507C-0.806,-0.547 -0.812,-0.595 -0.825,-0.648C-0.492,-0.792 -0.203,-0.997 -0.133,-1.287C-0.098,-1.432 -0.136,-1.538 -0.217,-1.614C0.163,-1.726 0.521,-1.904 0.745,-2.199C1.144,-2.721 0.401,-2.926 0,-2.9" style="fill:rgb(29,29,27);fill-rule:nonzero;"/>
            </g>
            <g transform="matrix(1,0,0,1,454.888,364.973)">
                <path d="M0,4.028C0.399,3.847 0.804,3.466 0.64,3.038C0.685,2.993 0.704,2.936 0.687,2.865C0.508,2.047 -0.054,1.746 -0.742,1.568C-3.221,-0.489 -6.587,-1.049 -9.726,0.039C-10.034,-0.013 -10.312,-0.03 -10.471,0.012C-11.277,0.223 -11.737,0.41 -12.268,1.097C-12.552,1.465 -11.844,1.726 -11.482,1.833C-11.529,1.92 -11.563,2.016 -11.578,2.127C-11.701,3.043 -10.17,3.567 -9.556,3.798C-7.266,4.658 -4.295,5.077 -1.863,4.386C-1.749,4.407 -1.638,4.43 -1.521,4.447C-1.137,4.505 0.169,4.418 0,4.028" style="fill:rgb(195,0,100);fill-rule:nonzero;"/>
            </g>
            <g transform="matrix(1,0,0,1,451.589,402.79)">
                <path d="M0,12.817C-0.068,12.829 -0.137,12.838 -0.205,12.849C-0.585,11.964 -1.483,11.397 -2.411,11.304C-3.313,9.984 -4.252,8.691 -5.233,7.427C-5.776,3.37 -7.618,-0.392 -10.537,-3.459C-11.776,-4.762 -13.623,-4.196 -14.411,-2.928C-15.342,-2.649 -16.13,-1.89 -16.194,-0.645C-16.231,0.578 -16.345,1.781 -16.542,2.971C-17.343,1.862 -18.958,1.473 -20.249,2.609C-19.815,1.133 -19.431,-0.361 -19.106,-1.878C-18.437,-5.007 -23.032,-6.323 -23.928,-3.207C-23.991,-2.988 -24.063,-2.764 -24.13,-2.543C-24.147,-2.529 -24.167,-2.52 -24.184,-2.506C-28.505,1.076 -31.54,5.79 -33.056,11.138C-33.448,11.891 -33.824,12.656 -34.167,13.445C-35.362,16.191 -32.17,18.362 -30.218,16.408C-29.667,16.756 -28.904,16.957 -27.878,16.963C-24.938,16.978 -23.798,14.352 -23.079,11.937C-22.771,10.905 -22.478,9.869 -22.179,8.835C-22.117,8.867 -22.053,8.892 -21.988,8.921C-22.323,10.974 -22.499,13.166 -22.097,14.708C-22.093,14.951 -22.063,15.203 -21.975,15.475C-20.895,18.785 -17.869,19.128 -14.771,19.132C-9.371,19.14 -3.987,18.535 1.329,17.638C4.495,17.105 3.152,12.286 0,12.817" style="fill:rgb(236,102,7);fill-rule:nonzero;"/>
            </g>
            <g transform="matrix(1,0,0,1,461.481,416.654)">
                <path d="M0,-9.027C-0.561,-9.952 -1.759,-10.503 -2.823,-10.175C-3.701,-9.907 -4.464,-9.305 -4.96,-8.548C-5.555,-8.153 -5.996,-7.513 -6.05,-6.61C-6.164,-4.669 -5.956,-2.734 -5.483,-0.847C-5.007,1.058 -2.654,1.476 -1.306,0.255C1.27,-2.074 1.788,-6.077 0,-9.027" style="fill:rgb(236,102,7);fill-rule:nonzero;"/>
            </g>
            <g transform="matrix(1,0,0,1,460.675,403.564)">
                <path d="M0,-5.792C-0.696,-6.538 -1.586,-6.993 -2.516,-7.185C-2.686,-7.282 -2.861,-7.366 -3.044,-7.416C-3.839,-7.635 -4.553,-7.445 -5.117,-7.021C-6.429,-6.557 -7.509,-5.502 -7.841,-3.899C-8.199,-2.169 -7.454,-0.436 -5.897,0.43C-5.687,0.546 -5.476,0.64 -5.263,0.717C-4.483,1.424 -3.465,1.843 -2.373,1.798C-0.609,1.726 0.716,0.395 1.187,-1.234C1.65,-2.84 1.116,-4.593 0,-5.792" style="fill:rgb(236,102,7);fill-rule:nonzero;"/>
            </g>
            <g transform="matrix(1,0,0,1,490.31,405.428)">
                <path d="M0,10.083C-0.538,4.845 -2.487,0.328 -6.005,-3.646C-6.798,-4.543 -7.722,-4.637 -8.498,-4.285C-8.881,-4.326 -9.268,-4.296 -9.63,-4.191C-10.487,-5.29 -12.374,-5.672 -13.499,-4.578C-14.583,-3.523 -15.477,-2.367 -16.222,-1.142C-16.76,-0.711 -17.123,-0.09 -17.15,0.615C-17.33,1.011 -17.517,1.403 -17.667,1.812C-19.213,3.264 -22.185,6.006 -23.396,7.328C-23.543,7.365 -23.685,7.41 -23.826,7.455C-25.162,6.183 -28.071,6.766 -28.166,9.208C-28.225,10.704 -27.536,11.811 -26.516,12.431C-26.25,13.055 -25.756,13.557 -24.974,13.761C-23.526,14.139 -22.046,14.499 -20.551,14.663C-20.095,15.126 -19.46,15.418 -18.761,15.452C-12.597,15.755 -6.457,15.631 -0.31,15.08C2.761,14.805 2.884,10.145 0,10.083" style="fill:rgb(236,102,7);fill-rule:nonzero;"/>
            </g>
            <g transform="matrix(1,0,0,1,583.279,131.146)">
                <path d="M0,9.577C0.61,9.688 1.252,9.702 1.915,9.615C3.391,10.939 5.084,11.377 6.835,11.18C6.865,11.209 6.899,11.234 6.931,11.262C3.786,11.269 0.667,11.144 -2.506,10.809C-1.702,10.633 -0.852,10.202 0,9.577M28.868,-7.658C27.857,-8.142 26.473,-7.909 25.664,-7.09C25.352,-7.238 25.028,-7.381 24.666,-7.507C20.271,-9.038 15.639,-9.011 10.968,-8.66C10.14,-8.977 9.3,-9.039 8.471,-8.899C5.989,-9.338 3.496,-9.652 0.987,-9.829C-1.671,-10.373 -4.32,-10.447 -7.192,-9.967C-7.627,-9.895 -8.001,-9.751 -8.317,-9.558C-9.103,-9.772 -9.972,-9.614 -10.707,-9.051C-12.147,-10.295 -14.924,-10.015 -15.414,-7.543C-16.128,-3.943 -15.837,1.068 -13.22,4.027C-12.604,5.221 -11.542,6.056 -9.891,6.28C-9.462,6.7 -8.985,7.064 -8.466,7.363C-8.023,8.683 -7.27,9.744 -6.174,10.362C-7.47,10.278 -8.384,11.034 -8.819,12.015C-10.456,13.215 -10.379,16.591 -7.748,17.281C0.532,19.453 9.068,17.698 17.407,19.33C20.953,20.024 21.941,14.431 18.402,13.738C18.237,13.705 18.072,13.682 17.907,13.653C17.751,12.4 16.897,11.206 15.417,11.066C15.684,10.919 15.946,10.764 16.206,10.604C19.534,10.237 23.629,7.165 25.196,5.504C27.103,3.485 28.619,0.958 28.939,-1.389C29.455,-2.17 29.891,-3.002 30.213,-3.873C30.743,-5.308 30.312,-6.965 28.868,-7.658" style="fill:rgb(178,178,178);fill-rule:nonzero;"/>
            </g>
            <g transform="matrix(1,0,0,1,613.286,110.048)">
                <path d="M0,4.413C-0.53,2.698 -1.651,1.395 -3.112,0.408C-4.364,-1.505 -6.375,-3.106 -7.834,-5.054C-9.788,-7.663 -13.638,-5.236 -12.714,-2.601C-19.286,-3.891 -27.967,-6.598 -33.762,-3.343C-34.3,-3.041 -34.636,-2.649 -34.825,-2.221C-36.083,-1.588 -37.151,-0.519 -37.667,0.837C-37.718,0.826 -37.765,0.8 -37.817,0.791C-41.028,0.272 -45.909,-0.212 -47.875,3.154C-47.96,3.3 -48.031,3.446 -48.098,3.592C-48.474,3.636 -48.859,3.764 -49.243,3.997C-49.417,4.102 -49.591,4.208 -49.764,4.314C-50.548,4.79 -51.019,5.949 -50.899,6.861C-50.361,10.986 -46.752,11.313 -43.158,10.086C-40.002,10.528 -35.447,10.123 -32.06,8.565C-31.466,8.606 -30.869,8.569 -30.293,8.446C-29.684,8.316 -29.128,8.106 -28.615,7.84C-26.792,9.793 -24.127,10.655 -21.206,9.15C-20.771,8.927 -20.39,8.649 -20.04,8.344C-19.453,8.214 -18.87,8.049 -18.294,7.862C-18.166,7.953 -18.02,8.025 -17.881,8.107C-18.036,9.304 -17.547,10.638 -16.375,11.107C-14.18,11.987 -12.089,12.076 -9.815,11.533C-9.027,11.344 -8.463,10.62 -8.205,9.797C-7.026,10.166 -5.87,9.998 -4.881,9.445C-3.758,11.305 -0.451,11.368 0.141,8.701C1.258,7.5 1.206,5.415 0,4.413" style="fill:rgb(255,237,0);fill-rule:nonzero;"/>
            </g>
        </g>
        <g id="Layer-1" serif:id="Layer 1" transform="matrix(4.16667,0,0,4.16667,0,0)">
            <g transform="matrix(0.0110416,-0.999939,0.999939,0.0110416,0,0)">
                <path d="M-545.889,670.687C-545.889,671.239 -545.987,671.781 -546.183,672.313C-546.379,672.845 -546.661,673.319 -547.029,673.735C-547.397,674.151 -547.849,674.487 -548.385,674.743C-548.921,674.999 -549.525,675.127 -550.197,675.127C-550.869,675.127 -551.473,674.999 -552.009,674.743C-552.545,674.487 -552.997,674.151 -553.365,673.735C-553.733,673.319 -554.015,672.845 -554.211,672.313C-554.407,671.781 -554.505,671.239 -554.505,670.687C-554.505,670.135 -554.407,669.593 -554.211,669.061C-554.015,668.529 -553.733,668.055 -553.365,667.639C-552.997,667.223 -552.545,666.887 -552.009,666.631C-551.473,666.375 -550.869,666.247 -550.197,666.247C-549.525,666.247 -548.921,666.375 -548.385,666.631C-547.849,666.887 -547.397,667.223 -547.029,667.639C-546.661,668.055 -546.379,668.529 -546.183,669.061C-545.987,669.593 -545.889,670.135 -545.889,670.687ZM-546.645,670.687C-546.645,670.215 -546.729,669.753 -546.897,669.301C-547.065,668.849 -547.303,668.449 -547.611,668.101C-547.919,667.753 -548.291,667.473 -548.727,667.261C-549.163,667.049 -549.653,666.943 -550.197,666.943C-550.741,666.943 -551.231,667.049 -551.667,667.261C-552.103,667.473 -552.475,667.753 -552.783,668.101C-553.091,668.449 -553.329,668.849 -553.497,669.301C-553.665,669.753 -553.749,670.215 -553.749,670.687C-553.749,671.159 -553.665,671.621 -553.497,672.073C-553.329,672.525 -553.091,672.925 -552.783,673.273C-552.475,673.621 -552.103,673.901 -551.667,674.113C-551.231,674.325 -550.741,674.431 -550.197,674.431C-549.653,674.431 -549.163,674.325 -548.727,674.113C-548.291,673.901 -547.919,673.621 -547.611,673.273C-547.303,672.925 -547.065,672.525 -546.897,672.073C-546.729,671.621 -546.645,671.159 -546.645,670.687ZM-550.185,673.159C-550.497,673.159 -550.781,673.101 -551.037,672.985C-551.293,672.869 -551.515,672.705 -551.703,672.493C-551.891,672.281 -552.035,672.027 -552.135,671.731C-552.235,671.435 -552.285,671.103 -552.285,670.735C-552.285,670.303 -552.227,669.925 -552.111,669.601C-551.995,669.277 -551.837,669.007 -551.637,668.791C-551.437,668.575 -551.203,668.413 -550.935,668.305C-550.667,668.197 -550.385,668.143 -550.089,668.143C-549.825,668.143 -549.571,668.175 -549.327,668.239C-549.083,668.303 -548.853,668.415 -548.637,668.575C-548.597,668.607 -548.577,668.639 -548.577,668.671C-548.577,668.703 -548.585,668.739 -548.601,668.779L-548.745,669.103C-548.793,669.191 -548.865,669.207 -548.961,669.151C-549.345,668.919 -549.717,668.803 -550.077,668.803C-550.525,668.803 -550.877,668.965 -551.133,669.289C-551.389,669.613 -551.517,670.079 -551.517,670.687C-551.517,671.287 -551.387,671.739 -551.127,672.043C-550.867,672.347 -550.521,672.499 -550.089,672.499C-549.897,672.499 -549.705,672.471 -549.513,672.415C-549.321,672.359 -549.133,672.287 -548.949,672.199C-548.837,672.151 -548.765,672.179 -548.733,672.283L-548.649,672.583C-548.625,672.679 -548.645,672.743 -548.709,672.775C-548.941,672.911 -549.177,673.009 -549.417,673.069C-549.657,673.129 -549.913,673.159 -550.185,673.159Z" style="fill:rgb(29,29,27);fill-rule:nonzero;"/>
                <path d="M-541.197,675.007C-541.333,675.007 -541.401,674.943 -541.401,674.815L-541.401,666.559C-541.401,666.431 -541.333,666.367 -541.197,666.367L-539.313,666.367C-538.297,666.367 -537.565,666.587 -537.117,667.027C-536.725,667.403 -536.529,667.935 -536.529,668.623C-536.529,668.999 -536.621,669.349 -536.805,669.673C-536.989,669.997 -537.233,670.243 -537.537,670.411C-537.065,670.563 -536.701,670.821 -536.445,671.185C-536.189,671.549 -536.061,671.991 -536.061,672.511C-536.061,672.991 -536.139,673.391 -536.295,673.711C-536.451,674.031 -536.663,674.287 -536.931,674.479C-537.199,674.671 -537.511,674.807 -537.867,674.887C-538.223,674.967 -538.601,675.007 -539.001,675.007L-541.197,675.007ZM-539.169,674.227C-538.849,674.227 -538.557,674.201 -538.293,674.149C-538.029,674.097 -537.801,674.007 -537.609,673.879C-537.417,673.751 -537.269,673.577 -537.165,673.357C-537.061,673.137 -537.009,672.859 -537.009,672.523C-537.009,672.051 -537.145,671.679 -537.417,671.407C-537.585,671.239 -537.799,671.117 -538.059,671.041C-538.319,670.965 -538.641,670.927 -539.025,670.927L-540.477,670.927L-540.477,674.227L-539.169,674.227ZM-539.253,670.183C-538.637,670.183 -538.185,670.055 -537.897,669.799C-537.609,669.543 -537.465,669.163 -537.465,668.659C-537.465,668.187 -537.589,667.827 -537.837,667.579C-537.989,667.435 -538.183,667.327 -538.419,667.255C-538.655,667.183 -538.953,667.147 -539.313,667.147L-540.477,667.147L-540.477,670.183L-539.253,670.183Z" style="fill:rgb(29,29,27);fill-rule:nonzero;"/>
                <path d="M-532.161,675.127C-532.657,675.127 -533.085,675.053 -533.445,674.905C-533.805,674.757 -534.105,674.547 -534.345,674.275C-534.585,674.003 -534.763,673.675 -534.879,673.291C-534.995,672.907 -535.053,672.479 -535.053,672.007C-535.053,671.503 -534.985,671.039 -534.849,670.615C-534.713,670.191 -534.521,669.825 -534.273,669.517C-534.025,669.209 -533.725,668.971 -533.373,668.803C-533.021,668.635 -532.625,668.551 -532.185,668.551C-531.761,668.551 -531.391,668.633 -531.075,668.797C-530.759,668.961 -530.495,669.187 -530.283,669.475C-530.071,669.763 -529.913,670.105 -529.809,670.501C-529.705,670.897 -529.653,671.327 -529.653,671.791C-529.653,672.039 -529.721,672.163 -529.857,672.163L-534.129,672.163C-534.113,672.899 -533.925,673.441 -533.565,673.789C-533.205,674.137 -532.673,674.311 -531.969,674.311C-531.737,674.311 -531.489,674.281 -531.225,674.221C-530.961,674.161 -530.685,674.063 -530.397,673.927C-530.293,673.879 -530.217,673.903 -530.169,673.999L-530.013,674.371C-529.973,674.475 -530.005,674.559 -530.109,674.623C-530.677,674.959 -531.361,675.127 -532.161,675.127ZM-532.173,669.367C-532.725,669.367 -533.163,669.545 -533.487,669.901C-533.811,670.257 -534.017,670.755 -534.105,671.395L-530.553,671.395C-530.553,671.155 -530.585,670.915 -530.649,670.675C-530.713,670.435 -530.811,670.219 -530.943,670.027C-531.075,669.835 -531.243,669.677 -531.447,669.553C-531.651,669.429 -531.893,669.367 -532.173,669.367Z" style="fill:rgb(29,29,27);fill-rule:nonzero;"/>
                <path d="M-527.277,670.015C-527.077,669.591 -526.797,669.251 -526.437,668.995C-526.077,668.739 -525.701,668.611 -525.309,668.611C-525.213,668.611 -525.143,668.623 -525.099,668.647C-525.055,668.671 -525.033,668.727 -525.033,668.815L-525.033,669.235C-525.033,669.283 -525.043,669.323 -525.063,669.355C-525.083,669.387 -525.125,669.411 -525.189,669.427C-525.501,669.483 -525.763,669.563 -525.975,669.667C-526.187,669.771 -526.373,669.903 -526.533,670.063C-526.789,670.319 -526.973,670.635 -527.085,671.011C-527.197,671.387 -527.253,671.883 -527.253,672.499L-527.253,674.839C-527.253,674.951 -527.313,675.007 -527.433,675.007L-527.949,675.007C-528.069,675.007 -528.129,674.951 -528.129,674.839L-528.129,671.215C-528.129,670.751 -528.131,670.317 -528.135,669.913C-528.139,669.509 -528.149,669.151 -528.165,668.839C-528.165,668.727 -528.105,668.671 -527.985,668.671L-527.517,668.671C-527.389,668.671 -527.321,668.727 -527.313,668.839C-527.297,668.975 -527.287,669.155 -527.283,669.379C-527.279,669.603 -527.277,669.815 -527.277,670.015Z" style="fill:rgb(29,29,27);fill-rule:nonzero;"/>
                <path d="M-519.705,674.299C-519.913,674.547 -520.195,674.747 -520.551,674.899C-520.907,675.051 -521.277,675.127 -521.661,675.127C-521.981,675.127 -522.289,675.073 -522.585,674.965C-522.881,674.857 -523.133,674.699 -523.341,674.491C-523.565,674.267 -523.723,673.991 -523.815,673.663C-523.907,673.335 -523.953,672.919 -523.953,672.415L-523.953,668.839C-523.953,668.727 -523.893,668.671 -523.773,668.671L-523.257,668.671C-523.137,668.671 -523.077,668.727 -523.077,668.839L-523.077,671.899C-523.077,672.411 -523.057,672.813 -523.017,673.105C-522.977,673.397 -522.877,673.639 -522.717,673.831C-522.477,674.119 -522.065,674.263 -521.481,674.263C-521.241,674.263 -520.985,674.217 -520.713,674.125C-520.441,674.033 -520.225,673.907 -520.065,673.747C-520.009,673.683 -519.949,673.589 -519.885,673.465C-519.821,673.341 -519.777,673.127 -519.753,672.823C-519.737,672.639 -519.725,672.409 -519.717,672.133C-519.709,671.857 -519.705,671.523 -519.705,671.131L-519.705,668.839C-519.705,668.727 -519.645,668.671 -519.525,668.671L-519.009,668.671C-518.889,668.671 -518.829,668.727 -518.829,668.839L-518.829,675.199C-518.829,675.655 -518.885,676.061 -518.997,676.417C-519.109,676.773 -519.293,677.079 -519.549,677.335C-519.773,677.559 -520.053,677.731 -520.389,677.851C-520.725,677.971 -521.141,678.031 -521.637,678.031C-521.901,678.031 -522.175,678.011 -522.459,677.971C-522.743,677.931 -522.957,677.891 -523.101,677.851C-523.181,677.827 -523.229,677.797 -523.245,677.761C-523.261,677.725 -523.261,677.679 -523.245,677.623L-523.173,677.275C-523.157,677.203 -523.133,677.157 -523.101,677.137C-523.069,677.117 -523.009,677.115 -522.921,677.131C-522.705,677.171 -522.497,677.203 -522.297,677.227C-522.097,677.251 -521.869,677.263 -521.613,677.263C-521.269,677.263 -520.979,677.217 -520.743,677.125C-520.507,677.033 -520.317,676.907 -520.173,676.747C-520.005,676.555 -519.885,676.325 -519.813,676.057C-519.741,675.789 -519.705,675.475 -519.705,675.115L-519.705,674.299Z" style="fill:rgb(29,29,27);fill-rule:nonzero;"/>
                <path d="M-516.153,673.639C-516.153,673.903 -516.127,674.085 -516.075,674.185C-516.023,674.285 -515.893,674.335 -515.685,674.335C-515.573,674.335 -515.517,674.387 -515.517,674.491L-515.517,674.731C-515.517,674.795 -515.525,674.841 -515.541,674.869C-515.557,674.897 -515.589,674.919 -515.637,674.935C-515.677,674.951 -515.739,674.967 -515.823,674.983C-515.907,674.999 -515.993,675.007 -516.081,675.007C-516.281,675.007 -516.449,674.969 -516.585,674.893C-516.721,674.817 -516.821,674.715 -516.885,674.587C-516.949,674.475 -516.989,674.329 -517.005,674.149C-517.021,673.969 -517.029,673.723 -517.029,673.411L-517.029,668.815C-517.029,668.279 -517.033,667.841 -517.041,667.501C-517.049,667.161 -517.057,666.887 -517.065,666.679C-517.073,666.471 -517.081,666.317 -517.089,666.217C-517.097,666.117 -517.101,666.039 -517.101,665.983C-517.101,665.871 -517.049,665.815 -516.945,665.815L-516.405,665.815C-516.301,665.815 -516.245,665.859 -516.237,665.947C-516.213,666.131 -516.193,666.477 -516.177,666.985C-516.161,667.493 -516.153,668.155 -516.153,668.971L-516.153,673.639Z" style="fill:rgb(29,29,27);fill-rule:nonzero;"/>
                <path d="M-510.945,675.007C-511.081,675.007 -511.149,674.943 -511.149,674.815L-511.149,666.559C-511.149,666.431 -511.081,666.367 -510.945,666.367L-510.429,666.367C-510.293,666.367 -510.225,666.431 -510.225,666.559L-510.225,670.243L-506.193,670.243L-506.193,666.559C-506.193,666.431 -506.125,666.367 -505.989,666.367L-505.473,666.367C-505.337,666.367 -505.269,666.431 -505.269,666.559L-505.269,674.815C-505.269,674.943 -505.337,675.007 -505.473,675.007L-505.989,675.007C-506.125,675.007 -506.193,674.943 -506.193,674.815L-506.193,671.023L-510.225,671.023L-510.225,674.815C-510.225,674.943 -510.293,675.007 -510.429,675.007L-510.945,675.007Z" style="fill:rgb(29,29,27);fill-rule:nonzero;"/>
                <path d="M-501.009,675.127C-501.481,675.127 -501.887,675.047 -502.227,674.887C-502.567,674.727 -502.847,674.505 -503.067,674.221C-503.287,673.937 -503.449,673.605 -503.553,673.225C-503.657,672.845 -503.709,672.435 -503.709,671.995C-503.709,671.419 -503.637,670.915 -503.493,670.483C-503.349,670.051 -503.145,669.693 -502.881,669.409C-502.617,669.125 -502.305,668.911 -501.945,668.767C-501.585,668.623 -501.189,668.551 -500.757,668.551C-500.285,668.551 -499.879,668.631 -499.539,668.791C-499.199,668.951 -498.919,669.173 -498.699,669.457C-498.479,669.741 -498.317,670.073 -498.213,670.453C-498.109,670.833 -498.057,671.243 -498.057,671.683C-498.057,672.259 -498.129,672.763 -498.273,673.195C-498.417,673.627 -498.621,673.985 -498.885,674.269C-499.149,674.553 -499.461,674.767 -499.821,674.911C-500.181,675.055 -500.577,675.127 -501.009,675.127ZM-500.961,674.335C-500.721,674.335 -500.481,674.291 -500.241,674.203C-500.001,674.115 -499.789,673.971 -499.605,673.771C-499.421,673.571 -499.271,673.307 -499.155,672.979C-499.039,672.651 -498.981,672.251 -498.981,671.779C-498.981,671.515 -499.007,671.239 -499.059,670.951C-499.111,670.663 -499.205,670.401 -499.341,670.165C-499.477,669.929 -499.663,669.733 -499.899,669.577C-500.135,669.421 -500.437,669.343 -500.805,669.343C-501.045,669.343 -501.285,669.387 -501.525,669.475C-501.765,669.563 -501.977,669.707 -502.161,669.907C-502.345,670.107 -502.495,670.371 -502.611,670.699C-502.727,671.027 -502.785,671.427 -502.785,671.899C-502.785,672.163 -502.759,672.439 -502.707,672.727C-502.655,673.015 -502.561,673.277 -502.425,673.513C-502.289,673.749 -502.103,673.945 -501.867,674.101C-501.631,674.257 -501.329,674.335 -500.961,674.335Z" style="fill:rgb(29,29,27);fill-rule:nonzero;"/>
                <path d="M-493.449,671.263C-493.449,670.631 -493.401,670.051 -493.305,669.523C-493.209,668.995 -493.085,668.513 -492.933,668.077C-492.781,667.641 -492.611,667.249 -492.423,666.901C-492.235,666.553 -492.053,666.247 -491.877,665.983C-491.797,665.871 -491.713,665.839 -491.625,665.887L-491.301,666.043C-491.181,666.107 -491.153,666.191 -491.217,666.295C-491.465,666.703 -491.675,667.105 -491.847,667.501C-492.019,667.897 -492.159,668.297 -492.267,668.701C-492.375,669.105 -492.453,669.519 -492.501,669.943C-492.549,670.367 -492.573,670.807 -492.573,671.263C-492.573,671.719 -492.549,672.159 -492.501,672.583C-492.453,673.007 -492.375,673.421 -492.267,673.825C-492.159,674.229 -492.019,674.629 -491.847,675.025C-491.675,675.421 -491.465,675.823 -491.217,676.231C-491.153,676.335 -491.181,676.419 -491.301,676.483L-491.625,676.639C-491.713,676.687 -491.797,676.655 -491.877,676.543C-492.053,676.279 -492.235,675.973 -492.423,675.625C-492.611,675.277 -492.781,674.885 -492.933,674.449C-493.085,674.013 -493.209,673.531 -493.305,673.003C-493.401,672.475 -493.449,671.895 -493.449,671.263Z" style="fill:rgb(29,29,27);fill-rule:nonzero;"/>
                <path d="M-489.429,675.007C-489.565,675.007 -489.633,674.943 -489.633,674.815L-489.633,666.559C-489.633,666.431 -489.565,666.367 -489.429,666.367L-488.913,666.367C-488.777,666.367 -488.709,666.431 -488.709,666.559L-488.709,674.815C-488.709,674.943 -488.777,675.007 -488.913,675.007L-489.429,675.007Z" style="fill:rgb(29,29,27);fill-rule:nonzero;"/>
                <path d="M-485.817,674.815C-485.817,674.943 -485.885,675.007 -486.021,675.007L-486.489,675.007C-486.625,675.007 -486.693,674.943 -486.693,674.815L-486.693,666.559C-486.693,666.431 -486.629,666.367 -486.501,666.367L-485.985,666.367C-485.873,666.367 -485.791,666.381 -485.739,666.409C-485.687,666.437 -485.629,666.507 -485.565,666.619L-482.565,671.455C-482.293,671.903 -482.055,672.297 -481.851,672.637C-481.647,672.977 -481.445,673.323 -481.245,673.675C-481.261,673.355 -481.271,672.991 -481.275,672.583C-481.279,672.175 -481.281,671.759 -481.281,671.335L-481.281,666.559C-481.281,666.431 -481.213,666.367 -481.077,666.367L-480.609,666.367C-480.473,666.367 -480.405,666.431 -480.405,666.559L-480.405,674.815C-480.405,674.943 -480.473,675.007 -480.609,675.007L-481.113,675.007C-481.225,675.007 -481.307,674.993 -481.359,674.965C-481.411,674.937 -481.469,674.867 -481.533,674.755L-484.533,669.919C-484.813,669.463 -485.057,669.065 -485.265,668.725C-485.473,668.385 -485.669,668.043 -485.853,667.699C-485.837,668.019 -485.827,668.383 -485.823,668.791C-485.819,669.199 -485.817,669.615 -485.817,670.039L-485.817,674.815Z" style="fill:rgb(29,29,27);fill-rule:nonzero;"/>
                <path d="M-475.317,671.167C-475.453,671.167 -475.521,671.103 -475.521,670.975L-475.521,670.579C-475.521,670.459 -475.453,670.399 -475.317,670.399L-472.629,670.399C-472.493,670.399 -472.425,670.459 -472.425,670.579L-472.425,674.311C-472.425,674.399 -472.439,674.469 -472.467,674.521C-472.495,674.573 -472.561,674.619 -472.665,674.659C-473.001,674.803 -473.375,674.917 -473.787,675.001C-474.199,675.085 -474.609,675.127 -475.017,675.127C-475.617,675.127 -476.141,675.043 -476.589,674.875C-477.037,674.707 -477.413,674.467 -477.717,674.155C-478.085,673.779 -478.361,673.309 -478.545,672.745C-478.729,672.181 -478.821,671.535 -478.821,670.807C-478.821,670.039 -478.723,669.357 -478.527,668.761C-478.331,668.165 -478.045,667.667 -477.669,667.267C-477.357,666.931 -476.983,666.677 -476.547,666.505C-476.111,666.333 -475.617,666.247 -475.065,666.247C-474.561,666.247 -474.111,666.305 -473.715,666.421C-473.319,666.537 -472.985,666.687 -472.713,666.871C-472.601,666.951 -472.577,667.055 -472.641,667.183L-472.761,667.435C-472.801,667.507 -472.839,667.555 -472.875,667.579C-472.911,667.603 -472.965,667.595 -473.037,667.555C-473.645,667.203 -474.313,667.027 -475.041,667.027C-475.889,667.027 -476.541,667.287 -476.997,667.807C-477.293,668.135 -477.511,668.545 -477.651,669.037C-477.791,669.529 -477.861,670.087 -477.861,670.711C-477.861,671.343 -477.789,671.903 -477.645,672.391C-477.501,672.879 -477.277,673.279 -476.973,673.591C-476.741,673.823 -476.455,674.003 -476.115,674.131C-475.775,674.259 -475.365,674.323 -474.885,674.323C-474.629,674.323 -474.353,674.295 -474.057,674.239C-473.761,674.183 -473.513,674.115 -473.313,674.035L-473.313,671.167L-475.317,671.167Z" style="fill:rgb(29,29,27);fill-rule:nonzero;"/>
                <path d="M-468.849,671.263C-468.849,671.895 -468.897,672.475 -468.993,673.003C-469.089,673.531 -469.213,674.013 -469.365,674.449C-469.517,674.885 -469.687,675.277 -469.875,675.625C-470.063,675.973 -470.245,676.279 -470.421,676.543C-470.501,676.655 -470.585,676.687 -470.673,676.639L-470.997,676.483C-471.117,676.419 -471.145,676.335 -471.081,676.231C-470.833,675.823 -470.623,675.421 -470.451,675.025C-470.279,674.629 -470.139,674.229 -470.031,673.825C-469.923,673.421 -469.845,673.007 -469.797,672.583C-469.749,672.159 -469.725,671.719 -469.725,671.263C-469.725,670.807 -469.749,670.367 -469.797,669.943C-469.845,669.519 -469.923,669.105 -470.031,668.701C-470.139,668.297 -470.279,667.897 -470.451,667.501C-470.623,667.105 -470.833,666.703 -471.081,666.295C-471.145,666.191 -471.117,666.107 -470.997,666.043L-470.673,665.887C-470.585,665.839 -470.501,665.871 -470.421,665.983C-470.245,666.247 -470.063,666.553 -469.875,666.901C-469.687,667.249 -469.517,667.641 -469.365,668.077C-469.213,668.513 -469.089,668.995 -468.993,669.523C-468.897,670.051 -468.849,670.631 -468.849,671.263Z" style="fill:rgb(29,29,27);fill-rule:nonzero;"/>
            </g>
            <g transform="matrix(1,0,0,1,419.351,361.213)">
                <path d="M0,-18.629C-5.808,-3.073 0.985,16.096 15.15,24.76C19.396,27.356 24.133,29.065 28.952,30.308C33.416,31.459 38.01,32.226 42.617,32.115C56.143,31.788 69.109,23.255 74.884,11.02C80.657,-1.214 79.038,-16.57 70.947,-27.413C53.456,-50.855 10.601,-47.019 0,-18.629Z" style="fill:none;stroke:rgb(29,29,27);stroke-width:7px;"/>
            </g>
            <g transform="matrix(1,0,0,1,274.561,397)">
                <path d="M0,-5.315C2.737,2.099 10.449,6.877 16.98,5.205C23.513,3.533 27.999,-4.368 26.86,-12.192" style="fill:none;stroke:rgb(29,29,27);stroke-width:4px;"/>
            </g>
            <g transform="matrix(1,0,0,1,439.726,421.507)">
                <path d="M0,-30.837C-4.685,-20.973 -8.554,-10.745 -11.559,-0.284C-11.585,-0.19 -11.612,-0.095 -11.64,0" style="fill:none;stroke:rgb(29,29,27);stroke-width:7px;"/>
            </g>
            <g transform="matrix(1,0,0,1,529.679,450.218)">
                <path d="M0,-29.299C-46.187,-27.062 -92.434,-26.075 -138.674,-26.344C-138.292,-19.598 -138.846,-10.889 -138.465,-4.143C-138.374,-2.541 -138.065,-0.614 -136.577,0" style="fill:none;stroke:rgb(29,29,27);stroke-width:9px;"/>
            </g>
            <g transform="matrix(1,0,0,1,524.864,451.141)">
                <path d="M0,-29.16C0.48,-19.225 -0.989,-10.898 -0.509,-0.964C-44.955,-0.137 -89.413,0 -133.863,-0.556" style="fill:none;stroke:rgb(29,29,27);stroke-width:9px;"/>
            </g>
            <g transform="matrix(1,0,0,1,498.358,562.833)">
                <path d="M0,-110.099C-0.349,-73.765 2.965,-37.907 2.616,-1.574C-25.018,-0.148 -52.11,0 -79.781,-0.122C-77.996,-36.086 -77.114,-72.094 -77.137,-108.102" style="fill:none;stroke:rgb(29,29,27);stroke-width:8px;"/>
            </g>
            <g transform="matrix(1,0,0,1,440.487,420.635)">
                <path d="M0,-27.93C-1.128,-28.214 -0.872,-25.7 -0.086,-24.619C5.954,-16.318 11.994,-8.017 18.035,0.284C23.269,-8.076 31.462,-16.393 35.95,-25.441" style="fill:none;stroke:rgb(29,29,27);stroke-width:7px;"/>
            </g>
            <g transform="matrix(1,0,0,1,459.428,404.302)">
                <path d="M0,-10.409C-3.438,-11.422 -7.324,-7.921 -6.675,-4.396C-6.024,-0.872 -1.146,1.013 1.705,-1.159C4.556,-3.331 4.032,-8.535 0.807,-10.097" style="fill:none;stroke:rgb(29,29,27);stroke-width:5px;"/>
            </g>
            <g transform="matrix(-0.346516,0.938044,0.938044,0.346516,458.706,410.934)">
                <path d="M-5.771,-4.02C-2.982,-4.789 0.012,-4.789 2.801,-4.02" style="fill:none;stroke:rgb(29,29,27);stroke-width:5px;"/>
            </g>
            <g transform="matrix(0.236133,0.971721,0.971721,-0.236133,465.583,406.797)">
                <path d="M-3.161,-4.02C-0.425,-4.46 2.38,-4.459 5.115,-4.02" style="fill:none;stroke:rgb(29,29,27);stroke-width:5px;"/>
            </g>
            <g transform="matrix(1,0,0,1,244.171,372.711)">
                <path d="M0,8.612C-1.035,21.108 6.592,33.562 17.687,39.404C28.781,45.247 42.665,44.756 53.936,39.26C62.99,34.845 70.621,27.155 73.961,17.651C77.302,8.147 75.963,-3.113 69.655,-10.967C49.039,-36.635 2.817,-25.394 0,8.612Z" style="fill:none;stroke:rgb(29,29,27);stroke-width:7px;"/>
            </g>
            <g transform="matrix(1,0,0,1,242.812,348.216)">
                <path d="M0,38.11C9.196,36.105 17.223,30.328 23.523,23.336C29.824,16.344 34.597,8.139 39.322,0" style="fill:none;stroke:rgb(29,29,27);stroke-width:4px;"/>
            </g>
            <g transform="matrix(0.965205,-0.261494,-0.261494,-0.965205,278.283,363.186)">
                <path d="M-0.467,3.511C8.388,1.911 17.532,1.911 26.386,3.511" style="fill:none;stroke:rgb(29,29,27);stroke-width:4px;"/>
            </g>
            <g transform="matrix(1,0,0,1,284.065,472.497)">
                <path d="M0,-36.86C-5.223,-21.411 -10.166,-5.66 -14.492,10.063C-19.736,9.962 -24.935,8.166 -29.124,5.008C-22.513,-9.742 -16.921,-24.949 -12.401,-40.467C-11.788,-42.575 -11.188,-44.729 -11.26,-46.923" style="fill:none;stroke:rgb(29,29,27);stroke-width:7px;"/>
            </g>
            <g transform="matrix(-0.155589,0.987822,0.987822,0.155589,279.967,440.207)">
                <path d="M-19.444,-16.622C-8.227,-16.621 2.991,-16.622 14.208,-16.622" style="fill:none;stroke:rgb(29,29,27);stroke-width:7px;"/>
            </g>
            <g transform="matrix(1,0,0,1,300.276,518.996)">
                <path d="M0,-104.086C4.971,-84.151 5.105,-61.947 5.167,-40.376C5.206,-26.918 5.244,-13.459 5.283,0" style="fill:none;stroke:rgb(29,29,27);stroke-width:7px;"/>
            </g>
            <g transform="matrix(1,0,0,1,257.721,501.234)">
                <path d="M0,-19.45C-2.396,-14.206 -4.201,-7.804 -1.147,-2.914C-0.222,-1.432 1.268,-0.14 3.015,-0.089C5.984,0 7.823,-3.275 8.607,-6.14C9.444,-9.201 9.885,-12.37 9.917,-15.543" style="fill:none;stroke:rgb(29,29,27);stroke-width:5px;"/>
            </g>
            <g transform="matrix(0.731985,-0.681321,-0.681321,-0.731985,247.781,501.985)">
                <path d="M-1.931,4.909C2.061,8.271 8.487,8.272 12.478,4.909" style="fill:none;stroke:rgb(29,29,27);stroke-width:5px;"/>
            </g>
            <g transform="matrix(0.250851,0.968026,0.968026,-0.250851,277.945,494.3)">
                <path d="M-5.026,-7.679C-0.554,-5.256 5.141,-5.256 9.616,-7.679" style="fill:none;stroke:rgb(29,29,27);stroke-width:5px;"/>
            </g>
            <g transform="matrix(0.641341,-0.767256,-0.767256,-0.641341,288.439,516.957)">
                <path d="M-26.302,-12.172C-35.803,4.943 -44.285,24.128 -53.141,41.585C-44.985,46.456 -34.673,52.09 -26.302,56.581C-15.709,39.599 -6.086,22.013 2.506,3.936C-7.459,-2.334 -15.82,-6.81 -26.302,-12.172Z" style="fill:none;stroke:rgb(29,29,27);stroke-width:5px;"/>
            </g>
            <g transform="matrix(1,0,0,1,229.35,528.515)">
                <path d="M0,-23.245C-2.22,-17.443 1.231,-10.701 6.345,-7.175C11.459,-3.648 17.828,-2.592 23.973,-1.685C29.875,-0.814 35.913,0 41.775,-1.105C47.638,-2.212 53.396,-5.582 55.843,-11.023" style="fill:none;stroke:rgb(29,29,27);stroke-width:5px;"/>
            </g>
            <g transform="matrix(-0.170331,0.985387,0.985387,0.170331,258.036,528.842)">
                <path d="M-6.283,-5.291C-2.704,-5.29 0.876,-5.29 4.454,-5.291" style="fill:none;stroke:rgb(29,29,27);stroke-width:5px;"/>
            </g>
            <g transform="matrix(0.99913,0.0416929,0.0416929,-0.99913,288.259,515.129)">
                <path d="M-0.008,-0.376C5.996,-0.375 12.001,-0.376 18.005,-0.376" style="fill:none;stroke:rgb(29,29,27);stroke-width:7px;"/>
            </g>
            <g transform="matrix(1,0,0,1,298.921,554.552)">
                <path d="M0,-36.858C-0.274,-24.926 0.171,-12.978 1.333,-1.099C1.376,-0.659 1.525,-0.104 1.965,-0.051C2.405,0 2.269,-0.958 1.958,-0.641" style="fill:none;stroke:rgb(29,29,27);stroke-width:5px;"/>
            </g>
            <g transform="matrix(1,0,0,1,302.352,531.535)">
                <path d="M0,23.854C7.437,21.307 15.563,27.406 16.507,35.21C6.958,36.393 -2.825,35.657 -12.09,33.056C-12.31,30.968 -10.403,26.29 -10.586,24.198C-11.654,11.952 -12.722,-0.293 -13.79,-12.539" style="fill:none;stroke:rgb(29,29,27);stroke-width:5px;"/>
            </g>
            <g transform="matrix(1,0,0,1,260.784,565.2)">
                <path d="M0,-20.896C-2.317,-16.221 -4.056,-11.26 -5.162,-6.162C3.956,-4.191 14.369,-2.342 23.398,0" style="fill:none;stroke:rgb(29,29,27);stroke-width:5px;"/>
            </g>
            <g transform="matrix(1,0,0,1,273.016,564.346)">
                <path d="M0,-17.303C-0.232,-15.748 -0.465,-14.195 -0.698,-12.641C5.08,-12.909 11.082,-5.781 10.864,0" style="fill:none;stroke:rgb(29,29,27);stroke-width:5px;"/>
            </g>
            <g transform="matrix(1,0,0,1,243.22,438.074)">
                <path d="M0,-53.544C5.968,-40.939 10.386,-27.601 13.123,-13.926C13.844,-10.322 14.331,-6.191 12.035,-3.321C9.377,0 4.24,-0.038 0.234,-1.469" style="fill:none;stroke:rgb(29,29,27);stroke-width:7px;"/>
            </g>
            <g transform="matrix(1,0,0,1,105.121,295.615)">
                <path d="M0,-57.759C24.292,-76.829 54.797,-88.984 85.729,-91.919C107.357,-93.971 129.872,-91.332 147.157,-80.541C164.443,-69.75 175.333,-49.731 170.475,-30.156C167.381,-17.691 158.402,-6.584 147.51,1.824C136.618,10.232 123.855,16.22 111.015,21.612C92.467,29.4 71.405,36.212 53.095,30.246" style="fill:none;stroke:rgb(29,29,27);stroke-width:5px;"/>
            </g>
            <g transform="matrix(0.836222,0.548392,0.548392,-0.836222,168.34,314.875)">
                <path d="M-4.237,-14.189C11.007,-22.172 30.585,-22.172 47.508,-14.189" style="fill:none;stroke:rgb(29,29,27);stroke-width:5px;"/>
            </g>
            <g transform="matrix(1,0,0,1,202.594,239.671)">
                <path d="M0,112.255C-8.031,115.608 -16.974,115.583 -25.377,114.863C-57.227,112.136 -87.922,99.42 -104.067,76.285C-120.212,53.151 -118.674,18.949 -95.901,-3.353" style="fill:none;stroke:rgb(29,29,27);stroke-width:5px;"/>
            </g>
            <g transform="matrix(0.998242,0.0592764,0.0592764,-0.998242,293.886,557.634)">
                <path d="M-0.138,-0.565C5.098,-4.994 13.552,-4.994 18.79,-0.565" style="fill:none;stroke:rgb(29,29,27);stroke-width:3px;"/>
            </g>
            <g transform="matrix(0.987123,0.159965,0.159965,-0.987123,259.002,551.891)">
                <path d="M-0.3,-1.635C5.954,-4.801 13.712,-4.801 19.967,-1.635" style="fill:none;stroke:rgb(29,29,27);stroke-width:3px;"/>
            </g>
            <g transform="matrix(1,0,0,1,270.257,376.733)">
                <path d="M0,5.872C-0.836,3.281 1.638,0.487 4.35,0.243C7.061,0 9.628,1.656 11.381,3.74" style="fill:none;stroke:rgb(29,29,27);stroke-width:4px;"/>
            </g>
            <g transform="matrix(1,0,0,1,291.085,370.064)">
                <path d="M0,7.876C0.388,5.882 1.123,3.896 2.504,2.405C3.886,0.914 6.001,0 7.986,0.435C9.971,0.869 11.605,2.874 11.268,4.878" style="fill:none;stroke:rgb(29,29,27);stroke-width:4px;"/>
            </g>
            <g transform="matrix(-0.612199,0.790703,0.790703,0.612199,429.775,426.713)">
                <path d="M-34.099,-16.724C-20.286,-20.207 -5.61,-20.206 8.202,-16.724" style="fill:none;stroke:rgb(29,29,27);stroke-width:7px;"/>
            </g>
            <g transform="matrix(0.976223,-0.216767,-0.216767,-0.976223,276.381,395.71)">
                <path d="M-0.275,2.87C8.435,0.555 17.769,0.555 26.247,2.87" style="fill:none;stroke:rgb(29,29,27);stroke-width:4px;"/>
            </g>
            <g transform="matrix(0.97157,-0.236752,-0.236752,-0.97157,283.369,401.638)">
                <path d="M-0.634,1.957C3.414,6.468 11.439,6.468 15.488,1.957" style="fill:none;stroke:rgb(29,29,27);stroke-width:4px;"/>
            </g>
            <g transform="matrix(0.9377,-0.347446,-0.347446,-0.9377,153.884,277.972)">
                <path d="M-0.77,4.295C7.463,4.733 15.719,4.733 23.953,4.295" style="fill:none;stroke:rgb(29,29,27);stroke-width:4px;"/>
            </g>
            <g transform="matrix(0.924704,0.380687,0.380687,-0.924704,163.558,259.179)">
                <path d="M-0.449,-2.269L11.472,-2.269" style="fill:none;stroke:rgb(29,29,27);stroke-width:4px;"/>
            </g>
            <g transform="matrix(0.484721,-0.874669,-0.874669,-0.484721,174.785,275.906)">
                <path d="M-3.466,5.884L9.987,5.883" style="fill:none;stroke:rgb(29,29,27);stroke-width:4px;"/>
            </g>
            <g transform="matrix(1,0,0,1,234.112,275.66)">
                <path d="M0,-21.957C0.153,-15.643 -1.405,-8.864 -6.108,-4.648C-9.947,-1.207 -15.284,0.013 -20.421,0.448C-27.057,1.011 -34.369,0.224 -39.183,-4.378C-42.866,-7.898 -44.492,-13.431 -43.299,-18.383C-29.668,-19.905 -17.679,-22.03 -3.976,-22.61C-2.965,-22.653 -0.025,-22.968 0,-21.957Z" style="fill:none;stroke:rgb(29,29,27);stroke-width:5px;"/>
            </g>
            <g transform="matrix(1,0,0,1,224.636,282.627)">
                <path d="M0,-6.739C0.782,-4.868 1.402,-3.899 2.184,-2.028C-7.314,-0.353 -17.043,0 -26.637,-0.982C-26.053,-2.468 -25.188,-3.844 -24.102,-5.016" style="fill:none;stroke:rgb(29,29,27);stroke-width:5px;"/>
            </g>
            <g transform="matrix(1,0,0,1,210.309,259.611)">
                <path d="M0,-8.502C-5.876,-12.358 -13.354,-13.685 -20.199,-12.085C-21.183,-11.855 -22.19,-11.548 -22.941,-10.872C-24.461,-9.503 -24.445,-7.098 -23.87,-5.135C-23.294,-3.172 -22.277,-1.303 -22.177,0.74C-22.077,2.783 -23.373,5.133 -25.418,5.183" style="fill:none;stroke:rgb(29,29,27);stroke-width:2px;"/>
            </g>
            <g transform="matrix(1,0,0,1,194.02,243.281)">
                <path d="M0,11.016C0.833,9.088 2.339,7.546 3.813,6.051C5.955,3.879 8.257,1.613 11.221,0.891C14.882,0 18.653,1.673 21.916,3.558C23.59,4.526 25.284,5.582 27.196,5.868C29.109,6.153 31.33,5.431 32.135,3.673" style="fill:none;stroke:rgb(29,29,27);stroke-width:2px;"/>
            </g>
            <g transform="matrix(1,0,0,1,206.173,237.937)">
                <path d="M0,15.323C2.509,11.616 5.026,6.16 8.877,3.683C14.601,0 20.674,2.211 21.905,8.873C22.117,10.024 22.267,11.219 22.843,12.238C23.418,13.257 24.559,14.068 25.708,13.846C27.128,13.572 27.822,11.991 28.287,10.621" style="fill:none;stroke:rgb(29,29,27);stroke-width:2px;"/>
            </g>
            <g transform="matrix(1,0,0,1,222.18,247.504)">
                <path d="M0,-0.888C-0.5,0.583 -2.439,1.136 -3.906,0.624C-5.373,0.112 -6.438,-1.146 -7.348,-2.406C-8.257,-3.665 -9.123,-5.016 -10.417,-5.875C-11.901,-6.859 -13.769,-7.069 -15.548,-7.013C-21.339,-6.829 -26.993,-3.987 -30.596,0.551C-29.781,3.718 -25.358,3.06 -24.386,6.181" style="fill:none;stroke:rgb(29,29,27);stroke-width:2px;"/>
            </g>
            <g transform="matrix(1,0,0,1,215.625,237.212)">
                <path d="M0,13.714C2.498,12.999 2.821,9.7 3.647,7.236C4.422,4.928 6.063,2.922 8.172,1.706C11.741,-0.353 17.403,5.386 18.015,9.461C18.186,10.592 18.216,11.808 18.867,12.749C19.518,13.689 21.114,14.067 21.758,13.122" style="fill:none;stroke:rgb(29,29,27);stroke-width:2px;"/>
            </g>
            <g transform="matrix(1,0,0,1,196.485,242.774)">
                <path d="M0,-27.798C1.209,-18.323 1.565,-9.474 2.775,0C-2.796,-3.883 -8.054,-8.218 -12.928,-12.948" style="fill:none;stroke:rgb(29,29,27);stroke-width:5px;"/>
            </g>
            <g transform="matrix(1,0,0,1,437.811,371.931)">
                <path d="M0,-17.415C-0.414,-9.522 4.783,-2.088 11.444,-1.044C18.105,0 25.348,-5.485 27.393,-13.123" style="fill:none;stroke:rgb(29,29,27);stroke-width:4px;"/>
            </g>
            <g transform="matrix(1,0,0,1,437.443,342.711)">
                <path d="M0,1.762C0.255,-0.948 3.632,-2.538 6.219,-1.69C8.806,-0.842 10.511,1.694 11.298,4.3" style="fill:none;stroke:rgb(29,29,27);stroke-width:4px;"/>
            </g>
            <g transform="matrix(1,0,0,1,458.421,345.247)">
                <path d="M0,3.168C1.145,1.489 2.604,-0.045 4.462,-0.869C6.319,-1.692 8.624,-1.696 10.275,-0.514C11.928,0.669 12.638,3.157 11.536,4.864" style="fill:none;stroke:rgb(29,29,27);stroke-width:4px;"/>
            </g>
            <g transform="matrix(0.982463,0.186455,0.186455,-0.982463,438.912,353.682)">
                <path d="M-0.297,-2.479C8.413,-4.793 17.747,-4.794 26.224,-2.479" style="fill:none;stroke:rgb(29,29,27);stroke-width:4px;"/>
            </g>
            <g transform="matrix(0.986085,0.166239,0.166239,-0.986085,441.69,363.775)">
                <path d="M0.202,-1.314C4.249,3.197 12.275,3.197 16.323,-1.314" style="fill:none;stroke:rgb(29,29,27);stroke-width:4px;"/>
            </g>
            <g transform="matrix(0.205829,0.978588,0.978588,-0.205829,490.435,401.232)">
                <path d="M-9.679,-12.268C-1.609,-10.214 6.975,-10.214 15.045,-12.268" style="fill:none;stroke:rgb(29,29,27);stroke-width:7px;"/>
            </g>
            <g transform="matrix(1,0,0,1,477.587,418.974)">
                <path d="M0,-26.529C-0.584,-26.407 -0.063,-25.53 0.474,-25.27C5.158,-23.001 8.779,-18.928 11.379,-14.418C13.978,-9.908 15.65,-4.935 17.307,0" style="fill:none;stroke:rgb(29,29,27);stroke-width:7px;"/>
            </g>
            <g transform="matrix(0.0177132,0.999843,0.999843,-0.0177132,361.35,109.834)">
                <path d="M-46.557,-47.722C-14.873,-46.829 16.864,-46.828 48.57,-47.722" style="fill:none;stroke:rgb(236,102,7);stroke-width:8px;"/>
            </g>
            <g transform="matrix(1,0,0,1,316.476,242.913)">
                <path d="M0,-42.451C0.457,-28.7 0.532,-14.93 0.226,-1.172C36.788,-1.842 73.421,-0.454 109.985,0" style="fill:none;stroke:rgb(236,102,7);stroke-width:8px;"/>
            </g>
            <g transform="matrix(1,0,0,1,311.081,67.2202)">
                <path d="M0,0L50.414,0" style="fill:none;stroke:rgb(236,102,7);stroke-width:8px;"/>
            </g>
            <g transform="matrix(0.999956,-0.00936311,-0.00936311,-0.999956,388.332,65.7388)">
                <path d="M-0.007,0.612C43.509,2 87.161,2 130.718,0.612" style="fill:none;stroke:rgb(236,102,7);stroke-width:8px;"/>
            </g>
            <g transform="matrix(0.999981,-0.00623921,-0.00623921,-0.999981,448.232,243.355)">
                <path d="M-0.001,0.24C25.59,0.24 51.181,0.239 76.772,0.239" style="fill:none;stroke:rgb(236,102,7);stroke-width:8px;"/>
            </g>
            <g transform="matrix(0.0506435,0.998717,0.998717,-0.0506435,539.412,80.5547)">
                <path d="M-20.527,-21.594C-6.112,-21.594 8.302,-21.593 22.717,-21.594" style="fill:none;stroke:rgb(236,102,7);stroke-width:8px;"/>
            </g>
            <g transform="matrix(0.00866256,0.999962,0.999962,-0.00866256,582.492,182.838)">
                <path d="M-61.054,-61.007C-20.194,-61.939 20.695,-61.939 61.543,-61.007" style="fill:none;stroke:rgb(236,102,7);stroke-width:8px;"/>
            </g>
            <g transform="matrix(0.99995,-0.0100449,-0.0100449,-0.99995,311.088,159.012)">
                <path d="M-0.002,0.488C32.352,0.488 64.707,0.488 97.061,0.488" style="fill:none;stroke:rgb(236,102,7);stroke-width:5px;"/>
            </g>
            <g transform="matrix(1,0,0,1,384.504,165.37)">
                <path d="M0,-42.127C23.202,-42.551 46.404,-42.975 69.606,-43.399C69.606,-28.59 69.61,-13.537 69.61,1.272C82.642,1.272 96.627,0.214 109.66,0.214" style="fill:none;stroke:rgb(236,102,7);stroke-width:5px;"/>
            </g>
            <g transform="matrix(1,0,0,1,350.11,184.624)">
                <path d="M0,-25.382L0,0L55.199,0" style="fill:none;stroke:rgb(236,102,7);stroke-width:5px;"/>
            </g>
            <g transform="matrix(0.0271043,0.999633,0.999633,-0.0271043,369.175,109.263)">
                <path d="M-23.672,-24.323C-7.451,-24.324 8.769,-24.323 24.991,-24.323" style="fill:none;stroke:rgb(236,102,7);stroke-width:5px;"/>
            </g>
            <g transform="matrix(1,0,0,1,476.046,145.486)">
                <path d="M0,0L43.864,0" style="fill:none;stroke:rgb(236,102,7);stroke-width:5px;"/>
            </g>
            <g transform="matrix(0.0332748,0.999446,0.999446,-0.0332748,504.386,116.111)">
                <path d="M-26.54,-27.438C-8.238,-27.438 10.065,-27.438 28.367,-27.438" style="fill:none;stroke:rgb(236,102,7);stroke-width:5px;"/>
            </g>
            <g transform="matrix(0.00682898,0.999977,0.999977,-0.00682898,485.24,181.993)">
                <path d="M-60.096,-61.03C-19.707,-60.231 20.935,-60.231 61.445,-61.03" style="fill:none;stroke:rgb(236,102,7);stroke-width:5px;"/>
            </g>
            <g transform="matrix(0.999963,-0.0086087,-0.0086087,-0.999963,339.614,219.088)">
                <path d="M-0.002,0.356C27.567,0.357 55.137,0.356 82.706,0.356" style="fill:none;stroke:rgb(236,102,7);stroke-width:5px;"/>
            </g>
            <g transform="matrix(0.999643,-0.026736,-0.026736,-0.999643,465.593,194.054)">
                <path d="M-0.01,0.755L56.468,0.755" style="fill:none;stroke:rgb(236,102,7);stroke-width:5px;"/>
            </g>
            <g transform="matrix(0.00814722,0.999967,0.999967,-0.00814722,472.269,222.026)">
                <path d="M-23.841,-23.586C-7.974,-24.165 7.918,-24.165 23.783,-23.586" style="fill:none;stroke:rgb(236,102,7);stroke-width:5px;"/>
            </g>
            <g transform="matrix(0.999666,-0.025825,-0.025825,-0.999666,449.576,220.17)">
                <path d="M-0.008,0.603C15.571,0.603 31.15,0.603 46.73,0.603" style="fill:none;stroke:rgb(236,102,7);stroke-width:5px;"/>
            </g>
            <g transform="matrix(0.999652,-0.0263964,-0.0263964,-0.999652,343.913,107.324)">
                <path d="M-0.012,0.902L68.293,0.902" style="fill:none;stroke:rgb(236,102,7);stroke-width:5px;"/>
            </g>
            <g transform="matrix(0,1,1,0,453.979,104.233)">
                <path d="M-17.982,-17.982L17.982,-17.982" style="fill:none;stroke:rgb(236,102,7);stroke-width:5px;"/>
            </g>
            <g transform="matrix(1,0,0,1,455.068,91.6396)">
                <path d="M0,0L22.502,0" style="fill:none;stroke:rgb(236,102,7);stroke-width:5px;"/>
            </g>
            <g transform="matrix(1,0,0,1,496.071,124.331)">
                <path d="M0,0L22.885,0" style="fill:none;stroke:rgb(236,102,7);stroke-width:5px;"/>
            </g>
            <g transform="matrix(0.0266777,0.999644,0.999644,-0.0266777,516.496,104.17)">
                <path d="M-20.596,-21.153C-6.489,-21.153 7.617,-21.153 21.725,-21.153" style="fill:none;stroke:rgb(236,102,7);stroke-width:5px;"/>
            </g>
            <g transform="matrix(0,1,1,0,409.764,86.5409)">
                <path d="M-19.33,-19.33L19.33,-19.33" style="fill:none;stroke:rgb(236,102,7);stroke-width:5px;"/>
            </g>
            <g transform="matrix(1,0,0,1,613.538,141.144)">
                <path d="M0,-18.063C-0.682,-11.57 -3.181,-4.829 -8.562,-1.132C-12.954,1.885 -18.587,2.425 -23.91,2.188C-30.787,1.883 -38.178,0.104 -42.501,-5.253C-45.808,-9.351 -46.739,-15.238 -44.858,-20.156C-30.685,-19.903 -18.111,-20.488 -3.988,-19.261C-2.946,-19.17 0.109,-19.103 0,-18.063Z" style="fill:none;stroke:rgb(29,29,27);stroke-width:5px;"/>
            </g>
            <g transform="matrix(1,0,0,1,600.875,148.697)">
                <path d="M0,-4.135C0.553,-2.114 1.06,-1.037 1.612,0.984C-8.346,1.438 -18.365,0.507 -28.069,-1.775C-27.272,-3.221 -26.203,-4.516 -24.935,-5.573" style="fill:none;stroke:rgb(29,29,27);stroke-width:5px;"/>
            </g>
            <g transform="matrix(1,0,0,1,589.483,121.039)">
                <path d="M0,-3.781C-5.511,-8.515 -13,-10.869 -20.229,-10.139C-21.268,-10.034 -22.341,-9.853 -23.201,-9.26C-24.94,-8.059 -25.244,-5.592 -24.915,-3.503C-24.586,-1.414 -23.792,0.637 -23.961,2.744C-24.13,4.852 -25.771,7.088 -27.874,6.867" style="fill:none;stroke:rgb(29,29,27);stroke-width:2px;"/>
            </g>
            <g transform="matrix(1,0,0,1,572.363,109.047)">
                <path d="M0,9.313C1.109,7.448 2.859,6.067 4.569,4.73C7.053,2.789 9.714,0.772 12.848,0.427C16.72,0 20.362,2.216 23.456,4.582C25.044,5.796 26.64,7.105 28.562,7.651C30.484,8.198 32.857,7.752 33.916,6.058" style="fill:none;stroke:rgb(29,29,27);stroke-width:2px;"/>
            </g>
            <g transform="matrix(1,0,0,1,584.958,107.125)">
                <path d="M0,11.788C3.065,8.321 6.371,3.064 10.646,1.036C17.004,-1.978 22.936,1.096 23.311,8.088C23.376,9.296 23.371,10.541 23.825,11.662C24.279,12.783 25.342,13.766 26.549,13.691C28.041,13.6 28.963,12.071 29.62,10.729" style="fill:none;stroke:rgb(29,29,27);stroke-width:2px;"/>
            </g>
            <g transform="matrix(1,0,0,1,602.249,109.307)">
                <path d="M0,4.923C-0.708,6.364 -2.77,6.673 -4.204,5.954C-5.64,5.234 -6.564,3.802 -7.33,2.39C-8.095,0.978 -8.802,-0.522 -10.015,-1.574C-11.405,-2.78 -13.291,-3.244 -15.123,-3.422C-21.084,-4.004 -27.257,-1.842 -31.553,2.33C-31.14,5.685 -26.519,5.598 -25.937,8.927" style="fill:none;stroke:rgb(29,29,27);stroke-width:2px;"/>
            </g>
            <g transform="matrix(1,0,0,1,594.957,108.086)">
                <path d="M0,9.691C2.656,9.29 3.425,5.952 4.601,3.536C5.701,1.273 7.649,-0.565 9.973,-1.532C13.905,-3.168 18.946,3.468 19.032,7.726C19.057,8.908 18.926,10.159 19.468,11.21C20.011,12.26 21.597,12.859 22.382,11.976" style="fill:none;stroke:rgb(29,29,27);stroke-width:2px;"/>
            </g>
            <g transform="matrix(1,0,0,1,580.118,107.244)">
                <path d="M0,-28.863C-0.021,-18.99 -0.832,-9.872 -0.852,0C-6.046,-4.721 -10.858,-9.864 -15.227,-15.36" style="fill:none;stroke:rgb(29,29,27);stroke-width:5px;"/>
            </g>
        </g>
        <g id="Layer-3" serif:id="Layer 3" transform="matrix(4.16667,0,0,4.16667,0,0)">
            <g transform="matrix(1,0,0,1,592.189,371.614)">
                <path d="M0,-8.586C0.733,-9.181 1.482,-9.76 2.246,-10.324C2.2,-10.204 2.154,-10.084 2.105,-9.964C1.387,-9.463 0.675,-8.952 -0.032,-8.438C-0.021,-8.487 -0.011,-8.536 0,-8.586M15.934,-33.238C15.778,-33.219 15.625,-33.193 15.475,-33.158C15.421,-33.277 15.366,-33.397 15.307,-33.513C15.516,-33.421 15.726,-33.332 15.934,-33.238M-33.505,-23.403C-33.334,-24.386 -33.269,-25.386 -33.291,-26.391C-33.007,-26.464 -32.723,-26.537 -32.439,-26.61C-32.714,-25.527 -33.076,-24.453 -33.505,-23.403M50.021,14.226C53.323,9.718 55.293,4.597 54.908,-1.112C54.736,-3.672 54.181,-6.19 53.32,-8.643C54.054,-11.907 52.376,-16.104 50.506,-19.112C51.603,-19.124 52.61,-20.348 51.671,-21.339C49.45,-23.681 46.968,-25.761 44.27,-27.575C44.202,-27.667 44.123,-27.758 44.019,-27.846C41.47,-29.981 38.913,-32.112 36.294,-34.179C35.303,-34.96 34.312,-35.755 33.171,-36.361C31.803,-37.09 30.035,-37.373 28.854,-38.354C28.819,-38.384 28.781,-38.407 28.744,-38.434C24.277,-42.48 16.617,-43.371 10.823,-44.902C10.257,-45.052 9.773,-44.92 9.427,-44.653C8.934,-44.794 8.441,-44.939 7.945,-45.068C5.427,-45.729 2.82,-46.32 0.175,-46.769C-0.896,-47.737 -2.6,-48.027 -4.257,-48.152C-9.054,-48.515 -13.863,-48.772 -18.665,-49.081C-18.888,-49.095 -19.079,-49.063 -19.255,-49.011C-19.551,-49.437 -20.077,-49.744 -20.776,-49.674C-22.861,-49.464 -24.892,-49.115 -26.874,-48.656C-29.57,-48.562 -32.232,-48.314 -34.791,-47.941C-45.461,-46.39 -56.383,-42.733 -64.538,-36.344C-72.204,-30.338 -76.84,-21.357 -73.554,-12.198C-70.279,-3.071 -61.327,3.231 -52.467,8.035C-42.964,13.187 -32.718,17.397 -22.077,20.293C-28.422,21.617 -34.846,22.638 -41.309,23.472C-44.04,23.824 -46.777,24.143 -49.518,24.447C-50.194,24.282 -50.867,24.102 -51.531,23.895C-53.304,23.347 -54.944,24.025 -55.955,25.147C-60.405,25.685 -65.29,26.583 -69.618,25.475C-70.596,25.225 -71.322,25.799 -71.528,26.47C-73.2,26.064 -74.023,28.421 -72.294,29.053C-71.604,29.305 -70.907,29.543 -70.211,29.783C-69.988,30.06 -69.645,30.27 -69.164,30.326C-68.877,30.36 -68.59,30.393 -68.303,30.427C-66.708,30.951 -65.104,31.449 -63.492,31.919C-52.224,35.744 -40.599,38.576 -28.728,40.401C-28.032,40.508 -27.571,40.224 -27.354,39.804C-25.823,40.021 -24.291,40.22 -22.756,40.369C-14.618,41.158 -6.464,40.324 1.604,39.532C5.091,39.19 8.572,38.779 11.98,38.135C16.243,37.572 20.477,36.803 24.505,35.631C30.604,33.857 35.487,29.785 40.502,26.388C40.858,26.146 41.018,25.852 41.041,25.554C44.759,23.167 48.265,20.435 50.664,17.304C51.447,16.282 50.981,14.95 50.021,14.226" style="fill:rgb(29,29,27);fill-rule:nonzero;"/>
            </g>
            <g transform="matrix(1,0,0,1,559.831,364.349)">
                <path d="M0,-21.91C-3.651,-17.014 -6.381,-11.325 -7.969,-5.294C-8.8,-2.139 -9.318,1.233 -8.541,4.386C-7.763,7.539 -5.416,10.403 -2.408,10.773C0.01,11.069 2.36,9.768 4.371,8.26C12.186,2.398 19.702,-10.155 18.155,-20.888C16.413,-32.979 6.032,-29.996 0,-21.91Z" style="fill:none;stroke:white;stroke-width:6px;"/>
            </g>
            <g transform="matrix(-0.315376,0.948967,0.948967,0.315376,602.921,373.299)">
                <path d="M-27.58,-19.897C-13.605,-18.336 0.506,-18.336 14.355,-19.897" style="fill:none;stroke:white;stroke-width:6px;"/>
            </g>
            <g transform="matrix(1,0,0,1,584.991,351.772)">
                <path d="M0,14.631C-0.113,15.842 1.731,15.584 2.627,14.838C9.057,9.488 15.485,4.139 21.914,-1.211" style="fill:none;stroke:white;stroke-width:6px;"/>
            </g>
            <g transform="matrix(0.124676,0.992197,0.992197,-0.124676,602.403,374.684)">
                <path d="M-9.485,-10.752C-2.261,-10.751 4.963,-10.751 12.187,-10.752" style="fill:none;stroke:white;stroke-width:6px;"/>
            </g>
            <g transform="matrix(-0.369874,0.929082,0.929082,0.369874,630.417,372.381)">
                <path d="M-25.779,-17.484C-13.219,-16.31 -0.59,-16.31 11.858,-17.484" style="fill:none;stroke:white;stroke-width:6px;"/>
            </g>
            <g transform="matrix(1,0,0,1,606.831,394.499)">
                <path d="M0,-6.903C-2.889,-7.494 -5.853,-4.192 -5.212,-1.095C-3.042,0.591 0.559,-2.245 -0.256,-5C-1.519,-5.247 -2.825,-3.878 -2.635,-2.507" style="fill:none;stroke:white;stroke-width:6px;"/>
            </g>
            <g transform="matrix(1,0,0,1,560.74,414.227)">
                <path d="M0,-92.912C-12.853,-91.446 -25.799,-87.174 -34.274,-78.528C-42.75,-69.883 -45.55,-56.244 -38.439,-46.472C-35.187,-42.002 -30.265,-38.707 -25.242,-35.814C-15.698,-30.319 -5.381,-25.907 5.377,-22.72C-11.645,-17.74 -29.926,-16.07 -47.841,-17.855C-44.783,-14.484 -40.298,-12.422 -35.854,-10.675C-12.03,-1.307 14.779,1.755 40.269,-1.98C49.726,-3.367 59.157,-5.728 67.149,-10.372C77.36,-16.305 84.749,-25.926 87.284,-36.59C89.819,-47.254 87.471,-58.837 80.885,-68.154C74.007,-77.885 57.375,-83.338 45.807,-87.498C31.326,-92.706 15.393,-94.667 0,-92.912Z" style="fill:none;stroke:rgb(29,29,27);stroke-width:8px;"/>
            </g>
            <g transform="matrix(1,0,0,1,616.672,92.4635)">
                <path d="M0,-14.778C-3.262,-10.638 -6.656,-6.61 -10.184,-2.694C-11.884,-0.807 -9.094,2 -7.386,0.103C-3.857,-3.813 -0.464,-7.84 2.798,-11.98C4.356,-13.959 1.575,-16.778 0,-14.778" style="fill:rgb(255,237,0);fill-rule:nonzero;"/>
            </g>
            <g transform="matrix(1,0,0,1,641.457,111.648)">
                <path d="M0,-3.957L-14.244,-3.957C-16.791,-3.957 -16.795,0 -14.244,0L0,0C2.546,0 2.551,-3.957 0,-3.957" style="fill:rgb(255,237,0);fill-rule:nonzero;"/>
            </g>
            <g transform="matrix(1,0,0,1,638.075,142.933)">
                <path d="M0,-0.476C-5.068,-2.415 -10.235,-3.667 -15.609,-4.389C-18.125,-4.726 -18.101,-0.767 -15.609,-0.432C-10.611,0.239 -5.758,1.539 -1.052,3.339C1.329,4.25 2.358,0.426 0,-0.476" style="fill:rgb(255,237,0);fill-rule:nonzero;"/>
            </g>
            <g transform="matrix(1,0,0,1,557.582,91.547)">
                <path d="M0,0.347C-4.198,-1.041 -8.396,-2.428 -12.594,-3.816C-15.018,-4.617 -16.056,-0.797 -13.646,0C-9.448,1.388 -5.25,2.775 -1.052,4.163C1.371,4.964 2.41,1.144 0,0.347" style="fill:rgb(255,237,0);fill-rule:nonzero;"/>
            </g>
            <g transform="matrix(1,0,0,1,559.697,151.779)">
                <path d="M0,-9.864C-3.936,-7.715 -7.871,-5.566 -11.807,-3.416C-14.042,-2.196 -12.048,1.222 -9.81,0C-5.874,-2.149 -1.938,-4.298 1.997,-6.447C4.232,-7.668 2.238,-11.086 0,-9.864" style="fill:rgb(255,237,0);fill-rule:nonzero;"/>
            </g>
            <g transform="matrix(1,0,0,1,505.174,43.994)">
                <path d="M0,244.631C36.944,236.682 74.705,226.597 104.328,203.621C127.81,185.409 144.778,159.936 155.333,132.476C161.004,117.724 164.953,101.968 163.453,86.256C161.296,63.662 147.836,43.063 130.126,28.378C112.416,13.693 90.716,4.356 68.648,-2.643C3.134,-23.422 -67.943,-24.949 -135.328,-11.518C-169.737,-4.66 -205.203,7.2 -227.846,33.431C-243.518,51.586 -251.547,75.151 -254.343,98.787C-255.664,109.947 -255.89,121.291 -254.099,132.397C-248.214,168.905 -220.292,199.845 -186.271,215.939C-152.249,232.034 -112.934,234.706 -75.512,230.007C-82.541,230.89 -92.36,238.781 -98.843,241.887C-107.047,245.816 -115.354,249.54 -123.752,253.056C-138.157,259.086 -153.699,263.548 -167.814,269.58C-111.503,265.919 -55.043,256.474 0,244.631Z" style="fill:none;stroke:rgb(29,29,27);stroke-width:5px;"/>
            </g>
            <g transform="matrix(1,0,0,1,283.978,98.8591)">
                <path d="M0,83.01C8.493,82.377 16.986,81.743 25.479,81.11C29.513,80.809 33.942,80.616 37.179,83.043C41.282,86.119 41.765,92.053 44.583,96.339C48.74,102.659 57.125,104.387 64.649,105.177C76.94,106.468 89.34,106.719 101.673,105.926C108.258,105.503 115.327,104.566 120.166,100.079C125.248,95.366 126.581,87.968 127.635,81.117C129.773,67.211 130.472,49.913 118.544,42.45C113.863,39.521 108.163,38.888 102.721,37.949C97.279,37.01 91.553,35.498 87.842,31.408C84.132,27.318 83.675,19.899 88.255,16.813C90.527,15.282 93.442,15.129 96.179,15.259C102.721,15.569 109.165,17.2 115.713,17.244C122.262,17.287 129.329,15.383 133.269,10.152C139.497,1.885 136.059,-11.829 144.121,-18.321C147.39,-20.952 151.781,-21.617 155.955,-22.06C171.491,-23.709 187.214,-23.585 202.722,-21.694C211.374,-20.638 221.549,-17.699 224.04,-9.346C226.456,-1.244 221.256,10.435 228.784,14.286C230.539,15.184 232.582,15.274 234.551,15.345C243.028,15.655 251.503,15.964 259.98,16.273C259.83,17.958 258.595,19.495 256.983,20.006" style="fill:none;stroke:rgb(25,187,239);stroke-width:5px;"/>
            </g>
            <g transform="matrix(1,0,0,1,532.646,128.544)">
                <path d="M0,-28.192C4.47,-23.401 8.634,-18.362 11.65,-12.546C7.851,-8.364 4.052,-4.182 0.252,0" style="fill:none;stroke:rgb(25,187,239);stroke-width:5px;"/>
            </g>
        </g>
        <g transform="matrix(0.904519,0,0,0.904519,-84.1898,1045.44)">
            <g>
                <g>
                    <g>
                        <g transform="matrix(1,0,0,1,681.068,132.86)">
                            <path d="M0,31.834C-1.015,23.584 -2.028,15.334 -3.042,7.085C-3.512,3.259 -3.297,-3.013 -8.522,-3.124C-11.741,-3.191 -11.74,1.809 -8.522,1.876C-8.222,1.883 -5.283,29.532 -5,31.834C-4.613,34.986 0.392,35.025 0,31.834" style="fill:rgb(42,185,235);fill-rule:nonzero;"/>
                        </g>
                        <g transform="matrix(1,0,0,1,665.815,212.82)">
                            <path d="M0,-38.029C-1.541,-40.855 -5.86,-38.334 -4.317,-35.505C1.351,-25.108 3.387,-13.362 1.401,-1.674C0.867,1.473 5.685,2.826 6.223,-0.344C8.442,-13.412 6.352,-26.38 0,-38.029" style="fill:rgb(42,185,235);fill-rule:nonzero;"/>
                        </g>
                        <g transform="matrix(1,0,0,1,659.724,258.653)">
                            <path d="M0,-34.043C-1.53,-36.875 -5.849,-34.354 -4.317,-31.52C0.903,-21.859 2.918,-11.275 1.799,-0.366C1.472,2.832 6.474,2.81 6.799,-0.366C8.006,-12.129 5.616,-23.652 0,-34.043" style="fill:rgb(42,185,235);fill-rule:nonzero;"/>
                        </g>
                        <g transform="matrix(1,0,0,1,668.465,209.243)">
                            <path d="M0,-2.018C-9.835,-4.878 -19.92,-5.722 -30.088,-4.463C-33.239,-4.073 -33.278,0.932 -30.088,0.537C-20.316,-0.673 -10.791,0.052 -1.329,2.803C1.767,3.704 3.089,-1.12 0,-2.018" style="fill:rgb(183,178,177);fill-rule:nonzero;"/>
                        </g>
                        <g transform="matrix(1,0,0,1,675.723,165.366)">
                            <path d="M0,-1.845C-10.07,-4.822 -20.412,-5.736 -30.845,-4.504C-34.002,-4.131 -34.039,0.874 -30.845,0.496C-20.83,-0.686 -11.005,0.117 -1.329,2.977C1.764,3.891 3.084,-0.933 0,-1.845" style="fill:rgb(183,178,177);fill-rule:nonzero;"/>
                        </g>
                        <g transform="matrix(1,0,0,1,661.81,256.63)">
                            <path d="M0,-0.904C-9.29,-4.743 -19.159,-6.049 -29.129,-4.751C-32.274,-4.342 -32.315,0.664 -29.129,0.249C-19.544,-0.998 -10.264,0.225 -1.329,3.917C1.642,5.145 2.938,0.31 0,-0.904" style="fill:rgb(183,178,177);fill-rule:nonzero;"/>
                        </g>
                        <g transform="matrix(1,0,0,1,671.189,164.381)">
                            <path d="M0,-35.023L-25.277,-3.536C-27.273,-1.049 -23.758,2.51 -21.742,0C-13.316,-10.496 -4.891,-20.992 3.535,-31.487C5.531,-33.973 2.015,-37.533 0,-35.023" style="fill:rgb(241,145,33);fill-rule:nonzero;"/>
                        </g>
                        <g transform="matrix(1,0,0,1,660.06,204.88)">
                            <path d="M0,-28.985C-7.495,-20.502 -14.99,-12.019 -22.485,-3.536C-24.609,-1.132 -21.086,2.417 -18.95,0C-11.455,-8.484 -3.96,-16.966 3.535,-25.449C5.659,-27.853 2.136,-31.402 0,-28.985" style="fill:rgb(241,145,33);fill-rule:nonzero;"/>
                        </g>
                        <g transform="matrix(1,0,0,1,651.983,252.852)">
                            <path d="M0,-29.764C-9.03,-21.639 -17.128,-12.674 -24.377,-2.931C-26.299,-0.347 -21.961,2.148 -20.06,-0.407C-13.07,-9.801 -5.167,-18.398 3.536,-26.228C5.933,-28.385 2.388,-31.912 0,-29.764" style="fill:rgb(241,145,33);fill-rule:nonzero;"/>
                        </g>
                        <g transform="matrix(1,0,0,1,702.969,90.486)">
                            <path d="M0,201.41C-20.854,196.834 -41.903,193.265 -63.095,190.66C-73.354,189.398 -83.643,188.38 -93.95,187.607C-99.426,187.197 -104.907,186.856 -110.392,186.585C-113.27,186.442 -116.358,186.625 -119.192,186.011C-116.939,184.722 -115.606,182.213 -115.283,179.425C-107.914,115.793 -91.708,53.279 -67.673,-6.081C-66.141,-9.863 -69.341,-14.285 -72.911,-15.307C-77.183,-16.529 -80.623,-13.806 -82.137,-10.069C-106.716,50.634 -122.752,114.386 -130.283,179.425C-130.444,180.812 -130.037,182.129 -129.294,183.265C-134.108,185.1 -136.586,193.138 -130.892,197.214C-122.939,202.906 -110.958,201.49 -101.684,202.074C-90.724,202.764 -79.78,203.732 -68.868,204.975C-47.065,207.46 -25.419,211.171 -3.987,215.874C5.421,217.939 9.439,203.482 0,201.41" style="fill:rgb(183,178,177);fill-rule:nonzero;"/>
                        </g>
                        <g transform="matrix(1,0,0,1,700.008,76.4222)">
                            <path d="M0,212.423C-37.881,202.087 -77.604,198.107 -116.734,201.349C-114.167,182.014 -111.077,162.748 -107.469,143.58C-98.454,95.683 -86.026,47.929 -63.597,4.659C-28.18,0 7.731,3.007 42.04,12.956" style="fill:none;stroke:rgb(32,28,25);stroke-width:13.82px;"/>
                        </g>
                        <g transform="matrix(1,0,0,1,742.098,290.2)">
                            <path d="M0,-202.599C-8.178,-180.76 -16.211,-158.822 -22.271,-136.274C-34.192,-91.912 -38.321,-45.814 -42.401,0" style="fill:none;stroke:rgb(32,28,25);stroke-width:13.82px;"/>
                        </g>
                        <g transform="matrix(1,0,0,1,676.729,132.366)">
                            <path d="M0,34.893C-9.153,30.455 -19.389,28.371 -29.936,29.402C-24.912,23.376 -19.921,17.319 -14.961,11.233C-11.919,7.499 -8.888,3.755 -5.87,0C-1.805,10.276 0.271,23.199 0,34.893Z" style="fill:none;stroke:rgb(32,28,25);stroke-width:4.61px;"/>
                        </g>
                        <g transform="matrix(1,0,0,1,668.709,176.268)">
                            <path d="M0,34.893C-9.153,30.455 -19.388,28.371 -29.936,29.402C-21.831,19.679 -13.809,9.878 -5.87,0C-1.805,10.277 0.271,23.199 0,34.893Z" style="fill:none;stroke:rgb(32,28,25);stroke-width:4.61px;"/>
                        </g>
                        <g transform="matrix(1,0,0,1,661.75,224.366)">
                            <path d="M0,34.893C-9.153,30.455 -19.389,28.371 -29.936,29.402C-21.831,19.679 -13.809,9.877 -5.87,0C-1.805,10.276 0.271,23.199 0,34.893Z" style="fill:none;stroke:rgb(32,28,25);stroke-width:4.61px;"/>
                        </g>
                        <g transform="matrix(1,0,0,1,735.531,277.984)">
                            <path d="M0,-7.887C-1.354,-5.166 -1.084,-1.111 -0.872,1.815C-0.872,1.818 -0.871,1.821 -0.871,1.824C-1.483,2.912 -1.955,4.135 -1.954,5.292C-1.954,5.427 -1.929,5.554 -1.913,5.684C-3.256,6.717 -4.364,8.077 -4.597,9.648C-5.19,10.268 -5.712,10.954 -6.068,11.687C-10.964,14.249 -15.995,16.469 -21.179,18.365C-22.52,18.067 -23.88,17.875 -25.256,17.783C-26.515,17.102 -27.935,16.821 -29.372,16.713C-29.808,16.681 -30.354,16.702 -30.936,16.72C-31.342,16.474 -31.743,16.214 -32.133,15.925C-33.978,14.558 -35.363,13.248 -37.728,13.08C-38.135,11.423 -39.168,10.102 -40.929,9.761C-41.063,9.118 -41.333,8.513 -41.757,7.97C-40.636,7.148 -40.083,5.474 -41.336,4.182C-41.885,3.616 -42.385,3.003 -42.844,2.361C-43.008,1.839 -43.3,1.373 -43.691,1.032C-43.947,0.571 -44.185,0.1 -44.382,-0.391C-44.691,-1.161 -45.253,-1.788 -45.966,-2.069C-45.914,-2.158 -45.853,-2.236 -45.811,-2.337C-43.471,-7.89 -41.265,-13.494 -39.189,-19.153C-39.178,-19.183 -39.177,-19.212 -39.166,-19.242C-38.891,-19.401 -38.621,-19.575 -38.363,-19.772C-37.725,-20.26 -37.043,-20.969 -36.426,-21.796C-35.569,-21.57 -34.603,-21.567 -33.656,-21.808C-32.746,-22.041 -30.832,-22.989 -28.836,-24.28C-27.267,-24.201 -25.738,-24.307 -24.71,-24.436C-23.689,-24.565 -23.004,-25.176 -22.645,-25.93C-20.494,-25.657 -18.238,-25.758 -16.037,-25.711C-15.781,-25.515 -15.464,-25.362 -15.077,-25.272C-12.359,-24.64 -8.936,-23.804 -6.262,-22.188C-6.254,-22.174 -6.25,-22.16 -6.241,-22.146C-3.635,-17.925 -1.211,-13.607 1.05,-9.197C0.624,-8.843 0.258,-8.405 0,-7.887M12.809,-5.909C12.534,-7.39 11.331,-7.873 10.188,-7.655C9.943,-8.026 9.669,-8.364 9.379,-8.68C10.327,-11.694 10.691,-14.854 10.376,-18.074C10.236,-19.497 9.153,-20.283 8.029,-20.434C7.984,-20.51 7.955,-20.602 7.905,-20.671C7.847,-21.033 7.786,-21.394 7.708,-21.753C7.425,-23.074 5.882,-23.843 4.633,-23.499C4.597,-23.49 4.566,-23.471 4.53,-23.46C3.921,-24.596 3.263,-25.517 2.653,-26.016C2.698,-26.784 2.396,-27.565 1.628,-28.127C0.694,-30.254 -0.619,-32.199 -2.254,-33.9C-3.608,-35.307 -5.432,-34.559 -6.168,-33.238C-7.169,-33.892 -8.17,-34.545 -9.172,-35.199C-9.984,-35.729 -10.777,-35.702 -11.419,-35.366C-12.456,-35.885 -13.506,-36.35 -14.568,-36.683C-16.876,-37.407 -18.561,-36.599 -20.937,-36.514L-20.937,-36.509C-21.151,-36.489 -21.372,-36.462 -21.602,-36.425C-22.431,-36.293 -22.947,-35.794 -23.201,-35.165C-23.534,-35.161 -23.87,-35.155 -24.221,-35.135C-25.728,-35.301 -27.23,-35.527 -28.731,-35.871C-29.587,-36.067 -30.301,-35.842 -30.834,-35.408C-31.579,-35.622 -32.417,-35.501 -33.145,-34.808C-33.821,-34.163 -34.566,-33.429 -35.296,-32.632C-35.833,-32.903 -36.462,-32.994 -37.073,-32.829C-38.25,-32.51 -39.314,-31.862 -40.166,-31.007C-40.394,-30.992 -40.621,-30.958 -40.849,-30.907C-41.747,-31.251 -42.828,-31.137 -43.529,-30.385C-45.815,-27.93 -47.319,-25.262 -48.145,-22.265C-48.397,-21.897 -48.625,-21.507 -48.837,-21.107C-49.956,-20.955 -51.02,-20.167 -51.13,-18.738L-51.402,-15.211C-53.781,-11.799 -56.652,-6.946 -56.176,-2.881C-56.028,-1.622 -55.448,-0.593 -54.63,0.092C-56.037,1.824 -57.218,3.794 -57.277,5.687C-57.346,7.875 -55.677,9.179 -53.753,9.464C-53.654,9.535 -53.571,9.62 -53.463,9.684C-52.526,10.231 -51.682,10.502 -50.921,10.562C-50.762,10.988 -50.58,11.392 -50.362,11.76C-50.948,14.382 -50.946,16.972 -49.457,18.721C-49.014,19.241 -48.233,19.482 -47.53,19.438C-47.239,20.007 -46.88,20.51 -46.451,20.925C-46.852,21.024 -47.235,21.22 -47.567,21.551C-48.458,22.442 -48.607,24.216 -47.567,25.087C-45.665,26.68 -43.188,27.36 -40.774,26.576C-39.989,26.321 -39.378,25.73 -39.102,25.002C-39.089,24.998 -39.074,24.997 -39.061,24.993C-38.029,25.642 -36.9,26.019 -35.821,26.017C-35.021,26.789 -34.034,27.403 -33.064,27.752C-30.645,28.625 -27.124,28.709 -24.696,27.384C-24.51,27.474 -24.318,27.56 -24.114,27.633C-22.916,28.064 -21.637,28.287 -20.338,28.361C-20.182,28.445 -20.01,28.518 -19.821,28.574C-16.692,29.52 -13.304,28.631 -11.001,26.328C-10.765,26.092 -10.604,25.842 -10.485,25.586C-10.303,25.477 -10.127,25.36 -9.949,25.245C-9.058,25.042 -8.188,24.728 -7.443,24.409C-6.521,24.015 -5.668,23.515 -4.874,22.943C-0.36,22.122 3.444,17.848 6.127,13.856C7.137,12.935 7.975,11.885 8.474,10.776C8.887,10.24 9.073,9.554 8.956,8.832C8.977,8.356 8.921,7.877 8.779,7.398C8.79,6.947 8.876,6.489 9.053,5.935C9.179,5.542 9.167,5.121 9.068,4.718C9.413,4.341 9.746,3.956 10.061,3.563C10.455,3.175 10.77,2.718 11.036,2.226C12.561,-0.094 13.399,-2.722 12.809,-5.909" style="fill:rgb(234,101,35);fill-rule:nonzero;"/>
                        </g>
                        <g transform="matrix(1,0,0,1,701.274,345.935)">
                            <path d="M0,-35.974C-0.5,-38.566 -4.848,-38.362 -4.95,-35.366C-5.205,-27.96 -10.836,-20.076 -14.473,-13.858C-15.281,-12.474 -14.62,-11.166 -13.552,-10.537C-14.467,-8.472 -15.302,-6.372 -16.089,-4.255C-16.592,-3.79 -16.899,-3.113 -16.991,-2.368C-17.034,-2.019 -17.01,-1.674 -16.948,-1.336C-16.927,-1.042 -16.846,-0.775 -16.716,-0.537C-16.337,0.375 -15.635,1.171 -14.823,1.689C-13.434,2.578 -11.775,2.592 -10.197,2.393C-8.797,2.217 -7.778,1.388 -7.697,-0.107C-7.675,-0.526 -7.652,-0.945 -7.63,-1.365C-7.581,-2.259 -8.129,-3.058 -8.88,-3.5C-8.851,-3.567 -8.822,-3.633 -8.792,-3.7C-8.644,-3.895 -8.508,-4.109 -8.408,-4.367L-7.674,-6.262C-6.218,-9.616 -4.796,-12.984 -3.448,-16.382C-3.276,-16.815 -3.242,-17.206 -3.293,-17.56C-1.298,-22.705 0.696,-27.85 2.691,-32.995C3.451,-34.953 1.659,-36.178 0,-35.974" style="fill:rgb(114,111,110);fill-rule:nonzero;"/>
                        </g>
                        <g transform="matrix(1,0,0,1,705.269,353.476)">
                            <path d="M0,-40.2C-1.07,-37.222 -2.126,-34.242 -3.131,-31.25C-3.692,-30.989 -4.145,-30.48 -4.318,-29.667C-4.719,-27.787 -5.084,-25.903 -5.426,-24.015C-5.958,-22.221 -6.455,-20.418 -6.918,-18.606C-7.889,-18.896 -8.986,-18.647 -9.626,-17.495C-10.777,-15.423 -11.407,-13.254 -11.674,-10.909C-11.827,-9.565 -10.416,-8.409 -9.174,-8.409C-9.125,-8.409 -9.081,-8.42 -9.033,-8.423C-9.457,-5.712 -9.773,-2.975 -9.936,-0.203C-10.123,3.011 -5.122,3 -4.936,-0.203C-4.927,-0.342 -4.913,-0.478 -4.904,-0.616C-4.481,-0.709 -4.075,-0.885 -3.736,-1.154C-3.492,-1.349 -3.248,-1.544 -3.004,-1.738C-1.767,-2.725 -2.003,-4.076 -2.855,-4.959C-2.396,-11.028 -1.625,-17.045 -0.539,-23.024C1.062,-28.357 2.935,-33.624 4.821,-38.871C5.911,-41.904 1.082,-43.211 0,-40.2" style="fill:rgb(203,198,196);fill-rule:nonzero;"/>
                        </g>
                        <g transform="matrix(1,0,0,1,726.73,272.349)">
                            <path d="M0,4.508C0.063,4.095 0.127,3.682 0.19,3.27C0.454,2.882 0.7,2.485 0.914,2.072C0.695,2.893 0.379,3.714 0,4.508M-1.964,-12.323C-1.109,-11.76 -0.378,-10.985 0.229,-9.965C0.069,-9.997 -0.09,-10.018 -0.248,-10.035C-0.78,-10.852 -1.349,-11.619 -1.964,-12.323M7.635,1.387C7.569,0.86 7.478,0.303 7.362,-0.265C8.57,-6.305 4.722,-14.571 -0.074,-17.193C-4.261,-19.481 -9.749,-18.841 -14.293,-18.355C-19.707,-17.776 -24.807,-16.394 -29.322,-13.277C-30.926,-12.17 -30.619,-10.132 -29.537,-9.121C-32.873,-6.064 -35.012,-1.837 -34.499,2.696C-34.136,5.911 -32.62,8.994 -30.335,11.254C-30.096,12 -29.726,12.688 -29.256,13.313C-29.194,13.628 -29.051,13.953 -28.804,14.28C-23.091,21.844 -12.087,23.989 -4.303,18.175C3.533,17.272 8.666,9.643 7.635,1.387" style="fill:white;fill-rule:nonzero;"/>
                        </g>
                        <g transform="matrix(1,0,0,1,697.873,287.449)">
                            <path d="M0,-28.176C-5.322,-22.931 -7.485,-14.947 -5.451,-7.915C-3.418,-0.882 2.753,4.931 10.169,6.753C17.584,8.575 25.958,6.317 31.24,1.035C32.858,-0.582 34.2,-2.461 35.09,-4.528C36.022,-6.694 36.448,-9.027 36.738,-11.351C37.429,-16.869 37.224,-22.964 33.55,-27.281C25.49,-36.751 8.563,-36.614 0,-28.176Z" style="fill:none;stroke:rgb(32,28,25);stroke-width:9.21px;"/>
                        </g>
                        <g transform="matrix(1,0,0,1,704.435,238.401)">
                            <path d="M0,69.923C2.601,70.453 5.472,69.024 6.616,66.63C9.258,68.743 12.56,70.3 15.93,69.992C19.299,69.684 22.579,67.067 22.8,63.69C27.441,65.976 33.835,62.028 33.869,56.855C36.994,56.157 40.132,54.601 41.722,51.821C43.313,49.042 42.713,44.909 39.879,43.419C42.254,41.37 44.263,38.666 44.638,35.552C45.013,32.438 43.337,28.956 40.343,28.021C41.899,25.444 43.114,22.391 42.389,19.469C41.663,16.548 38.251,14.215 35.563,15.569C36.351,9.459 29.584,3.718 23.684,5.491C20.556,0.63 12.954,-0.53 8.519,3.179C4.1,0.48 -2.534,2.82 -4.283,7.694C-6.832,5.95 -10.431,5.902 -13.025,7.577C-15.621,9.252 -17.059,12.551 -16.52,15.592C-21.494,16.458 -23.926,23.635 -20.5,27.345C-23.309,27.033 -26.179,29.132 -26.731,31.903C-27.284,34.674 -25.439,37.714 -22.727,38.503C-25.525,39.622 -27.345,42.791 -26.9,45.772C-26.456,48.753 -23.79,51.254 -20.787,51.507C-21.899,52.844 -21.728,55.059 -20.423,56.21C-19.118,57.36 -16.899,57.253 -15.712,55.982C-17.784,58.817 -17.029,63.302 -14.144,65.303C-11.068,67.435 -9.15,64.749 -6.546,65.19C-3.787,65.657 -3.326,69.245 0,69.923Z" style="fill:none;stroke:rgb(32,28,25);stroke-width:4.61px;"/>
                        </g>
                        <g transform="matrix(1,0,0,1,713.939,349.022)">
                            <path d="M0,-40.497C-1.058,-40.445 -1.676,-39.309 -2.056,-38.319C-5.021,-30.61 -6.332,-22.382 -7.624,-14.224C-8.524,-8.548 -8.031,-1.167 -8.931,4.51C-16.431,2.977 -23.883,1.213 -31.274,-0.778C-31.921,-0.953 -33.78,-0.204 -33.494,-0.809C-26.747,-15.11 -21.021,-29.893 -16.375,-45.007" style="fill:none;stroke:rgb(32,28,25);stroke-width:4.61px;"/>
                        </g>
                        <g transform="matrix(1,0,0,1,706.732,309.863)">
                            <path d="M0,38.519C4.389,37.505 8.113,38.191 12.608,37.904C9.344,25.587 8.348,12.672 9.685,0" style="fill:none;stroke:rgb(32,28,25);stroke-width:4.61px;"/>
                        </g>
                        <g transform="matrix(-0.309831,0.950792,0.950792,0.309831,716.001,341.811)">
                            <path d="M-27.891,-20.246C-13.734,-21.548 0.54,-21.548 14.696,-20.246" style="fill:none;stroke:rgb(32,28,25);stroke-width:4.61px;"/>
                        </g>
                        <g transform="matrix(-0.137854,0.990453,0.990453,0.137854,654.771,106.88)">
                            <path d="M-12.935,-12.027C-5.245,-10.174 2.885,-10.174 10.576,-12.027" style="fill:none;stroke:rgb(234,101,35);stroke-width:4.61px;"/>
                        </g>
                        <g transform="matrix(0.529327,0.848418,0.848418,-0.529327,650.249,92.692)">
                            <path d="M-2.927,-5.277C1.188,-4.663 5.396,-4.663 9.511,-5.277" style="fill:none;stroke:rgb(234,101,35);stroke-width:4.61px;"/>
                        </g>
                        <g transform="matrix(0.671393,-0.741101,-0.741101,-0.671393,655.911,104.381)">
                            <path d="M-1.945,4.385C1.783,5.981 6.163,5.981 9.891,4.385" style="fill:none;stroke:rgb(234,101,35);stroke-width:4.61px;"/>
                        </g>
                        <g transform="matrix(-0.160375,0.987056,0.987056,0.160375,668.774,108.214)">
                            <path d="M-13.87,-11.799C-5.943,-12.794 2.109,-12.794 10.036,-11.799" style="fill:none;stroke:rgb(234,101,35);stroke-width:4.61px;"/>
                        </g>
                        <g transform="matrix(1,0,0,1,668.379,118.277)">
                            <path d="M0,-23.808C-2.501,-17.198 -3.88,-10.111 -4.07,-2.873C-1.35,-1.461 2.515,-0.617 5.472,0" style="fill:none;stroke:rgb(234,101,35);stroke-width:4.61px;"/>
                        </g>
                        <g transform="matrix(0.960533,0.278166,0.278166,-0.960533,668.174,95.0857)">
                            <path d="M-0.2,-1.412C3.091,-0.801 6.569,-0.8 9.955,-1.413" style="fill:none;stroke:rgb(234,101,35);stroke-width:4.61px;"/>
                        </g>
                        <g transform="matrix(0.93979,0.341753,0.341753,-0.93979,667.281,104.129)">
                            <path d="M-0.242,-1.376C2.441,-1.375 5.125,-1.375 7.807,-1.376" style="fill:none;stroke:rgb(234,101,35);stroke-width:4.61px;"/>
                        </g>
                        <g transform="matrix(-0.145196,0.989403,0.989403,0.145196,694.658,111.502)">
                            <path d="M-13.077,-11.298C-8.877,-11.298 -4.676,-11.298 -0.476,-11.298C2.936,-11.298 6.349,-11.298 9.761,-11.298" style="fill:none;stroke:rgb(234,101,35);stroke-width:4.61px;"/>
                        </g>
                        <g transform="matrix(1,0,0,1,684.605,119.617)">
                            <path d="M0,-20.815C1.975,-18.026 2.842,-14.632 3.959,-11.402C5.334,-7.423 7.14,-3.593 9.332,0" style="fill:none;stroke:rgb(234,101,35);stroke-width:4.61px;"/>
                        </g>
                        <g transform="matrix(-0.133879,0.990998,0.990998,0.133879,708.445,112.643)">
                            <path d="M-14.288,-12.487C-10.016,-12.71 -5.74,-12.819 -1.472,-12.816C2.666,-12.812 6.797,-12.703 10.914,-12.487" style="fill:none;stroke:rgb(234,101,35);stroke-width:4.61px;"/>
                        </g>
                        <g transform="matrix(1,0,0,1,707.343,122.668)">
                            <path d="M0,-21.827C-1.785,-17.337 -2.58,-12.457 -2.314,-7.633C-2.212,-5.769 -1.916,-3.821 -0.792,-2.33C0.331,-0.839 2.51,0 4.137,-0.915C4.9,-1.344 5.437,-2.079 5.909,-2.816C9.101,-7.789 10.47,-13.904 9.703,-19.762" style="fill:none;stroke:rgb(234,101,35);stroke-width:4.61px;"/>
                        </g>
                    </g>
                </g>
            </g>
        </g>
    </g>
</svg>
