<?xml version="1.0" encoding="UTF-8" standalone="no"?>
<!DOCTYPE svg PUBLIC "-//W3C//DTD SVG 1.1//EN" "http://www.w3.org/Graphics/SVG/1.1/DTD/svg11.dtd">
<svg width="100%" height="100%" viewBox="0 0 752 1170" version="1.1" xmlns="http://www.w3.org/2000/svg" xmlns:xlink="http://www.w3.org/1999/xlink" xml:space="preserve" xmlns:serif="http://www.serif.com/" style="fill-rule:evenodd;clip-rule:evenodd;stroke-miterlimit:10;">
    <g transform="matrix(4.16667,0,0,4.16667,-2369.97,-312.013)">
        <g transform="matrix(1,0,0,1,681.068,132.86)">
            <path d="M0,31.834C-1.015,23.584 -2.028,15.334 -3.042,7.085C-3.512,3.259 -3.297,-3.013 -8.522,-3.124C-11.741,-3.191 -11.74,1.809 -8.522,1.876C-8.222,1.883 -5.283,29.532 -5,31.834C-4.613,34.986 0.392,35.025 0,31.834" style="fill:rgb(23,187,238);fill-rule:nonzero;"/>
        </g>
        <g transform="matrix(1,0,0,1,665.815,212.82)">
            <path d="M0,-38.029C-1.541,-40.855 -5.86,-38.334 -4.317,-35.505C1.351,-25.108 3.387,-13.362 1.401,-1.674C0.867,1.473 5.685,2.826 6.223,-0.344C8.442,-13.412 6.352,-26.38 0,-38.029" style="fill:rgb(23,187,238);fill-rule:nonzero;"/>
        </g>
        <g transform="matrix(1,0,0,1,659.724,258.653)">
            <path d="M0,-34.043C-1.53,-36.875 -5.849,-34.354 -4.317,-31.52C0.903,-21.859 2.918,-11.275 1.799,-0.366C1.472,2.832 6.474,2.81 6.799,-0.366C8.006,-12.129 5.616,-23.652 0,-34.043" style="fill:rgb(23,187,238);fill-rule:nonzero;"/>
        </g>
        <g transform="matrix(1,0,0,1,668.465,209.243)">
            <path d="M0,-2.018C-9.835,-4.878 -19.92,-5.722 -30.088,-4.463C-33.239,-4.073 -33.278,0.932 -30.088,0.537C-20.316,-0.673 -10.791,0.052 -1.329,2.803C1.767,3.704 3.089,-1.12 0,-2.018" style="fill:rgb(181,178,177);fill-rule:nonzero;"/>
        </g>
        <g transform="matrix(1,0,0,1,675.723,165.366)">
            <path d="M0,-1.845C-10.07,-4.822 -20.412,-5.736 -30.845,-4.504C-34.002,-4.131 -34.039,0.874 -30.845,0.496C-20.83,-0.686 -11.005,0.117 -1.329,2.977C1.764,3.891 3.084,-0.933 0,-1.845" style="fill:rgb(181,178,177);fill-rule:nonzero;"/>
        </g>
        <g transform="matrix(1,0,0,1,661.81,256.63)">
            <path d="M0,-0.904C-9.29,-4.743 -19.159,-6.049 -29.129,-4.751C-32.274,-4.342 -32.315,0.664 -29.129,0.249C-19.544,-0.998 -10.264,0.225 -1.329,3.917C1.642,5.145 2.938,0.31 0,-0.904" style="fill:rgb(181,178,177);fill-rule:nonzero;"/>
        </g>
        <g transform="matrix(1,0,0,1,671.189,164.381)">
            <path d="M0,-35.023L-25.277,-3.536C-27.273,-1.049 -23.758,2.51 -21.742,0C-13.316,-10.496 -4.891,-20.992 3.535,-31.487C5.531,-33.973 2.015,-37.533 0,-35.023" style="fill:rgb(244,146,31);fill-rule:nonzero;"/>
        </g>
        <g transform="matrix(1,0,0,1,660.06,204.88)">
            <path d="M0,-28.985C-7.495,-20.502 -14.99,-12.019 -22.485,-3.536C-24.609,-1.132 -21.086,2.417 -18.95,0C-11.455,-8.484 -3.96,-16.966 3.535,-25.449C5.659,-27.853 2.136,-31.402 0,-28.985" style="fill:rgb(244,146,31);fill-rule:nonzero;"/>
        </g>
        <g transform="matrix(1,0,0,1,651.983,252.852)">
            <path d="M0,-29.764C-9.03,-21.639 -17.128,-12.674 -24.377,-2.931C-26.299,-0.347 -21.961,2.148 -20.06,-0.407C-13.07,-9.801 -5.167,-18.398 3.536,-26.228C5.933,-28.385 2.388,-31.912 0,-29.764" style="fill:rgb(244,146,31);fill-rule:nonzero;"/>
        </g>
        <g transform="matrix(1,0,0,1,702.969,90.486)">
            <path d="M0,201.41C-20.854,196.834 -41.903,193.265 -63.095,190.66C-73.354,189.398 -83.643,188.38 -93.95,187.607C-99.426,187.197 -104.907,186.856 -110.392,186.585C-113.27,186.442 -116.358,186.625 -119.192,186.011C-116.939,184.722 -115.606,182.213 -115.283,179.425C-107.914,115.793 -91.708,53.279 -67.673,-6.081C-66.141,-9.863 -69.341,-14.285 -72.911,-15.307C-77.183,-16.529 -80.623,-13.806 -82.137,-10.069C-106.716,50.634 -122.752,114.386 -130.283,179.425C-130.444,180.812 -130.037,182.129 -129.294,183.265C-134.108,185.1 -136.586,193.138 -130.892,197.214C-122.939,202.906 -110.958,201.49 -101.684,202.074C-90.724,202.764 -79.78,203.732 -68.868,204.975C-47.065,207.46 -25.419,211.171 -3.987,215.874C5.421,217.939 9.439,203.482 0,201.41" style="fill:rgb(181,178,177);fill-rule:nonzero;"/>
        </g>
        <g transform="matrix(1,0,0,1,700.008,76.4222)">
            <path d="M0,212.423C-37.881,202.087 -77.604,198.107 -116.734,201.349C-114.167,182.014 -111.077,162.748 -107.469,143.58C-98.454,95.683 -86.026,47.929 -63.597,4.659C-28.18,0 7.731,3.007 42.04,12.956" style="fill:none;stroke:rgb(30,28,26);stroke-width:8px;"/>
        </g>
        <g transform="matrix(1,0,0,1,742.098,290.2)">
            <path d="M0,-202.599C-8.178,-180.76 -16.211,-158.822 -22.271,-136.274C-34.192,-91.912 -38.321,-45.814 -42.401,0" style="fill:none;stroke:rgb(30,28,26);stroke-width:8px;"/>
        </g>
        <g transform="matrix(1,0,0,1,676.729,132.366)">
            <path d="M0,34.893C-9.153,30.455 -19.389,28.371 -29.936,29.402C-21.831,19.679 -13.809,9.877 -5.87,0C-1.805,10.276 0.271,23.199 0,34.893Z" style="fill:none;stroke:rgb(30,28,26);stroke-width:3px;"/>
        </g>
        <g transform="matrix(1,0,0,1,668.709,176.268)">
            <path d="M0,34.893C-9.153,30.455 -19.388,28.371 -29.936,29.402C-21.831,19.679 -13.809,9.878 -5.87,0C-1.805,10.277 0.271,23.199 0,34.893Z" style="fill:none;stroke:rgb(30,28,26);stroke-width:3px;"/>
        </g>
        <g transform="matrix(1,0,0,1,661.75,224.366)">
            <path d="M0,34.893C-9.153,30.455 -19.389,28.371 -29.936,29.402C-21.831,19.679 -13.809,9.877 -5.87,0C-1.805,10.276 0.271,23.199 0,34.893Z" style="fill:none;stroke:rgb(30,28,26);stroke-width:3px;"/>
        </g>
        <g transform="matrix(1,0,0,1,735.531,277.984)">
            <path d="M0,-7.887C-1.354,-5.166 -1.084,-1.111 -0.872,1.815C-0.872,1.818 -0.871,1.821 -0.871,1.824C-1.483,2.912 -1.955,4.135 -1.954,5.292C-1.954,5.427 -1.929,5.554 -1.913,5.684C-3.256,6.717 -4.364,8.077 -4.597,9.648C-5.19,10.268 -5.712,10.954 -6.068,11.687C-10.964,14.249 -15.995,16.469 -21.179,18.365C-22.52,18.067 -23.88,17.875 -25.256,17.783C-26.515,17.102 -27.935,16.821 -29.372,16.713C-29.808,16.681 -30.354,16.702 -30.936,16.72C-31.342,16.474 -31.743,16.214 -32.133,15.925C-33.978,14.558 -35.363,13.248 -37.728,13.08C-38.135,11.423 -39.168,10.102 -40.929,9.761C-41.063,9.118 -41.333,8.513 -41.757,7.97C-40.636,7.148 -40.083,5.474 -41.336,4.182C-41.885,3.616 -42.385,3.003 -42.844,2.361C-43.008,1.839 -43.3,1.373 -43.691,1.032C-43.947,0.571 -44.185,0.1 -44.382,-0.391C-44.691,-1.161 -45.253,-1.788 -45.966,-2.069C-45.914,-2.158 -45.853,-2.236 -45.811,-2.337C-43.471,-7.89 -41.265,-13.494 -39.189,-19.153C-39.178,-19.183 -39.177,-19.212 -39.166,-19.242C-38.891,-19.401 -38.621,-19.575 -38.363,-19.772C-37.725,-20.26 -37.043,-20.969 -36.426,-21.796C-35.569,-21.57 -34.603,-21.567 -33.656,-21.808C-32.746,-22.041 -30.832,-22.989 -28.836,-24.28C-27.267,-24.201 -25.738,-24.307 -24.71,-24.436C-23.689,-24.565 -23.004,-25.176 -22.645,-25.93C-20.494,-25.657 -18.238,-25.758 -16.037,-25.711C-15.781,-25.515 -15.464,-25.362 -15.077,-25.272C-12.359,-24.64 -8.936,-23.804 -6.262,-22.188C-6.254,-22.174 -6.25,-22.16 -6.241,-22.146C-3.635,-17.925 -1.211,-13.607 1.05,-9.197C0.624,-8.843 0.258,-8.405 0,-7.887M12.809,-5.909C12.534,-7.39 11.331,-7.873 10.188,-7.655C9.943,-8.026 9.669,-8.364 9.379,-8.68C10.327,-11.694 10.691,-14.854 10.376,-18.074C10.236,-19.497 9.153,-20.283 8.029,-20.434C7.984,-20.51 7.955,-20.602 7.905,-20.671C7.847,-21.033 7.786,-21.394 7.708,-21.753C7.425,-23.074 5.882,-23.843 4.633,-23.499C4.597,-23.49 4.566,-23.471 4.53,-23.46C3.921,-24.596 3.263,-25.517 2.653,-26.016C2.698,-26.784 2.396,-27.565 1.628,-28.127C0.694,-30.254 -0.619,-32.199 -2.254,-33.9C-3.608,-35.307 -5.432,-34.559 -6.168,-33.238C-7.169,-33.892 -8.17,-34.545 -9.172,-35.199C-9.984,-35.729 -10.777,-35.702 -11.419,-35.366C-12.456,-35.885 -13.506,-36.35 -14.568,-36.683C-16.876,-37.407 -18.561,-36.599 -20.937,-36.514L-20.937,-36.509C-21.151,-36.489 -21.372,-36.462 -21.602,-36.425C-22.431,-36.293 -22.947,-35.794 -23.201,-35.165C-23.534,-35.161 -23.87,-35.155 -24.221,-35.135C-25.728,-35.301 -27.23,-35.527 -28.731,-35.871C-29.587,-36.067 -30.301,-35.842 -30.834,-35.408C-31.579,-35.622 -32.417,-35.501 -33.145,-34.808C-33.821,-34.163 -34.566,-33.429 -35.296,-32.632C-35.833,-32.903 -36.462,-32.994 -37.073,-32.829C-38.25,-32.51 -39.314,-31.862 -40.166,-31.007C-40.394,-30.992 -40.621,-30.958 -40.849,-30.907C-41.747,-31.251 -42.828,-31.137 -43.529,-30.385C-45.815,-27.93 -47.319,-25.262 -48.145,-22.265C-48.397,-21.897 -48.625,-21.507 -48.837,-21.107C-49.956,-20.955 -51.02,-20.167 -51.13,-18.738L-51.402,-15.211C-53.781,-11.799 -56.652,-6.946 -56.176,-2.881C-56.028,-1.622 -55.448,-0.593 -54.63,0.092C-56.037,1.824 -57.218,3.794 -57.277,5.687C-57.346,7.875 -55.677,9.179 -53.753,9.464C-53.654,9.535 -53.571,9.62 -53.463,9.684C-52.526,10.231 -51.682,10.502 -50.921,10.562C-50.762,10.988 -50.58,11.392 -50.362,11.76C-50.948,14.382 -50.946,16.972 -49.457,18.721C-49.014,19.241 -48.233,19.482 -47.53,19.438C-47.239,20.007 -46.88,20.51 -46.451,20.925C-46.852,21.024 -47.235,21.22 -47.567,21.551C-48.458,22.442 -48.607,24.216 -47.567,25.087C-45.665,26.68 -43.188,27.36 -40.774,26.576C-39.989,26.321 -39.378,25.73 -39.102,25.002C-39.089,24.998 -39.074,24.997 -39.061,24.993C-38.029,25.642 -36.9,26.019 -35.821,26.017C-35.021,26.789 -34.034,27.403 -33.064,27.752C-30.645,28.625 -27.124,28.709 -24.696,27.384C-24.51,27.474 -24.318,27.56 -24.114,27.633C-22.916,28.064 -21.637,28.287 -20.338,28.361C-20.182,28.445 -20.01,28.518 -19.821,28.574C-16.692,29.52 -13.304,28.631 -11.001,26.328C-10.765,26.092 -10.604,25.842 -10.485,25.586C-10.303,25.477 -10.127,25.36 -9.949,25.245C-9.058,25.042 -8.188,24.728 -7.443,24.409C-6.521,24.015 -5.668,23.515 -4.874,22.943C-0.36,22.122 3.444,17.848 6.127,13.856C7.137,12.935 7.975,11.885 8.474,10.776C8.887,10.24 9.073,9.554 8.956,8.832C8.977,8.356 8.921,7.877 8.779,7.398C8.79,6.947 8.876,6.489 9.053,5.935C9.179,5.542 9.167,5.121 9.068,4.718C9.413,4.341 9.746,3.956 10.061,3.563C10.455,3.175 10.77,2.718 11.036,2.226C12.561,-0.094 13.399,-2.722 12.809,-5.909" style="fill:rgb(237,102,35);fill-rule:nonzero;"/>
        </g>
        <g transform="matrix(1,0,0,1,701.274,345.935)">
            <path d="M0,-35.974C-0.5,-38.566 -4.848,-38.362 -4.95,-35.366C-5.205,-27.96 -10.836,-20.076 -14.473,-13.858C-15.281,-12.474 -14.62,-11.166 -13.552,-10.537C-14.467,-8.472 -15.302,-6.372 -16.089,-4.255C-16.592,-3.79 -16.899,-3.113 -16.991,-2.368C-17.034,-2.019 -17.01,-1.674 -16.948,-1.336C-16.927,-1.042 -16.846,-0.775 -16.716,-0.537C-16.337,0.375 -15.635,1.171 -14.823,1.689C-13.434,2.578 -11.775,2.592 -10.197,2.393C-8.797,2.217 -7.778,1.388 -7.697,-0.107C-7.675,-0.526 -7.652,-0.945 -7.63,-1.365C-7.581,-2.259 -8.129,-3.058 -8.88,-3.5C-8.851,-3.567 -8.822,-3.633 -8.792,-3.7C-8.644,-3.895 -8.508,-4.109 -8.408,-4.367L-7.674,-6.262C-6.218,-9.616 -4.796,-12.984 -3.448,-16.382C-3.276,-16.815 -3.242,-17.206 -3.293,-17.56C-1.298,-22.705 0.696,-27.85 2.691,-32.995C3.451,-34.953 1.659,-36.178 0,-35.974" style="fill:rgb(113,111,110);fill-rule:nonzero;"/>
        </g>
        <g transform="matrix(1,0,0,1,705.269,353.476)">
            <path d="M0,-40.2C-1.07,-37.222 -2.126,-34.242 -3.131,-31.25C-3.692,-30.989 -4.145,-30.48 -4.318,-29.667C-4.719,-27.787 -5.084,-25.903 -5.426,-24.015C-5.958,-22.221 -6.455,-20.418 -6.918,-18.606C-7.889,-18.896 -8.986,-18.647 -9.626,-17.495C-10.777,-15.423 -11.407,-13.254 -11.674,-10.909C-11.827,-9.565 -10.416,-8.409 -9.174,-8.409C-9.125,-8.409 -9.081,-8.42 -9.033,-8.423C-9.457,-5.712 -9.773,-2.975 -9.936,-0.203C-10.123,3.011 -5.122,3 -4.936,-0.203C-4.927,-0.342 -4.913,-0.478 -4.904,-0.616C-4.481,-0.709 -4.075,-0.885 -3.736,-1.154C-3.492,-1.349 -3.248,-1.544 -3.004,-1.738C-1.767,-2.725 -2.003,-4.076 -2.855,-4.959C-2.396,-11.028 -1.625,-17.045 -0.539,-23.024C1.062,-28.357 2.935,-33.624 4.821,-38.871C5.911,-41.904 1.082,-43.211 0,-40.2" style="fill:rgb(200,198,197);fill-rule:nonzero;"/>
        </g>
        <g transform="matrix(1,0,0,1,726.73,272.349)">
            <path d="M0,4.508C0.063,4.095 0.127,3.682 0.19,3.27C0.454,2.882 0.7,2.485 0.914,2.072C0.695,2.893 0.379,3.714 0,4.508M-1.964,-12.323C-1.109,-11.76 -0.378,-10.985 0.229,-9.965C0.069,-9.997 -0.09,-10.018 -0.248,-10.035C-0.78,-10.852 -1.349,-11.619 -1.964,-12.323M7.635,1.387C7.569,0.86 7.478,0.303 7.362,-0.265C8.57,-6.305 4.722,-14.571 -0.074,-17.193C-4.261,-19.481 -9.749,-18.841 -14.293,-18.355C-19.707,-17.776 -24.807,-16.394 -29.322,-13.277C-30.926,-12.17 -30.619,-10.132 -29.537,-9.121C-32.873,-6.064 -35.012,-1.837 -34.499,2.696C-34.136,5.911 -32.62,8.994 -30.335,11.254C-30.096,12 -29.726,12.688 -29.256,13.313C-29.194,13.628 -29.051,13.953 -28.804,14.28C-23.091,21.844 -12.087,23.989 -4.303,18.175C3.533,17.272 8.666,9.643 7.635,1.387" style="fill:white;fill-rule:nonzero;"/>
        </g>
        <g transform="matrix(1,0,0,1,697.873,287.449)">
            <path d="M0,-28.176C-5.322,-22.931 -7.485,-14.947 -5.451,-7.915C-3.418,-0.882 2.753,4.931 10.169,6.753C17.584,8.575 25.958,6.317 31.24,1.035C32.858,-0.582 34.2,-2.461 35.09,-4.528C36.022,-6.694 36.448,-9.027 36.738,-11.351C37.429,-16.869 37.224,-22.964 33.55,-27.281C25.49,-36.751 8.563,-36.614 0,-28.176Z" style="fill:none;stroke:rgb(30,28,26);stroke-width:4px;"/>
        </g>
        <g transform="matrix(1,0,0,1,704.435,238.401)">
            <path d="M0,69.923C2.601,70.453 5.472,69.024 6.616,66.63C9.258,68.743 12.56,70.3 15.93,69.992C19.299,69.684 22.579,67.067 22.8,63.69C27.441,65.976 33.835,62.028 33.869,56.855C36.994,56.157 40.132,54.601 41.722,51.821C43.313,49.042 42.713,44.909 39.879,43.419C42.254,41.37 44.263,38.666 44.638,35.552C45.013,32.438 43.337,28.956 40.343,28.021C41.899,25.444 43.114,22.391 42.389,19.469C41.663,16.548 38.251,14.215 35.563,15.569C36.351,9.459 29.584,3.718 23.684,5.491C20.556,0.63 12.954,-0.53 8.519,3.179C4.1,0.48 -2.534,2.82 -4.283,7.694C-6.832,5.95 -10.431,5.902 -13.025,7.577C-15.621,9.252 -17.059,12.551 -16.52,15.592C-21.494,16.458 -23.926,23.635 -20.5,27.345C-23.309,27.033 -26.179,29.132 -26.731,31.903C-27.284,34.674 -25.439,37.714 -22.727,38.503C-25.525,39.622 -27.345,42.791 -26.9,45.772C-26.456,48.753 -23.79,51.254 -20.787,51.507C-21.899,52.844 -21.728,55.059 -20.423,56.21C-19.118,57.36 -16.899,57.253 -15.712,55.982C-17.784,58.817 -17.029,63.302 -14.144,65.303C-11.068,67.435 -9.15,64.749 -6.546,65.19C-3.787,65.657 -3.326,69.245 0,69.923Z" style="fill:none;stroke:rgb(30,28,26);stroke-width:5px;"/>
        </g>
        <g transform="matrix(1,0,0,1,713.939,349.022)">
            <path d="M0,-40.497C-1.058,-40.445 -1.676,-39.309 -2.056,-38.319C-5.021,-30.61 -6.332,-22.382 -7.624,-14.224C-8.524,-8.548 -8.031,-1.167 -8.931,4.51C-16.431,2.977 -23.883,1.213 -31.274,-0.778C-31.921,-0.953 -33.78,-0.204 -33.494,-0.809C-26.747,-15.11 -21.021,-29.893 -16.375,-45.007" style="fill:none;stroke:rgb(30,28,26);stroke-width:5px;"/>
        </g>
        <g transform="matrix(1,0,0,1,706.732,309.863)">
            <path d="M0,38.519C4.389,37.505 8.113,38.191 12.608,37.904C9.344,25.587 8.348,12.672 9.685,0" style="fill:none;stroke:rgb(30,28,26);stroke-width:5px;"/>
        </g>
        <g transform="matrix(-0.309831,0.950792,0.950792,0.309831,716.001,341.811)">
            <path d="M-27.891,-20.246C-13.734,-21.548 0.54,-21.548 14.696,-20.246" style="fill:none;stroke:rgb(30,28,26);stroke-width:4px;"/>
        </g>
        <g transform="matrix(-0.137854,0.990453,0.990453,0.137854,654.771,106.88)">
            <path d="M-12.935,-12.027C-5.245,-10.174 2.885,-10.174 10.576,-12.027" style="fill:none;stroke:rgb(237,102,35);stroke-width:4px;"/>
        </g>
        <g transform="matrix(0.529327,0.848418,0.848418,-0.529327,650.249,92.692)">
            <path d="M-2.927,-5.277C1.188,-4.663 5.396,-4.663 9.511,-5.277" style="fill:none;stroke:rgb(237,102,35);stroke-width:4px;"/>
        </g>
        <g transform="matrix(0.671393,-0.741101,-0.741101,-0.671393,655.911,104.381)">
            <path d="M-1.945,4.385C1.783,5.981 6.163,5.981 9.891,4.385" style="fill:none;stroke:rgb(237,102,35);stroke-width:4px;"/>
        </g>
        <g transform="matrix(-0.160375,0.987056,0.987056,0.160375,668.774,108.214)">
            <path d="M-13.87,-11.799C-5.943,-12.794 2.109,-12.794 10.036,-11.799" style="fill:none;stroke:rgb(237,102,35);stroke-width:4px;"/>
        </g>
        <g transform="matrix(1,0,0,1,668.379,118.277)">
            <path d="M0,-23.808C-2.501,-17.198 -3.88,-10.111 -4.07,-2.873C-1.35,-1.461 2.515,-0.617 5.472,0" style="fill:none;stroke:rgb(237,102,35);stroke-width:4px;"/>
        </g>
        <g transform="matrix(0.960533,0.278166,0.278166,-0.960533,668.174,95.0857)">
            <path d="M-0.2,-1.412C3.091,-0.801 6.569,-0.8 9.955,-1.413" style="fill:none;stroke:rgb(237,102,35);stroke-width:4px;"/>
        </g>
        <g transform="matrix(0.93979,0.341753,0.341753,-0.93979,667.281,104.129)">
            <path d="M-0.242,-1.376C2.441,-1.375 5.125,-1.375 7.807,-1.376" style="fill:none;stroke:rgb(237,102,35);stroke-width:4px;"/>
        </g>
        <g transform="matrix(-0.145196,0.989403,0.989403,0.145196,694.658,111.502)">
            <path d="M-13.077,-11.298C-5.464,-11.298 2.148,-11.298 9.761,-11.298" style="fill:none;stroke:rgb(237,102,35);stroke-width:4px;"/>
        </g>
        <g transform="matrix(1,0,0,1,684.605,119.617)">
            <path d="M0,-20.815C1.975,-18.026 2.842,-14.632 3.959,-11.402C5.334,-7.423 7.14,-3.593 9.332,0" style="fill:none;stroke:rgb(237,102,35);stroke-width:4px;"/>
        </g>
        <g transform="matrix(-0.133879,0.990998,0.990998,0.133879,708.445,112.643)">
            <path d="M-14.288,-12.487C-5.875,-12.925 2.549,-12.925 10.914,-12.487" style="fill:none;stroke:rgb(237,102,35);stroke-width:4px;"/>
        </g>
        <g transform="matrix(1,0,0,1,707.343,122.668)">
            <path d="M0,-21.827C-1.785,-17.337 -2.58,-12.457 -2.314,-7.633C-2.212,-5.769 -1.916,-3.821 -0.792,-2.33C0.331,-0.839 2.51,0 4.137,-0.915C4.9,-1.344 5.437,-2.079 5.909,-2.816C9.101,-7.789 10.47,-13.904 9.703,-19.762" style="fill:none;stroke:rgb(237,102,35);stroke-width:4px;"/>
        </g>
    </g>
</svg>
